<?xml version="1.0" encoding="utf-8"?>
<!-- Generator: Adobe Illustrator 21.1.0, SVG Export Plug-In . SVG Version: 6.00 Build 0)  -->
<svg version="1.1" id="Layer_1" xmlns="http://www.w3.org/2000/svg" xmlns:xlink="http://www.w3.org/1999/xlink" x="0px" y="0px"
	 viewBox="0 0 773.71 632" style="enable-background:new 0 0 773.71 632;" xml:space="preserve">
<style type="text/css">
	.st0{fill:#811846;}
	.st1{fill:#671F54;}
	.st2{fill:#E56A8B;}
	.st3{fill:#D24D51;}
	.st4{fill:#E8AC7A;}
	.st5{fill:#FDDFBF;}
	.st6{fill:#BF2154;}
	.st7{fill:#D66D72;}
	.st8{fill:#9C1D49;}
	.st9{fill:#F8B1A7;}
	.st10{fill:#FDD2A5;}
	.st11{fill:#FDDDC6;}
	.st12{fill:#F8AC9D;}
	.st13{fill:#F9D6A8;}
	.st14{fill:#E0826D;}
	.st15{fill:#DA6666;}
	.st16{fill:#BF3740;}
	.st17{fill:#6D103F;}
	.st18{fill:#F7A896;}
	.st19{fill:#F16B6E;}
	.st20{fill:#C52236;}
	.st21{fill:#20262D;}
	.st22{fill:#D2D6D8;}
	.st23{fill:#B8D3E1;}
	.st24{fill:#547B92;}
	.st25{fill:#FFFFFF;}
	.st26{fill:#DDF0F3;}
	.st27{fill:#241F21;}
	.st28{fill:#F0F2F2;}
	.st29{fill:#93A6B7;}
	.st30{fill:#181A1E;}
	.st31{fill:#313036;}
	.st32{fill:#404042;}
	.st33{fill:#919496;}
	.st34{fill:#B6DBDE;}
	.st35{fill:#CCD1D4;}
	.st36{fill:#E5E7E9;}
	.st37{fill:#2C698F;}
	.st38{fill:#ADB2B7;}
	.st39{fill:#DDE6EC;}
	.st40{fill:#DAECEC;}
</style>
<g>
	<g>
		<polygon class="st0" points="617.377,0 630.71,77 645.71,77 645.71,38.5 		"/>
		<polygon class="st1" points="655.377,0 645.71,38.5 617.377,0 		"/>
		<polygon class="st2" points="645.71,38.5 688.043,50.667 670.377,88.333 714.377,55 733.377,26.667 655.377,0 		"/>
		<polygon class="st3" points="733.377,26.667 712.71,0 655.377,0 		"/>
		<polygon class="st4" points="733.377,26.667 726.043,0 712.71,0 		"/>
		<polygon class="st5" points="726.043,0 768.377,0 773.71,32.667 773.71,69.667 733.377,26.667 		"/>
		<polygon class="st4" points="773.71,69.667 714.377,55 733.377,26.667 		"/>
		<polygon class="st1" points="626.043,103 630.71,77 645.71,77 645.71,38.5 688.043,50.667 648.71,77 642.71,94.333 		"/>
		<polygon class="st6" points="642.71,94.333 670.377,88.333 688.043,50.667 648.71,77 		"/>
		<polygon class="st7" points="670.377,88.333 685.377,109.333 731.64,59.267 714.377,55 		"/>
		<polygon class="st8" points="626.043,103 583.71,141 527.71,241.667 555.377,233.667 685.377,109.333 670.377,88.333 
			642.71,94.333 		"/>
		<polygon class="st9" points="731.64,59.267 747.654,63.226 718.043,132.333 593.377,264.333 555.377,233.667 685.377,109.333 		
			"/>
		<polygon class="st10" points="773.71,69.667 770.71,98.333 698.043,339.333 680.71,325.333 718.043,132.333 747.654,63.226 		"/>
		<polygon class="st11" points="718.043,132.333 680.71,325.333 683.71,343.667 606.543,282.667 614.784,241.667 		"/>
		<polygon class="st12" points="683.71,343.667 696.71,353.667 698.043,339.333 680.71,325.333 		"/>
		<polygon class="st13" points="606.543,282.667 582.71,294 567.043,292 623.377,329.333 667.009,330.465 		"/>
		<polygon class="st14" points="614.784,241.667 606.543,282.667 582.71,294 567.043,292 		"/>
		<polygon class="st15" points="555.377,233.667 581.913,255.082 560.377,282.667 534.377,258.167 		"/>
		<polygon class="st3" points="560.377,282.667 501.71,316 483.377,296.667 534.377,258.167 		"/>
		<polygon class="st16" points="501.71,316 486.377,330.465 467.71,309.333 483.377,296.667 		"/>
		<polygon class="st15" points="486.377,330.465 450.043,353.667 448.377,336.667 429.71,330.465 467.71,309.333 		"/>
		<polygon class="st17" points="527.71,241.667 482.043,285.333 464.71,303.667 433.71,319.333 397.043,348.667 403.043,350.667 
			429.71,330.465 467.71,309.333 483.377,296.667 534.377,258.167 555.377,233.667 		"/>
		<polygon class="st8" points="397.043,348.667 397.043,369.667 416.71,385.333 422.377,376.333 403.043,364.333 403.043,350.667 		
			"/>
		<polygon class="st11" points="422.377,376.333 450.043,353.667 448.377,336.667 429.71,330.465 403.043,350.667 403.043,364.333 
					"/>
		<polygon class="st18" points="416.71,385.333 458.043,380.667 489.377,364.333 537.043,319.667 567.043,292 593.377,264.333 
			581.913,255.082 560.377,282.667 501.71,316 486.377,330.465 450.043,353.667 422.377,376.333 		"/>
		<polygon class="st15" points="537.043,319.667 581.913,313.566 567.043,292 		"/>
		<polygon class="st0" points="609.607,320.208 606.543,340.667 581.913,313.566 567.043,292 		"/>
		<polygon class="st19" points="606.543,340.667 605.043,396.333 624.377,396.333 629.048,329.48 623.377,329.333 609.607,320.208 
					"/>
		<polygon class="st20" points="605.043,396.333 590.914,426 576.71,478.667 593.377,488.333 624.377,396.333 		"/>
		<polygon class="st3" points="576.71,478.667 544.043,543 558.043,554.333 593.377,488.333 		"/>
		<polygon class="st7" points="544.043,543 518.71,571.667 531.377,581.333 558.043,554.333 		"/>
		<polygon class="st11" points="696.71,353.667 694.377,373.667 680.71,381 637.377,488.333 584.377,562.167 527.043,632 
			516.043,617.333 525.71,620.667 624.377,485 683.71,343.667 		"/>
		<polygon class="st12" points="518.71,571.667 505.043,608 509.043,632 527.043,632 516.043,617.333 516.043,617.333 
			525.71,620.667 624.377,485 683.71,343.667 667.009,330.465 629.048,329.48 624.377,396.333 593.377,488.333 558.043,554.333 		
			"/>
	</g>
	<g>
		<path class="st21" d="M81.333,228.333L124.667,194l-20-22.667L122.333,0.667h-105L22,174.333c0,0,0,5,75.333,11.667
			L81.333,228.333z"/>
		<polygon class="st22" points="22,174.333 22,228.333 31.333,270.333 67.333,304.333 48.667,260.333 49.321,180.752 		"/>
		<polygon class="st23" points="31.333,270.333 33.667,304.333 67.333,304.333 		"/>
		<polygon class="st24" points="49.321,180.752 97.333,186 81.333,228.333 73.327,272 91.667,322.333 67.333,304.333 
			48.667,260.333 		"/>
		<polygon class="st25" points="33.667,304.333 62,366 110.333,379 68.667,331.131 67.333,304.333 		"/>
		<polygon class="st26" points="110.333,379 108,354.333 91.667,322.333 67.333,304.333 68.667,331.131 		"/>
		<polygon class="st27" points="147.333,367.667 108,354.333 91.667,322.333 73.327,272 81.333,228.333 111.855,204.151 
			97.333,247.667 94.333,285.909 105,310 		"/>
		<polygon class="st26" points="124.667,194 137,245 95.706,268.415 97.333,247.667 111.855,204.151 		"/>
		<polygon class="st28" points="137,245 124.667,275.333 134.667,292.833 112.983,320.874 105,310 94.333,285.909 95.706,268.415 		
			"/>
		<polygon class="st23" points="134.667,292.833 172,329.667 112.983,320.874 		"/>
		<polygon class="st22" points="112.983,320.874 182,329.667 147.333,367.667 		"/>
		<path class="st29" d="M182,329.667l-10,31v50c0,0-13.667-6-24.667-43S182,329.667,182,329.667z"/>
		<polygon class="st30" points="137,245 247.667,266.333 158.667,324.667 134.667,292.833 124.667,275.333 		"/>
		<polygon class="st31" points="158.667,324.667 193,317.667 218.667,314.232 244,294.333 226.872,279.963 		"/>
		<polygon class="st32" points="172,410.667 168.333,430.667 116.353,413.333 116.353,396.667 101,377 110.333,379 108,354.333 
			147.333,367.667 		"/>
		<polygon class="st33" points="62,366 86,404 116.353,413.333 116.353,396.667 101,377 		"/>
		<polygon class="st27" points="116.353,413.333 163.812,429.159 172,446 221.333,513 273.667,579.333 305,597 305,618 
			256.333,598.333 217.333,557.333 158.667,488 		"/>
		<polygon class="st34" points="140.667,495.667 176.333,495.667 196.667,517.167 168.667,517.167 		"/>
		<polygon class="st25" points="168.667,517.167 209.333,560.333 224.667,547.667 196.667,517.167 		"/>
		<polygon class="st35" points="216.333,514.333 216.333,526.667 239,552 250.333,538.75 230,514.333 		"/>
		<polygon class="st36" points="196.667,494.333 184,491.333 168.667,458 172,446 196.667,486 		"/>
		<polygon class="st37" points="172,446 180.667,438.333 203,475.667 196.667,486 		"/>
		<polygon class="st34" points="245,601.333 270,594 305,618 288,618 		"/>
		<polygon class="st28" points="224,228.333 222.333,270.333 229,287.333 282.333,322.333 296.667,306.5 		"/>
		<polygon class="st38" points="224,228.333 302.667,291 296.667,306.5 		"/>
		<polygon class="st27" points="231.269,304.333 233.333,319 249.667,319 282,341.667 282.333,322.333 242.027,295.883 		"/>
		<polygon class="st39" points="233.333,319 280.333,347.667 282,341.667 249.667,319 		"/>
		<polygon class="st27" points="302.667,291 307,308.75 299.333,339.333 339.333,379 328,384 293,366 282.333,322.333 
			296.667,306.5 		"/>
		<polygon class="st28" points="339.333,379 343.333,367.667 321.667,347.667 312.333,319 299.333,339.333 		"/>
		<polygon class="st29" points="299.333,339.333 312.333,319 321.667,347.667 343.333,367.667 345,351.333 310.833,292.833 
			307,308.75 		"/>
		<polygon class="st25" points="14.333,0.667 10,48 0,87.667 45,127.667 56.667,117.333 67.333,49.333 67.333,0.667 		"/>
		<path class="st22" d="M79.333,0.667l-18,120.667c0,0,0.333,15.667,28.667,23L109.667,0.667H79.333z"/>
		<polygon class="st29" points="90,144.333 118.333,153.667 137,0.667 109.667,0.667 		"/>
		<polygon class="st40" points="86,404 62,406.333 128.333,484.667 158.667,488 163.812,473.333 116.353,413.333 		"/>
		<polygon class="st25" points="101,413.333 138.616,485.797 156.984,487.815 		"/>
	</g>
</g>
</svg>
