<?xml version="1.0" encoding="utf-8"?>
<!-- Generator: Adobe Illustrator 19.2.1, SVG Export Plug-In . SVG Version: 6.00 Build 0)  -->
<svg version="1.1" xmlns="http://www.w3.org/2000/svg" xmlns:xlink="http://www.w3.org/1999/xlink" x="0px" y="0px"
	 viewBox="0 0 292.7 55.1" style="enable-background:new 0 0 292.7 55.1;" xml:space="preserve">
<style type="text/css">
	.st0{fill:#F39000;}
</style>
<g>
	<path class="st0" d="M52.1,21.9c0,1.6-0.6,2-6.7,2.8c-3.7,0.5-12.2,2.2-12.2,9.8c0,6.3,5,9.7,10.9,9.7c3.2,0,5.9-1.4,8.1-3.4
		l0.1,1.8c0,0.5,0.4,0.8,0.7,0.8h6.4c0.5,0,0.8-0.3,0.8-0.8V20.8c0-5.7-3-9.6-12.9-9.6c-3.8,0-8.1,0.8-10.9,2.2
		c-0.8,0.4-1.1,1.1-1.1,1.7v3.2c0,1,0.8,1.4,1.2,1.4c0.8,0,1.5-0.8,1.9-1.1c2.6-1.8,5.2-2.9,8.6-2.9C51.5,15.6,52.1,18.4,52.1,21.9z
		 M52.1,36.6c0,0.9-2.4,3.4-5.6,3.4c-3.7,0-5.1-2.7-5.1-5.3c0-3.8,2.9-7.3,10.7-7.3V36.6z"/>
	<path class="st0" d="M141.8,37.4c0,1.1,0.2,2.5,1.3,3.2c2.5,1.9,6.2,3.6,11.2,3.6c9.3,0,16.8-7.1,16.8-17.9
		c0-8.4-4.6-14.7-11.8-14.7c-4.8,0-7.9,2.5-9.2,3.6v-14c0-0.5-0.4-0.8-0.8-0.8h-6.7c-0.4,0-0.7,0.3-0.7,0.8V37.4z M150.1,37.9V19
		c1.1-0.8,2.9-2.2,5.4-2.2c6.4,0,7,8.3,7,11.2c0,7.9-3.2,12.5-7.6,12.5c-2,0-3.1-0.3-3.8-0.8C150.2,39.2,150.1,38.6,150.1,37.9
		C150.1,37.9,150.1,38.6,150.1,37.9z"/>
	<path class="st0" d="M261.1,12h-3.2c-0.5,0-0.8,0.3-1,0.8l-7.4,20.1l-7.6-20.1c-0.2-0.6-0.5-0.8-1.1-0.8h-7.6
		c-0.4,0-0.6,0.2-0.6,0.6c0,0.2,0.1,0.4,0.3,1.1l12.8,29.5c-0.1,5.2-5.1,6.9-10.6,5.4c-0.8-0.2-1.4-0.4-2.2-0.4
		c-0.5,0-0.9,0.5-0.9,1v4c0,0.7,0.5,1.3,1.4,1.5c1.2,0.3,2,0.3,2.9,0.3c5.4,0,10.4-3.8,12.2-8.3l12.9-33.2c0.1-0.4,0.3-0.6,0.3-0.9
		C261.7,12.3,261.4,12,261.1,12z"/>
	<path class="st0" d="M1.2,41.9c11.8,5.5,28.5,2.3,28.5-11.8c0-13-22.2-12.1-22.2-20.1c0-3.2,3.1-5.4,7-5.4c3.5,0,6.2,1.2,9,3.2
		c0.8,0.6,1.3,0.9,1.9,0.9c0.8,0,1-0.5,1-1.1V3.5c0-0.6-0.1-1-0.8-1.3C23.2,1.3,19,0.4,14.4,0.4C5.1,0.4,0,6.2,0,12.7
		c0,14.2,21.9,11.2,21.9,20.8c0,5.8-8.4,9.9-18.2,3.1c-0.9-0.6-1.3-1-2-1c-1.2,0-1.4,0.6-1.4,1.3v3.6C0.4,41.1,0.5,41.4,1.2,41.9z"
		/>
	<path class="st0" d="M66.4,42.7c0,0.5,0.3,0.8,0.7,0.8h6.7c0.5,0,0.8-0.4,0.8-0.8V12.9c0-0.5-0.4-0.8-0.8-0.8h-6.7
		c-0.4,0-0.7,0.4-0.7,0.8V42.7z"/>
	<path class="st0" d="M70.4,0c-3.1,0-4.6,1.8-4.6,3.9c0,2.5,1.8,4.2,4.6,4.2c2.7,0,4.4-1.7,4.4-4.2C74.8,1.8,73.3,0,70.4,0z"/>
	<path class="st0" d="M194.9,33.2c0,4.6-1.4,7-5.7,7c-3.6,0-5.7-2-5.7-5.3V12.8c0-0.5-0.4-0.8-0.8-0.8h-6.7c-0.4,0-0.7,0.3-0.7,0.8
		v20.5c0,7.9,7,10.8,14,10.8c7,0,14-3,14-11.6V12.8c0-0.5-0.4-0.8-0.8-0.8h-6.7c-0.4,0-0.7,0.3-0.7,0.8V33.2z"/>
	<path class="st0" d="M81.6,42.7c0,0.5,0.3,0.8,0.7,0.8h6.8c0.5,0,0.8-0.3,0.8-0.8V18.6c1.3-0.8,4.2-2.2,6.6-2.2
		c4.6,0,4.9,2.8,4.9,5.2v21c0,0.5,0.4,0.8,0.7,0.8h6.8c0.5,0,0.8-0.3,0.8-0.8V20.9c0-5.7-3-9.6-9.8-9.6c-3.9,0-8.2,1.9-10.1,3.2
		v-1.6c0-0.5-0.4-0.8-0.9-0.8h-6.3c-0.5,0-0.9,0.4-0.9,0.8V42.7z"/>
	<path class="st0" d="M267.5,13.1c3.3,0,7.1-12.4,0.9-12.4h-3.3c-0.8,0-0.9,0.6-0.9,1c0,0.8,2.1,3,2.1,5.9c0,3-1.1,4-1.1,4.9
		c0,0.3,0.4,0.6,0.8,0.6H267.5z"/>
	<path class="st0" d="M135.3,13.3c-9.1-3.8-21.3-1.8-21.3,8.1c0,11.2,17.7,8.8,17.7,14.9c0,4.8-8.3,5.3-14.4,0.7
		c-0.4-0.3-0.8-0.6-1.3-0.6c-0.7,0-1.1,0.3-1.1,1.3v2.7c0,0.8,0.2,1.4,1.1,1.8c7.8,3.5,22.1,3.6,22.1-9.3c0-11.1-17.9-8.6-17.9-14.1
		c0-4.6,8.8-4.1,13.8-0.7c0.4,0.3,1,0.6,1.3,0.6c0.7,0,1.1-0.3,1.1-1.3v-2.3C136.4,14.4,136.2,13.7,135.3,13.3z"/>
	<path class="st0" d="M290,13.3c-9.1-3.8-21.3-1.8-21.3,8.1c0,11.2,17.7,8.8,17.7,14.9c0,4.8-8.3,5.3-14.4,0.7
		c-0.4-0.3-0.8-0.6-1.3-0.6c-0.7,0-1.1,0.3-1.1,1.3v2.7c0,0.8,0.2,1.4,1.1,1.8c7.8,3.5,22.1,3.6,22.1-9.3c0-11.1-17.9-8.6-17.9-14.1
		c0-4.6,8.8-4.1,13.8-0.7c0.4,0.3,1,0.6,1.3,0.6c0.7,0,1.1-0.3,1.1-1.3v-2.3C291.1,14.4,290.9,13.7,290,13.3z"/>
	<path class="st0" d="M228.9,11.8c-1.3-0.4-2.2-0.4-3.1-0.4c-3.9,0-7.1,3.2-8.4,5.2l-0.1-3.8c0-0.5-0.3-0.8-0.8-0.8h-6.5
		c-0.4,0-0.7,0.3-0.7,0.8v29.7c0,0.5,0.4,0.8,0.7,0.8h6.7c0.5,0,0.8-0.3,0.8-0.8V23.6c0-6,5.7-6.2,9.5-5.5c0.9,0.2,1.6,0.5,2.4,0.5
		c0.5,0,0.9-0.5,0.9-1v-4.4C230.4,12.6,229.9,12,228.9,11.8z"/>
</g>
</svg>
