<?xml version="1.0" encoding="utf-8"?>
<!-- Generator: Adobe Illustrator 21.0.2, SVG Export Plug-In . SVG Version: 6.00 Build 0)  -->
<svg version="1.1" id="Layer_1" xmlns="http://www.w3.org/2000/svg" xmlns:xlink="http://www.w3.org/1999/xlink" x="0px" y="0px"
	 viewBox="0 0 120.588 130.715" enable-background="new 0 0 120.588 130.715" xml:space="preserve">
<g>
	<g>
		<linearGradient id="XMLID_2_" gradientUnits="userSpaceOnUse" x1="31.963" y1="121.0197" x2="110.6622" y2="73.5208">
			<stop  offset="0" style="stop-color:#FDEF3B"/>
			<stop  offset="1" style="stop-color:#F47B3E"/>
		</linearGradient>
		<path id="XMLID_46_" fill="url(#XMLID_2_)" d="M119.104,72.085c0.854-0.798,1.415-1.912,1.478-3.172
			c0.128-2.573-1.855-4.763-4.428-4.89c-1.244-0.062-2.393,0.378-3.268,1.131l-0.005-0.006l-84.123,46.038
			c-1.918,0.82-3.605,2.224-4.75,4.156c-2.868,4.837-1.272,11.084,3.565,13.952c3.433,2.036,7.571,1.813,10.712-0.212l0,0l0,0
			c0.247-0.159,0.488-0.328,0.722-0.509l78.251-55.054c0.472-0.325,1.547-1.154,1.828-1.414l0.021-0.015L119.104,72.085z"/>
		<linearGradient id="XMLID_3_" gradientUnits="userSpaceOnUse" x1="48.546" y1="6.9348" x2="120.3775" y2="69.8212">
			<stop  offset="0" style="stop-color:#F15A6B"/>
			<stop  offset="0.3134" style="stop-color:#F2675F"/>
			<stop  offset="0.7692" style="stop-color:#F47649"/>
			<stop  offset="1" style="stop-color:#F47B3E"/>
		</linearGradient>
		<path id="XMLID_45_" fill="url(#XMLID_3_)" d="M119.21,65.395l0.008-0.008L55.219,2.531C53.796,0.981,51.762,0,49.504,0
			c-4.275,0-7.772,3.497-7.772,7.772v0c0,2.065,0.822,3.945,2.148,5.34l-0.004,0.003l0.03,0.025c0.359,0.374,0.753,0.714,1.18,1.011
			l67.63,57.918l0.013-0.014c0.78,0.739,1.804,1.229,2.962,1.286c2.573,0.128,4.763-1.855,4.89-4.428
			C120.65,67.544,120.109,66.295,119.21,65.395z"/>
		<linearGradient id="XMLID_4_" gradientUnits="userSpaceOnUse" x1="53.1496" y1="63.8844" x2="10.5782" y2="37.2984">
			<stop  offset="0" style="stop-color:#7D5AA6"/>
			<stop  offset="0.0939" style="stop-color:#8B58A0"/>
			<stop  offset="0.5085" style="stop-color:#C04D8C"/>
			<stop  offset="0.8068" style="stop-color:#E04381"/>
			<stop  offset="0.957" style="stop-color:#EE3D7C"/>
		</linearGradient>
		<path id="XMLID_44_" fill="url(#XMLID_4_)" d="M57.305,59.771c-0.093-0.073-39.493-31.2-40.306-31.687l-0.036-0.028l-0.004,0.006
			c-0.567-0.337-1.166-0.636-1.806-0.875c-5.806-2.169-12.271,0.778-14.44,6.584c-1.911,5.114,0.152,10.736,4.638,13.487
			l-0.002,0.004l0.035,0.014c0.598,0.364,1.234,0.681,1.913,0.935c0.405,0.151,45.557,18.882,45.557,18.882l0.004-0.008
			c1.765,0.796,3.906,0.34,5.16-1.249C59.496,63.966,59.177,61.25,57.305,59.771z"/>
		<linearGradient id="XMLID_5_" gradientUnits="userSpaceOnUse" x1="52.3734" y1="3.716" x2="10.8119" y2="38.0422">
			<stop  offset="0" style="stop-color:#F15A6B"/>
			<stop  offset="0.6525" style="stop-color:#EF4778"/>
			<stop  offset="1" style="stop-color:#EE3D7C"/>
		</linearGradient>
		<path id="XMLID_43_" fill="url(#XMLID_5_)" d="M49.504,0c-1.708,0-3.287,0.565-4.573,1.509L4.889,28.446
			c-0.077,0.053-0.157,0.102-0.233,0.157l-0.053,0.036l0.003,0.004c-1.713,1.25-3.095,2.994-3.893,5.129
			c-2.169,5.806,0.778,12.271,6.584,14.441c3.634,1.358,7.526,0.71,10.462-1.388l0,0l0.006-0.006
			c0.655-0.469,1.256-1.017,1.802-1.624l34.728-31.298l-0.012-0.016c1.816-1.426,2.993-3.635,2.993-6.109v0
			C57.276,3.497,53.779,0,49.504,0z"/>
	</g>
	<g id="XMLID_33_">
		<rect id="XMLID_42_" x="34.586" y="37.412" width="50.958" height="50.958"/>
		<rect id="XMLID_41_" x="38.981" y="78.815" fill="#FFFFFF" width="19.109" height="3.185"/>
		<g id="XMLID_34_">
			<path id="XMLID_40_" fill="#FFFFFF" d="M38.766,50.83l1.483-1.4c0.403,0.486,0.783,0.771,1.305,0.771
				c0.569,0,0.937-0.391,0.937-1.163v-5.256h2.29v5.268c0,1.044-0.261,1.78-0.819,2.337c-0.546,0.546-1.329,0.842-2.278,0.842
				C40.237,52.23,39.359,51.625,38.766,50.83z"/>
			<polygon id="XMLID_39_" fill="#FFFFFF" points="45.315,43.782 51.995,43.782 51.995,45.728 47.594,45.728 47.594,46.998 
				51.58,46.998 51.58,48.813 47.594,48.813 47.594,50.13 52.055,50.13 52.055,52.088 45.315,52.088 			"/>
			<polygon id="XMLID_38_" fill="#FFFFFF" points="55.004,45.799 52.525,45.799 52.525,43.782 59.798,43.782 59.798,45.799 
				57.306,45.799 57.306,52.088 55.004,52.088 			"/>
			<path fill="#FFFFFF" d="M44.758,57.992c0.736-0.32,1.282-0.89,1.282-1.851v-0.024c0-0.569-0.202-1.008-0.534-1.353
				c-0.486-0.475-1.222-0.736-2.266-0.736H38.98v8.305h4.283c1.981,0,3.144-0.866,3.144-2.29v-0.024
				C46.407,58.894,45.767,58.324,44.758,57.992z M41.222,55.88h1.507c0.676,0,1.044,0.249,1.044,0.712v0.024
				c0,0.486-0.403,0.724-1.103,0.724h-1.447V55.88z M44.105,59.724c0,0.486-0.392,0.759-1.104,0.759h-1.78v-1.53h1.756
				c0.771,0,1.127,0.297,1.127,0.748V59.724z"/>
			<path fill="#FFFFFF" d="M52.411,59.439c1.032-0.439,1.708-1.281,1.708-2.563v-0.024c0-0.819-0.249-1.447-0.736-1.934
				c-0.558-0.558-1.436-0.89-2.705-0.89h-3.927v8.305h2.302v-2.515h1.02l1.673,2.515h2.646L52.411,59.439z M51.817,57.031
				c0,0.605-0.463,0.985-1.234,0.985h-1.531V56.01h1.519c0.759,0,1.246,0.332,1.246,0.997V57.031z"/>
			<path fill="#FFFFFF" d="M59.031,53.97h-2.219l-3.524,8.365h2.409l0.593-1.495h3.215l0.593,1.495h2.468L59.031,53.97z
				 M56.966,59.048l0.937-2.349l0.925,2.349H56.966z"/>
			<rect id="XMLID_37_" x="62.839" y="54.029" fill="#FFFFFF" width="2.302" height="8.306"/>
			<polygon id="XMLID_36_" fill="#FFFFFF" points="65.711,54.029 67.858,54.029 71.275,58.419 71.275,54.029 73.553,54.029 
				73.553,62.334 71.548,62.334 67.989,57.778 67.989,62.334 65.711,62.334 			"/>
			<path id="XMLID_35_" fill="#FFFFFF" d="M73.698,61.1l1.281-1.531c0.831,0.653,1.732,0.997,2.693,0.997
				c0.629,0,0.961-0.214,0.961-0.57v-0.024c0-0.356-0.273-0.534-1.412-0.807c-1.768-0.403-3.132-0.902-3.132-2.598v-0.024
				c0-1.542,1.222-2.658,3.215-2.658c1.412,0,2.515,0.38,3.417,1.103l-1.151,1.625c-0.759-0.546-1.59-0.819-2.326-0.819
				c-0.558,0-0.831,0.226-0.831,0.534v0.024c0,0.38,0.285,0.546,1.448,0.807c1.898,0.415,3.085,1.032,3.085,2.587v0.024
				c0,1.697-1.341,2.705-3.358,2.705C76.118,62.477,74.73,62.014,73.698,61.1z"/>
		</g>
	</g>
</g>
</svg>
