<?xml version="1.0" encoding="utf-8"?>
<!-- Generator: Adobe Illustrator 21.0.2, SVG Export Plug-In . SVG Version: 6.00 Build 0)  -->
<svg version="1.1" id="Capa_1" xmlns="http://www.w3.org/2000/svg" xmlns:xlink="http://www.w3.org/1999/xlink" x="0px" y="0px"
	 viewBox="0 0 627.434 116.484" enable-background="new 0 0 627.434 116.484" xml:space="preserve">
<g>
	
		<linearGradient id="SVGID_1_" gradientUnits="userSpaceOnUse" x1="-0.2471" y1="483.2404" x2="2.9318" y2="483.2404" gradientTransform="matrix(0 -18.5389 -18.5389 0 9023.8486 98.0109)">
		<stop  offset="0.0046" style="stop-color:#4080AD"/>
		<stop  offset="0.3333" style="stop-color:#4080AD"/>
		<stop  offset="0.387" style="stop-color:#3B86B2"/>
		<stop  offset="0.518" style="stop-color:#2D93BE"/>
		<stop  offset="0.6575" style="stop-color:#1C9CC7"/>
		<stop  offset="0.8101" style="stop-color:#09A1CC"/>
		<stop  offset="1" style="stop-color:#00A3CE"/>
	</linearGradient>
	<circle fill="url(#SVGID_1_)" cx="65.103" cy="73.127" r="29.466"/>
	<g>
		<path fill="#16AAD7" d="M530.222,21.909c-1.735,0-3.21,0.591-4.399,1.804c-1.167,1.189-1.738,2.637-1.738,4.338
			c0,1.644,0.598,3.078,1.786,4.267c1.163,1.208,2.615,1.824,4.351,1.824c1.656,0,3.103-0.571,4.337-1.738
			c1.214-1.25,1.827-2.709,1.827-4.352c0-1.741-0.613-3.216-1.827-4.425C533.424,22.482,531.962,21.909,530.222,21.909"/>
		<rect x="525.01" y="40.505" fill="#717271" width="10.365" height="49.079"/>
		<path fill="#717271" d="M571.427,51.072c1.623,0.965,2.924,2.348,3.874,4.135c0.919,1.738,1.38,3.782,1.38,6.094v28.243h10.306
			V62.829c-0.003-4.76-0.881-8.9-2.62-12.443c-1.763-3.539-4.247-6.205-7.441-8.055c-3.211-1.825-6.867-2.772-10.979-2.772
			c-4.091,0-7.746,0.947-10.956,2.772c-3.214,1.85-5.684,4.517-7.445,8.013c-1.777,3.5-2.663,7.657-2.663,12.485v26.715h10.28V61.3
			c0-3.474,1.031-6.309,3.058-8.426c2.053-2.178,4.622-3.236,7.728-3.239C567.997,49.635,569.819,50.099,571.427,51.072"/>
		<path fill="#717271" d="M606.943,40.438V27.896h-10.407V71.8c0,5.9,1.653,10.477,4.953,13.688
			c3.325,3.194,7.483,4.824,12.524,4.824c2.245,0,4.604-0.326,6.994-1.013c2.428-0.643,4.568-1.56,6.427-2.752l-2.28-9.594
			c-3.68,2.247-7.462,3.382-11.341,3.385c-1.977-0.003-3.607-0.81-4.902-2.441c-1.329-1.65-1.968-4.158-1.968-7.525V50.296h14.241
			v-9.857H606.943z"/>
		<path fill="#717271" d="M509.869,47.193c-2.288-2.348-4.93-4.222-7.969-5.584c-3.042-1.371-6.294-2.051-9.682-2.051
			c-4.467,0-8.633,1.186-12.454,3.516c-3.812,2.381-6.828,5.508-9.005,9.431c-2.223,3.891-3.325,8.026-3.325,12.426
			c0,4.471,1.102,8.653,3.325,12.594c2.177,3.942,5.196,7.064,9.002,9.393c3.831,2.311,7.99,3.484,12.457,3.484
			c4.577,0,8.776-1.174,12.591-3.484c3.801-2.33,6.84-5.436,9.066-9.351c2.196-3.888,3.3-8.119,3.3-12.636
			c0-3.325-0.664-6.488-1.98-9.572C513.894,52.282,512.113,49.552,509.869,47.193 M504.473,57.009
			c1.253,2.353,1.914,4.956,1.914,7.816s-0.661,5.48-1.914,7.877c-1.271,2.4-2.966,4.25-5.147,5.592
			c-2.181,1.363-4.581,2.041-7.107,2.041c-3.879,0-7.171-1.489-9.867-4.486c-2.705-2.944-4.049-6.624-4.049-11.024
			c0.006-4.38,1.344-8.032,4.049-10.956c2.696-2.954,5.988-4.422,9.867-4.422c2.527,0,4.926,0.674,7.107,1.993
			C501.506,52.807,503.201,54.657,504.473,57.009"/>
		<path fill="#717271" d="M437.745,39.291c-3.103,0-6.076,0.534-8.938,1.608c-2.876,1.08-5.46,2.642-7.698,4.669
			c-2.224,2.025-4.071,4.507-5.544,7.484c-1.083,2.046-1.766,4.226-2.091,6.553c-0.312,2.319-0.49,5.283-0.49,8.935v42.551h10.408
			V64.825c0-3.106,0.601-5.836,1.811-8.232c1.208-2.4,2.902-4.209,5.038-5.435c2.177-1.274,4.622-1.914,7.304-1.914
			c2.709,0,5.169,0.643,7.355,1.914c2.223,1.274,3.936,3.102,5.144,5.484c1.237,2.348,1.872,5.101,1.872,8.29
			c0,2.292-0.352,4.364-1.077,6.255c-0.703,1.87-1.714,3.478-3.036,4.822c-1.299,1.319-2.857,2.375-4.692,3.125
			c-1.802,0.743-3.762,1.1-5.899,1.1c-3.804,0-8.118-1.434-12.915-4.34l3.526,12.344c3.255,1.259,6.665,1.878,10.25,1.878
			c4.495,0,8.611-1.125,12.347-3.397c3.725-2.238,6.668-5.321,8.83-9.196c2.156-3.894,3.233-8.119,3.233-12.696
			c0-4.826-1.055-9.202-3.188-13.098c-2.159-3.915-5.134-6.975-8.92-9.153C446.592,40.39,442.386,39.291,437.745,39.291"/>
		<rect x="393.242" y="18.757" fill="#151D28" width="10.368" height="70.892"/>
		<path fill="#151D28" d="M367.451,41.191c-2.867-1.082-5.839-1.634-8.914-1.634c-3.458,0-6.713,0.619-9.732,1.872
			c-3.011,1.212-5.634,2.972-7.877,5.283c-2.229,2.308-3.939,4.993-5.192,8.096c-1.21,3.106-1.805,6.472-1.808,10.124
			c0.003,3.748,0.642,7.197,1.957,10.303c1.294,3.149,3.081,5.855,5.325,8.121c2.288,2.223,4.892,3.921,7.79,5.131
			c2.887,1.204,5.901,1.827,9.05,1.827c4.05,0,7.48-0.667,10.3-1.92l3.543-12.3c-4.707,2.882-9.002,4.335-12.876,4.335
			c-2.778,0-5.259-0.658-7.483-1.959c-2.244-1.299-3.983-3.125-5.261-5.521c-1.236-2.354-1.872-5.083-1.872-8.187
			c0-3.039,0.619-5.704,1.832-8.034c1.229-2.288,2.927-4.068,5.101-5.396c2.164-1.253,4.602-1.886,7.289-1.886
			c2.705,0,5.153,0.633,7.307,1.886c2.156,1.28,3.846,3.109,5.061,5.505c1.184,2.375,1.808,5.105,1.808,8.189v24.517h10.385V68.738
			c0-3.536-0.16-6.514-0.418-8.865c-0.331-2.353-1.259-4.698-1.957-6.463c-1.44-3.373-3.458-5.639-5.684-7.644
			C372.886,43.765,370.308,42.22,367.451,41.191"/>
		<path fill="#151D28" d="M325.746,23.603c-1.17-1.192-2.645-1.758-4.384-1.758c-1.712,0-3.194,0.591-4.402,1.78
			c-1.167,1.211-1.757,2.682-1.757,4.361c0,1.647,0.59,3.079,1.802,4.288c1.192,1.189,2.645,1.808,4.357,1.808
			c1.67,0,3.129-0.576,4.333-1.768c1.214-1.214,1.805-2.657,1.805-4.329C327.5,26.269,326.908,24.813,325.746,23.603"/>
		<path fill="#151D28" d="M293.455,50.386c1.558,0.615,2.991,1.519,4.292,2.711c1.274,1.25,2.533,2.857,3.722,4.835l7.5-6.859
			c-5.608-7.661-12.429-11.516-20.509-11.516c-4.47,0.006-8.586,1.189-12.417,3.518c-3.829,2.336-6.865,5.46-9.042,9.424
			c-2.223,3.894-3.345,8.013-3.345,12.327c0,4.531,1.097,8.761,3.275,12.696c2.248,3.897,5.263,7.04,9.072,9.397
			c3.804,2.311,7.965,3.48,12.457,3.48c4.559,0.005,8.675-1.124,12.302-3.343c3.613-2.177,6.534-5.127,8.715-8.827l-8.01-6.517
			c-1.583,2.729-3.433,4.838-5.591,6.384c-2.089,1.502-4.559,2.241-7.416,2.244c-2.508,0-4.844-0.684-7.022-2.007
			c-2.178-1.335-3.849-3.188-5.108-5.588c-1.253-2.375-1.911-4.995-1.911-7.813c0-2.902,0.638-5.521,1.869-7.925
			c1.28-2.351,2.972-4.202,5.105-5.569c2.156-1.319,4.514-1.996,7.067-1.996C290.194,49.442,291.871,49.745,293.455,50.386"/>
		<rect x="316.165" y="40.44" fill="#151D28" width="10.391" height="49.103"/>
		<path fill="#151D28" d="M243.407,41.609c-3.042-1.371-6.3-2.051-9.685-2.051c-4.467,0-8.625,1.186-12.432,3.516
			c-3.827,2.381-6.825,5.505-9.024,9.429c-2.225,3.889-3.326,8.026-3.326,12.428c0,4.473,1.1,8.653,3.326,12.59
			c2.199,3.942,5.193,7.064,9.024,9.397c3.807,2.311,7.965,3.481,12.432,3.481c4.574,0,8.782-1.17,12.588-3.481
			c3.834-2.33,6.846-5.436,9.066-9.348c2.205-3.894,3.303-8.122,3.303-12.639c0-3.321-0.658-6.488-1.98-9.57
			c-1.298-3.078-3.084-5.808-5.328-8.167C249.082,44.845,246.443,42.973,243.407,41.609 M219.812,64.827
			c0-4.385,1.344-8.037,4.049-10.964c2.685-2.946,5.988-4.422,9.86-4.422c2.555,0,4.93,0.682,7.107,1.999
			c2.181,1.367,3.871,3.215,5.153,5.571c1.252,2.358,1.914,4.951,1.914,7.816c0,2.857-0.661,5.479-1.91,7.875
			c-1.285,2.401-2.976,4.251-5.156,5.592c-2.178,1.364-4.552,2.044-7.107,2.044c-3.872-0.003-7.175-1.491-9.86-4.491
			C221.156,72.904,219.812,69.225,219.812,64.827"/>
		<path fill="#151D28" d="M203.167,71.594c-0.709-1.653-1.74-3.106-3.109-4.321c-0.67-0.543-3.961-2.443-5.181-3.089
			c-1.965-1.007-13.103-4.661-13.342-4.762c-0.88-0.328-5.502-2.235-6.403-2.696c-0.705-0.374-1.229-0.858-1.581-1.43
			c-0.335-0.548-0.512-1.167-0.512-1.876c0-0.292,0.034-0.559,0.101-0.795v-0.003c0.048-0.197,0.143-0.371,0.257-0.537
			c0.016-0.031,0.026-0.07,0.045-0.095c0.016-0.02,0.037-0.03,0.054-0.051c1.065-1.292,3.816-1.662,7.04-1.759
			c0.082-0.006,0.391-0.022,0.473-0.034h20.264V40.108h-18.484c-3.433,0-6.57,0.084-8.884,0.503
			c-2.302,0.376-4.126,0.886-6.112,1.834c-2.147,1.02-3.669,2.473-4.731,4.453c-1.035,2.024-1.732,4.371-1.729,7.317
			c0,2.159,0.349,4.056,1.077,5.723c0.706,1.65,1.737,3.101,3.106,4.313c0.674,0.546,3.391,1.987,5.519,3.09
			c1.957,1.017,16.507,6.152,16.744,6.255c0.879,0.324,1.762,0.746,2.662,1.204c0.705,0.372,1.232,0.861,1.585,1.431
			c0.335,0.546,0.509,1.166,0.509,1.875c0,0.289-0.034,0.556-0.101,0.795v0.003c-0.048,0.197-0.14,0.372-0.258,0.537
			c-0.016,0.03-0.02,0.067-0.045,0.096c-0.01,0.016-0.038,0.028-0.054,0.044c-1.062,1.294-3.817,1.231-7.04,1.326
			c-0.082,0.006-0.391,0.026-0.473,0.036h-23.252v10.477h21.471c3.433,0,6.57-0.086,8.884-0.506c2.302-0.374,4.125-0.88,6.112-1.83
			c2.15-1.024,3.676-2.477,4.731-4.45c1.035-2.031,1.732-4.371,1.729-7.321C204.241,75.154,203.892,73.259,203.167,71.594"/>
	</g>
	
		<linearGradient id="SVGID_2_" gradientUnits="userSpaceOnUse" x1="34.3084" y1="477.5703" x2="37.4866" y2="477.5703" gradientTransform="matrix(0 15.3475 15.3475 0 -7264.4072 -517.8082)">
		<stop  offset="0.0038" style="stop-color:#ED3330"/>
		<stop  offset="0.9973" style="stop-color:#A81F24"/>
	</linearGradient>
	<path fill="url(#SVGID_2_)" d="M79.04,53.148c0-6.26-1.156-11.822-1.656-13.939c1.558,2.149,3.71,4.819,5.783,6.351
		c3.877,2.876,7.753,2.269,9.473,0.804c1.72-1.465-1.352-6.983-7.658-13.1c-3.716-3.607-6.633-5.8-8.866-7.132
		c-1.366-0.815-2.476-1.304-3.349-1.592c3.506-2.435,5.807-6.481,5.807-11.07C78.573,6.03,72.54,0,65.102,0
		C57.66,0,51.633,6.03,51.633,13.471c0,4.588,2.302,8.634,5.805,11.07c-0.864,0.286-1.954,0.765-3.299,1.56
		c-2.237,1.328-5.169,3.528-8.909,7.164c-6.311,6.117-9.384,11.634-7.664,13.1c1.72,1.465,5.595,2.072,9.473-0.804
		c2.069-1.532,4.222-4.195,5.781-6.345c-0.504,2.12-1.656,7.68-1.656,13.933c0,7.981,6.657,16.659,13.939,16.659
		C72.385,69.807,79.04,61.129,79.04,53.148z"/>
	
		<linearGradient id="SVGID_3_" gradientUnits="userSpaceOnUse" x1="45.2949" y1="481.6595" x2="48.4741" y2="481.6595" gradientTransform="matrix(-2.8261 11.0062 11.0062 2.8261 -5138.7236 -1778.6705)">
		<stop  offset="0.0022" style="stop-color:#79C144"/>
		<stop  offset="1" style="stop-color:#139648"/>
	</linearGradient>
	<path fill="url(#SVGID_3_)" d="M62.228,74.788c-3.646-6.303-14.493-7.714-21.399-3.716c-5.415,3.135-9.649,6.921-11.232,8.417
		c1.08-2.424,2.308-5.62,2.6-8.187c0.546-4.801-1.92-7.849-4.053-8.602c-0.13-0.048-0.267-0.07-0.407-0.07
		c-2.114,0-5.089,5.27-7.092,13.267c-1.263,5.016-1.695,8.647-1.73,11.24c-0.022,1.589,0.109,2.797,0.297,3.697
		c-3.859-1.813-8.516-1.777-12.487,0.52c-6.437,3.729-8.639,11.968-4.911,18.408c3.728,6.438,11.965,8.634,18.408,4.904
		c3.971-2.297,6.327-6.315,6.67-10.565c0.68,0.604,1.647,1.31,3.01,2.072c2.267,1.268,5.639,2.708,10.658,4.122
		c8.456,2.398,14.774,2.29,15.181,0.072c0.405-2.223-1.011-5.881-5.442-7.798c-2.367-1.025-5.753-1.552-8.39-1.825
		c2.091-0.629,7.48-2.412,12.889-5.55C61.705,91.203,65.879,81.095,62.228,74.788z"/>
	
		<linearGradient id="SVGID_4_" gradientUnits="userSpaceOnUse" x1="-10.9322" y1="490.4455" x2="-7.7533" y2="490.4455" gradientTransform="matrix(-3.0243 -10.808 -10.808 3.0243 5372.9224 -1485.4768)">
		<stop  offset="0" style="stop-color:#F27026"/>
		<stop  offset="0.9992" style="stop-color:#F8AE1C"/>
	</linearGradient>
	<path fill="url(#SVGID_4_)" d="M123.514,91.257c-3.98-2.296-8.633-2.32-12.493-0.503c0.188-0.889,0.309-2.072,0.296-3.636
		c-0.032-2.603-0.473-6.237-1.752-11.297c-2.018-7.995-4.996-13.255-7.116-13.255c-0.139,0-0.276,0.022-0.41,0.07
		c-2.123,0.759-4.585,3.81-4.034,8.608c0.298,2.569,1.529,5.757,2.612,8.175c-1.593-1.487-5.827-5.263-11.243-8.388
		c-6.916-3.99-17.756-2.556-21.395,3.753c-3.64,6.311,0.554,16.405,7.47,20.398c5.423,3.121,10.816,4.902,12.902,5.525
		c-2.638,0.274-6.023,0.807-8.392,1.838c-4.431,1.921-5.839,5.584-5.429,7.802c0.41,2.223,6.727,2.317,15.178-0.092
		c4.979-1.416,8.338-2.845,10.605-4.116c1.389-0.776,2.364-1.488,3.055-2.105c0.355,4.25,2.715,8.265,6.688,10.559
		c6.446,3.717,14.681,1.504,18.401-4.942C132.173,103.21,129.957,94.972,123.514,91.257z"/>
</g>
</svg>
