<?xml version="1.0" encoding="utf-8"?>
<!-- Generator: Adobe Illustrator 21.0.2, SVG Export Plug-In . SVG Version: 6.00 Build 0)  -->
<svg version="1.1" id="Ebene_1" xmlns="http://www.w3.org/2000/svg" xmlns:xlink="http://www.w3.org/1999/xlink" x="0px" y="0px"
	 viewBox="0 0 623.622 141.148" enable-background="new 0 0 623.622 141.148" xml:space="preserve">
<g>
	<path d="M155.813,90.251c4.806,3.634,10.55,5.861,15.824,5.861c5.158,0,8.557-1.758,8.557-5.861c0-4.219-3.048-5.744-9.729-7.502
		c-10.783-2.461-15.355-6.799-15.355-15.824c0-10.55,7.97-15.707,18.52-15.707c5.861,0,10.55,1.289,14.886,3.985V65.87
		c-4.571-3.282-9.025-5.274-14.534-5.274c-5.041,0-7.736,2.461-7.736,5.86c0,3.4,2.226,5.158,8.205,6.799
		c11.839,2.578,16.996,7.033,16.996,16.411c0,10.901-8.322,15.824-19.575,15.824c-6.096,0-12.19-1.642-16.059-4.22V90.251z"/>
	<path d="M220.635,51.219c15.589,0,26.842,11.018,26.842,27.194c0,16.058-11.253,27.076-26.842,27.076
		c-15.472,0-26.724-11.019-26.724-27.076C193.91,62.237,205.163,51.219,220.635,51.219z M220.635,61.182
		c-8.674,0-15.003,6.681-15.003,17.231c0,10.431,6.329,17.113,15.003,17.113c8.909,0,15.121-6.681,15.121-17.113
		C235.756,67.863,229.544,61.182,220.635,61.182z"/>
	<path d="M265.294,104.317H253.69V24.611h11.604V104.317z"/>
	<path d="M301.514,69.504c0-5.626-4.22-8.205-9.964-8.205c-5.977,0-10.666,1.758-15.003,4.219v-10.08
		c4.571-2.578,10.432-4.219,16.879-4.219c11.37,0,19.458,4.689,19.458,17.699v34.344c-4.923,1.29-11.957,2.11-17.818,2.11
		c-13.479,0-23.326-4.103-23.326-15.824c0-10.55,9.026-15.707,24.03-15.707h5.744V69.504z M301.514,81.577h-4.923
		c-8.087,0-13.363,2.345-13.363,7.619c0,5.392,4.923,7.502,11.956,7.502c1.758,0,4.22-0.235,6.33-0.586V81.577z"/>
	<path d="M333.748,104.317h-11.604V56.728c5.626-3.165,12.893-5.158,20.278-5.158c3.634,0,6.447,0.352,9.964,1.29v11.253
		c-3.282-1.29-6.916-1.641-9.964-1.641c-3.516,0-6.329,0.703-8.674,1.641V104.317z"/>
	<path d="M354.964,36.449c0-3.985,3.4-7.15,7.267-7.15c3.869,0,7.267,3.165,7.267,7.15c0,4.103-3.398,7.384-7.267,7.384
		C358.364,43.833,354.964,40.552,354.964,36.449z M368.092,104.317h-11.604V52.39h11.604V104.317z"/>
	<path d="M375.828,90.251c4.806,3.634,10.549,5.861,15.824,5.861c5.157,0,8.557-1.758,8.557-5.861c0-4.219-3.047-5.744-9.728-7.502
		c-10.785-2.461-15.356-6.799-15.356-15.824c0-10.55,7.971-15.707,18.522-15.707c5.859,0,10.549,1.289,14.885,3.985V65.87
		c-4.571-3.282-9.026-5.274-14.534-5.274c-5.041,0-7.736,2.461-7.736,5.86c0,3.4,2.227,5.158,8.206,6.799
		c11.838,2.578,16.995,7.033,16.995,16.411c0,10.901-8.322,15.824-19.575,15.824c-6.096,0-12.191-1.642-16.059-4.22V90.251z"/>
	<path d="M418.845,34.926c5.041-0.703,12.191-1.406,17.467-1.406c16.526,0,26.372,5.977,26.372,19.34
		c0,8.557-5.743,14.418-13.597,15.589c9.963,0.82,16.644,6.681,16.644,16.762c0,12.19-8.908,20.161-30.593,20.161
		c-5.626,0-11.722-0.586-16.293-1.29V34.926z M430.451,64.463h5.626c9.728,0,14.769-3.751,14.769-10.901
		c0-6.799-5.275-10.08-13.832-10.08c-1.992,0-4.688,0.235-6.563,0.468V64.463z M430.451,95.174c2.226,0.235,4.688,0.351,6.212,0.351
		c11.253,0,16.995-3.634,16.995-10.901c0-7.502-6.212-10.432-15.706-10.432h-7.502V95.174z"/>
	<path d="M499.254,69.504c0-5.626-4.218-8.205-9.963-8.205c-5.977,0-10.667,1.758-15.003,4.219v-10.08
		c4.571-2.578,10.432-4.219,16.879-4.219c11.371,0,19.458,4.689,19.458,17.699v34.344c-4.924,1.29-11.957,2.11-17.818,2.11
		c-13.479,0-23.326-4.103-23.326-15.824c0-10.55,9.026-15.707,24.03-15.707h5.743V69.504z M499.254,81.577h-4.922
		c-8.087,0-13.363,2.345-13.363,7.619c0,5.392,4.922,7.502,11.957,7.502c1.757,0,4.218-0.235,6.328-0.586V81.577z"/>
	<path d="M519.886,55.673c7.267-2.813,16.175-4.454,23.795-4.454c13.244,0,21.685,5.04,21.685,19.692v33.406h-11.487V71.965
		c0-7.502-4.69-10.198-11.136-10.198c-4.102,0-8.206,0.587-11.253,1.524v41.025h-11.604V55.673z"/>
	<path d="M586.464,104.317h-11.604V24.611h11.604V104.317z M586.934,76.185l21.919-23.795h14.299l-22.856,23.56l23.326,28.366
		H609.79L586.934,76.185z"/>
</g>
<g>
	<g>
		<path fill="#FFC92C" d="M31.855,14.538c0,0-7.947,23.047,46.889,39.339c0,0,48.479,19.074,32.584,51.657
			c-0.35,0.351,29.925-35.57,5.787-76.453c-3.121-5.286-6.636-9.441-13.576-15.2c0,0-17.983-16.174-50.833-13.562
			c-2.248,0.179-4.772,0.753-6.781,1.356C43.764,2.328,34.885,4.902,31.855,14.538z"/>
		<linearGradient id="SVGID_1_" gradientUnits="userSpaceOnUse" x1="31.4646" y1="52.7731" x2="126.5208" y2="52.7731">
			<stop  offset="0.2209" style="stop-color:#FDDA2D"/>
			<stop  offset="1" style="stop-color:#F06F24"/>
		</linearGradient>
		<path fill="url(#SVGID_1_)" d="M111.328,105.534c0,0,26.048-52.835-57.596-92.375c0,0-23.772-9.285-22.098,6.599
			c0,0-0.443-2.478,0.108-4.683C33.072,9.751,38.176-0.701,62.025,0.05c0.484,0.084,23.982-0.284,41.373,13.711
			c7.801,6.277,14.926,14.412,19.239,26.788c3.466,9.946,3.518,15.682,3.677,17.46c0,0,0.946,7.58-1.205,17.678
			C123.253,84.396,119.056,95.322,111.328,105.534z"/>
		<linearGradient id="SVGID_2_" gradientUnits="userSpaceOnUse" x1="31.4507" y1="39.828" x2="126.4731" y2="39.828">
			<stop  offset="0.2209" style="stop-color:#FDDA2D"/>
			<stop  offset="1" style="stop-color:#F06F24"/>
		</linearGradient>
		<path fill="url(#SVGID_2_)" d="M32.079,13.833c0,0-9.868,24.445,48.626,25.217c0.2,0,55.083,0.52,43.371,40.603
			c-0.049,0.173,3.263-9.393,2.179-22.638c-0.84-10.264-4.607-23.465-13.861-34.57C107.272,16.3,99.969,10.488,93.689,7.593
			c0,0-4.253-2.449-13.408-5.014C75.333,1.193,67.309,0.023,59.219,0C47.295-0.033,35.852,3.158,32.079,13.833z"/>
	</g>
	<g>
		<path fill="#FFC92C" d="M94.666,113.464c0,0,7.947-23.047-46.889-39.339c0,0-48.479-19.074-32.584-51.657
			c0.35-0.351-29.925,35.57-5.787,76.453c3.121,5.286,6.636,9.441,13.576,15.2c0,0,17.983,16.174,50.833,13.562
			c2.248-0.179,4.772-0.753,6.781-1.356C82.757,125.673,91.636,123.1,94.666,113.464z"/>
		
			<linearGradient id="SVGID_3_" gradientUnits="userSpaceOnUse" x1="112.3449" y1="-18.0475" x2="207.401" y2="-18.0475" gradientTransform="matrix(-1 0 0 -1 207.401 57.181)">
			<stop  offset="0.2209" style="stop-color:#FDDA2D"/>
			<stop  offset="1" style="stop-color:#F06F24"/>
		</linearGradient>
		<path fill="url(#SVGID_3_)" d="M15.193,22.467c0,0-26.048,52.835,57.596,92.375c0,0,23.772,9.285,22.098-6.599
			c0,0,0.443,2.479-0.108,4.683c-1.331,5.324-6.435,15.776-30.284,15.025c-0.484-0.084-23.982,0.284-41.373-13.711
			c-7.801-6.277-14.926-14.412-19.239-26.788c-3.466-9.946-3.518-15.682-3.677-17.46c0,0-0.946-7.58,1.205-17.678
			C3.267,43.605,7.465,32.68,15.193,22.467z"/>
		
			<linearGradient id="SVGID_4_" gradientUnits="userSpaceOnUse" x1="112.331" y1="-30.9925" x2="207.3534" y2="-30.9925" gradientTransform="matrix(-1 0 0 -1 207.401 57.181)">
			<stop  offset="0.2209" style="stop-color:#FDDA2D"/>
			<stop  offset="1" style="stop-color:#F06F24"/>
		</linearGradient>
		<path fill="url(#SVGID_4_)" d="M94.442,114.169c0,0,9.868-24.445-48.626-25.217c-0.2,0-55.083-0.52-43.371-40.603
			c0.049-0.173-3.263,9.393-2.179,22.638c0.84,10.264,4.607,23.465,13.861,34.57c5.122,6.146,12.425,11.958,18.705,14.852
			c0,0,4.253,2.449,13.408,5.014c4.948,1.386,12.972,2.556,21.062,2.579C79.226,128.035,90.668,124.843,94.442,114.169z"/>
	</g>
</g>
<g>
	<path fill="#EC6923" d="M279.711,134.166l-0.013,2.249h-11.57v-18.668h11.57v2.249h-8.788v5.915h7.072v2.171h-7.072v6.084H279.711z
		"/>
	<path fill="#EC6923" d="M282.793,136.415v-13.208h1.521c0.355,0,0.577,0.169,0.663,0.507l0.182,1.261
		c0.485-0.58,1.025-1.055,1.619-1.423c0.593-0.368,1.289-0.553,2.086-0.553c0.875,0,1.586,0.24,2.132,0.722
		c0.546,0.48,0.945,1.133,1.196,1.956c0.19-0.468,0.438-0.871,0.741-1.209s0.642-0.615,1.014-0.832
		c0.373-0.216,0.769-0.377,1.189-0.48c0.42-0.104,0.847-0.156,1.28-0.156c0.702,0,1.328,0.11,1.879,0.331
		c0.55,0.222,1.016,0.544,1.397,0.969c0.381,0.425,0.671,0.949,0.871,1.573c0.2,0.624,0.299,1.335,0.299,2.132v8.411h-2.548v-8.411
		c0-0.988-0.215-1.733-0.644-2.236c-0.429-0.502-1.055-0.754-1.879-0.754c-0.364,0-0.71,0.063-1.04,0.188
		c-0.33,0.126-0.618,0.314-0.865,0.565c-0.247,0.252-0.442,0.563-0.585,0.937s-0.214,0.806-0.214,1.3v8.411h-2.548v-8.411
		c0-1.022-0.204-1.776-0.611-2.262s-1.005-0.729-1.794-0.729c-0.546,0-1.053,0.144-1.521,0.43c-0.468,0.286-0.897,0.676-1.287,1.17
		v9.802H282.793z"/>
	<path fill="#EC6923" d="M307.207,125.183c0.277-0.329,0.574-0.63,0.891-0.903c0.316-0.272,0.656-0.507,1.021-0.702
		c0.364-0.194,0.751-0.346,1.164-0.455c0.411-0.107,0.851-0.162,1.319-0.162c0.754,0,1.437,0.147,2.047,0.442
		c0.611,0.294,1.133,0.728,1.566,1.3c0.434,0.572,0.769,1.278,1.008,2.119c0.238,0.841,0.357,1.807,0.357,2.898
		c0,0.979-0.132,1.888-0.396,2.724c-0.265,0.837-0.642,1.562-1.131,2.178c-0.49,0.615-1.088,1.099-1.794,1.449
		c-0.706,0.352-1.501,0.526-2.385,0.526c-0.789,0-1.465-0.13-2.028-0.39c-0.563-0.26-1.066-0.624-1.508-1.092v5.732h-2.535v-17.641
		h1.521c0.355,0,0.577,0.169,0.663,0.507L307.207,125.183z M307.337,133.165c0.416,0.546,0.865,0.928,1.346,1.144
		c0.481,0.217,1.021,0.325,1.618,0.325c1.162,0,2.061-0.418,2.698-1.254c0.637-0.837,0.956-2.057,0.956-3.66
		c0-0.84-0.072-1.558-0.215-2.151c-0.143-0.594-0.351-1.079-0.624-1.456c-0.273-0.377-0.609-0.654-1.008-0.832
		s-0.85-0.267-1.352-0.267c-0.737,0-1.376,0.165-1.917,0.494c-0.542,0.33-1.042,0.798-1.501,1.404V133.165z"/>
	<path fill="#EC6923" d="M325.576,122.999c0.97,0,1.848,0.158,2.632,0.475c0.784,0.316,1.452,0.771,2.002,1.365
		s0.973,1.309,1.268,2.145c0.294,0.837,0.442,1.774,0.442,2.814s-0.147,1.98-0.442,2.821c-0.295,0.841-0.717,1.556-1.268,2.145
		c-0.55,0.59-1.218,1.043-2.002,1.358c-0.785,0.316-1.662,0.475-2.632,0.475c-0.979,0-1.861-0.158-2.646-0.475
		c-0.785-0.315-1.454-0.769-2.009-1.358c-0.555-0.589-0.981-1.304-1.28-2.145c-0.299-0.841-0.449-1.781-0.449-2.821
		s0.149-1.978,0.449-2.814c0.299-0.836,0.726-1.551,1.28-2.145s1.224-1.049,2.009-1.365
		C323.715,123.157,324.597,122.999,325.576,122.999z M325.576,134.621c1.248,0,2.179-0.42,2.795-1.261
		c0.615-0.841,0.923-2.023,0.923-3.549s-0.308-2.711-0.923-3.556c-0.616-0.846-1.547-1.268-2.795-1.268
		c-1.266,0-2.208,0.422-2.828,1.268c-0.62,0.845-0.93,2.03-0.93,3.556s0.31,2.708,0.93,3.549S324.311,134.621,325.576,134.621z"/>
	<path fill="#EC6923" d="M353.435,123.207l-4.251,13.208h-2.028c-0.243,0-0.408-0.16-0.494-0.481l-2.782-8.605
		c-0.07-0.217-0.13-0.431-0.182-0.644c-0.052-0.212-0.1-0.427-0.143-0.644c-0.078,0.451-0.187,0.889-0.325,1.313l-2.821,8.579
		c-0.087,0.321-0.273,0.481-0.559,0.481h-1.924l-4.264-13.208h2.002c0.199,0,0.366,0.048,0.5,0.143
		c0.134,0.096,0.223,0.217,0.267,0.364l2.379,8.112c0.078,0.329,0.147,0.649,0.208,0.962c0.061,0.312,0.117,0.624,0.169,0.936
		c0.078-0.312,0.163-0.624,0.253-0.936c0.091-0.312,0.184-0.633,0.28-0.962l2.639-8.164c0.043-0.147,0.125-0.267,0.247-0.357
		c0.122-0.091,0.269-0.137,0.442-0.137h1.105c0.19,0,0.349,0.046,0.474,0.137c0.126,0.091,0.21,0.21,0.254,0.357l2.574,8.164
		c0.095,0.329,0.187,0.652,0.273,0.969s0.165,0.635,0.234,0.955c0.052-0.312,0.113-0.626,0.182-0.942s0.147-0.644,0.234-0.981
		l2.418-8.112c0.043-0.147,0.132-0.269,0.266-0.364c0.134-0.095,0.288-0.143,0.461-0.143H353.435z"/>
	<path fill="#EC6923" d="M366.76,134.531c-0.312,0.363-0.672,0.678-1.079,0.942s-0.841,0.479-1.3,0.644
		c-0.459,0.165-0.934,0.286-1.424,0.364c-0.49,0.077-0.973,0.116-1.449,0.116c-0.91,0-1.753-0.153-2.529-0.461
		c-0.775-0.308-1.447-0.759-2.015-1.353c-0.568-0.593-1.01-1.33-1.326-2.21c-0.316-0.879-0.475-1.892-0.475-3.035
		c0-0.919,0.143-1.774,0.429-2.567s0.695-1.484,1.229-2.073c0.533-0.59,1.185-1.054,1.957-1.392c0.771-0.338,1.638-0.507,2.6-0.507
		c0.806,0,1.549,0.132,2.229,0.396c0.68,0.265,1.267,0.648,1.761,1.15c0.494,0.503,0.882,1.123,1.164,1.859s0.422,1.577,0.422,2.521
		c0,0.391-0.043,0.652-0.13,0.787c-0.087,0.134-0.247,0.201-0.481,0.201h-8.658c0.026,0.789,0.139,1.476,0.338,2.061
		c0.199,0.585,0.474,1.072,0.825,1.463c0.351,0.39,0.769,0.68,1.254,0.87c0.485,0.191,1.027,0.286,1.625,0.286
		c0.563,0,1.051-0.064,1.463-0.194c0.411-0.13,0.767-0.271,1.066-0.423c0.299-0.151,0.55-0.293,0.754-0.423s0.383-0.194,0.54-0.194
		c0.208,0,0.368,0.078,0.481,0.233L366.76,134.531z M364.666,128.342c0-0.502-0.071-0.966-0.214-1.391s-0.353-0.793-0.63-1.105
		c-0.277-0.312-0.616-0.554-1.014-0.728s-0.858-0.26-1.378-0.26c-1.066,0-1.904,0.308-2.516,0.923
		c-0.611,0.615-0.999,1.469-1.164,2.561H364.666z"/>
	<path fill="#EC6923" d="M372.596,125.742c0.426-0.866,0.938-1.547,1.535-2.041s1.316-0.741,2.158-0.741
		c0.285,0,0.557,0.032,0.812,0.098c0.254,0.064,0.479,0.162,0.668,0.292l-0.168,1.911c-0.061,0.234-0.203,0.352-0.43,0.352
		c-0.121,0-0.303-0.024-0.545-0.071c-0.244-0.048-0.504-0.072-0.781-0.072c-0.406,0-0.766,0.059-1.078,0.176s-0.592,0.29-0.838,0.52
		c-0.248,0.23-0.467,0.512-0.658,0.846c-0.189,0.334-0.367,0.713-0.531,1.138v8.268h-2.536v-13.208h1.456
		c0.277,0,0.466,0.05,0.566,0.149c0.099,0.1,0.17,0.275,0.213,0.526L372.596,125.742z"/>
	<path fill="#EC6923" d="M383.385,119.125c0,0.234-0.048,0.457-0.143,0.67c-0.096,0.212-0.224,0.398-0.384,0.559
		c-0.161,0.16-0.35,0.286-0.565,0.377c-0.217,0.091-0.442,0.137-0.676,0.137c-0.234,0-0.455-0.046-0.663-0.137
		s-0.393-0.217-0.553-0.377s-0.286-0.347-0.377-0.559c-0.091-0.213-0.137-0.436-0.137-0.67c0-0.242,0.046-0.47,0.137-0.683
		c0.091-0.212,0.217-0.398,0.377-0.559s0.345-0.286,0.553-0.377s0.429-0.137,0.663-0.137c0.233,0,0.459,0.046,0.676,0.137
		c0.216,0.091,0.404,0.217,0.565,0.377c0.16,0.16,0.288,0.347,0.384,0.559C383.337,118.656,383.385,118.883,383.385,119.125z
		 M382.904,123.207v13.208h-2.534v-13.208H382.904z"/>
	<path fill="#EC6923" d="M389.483,125.04c0.286-0.304,0.585-0.58,0.896-0.832c0.312-0.251,0.644-0.466,0.995-0.644
		c0.351-0.178,0.728-0.316,1.131-0.416s0.834-0.149,1.293-0.149c0.729,0,1.368,0.121,1.918,0.364
		c0.55,0.242,1.012,0.583,1.385,1.021c0.372,0.438,0.654,0.964,0.845,1.579s0.286,1.296,0.286,2.041v8.411h-2.548v-8.411
		c0-0.944-0.217-1.679-0.65-2.203s-1.097-0.787-1.99-0.787c-0.649,0-1.259,0.154-1.826,0.462s-1.095,0.726-1.579,1.255v9.685h-2.535
		v-13.208h1.521c0.355,0,0.576,0.169,0.663,0.507L389.483,125.04z"/>
	<path fill="#EC6923" d="M413.429,123.701v0.949c0,0.312-0.195,0.507-0.585,0.585l-1.417,0.208c0.121,0.269,0.217,0.552,0.286,0.852
		c0.069,0.299,0.104,0.613,0.104,0.942c0,0.649-0.126,1.237-0.377,1.762s-0.598,0.973-1.04,1.345
		c-0.441,0.373-0.969,0.659-1.579,0.858c-0.611,0.199-1.28,0.299-2.009,0.299c-0.598,0-1.157-0.064-1.677-0.195
		c-0.26,0.156-0.457,0.327-0.592,0.514s-0.201,0.371-0.201,0.553c0,0.304,0.128,0.528,0.384,0.676
		c0.255,0.147,0.589,0.254,1.001,0.318c0.411,0.065,0.884,0.106,1.417,0.124c0.532,0.018,1.074,0.045,1.625,0.084
		c0.55,0.039,1.092,0.108,1.625,0.208c0.532,0.1,1.005,0.261,1.417,0.481c0.411,0.221,0.745,0.524,1.001,0.91
		c0.255,0.386,0.383,0.886,0.383,1.501c0,0.572-0.141,1.127-0.422,1.664c-0.282,0.537-0.691,1.015-1.229,1.43
		c-0.538,0.416-1.192,0.75-1.963,1.002c-0.771,0.251-1.647,0.377-2.626,0.377c-0.979,0-1.831-0.096-2.555-0.286
		c-0.724-0.191-1.326-0.446-1.808-0.768c-0.48-0.32-0.841-0.693-1.079-1.118c-0.238-0.424-0.357-0.866-0.357-1.325
		c0-0.642,0.199-1.186,0.599-1.632c0.398-0.446,0.949-0.795,1.65-1.047c-0.381-0.173-0.685-0.409-0.909-0.708
		c-0.226-0.299-0.339-0.695-0.339-1.189c0-0.19,0.035-0.388,0.104-0.592c0.069-0.203,0.176-0.407,0.318-0.611
		c0.144-0.203,0.32-0.396,0.533-0.578c0.212-0.182,0.457-0.347,0.734-0.494c-0.65-0.364-1.161-0.847-1.534-1.449
		s-0.559-1.307-0.559-2.112c0-0.65,0.125-1.235,0.377-1.755c0.251-0.521,0.6-0.967,1.046-1.34c0.446-0.372,0.979-0.658,1.6-0.857
		c0.619-0.199,1.298-0.299,2.034-0.299c1.145,0,2.128,0.238,2.951,0.715H413.429z M410.854,137.105c0-0.312-0.087-0.562-0.26-0.748
		c-0.174-0.187-0.409-0.333-0.709-0.442c-0.299-0.107-0.647-0.186-1.046-0.233c-0.399-0.048-0.817-0.085-1.255-0.11
		c-0.438-0.026-0.886-0.05-1.346-0.071c-0.459-0.022-0.901-0.063-1.325-0.124c-0.451,0.226-0.821,0.498-1.112,0.819
		c-0.29,0.32-0.436,0.697-0.436,1.131c0,0.277,0.072,0.537,0.215,0.78c0.144,0.242,0.364,0.452,0.663,0.63s0.676,0.316,1.131,0.416
		s0.999,0.149,1.632,0.149c0.624,0,1.174-0.054,1.65-0.162s0.878-0.26,1.203-0.455s0.572-0.427,0.741-0.695
		S410.854,137.425,410.854,137.105z M406.811,129.824c0.45,0,0.847-0.061,1.189-0.183c0.343-0.121,0.629-0.292,0.858-0.513
		c0.229-0.222,0.402-0.488,0.52-0.8c0.117-0.312,0.176-0.654,0.176-1.027c0-0.763-0.232-1.371-0.695-1.826
		c-0.464-0.455-1.146-0.683-2.048-0.683c-0.893,0-1.571,0.228-2.034,0.683c-0.464,0.455-0.695,1.063-0.695,1.826
		c0,0.373,0.059,0.713,0.175,1.021c0.117,0.308,0.291,0.572,0.521,0.793c0.229,0.222,0.516,0.395,0.857,0.521
		C405.978,129.762,406.37,129.824,406.811,129.824z"/>
	<path fill="#EC6923" d="M426.648,119.996v6.253h7.488v2.249h-7.488v7.917h-2.782v-18.668h11.57v2.249H426.648z"/>
	<path fill="#EC6923" d="M441.651,119.125c0,0.234-0.048,0.457-0.143,0.67c-0.096,0.212-0.224,0.398-0.384,0.559
		c-0.161,0.16-0.35,0.286-0.565,0.377c-0.217,0.091-0.442,0.137-0.676,0.137c-0.234,0-0.455-0.046-0.663-0.137
		s-0.393-0.217-0.553-0.377s-0.286-0.347-0.377-0.559c-0.091-0.213-0.137-0.436-0.137-0.67c0-0.242,0.046-0.47,0.137-0.683
		c0.091-0.212,0.217-0.398,0.377-0.559s0.345-0.286,0.553-0.377s0.429-0.137,0.663-0.137c0.233,0,0.459,0.046,0.676,0.137
		c0.216,0.091,0.404,0.217,0.565,0.377c0.16,0.16,0.288,0.347,0.384,0.559C441.603,118.656,441.651,118.883,441.651,119.125z
		 M441.17,123.207v13.208h-2.534v-13.208H441.17z"/>
	<path fill="#EC6923" d="M447.748,125.04c0.286-0.304,0.585-0.58,0.896-0.832c0.312-0.251,0.644-0.466,0.995-0.644
		c0.351-0.178,0.728-0.316,1.131-0.416s0.834-0.149,1.293-0.149c0.729,0,1.367,0.121,1.918,0.364
		c0.55,0.242,1.012,0.583,1.385,1.021c0.372,0.438,0.654,0.964,0.845,1.579s0.286,1.296,0.286,2.041v8.411h-2.548v-8.411
		c0-0.944-0.217-1.679-0.65-2.203s-1.097-0.787-1.989-0.787c-0.649,0-1.259,0.154-1.826,0.462s-1.095,0.726-1.579,1.255v9.685
		h-2.535v-13.208h1.521c0.355,0,0.576,0.169,0.663,0.507L447.748,125.04z"/>
	<path fill="#EC6923" d="M460.099,125.053c0.736-0.702,1.536-1.226,2.398-1.572s1.809-0.521,2.84-0.521
		c0.754,0,1.422,0.124,2.002,0.37c0.581,0.247,1.07,0.592,1.47,1.034c0.398,0.441,0.699,0.971,0.903,1.586
		c0.203,0.615,0.306,1.296,0.306,2.041v8.424h-1.131c-0.252,0-0.442-0.041-0.572-0.123c-0.13-0.083-0.234-0.236-0.312-0.462
		l-0.272-1.157c-0.338,0.312-0.672,0.588-1.001,0.826c-0.33,0.238-0.674,0.441-1.034,0.61c-0.359,0.169-0.743,0.297-1.15,0.384
		c-0.407,0.086-0.857,0.13-1.352,0.13c-0.521,0-1.008-0.071-1.463-0.215c-0.455-0.143-0.852-0.361-1.189-0.656
		s-0.604-0.663-0.799-1.104c-0.195-0.442-0.293-0.958-0.293-1.548c0-0.52,0.141-1.021,0.423-1.501
		c0.281-0.481,0.74-0.912,1.378-1.294c0.637-0.381,1.469-0.693,2.496-0.936c1.026-0.242,2.29-0.382,3.789-0.416v-0.962
		c0-0.997-0.212-1.742-0.637-2.236s-1.049-0.741-1.872-0.741c-0.555,0-1.021,0.07-1.397,0.208c-0.377,0.139-0.702,0.293-0.976,0.462
		c-0.272,0.169-0.511,0.323-0.715,0.462c-0.203,0.139-0.414,0.208-0.63,0.208c-0.174,0-0.323-0.048-0.449-0.144
		c-0.125-0.095-0.228-0.208-0.305-0.338L460.099,125.053z M467.534,130.552c-1.031,0.035-1.906,0.115-2.626,0.241
		c-0.72,0.125-1.305,0.292-1.755,0.5c-0.451,0.208-0.775,0.453-0.975,0.734c-0.2,0.282-0.3,0.596-0.3,0.942
		c0,0.33,0.055,0.613,0.163,0.852s0.255,0.434,0.441,0.585c0.187,0.152,0.405,0.263,0.657,0.332
		c0.251,0.069,0.523,0.104,0.818,0.104c0.391,0,0.748-0.039,1.073-0.117c0.324-0.077,0.63-0.188,0.916-0.331
		s0.559-0.318,0.819-0.526c0.26-0.208,0.516-0.446,0.767-0.715V130.552z"/>
	<path fill="#EC6923" d="M476.322,125.04c0.286-0.304,0.585-0.58,0.896-0.832c0.312-0.251,0.644-0.466,0.995-0.644
		c0.351-0.178,0.728-0.316,1.131-0.416s0.834-0.149,1.293-0.149c0.729,0,1.367,0.121,1.918,0.364
		c0.55,0.242,1.012,0.583,1.385,1.021c0.372,0.438,0.654,0.964,0.845,1.579s0.286,1.296,0.286,2.041v8.411h-2.548v-8.411
		c0-0.944-0.217-1.679-0.65-2.203s-1.097-0.787-1.989-0.787c-0.649,0-1.259,0.154-1.826,0.462s-1.095,0.726-1.579,1.255v9.685
		h-2.535v-13.208h1.521c0.355,0,0.576,0.169,0.663,0.507L476.322,125.04z"/>
	<path fill="#EC6923" d="M498.267,125.677c-0.078,0.096-0.154,0.172-0.228,0.228c-0.074,0.057-0.18,0.085-0.318,0.085
		s-0.284-0.055-0.436-0.163c-0.152-0.107-0.343-0.225-0.572-0.351s-0.507-0.242-0.832-0.351s-0.726-0.163-1.202-0.163
		c-0.624,0-1.175,0.113-1.651,0.338c-0.477,0.226-0.873,0.546-1.189,0.962s-0.557,0.923-0.722,1.521
		c-0.164,0.598-0.247,1.27-0.247,2.015c0,0.771,0.087,1.458,0.261,2.061c0.173,0.603,0.42,1.109,0.74,1.521
		c0.321,0.411,0.711,0.724,1.17,0.936c0.46,0.213,0.971,0.318,1.534,0.318c0.546,0,0.997-0.066,1.353-0.201s0.649-0.279,0.884-0.436
		s0.429-0.301,0.585-0.436c0.156-0.134,0.316-0.201,0.481-0.201c0.208,0,0.368,0.078,0.48,0.233l0.729,0.937
		c-0.304,0.372-0.644,0.688-1.021,0.949c-0.377,0.26-0.778,0.472-1.203,0.637s-0.869,0.286-1.332,0.364
		c-0.464,0.077-0.935,0.116-1.411,0.116c-0.823,0-1.592-0.151-2.308-0.455c-0.715-0.303-1.334-0.745-1.858-1.325
		c-0.524-0.581-0.938-1.294-1.241-2.139c-0.304-0.845-0.455-1.805-0.455-2.88c0-0.979,0.136-1.885,0.409-2.717
		s0.676-1.549,1.209-2.151s1.189-1.074,1.97-1.417c0.779-0.343,1.672-0.514,2.678-0.514c0.944,0,1.776,0.151,2.496,0.455
		c0.719,0.304,1.36,0.732,1.924,1.287L498.267,125.677z"/>
	<path fill="#EC6923" d="M512.579,134.531c-0.312,0.363-0.672,0.678-1.079,0.942s-0.841,0.479-1.3,0.644
		c-0.46,0.165-0.935,0.286-1.424,0.364c-0.489,0.077-0.973,0.116-1.449,0.116c-0.91,0-1.753-0.153-2.528-0.461
		c-0.776-0.308-1.447-0.759-2.016-1.353c-0.567-0.593-1.01-1.33-1.325-2.21c-0.317-0.879-0.475-1.892-0.475-3.035
		c0-0.919,0.143-1.774,0.429-2.567s0.695-1.484,1.229-2.073c0.533-0.59,1.185-1.054,1.956-1.392s1.639-0.507,2.601-0.507
		c0.806,0,1.549,0.132,2.229,0.396c0.68,0.265,1.268,0.648,1.762,1.15c0.493,0.503,0.881,1.123,1.163,1.859
		c0.281,0.736,0.423,1.577,0.423,2.521c0,0.391-0.044,0.652-0.13,0.787c-0.087,0.134-0.247,0.201-0.481,0.201h-8.658
		c0.026,0.789,0.139,1.476,0.338,2.061s0.475,1.072,0.826,1.463c0.351,0.39,0.769,0.68,1.254,0.87
		c0.485,0.191,1.027,0.286,1.625,0.286c0.563,0,1.051-0.064,1.463-0.194c0.411-0.13,0.767-0.271,1.065-0.423
		c0.3-0.151,0.551-0.293,0.754-0.423c0.204-0.13,0.384-0.194,0.54-0.194c0.208,0,0.368,0.078,0.48,0.233L512.579,134.531z
		 M510.486,128.342c0-0.502-0.071-0.966-0.215-1.391c-0.143-0.425-0.354-0.793-0.631-1.105c-0.277-0.312-0.615-0.554-1.014-0.728
		s-0.857-0.26-1.378-0.26c-1.066,0-1.904,0.308-2.516,0.923s-0.999,1.469-1.163,2.561H510.486z"/>
	<path fill="#EC6923" d="M529.283,117.747c1.196,0,2.236,0.139,3.12,0.416s1.616,0.67,2.197,1.177
		c0.58,0.507,1.012,1.12,1.293,1.839c0.281,0.72,0.423,1.517,0.423,2.393c0,0.875-0.152,1.679-0.455,2.411
		c-0.304,0.732-0.75,1.363-1.339,1.892c-0.59,0.528-1.324,0.938-2.204,1.229s-1.892,0.436-3.035,0.436h-2.886v6.877h-2.77v-18.668
		H529.283z M529.283,127.355c0.702,0,1.319-0.092,1.853-0.273s0.979-0.439,1.339-0.773s0.631-0.732,0.812-1.196
		c0.182-0.463,0.273-0.977,0.273-1.54c0-1.136-0.354-2.028-1.06-2.679c-0.707-0.649-1.779-0.975-3.218-0.975h-2.886v7.437H529.283z"
		/>
	<path fill="#EC6923" d="M542.427,119.125c0,0.234-0.048,0.457-0.143,0.67c-0.096,0.212-0.224,0.398-0.384,0.559
		c-0.161,0.16-0.35,0.286-0.565,0.377c-0.217,0.091-0.442,0.137-0.676,0.137c-0.234,0-0.455-0.046-0.663-0.137
		s-0.393-0.217-0.553-0.377s-0.286-0.347-0.377-0.559c-0.091-0.213-0.137-0.436-0.137-0.67c0-0.242,0.046-0.47,0.137-0.683
		c0.091-0.212,0.217-0.398,0.377-0.559s0.345-0.286,0.553-0.377s0.429-0.137,0.663-0.137c0.233,0,0.459,0.046,0.676,0.137
		c0.216,0.091,0.404,0.217,0.565,0.377c0.16,0.16,0.288,0.347,0.384,0.559C542.379,118.656,542.427,118.883,542.427,119.125z
		 M541.945,123.207v13.208h-2.534v-13.208H541.945z"/>
	<path fill="#EC6923" d="M551.773,122.999c0.971,0,1.848,0.158,2.633,0.475c0.784,0.316,1.451,0.771,2.002,1.365
		c0.55,0.594,0.973,1.309,1.267,2.145c0.295,0.837,0.442,1.774,0.442,2.814s-0.147,1.98-0.442,2.821
		c-0.294,0.841-0.717,1.556-1.267,2.145c-0.551,0.59-1.218,1.043-2.002,1.358c-0.785,0.316-1.662,0.475-2.633,0.475
		c-0.979,0-1.861-0.158-2.646-0.475c-0.784-0.315-1.454-0.769-2.009-1.358c-0.555-0.589-0.981-1.304-1.28-2.145
		s-0.448-1.781-0.448-2.821s0.149-1.978,0.448-2.814c0.299-0.836,0.726-1.551,1.28-2.145s1.225-1.049,2.009-1.365
		S550.794,122.999,551.773,122.999z M551.773,134.621c1.248,0,2.18-0.42,2.795-1.261s0.923-2.023,0.923-3.549
		s-0.308-2.711-0.923-3.556c-0.615-0.846-1.547-1.268-2.795-1.268c-1.266,0-2.208,0.422-2.828,1.268
		c-0.619,0.845-0.929,2.03-0.929,3.556s0.31,2.708,0.929,3.549C549.565,134.201,550.508,134.621,551.773,134.621z"/>
	<path fill="#EC6923" d="M563.838,125.04c0.286-0.304,0.585-0.58,0.896-0.832c0.312-0.251,0.644-0.466,0.995-0.644
		c0.351-0.178,0.728-0.316,1.131-0.416s0.834-0.149,1.293-0.149c0.729,0,1.367,0.121,1.918,0.364
		c0.55,0.242,1.012,0.583,1.385,1.021c0.372,0.438,0.654,0.964,0.845,1.579s0.286,1.296,0.286,2.041v8.411h-2.548v-8.411
		c0-0.944-0.217-1.679-0.65-2.203s-1.097-0.787-1.989-0.787c-0.649,0-1.259,0.154-1.826,0.462s-1.095,0.726-1.579,1.255v9.685
		h-2.535v-13.208h1.521c0.355,0,0.576,0.169,0.663,0.507L563.838,125.04z"/>
	<path fill="#EC6923" d="M587.367,134.531c-0.312,0.363-0.672,0.678-1.079,0.942s-0.841,0.479-1.3,0.644
		c-0.46,0.165-0.935,0.286-1.424,0.364c-0.489,0.077-0.973,0.116-1.449,0.116c-0.91,0-1.753-0.153-2.528-0.461
		c-0.776-0.308-1.447-0.759-2.016-1.353c-0.567-0.593-1.01-1.33-1.325-2.21c-0.317-0.879-0.475-1.892-0.475-3.035
		c0-0.919,0.143-1.774,0.429-2.567s0.695-1.484,1.229-2.073c0.533-0.59,1.185-1.054,1.956-1.392s1.639-0.507,2.601-0.507
		c0.806,0,1.549,0.132,2.229,0.396c0.68,0.265,1.268,0.648,1.762,1.15c0.493,0.503,0.881,1.123,1.163,1.859
		c0.281,0.736,0.423,1.577,0.423,2.521c0,0.391-0.044,0.652-0.13,0.787c-0.087,0.134-0.247,0.201-0.481,0.201h-8.658
		c0.026,0.789,0.139,1.476,0.338,2.061s0.475,1.072,0.826,1.463c0.351,0.39,0.769,0.68,1.254,0.87
		c0.485,0.191,1.027,0.286,1.625,0.286c0.563,0,1.051-0.064,1.463-0.194c0.411-0.13,0.767-0.271,1.065-0.423
		c0.3-0.151,0.551-0.293,0.754-0.423c0.204-0.13,0.384-0.194,0.54-0.194c0.208,0,0.368,0.078,0.48,0.233L587.367,134.531z
		 M585.274,128.342c0-0.502-0.071-0.966-0.215-1.391c-0.143-0.425-0.354-0.793-0.631-1.105c-0.277-0.312-0.615-0.554-1.014-0.728
		s-0.857-0.26-1.378-0.26c-1.066,0-1.904,0.308-2.516,0.923s-0.999,1.469-1.163,2.561H585.274z"/>
	<path fill="#EC6923" d="M601.654,134.531c-0.312,0.363-0.672,0.678-1.079,0.942s-0.841,0.479-1.3,0.644
		c-0.46,0.165-0.935,0.286-1.424,0.364c-0.489,0.077-0.973,0.116-1.449,0.116c-0.91,0-1.753-0.153-2.528-0.461
		c-0.776-0.308-1.447-0.759-2.016-1.353c-0.567-0.593-1.01-1.33-1.325-2.21c-0.317-0.879-0.475-1.892-0.475-3.035
		c0-0.919,0.143-1.774,0.429-2.567s0.695-1.484,1.229-2.073c0.533-0.59,1.185-1.054,1.956-1.392s1.639-0.507,2.601-0.507
		c0.806,0,1.549,0.132,2.229,0.396c0.68,0.265,1.268,0.648,1.762,1.15c0.493,0.503,0.881,1.123,1.163,1.859
		c0.281,0.736,0.423,1.577,0.423,2.521c0,0.391-0.044,0.652-0.13,0.787c-0.087,0.134-0.247,0.201-0.481,0.201h-8.658
		c0.026,0.789,0.139,1.476,0.338,2.061s0.475,1.072,0.826,1.463c0.351,0.39,0.769,0.68,1.254,0.87
		c0.485,0.191,1.027,0.286,1.625,0.286c0.563,0,1.051-0.064,1.463-0.194c0.411-0.13,0.767-0.271,1.065-0.423
		c0.3-0.151,0.551-0.293,0.754-0.423c0.204-0.13,0.384-0.194,0.54-0.194c0.208,0,0.368,0.078,0.48,0.233L601.654,134.531z
		 M599.562,128.342c0-0.502-0.071-0.966-0.215-1.391c-0.143-0.425-0.354-0.793-0.631-1.105c-0.277-0.312-0.615-0.554-1.014-0.728
		s-0.857-0.26-1.378-0.26c-1.066,0-1.904,0.308-2.516,0.923s-0.999,1.469-1.163,2.561H599.562z"/>
	<path fill="#EC6923" d="M607.49,125.742c0.425-0.866,0.937-1.547,1.534-2.041s1.317-0.741,2.158-0.741
		c0.286,0,0.557,0.032,0.812,0.098c0.255,0.064,0.479,0.162,0.669,0.292l-0.169,1.911c-0.061,0.234-0.203,0.352-0.429,0.352
		c-0.121,0-0.304-0.024-0.546-0.071c-0.243-0.048-0.503-0.072-0.78-0.072c-0.407,0-0.767,0.059-1.079,0.176
		c-0.312,0.117-0.591,0.29-0.838,0.52c-0.247,0.23-0.467,0.512-0.657,0.846s-0.368,0.713-0.532,1.138v8.268h-2.535v-13.208h1.456
		c0.277,0,0.466,0.05,0.565,0.149s0.171,0.275,0.214,0.526L607.49,125.742z"/>
	<path fill="#EC6923" d="M622.855,125.483c-0.07,0.112-0.144,0.192-0.222,0.24s-0.178,0.071-0.299,0.071
		c-0.139,0-0.292-0.048-0.461-0.143c-0.169-0.096-0.373-0.199-0.611-0.312c-0.238-0.112-0.518-0.217-0.839-0.312
		c-0.32-0.096-0.702-0.144-1.144-0.144c-0.364,0-0.695,0.046-0.995,0.137c-0.299,0.091-0.552,0.217-0.76,0.377
		s-0.369,0.352-0.481,0.572s-0.169,0.457-0.169,0.708c0,0.33,0.098,0.603,0.293,0.819c0.194,0.217,0.45,0.403,0.767,0.559
		c0.316,0.156,0.676,0.297,1.079,0.423s0.814,0.258,1.235,0.396c0.42,0.139,0.832,0.297,1.234,0.475
		c0.403,0.178,0.763,0.398,1.079,0.663s0.572,0.583,0.768,0.955c0.194,0.373,0.292,0.828,0.292,1.365c0,0.615-0.11,1.186-0.331,1.71
		c-0.222,0.524-0.547,0.977-0.976,1.358c-0.429,0.381-0.96,0.68-1.593,0.896c-0.632,0.217-1.356,0.325-2.171,0.325
		c-0.909,0-1.75-0.151-2.521-0.455c-0.771-0.303-1.417-0.688-1.938-1.157l0.599-0.975c0.069-0.121,0.155-0.215,0.26-0.279
		c0.104-0.065,0.242-0.098,0.416-0.098c0.164,0,0.333,0.061,0.507,0.182c0.174,0.122,0.382,0.254,0.624,0.396
		c0.242,0.144,0.537,0.273,0.884,0.391c0.347,0.116,0.78,0.175,1.3,0.175c0.434,0,0.811-0.054,1.132-0.162
		c0.32-0.108,0.587-0.256,0.799-0.442c0.213-0.186,0.371-0.4,0.475-0.644c0.104-0.242,0.156-0.498,0.156-0.767
		c0-0.347-0.098-0.635-0.293-0.864c-0.194-0.229-0.45-0.427-0.767-0.592c-0.316-0.164-0.678-0.308-1.086-0.429
		c-0.407-0.121-0.823-0.252-1.247-0.391c-0.425-0.139-0.841-0.299-1.248-0.48c-0.408-0.183-0.77-0.412-1.086-0.689
		s-0.572-0.615-0.767-1.014c-0.195-0.398-0.293-0.884-0.293-1.456c0-0.512,0.106-1.001,0.318-1.469
		c0.213-0.468,0.521-0.88,0.923-1.235c0.403-0.355,0.901-0.639,1.495-0.852c0.594-0.212,1.272-0.318,2.035-0.318
		c0.875,0,1.666,0.139,2.372,0.416s1.311,0.659,1.813,1.144L622.855,125.483z"/>
</g>
</svg>
