<?xml version="1.0" encoding="utf-8"?>
<!-- Generator: Adobe Illustrator 19.2.1, SVG Export Plug-In . SVG Version: 6.00 Build 0)  -->
<svg version="1.1" id="Layer_1" xmlns="http://www.w3.org/2000/svg" xmlns:xlink="http://www.w3.org/1999/xlink" x="0px" y="0px"
	 viewBox="0 0 422.6 101" style="enable-background:new 0 0 422.6 101;" xml:space="preserve">
<style type="text/css">
	.st0{fill:#005FAB;}
	.st1{fill:#0060AC;}
	.st2{fill:#0061AD;}
	.st3{fill:#0062AE;}
	.st4{fill:#0063AF;}
	.st5{fill:#0064AF;}
	.st6{fill:#0064B0;}
	.st7{fill:#0065B0;}
	.st8{fill:#0066B1;}
	.st9{fill:#0067B2;}
	.st10{fill:#0068B3;}
	.st11{fill:#0069B3;}
	.st12{fill:#0069B4;}
	.st13{fill:#006AB4;}
	.st14{fill:#006BB5;}
	.st15{fill:#006CB5;}
	.st16{fill:#006CB6;}
	.st17{fill:#006DB6;}
	.st18{fill:#006DB7;}
	.st19{fill:#006EB7;}
	.st20{fill:#006FB8;}
	.st21{fill:#0070B9;}
	.st22{fill:#0071BA;}
	.st23{fill:#0072BA;}
	.st24{fill:#0072BB;}
	.st25{fill:#0073BB;}
	.st26{fill:#0073BC;}
	.st27{fill:#0074BC;}
	.st28{fill:#0075BD;}
	.st29{fill:#0076BE;}
	.st30{fill:#0077BF;}
	.st31{fill:#0078BF;}
	.st32{fill:#0078C0;}
	.st33{fill:#0079C0;}
	.st34{fill:#007AC1;}
	.st35{fill:#007BC1;}
	.st36{fill:#007BC2;}
	.st37{fill:#007CC2;}
	.st38{fill:#007CC3;}
	.st39{fill:#007DC3;}
	.st40{fill:#007EC4;}
	.st41{fill:#007FC5;}
	.st42{fill:#0080C6;}
	.st43{fill:#0081C6;}
	.st44{fill:#0081C7;}
	.st45{fill:#0082C7;}
	.st46{fill:#0082C8;}
	.st47{fill:#0083C8;}
	.st48{fill:#0084C8;}
	.st49{fill:#0084C9;}
	.st50{fill:#0085C9;}
	.st51{fill:#0086CA;}
	.st52{fill:#0087CB;}
	.st53{fill:#0088CC;}
	.st54{fill:#0089CC;}
	.st55{fill:#0089CD;}
	.st56{fill:#008ACD;}
	.st57{fill:#008BCE;}
	.st58{fill:#008CCE;}
	.st59{fill:#008CCF;}
	.st60{fill:#008DCF;}
	.st61{fill:#008ED0;}
	.st62{fill:#008FD1;}
	.st63{fill:#0090D2;}
	.st64{fill:#0091D2;}
	.st65{fill:#0092D3;}
	.st66{fill:#0093D4;}
	.st67{fill:#0094D4;}
	.st68{fill:#0094D5;}
	.st69{fill:#0095D5;}
	.st70{fill:#0096D6;}
	.st71{fill:#0097D6;}
	.st72{fill:#0097D7;}
	.st73{fill:#0098D7;}
	.st74{fill:#0099D8;}
	.st75{fill:#009AD9;}
	.st76{fill:#009BD9;}
	.st77{fill:#009BDA;}
	.st78{fill:#009CDA;}
	.st79{fill:#009DDB;}
	.st80{fill:#009EDB;}
	.st81{fill:#009EDC;}
	.st82{fill:#009FDC;}
	.st83{fill:#009FDD;}
	.st84{fill:#00A0DD;}
	.st85{fill:#00A1DD;}
	.st86{fill:#00A1DE;}
	.st87{fill:#00A2DE;}
	.st88{fill:#00A2DF;}
	.st89{fill:#00A3DF;}
	.st90{fill:#00A4E0;}
	.st91{fill:#00A5E0;}
	.st92{fill:#00A6E1;}
	.st93{fill:#00A7E2;}
	.st94{fill:#00A8E3;}
	.st95{fill:#00A9E3;}
	.st96{fill:#00AAE4;}
	.st97{fill:#00ABE4;}
	.st98{fill:#00ABE5;}
	.st99{fill:#00ACE5;}
	.st100{fill:#00ADE6;}
	.st101{fill:#00AEE6;}
	.st102{fill:#00AEE7;}
	.st103{fill:#00AFE7;}
	.st104{fill:#00B0E8;}
	.st105{fill:#00B1E8;}
	.st106{fill:#00B2E9;}
	.st107{fill:#00B3EA;}
	.st108{fill:#00B4EA;}
	.st109{fill:#00B4EB;}
	.st110{fill:#00B5EB;}
	.st111{fill:#00B6EC;}
	.st112{fill:#00B7EC;}
	.st113{fill:#131309;}
	.st114{fill:#FFFFFF;}
	.st115{fill:#575756;}
	.st116{fill:#005CA9;}
</style>
<g>
	<g>
		<g>
			<path class="st0" d="M89.6,44.8c0,24.7-20,44.8-44.8,44.8C20,89.6,0,69.5,0,44.8C0,20.1,20,0,44.8,0C69.5,0,89.6,20.1,89.6,44.8z
				"/>
			<path class="st1" d="M89.4,44.8c0,24.6-20,44.6-44.6,44.6c-24.6,0-44.6-20-44.6-44.6c0-24.6,20-44.6,44.6-44.6
				C69.4,0.2,89.4,20.2,89.4,44.8z"/>
			<path class="st1" d="M89.2,44.8c0,24.5-19.9,44.4-44.4,44.4c-24.5,0-44.4-19.9-44.4-44.4c0-24.5,19.9-44.4,44.4-44.4
				C69.3,0.4,89.2,20.3,89.2,44.8z"/>
			<path class="st2" d="M89,44.8C89,69.2,69.2,89,44.8,89C20.4,89,0.6,69.2,0.6,44.8c0-24.4,19.8-44.2,44.2-44.2
				C69.2,0.6,89,20.4,89,44.8z"/>
			<path class="st2" d="M88.8,44.8c0,24.3-19.7,44.1-44,44.1c-24.3,0-44.1-19.7-44.1-44.1c0-24.3,19.7-44.1,44.1-44.1
				C69.1,0.7,88.8,20.5,88.8,44.8z"/>
			<path class="st3" d="M88.6,44.8C88.6,69,69,88.7,44.8,88.7C20.6,88.7,0.9,69,0.9,44.8c0-24.2,19.6-43.9,43.9-43.9
				C69,0.9,88.6,20.6,88.6,44.8z"/>
			<path class="st3" d="M88.5,44.8c0,24.1-19.6,43.7-43.7,43.7c-24.1,0-43.7-19.6-43.7-43.7c0-24.1,19.6-43.7,43.7-43.7
				C68.9,1.1,88.5,20.7,88.5,44.8z"/>
			<path class="st4" d="M88.3,44.8c0,24-19.5,43.5-43.5,43.5c-24,0-43.5-19.5-43.5-43.5c0-24,19.5-43.5,43.5-43.5
				C68.8,1.3,88.3,20.8,88.3,44.8z"/>
			<path class="st5" d="M88.1,44.8c0,23.9-19.4,43.3-43.3,43.3c-23.9,0-43.3-19.4-43.3-43.3c0-23.9,19.4-43.3,43.3-43.3
				C68.7,1.5,88.1,20.9,88.1,44.8z"/>
			<path class="st6" d="M87.9,44.8c0,23.8-19.3,43.1-43.1,43.1C21,87.9,1.7,68.6,1.7,44.8C1.7,21,21,1.7,44.8,1.7
				C68.6,1.7,87.9,21,87.9,44.8z"/>
			<path class="st7" d="M87.7,44.8c0,23.7-19.2,42.9-42.9,42.9c-23.7,0-43-19.2-43-42.9c0-23.7,19.2-42.9,43-42.9
				C68.5,1.8,87.7,21.1,87.7,44.8z"/>
			<path class="st8" d="M87.5,44.8c0,23.6-19.1,42.8-42.8,42.8C21.2,87.5,2,68.4,2,44.8C2,21.2,21.2,2,44.8,2
				C68.4,2,87.5,21.2,87.5,44.8z"/>
			<path class="st8" d="M87.4,44.8c0,23.5-19.1,42.6-42.6,42.6c-23.5,0-42.6-19.1-42.6-42.6c0-23.5,19.1-42.6,42.6-42.6
				C68.3,2.2,87.4,21.3,87.4,44.8z"/>
			<path class="st9" d="M87.2,44.8c0,23.4-19,42.4-42.4,42.4c-23.4,0-42.4-19-42.4-42.4c0-23.4,19-42.4,42.4-42.4
				C68.2,2.4,87.2,21.4,87.2,44.8z"/>
			<path class="st9" d="M87,44.8C87,68.1,68.1,87,44.8,87C21.5,87,2.6,68.1,2.6,44.8c0-23.3,18.9-42.2,42.2-42.2
				C68.1,2.6,87,21.5,87,44.8z"/>
			<path class="st10" d="M86.8,44.8c0,23.2-18.8,42-42,42c-23.2,0-42-18.8-42-42c0-23.2,18.8-42,42-42C68,2.8,86.8,21.6,86.8,44.8z"
				/>
			<path class="st11" d="M86.6,44.8c0,23.1-18.7,41.8-41.8,41.8c-23.1,0-41.8-18.7-41.8-41.8c0-23.1,18.7-41.8,41.8-41.8
				C67.9,2.9,86.6,21.7,86.6,44.8z"/>
			<path class="st12" d="M86.4,44.8c0,23-18.6,41.7-41.6,41.7c-23,0-41.7-18.7-41.7-41.7c0-23,18.6-41.7,41.7-41.7
				C67.8,3.1,86.4,21.8,86.4,44.8z"/>
			<path class="st13" d="M86.3,44.8c0,22.9-18.6,41.5-41.5,41.5c-22.9,0-41.5-18.6-41.5-41.5c0-22.9,18.6-41.5,41.5-41.5
				C67.7,3.3,86.3,21.9,86.3,44.8z"/>
			<path class="st13" d="M86.1,44.8c0,22.8-18.5,41.3-41.3,41.3C22,86.1,3.5,67.6,3.5,44.8C3.5,22,22,3.5,44.8,3.5
				C67.6,3.5,86.1,22,86.1,44.8z"/>
			<path class="st14" d="M85.9,44.8c0,22.7-18.4,41.1-41.1,41.1c-22.7,0-41.1-18.4-41.1-41.1c0-22.7,18.4-41.1,41.1-41.1
				C67.5,3.7,85.9,22.1,85.9,44.8z"/>
			<path class="st15" d="M85.7,44.8c0,22.6-18.3,40.9-40.9,40.9c-22.6,0-40.9-18.3-40.9-40.9c0-22.6,18.3-40.9,40.9-40.9
				C67.4,3.9,85.7,22.2,85.7,44.8z"/>
			<path class="st16" d="M85.5,44.8c0,22.5-18.2,40.7-40.7,40.7C22.3,85.5,4,67.3,4,44.8C4,22.3,22.3,4,44.8,4
				C67.3,4,85.5,22.3,85.5,44.8z"/>
			<path class="st17" d="M85.3,44.8c0,22.4-18.2,40.6-40.5,40.6c-22.4,0-40.6-18.2-40.6-40.6c0-22.4,18.2-40.6,40.6-40.6
				C67.2,4.2,85.3,22.4,85.3,44.8z"/>
			<path class="st18" d="M85.2,44.8c0,22.3-18.1,40.4-40.4,40.4c-22.3,0-40.4-18.1-40.4-40.4c0-22.3,18.1-40.4,40.4-40.4
				C67.1,4.4,85.2,22.5,85.2,44.8z"/>
			<path class="st19" d="M85,44.8C85,67,67,85,44.8,85C22.6,85,4.6,67,4.6,44.8c0-22.2,18-40.2,40.2-40.2C67,4.6,85,22.6,85,44.8z"
				/>
			<path class="st20" d="M84.8,44.8c0,22.1-17.9,40-40,40c-22.1,0-40-17.9-40-40c0-22.1,17.9-40,40-40C66.9,4.8,84.8,22.7,84.8,44.8
				z"/>
			<path class="st20" d="M84.6,44.8c0,22-17.8,39.8-39.8,39.8C22.8,84.6,5,66.8,5,44.8C5,22.8,22.8,5,44.8,5
				C66.8,5,84.6,22.8,84.6,44.8z"/>
			<path class="st21" d="M84.4,44.8c0,21.9-17.7,39.6-39.6,39.6c-21.9,0-39.6-17.8-39.6-39.6c0-21.9,17.7-39.6,39.6-39.6
				C66.7,5.2,84.4,22.9,84.4,44.8z"/>
			<path class="st21" d="M84.2,44.8c0,21.8-17.7,39.5-39.4,39.5C23,84.2,5.3,66.6,5.3,44.8C5.3,23,23,5.3,44.8,5.3
				C66.6,5.3,84.2,23,84.2,44.8z"/>
			<path class="st22" d="M84,44.8c0,21.7-17.6,39.3-39.3,39.3c-21.7,0-39.3-17.6-39.3-39.3c0-21.7,17.6-39.3,39.3-39.3
				C66.5,5.5,84,23.1,84,44.8z"/>
			<path class="st23" d="M83.9,44.8c0,21.6-17.5,39.1-39.1,39.1c-21.6,0-39.1-17.5-39.1-39.1c0-21.6,17.5-39.1,39.1-39.1
				C66.4,5.7,83.9,23.2,83.9,44.8z"/>
			<path class="st24" d="M83.7,44.8c0,21.5-17.4,38.9-38.9,38.9c-21.5,0-38.9-17.4-38.9-38.9c0-21.5,17.4-38.9,38.9-38.9
				C66.3,5.9,83.7,23.3,83.7,44.8z"/>
			<path class="st25" d="M83.5,44.8c0,21.4-17.3,38.7-38.7,38.7c-21.4,0-38.7-17.3-38.7-38.7c0-21.4,17.3-38.7,38.7-38.7
				C66.2,6.1,83.5,23.4,83.5,44.8z"/>
			<path class="st26" d="M83.3,44.8c0,21.3-17.2,38.5-38.5,38.5c-21.3,0-38.5-17.3-38.5-38.5c0-21.3,17.3-38.5,38.5-38.5
				C66.1,6.3,83.3,23.5,83.3,44.8z"/>
			<path class="st27" d="M83.1,44.8C83.1,66,66,83.1,44.8,83.1C23.6,83.1,6.4,66,6.4,44.8c0-21.2,17.2-38.3,38.4-38.3
				C66,6.4,83.1,23.6,83.1,44.8z"/>
			<path class="st28" d="M82.9,44.8C82.9,65.9,65.9,83,44.8,83C23.7,83,6.6,65.9,6.6,44.8c0-21.1,17.1-38.2,38.2-38.2
				C65.9,6.6,82.9,23.7,82.9,44.8z"/>
			<path class="st28" d="M82.8,44.8c0,21-17,38-38,38c-21,0-38-17-38-38c0-21,17-38,38-38C65.8,6.8,82.8,23.8,82.8,44.8z"/>
			<path class="st29" d="M82.6,44.8c0,20.9-16.9,37.8-37.8,37.8C23.9,82.6,7,65.7,7,44.8C7,23.9,23.9,7,44.8,7
				C65.7,7,82.6,23.9,82.6,44.8z"/>
			<path class="st29" d="M82.4,44.8c0,20.8-16.8,37.6-37.6,37.6C24,82.4,7.2,65.6,7.2,44.8C7.2,24,24,7.2,44.8,7.2
				C65.6,7.2,82.4,24,82.4,44.8z"/>
			<path class="st30" d="M82.2,44.8c0,20.7-16.8,37.4-37.4,37.4c-20.7,0-37.4-16.8-37.4-37.4c0-20.7,16.8-37.4,37.4-37.4
				C65.5,7.4,82.2,24.1,82.2,44.8z"/>
			<path class="st31" d="M82,44.8C82,65.4,65.4,82,44.8,82C24.2,82,7.5,65.4,7.5,44.8c0-20.6,16.7-37.2,37.3-37.2
				C65.4,7.5,82,24.2,82,44.8z"/>
			<path class="st32" d="M81.8,44.8c0,20.5-16.6,37.1-37.1,37.1c-20.5,0-37.1-16.6-37.1-37.1c0-20.5,16.6-37.1,37.1-37.1
				C65.3,7.7,81.8,24.3,81.8,44.8z"/>
			<path class="st33" d="M81.7,44.8c0,20.4-16.5,36.9-36.9,36.9c-20.4,0-36.9-16.5-36.9-36.9c0-20.4,16.5-36.9,36.9-36.9
				C65.2,7.9,81.7,24.4,81.7,44.8z"/>
			<path class="st33" d="M81.5,44.8C81.5,65,65,81.5,44.8,81.5C24.5,81.5,8.1,65,8.1,44.8c0-20.3,16.4-36.7,36.7-36.7
				C65,8.1,81.5,24.5,81.5,44.8z"/>
			<path class="st34" d="M81.3,44.8c0,20.2-16.3,36.5-36.5,36.5c-20.2,0-36.5-16.3-36.5-36.5c0-20.2,16.3-36.5,36.5-36.5
				C64.9,8.3,81.3,24.6,81.3,44.8z"/>
			<path class="st35" d="M81.1,44.8c0,20.1-16.3,36.3-36.3,36.3c-20.1,0-36.3-16.3-36.3-36.3c0-20.1,16.3-36.3,36.3-36.3
				C64.8,8.5,81.1,24.7,81.1,44.8z"/>
			<path class="st36" d="M80.9,44.8c0,20-16.2,36.1-36.1,36.1c-20,0-36.1-16.2-36.1-36.1c0-20,16.2-36.1,36.1-36.1
				C64.7,8.6,80.9,24.8,80.9,44.8z"/>
			<path class="st37" d="M80.7,44.8c0,19.9-16.1,36-35.9,36c-19.9,0-36-16.1-36-36c0-19.9,16.1-36,36-36
				C64.6,8.8,80.7,24.9,80.7,44.8z"/>
			<path class="st38" d="M80.6,44.8c0,19.8-16,35.8-35.8,35.8C25,80.6,9,64.5,9,44.8C9,25,25,9,44.8,9C64.5,9,80.6,25,80.6,44.8z"/>
			<path class="st39" d="M80.4,44.8c0,19.7-15.9,35.6-35.6,35.6c-19.7,0-35.6-15.9-35.6-35.6c0-19.7,15.9-35.6,35.6-35.6
				C64.4,9.2,80.4,25.1,80.4,44.8z"/>
			<path class="st40" d="M80.2,44.8c0,19.6-15.8,35.4-35.4,35.4c-19.6,0-35.4-15.9-35.4-35.4c0-19.6,15.9-35.4,35.4-35.4
				C64.3,9.4,80.2,25.2,80.2,44.8z"/>
			<path class="st40" d="M80,44.8C80,64.2,64.2,80,44.8,80C25.3,80,9.6,64.2,9.6,44.8c0-19.5,15.8-35.2,35.2-35.2
				C64.2,9.6,80,25.3,80,44.8z"/>
			<path class="st41" d="M79.8,44.8c0,19.3-15.7,35-35,35c-19.4,0-35-15.7-35-35c0-19.4,15.7-35,35-35C64.1,9.7,79.8,25.4,79.8,44.8
				z"/>
			<path class="st41" d="M79.6,44.8C79.6,64,64,79.6,44.8,79.6C25.5,79.6,9.9,64,9.9,44.8c0-19.2,15.6-34.9,34.9-34.9
				C64,9.9,79.6,25.5,79.6,44.8z"/>
			<path class="st42" d="M79.5,44.8c0,19.1-15.5,34.7-34.7,34.7c-19.2,0-34.7-15.5-34.7-34.7c0-19.1,15.5-34.7,34.7-34.7
				C63.9,10.1,79.5,25.6,79.5,44.8z"/>
			<path class="st43" d="M79.3,44.8c0,19-15.4,34.5-34.5,34.5c-19.1,0-34.5-15.4-34.5-34.5c0-19,15.4-34.5,34.5-34.5
				C63.8,10.3,79.3,25.7,79.3,44.8z"/>
			<path class="st44" d="M79.1,44.8c0,18.9-15.4,34.3-34.3,34.3c-19,0-34.3-15.4-34.3-34.3c0-18.9,15.4-34.3,34.3-34.3
				C63.7,10.5,79.1,25.8,79.1,44.8z"/>
			<path class="st45" d="M78.9,44.8c0,18.8-15.3,34.1-34.1,34.1c-18.8,0-34.1-15.3-34.1-34.1c0-18.8,15.3-34.1,34.1-34.1
				C63.6,10.7,78.9,25.9,78.9,44.8z"/>
			<path class="st46" d="M78.7,44.8c0,18.7-15.2,33.9-33.9,33.9c-18.7,0-33.9-15.2-33.9-33.9C10.9,26,26,10.9,44.8,10.9
				C63.5,10.9,78.7,26,78.7,44.8z"/>
			<path class="st47" d="M78.5,44.8c0,18.6-15.1,33.8-33.7,33.8C26.1,78.5,11,63.4,11,44.8C11,26.1,26.1,11,44.8,11
				C63.4,11,78.5,26.1,78.5,44.8z"/>
			<path class="st48" d="M78.3,44.8c0,18.5-15,33.6-33.6,33.6c-18.5,0-33.6-15-33.6-33.6c0-18.5,15-33.6,33.6-33.6
				C63.3,11.2,78.3,26.2,78.3,44.8z"/>
			<path class="st49" d="M78.2,44.8c0,18.4-14.9,33.4-33.4,33.4c-18.4,0-33.4-14.9-33.4-33.4c0-18.4,14.9-33.4,33.4-33.4
				C63.2,11.4,78.2,26.3,78.2,44.8z"/>
			<path class="st50" d="M78,44.8C78,63.1,63.1,78,44.8,78c-18.3,0-33.2-14.9-33.2-33.2c0-18.3,14.9-33.2,33.2-33.2
				C63.1,11.6,78,26.5,78,44.8z"/>
			<path class="st51" d="M77.8,44.8c0,18.2-14.8,33-33,33c-18.2,0-33-14.8-33-33c0-18.2,14.8-33,33-33C63,11.8,77.8,26.6,77.8,44.8z
				"/>
			<path class="st51" d="M77.6,44.8c0,18.1-14.7,32.8-32.8,32.8C26.7,77.6,12,62.9,12,44.8C12,26.7,26.7,12,44.8,12
				C62.9,12,77.6,26.7,77.6,44.8z"/>
			<path class="st52" d="M77.4,44.8c0,18-14.6,32.6-32.6,32.6c-18,0-32.7-14.6-32.7-32.6c0-18,14.6-32.6,32.7-32.6
				C62.8,12.1,77.4,26.8,77.4,44.8z"/>
			<path class="st52" d="M77.2,44.8c0,17.9-14.5,32.5-32.5,32.5c-17.9,0-32.5-14.5-32.5-32.5c0-17.9,14.5-32.5,32.5-32.5
				C62.7,12.3,77.2,26.9,77.2,44.8z"/>
			<path class="st53" d="M77.1,44.8c0,17.8-14.4,32.3-32.3,32.3c-17.8,0-32.3-14.5-32.3-32.3C12.5,27,27,12.5,44.8,12.5
				C62.6,12.5,77.1,27,77.1,44.8z"/>
			<path class="st54" d="M76.9,44.8c0,17.7-14.4,32.1-32.1,32.1c-17.7,0-32.1-14.4-32.1-32.1c0-17.7,14.4-32.1,32.1-32.1
				C62.5,12.7,76.9,27.1,76.9,44.8z"/>
			<path class="st55" d="M76.7,44.8c0,17.6-14.3,31.9-31.9,31.9c-17.6,0-31.9-14.3-31.9-31.9c0-17.6,14.3-31.9,31.9-31.9
				C62.4,12.9,76.7,27.2,76.7,44.8z"/>
			<path class="st56" d="M76.5,44.8c0,17.5-14.2,31.7-31.7,31.7c-17.5,0-31.7-14.2-31.7-31.7c0-17.5,14.2-31.7,31.7-31.7
				C62.3,13.1,76.5,27.3,76.5,44.8z"/>
			<path class="st56" d="M76.3,44.8c0,17.4-14.1,31.5-31.5,31.5c-17.4,0-31.5-14.1-31.5-31.5c0-17.4,14.1-31.5,31.5-31.5
				C62.2,13.2,76.3,27.4,76.3,44.8z"/>
			<path class="st57" d="M76.1,44.8c0,17.3-14,31.4-31.3,31.4c-17.3,0-31.4-14-31.4-31.4c0-17.3,14-31.4,31.4-31.4
				C62.1,13.4,76.1,27.5,76.1,44.8z"/>
			<path class="st58" d="M76,44.8C76,62,62,76,44.8,76c-17.2,0-31.2-14-31.2-31.2c0-17.2,14-31.2,31.2-31.2C62,13.6,76,27.6,76,44.8
				z"/>
			<path class="st59" d="M75.8,44.8c0,17.1-13.9,31-31,31c-17.1,0-31-13.9-31-31c0-17.1,13.9-31,31-31
				C61.9,13.8,75.8,27.7,75.8,44.8z"/>
			<path class="st60" d="M75.6,44.8c0,17-13.8,30.8-30.8,30.8c-17,0-30.8-13.8-30.8-30.8C14,27.8,27.8,14,44.8,14
				C61.8,14,75.6,27.8,75.6,44.8z"/>
			<path class="st61" d="M75.4,44.8c0,16.9-13.7,30.6-30.6,30.6c-16.9,0-30.6-13.7-30.6-30.6c0-16.9,13.7-30.6,30.6-30.6
				C61.7,14.2,75.4,27.9,75.4,44.8z"/>
			<path class="st61" d="M75.2,44.8c0,16.8-13.6,30.4-30.4,30.4c-16.8,0-30.4-13.6-30.4-30.4C14.3,28,28,14.3,44.8,14.3
				C61.6,14.3,75.2,28,75.2,44.8z"/>
			<path class="st62" d="M75,44.8C75,61.5,61.5,75,44.8,75c-16.7,0-30.3-13.5-30.3-30.3c0-16.7,13.5-30.3,30.3-30.3
				C61.5,14.5,75,28.1,75,44.8z"/>
			<path class="st62" d="M74.9,44.8c0,16.6-13.5,30.1-30.1,30.1c-16.6,0-30.1-13.5-30.1-30.1c0-16.6,13.5-30.1,30.1-30.1
				C61.4,14.7,74.9,28.2,74.9,44.8z"/>
			<path class="st63" d="M74.7,44.8c0,16.5-13.4,29.9-29.9,29.9c-16.5,0-29.9-13.4-29.9-29.9c0-16.5,13.4-29.9,29.9-29.9
				C61.3,14.9,74.7,28.3,74.7,44.8z"/>
			<path class="st64" d="M74.5,44.8c0,16.4-13.3,29.7-29.7,29.7c-16.4,0-29.7-13.3-29.7-29.7c0-16.4,13.3-29.7,29.7-29.7
				C61.2,15.1,74.5,28.4,74.5,44.8z"/>
			<path class="st64" d="M74.3,44.8c0,16.3-13.2,29.5-29.5,29.5c-16.3,0-29.5-13.2-29.5-29.5c0-16.3,13.2-29.5,29.5-29.5
				C61.1,15.3,74.3,28.5,74.3,44.8z"/>
			<path class="st65" d="M74.1,44.8C74.1,61,61,74.1,44.8,74.1c-16.2,0-29.3-13.1-29.3-29.3c0-16.2,13.1-29.3,29.3-29.3
				C61,15.5,74.1,28.6,74.1,44.8z"/>
			<path class="st65" d="M73.9,44.8c0,16.1-13.1,29.2-29.1,29.2c-16.1,0-29.2-13.1-29.2-29.2c0-16.1,13.1-29.2,29.2-29.2
				C60.9,15.6,73.9,28.7,73.9,44.8z"/>
			<path class="st66" d="M73.7,44.8c0,16-13,29-29,29c-16,0-29-13-29-29c0-16,13-29,29-29C60.8,15.8,73.7,28.8,73.7,44.8z"/>
			<path class="st67" d="M73.6,44.8c0,15.9-12.9,28.8-28.8,28.8C28.9,73.6,16,60.7,16,44.8C16,28.9,28.9,16,44.8,16
				C60.7,16,73.6,28.9,73.6,44.8z"/>
			<path class="st68" d="M73.4,44.8c0,15.8-12.8,28.6-28.6,28.6c-15.8,0-28.6-12.8-28.6-28.6C16.2,29,29,16.2,44.8,16.2
				C60.6,16.2,73.4,29,73.4,44.8z"/>
			<path class="st69" d="M73.2,44.8c0,15.7-12.7,28.4-28.4,28.4c-15.7,0-28.4-12.7-28.4-28.4c0-15.7,12.7-28.4,28.4-28.4
				C60.5,16.4,73.2,29.1,73.2,44.8z"/>
			<path class="st70" d="M73,44.8C73,60.4,60.4,73,44.8,73c-15.6,0-28.2-12.6-28.2-28.2c0-15.6,12.6-28.2,28.2-28.2
				C60.4,16.6,73,29.2,73,44.8z"/>
			<path class="st70" d="M72.8,44.8c0,15.5-12.6,28-28,28c-15.5,0-28.1-12.6-28.1-28c0-15.5,12.6-28,28.1-28
				C60.3,16.7,72.8,29.3,72.8,44.8z"/>
			<path class="st71" d="M72.6,44.8c0,15.4-12.5,27.9-27.9,27.9c-15.4,0-27.9-12.5-27.9-27.9c0-15.4,12.5-27.9,27.9-27.9
				C60.2,16.9,72.6,29.4,72.6,44.8z"/>
			<path class="st72" d="M72.5,44.8c0,15.3-12.4,27.7-27.7,27.7c-15.3,0-27.7-12.4-27.7-27.7c0-15.3,12.4-27.7,27.7-27.7
				C60.1,17.1,72.5,29.5,72.5,44.8z"/>
			<path class="st73" d="M72.3,44.8C72.3,60,60,72.3,44.8,72.3c-15.2,0-27.5-12.3-27.5-27.5c0-15.2,12.3-27.5,27.5-27.5
				C60,17.3,72.3,29.6,72.3,44.8z"/>
			<path class="st74" d="M72.1,44.8c0,15.1-12.2,27.3-27.3,27.3c-15.1,0-27.3-12.2-27.3-27.3c0-15.1,12.2-27.3,27.3-27.3
				C59.9,17.5,72.1,29.7,72.1,44.8z"/>
			<path class="st74" d="M71.9,44.8c0,15-12.1,27.1-27.1,27.1c-15,0-27.1-12.1-27.1-27.1c0-15,12.1-27.1,27.1-27.1
				C59.8,17.7,71.9,29.8,71.9,44.8z"/>
			<path class="st75" d="M71.7,44.8c0,14.9-12.1,26.9-26.9,26.9c-14.9,0-27-12.1-27-26.9c0-14.9,12.1-26.9,27-26.9
				C59.7,17.8,71.7,29.9,71.7,44.8z"/>
			<path class="st76" d="M71.5,44.8c0,14.8-12,26.8-26.8,26.8C30,71.5,18,59.6,18,44.8C18,30,30,18,44.8,18
				C59.6,18,71.5,30,71.5,44.8z"/>
			<path class="st77" d="M71.4,44.8c0,14.7-11.9,26.6-26.6,26.6c-14.7,0-26.6-11.9-26.6-26.6c0-14.7,11.9-26.6,26.6-26.6
				C59.5,18.2,71.4,30.1,71.4,44.8z"/>
			<path class="st78" d="M71.2,44.8c0,14.6-11.8,26.4-26.4,26.4c-14.6,0-26.4-11.8-26.4-26.4c0-14.6,11.8-26.4,26.4-26.4
				C59.4,18.4,71.2,30.2,71.2,44.8z"/>
			<path class="st78" d="M71,44.8C71,59.3,59.3,71,44.8,71c-14.5,0-26.2-11.7-26.2-26.2c0-14.5,11.7-26.2,26.2-26.2
				C59.3,18.6,71,30.3,71,44.8z"/>
			<path class="st79" d="M70.8,44.8c0,14.4-11.7,26-26,26c-14.4,0-26-11.7-26-26c0-14.4,11.7-26,26-26
				C59.2,18.8,70.8,30.4,70.8,44.8z"/>
			<path class="st80" d="M70.6,44.8c0,14.3-11.6,25.8-25.8,25.8c-14.3,0-25.8-11.6-25.8-25.8c0-14.3,11.6-25.8,25.8-25.8
				C59.1,18.9,70.6,30.5,70.6,44.8z"/>
			<path class="st81" d="M70.4,44.8C70.4,59,59,70.4,44.8,70.4c-14.2,0-25.7-11.5-25.7-25.7c0-14.2,11.5-25.7,25.7-25.7
				C59,19.1,70.4,30.6,70.4,44.8z"/>
			<path class="st82" d="M70.3,44.8c0,14.1-11.4,25.5-25.5,25.5c-14.1,0-25.5-11.4-25.5-25.5c0-14.1,11.4-25.5,25.5-25.5
				C58.9,19.3,70.3,30.7,70.3,44.8z"/>
			<path class="st83" d="M70.1,44.8c0,14-11.3,25.3-25.3,25.3c-14,0-25.3-11.3-25.3-25.3c0-14,11.3-25.3,25.3-25.3
				C58.7,19.5,70.1,30.8,70.1,44.8z"/>
			<path class="st84" d="M69.9,44.8c0,13.9-11.2,25.1-25.1,25.1c-13.9,0-25.1-11.2-25.1-25.1c0-13.9,11.2-25.1,25.1-25.1
				C58.6,19.7,69.9,30.9,69.9,44.8z"/>
			<path class="st85" d="M69.7,44.8c0,13.8-11.2,24.9-24.9,24.9c-13.8,0-24.9-11.2-24.9-24.9C19.9,31,31,19.9,44.8,19.9
				C58.5,19.9,69.7,31,69.7,44.8z"/>
			<path class="st86" d="M69.5,44.8c0,13.7-11.1,24.7-24.7,24.7C31.1,69.5,20,58.4,20,44.8C20,31.1,31.1,20,44.8,20
				C58.4,20,69.5,31.1,69.5,44.8z"/>
			<path class="st87" d="M69.3,44.8c0,13.6-11,24.6-24.5,24.6c-13.6,0-24.6-11-24.6-24.6c0-13.6,11-24.6,24.6-24.6
				C58.3,20.2,69.3,31.2,69.3,44.8z"/>
			<path class="st88" d="M69.2,44.8c0,13.5-10.9,24.4-24.4,24.4c-13.5,0-24.4-10.9-24.4-24.4c0-13.5,10.9-24.4,24.4-24.4
				C58.2,20.4,69.2,31.3,69.2,44.8z"/>
			<path class="st89" d="M69,44.8C69,58.1,58.1,69,44.8,69c-13.4,0-24.2-10.8-24.2-24.2c0-13.4,10.8-24.2,24.2-24.2
				C58.1,20.6,69,31.4,69,44.8z"/>
			<path class="st90" d="M68.8,44.8c0,13.3-10.7,24-24,24c-13.3,0-24-10.7-24-24c0-13.3,10.7-24,24-24C58,20.8,68.8,31.5,68.8,44.8z
				"/>
			<path class="st90" d="M68.6,44.8c0,13.2-10.7,23.8-23.8,23.8C31.6,68.6,21,57.9,21,44.8C21,31.6,31.6,21,44.8,21
				C57.9,21,68.6,31.6,68.6,44.8z"/>
			<path class="st91" d="M68.4,44.8c0,13.1-10.6,23.6-23.6,23.6c-13.1,0-23.6-10.6-23.6-23.6c0-13.1,10.6-23.6,23.6-23.6
				C57.8,21.2,68.4,31.7,68.4,44.8z"/>
			<path class="st92" d="M68.2,44.8c0,13-10.5,23.4-23.4,23.4c-13,0-23.5-10.5-23.5-23.4c0-13,10.5-23.4,23.5-23.4
				C57.7,21.3,68.2,31.8,68.2,44.8z"/>
			<path class="st92" d="M68,44.8c0,12.8-10.4,23.3-23.3,23.3c-12.9,0-23.3-10.4-23.3-23.3c0-12.9,10.4-23.3,23.3-23.3
				C57.6,21.5,68,31.9,68,44.8z"/>
			<path class="st93" d="M67.9,44.8c0,12.7-10.3,23.1-23.1,23.1c-12.8,0-23.1-10.3-23.1-23.1C21.7,32,32,21.7,44.8,21.7
				C57.5,21.7,67.9,32,67.9,44.8z"/>
			<path class="st93" d="M67.7,44.8c0,12.6-10.3,22.9-22.9,22.9c-12.7,0-22.9-10.3-22.9-22.9c0-12.6,10.3-22.9,22.9-22.9
				C57.4,21.9,67.7,32.1,67.7,44.8z"/>
			<path class="st94" d="M67.5,44.8c0,12.5-10.2,22.7-22.7,22.7c-12.6,0-22.7-10.2-22.7-22.7c0-12.5,10.2-22.7,22.7-22.7
				C57.3,22.1,67.5,32.2,67.5,44.8z"/>
			<path class="st95" d="M67.3,44.8c0,12.4-10.1,22.5-22.5,22.5c-12.4,0-22.5-10.1-22.5-22.5c0-12.4,10.1-22.5,22.5-22.5
				C57.2,22.3,67.3,32.3,67.3,44.8z"/>
			<path class="st95" d="M67.1,44.8c0,12.3-10,22.3-22.3,22.3c-12.3,0-22.4-10-22.4-22.3c0-12.3,10-22.3,22.4-22.3
				C57.1,22.4,67.1,32.4,67.1,44.8z"/>
			<path class="st96" d="M66.9,44.8c0,12.2-9.9,22.2-22.2,22.2c-12.2,0-22.2-9.9-22.2-22.2c0-12.2,9.9-22.2,22.2-22.2
				C57,22.6,66.9,32.5,66.9,44.8z"/>
			<path class="st97" d="M66.8,44.8c0,12.1-9.8,22-22,22c-12.1,0-22-9.8-22-22c0-12.1,9.8-22,22-22C56.9,22.8,66.8,32.6,66.8,44.8z"
				/>
			<path class="st98" d="M66.6,44.8c0,12-9.8,21.8-21.8,21.8c-12,0-21.8-9.8-21.8-21.8c0-12,9.8-21.8,21.8-21.8
				C56.8,23,66.6,32.7,66.6,44.8z"/>
			<path class="st99" d="M66.4,44.8c0,11.9-9.7,21.6-21.6,21.6c-11.9,0-21.6-9.7-21.6-21.6c0-11.9,9.7-21.6,21.6-21.6
				C56.7,23.2,66.4,32.8,66.4,44.8z"/>
			<path class="st99" d="M66.2,44.8c0,11.8-9.6,21.4-21.4,21.4c-11.8,0-21.4-9.6-21.4-21.4c0-11.8,9.6-21.4,21.4-21.4
				C56.6,23.4,66.2,33,66.2,44.8z"/>
			<path class="st100" d="M66,44.8C66,56.5,56.5,66,44.8,66c-11.7,0-21.3-9.5-21.3-21.2c0-11.7,9.5-21.2,21.3-21.2
				C56.5,23.5,66,33.1,66,44.8z"/>
			<path class="st101" d="M65.8,44.8c0,11.6-9.4,21.1-21.1,21.1c-11.6,0-21.1-9.4-21.1-21.1c0-11.6,9.4-21.1,21.1-21.1
				C56.4,23.7,65.8,33.2,65.8,44.8z"/>
			<path class="st102" d="M65.7,44.8c0,11.5-9.3,20.9-20.9,20.9c-11.5,0-20.9-9.3-20.9-20.9c0-11.5,9.3-20.9,20.9-20.9
				C56.3,23.9,65.7,33.3,65.7,44.8z"/>
			<path class="st103" d="M65.5,44.8c0,11.4-9.3,20.7-20.7,20.7c-11.4,0-20.7-9.3-20.7-20.7c0-11.4,9.3-20.7,20.7-20.7
				C56.2,24.1,65.5,33.4,65.5,44.8z"/>
			<path class="st104" d="M65.3,44.8c0,11.3-9.2,20.5-20.5,20.5c-11.3,0-20.5-9.2-20.5-20.5c0-11.3,9.2-20.5,20.5-20.5
				C56.1,24.3,65.3,33.5,65.3,44.8z"/>
			<path class="st104" d="M65.1,44.8c0,11.2-9.1,20.3-20.3,20.3c-11.2,0-20.3-9.1-20.3-20.3c0-11.2,9.1-20.3,20.3-20.3
				C56,24.5,65.1,33.6,65.1,44.8z"/>
			<path class="st105" d="M64.9,44.8c0,11.1-9,20.1-20.1,20.1c-11.1,0-20.1-9-20.1-20.1c0-11.1,9-20.1,20.1-20.1
				C55.9,24.6,64.9,33.7,64.9,44.8z"/>
			<path class="st106" d="M64.7,44.8c0,11-8.9,20-19.9,20c-11,0-20-8.9-20-20c0-11,8.9-20,20-20C55.8,24.8,64.7,33.8,64.7,44.8z"/>
			<path class="st106" d="M64.6,44.8c0,10.9-8.9,19.8-19.8,19.8C33.9,64.6,25,55.7,25,44.8C25,33.9,33.9,25,44.8,25
				C55.7,25,64.6,33.9,64.6,44.8z"/>
			<path class="st107" d="M64.4,44.8c0,10.8-8.8,19.6-19.6,19.6c-10.8,0-19.6-8.8-19.6-19.6c0-10.8,8.8-19.6,19.6-19.6
				C55.6,25.2,64.4,34,64.4,44.8z"/>
			<path class="st108" d="M64.2,44.8c0,10.7-8.7,19.4-19.4,19.4c-10.7,0-19.4-8.7-19.4-19.4c0-10.7,8.7-19.4,19.4-19.4
				C55.5,25.4,64.2,34.1,64.2,44.8z"/>
			<path class="st109" d="M64,44.8C64,55.4,55.4,64,44.8,64c-10.6,0-19.2-8.6-19.2-19.2c0-10.6,8.6-19.2,19.2-19.2
				C55.4,25.6,64,34.2,64,44.8z"/>
			<path class="st110" d="M63.8,44.8c0,10.5-8.5,19-19,19c-10.5,0-19-8.5-19-19c0-10.5,8.5-19,19-19C55.3,25.8,63.8,34.3,63.8,44.8z
				"/>
			<path class="st110" d="M63.6,44.8c0,10.4-8.4,18.9-18.8,18.9c-10.4,0-18.9-8.4-18.9-18.9c0-10.4,8.4-18.9,18.9-18.9
				C55.2,25.9,63.6,34.4,63.6,44.8z"/>
			<path class="st111" d="M63.5,44.8c0,10.3-8.4,18.7-18.7,18.7c-10.3,0-18.7-8.4-18.7-18.7c0-10.3,8.4-18.7,18.7-18.7
				C55.1,26.1,63.5,34.5,63.5,44.8z"/>
			<path class="st112" d="M63.3,44.8c0,10.2-8.3,18.5-18.5,18.5c-10.2,0-18.5-8.3-18.5-18.5c0-10.2,8.3-18.5,18.5-18.5
				C55,26.3,63.3,34.6,63.3,44.8z"/>
		</g>
		<circle class="st113" cx="44.8" cy="44.8" r="23.1"/>
		<ellipse class="st114" cx="29.4" cy="22.8" rx="10.2" ry="10.2"/>
	</g>
	<g>
		<path class="st0" d="M147.1,63.5c-3.1,1-8.8,2.5-14.7,2.5c-8,0-13.7-2-17.7-5.7c-3.6-3.4-5.7-8.3-5.7-13.7
			c0-12.5,9.9-20.4,24.2-20.4c5.7,0,10.1,1.1,12.3,2.1l-2,7.2c-2.5-1.1-5.5-1.9-10.6-1.9c-8.1,0-14.2,4.3-14.2,12.2
			c0,7.6,5.5,12.8,14,12.8c2.4,0,4.4-0.3,5.2-0.7v-7.8h-6.9V43h15.9V63.5z"/>
		<path class="st0" d="M154.6,24.1h7.4v41.4h-7.4V24.1z"/>
		<path class="st0" d="M183.8,60.9c-4.6,0-7.9-3.8-7.9-9.4c0-4.9,2.5-9.5,8.1-9.5c5.5,0,7.9,4.8,7.9,9.4
			C191.9,57.5,188.3,60.9,183.8,60.9L183.8,60.9z M183.8,66.2c8.1,0,15.8-5.1,15.8-15.1c0-8.3-6.1-14.4-15.3-14.4
			c-9.6,0-16,6.1-16,15C168.3,60.6,175.1,66.2,183.8,66.2L183.8,66.2z"/>
		<path class="st0" d="M213.4,49.9c0-0.7,0.1-1.3,0.2-1.9c0.9-3.6,4-5.7,7.3-5.7c5.3,0,8,4.1,8,9c0,5.7-3.2,9.1-8.2,9.1
			c-3.7,0-6.5-2.6-7.3-5.4c-0.1-0.5-0.2-1.1-0.2-1.6V49.9z M205.9,57.5c0,3.1-0.1,6.2-0.2,8h6.3l0.3-4.5h0.1c2.3,3.8,6,5.2,10,5.2
			c6.9,0,14.1-5,14.1-15.2c0.1-8.7-5.5-14.4-13-14.4c-4.7,0-8.2,2-10,4.8h-0.1V24.1h-7.4V57.5z"/>
		<path class="st0" d="M259,55.3c0,0.5,0,1.1-0.2,1.6c-0.7,2-3,4.1-6.3,4.1c-2.5,0-4.4-1.3-4.4-4c0-4.1,5-5.3,10.9-5.2V55.3z
			 M266.2,48.9c0-6.2-2.8-12.2-12.4-12.2c-4.8,0-8.6,1.2-11,2.7l1.5,4.8c2.1-1.3,5.3-2.3,8.3-2.3c5.6,0,6.2,3.4,6.2,4.9v0.4
			c-11.7-0.1-18.1,3.7-18.1,10.8c0,4.1,3.2,8.4,9.5,8.4c4,0,7.3-1.7,9.1-3.9h0.2l0.5,3.2h6.7c-0.3-1.7-0.5-4.2-0.5-6.9V48.9z"/>
		<path class="st0" d="M274.3,24.1h7.4v41.4h-7.4V24.1z"/>
		<path class="st0" d="M290.6,56c2.6,1.4,6.6,2.8,10.9,2.8c4.2,0,6.5-1.6,6.5-4.2c0-2.3-1.9-3.7-7-5.2c-6.9-2-11.9-5.3-11.9-11.8
			c0-6.8,6.1-11.8,15.6-11.8c5.1,0,8.5,0.9,11.2,2.1l-2.2,7.3c-1.7-0.8-4.9-2-9.2-2c-4,0-6,1.7-6,3.7c0,2.5,2.5,3.6,7.8,5.3
			c7.5,2.4,11.1,5.9,11.1,11.8c0,6.3-4.9,12.2-16.7,12.2c-4.8,0-9.7-1.3-12.2-2.7L290.6,56z"/>
		<path class="st0" d="M324.1,65.5V37.4h7.4v28.1H324.1z M327.8,33c-2.6,0-4.3-1.9-4.3-4.1c0-2.2,1.7-4.1,4.4-4.1
			c2.7,0,4.3,1.8,4.4,4.1C332.2,31.1,330.6,33,327.8,33L327.8,33z"/>
		<path class="st0" d="M360.1,52.6c0,0.8-0.1,1.8-0.3,2.5c-0.8,2.7-3.4,4.8-6.6,4.8c-5.1,0-7.8-4.2-7.8-8.5c0-5.9,3.5-9.2,7.8-9.2
			c3.4,0,5.8,2.1,6.7,5c0.2,0.6,0.2,1.2,0.2,1.9V52.6z M367.5,45.2c0-3.9,0.1-6.1,0.2-7.8h-6.5l-0.2,4h-0.1
			c-1.5-2.5-4.3-4.7-9.2-4.7c-7.4,0-13.9,5.8-13.9,14.9c0,8.1,5.7,13.7,13.1,13.7c4.2,0,7.4-1.9,9.2-4.5h0.1v2.5c0,6.3-4,8.8-9,8.8
			c-3.8,0-7.2-1.3-9.2-2.5l-1.6,5.6c2.6,1.7,6.9,2.5,10.8,2.5c3.9,0,8.4-0.7,11.7-3.5c3.3-2.8,4.5-7.4,4.5-13V45.2z"/>
		<path class="st0" d="M375.9,45.9c0-3.3-0.1-6.1-0.2-8.5h6.5l0.4,4.5h0.2c1.2-2.2,4.5-5.2,9.7-5.2c5,0,10.9,3,10.9,12.7v16.1h-7.4
			V50.3c0-4.4-1.8-7.6-6.1-7.6c-3.3,0-5.4,2.3-6.2,4.4c-0.2,0.6-0.3,1.4-0.3,2.2v16.3h-7.4V45.9z"/>
	</g>
	<g>
		<path d="M411.1,59.7c0,3.2,2.6,5.7,5.7,5.7c3.2,0,5.7-2.6,5.7-5.7c0-3.2-2.6-5.7-5.7-5.7C413.7,54,411.1,56.6,411.1,59.7z
			 M411.8,59.7c0-2.8,2.3-5.1,5.1-5.1c2.8,0,5.1,2.3,5.1,5.1s-2.3,5.1-5.1,5.1C414.1,64.8,411.8,62.5,411.8,59.7z"/>
		<path class="st113" d="M415.2,57.1h2.1c0.5,0,0.9,0.1,1.1,0.3c0.2,0.2,0.3,0.5,0.3,0.8c0,0.2-0.1,0.4-0.2,0.6
			c-0.1,0.2-0.3,0.3-0.5,0.4c-0.2,0.1-0.5,0.1-0.9,0.1h-1.9V57.1z M415.2,63v-2.9h1c0.2,0,0.4,0,0.5,0c0.1,0,0.3,0.1,0.4,0.2
			c0.1,0.1,0.3,0.2,0.4,0.5c0.2,0.2,0.4,0.5,0.6,0.9l0.9,1.4h1.1l-1.1-1.8c-0.2-0.4-0.5-0.6-0.7-0.9c-0.1-0.1-0.3-0.2-0.5-0.3
			c0.6-0.1,1.1-0.3,1.4-0.6c0.3-0.3,0.5-0.7,0.5-1.2c0-0.4-0.1-0.7-0.3-1c-0.2-0.3-0.4-0.5-0.7-0.6c-0.3-0.1-0.7-0.2-1.3-0.2h-2.9
			V63H415.2z"/>
	</g>
	<g>
		<g>
			<path class="st115" d="M210,83.6c0,0,0-0.1,0-0.1c0,0-0.1,0-0.1,0c-0.9,0.2-1.4,0.2-2.3,0c0,0-0.1,0-0.1,0c0,0,0,0.1,0,0.1
				c0.1,2.1,0.2,4.2,0.2,6.3V94c0,2.1-0.1,4.2-0.2,6.3c0,0,0,0.1,0,0.1c0,0,0.1,0,0.1,0c0,0,0,0,0,0c0.9-0.2,1.4-0.2,2.3,0
				c0,0,0.1,0,0.1,0c0,0,0-0.1,0-0.1c-0.1-2.1-0.2-4.2-0.2-6.3v-4.2C209.8,87.7,209.9,85.6,210,83.6z"/>
			<path class="st115" d="M227.3,83.4c0,0-0.1,0-0.1,0c-0.3,0.1-0.5,0.1-0.7,0.1c-0.2,0-0.5,0-0.8-0.1c0,0-0.1,0-0.1,0
				c0,0-0.1,0.1,0,0.1c0.2,3.7,0.2,8.3,0.2,12.5c-2.7-2.8-7.3-7.8-11-11.8l-1.1-1.1c0,0-0.1,0-0.1,0h-0.4c0,0-0.1,0-0.1,0
				c0,0,0,0.1,0,0.1c0.1,1.1,0.1,3.5,0.1,6.5c0,3.3-0.3,9.5-0.5,10.6c0,0,0,0.1,0,0.1c0,0,0.1,0,0.1,0c0.4-0.1,0.6-0.1,0.9-0.1
				c0.3,0,0.5,0,0.8,0.1c0,0,0.1,0,0.1,0c0,0,0.1-0.1,0-0.1c-0.1-1-0.2-6-0.2-8.2c0-2.3,0-3.7,0.1-4.6l0.8,0.9
				c3.9,4.1,7.9,8.4,11.3,12.4c0,0,0.1,0,0.1,0h0.3c0,0,0.1,0,0.1,0c0,0,0-0.1,0-0.1c0-1.1-0.1-6.5-0.1-9c0-1.9,0.2-6.7,0.4-8.1
				C227.3,83.5,227.3,83.5,227.3,83.4z"/>
			<path class="st115" d="M242.9,83.5c0,0-0.1-0.1-0.1-0.1c-2.4,0.1-4.4,0.1-6.3,0.1c-1.9,0-3.9,0-6.3-0.1c0,0-0.1,0-0.1,0.1
				c0,0,0,0.1,0,0.1c0.1,0.3,0.1,0.5,0.1,0.7c0,0.2,0,0.5-0.1,0.7c0,0,0,0.1,0,0.1c0,0,0.1,0,0.1,0c1.2-0.2,3.3-0.3,5.1-0.3
				c0,1.6,0.1,3.3,0.1,4.9V94c0,2.1-0.1,4.2-0.2,6.3c0,0,0,0.1,0,0.1c0,0,0.1,0,0.1,0c0,0,0,0,0,0c0.9-0.2,1.4-0.2,2.3,0
				c0,0,0.1,0,0.1,0c0,0,0-0.1,0-0.1c-0.1-2.1-0.2-4.2-0.2-6.3v-4.2c0-1.6,0-3.3,0.1-4.9c1.8,0,3.8,0.1,5.1,0.3c0,0,0.1,0,0.1,0
				c0,0,0-0.1,0-0.1c-0.1-0.2-0.1-0.5-0.1-0.7c0-0.2,0-0.4,0.1-0.7C243,83.5,243,83.5,242.9,83.5z"/>
			<path class="st115" d="M255,98.8c0,0-0.1,0-0.1,0c-1.4,0.3-4,0.3-6.4,0.3c0-0.5,0-1.5,0-3.5c0-2.2,0-2.8,0-3.4
				c1.1,0,4.1,0,5.8,0.2c0,0,0.1,0,0.1,0c0,0,0-0.1,0-0.1c0-0.2-0.1-0.5-0.1-0.7c0-0.2,0-0.5,0.1-0.7c0,0,0-0.1,0-0.1
				c0,0-0.1,0-0.1,0c-1.5,0.1-3.1,0.2-5.8,0.2c0-0.2,0-0.6,0-0.9c0-0.6,0-1.4,0-2.2c0-0.7,0-1.3,0.1-1.9c0-0.3,0-0.7,0-1
				c2.4,0,3.6,0.1,5,0.2c0.4,0,0.8,0.1,1.3,0.1c0,0,0.1,0,0.1,0c0,0,0-0.1,0-0.1c0-0.2-0.1-0.5-0.1-0.7c0-0.2,0-0.5,0.1-0.7
				c0,0,0-0.1,0-0.1c0,0-0.1,0-0.1,0c-1.6,0.1-3,0.1-4.3,0.1c-1.3,0-2.7,0-4.4-0.1c0,0-0.1,0-0.1,0c0,0,0,0.1,0,0.1
				c0.1,1.9,0.2,4.1,0.2,6.3V94c0,2.1-0.1,4.2-0.2,6.3c0,0,0,0.1,0,0.1c0,0,0.1,0,0.1,0c1.7-0.1,3.1-0.1,4.4-0.1
				c1.3,0,2.8,0,4.4,0.1c0,0,0,0,0,0c0,0,0.1,0,0.1,0c0,0,0-0.1,0-0.1c0-0.2-0.1-0.4-0.1-0.7c0-0.2,0-0.5,0.1-0.7
				C255.1,98.9,255,98.8,255,98.8z"/>
			<path class="st115" d="M265.4,93.8c-0.5-0.7-1-1.3-1.3-1.7c1.9-0.3,4.9-1.6,4.9-4.8c0-2.6-1.8-4-5.2-4c-0.5,0-0.9,0-1.4,0.1
				c-0.5,0-0.9,0.1-1.4,0.1c-0.8,0-1.7,0-2.8-0.1c0,0-0.1,0-0.1,0c0,0,0,0.1,0,0.1c0.1,2.1,0.2,4.2,0.2,6.3V94
				c0,2.1-0.1,4.2-0.2,6.3c0,0,0,0.1,0,0.1c0,0,0.1,0,0.1,0c0.9-0.2,1.4-0.2,2.3,0c0,0,0.1,0,0.1,0c0,0,0-0.1,0-0.1
				c-0.1-2.1-0.2-4.2-0.2-6.3v-1.6h0.7c2.1,2.1,5.3,6.6,6.3,8c0,0,0.1,0.1,0.1,0.1c0,0,0,0,0,0c0.5-0.1,1-0.1,1.4-0.1
				c0.4,0,0.9,0,1.4,0.1c0.1,0,0.1,0,0.1-0.1c0,0,0-0.1,0-0.2C269.5,99.1,267.1,96.1,265.4,93.8z M260.5,89.9c0-1.7,0.1-3.4,0.1-5.2
				c0.5,0,1.2-0.1,2.2-0.1c1.1,0,3.6,0.3,3.6,3.1c0,2.7-2.3,3.6-4.5,3.6c-0.5,0-1,0-1.5-0.1V89.9z"/>
			<path class="st115" d="M288.3,83.4c0,0-0.1,0-0.1,0c-0.3,0.1-0.5,0.1-0.7,0.1c-0.2,0-0.5,0-0.8-0.1c0,0-0.1,0-0.1,0
				c0,0-0.1,0.1,0,0.1c0.2,3.7,0.2,8.3,0.2,12.5c-2.7-2.8-7.3-7.8-11-11.8l-1.1-1.1c0,0-0.1,0-0.1,0h-0.4c0,0-0.1,0-0.1,0
				c0,0,0,0.1,0,0.1c0.1,1.1,0.1,3.5,0.1,6.5c0,3.3-0.3,9.5-0.5,10.6c0,0,0,0.1,0,0.1c0,0,0.1,0,0.1,0c0.4-0.1,0.6-0.1,0.9-0.1
				c0.3,0,0.5,0,0.8,0.1c0,0,0.1,0,0.1,0c0,0,0.1-0.1,0-0.1c-0.1-1-0.2-6-0.2-8.2c0-2.3,0-3.7,0.1-4.6l0.8,0.9
				c3.9,4.1,7.9,8.4,11.3,12.4c0,0,0.1,0,0.1,0h0.3c0,0,0.1,0,0.1,0c0,0,0-0.1,0-0.1c0-1.1-0.1-6.5-0.1-9c0-1.9,0.2-6.7,0.4-8.1
				C288.3,83.5,288.3,83.5,288.3,83.4z"/>
			<path class="st115" d="M300.2,98.8c0,0-0.1,0-0.1,0c-1.4,0.3-4,0.3-6.4,0.3c0-0.5,0-1.5,0-3.5c0-2.2,0-2.8,0-3.4
				c1.1,0,4.1,0,5.8,0.2c0,0,0.1,0,0.1,0c0,0,0-0.1,0-0.1c0-0.2-0.1-0.5-0.1-0.7c0-0.2,0-0.5,0.1-0.7c0,0,0-0.1,0-0.1
				c0,0-0.1,0-0.1,0c-1.5,0.1-3,0.2-5.8,0.2c0-0.2,0-0.6,0-0.9c0-0.6,0-1.4,0-2.2c0-0.7,0-1.3,0.1-1.9c0-0.3,0-0.7,0-1
				c2.4,0,3.6,0.1,5,0.2c0.4,0,0.8,0.1,1.3,0.1c0,0,0.1,0,0.1,0c0,0,0-0.1,0-0.1c0-0.2-0.1-0.5-0.1-0.7c0-0.2,0-0.5,0.1-0.7
				c0,0,0-0.1,0-0.1c0,0-0.1,0-0.1,0c-1.6,0.1-3,0.1-4.3,0.1c-1.3,0-2.7,0-4.4-0.1c0,0-0.1,0-0.1,0c0,0,0,0.1,0,0.1
				c0.1,1.9,0.2,4.1,0.2,6.3V94c0,2.1-0.1,4.2-0.2,6.3c0,0,0,0.1,0,0.1c0,0,0.1,0,0.1,0c1.7-0.1,3.1-0.1,4.4-0.1
				c1.3,0,2.8,0,4.4,0.1h0c0,0,0.1,0,0.1,0c0,0,0-0.1,0-0.1c0-0.2-0.1-0.4-0.1-0.7c0-0.2,0-0.5,0.1-0.7
				C300.2,98.9,300.2,98.8,300.2,98.8z"/>
			<path class="st115" d="M316.2,83.5c0,0-0.1-0.1-0.1-0.1c-2.4,0.1-4.4,0.1-6.3,0.1c-1.9,0-3.9,0-6.3-0.1c0,0-0.1,0-0.1,0.1
				c0,0,0,0.1,0,0.1c0.1,0.3,0.1,0.5,0.1,0.7c0,0.2,0,0.5-0.1,0.7c0,0,0,0.1,0,0.1c0,0,0.1,0,0.1,0c1.2-0.2,3.3-0.3,5.1-0.3
				c0,1.6,0.1,3.3,0.1,4.9V94c0,2.1-0.1,4.2-0.2,6.3c0,0,0,0.1,0,0.1c0,0,0.1,0,0.1,0c0,0,0,0,0,0c0.9-0.2,1.4-0.2,2.3,0
				c0,0,0.1,0,0.1,0c0,0,0-0.1,0-0.1c-0.1-2.1-0.2-4.2-0.2-6.3v-4.2c0-1.6,0-3.3,0.1-4.9c1.8,0,3.8,0.1,5.1,0.3c0,0,0.1,0,0.1,0
				c0,0,0-0.1,0-0.1c-0.1-0.2-0.1-0.5-0.1-0.7c0-0.2,0-0.4,0.1-0.7C316.3,83.5,316.2,83.5,316.2,83.5z"/>
			<path class="st115" d="M336.7,84.5c-1.3-0.7-3.1-1.4-6.3-1.4c-6,0-9.7,3.4-9.7,8.9c0,5.6,3.5,8.9,9.5,8.9c1.9,0,4.8-0.7,6.3-1.2
				c0.1,0,0.1-0.1,0.1-0.1c0-0.3,0-0.7,0-1c0-0.3,0-0.7,0-1c0-3.1,0.1-4.5,0.1-4.9c0,0,0-0.1,0-0.1c0,0-0.1,0-0.1,0
				c-0.3,0.1-0.6,0.1-1,0.1c-0.4,0-0.8,0-1.1-0.1c0,0-0.1,0-0.1,0c0,0-0.1,0.1,0,0.1l0,0.6c0,0.8,0.1,1.8,0.1,2.7c0,1,0,1.9,0,2.9
				c-0.9,0.5-2.5,0.7-3.8,0.7c-4.5,0-7.1-2.8-7.1-7.6c0-4.9,2.6-7.7,7-7.7c2.4,0,4.3,1.2,5.3,2.3c0,0,0.1,0,0.1,0h0.3
				c0.1,0,0.1,0,0.1-0.1c0.1-0.6,0.3-1.4,0.5-1.8C336.7,84.7,336.7,84.6,336.7,84.5C336.7,84.6,336.7,84.5,336.7,84.5z"/>
			<path class="st115" d="M347.4,93.8c-0.5-0.7-1-1.3-1.3-1.7c1.9-0.3,4.9-1.6,4.9-4.8c0-2.6-1.8-4-5.2-4c-0.5,0-0.9,0-1.4,0.1
				c-0.5,0-0.9,0.1-1.4,0.1c-0.8,0-1.7,0-2.8-0.1c0,0-0.1,0-0.1,0c0,0,0,0.1,0,0.1c0.1,2.1,0.2,4.2,0.2,6.3V94
				c0,2.1-0.1,4.2-0.2,6.3c0,0,0,0.1,0,0.1c0,0,0.1,0,0.1,0c0.9-0.2,1.4-0.2,2.3,0c0,0,0.1,0,0.1,0c0,0,0-0.1,0-0.1
				c-0.1-2.1-0.2-4.2-0.2-6.3v-1.6h0.7c2.1,2.1,5.3,6.6,6.2,8c0,0,0.1,0.1,0.1,0.1c0.5-0.1,1-0.1,1.4-0.1c0.4,0,0.9,0,1.4,0.1
				c0,0,0,0,0,0c0,0,0.1,0,0.1-0.1c0,0,0-0.1,0-0.2C351.5,99.1,349.1,96.1,347.4,93.8z M342.5,89.9c0-1.7,0.1-3.4,0.1-5.2
				c0.5,0,1.2-0.1,2.2-0.1c1.1,0,3.6,0.3,3.6,3.1c0,2.7-2.3,3.6-4.5,3.6c-0.5,0-1,0-1.5-0.1V89.9z"/>
			<path class="st115" d="M362.4,83.1c-5.6,0-9.2,3.5-9.2,8.9c0,5.4,3.6,8.9,9.2,8.9c5.6,0,9.3-3.5,9.3-8.9
				C371.6,86.6,368,83.1,362.4,83.1z M362.4,99.6c-4.2,0-6.6-2.8-6.6-7.7c0-4.9,2.4-7.7,6.6-7.7c4.2,0,6.6,2.8,6.6,7.7
				C369,96.8,366.6,99.6,362.4,99.6z"/>
			<path class="st115" d="M388.8,83.4c-0.2,0.1-0.5,0.1-0.7,0.1c-0.3,0-0.6,0-1-0.1c0,0-0.1,0-0.1,0c0,0,0,0.1,0,0.1
				c0.1,0.9,0.1,3.3,0.1,7.9c0,3.2,0,7.9-5.2,7.9c-5.3,0-5.3-4.2-5.3-7.5c0-3.6,0.1-6.9,0.3-8.3c0,0,0-0.1,0-0.1c0,0-0.1,0-0.1,0
				c-0.3,0.1-0.7,0.1-1,0.1c-0.4,0-0.8,0-1.2-0.1c0,0-0.1,0-0.1,0c0,0,0,0.1,0,0.1l0,0.7c0.1,1.4,0.1,3.4,0.1,5.6
				c0,0.6,0,1.1-0.1,1.7c0,0.7-0.1,1.3-0.1,2.1c0,4.8,2.3,7.1,7.1,7.1c4.4,0,7-2.7,7.1-7.1c0-3.4,0.2-7.7,0.4-10.1
				c0,0,0-0.1-0.1-0.1C388.9,83.4,388.8,83.4,388.8,83.4z"/>
			<path class="st115" d="M397.7,83.4c-0.3,0-0.9,0-1.4,0.1c-0.6,0-1.2,0.1-1.6,0.1c-0.7,0-1.5,0-2.3-0.1c0,0-0.1,0-0.1,0
				c0,0,0,0.1,0,0.1c0.1,2.1,0.2,4.2,0.2,6.3V94c0,2.1-0.1,4.2-0.2,6.3c0,0,0,0.1,0,0.1c0,0,0.1,0,0.1,0c0,0,0,0,0,0
				c0.9-0.2,1.4-0.2,2.3,0c0,0,0.1,0,0.1,0c0,0,0-0.1,0-0.1c-0.1-2.1-0.2-4.2-0.2-6.3v-1.2c0.6,0,1.2,0.1,1.8,0.1
				c3.2,0,6.7-1.4,6.7-5.2C403.2,83.4,399.1,83.4,397.7,83.4z M400.7,87.8c0,3.4-2.8,3.9-4.4,3.9c-0.5,0-1.1-0.1-1.6-0.2v-7h2.1
				C399.2,84.6,400.7,85.1,400.7,87.8z"/>
		</g>
		<g>
			<path class="st116" d="M158.3,99.6h1.2c0.1,0,0.1,0,0.2-0.1l5-8.2l2.7,9.3c0,0.1,0.1,0.1,0.1,0.1h5.2c0.1,0,0.1,0,0.1-0.1
				l-5.5-17.5c0-0.1-0.1-0.1-0.1-0.1h-2c-0.1,0-0.1,0-0.2,0.1l-6.7,10.4l-6.7-10.4c0-0.1-0.1-0.1-0.2-0.1h-2c-0.1,0-0.1,0-0.1,0.1
				l-5.5,17.5c0,0.1,0,0.1,0.1,0.1h5.2c0.1,0,0.1,0,0.1-0.1l2.7-9.3l5,8.2c0,0,0.1,0.1,0.2,0.1H158.3z"/>
			<g>
				<path class="st116" d="M144,90.9L144,90.9c0,0-0.1-0.1-0.1-0.1h-0.7H138h-9c-0.8,0-1.4,0.6-1.4,1.4c0,0.8,0.6,1.4,1.4,1.4l0,0
					h8.8c-1.1,2.8-4.6,4.8-8.8,4.8c-5.1,0-9.2-2.9-9.2-6.5c0-3.6,4.1-6.5,9.2-6.5c2.8,0,5.2,0.9,6.9,2.3c0,0,0,0,0,0c0,0,0,0,0.1,0
					h6.1c0.1,0,0.1-0.1,0.1-0.1c0,0,0-0.1,0-0.1c0,0,0,0,0,0c-2.6-2.8-7.5-4.6-13.2-4.6c-8.3,0-15.1,4.1-15.1,9.1
					c0,5,6.8,9.1,15.1,9.1c8.3,0,15.1-4.1,15.1-9.1C144.1,91.6,144.1,91.2,144,90.9z"/>
			</g>
			<path class="st116" d="M187.6,82.9c-8.3,0-15.1,4.1-15.1,9.1c0,5,6.8,9.1,15.1,9.1c8.3,0,15.1-4.1,15.1-9.1
				C202.7,86.9,195.9,82.9,187.6,82.9z M187.6,98.5c-5.1,0-9.2-2.9-9.2-6.5c0-3.6,4.1-6.5,9.2-6.5c5.1,0,9.2,2.9,9.2,6.5
				C196.7,95.6,192.6,98.5,187.6,98.5z"/>
		</g>
	</g>
</g>
</svg>
