<?xml version="1.0" encoding="iso-8859-1"?>
<!-- Generator: Adobe Illustrator 18.1.1, SVG Export Plug-In . SVG Version: 6.00 Build 0)  -->
<svg version="1.1" xmlns="http://www.w3.org/2000/svg" xmlns:xlink="http://www.w3.org/1999/xlink" x="0px" y="0px"
	 viewBox="0 0 288 288" style="enable-background:new 0 0 288 288;" xml:space="preserve">
<g id="Left_Breast_Front" style="display:none;">
	<g style="display:inline;">
		<g>
			<g>
				<path style="fill:#EFEFEF;" d="M260.018,146.793H27.982c-2.338,0-4.148,2.098-3.863,4.476l7.531,62.774
					c0.24,2,1.897,3.502,3.863,3.502h217.592c1.98,0,3.645-1.524,3.867-3.541l6.914-62.774
					C264.146,148.864,262.341,146.793,260.018,146.793z"/>
				<path style="fill:#EFEFEF;" d="M73.89,137.309h140.582l8.71-40.634c0.13-0.547-0.079-1.119-0.53-1.455l-76.936-57.175
					c-0.115-0.085-0.24-0.158-0.375-0.203c-0.372-0.125-0.764-0.19-1.159-0.19c-0.395,0-0.787,0.065-1.159,0.19
					c-0.135,0.045-0.26,0.118-0.375,0.203L65.71,95.22c-0.452,0.336-0.66,0.908-0.531,1.455L73.89,137.309z"/>
			</g>
			<path style="fill:#F15825;" d="M64.921,137.309L54.577,93.607c-0.147-0.621,0.09-1.27,0.602-1.65l87.262-64.848
				c0.13-0.097,0.272-0.179,0.425-0.23c0.422-0.142,0.867-0.215,1.315-0.215c0.448,0,0.893,0.073,1.315,0.215
				c0.153,0.052,0.295,0.133,0.425,0.23c4.308,3.202,78.509,58.344,87.264,64.851c0.512,0.381,0.746,1.028,0.599,1.649
				l-10.344,43.702h16.425l11.896-50.257c0.147-0.621-0.09-1.27-0.602-1.65l-96.835-71.963c-0.059-0.044-0.12-0.084-0.184-0.121
				c-3.086-1.759-6.522-2.639-9.958-2.639s-6.872,0.88-9.958,2.639c-0.064,0.036-0.125,0.077-0.184,0.121L37.203,85.402
				c-0.512,0.381-0.749,1.029-0.602,1.65l11.896,50.257H64.921z"/>
			<path style="fill:#F15825;" d="M202.304,226.602l-2.16,9.124c-0.117,0.496-0.464,0.906-0.934,1.104l-54.409,22.947
				c-0.397,0.167-0.845,0.167-1.242,0L89.15,236.83c-0.47-0.198-0.816-0.608-0.934-1.104l-2.16-9.124H69.632l4.899,20.699
				c0.117,0.496,0.464,0.906,0.934,1.104l68.094,28.719c0.397,0.167,0.845,0.167,1.242,0l68.094-28.719
				c0.47-0.198,0.816-0.608,0.934-1.104l4.899-20.699H202.304z"/>
			<path style="fill:#EFEFEF;" d="M195.17,226.602l-1.648,5.682c-0.103,0.437-0.409,0.799-0.823,0.973l-47.971,19.593
				c-0.35,0.148-0.745,0.148-1.095,0l-47.971-19.593c-0.414-0.175-0.72-0.536-0.823-0.973l-1.647-5.682H195.17z"/>
			<g>
				<path style="fill:#F15825;" d="M173.823,195.865l0.371,5.687h-2.763c-3.827,0-5.687-2.126-5.687-6.378v-31.995l4.731-1.222
					h0.903v31.463c0,1.701,0.584,2.444,1.701,2.444H173.823z"/>
				<path style="fill:#F15825;" d="M188.437,198.575c-1.063,2.232-2.126,2.71-4.73,2.71h-2.764c-3.561,0-5.314-2.073-5.314-6.431
					v-3.88c0-3.986,1.754-6.059,5.314-6.059h7.016v-2.711c0-1.701-0.585-2.391-1.754-2.391h-2.764c-1.169,0-1.701,0.691-1.701,2.391
					v0.478h-5.261v-2.232c0-4.146,1.754-6.325,5.314-6.325h6.112c3.827,0,5.687,2.126,5.687,6.378v20.781h-4.73L188.437,198.575z
					 M186.152,195.599c1.222,0,1.807-0.85,1.807-2.817v-2.604h-5.793c-0.797,0-1.329,0.903-1.329,2.445v0.903
					c0,1.701,0.531,2.073,1.329,2.073H186.152z"/>
				<path style="fill:#F15825;" d="M203.264,199.001v2.285h-5.687v-38.107l4.73-1.222h0.956v14.084
					c1.222-1.435,2.71-1.914,4.624-1.914h2.338c3.88,0,5.74,2.286,5.74,6.697v13.34c0,4.73-1.967,7.122-6.165,7.122h-1.914
					C205.337,201.286,204.008,200.648,203.264,199.001z M203.264,192.888c0.053,2.02,0.797,2.923,2.126,2.923h2.764
					c1.435,0,2.179-0.903,2.179-3.135v-9.832c0-2.339-0.691-3.242-2.179-3.242h-2.764c-1.276,0-2.02,0.85-2.126,2.604V192.888z"/>
				<path style="fill:#F15825;" d="M226.01,179.389c-0.85,0-1.276,0.638-1.276,2.02v0.585c0,1.382,0.478,1.701,1.754,2.126
					l4.783,1.435c4.252,1.222,5.261,2.126,5.261,6.59v3.136c0,4.624-2.126,6.006-6.59,6.006h-4.252
					c-5.421,0-6.644-1.701-6.644-6.856v-1.542h5.261v1.01c0,1.488,0.425,2.126,1.276,2.126h4.412c0.85,0,1.276-0.638,1.276-2.02
					v-0.584c0-1.382-0.585-1.754-1.701-2.127l-4.783-1.435c-5.049-1.435-5.315-2.817-5.315-7.175v-2.073
					c0-4.57,1.116-6.484,6.644-6.484h3.401c5.527,0,6.59,1.807,6.59,7.122v1.648h-5.261v-1.382c0-1.435-0.425-2.127-1.276-2.127
					H226.01z"/>
			</g>
			<g>
				<path style="fill:#F15825;" d="M82.845,121.149l66.21-61.362c0.863-0.801,1.569-0.529,1.569,0.602v44.403
					c0,1.131-0.706,2.71-1.569,3.511l-13.86,12.845c-0.863,0.8-2.568,1.454-3.789,1.454H83.495
					C82.274,122.604,81.982,121.949,82.845,121.149z"/>
			</g>
		</g>
		<path style="fill:#EFEFEF;" d="M260.526,80.746L156.464,3.724l-0.028-0.021l-0.03-0.019l-0.154-0.101l-0.031-0.021l-0.032-0.019
			c-3.646-2.105-7.798-3.217-12.008-3.217c-4.169,0-8.287,1.093-11.907,3.16c-0.106,0.061-0.212,0.13-0.312,0.205L27.838,80.745
			c-0.908,0.674-1.337,1.821-1.097,2.923l13.004,53.641h5.917L32.796,84.428c-0.02-0.092,0.028-0.22,0.128-0.294L135.158,8.469
			c0.02-0.015,0.038-0.027,0.057-0.038c2.731-1.539,5.831-2.352,8.965-2.352s6.234,0.813,8.965,2.352
			c0.019,0.011,0.037,0.023,0.037,0.023l102.256,75.68c0.098,0.073,0.146,0.2,0.119,0.322l-12.251,52.851h5.913l12.393-53.612
			C261.861,82.567,261.431,81.419,260.526,80.746z"/>
		<g>
			<path style="fill:#EFEFEF;" d="M222.394,226.602l-5.436,23.208c-0.015,0.068-0.083,0.151-0.174,0.192l-72.464,31.575
				c-0.05,0.022-0.094,0.032-0.14,0.032c-0.046,0-0.09-0.009-0.131-0.028l-72.033-31.582c-0.083-0.038-0.151-0.121-0.172-0.219
				l-5.396-23.178h-5.926l6.037,25.946c0.199,0.913,0.806,1.663,1.632,2.036l74.813,32.838c0.367,0.166,0.765,0.252,1.176,0.252
				s0.81-0.086,1.184-0.255l75.246-32.831c0.833-0.376,1.441-1.127,1.634-2.011l6.079-25.975H222.394z"/>
		</g>
		<g>
			<path style="fill:#35495C;" d="M105.532,163.179v13.127c-0.956-1.648-1.967-2.179-4.252-2.179h-2.339
				c-4.145,0-6.112,2.551-6.112,7.547v12.915c0,4.412,1.807,6.697,5.687,6.697h2.339c2.976,0,4.358-1.01,5.049-3.082l0.531,3.082
				h4.73v-39.329h-0.903L105.532,163.179z M105.532,193.048c-0.159,1.913-0.903,2.763-2.179,2.763h-2.711
				c-1.488,0-2.179-0.903-2.179-3.135v-9.939c0-2.232,0.691-3.135,2.126-3.135h2.764c1.382,0,2.073,0.956,2.179,2.87V193.048z"/>
			<path style="fill:#35495C;" d="M60.094,163.551l-9.939,37.735h6.431l1.542-6.697h10.045l1.541,6.697h6.378l-9.885-37.735H60.094z
				 M59.562,188.477l3.614-15.519l3.561,15.519H59.562z"/>
			<path style="fill:#35495C;" d="M90.013,173.543l-4.464,1.594c-1.169,0.426-1.86,1.329-2.392,2.498v-3.189h-0.85l-4.411,1.222
				v25.617h5.687v-17.06c0-2.02,0.585-2.87,2.179-3.401l5.049-1.701l-0.425-5.58H90.013z"/>
			<path style="fill:#35495C;" d="M126.737,174.127h-6.112c-3.561,0-5.314,2.179-5.314,6.325v2.232h5.261v-0.478
				c0-1.701,0.531-2.391,1.701-2.391h2.764c1.169,0,1.754,0.691,1.754,2.391v2.711h-7.016c-3.561,0-5.314,2.072-5.314,6.059v3.88
				c0,4.358,1.754,6.431,5.314,6.431h2.764c2.604,0,3.667-0.478,4.73-2.71l0.425,2.71h4.73v-20.781
				C132.424,176.253,130.564,174.127,126.737,174.127z M126.79,192.782c0,1.967-0.585,2.817-1.807,2.817h-3.986
				c-0.797,0-1.329-0.372-1.329-2.073v-0.903c0-1.542,0.531-2.445,1.329-2.445h5.793V192.782z"/>
		</g>
		<path style="fill:#35495C;" d="M148.579,174.127h-2.285c-2.392,0-3.72,0.638-4.677,2.498v-2.179h-0.85l-4.412,1.222v25.617h5.687
			v-19.292c0.053-1.595,0.85-2.605,2.126-2.605h2.339c1.488,0,2.125,0.904,2.125,3.136v18.761h5.687v-20.515
			C154.319,176.359,152.46,174.127,148.579,174.127z"/>
		<path style="fill:#35495C;" d="M171.902,121.139c0.868,0.805,2.584,1.464,3.813,1.464h20.578c1.229,0,1.523-0.659,0.655-1.464
			l-39.053-36.216c-0.868-0.805-1.579-0.533-1.579,0.607v19.083c0,1.139,0.711,2.729,1.579,3.536L171.902,121.139z"/>
	</g>
</g>
<g id="Layer_2">
	<g>
		<path style="fill:#FFFFFF;" d="M250.904,72.55L167.802,9.571c-6.807-5.159-15.26-8-23.802-8c-8.541,0-16.994,2.841-23.802,8
			L37.096,72.55c-12.6,9.549-18.264,25.629-14.429,40.966l29.904,119.616c2.975,11.897,11.116,21.556,22.336,26.502l53.198,23.448
			c5.04,2.221,10.388,3.347,15.894,3.347c5.507,0,10.854-1.126,15.894-3.347l53.198-23.447
			c11.221-4.946,19.363-14.606,22.337-26.502l29.904-119.617C269.167,98.179,263.503,82.099,250.904,72.55z"/>
		<g>
			<path style="fill:#3B97D3;" d="M144,283.259c-5.063,0-9.98-1.036-14.616-3.078l-53.198-23.447
				c-10.318-4.548-17.804-13.431-20.54-24.371L25.743,112.747c-3.526-14.103,1.682-28.89,13.268-37.671l83.102-62.979
				c6.26-4.744,14.033-7.356,21.887-7.356c7.855,0,15.628,2.613,21.887,7.356l83.102,62.979
				c11.586,8.781,16.794,23.567,13.268,37.67l-29.904,119.617c-2.735,10.939-10.222,19.822-20.54,24.37l-53.197,23.448
				C153.981,282.223,149.063,283.259,144,283.259z"/>
			<path style="fill:#FFFFFF;" d="M144,7.912c7.168,0,14.261,2.384,19.973,6.713l83.102,62.979
				c10.572,8.012,15.325,21.505,12.107,34.374l-29.904,119.617c-2.496,9.982-9.327,18.088-18.743,22.238l-53.197,23.447
				c-4.229,1.864-8.716,2.809-13.337,2.809c-4.62,0-9.108-0.945-13.337-2.809l-53.198-23.448
				c-9.415-4.15-16.246-12.256-18.743-22.238L28.819,111.978c-3.218-12.869,1.535-26.362,12.107-34.375l83.102-62.978
				C129.74,10.296,136.833,7.912,144,7.912 M144,1.571c-8.542,0-16.994,2.841-23.802,8L37.096,72.55
				c-12.6,9.549-18.264,25.629-14.429,40.966l29.904,119.616c2.975,11.897,11.116,21.556,22.336,26.502l53.198,23.448
				c5.04,2.221,10.388,3.347,15.894,3.347c5.507,0,10.854-1.126,15.894-3.347l53.198-23.447
				c11.221-4.946,19.363-14.606,22.337-26.502l29.904-119.617c3.834-15.337-1.829-31.416-14.429-40.965L167.802,9.571
				C160.995,4.412,152.542,1.571,144,1.571L144,1.571z"/>
		</g>
		<path style="fill:none;" d="M220.81,229.477c-1.837,7.347-6.865,13.313-13.796,16.368l-53.197,23.447
			c-3.112,1.372-6.415,2.067-9.816,2.067c-3.401,0-6.704-0.695-9.817-2.067l-53.198-23.448c-6.93-3.055-11.958-9.021-13.795-16.368
			l-13.672-54.688h-5.315l13.985,55.939c2.226,8.904,8.32,16.134,16.718,19.836l53.198,23.448c3.772,1.662,7.775,2.505,11.896,2.505
			c4.122,0,8.124-0.843,11.896-2.505l53.197-23.447c8.399-3.702,14.493-10.932,16.719-19.836l13.985-55.939h-5.315L220.81,229.477z"
			/>
		<path style="fill:none;" d="M37.286,109.861c-2.368-9.473,1.13-19.404,8.912-25.302l83.102-62.979
			c4.204-3.186,9.425-4.941,14.701-4.941c5.276,0,10.497,1.755,14.701,4.941l83.102,62.979c7.782,5.898,11.28,15.829,8.911,25.301
			l-1.537,6.147h5.315l1.224-4.896c2.87-11.479-1.369-23.514-10.799-30.661l-83.102-62.979c-5.095-3.861-11.422-5.988-17.815-5.988
			c-6.393,0-12.72,2.127-17.815,5.988L43.083,80.45c-9.431,7.147-13.67,19.183-10.8,30.662l1.224,4.896h5.315L37.286,109.861z"/>
		<path style="fill:none;" d="M235.573,92.779L152.472,29.8c-2.423-1.836-5.431-2.847-8.472-2.847c-3.04,0-6.049,1.011-8.472,2.847
			L52.427,92.779c-4.485,3.399-6.5,9.122-5.135,14.581l2.162,8.648h5.315l-2.475-9.899c-0.863-3.452,0.412-7.071,3.248-9.22
			l83.101-62.978c1.532-1.161,3.434-1.801,5.357-1.801c1.922,0,3.825,0.64,5.357,1.801l83.101,62.978
			c2.835,2.149,4.11,5.767,3.248,9.219l-2.475,9.899h5.315l2.162-8.648C242.073,101.901,240.058,96.178,235.573,92.779z"/>
		<path style="fill:none;" d="M205.802,225.725c-0.67,2.678-2.503,4.852-5.028,5.965l-53.197,23.447
			c-1.134,0.5-2.338,0.754-3.577,0.754s-2.443-0.254-3.577-0.754L87.225,231.69c-2.525-1.113-4.358-3.287-5.027-5.965
			l-12.734-50.936h-5.315l13.047,52.187c1.059,4.234,3.956,7.672,7.95,9.433l53.198,23.447c1.794,0.791,3.697,1.191,5.657,1.191
			c1.96,0,3.863-0.401,5.657-1.191l53.197-23.447c3.994-1.761,6.892-5.199,7.95-9.433l13.047-52.187h-5.315L205.802,225.725z"/>
		<path style="fill:#FFFFFF;" d="M232.514,118.875l3.192-12.767c0.863-3.452-0.412-7.071-3.248-9.219L149.357,33.91
			c-1.532-1.161-3.435-1.801-5.357-1.801c-1.923,0-3.825,0.64-5.357,1.801L55.542,96.889c-2.836,2.149-4.11,5.768-3.248,9.22
			l3.192,12.767H232.514z M156.427,73.622c0-0.863,0.538-1.069,1.195-0.459l29.562,27.414c0.658,0.609,0.435,1.108-0.495,1.108
			h-15.577c-0.93,0-2.229-0.499-2.886-1.108l-10.603-9.832c-0.657-0.611-1.195-1.814-1.195-2.676V73.622z M100.485,101.011
			c0.057-0.132,0.165-0.276,0.329-0.427l50.118-46.448c0.041-0.038,0.081-0.073,0.121-0.104c0.391-0.31,0.726-0.317,0.912-0.061
			c0.098,0.135,0.155,0.343,0.155,0.621v33.611c0,0.749-0.409,1.758-0.949,2.405c-0.077,0.092-0.157,0.177-0.239,0.253l-5.445,5.046
			l-5.046,4.677c-0.122,0.114-0.267,0.223-0.428,0.326c-0.054,0.034-0.109,0.068-0.166,0.101c-0.682,0.395-1.581,0.673-2.274,0.673
			h-36.267c-0.404,0-0.674-0.095-0.795-0.252c-0.017-0.022-0.031-0.046-0.043-0.071c-0.022-0.05-0.032-0.104-0.03-0.163
			C100.441,101.139,100.457,101.076,100.485,101.011z"/>
		<path style="fill:#445663;" d="M241.802,84.559l-83.102-62.979c-4.204-3.186-9.425-4.941-14.701-4.941
			c-5.275,0-10.496,1.755-14.701,4.941L46.198,84.559c-7.782,5.898-11.28,15.829-8.912,25.302L67.19,229.477
			c1.837,7.348,6.865,13.314,13.795,16.368l53.198,23.447c3.113,1.372,6.416,2.067,9.817,2.067c3.401,0,6.704-0.695,9.816-2.067
			l53.197-23.447c6.931-3.055,11.959-9.021,13.796-16.368l29.904-119.617C253.082,100.388,249.584,90.457,241.802,84.559z
			 M218.738,173.98 M68.494,170.909h0.013h150.999h0.013 M47.291,107.359c-1.365-5.459,0.651-11.182,5.135-14.581L135.528,29.8
			c2.423-1.836,5.431-2.847,8.472-2.847c3.04,0,6.049,1.011,8.472,2.847l83.102,62.978c4.484,3.399,6.5,9.122,5.135,14.58
			l-29.904,119.617c-1.059,4.234-3.956,7.672-7.95,9.433l-53.197,23.447c-1.794,0.79-3.697,1.191-5.657,1.191
			c-1.96,0-3.863-0.401-5.657-1.191l-53.198-23.447c-3.994-1.76-6.891-5.198-7.95-9.433L47.291,107.359z M219.506,170.909
			l13.008-52.034H55.485l13.022,52.034"/>
		<path style="fill:#445663;" d="M260.719,112.362c3.372-13.486-1.608-27.625-12.688-36.022L164.93,13.361
			c-5.985-4.536-13.419-7.035-20.93-7.035c-7.511,0-14.944,2.498-20.93,7.035L39.968,76.34
			c-11.079,8.397-16.06,22.536-12.688,36.023l29.904,119.616c2.616,10.461,9.774,18.955,19.641,23.304l53.198,23.448
			c4.432,1.953,9.134,2.943,13.976,2.943c4.843,0,9.545-0.99,13.976-2.943l53.197-23.447c9.867-4.349,17.026-12.843,19.642-23.304
			L260.719,112.362z M225.812,230.728c-2.226,8.904-8.32,16.134-16.719,19.836l-53.197,23.447
			c-3.772,1.662-7.774,2.505-11.896,2.505c-4.121,0-8.124-0.843-11.896-2.505l-53.198-23.448
			c-8.398-3.702-14.492-10.932-16.718-19.836L32.283,111.112c-2.87-11.48,1.369-23.515,10.8-30.662l83.102-62.979
			c5.095-3.861,11.422-5.988,17.815-5.988c6.394,0,12.721,2.127,17.815,5.988l83.102,62.979c9.43,7.147,13.669,19.182,10.799,30.661
			L225.812,230.728z"/>
		<polygon style="fill:#0B1422;" points="218.751,173.98 219.519,170.909 219.506,170.909 218.738,173.98 		"/>
		<polygon style="opacity:0.2;fill:#0B1422;" points="218.751,173.98 219.519,170.909 219.506,170.909 218.738,173.98 		"/>
		<path style="fill:#FFFFFF;" d="M68.507,170.909h-0.013l13.704,54.816c0.67,2.678,2.502,4.852,5.027,5.965l53.198,23.447
			c1.134,0.5,2.338,0.753,3.577,0.753c1.239,0,2.443-0.254,3.577-0.753l53.197-23.447c2.526-1.113,4.358-3.287,5.028-5.965
			l13.704-54.816H68.507z"/>
		<g>
			<g>
				<g>
					<g>
						<path style="fill:#FFFFFF;" d="M75.84,160.562l5.472-31.707h4.975l-2.628,15.228h8.012l2.628-15.228h5.019l-5.472,31.707
							h-5.019l1.95-11.299h-8.012l-1.95,11.299H75.84z"/>
						<path style="fill:#FFFFFF;" d="M107.666,158.285c-1.205,1.875-2.154,2.277-4.311,2.277h-2.289c-2.95,0-4.102-1.741-3.47-5.403
							l0.562-3.261c0.578-3.349,2.331-5.091,5.281-5.091h5.811l0.393-2.277c0.247-1.429-0.137-2.009-1.106-2.009h-2.289
							c-0.968,0-1.509,0.58-1.755,2.009l-0.069,0.402h-4.358l0.324-1.876c0.601-3.483,2.37-5.315,5.319-5.315h5.062
							c3.169,0,4.402,1.787,3.785,5.359l-3.013,17.461h-3.918L107.666,158.285z M106.204,155.785c1.013,0,1.62-0.716,1.905-2.368
							l0.378-2.188h-4.799c-0.66,0-1.231,0.759-1.455,2.054l-0.131,0.76c-0.247,1.429,0.14,1.742,0.8,1.742H106.204z"/>
						<path style="fill:#FFFFFF;" d="M124.284,143.37c-1.397,0.446-2.005,1.161-2.298,2.858l-2.474,14.335h-4.71l3.715-21.525
							l3.831-1.027h0.705l-0.462,2.679c0.609-0.982,1.312-1.742,2.342-2.099l3.93-1.34h0.308l-0.457,4.689L124.284,143.37z"/>
						<path style="fill:#FFFFFF;" d="M142.36,160.562h-3.918l0.006-2.591c-0.873,1.742-2.164,2.591-4.629,2.591h-1.937
							c-3.214,0-4.378-1.92-3.739-5.627l1.873-10.852c0.725-4.198,2.723-6.342,6.157-6.342h1.937c1.893,0,2.653,0.447,3.206,1.832
							l1.904-11.03l4.096-1.028h0.748L142.36,160.562z M140.421,144.753c0.189-1.607-0.244-2.412-1.388-2.412h-2.289
							c-1.188,0-1.892,0.759-2.215,2.635l-1.441,8.352c-0.324,1.875,0.118,2.635,1.35,2.635h2.245c1.057,0,1.796-0.714,2.206-2.322
							L140.421,144.753z"/>
						<path style="fill:#FFFFFF;" d="M154.769,142.744c-1.013,0-1.576,0.714-1.854,2.322l-1.449,8.396
							c-0.285,1.652,0.084,2.323,1.053,2.323h2.772c0.969,0,1.486-0.448,1.764-2.055l0.178-1.028h4.357l-0.347,2.011
							c-0.686,3.975-2.595,5.85-5.765,5.85h-4.842c-3.434,0-4.723-1.965-4.037-5.939l1.834-10.629
							c0.694-4.019,2.67-6.029,6.147-6.029h5.15c2.949,0,4.078,1.876,3.423,5.672l-0.393,2.278h-4.358l0.146-0.849
							c0.277-1.608-0.04-2.322-1.053-2.322H154.769z"/>
						<path style="fill:#FFFFFF;" d="M177.071,137.742c3.434,0,4.716,2.01,4.022,6.029l-1.873,10.852
							c-0.686,3.975-2.654,5.939-6.131,5.939h-5.107c-3.434,0-4.723-1.965-4.037-5.939l1.873-10.852
							c0.693-4.019,2.669-6.029,6.146-6.029H177.071z M172.184,142.342c-1.013,0-1.576,0.715-1.854,2.322l-1.549,8.977
							c-0.285,1.652,0.083,2.322,1.052,2.322h3.081c0.969,0,1.569-0.67,1.854-2.322l1.549-8.977
							c0.277-1.607-0.084-2.322-1.053-2.322H172.184z"/>
						<path style="fill:#FFFFFF;" d="M190.805,143.37c-1.397,0.446-2.005,1.161-2.298,2.858l-2.474,14.335h-4.711l3.715-21.525
							l3.831-1.027h0.705l-0.463,2.679c0.609-0.982,1.312-1.742,2.343-2.099l3.93-1.34h0.308l-0.457,4.689L190.805,143.37z"/>
						<path style="fill:#FFFFFF;" d="M203.004,156.097c1.013,0,1.56-0.625,1.791-1.964l0.131-0.76h4.358l-0.185,1.071
							c-0.848,4.912-2.553,6.118-7.264,6.118h-2.023c-4.139,0-5.904-1.25-5.079-6.029l1.888-10.94
							c0.879-5.092,2.99-5.851,7.437-5.851h1.673c4.446,0,6.076,0.759,5.197,5.851l-0.454,2.635
							c-0.671,3.885-1.528,5.537-6.019,5.537h-4.578l-0.347,2.01c-0.27,1.562,0.084,2.322,1.008,2.322H203.004z M202.635,142.164
							c-0.793,0-1.209,0.625-1.409,1.786l-0.586,3.394h4.271c0.66,0,1.133-0.446,1.326-1.562l0.323-1.876
							c0.192-1.116,0.037-1.741-0.8-1.741H202.635z"/>
					</g>
				</g>
				<g>
					<g>
						<path style="fill:#4B4C4D;" d="M132.462,204.343h12.4l-2.791,16.172c-1.022,5.923-4.174,8.984-9.621,8.984h-10.695
							c-5.511,0-7.642-2.862-6.608-8.852l5.077-29.416c1.033-5.989,4.175-8.984,9.621-8.984h10.761c5.512,0,7.565,2.929,6.542,8.852
							l-0.872,5.058h-7.48l0.391-2.263c0.482-2.795-0.165-3.993-2.001-3.993h-6.562c-1.771,0-2.908,1.265-3.401,4.127l-4.112,23.825
							c-0.482,2.795,0.229,3.993,2.066,3.993h6.496c1.837,0,2.908-1.265,3.368-3.927l1.022-5.923h-5.905L132.462,204.343z"/>
						<path style="fill:#4B4C4D;" d="M166.006,195.491c5.117,0,7.028,2.994,5.994,8.984l-2.79,16.172
							c-1.022,5.923-3.956,8.852-9.139,8.852h-7.611c-5.118,0-7.04-2.929-6.018-8.852l2.79-16.172
							c1.034-5.99,3.979-8.984,9.162-8.984H166.006z M158.721,202.346c-1.509,0-2.35,1.065-2.763,3.46l-2.309,13.378
							c-0.425,2.463,0.125,3.461,1.568,3.461h4.594c1.443,0,2.337-0.998,2.762-3.461l2.309-13.378
							c0.413-2.395-0.124-3.46-1.567-3.46H158.721z"/>
					</g>
				</g>
			</g>
		</g>
		<path style="fill:#445663;" d="M168.226,100.576c0.657,0.609,1.956,1.108,2.886,1.108h15.577c0.93,0,1.153-0.499,0.495-1.108
			l-29.562-27.414c-0.657-0.609-1.195-0.403-1.195,0.459v14.445c0,0.863,0.538,2.066,1.195,2.676L168.226,100.576z"/>
		<path style="fill:#F15825;" d="M100.511,101.432c0.121,0.157,0.391,0.252,0.795,0.252h36.267c0.693,0,1.592-0.279,2.274-0.673
			c0.057-0.033,0.112-0.067,0.166-0.101c0.161-0.103,0.306-0.213,0.428-0.326l5.046-4.677l5.445-5.046
			c0.082-0.076,0.161-0.161,0.239-0.253c0.54-0.647,0.949-1.655,0.949-2.405V54.591c0-0.277-0.057-0.485-0.155-0.621
			c-0.186-0.256-0.521-0.25-0.912,0.061c-0.04,0.032-0.08,0.066-0.121,0.104l-50.118,46.448c-0.163,0.151-0.272,0.296-0.329,0.427
			c-0.028,0.066-0.044,0.128-0.046,0.187c-0.003,0.059,0.007,0.113,0.03,0.163C100.479,101.386,100.494,101.409,100.511,101.432z"/>
		<path style="opacity:0.3;fill:#575C5C;" d="M218.738,173.98l0.768-3.07H68.507l0.749,2.994
			C119.796,172.019,169.645,171.987,218.738,173.98z"/>
	</g>
	<g style="display:none;">
		<g style="display:inline;">
			<path style="fill:#F05926;" d="M144,283.194c-2.023,0-3.988-0.414-5.84-1.23l-64.4-28.385c-4.123-1.816-7.114-5.366-8.207-9.737
				L29.352,99.038c-1.409-5.635,0.672-11.544,5.302-15.053l100.601-76.24c2.501-1.896,5.607-2.939,8.746-2.939
				c3.139,0,6.245,1.044,8.746,2.939l100.601,76.24c4.629,3.509,6.71,9.417,5.301,15.052l-36.201,144.805
				c-1.092,4.371-4.084,7.921-8.206,9.737l-64.399,28.385C147.988,282.78,146.023,283.194,144,283.194z"/>
			<path style="fill:#EE4623;" d="M144,7.306c2.597,0,5.166,0.864,7.235,2.432l100.601,76.24c3.83,2.903,5.552,7.791,4.386,12.453
				l-2.617,10.469l-17.79,71.159l-15.794,63.176c-0.904,3.616-3.379,6.553-6.79,8.056l-64.399,28.385
				c-1.532,0.675-3.158,1.018-4.832,1.018s-3.3-0.342-4.832-1.018l-64.4-28.385c-3.411-1.503-5.886-4.44-6.79-8.056L52.185,180.06
				l-17.79-71.16l-2.618-10.469c-1.166-4.662,0.556-9.551,4.386-12.453l100.601-76.24C138.834,8.169,141.404,7.306,144,7.306
				 M144,2.306c-3.68,0-7.322,1.224-10.256,3.447L33.144,81.993c-5.429,4.114-7.869,11.043-6.217,17.651l2.618,10.469l17.79,71.159
				l15.794,63.176c1.282,5.126,4.789,9.288,9.624,11.419l64.4,28.385c2.171,0.957,4.475,1.442,6.848,1.442s4.677-0.485,6.848-1.442
				l64.399-28.385c4.835-2.131,8.343-6.293,9.624-11.419l15.794-63.176l17.79-71.159l2.617-10.47
				c1.652-6.608-0.788-13.536-6.217-17.651L154.255,5.753C151.323,3.53,147.68,2.306,144,2.306L144,2.306z"/>
		</g>
		<g style="display:inline;">
			<g>
				<path style="fill:#EAEAEA;" d="M200.555,182.032l-31.385-58.752V78.118h10.439v-5.585h-10.439h-6.767v5.585v46.857
					l32.183,60.245c2.984,5.582,2.816,12.422-0.439,17.849c-3.254,5.427-9.206,8.8-15.535,8.8h-69.223
					c-6.329,0-12.281-3.371-15.537-8.8c-3.254-5.429-3.422-12.268-0.441-17.849l32.185-60.245V78.118v-5.585h-6.765h-10.439v5.585
					h10.439v45.162l-31.386,58.753c-4.096,7.663-3.863,17.058,0.605,24.513c4.471,7.455,12.646,12.087,21.339,12.087h69.223
					c8.691,0,16.866-4.631,21.337-12.085C204.418,199.091,204.649,189.698,200.555,182.032z"/>
			</g>
			<path style="opacity:0.8;fill:#EAEAEA;" d="M145.717,136.049c4.992-1.429,7.881-6.632,6.452-11.625
				c-1.429-4.994-6.632-7.883-11.623-6.454c-4.994,1.429-7.883,6.633-6.454,11.627C135.519,134.589,140.725,137.478,145.717,136.049
				L145.717,136.049z M145.717,136.049"/>
			<path style="opacity:0.7;fill:#EAEAEA;" d="M154.578,98.683c4.307-1.232,6.8-5.723,5.568-10.028
				c-1.232-4.307-5.723-6.798-10.03-5.566c-4.305,1.232-6.796,5.721-5.566,10.028C145.782,97.423,150.273,99.915,154.578,98.683
				L154.578,98.683z M154.578,98.683"/>
			<path style="opacity:0.5;fill:#EAEAEA;" d="M140.641,76.543c3.521-1.007,5.559-4.679,4.552-8.198
				c-1.008-3.521-4.679-5.558-8.2-4.55c-3.52,1.008-5.556,4.678-4.55,8.199C133.45,75.512,137.121,77.55,140.641,76.543
				L140.641,76.543z M140.641,76.543"/>
			<path style="opacity:0.9;fill:#EAEAEA;" d="M165.376,145.514c-7.017-2.613-14.146-2.536-21.376,0
				c-6.937,2.854-14.071,2.71-21.375,0l-23.247,43.513c-1.879,3.518-1.774,7.763,0.276,11.183c2.051,3.421,5.746,5.513,9.735,5.513
				h69.223c3.987,0,7.682-2.092,9.733-5.513c2.051-3.421,2.156-7.665,0.276-11.183L165.376,145.514z M163.889,183.188
				c-6.737,1.928-13.761-1.97-15.688-8.707c-1.928-6.737,1.972-13.761,8.709-15.689c6.737-1.928,13.761,1.972,15.687,8.709
				C174.526,174.236,170.626,181.26,163.889,183.188L163.889,183.188z M163.889,183.188"/>
		</g>
		<path style="display:inline;opacity:0.4;fill:#FFFFFF;" d="M241.029,117.699c2.803-11.211-1.337-22.965-10.547-29.945
			L161.399,35.4c-4.976-3.771-11.155-5.848-17.399-5.848c-6.244,0-12.423,2.077-17.399,5.848L57.519,87.754
			c-9.21,6.98-13.35,18.735-10.547,29.946l0.757,3.03l12.216,48.865l11.885,47.542c2.174,8.696,8.125,15.757,16.327,19.373
			l44.224,19.492c3.684,1.624,7.593,2.447,11.618,2.447c4.026,0,7.935-0.823,11.618-2.447l44.223-19.492
			c8.203-3.616,14.154-10.677,16.328-19.373l11.886-47.542l12.216-48.865L241.029,117.699z M212.011,216.097
			c-1.851,7.402-6.916,13.412-13.898,16.49l-44.223,19.492c-3.135,1.382-6.463,2.083-9.889,2.083c-3.426,0-6.753-0.701-9.889-2.083
			l-44.224-19.492c-6.981-3.077-12.047-9.088-13.898-16.49l-11.625-46.502L52.148,120.73l-1.017-4.07
			c-2.386-9.543,1.138-19.548,8.978-25.49l69.082-52.354c4.236-3.21,9.495-4.978,14.81-4.978c5.315,0,10.575,1.768,14.81,4.978
			l69.083,52.354c7.84,5.941,11.363,15.946,8.978,25.489l-1.018,4.07l-12.216,48.865L212.011,216.097z"/>
	</g>
	<g style="display:none;">
		<g style="display:inline;">
			<path style="fill:#F0C419;" d="M144,283.194c-2.023,0-3.988-0.414-5.84-1.23l-64.4-28.385c-4.123-1.816-7.114-5.366-8.207-9.737
				L29.352,99.038c-1.409-5.635,0.672-11.544,5.302-15.053l100.601-76.24c2.501-1.896,5.607-2.939,8.746-2.939
				c3.139,0,6.245,1.044,8.746,2.939l100.601,76.24c4.629,3.509,6.71,9.417,5.301,15.052l-36.201,144.805
				c-1.092,4.371-4.084,7.921-8.206,9.737l-64.399,28.385C147.988,282.78,146.023,283.194,144,283.194z"/>
			<path style="fill:#ECB41F;" d="M144,7.306c2.597,0,5.166,0.864,7.235,2.432l100.601,76.24c3.83,2.903,5.552,7.791,4.386,12.453
				l-2.617,10.469l-17.79,71.159l-15.794,63.176c-0.904,3.616-3.379,6.553-6.79,8.056l-64.399,28.385
				c-1.532,0.675-3.158,1.018-4.832,1.018s-3.3-0.342-4.832-1.018l-64.4-28.385c-3.411-1.503-5.886-4.44-6.79-8.056L52.185,180.06
				l-17.79-71.16l-2.618-10.469c-1.166-4.662,0.556-9.551,4.386-12.453l100.601-76.24C138.834,8.169,141.404,7.306,144,7.306
				 M144,2.306c-3.68,0-7.322,1.224-10.256,3.447L33.144,81.993c-5.429,4.114-7.869,11.043-6.217,17.651l2.618,10.469l17.79,71.159
				l15.794,63.176c1.282,5.126,4.789,9.288,9.624,11.419l64.4,28.385c2.171,0.957,4.475,1.442,6.848,1.442s4.677-0.485,6.848-1.442
				l64.399-28.385c4.835-2.131,8.343-6.293,9.624-11.419l15.794-63.176l17.79-71.159l2.617-10.47
				c1.652-6.608-0.788-13.536-6.217-17.651L154.255,5.753C151.323,3.53,147.68,2.306,144,2.306L144,2.306z"/>
		</g>
		<g style="display:inline;">
			<path style="opacity:0.4;fill:#FFFFFF;" d="M241.029,117.699c2.803-11.211-1.337-22.965-10.547-29.945L161.399,35.4
				c-4.976-3.771-11.155-5.848-17.399-5.848c-6.244,0-12.423,2.077-17.399,5.848L57.519,87.754
				c-9.21,6.98-13.35,18.735-10.547,29.946l0.757,3.03l12.216,48.865l11.885,47.542c2.174,8.696,8.125,15.757,16.327,19.373
				l44.224,19.492c3.684,1.624,7.593,2.447,11.618,2.447c4.026,0,7.935-0.823,11.618-2.447l44.223-19.492
				c8.203-3.616,14.154-10.677,16.328-19.373l11.886-47.542l12.216-48.865L241.029,117.699z M212.011,216.097
				c-1.851,7.402-6.916,13.412-13.898,16.49l-44.223,19.492c-3.135,1.382-6.463,2.083-9.889,2.083c-3.426,0-6.753-0.701-9.889-2.083
				l-44.224-19.492c-6.981-3.077-12.047-9.088-13.898-16.49l-11.625-46.502L52.148,120.73l-1.017-4.07
				c-2.386-9.543,1.138-19.548,8.978-25.49l69.082-52.354c4.236-3.21,9.495-4.978,14.81-4.978c5.315,0,10.575,1.768,14.81,4.978
				l69.083,52.354c7.84,5.941,11.363,15.946,8.978,25.489l-1.018,4.07l-12.216,48.865L212.011,216.097z"/>
			<g>
				<path style="opacity:0.5;fill-rule:evenodd;clip-rule:evenodd;fill:#EAEAEA;" d="M127.942,210.131
					c-1.448,0-2.622-1.18-2.622-2.622c0-1.449,1.174-2.629,2.622-2.629h30.648c1.448,0,2.629,1.181,2.629,2.629
					c0,1.441-1.181,2.622-2.629,2.622H127.942z M127.942,210.131"/>
				<path style="opacity:0.5;fill-rule:evenodd;clip-rule:evenodd;fill:#EAEAEA;" d="M131.353,220.619
					c-1.448,0-2.629-1.208-2.629-2.656c0-1.449,1.181-2.629,2.629-2.629h23.832c1.448,0,2.656,1.181,2.656,2.629
					c0,1.448-1.208,2.656-2.656,2.656H131.353z M131.353,220.619"/>
				<path style="fill-rule:evenodd;clip-rule:evenodd;fill:#EAEAEA;" d="M140.791,184.151c0,1.476-1.181,2.629-2.629,2.629
					c-1.448,0-2.629-1.153-2.629-2.629c0-11.072-0.323-19.384-1.853-27.051c-1.524-7.591-4.235-14.613-9.033-23.303
					c-0.721-1.256-0.268-2.869,1.016-3.562c1.263-0.7,2.842-0.24,3.569,1.016c5.121,9.198,8.017,16.707,9.623,24.827
					C140.441,164.067,140.791,172.674,140.791,184.151L140.791,184.151z M140.791,184.151"/>
				<path style="fill-rule:evenodd;clip-rule:evenodd;fill:#EAEAEA;" d="M151.005,184.151c0,1.476-1.181,2.629-2.629,2.629
					s-2.629-1.153-2.629-2.629c0.028-11.477,0.35-20.057,1.956-28.074c1.613-8.12,4.51-15.629,9.63-24.827
					c0.693-1.284,2.306-1.743,3.562-1.016c1.263,0.693,1.716,2.306,1.022,3.562c-4.825,8.69-7.536,15.712-9.067,23.303
					C151.327,164.767,151.005,173.079,151.005,184.151L151.005,184.151z M151.005,184.151"/>
				<path style="fill-rule:evenodd;clip-rule:evenodd;fill:#EAEAEA;" d="M126.123,135.032c-1.366-0.453-2.121-1.929-1.689-3.322
					c0.453-1.373,1.929-2.121,3.295-1.695c1.853,0.59,3.432,1.4,4.88,2.121l0.165,0.082c2.279,1.153,4.18,2.066,5.601,0.913
					l3.247-2.657c1.126-0.913,2.787-0.755,3.7,0.378c0.913,1.126,0.721,2.787-0.405,3.699l-3.219,2.65
					c-4.043,3.274-7.345,1.689-11.312-0.323l-0.137-0.048C128.964,136.185,127.571,135.485,126.123,135.032L126.123,135.032z
					 M126.123,135.032"/>
				<path style="fill-rule:evenodd;clip-rule:evenodd;fill:#EAEAEA;" d="M145.912,75.212c0,1.476-1.18,2.656-2.629,2.656
					c-1.448,0-2.656-1.181-2.656-2.656V64.998c0-1.448,1.208-2.629,2.656-2.629c1.449,0,2.629,1.181,2.629,2.629V75.212z
					 M145.912,75.212"/>
				<path style="fill-rule:evenodd;clip-rule:evenodd;fill:#EAEAEA;" d="M158.809,130.014c1.393-0.453,2.869,0.323,3.322,1.695
					c0.426,1.393-0.323,2.869-1.716,3.322c-1.448,0.453-2.842,1.153-4.132,1.799l-0.103,0.075
					c-3.967,1.984-7.297,3.597-11.319,0.295l-3.24-2.622c-1.126-0.913-1.291-2.574-0.377-3.707c0.913-1.126,2.546-1.311,3.672-0.398
					l3.247,2.657c1.421,1.153,3.322,0.24,5.628-0.913l0.137-0.082C155.398,131.414,156.983,130.605,158.809,130.014L158.809,130.014
					z M158.809,130.014"/>
				<path style="opacity:0.7;fill-rule:evenodd;clip-rule:evenodd;fill:#EAEAEA;" d="M176.45,103.341
					c8.47,8.47,13.728,20.215,13.728,33.167c0,5.066-0.803,9.946-2.306,14.531c-1.558,4.743-3.837,9.17-6.706,13.11
					c-4.853,6.624-8.765,10.969-11.82,14.318c-5.498,6.089-7.887,8.738-7.887,17.613c0,1.448-1.18,2.629-2.649,2.629h-30.84
					c-1.476,0-2.65-1.181-2.65-2.629c0-8.793-2.443-11.47-7.914-17.455c-3.082-3.349-7.049-7.694-12.012-14.476
					c-2.869-3.94-5.175-8.367-6.699-13.11c-1.503-4.585-2.307-9.493-2.307-14.531c0-6.356,1.256-12.417,3.563-17.942l0.055-0.103
					c2.361-5.711,5.848-10.859,10.111-15.121c4.317-4.317,9.493-7.777,15.231-10.165c5.546-2.306,11.607-3.563,17.935-3.563
					c6.329,0,12.383,1.256,17.936,3.563C166.957,95.537,172.132,99.023,176.45,103.341L176.45,103.341z M184.893,136.507
					c0-11.504-4.661-21.91-12.17-29.439c-3.864-3.837-8.45-6.946-13.515-9.04c-4.908-2.039-10.269-3.165-15.925-3.165
					c-5.656,0-11.051,1.126-15.924,3.165c-5.072,2.094-9.658,5.203-13.515,9.04c-3.809,3.802-6.891,8.36-8.985,13.378l-0.055,0.131
					c-2.039,4.88-3.164,10.275-3.164,15.931c0,4.503,0.728,8.848,2.039,12.898c1.393,4.208,3.405,8.147,5.951,11.634
					c4.777,6.514,8.662,10.749,11.669,14.051v0.027c5.841,6.404,8.765,9.596,9.218,18.341h25.719
					c0.453-8.8,3.322-11.964,9.191-18.478c2.951-3.267,6.733-7.454,11.476-13.941c2.547-3.487,4.585-7.399,5.951-11.607
					C184.172,145.355,184.893,141.01,184.893,136.507L184.893,136.507z M184.893,136.507"/>
				<path style="opacity:0.5;fill-rule:evenodd;clip-rule:evenodd;fill:#EAEAEA;" d="M134.758,231.045
					c-1.448,0-2.629-1.181-2.629-2.629c0-1.448,1.181-2.622,2.629-2.622h17.023c1.476,0,2.657,1.174,2.657,2.622
					c0,1.448-1.181,2.629-2.657,2.629H134.758 M134.758,231.045"/>
				<path style="fill-rule:evenodd;clip-rule:evenodd;fill:#EAEAEA;" d="M175.619,84.567c-0.728,1.263-2.334,1.689-3.596,0.968
					c-1.256-0.7-1.689-2.306-0.961-3.569l5.12-8.848c0.693-1.256,2.307-1.689,3.563-0.961c1.263,0.721,1.688,2.334,0.968,3.562
					L175.619,84.567z M175.619,84.567"/>
				<g>
					<path style="fill-rule:evenodd;clip-rule:evenodd;fill:#EAEAEA;" d="M115.477,81.966c0.721,1.263,0.295,2.869-0.968,3.569
						c-1.229,0.721-2.842,0.295-3.562-0.968l-5.12-8.847c-0.727-1.229-0.268-2.842,0.961-3.562c1.263-0.728,2.869-0.295,3.597,0.961
						L115.477,81.966z M115.477,81.966"/>
					<path style="fill-rule:evenodd;clip-rule:evenodd;fill:#EAEAEA;" d="M92.524,103.018c1.235,0.693,1.661,2.307,0.968,3.563
						c-0.728,1.263-2.334,1.689-3.597,0.968l-8.848-5.093c-1.256-0.728-1.688-2.334-0.961-3.597c0.721-1.256,2.334-1.689,3.59-0.961
						L92.524,103.018z M92.524,103.018"/>
				</g>
				<path style="fill-rule:evenodd;clip-rule:evenodd;fill:#EAEAEA;" d="M196.637,107.548c-1.229,0.721-2.842,0.295-3.562-0.968
					c-0.728-1.256-0.295-2.869,0.961-3.563l8.848-5.121c1.263-0.728,2.869-0.295,3.569,0.961c0.721,1.263,0.295,2.869-0.968,3.597
					L196.637,107.548z M196.637,107.548"/>
				<path style="fill-rule:evenodd;clip-rule:evenodd;fill:#EAEAEA;" d="M115.882,146.906c0.563,1.345-0.055,2.897-1.4,3.46
					c-1.338,0.535-2.862-0.076-3.432-1.421c-0.879-2.114-1.579-4.345-2.059-6.644c-0.46-2.286-0.7-4.613-0.7-6.947
					c0-1.448,1.181-2.656,2.656-2.656c1.448,0,2.629,1.208,2.629,2.656c0,2.066,0.185,4.05,0.59,5.924
					C114.536,143.207,115.127,145.115,115.882,146.906L115.882,146.906z M115.882,123.768c-0.535,1.345-2.094,1.956-3.432,1.393
					c-1.345-0.563-1.963-2.087-1.4-3.432c0.885-2.087,1.963-4.07,3.192-5.896l0.028-0.027h-0.028c1.29-1.874,2.711-3.617,4.29-5.203
					c1.558-1.551,3.301-3,5.203-4.263v-0.027c1.826-1.201,3.837-2.306,5.924-3.192c2.121-0.879,4.345-1.579,6.678-2.059
					c2.279-0.46,4.613-0.7,6.946-0.7c1.449,0,2.629,1.181,2.629,2.656c0,1.448-1.18,2.629-2.629,2.629
					c-2.066,0-4.05,0.186-5.923,0.563c-1.963,0.398-3.865,0.988-5.663,1.743c-1.743,0.748-3.405,1.661-5.011,2.732
					c-1.558,1.043-3.034,2.279-4.427,3.645c-1.338,1.373-2.574,2.842-3.645,4.427C117.543,120.336,116.63,122.025,115.882,123.768
					L115.882,123.768z M115.882,123.768"/>
			</g>
		</g>
	</g>
	<g style="display:none;">
		<g style="display:inline;">
			<path style="fill:#3B97D3;" d="M144,283.194c-2.023,0-3.988-0.414-5.84-1.23l-64.4-28.385c-4.123-1.816-7.114-5.366-8.207-9.737
				L29.352,99.038c-1.409-5.635,0.672-11.544,5.302-15.053l100.601-76.24c2.501-1.896,5.607-2.939,8.746-2.939
				c3.139,0,6.245,1.044,8.746,2.939l100.601,76.24c4.629,3.509,6.71,9.417,5.301,15.052l-36.201,144.805
				c-1.092,4.371-4.084,7.921-8.206,9.737l-64.399,28.385C147.988,282.78,146.023,283.194,144,283.194z"/>
			<path style="fill:#1D8ECE;" d="M144,7.306c2.597,0,5.166,0.864,7.235,2.432l100.601,76.24c3.83,2.903,5.552,7.791,4.386,12.453
				l-2.617,10.469l-17.79,71.159l-15.794,63.176c-0.904,3.616-3.379,6.553-6.79,8.056l-64.399,28.385
				c-1.532,0.675-3.158,1.018-4.832,1.018s-3.3-0.342-4.832-1.018l-64.4-28.385c-3.411-1.503-5.886-4.44-6.79-8.056L52.185,180.06
				l-17.79-71.16l-2.618-10.469c-1.166-4.662,0.556-9.551,4.386-12.453l100.601-76.24C138.834,8.169,141.404,7.306,144,7.306
				 M144,2.306c-3.68,0-7.322,1.224-10.256,3.447L33.144,81.993c-5.429,4.114-7.869,11.043-6.217,17.651l2.618,10.469l17.79,71.159
				l15.794,63.176c1.282,5.126,4.789,9.288,9.624,11.419l64.4,28.385c2.171,0.957,4.475,1.442,6.848,1.442s4.677-0.485,6.848-1.442
				l64.399-28.385c4.835-2.131,8.343-6.293,9.624-11.419l15.794-63.176l17.79-71.159l2.617-10.47
				c1.652-6.608-0.788-13.536-6.217-17.651L154.255,5.753C151.323,3.53,147.68,2.306,144,2.306L144,2.306z"/>
		</g>
		<path style="display:inline;opacity:0.4;fill:#FFFFFF;" d="M241.029,117.699c2.803-11.211-1.337-22.965-10.547-29.945
			L161.399,35.4c-4.976-3.771-11.155-5.848-17.399-5.848c-6.244,0-12.423,2.077-17.399,5.848L57.519,87.754
			c-9.21,6.98-13.35,18.735-10.547,29.946l0.757,3.03l12.216,48.865l11.885,47.542c2.174,8.696,8.125,15.757,16.327,19.373
			l44.224,19.492c3.684,1.624,7.593,2.447,11.618,2.447c4.026,0,7.935-0.823,11.618-2.447l44.223-19.492
			c8.203-3.616,14.154-10.677,16.328-19.373l11.886-47.542l12.216-48.865L241.029,117.699z M212.011,216.097
			c-1.851,7.402-6.916,13.412-13.898,16.49l-44.223,19.492c-3.135,1.382-6.463,2.083-9.889,2.083c-3.426,0-6.753-0.701-9.889-2.083
			l-44.224-19.492c-6.981-3.077-12.047-9.088-13.898-16.49l-11.625-46.502L52.148,120.73l-1.017-4.07
			c-2.386-9.543,1.138-19.548,8.978-25.49l69.082-52.354c4.236-3.21,9.495-4.978,14.81-4.978c5.315,0,10.575,1.768,14.81,4.978
			l69.083,52.354c7.84,5.941,11.363,15.946,8.978,25.489l-1.018,4.07l-12.216,48.865L212.011,216.097z"/>
		<g style="display:inline;">
			<path style="opacity:0.8;fill:#EAEAEA;" d="M135.796,168.437l-2.536,11.835c-2.118,0.096-4.249,0.636-6.187,1.814
				c-6.156,3.743-8.111,11.762-4.368,17.918c3.743,6.156,11.764,8.114,17.92,4.372c6.143-3.735,8.099-11.76,4.356-17.916
				c-1.317-2.167-3.185-3.788-5.3-4.841l2.531-11.814C140.021,169.579,137.876,169.143,135.796,168.437L135.796,168.437z
				 M135.796,168.437"/>
			<path style="opacity:0.9;fill:#EAEAEA;" d="M115.593,137.227l-22.854,0.229c-0.32-1.155-0.73-2.295-1.384-3.372
				c-3.743-6.156-11.768-8.112-17.924-4.369c-6.143,3.735-8.096,11.758-4.353,17.914c3.743,6.156,11.743,8.109,17.899,4.366
				c3.053-1.856,5.074-4.776,5.879-7.986l22.788-0.225C115.382,141.591,115.37,139.404,115.593,137.227L115.593,137.227z
				 M115.593,137.227"/>
			<path style="opacity:0.5;fill:#EAEAEA;" d="M108.728,94.273c2.908,4.784,8.425,6.979,13.631,5.977l7.058,14.7
				c0.102-0.062,0.196-0.137,0.297-0.199c1.809-1.1,3.694-1.985,5.621-2.662l-7.063-14.678c4.807-4.083,6.108-11.129,2.733-16.681
				c-3.743-6.156-11.764-8.114-17.907-4.38C106.942,80.092,104.986,88.117,108.728,94.273L108.728,94.273z M108.728,94.273"/>
			<path style="opacity:0.8;fill:#EAEAEA;" d="M175.778,105.887l-11.655,11.34c1.661,1.378,3.205,2.935,4.579,4.699l11.668-11.348
				c4.026,2.436,9.198,2.651,13.496,0.038c6.143-3.735,8.104-11.744,4.353-17.913c-3.735-6.143-11.756-8.101-17.899-4.366
				C174.279,92.008,172.318,99.789,175.778,105.887L175.778,105.887z M175.778,105.887"/>
			<path style="opacity:0.9;fill:#EAEAEA;" d="M165.694,161.821l16.273,13.733c-1.833,3.835-1.755,8.496,0.614,12.393
				c3.743,6.156,11.743,8.109,17.899,4.366c6.156-3.743,8.12-11.754,4.377-17.91c-3.743-6.156-11.765-8.109-17.922-4.366
				c-0.256,0.156-0.469,0.353-0.696,0.527l-16.324-13.787C168.7,158.586,167.306,160.279,165.694,161.821L165.694,161.821z
				 M165.694,161.821"/>
			<path style="fill:#EAEAEA;" d="M133.58,121.11c10.556-6.418,24.293-3.069,30.71,7.487c6.408,10.539,3.067,24.29-7.489,30.707
				c-10.539,6.408-24.297,3.054-30.705-7.486C119.679,141.263,123.041,127.518,133.58,121.11L133.58,121.11z M133.58,121.11"/>
		</g>
	</g>
</g>
</svg>
