<?xml version="1.0" encoding="UTF-8"?>
<svg width="1287px" height="324px" viewBox="0 0 1287 324" version="1.1" xmlns="http://www.w3.org/2000/svg" xmlns:xlink="http://www.w3.org/1999/xlink">
    <!-- Generator: Sketch 49.2 (51160) - http://www.bohemiancoding.com/sketch -->
    <title>Group</title>
    <desc>Created with Sketch.</desc>
    <defs></defs>
    <g id="Page-1" stroke="none" stroke-width="1" fill="none" fill-rule="evenodd">
        <g id="Group" fill="#FFFFFF">
            <path d="M162,324 C72.5298705,324 0,251.470129 0,162 C0,72.5298705 72.5298705,0 162,0 C251.470129,0 324,72.5298705 324,162 C324,251.470129 251.470129,324 162,324 Z M212.333942,84 C210.389927,84 208.413541,84.2591981 206.404725,84.7776022 C204.395909,85.2960063 202.484323,86.0412009 200.669909,87.0132086 C198.855495,87.9852162 197.235506,89.1840076 195.809895,90.6096188 C194.384284,92.03523 193.282692,93.6552184 192.505086,95.4696326 C190.301868,103.245694 187.936685,111.637234 185.409465,120.644504 C182.882246,129.651775 180.322664,138.75611 177.730644,147.957782 C175.138623,157.159454 172.611441,166.231389 170.149022,175.173859 C167.686603,184.116329 165.353819,192.41067 163.150602,200.05713 L132.629715,96.0528343 C131.852109,94.108819 130.750517,92.3916313 129.324906,90.9012196 C127.899295,89.4108079 126.279306,88.1796167 124.464892,87.2076091 C122.650478,86.2356015 120.706492,85.4904068 118.632876,84.9720028 C116.559259,84.4535987 114.550474,84.1944006 112.606459,84.1944006 C108.200024,84.0647995 103.599257,84.971993 98.8040193,86.9160083 C94.2679838,88.8600235 92,92.2943989 92,97.2192376 L92,231.161218 C92,237.382067 95.8231726,240.492445 103.469633,240.492445 C111.116093,240.492445 114.939265,237.382067 114.939265,231.161218 L114.939265,130.656133 L120.576881,129.87853 C123.946508,141.153819 127.056885,151.424545 129.908108,160.691018 C132.75933,169.957491 135.61051,179.061825 138.461732,188.004296 L152.458572,233.299624 C153.106577,235.502842 154.337768,237.18763 156.152182,238.354039 C157.966597,239.520448 160.104981,240.168443 162.567401,240.298044 C168.140244,240.427645 171.639419,238.224461 173.06503,233.688425 L196.393097,155.928204 L204.169119,130.656133 L209.806735,131.239334 L209.806735,231.161218 C209.806735,237.382067 213.629907,240.492445 221.276367,240.492445 C228.922827,240.492445 232.746,237.382067 232.746,231.161218 L232.746,97.2192376 C232.746,92.1647979 230.478016,88.7304225 225.941981,86.9160083 C221.017142,84.971993 216.481175,84 212.333942,84 Z" id="Combined-Shape"></path>
            <path d="M467.136,104.44 C470.208015,104.44 473.567982,105.159993 477.216,106.6 C480.576017,107.944007 482.256,110.487981 482.256,114.232 L482.256,213.448 C482.256,218.056023 479.424028,220.36 473.76,220.36 C468.095972,220.36 465.264,218.056023 465.264,213.448 L465.264,139.432 L461.088,139 L455.328,157.72 L438.048,215.32 C436.991995,218.680017 434.400021,220.312 430.272,220.216 C428.447991,220.12 426.864007,219.640004 425.52,218.776 C424.175993,217.911996 423.264002,216.664008 422.784,215.032 L412.416,181.48 C410.303989,174.855967 408.192011,168.112034 406.08,161.248 C403.967989,154.383966 401.664012,146.776042 399.168,138.424 L394.992,139 L394.992,213.448 C394.992,218.056023 392.160028,220.36 386.496,220.36 C380.831972,220.36 378,218.056023 378,213.448 L378,114.232 C378,110.583982 379.679983,108.040007 383.04,106.6 C386.592018,105.159993 389.999984,104.488 393.264,104.584 C394.704007,104.584 396.191992,104.775998 397.728,105.16 C399.264008,105.544002 400.703993,106.095996 402.048,106.816 C403.392007,107.536004 404.591995,108.447994 405.648,109.552 C406.704005,110.656006 407.519997,111.927993 408.096,113.368 L430.704,190.408 C432.336008,184.743972 434.063991,178.600033 435.888,171.976 C437.712009,165.351967 439.58399,158.632034 441.504,151.816 C443.42401,144.999966 445.319991,138.256033 447.192,131.584 C449.064009,124.911967 450.815992,118.696029 452.448,112.936 C453.024003,111.591993 453.839995,110.392005 454.896,109.336 C455.952005,108.279995 457.151993,107.392004 458.496,106.672 C459.840007,105.951996 461.255993,105.400002 462.744,105.016 C464.232007,104.631998 465.695993,104.44 467.136,104.44 Z M523.008,219.496 C520.031985,219.496 517.200013,219.088004 514.512,218.272 C511.823987,217.455996 509.232012,216.280008 506.736,214.744 L506.736,214.888 C502.031976,211.911985 499.68,206.44004 499.68,198.472 L499.68,191.416 C499.68,187.47998 500.375993,184.048015 501.768,181.12 C503.160007,178.191985 505.103988,175.864009 507.6,174.136 L507.456,174.136 C509.856012,172.503992 512.399987,171.280004 515.088,170.464 C517.776013,169.647996 520.367988,169.24 522.864,169.24 L554.688,169.24 L554.688,155.848 C554.688,153.447988 553.944007,151.26401 552.456,149.296 C550.967993,147.32799 548.448018,146.344 544.896,146.344 L528.048,146.344 C524.399982,146.344 521.880007,147.231991 520.488,149.008 C519.095993,150.784009 518.4,152.871988 518.4,155.272 L518.4,156.424 C518.4,161.416025 515.712027,163.912 510.336,163.912 C504.959973,163.912 502.272,161.416025 502.272,156.424 L502.272,155.128 C502.272,151.19198 502.967993,147.880013 504.36,145.192 C505.752007,142.503987 507.647988,140.248009 510.048,138.424 L509.904,138.424 C512.400012,136.791992 515.015986,135.448005 517.752,134.392 C520.488014,133.335995 523.103988,132.808 525.6,132.808 L547.488,132.808 C549.888012,132.808 552.455986,133.335995 555.192,134.392 C557.928014,135.448005 560.495988,136.791992 562.896,138.424 L562.752,138.424 C565.248012,140.248009 567.167993,142.623985 568.512,145.552 C569.856007,148.480015 570.528,151.863981 570.528,155.704 L570.528,213.448 C570.528,218.056023 567.888026,220.36 562.608,220.36 C561.551995,220.36 560.568005,220.312 559.656,220.216 C558.743995,220.12 557.928004,219.856002 557.208,219.424 C556.487996,218.991998 555.912002,218.368004 555.48,217.552 C555.047998,216.735996 554.832,215.656007 554.832,214.312 L554.688,182.776 L525.6,182.776 C523.487989,182.776 521.856006,183.015998 520.704,183.496 C519.551994,183.976002 518.640003,184.743995 517.968,185.8 C517.199996,187.432008 516.648002,188.703995 516.312,189.616 C515.975998,190.528005 515.808,191.559994 515.808,192.712 L515.808,198.328 C515.808,200.824012 516.551993,202.719994 518.04,204.016 C519.528007,205.312006 522.095982,205.96 525.744,205.96 L541.872,205.96 C545.424018,205.96 547.2,208.215977 547.2,212.728 C547.2,214.64801 546.768004,216.255994 545.904,217.552 C545.039996,218.848006 543.696009,219.496 541.872,219.496 L523.008,219.496 Z M658.368,196.6 C658.368,204.472039 655.776026,210.279981 650.592,214.024 C645.503975,217.672018 640.416025,219.496 635.328,219.496 L611.136,219.496 C606.047975,219.496 601.104024,217.672018 596.304,214.024 C593.999988,212.10399 592.224006,209.680015 590.976,206.752 C589.727994,203.823985 589.104,200.440019 589.104,196.6 L589.104,155.56 C589.104,147.783961 591.503976,142.024019 596.304,138.28 C598.704012,136.551991 601.175987,135.184005 603.72,134.176 C606.264013,133.167995 608.735988,132.664 611.136,132.664 L635.328,132.664 C637.632012,132.664 640.175986,133.119995 642.96,134.032 C645.744014,134.944005 648.335988,136.167992 650.736,137.704 C653.040012,139.336008 654.887993,141.591986 656.28,144.472 C657.672007,147.352014 658.368,150.75998 658.368,154.696 L658.368,161.896 C658.368,166.504023 655.728026,168.808 650.448,168.808 C645.167974,168.808 642.528,166.504023 642.528,161.896 L642.528,155.704 C642.528,153.303988 641.784007,151.12001 640.296,149.152 C638.807993,147.18399 636.288018,146.2 632.736,146.2 L614.736,146.2 C611.183982,146.2 608.664007,147.18399 607.176,149.152 C605.687993,151.12001 604.944,153.303988 604.944,155.704 L604.944,196.456 C604.944,198.760012 605.687993,200.91999 607.176,202.936 C608.664007,204.95201 611.183982,205.96 614.736,205.96 L632.736,205.96 C636.288018,205.96 638.807993,204.95201 640.296,202.936 C641.784007,200.91999 642.528,198.760012 642.528,196.456 L642.528,189.832 C642.528,185.319977 645.167974,183.064 650.448,183.064 C655.728026,183.064 658.368,185.319977 658.368,189.832 L658.368,196.6 Z M692.208,213.448 C692.208,218.056023 689.568026,220.36 684.288,220.36 C679.007974,220.36 676.368,218.056023 676.368,213.448 L676.368,111.208 C676.368,106.599977 679.007974,104.296 684.288,104.296 C689.568026,104.296 692.208,106.599977 692.208,111.208 L692.208,132.808 L722.592,132.808 C727.488024,132.808 732.575974,134.631982 737.856,138.28 C743.040026,141.928018 745.632,147.687961 745.632,155.56 L745.632,213.448 C745.632,218.056023 742.992026,220.36 737.712,220.36 C732.431974,220.36 729.792,218.056023 729.792,213.448 L729.792,156.856 C729.792,154.359988 729.024008,151.960012 727.488,149.656 L727.632,149.8 C726.383994,147.495988 723.840019,146.344 720,146.344 L692.208,146.344 L692.208,213.448 Z M780.912,213.448 C780.912,218.056023 778.272026,220.36 772.992,220.36 C767.615973,220.36 764.928,218.056023 764.928,213.448 L764.928,139.144 C764.928,134.535977 767.615973,132.232 772.992,132.232 C778.272026,132.232 780.912,134.535977 780.912,139.144 L780.912,213.448 Z M783.936,114.088 C783.936,117.160015 782.880011,119.751989 780.768,121.864 C778.655989,123.976011 776.064015,125.032 772.992,125.032 C769.919985,125.032 767.304011,123.976011 765.144,121.864 C762.983989,119.751989 761.904,117.160015 761.904,114.088 C761.904,110.919984 762.983989,108.280011 765.144,106.168 C767.304011,104.055989 769.919985,103 772.992,103 C776.064015,103 778.655989,104.055989 780.768,106.168 C782.880011,108.280011 783.936,110.919984 783.936,114.088 Z M816.768,213.448 C816.768,218.056023 814.128026,220.36 808.848,220.36 C803.567974,220.36 800.928,218.056023 800.928,213.448 L800.928,155.56 C800.928,151.62398 801.551994,148.216014 802.8,145.336 C804.048006,142.455986 806.015987,140.104009 808.704,138.28 C813.792025,134.631982 818.879975,132.808 823.968,132.808 L847.152,132.808 C852.048024,132.808 857.135974,134.631982 862.416,138.28 C867.600026,141.928018 870.192,147.687961 870.192,155.56 L870.192,213.448 C870.192,218.056023 867.552026,220.36 862.272,220.36 C856.991974,220.36 854.352,218.056023 854.352,213.448 L854.352,156.856 C854.352,154.359988 853.584008,151.960012 852.048,149.656 L852.192,149.8 C850.943994,147.495988 848.400019,146.344 844.56,146.344 L826.56,146.344 C822.62398,146.344 820.032006,147.495988 818.784,149.8 C817.439993,151.81601 816.768,154.167987 816.768,156.856 L816.768,213.448 Z M904.608,196.456 C904.608,198.760012 905.351993,200.91999 906.84,202.936 C908.328007,204.95201 910.847982,205.96 914.4,205.96 L932.4,205.96 C935.952018,205.96 938.471993,205.072009 939.96,203.296 C941.448007,201.519991 942.192,199.480012 942.192,197.176 L942.192,195.592 C942.192,191.079977 944.831974,188.824 950.112,188.824 C955.392026,188.824 958.032,191.079977 958.032,195.592 L958.032,197.32 C958.032,201.35202 957.384006,204.663987 956.088,207.256 C954.791994,209.848013 952.848013,212.10399 950.256,214.024 C945.167975,217.672018 940.080025,219.496 934.992,219.496 L910.8,219.496 C905.711975,219.496 900.768024,217.672018 895.968,214.024 C893.663988,212.10399 891.888006,209.680015 890.64,206.752 C889.391994,203.823985 888.768,200.440019 888.768,196.6 L888.768,155.56 C888.768,147.783961 891.167976,142.024019 895.968,138.28 C898.368012,136.551991 900.839987,135.184005 903.384,134.176 C905.928013,133.167995 908.399988,132.664 910.8,132.664 L934.992,132.664 C937.296012,132.664 939.839986,133.119995 942.624,134.032 C945.408014,134.944005 947.999988,136.167992 950.4,137.704 C952.704012,139.336008 954.551993,141.591986 955.944,144.472 C957.336007,147.352014 958.032,150.75998 958.032,154.696 L958.032,174.136 C958.032,176.344011 957.384006,178.311991 956.088,180.04 C954.791994,181.768009 952.416017,182.632 948.96,182.632 L917.856,182.632 C914.399983,182.632 912.576001,180.376023 912.384,175.864 C912.384,171.351977 914.207982,169.096 917.856,169.096 L942.336,169.096 L942.192,155.704 C942.192,153.303988 941.448007,151.12001 939.96,149.152 C938.471993,147.18399 935.952018,146.2 932.4,146.2 L914.4,146.2 C910.847982,146.2 908.328007,147.18399 906.84,149.152 C905.351993,151.12001 904.608,153.303988 904.608,155.704 L904.608,196.456 Z M1055.232,196.456 C1055.232,204.232039 1052.64003,210.039981 1047.456,213.88 C1044.95999,215.704009 1042.39201,217.119995 1039.752,218.128 C1037.11199,219.136005 1034.54401,219.64 1032.048,219.64 L1000.656,219.64 C998.159988,219.64 995.592013,219.136005 992.952,218.128 C990.311987,217.119995 987.744012,215.704009 985.248,213.88 C982.751988,211.95999 980.832007,209.584014 979.488,206.752 C978.143993,203.919986 977.472,200.48802 977.472,196.456 L977.472,128.056 C977.472,124.215981 978.143993,120.832015 979.488,117.904 C980.832007,114.975985 982.751988,112.600009 985.248,110.776 L985.104,110.776 C987.600012,109.143992 990.191987,107.800005 992.88,106.744 C995.568013,105.687995 998.159988,105.16 1000.656,105.16 L1032.048,105.16 C1034.54401,105.16 1037.13599,105.687995 1039.824,106.744 C1042.51201,107.800005 1045.10399,109.143992 1047.6,110.776 L1047.456,110.776 C1049.95201,112.600009 1051.87199,114.975985 1053.216,117.904 C1054.56001,120.832015 1055.232,124.215981 1055.232,128.056 L1055.232,137.992 C1055.232,142.600023 1052.35203,144.904 1046.592,144.904 C1040.92797,144.904 1038.096,142.600023 1038.096,137.992 L1038.096,129.352 C1038.096,126.951988 1037.37601,124.74401 1035.936,122.728 C1034.49599,120.71199 1032.00002,119.704 1028.448,119.704 L1004.256,119.704 C1000.70398,119.704 998.208007,120.71199 996.768,122.728 C995.327993,124.74401 994.608,126.951988 994.608,129.352 L994.608,195.304 C994.608,197.800012 995.327993,200.05599 996.768,202.072 C998.208007,204.08801 1000.70398,205.096 1004.256,205.096 L1028.448,205.096 C1032.00002,205.096 1034.49599,204.08801 1035.936,202.072 C1037.37601,200.05599 1038.096,197.800012 1038.096,195.304 L1038.096,186.952 C1038.096,182.439977 1040.92797,180.184 1046.592,180.184 C1052.35203,180.184 1055.232,182.439977 1055.232,186.952 L1055.232,196.456 Z M1120.896,132.808 C1123.39201,132.808 1125.95999,133.335995 1128.6,134.392 C1131.24001,135.448005 1133.80799,136.791992 1136.304,138.424 L1136.16,138.424 C1138.65601,140.248009 1140.57599,142.623985 1141.92,145.552 C1143.26401,148.480015 1143.936,151.863981 1143.936,155.704 L1143.936,196.6 C1143.936,204.472039 1141.34403,210.279981 1136.16,214.024 C1131.07197,217.672018 1125.98403,219.496 1120.896,219.496 L1097.856,219.496 C1095.35999,219.496 1092.81601,219.064004 1090.224,218.2 C1087.63199,217.335996 1085.08801,215.94401 1082.592,214.024 C1077.40797,210.375982 1074.816,204.56804 1074.816,196.6 L1074.816,155.704 C1074.816,151.863981 1075.48799,148.480015 1076.832,145.552 C1078.17601,142.623985 1080.09599,140.248009 1082.592,138.424 L1082.448,138.424 C1084.84801,136.791992 1087.39199,135.448005 1090.08,134.392 C1092.76801,133.335995 1095.35999,132.808 1097.856,132.808 L1120.896,132.808 Z M1118.304,205.96 C1121.85602,205.96 1124.37599,204.95201 1125.864,202.936 C1127.35201,200.91999 1128.096,198.760012 1128.096,196.456 L1128.096,155.848 C1128.096,153.447988 1127.35201,151.26401 1125.864,149.296 C1124.37599,147.32799 1121.85602,146.344 1118.304,146.344 L1100.448,146.344 C1096.89598,146.344 1094.37601,147.32799 1092.888,149.296 C1091.39999,151.26401 1090.656,153.447988 1090.656,155.848 L1090.656,196.456 C1090.656,198.760012 1091.39999,200.91999 1092.888,202.936 C1094.37601,204.95201 1096.89598,205.96 1100.448,205.96 L1118.304,205.96 Z M1177.92,213.448 C1177.92,218.056023 1175.28003,220.36 1170,220.36 C1164.71997,220.36 1162.08,218.056023 1162.08,213.448 L1162.08,155.56 C1162.08,151.62398 1162.70399,148.216014 1163.952,145.336 C1165.20001,142.455986 1167.16799,140.104009 1169.856,138.28 C1174.94403,134.631982 1180.03197,132.808 1185.12,132.808 L1208.304,132.808 C1213.20002,132.808 1218.28797,134.631982 1223.568,138.28 C1228.75203,141.928018 1231.344,147.687961 1231.344,155.56 L1231.344,213.448 C1231.344,218.056023 1228.70403,220.36 1223.424,220.36 C1218.14397,220.36 1215.504,218.056023 1215.504,213.448 L1215.504,156.856 C1215.504,154.359988 1214.73601,151.960012 1213.2,149.656 L1213.344,149.8 C1212.09599,147.495988 1209.55202,146.344 1205.712,146.344 L1187.712,146.344 C1183.77598,146.344 1181.18401,147.495988 1179.936,149.8 C1178.59199,151.81601 1177.92,154.167987 1177.92,156.856 L1177.92,213.448 Z M1269.936,213.448 C1269.936,218.056023 1267.24803,220.36 1261.872,220.36 C1256.59197,220.36 1253.952,218.056023 1253.952,213.448 L1253.952,146.344 L1247.04,146.344 C1243.58398,146.344 1241.76,144.088023 1241.568,139.576 C1241.568,135.063977 1243.39198,132.808 1247.04,132.808 L1253.952,132.808 L1253.952,125.896 C1253.952,121.95998 1254.50399,118.624014 1255.608,115.888 C1256.71201,113.151986 1258.51199,111.064007 1261.008,109.624 L1261.008,109.768 C1263.50401,108.231992 1266.07199,107.032004 1268.712,106.168 C1271.35201,105.303996 1274.15999,104.872 1277.136,104.872 L1280.592,104.872 C1284.14402,104.872 1285.92,107.127977 1285.92,111.64 C1286.112,116.152023 1284.33602,118.408 1280.592,118.408 L1278.288,118.408 C1276.46399,118.408 1275.00001,118.575998 1273.896,118.912 C1272.79199,119.248002 1271.952,119.751997 1271.376,120.424 C1270.8,121.096003 1270.416,121.911995 1270.224,122.872 C1270.032,123.832005 1269.936,124.887994 1269.936,126.04 L1269.936,132.808 L1280.736,132.808 C1284.48002,132.808 1286.256,135.063977 1286.064,139.576 C1286.064,144.088023 1284.28802,146.344 1280.736,146.344 L1269.936,146.344 L1269.936,213.448 Z" id="MachineConf"></path>
        </g>
    </g>
</svg>