<?xml version="1.0" standalone="no"?>
<!DOCTYPE svg PUBLIC "-//W3C//DTD SVG 20010904//EN"
 "http://www.w3.org/TR/2001/REC-SVG-20010904/DTD/svg10.dtd">
<svg version="1.0" xmlns="http://www.w3.org/2000/svg"
 width="1351.000000pt" height="1351.000000pt" viewBox="0 0 1351.000000 1351.000000"
 preserveAspectRatio="xMidYMid meet">
<metadata>
Created by potrace 1.11, written by Peter Selinger 2001-2013
</metadata>
<g transform="translate(0.000000,1351.000000) scale(0.100000,-0.100000)"
fill="#000000" stroke="none">
<path d="M6419 13506 c-2 -2 -56 -7 -119 -10 -63 -4 -128 -9 -145 -11 -16 -2
-61 -6 -100 -10 -38 -3 -83 -8 -100 -10 -16 -2 -53 -6 -81 -10 -29 -3 -60 -7
-70 -9 -11 -2 -41 -7 -67 -10 -27 -4 -58 -9 -70 -12 -12 -2 -39 -6 -62 -10
-22 -3 -62 -10 -90 -16 -27 -5 -63 -12 -80 -15 -202 -33 -665 -161 -920 -253
-93 -33 -174 -62 -180 -64 -5 -2 -23 -8 -38 -14 -16 -7 -30 -12 -33 -12 -2 0
-23 -9 -47 -19 -23 -11 -69 -31 -102 -44 -143 -58 -503 -233 -645 -313 -144
-82 -365 -217 -368 -225 -2 -5 -7 -9 -12 -9 -15 0 -436 -293 -460 -320 -3 -3
-36 -30 -75 -60 -318 -249 -679 -599 -950 -920 -53 -63 -107 -126 -118 -140
-111 -131 -385 -519 -498 -708 -24 -40 -52 -85 -61 -100 -10 -15 -21 -33 -25
-41 -3 -8 -31 -58 -61 -110 -74 -130 -248 -487 -315 -646 -60 -143 -167 -428
-167 -445 0 -6 -4 -18 -10 -28 -18 -34 -129 -407 -145 -493 -2 -11 -7 -29 -10
-39 -3 -10 -8 -27 -10 -37 -2 -10 -15 -67 -29 -128 -14 -60 -27 -127 -31 -149
-3 -21 -7 -41 -9 -45 -2 -3 -7 -28 -10 -56 -4 -27 -9 -57 -11 -65 -2 -8 -6
-31 -9 -50 -3 -19 -8 -53 -11 -75 -11 -71 -14 -89 -20 -135 -8 -68 -14 -119
-20 -185 -3 -33 -8 -78 -10 -100 -27 -241 -27 -984 0 -1200 2 -16 6 -59 9 -95
4 -36 8 -76 10 -90 2 -14 7 -51 11 -84 4 -32 8 -68 10 -80 4 -25 13 -80 20
-133 13 -85 69 -366 96 -478 11 -44 22 -91 25 -105 14 -69 123 -424 179 -584
147 -418 343 -833 572 -1215 91 -151 250 -391 346 -521 64 -87 204 -268 217
-280 3 -3 27 -32 55 -65 131 -157 229 -264 411 -448 71 -73 206 -199 289 -272
44 -38 86 -76 94 -83 8 -8 46 -39 85 -70 39 -31 73 -59 76 -62 3 -3 25 -21 50
-40 25 -19 47 -37 50 -40 3 -3 56 -43 118 -89 193 -141 450 -308 650 -422 17
-11 49 -29 70 -40 20 -12 109 -59 197 -105 138 -71 217 -109 430 -204 79 -35
325 -130 338 -130 7 0 17 -4 23 -9 17 -16 505 -169 593 -186 13 -2 31 -7 41
-10 10 -3 27 -7 37 -9 10 -2 38 -9 63 -16 25 -7 52 -13 60 -15 8 -2 83 -17
165 -33 83 -17 168 -33 190 -36 22 -4 65 -11 95 -16 57 -9 91 -14 175 -25 135
-17 217 -26 264 -30 226 -17 333 -20 616 -20 336 0 522 8 690 30 22 2 67 7
100 10 33 3 67 8 75 10 8 2 44 7 80 10 36 4 67 8 70 10 3 2 30 6 60 10 30 4
57 8 60 10 3 2 30 6 60 10 30 4 58 9 61 11 4 2 22 6 40 9 19 2 43 6 54 9 11 2
52 11 90 20 279 60 604 153 820 234 39 14 75 27 80 28 52 9 495 203 696 305
1198 606 2175 1539 2847 2719 86 152 253 492 322 655 34 83 68 164 76 180 31
73 155 428 169 485 2 8 13 47 24 85 42 140 52 176 56 193 2 9 17 76 35 147 38
158 72 330 95 475 3 19 7 46 10 60 2 14 7 45 10 70 4 25 8 56 10 70 2 14 6 50
10 80 3 30 8 71 10 90 2 19 7 69 10 110 4 41 8 93 10 115 21 232 21 783 0 995
-2 19 -6 71 -10 115 -3 44 -8 91 -10 105 -2 14 -7 54 -10 90 -4 36 -9 72 -10
81 -2 9 -6 40 -10 69 -4 29 -9 62 -11 74 -2 12 -7 41 -10 66 -3 25 -7 52 -9
60 -2 8 -7 31 -10 50 -6 35 -53 261 -60 290 -2 8 -10 44 -18 80 -56 258 -200
699 -332 1020 -70 170 -237 515 -319 658 -20 35 -36 68 -36 73 0 5 -4 9 -10 9
-5 0 -10 5 -10 12 0 24 -217 365 -369 578 -91 128 -304 400 -375 479 -177 196
-229 252 -333 356 -174 174 -317 305 -448 411 -33 27 -69 57 -80 68 -38 35
-371 282 -460 341 -49 33 -92 62 -95 65 -3 3 -14 10 -25 17 -499 304 -667 392
-1080 569 -354 151 -841 299 -1260 383 -119 24 -281 52 -385 66 -25 3 -56 8
-70 10 -25 3 -102 13 -170 20 -53 6 -178 17 -240 22 -68 5 -797 13 -801 9z
m471 -3381 c95 -7 119 -9 205 -19 197 -23 242 -43 362 -162 98 -98 142 -165
172 -259 34 -108 469 -1440 531 -1625 15 -47 109 -332 209 -635 99 -302 220
-671 269 -820 101 -305 363 -1106 454 -1385 33 -102 87 -264 118 -360 166
-501 280 -860 287 -905 35 -205 -105 -366 -392 -452 -71 -21 -112 -27 -195
-27 -98 -1 -108 1 -158 28 -68 38 -133 105 -171 175 -16 31 -68 175 -116 321
-48 146 -102 310 -120 365 -18 55 -97 296 -175 535 -78 239 -152 467 -165 505
-24 69 -339 1033 -456 1395 -33 102 -64 194 -68 205 -5 11 -27 76 -49 145 -52
162 -310 952 -372 1140 -27 80 -103 314 -170 520 -147 453 -157 479 -164 460
-7 -22 -46 -139 -116 -355 -34 -104 -97 -298 -140 -430 -43 -132 -140 -429
-215 -660 -75 -231 -162 -496 -193 -590 -31 -93 -57 -174 -58 -180 -2 -9 -55
-172 -199 -610 -31 -93 -58 -177 -60 -185 -2 -8 -27 -85 -55 -170 -29 -85 -53
-159 -54 -165 -1 -5 -62 -192 -135 -415 -394 -1203 -433 -1322 -435 -1335 -1
-5 -7 -23 -13 -40 -6 -16 -39 -115 -73 -218 -66 -202 -104 -278 -173 -349 -78
-79 -115 -93 -242 -92 -73 0 -130 6 -170 18 -33 9 -67 18 -76 21 -76 17 -209
94 -265 151 -64 66 -87 124 -88 219 0 44 2 91 6 105 7 27 195 605 205 630 4 8
7 17 8 20 1 3 4 12 7 20 3 8 52 157 108 330 57 173 147 448 200 610 54 162
184 558 290 880 106 322 216 657 245 745 55 166 169 513 539 1640 314 954 313
951 349 1008 83 130 205 198 392 221 28 4 61 9 75 11 43 8 101 14 200 21 52 3
96 7 97 8 3 3 117 -2 203 -9z m-15 -3960 c138 -24 276 -109 376 -233 32 -40
59 -79 59 -87 0 -7 3 -15 8 -17 12 -5 44 -100 57 -173 64 -342 -163 -674 -504
-737 -292 -54 -567 92 -692 367 -16 36 -32 82 -35 102 -3 21 -7 44 -10 51 -7
21 -6 173 1 217 33 196 177 383 358 465 108 49 256 66 382 45z"/>
</g>
</svg>
