<svg id="Layer_1" data-name="Layer 1" xmlns="http://www.w3.org/2000/svg" viewBox="0 0 416.45 107.11"><defs><style>.cls-1{fill:#bc1c29;}.cls-2{fill:#e22434;}.cls-3{fill:#97101b;}</style></defs><title>redhatopenshift</title><path class="cls-1" d="M33.87,48,15.14,54.85a54.41,54.41,0,0,0,1.48,8.87l17.79-6.48A34.89,34.89,0,0,1,33.87,48"/><path class="cls-1" d="M116.63,27.33a53.48,53.48,0,0,0-4.57-7.76L93.34,26.39a34.81,34.81,0,0,1,5.5,7.41Z"/><path class="cls-2" d="M75.43,22a34.57,34.57,0,0,1,10.11,7.21l18.73-6.81A53.52,53.52,0,0,0,7.35,57.68l18.73-6.81A34.7,34.7,0,0,1,75.43,22"/><path class="cls-2" d="M17.79,63.3,0,69.78A54.22,54.22,0,0,0,8.36,87.91l18.69-6.8A35,35,0,0,1,17.79,63.3"/><path class="cls-2" d="M95.4,56.24a34.24,34.24,0,0,1-3.14,12A34.82,34.82,0,0,1,46,85.09a34.46,34.46,0,0,1-10.14-7.2L17.2,84.7a53.06,53.06,0,0,0,20.89,17.4,53.63,53.63,0,0,0,71.18-25.91,53,53,0,0,0,4.82-26.75Z"/><path class="cls-2" d="M100,33.38,82.21,39.85a34.93,34.93,0,0,1,4.36,19.59l18.69-6.79A54,54,0,0,0,100,33.38"/><path class="cls-3" d="M33.8,51.8A34.18,34.18,0,0,1,33.87,48L15.14,54.85c.09,1.2.25,2.39.43,3.58Z"/><path class="cls-3" d="M113.92,22.39c-.59-1-1.2-1.9-1.85-2.82L93.34,26.39A31.55,31.55,0,0,1,95.65,29Z"/><path class="cls-1" d="M17.2,84.7A53.29,53.29,0,0,0,22,90.48L42.3,83.06a34.41,34.41,0,0,1-6.42-5.17Zm96.89-35.26L95.4,56.23a34.25,34.25,0,0,1-1.58,8l20.34-7.42a53,53,0,0,0-.07-7.42"/><path d="M151.42,42.92l-3.94-8.13h-2.69v8.13h-6.54V18.81H149a16,16,0,0,1,3.84.43,8.17,8.17,0,0,1,3,1.36A6.08,6.08,0,0,1,157.76,23a8.86,8.86,0,0,1,.67,3.63,7.73,7.73,0,0,1-1.17,4.44,7.42,7.42,0,0,1-3.18,2.62l4.83,9.2ZM151.1,25a3,3,0,0,0-2.27-.72h-4v5.27h3.95a3.27,3.27,0,0,0,2.35-.69,2.69,2.69,0,0,0,.69-2A2.62,2.62,0,0,0,151.1,25Z"/><path d="M163.94,42.92V18.81H182.4v5.61H170.55v3.24h7.13v5.51h-7.13v4.13h12.09v5.61Z"/><path d="M208,36.46a8.69,8.69,0,0,1-2.48,3.75,10,10,0,0,1-4.08,2.07,22.27,22.27,0,0,1-5.63.64h-7.82V18.81h8.44a20.89,20.89,0,0,1,5.13.59,9.35,9.35,0,0,1,3.91,2A9.11,9.11,0,0,1,207.9,25a15.88,15.88,0,0,1,.88,5.68A17.26,17.26,0,0,1,208,36.46ZM201.63,28a4.62,4.62,0,0,0-.95-2A3.85,3.85,0,0,0,199,24.89a8.22,8.22,0,0,0-2.62-.36h-1.65V37.21h1.45a9.4,9.4,0,0,0,2.65-.33,4,4,0,0,0,1.81-1.07,4.32,4.32,0,0,0,1-2,12.5,12.5,0,0,0,.31-3A12.23,12.23,0,0,0,201.63,28Z"/><path d="M240.57,42.92V33.42h-7.51v9.51h-6.82V18.81h6.82V27.6h7.51V18.81h6.82V42.92Z"/><path d="M268.88,42.92l-1.31-4.24h-7.23L259,42.92h-7.16l8.75-24.11h6.75l8.75,24.11ZM265.5,31.8q-.31-1.17-.55-2l-.43-1.55q-.19-.69-.33-1.26T264,25.77q-.1.62-.24,1.21t-.33,1.27L263,29.8l-.55,2L262,33.38h4Z"/><path d="M289.75,24.63V42.92h-6.68V24.63h-6.75V18.81H296.5v5.82Z"/><path d="M305.45,23a3,3,0,0,1-1.64,1.64,3.32,3.32,0,0,1-2.46,0A3,3,0,0,1,299.71,23a3.33,3.33,0,0,1,0-2.46,3,3,0,0,1,1.64-1.64,3.32,3.32,0,0,1,2.46,0,3,3,0,0,1,1.64,1.64,3.31,3.31,0,0,1,0,2.46ZM305,20.73a2.51,2.51,0,0,0-1.38-1.38,2.79,2.79,0,0,0-2.06,0,2.52,2.52,0,0,0-1.38,1.38,2.78,2.78,0,0,0,0,2.06,2.53,2.53,0,0,0,1.38,1.38,2.79,2.79,0,0,0,2.06,0A2.52,2.52,0,0,0,305,22.79a2.78,2.78,0,0,0,0-2.06Zm-1.2,1a1,1,0,0,1-.53.34l.7,1.37h-.68l-.66-1.31H302v1.31h-.58V20h1.48a1.48,1.48,0,0,1,.42.06,1,1,0,0,1,.35.19.89.89,0,0,1,.24.32A1.08,1.08,0,0,1,304,21,1,1,0,0,1,303.8,21.68Zm-.53-1a.61.61,0,0,0-.39-.12H302v1h.9a.63.63,0,0,0,.39-.12.5.5,0,0,0,0-.73Z"/><path d="M165.63,75.36a18,18,0,0,1-3.07,5.92,14.22,14.22,0,0,1-4.78,3.87,14.3,14.3,0,0,1-12.27,0,13.75,13.75,0,0,1-4.73-3.85,18,18,0,0,1-3-5.89,25.17,25.17,0,0,1-1.06-7.49,24.85,24.85,0,0,1,1.08-7.52,18.29,18.29,0,0,1,3-5.92,14,14,0,0,1,4.75-3.87,14.31,14.31,0,0,1,12.27,0,13.78,13.78,0,0,1,4.73,3.85,18.37,18.37,0,0,1,3,5.89,24.62,24.62,0,0,1,1.08,7.49A24.87,24.87,0,0,1,165.63,75.36Zm-3.8-13.59A15.34,15.34,0,0,0,159.48,57,10.53,10.53,0,0,0,156,54a9.3,9.3,0,0,0-4.39-1.06A9,9,0,0,0,147.26,54a10.34,10.34,0,0,0-3.44,3,14.93,14.93,0,0,0-2.27,4.7,21.5,21.5,0,0,0-.83,6.17,20.89,20.89,0,0,0,.85,6.17,15.69,15.69,0,0,0,2.33,4.75,10.26,10.26,0,0,0,3.49,3,9.29,9.29,0,0,0,4.39,1.06,9.18,9.18,0,0,0,4.34-1.06,10.24,10.24,0,0,0,3.46-3,15,15,0,0,0,2.27-4.7,21.55,21.55,0,0,0,.83-6.17A20.9,20.9,0,0,0,161.83,61.77Z"/><path d="M200.37,65.39a9.83,9.83,0,0,1-2.51,3.51A10.56,10.56,0,0,1,194,71a16.26,16.26,0,0,1-5,.72h-8.78V86h-4V49.81h13.54a15.46,15.46,0,0,1,4.57.65,10,10,0,0,1,3.64,2,9.24,9.24,0,0,1,2.43,3.38,13.26,13.26,0,0,1,0,9.56Zm-5.09-10a7.89,7.89,0,0,0-5.68-1.89h-9.35V68.1h8.83q8.16,0,8.16-7.34A7.14,7.14,0,0,0,195.28,55.36Z"/><path d="M209.69,86V49.81h21.85v3.67H213.72V64.85h10.33v3.67H213.72V82.31h18.6V86Z"/><path d="M263.84,86,248.07,61.23q-.31-.46-.67-1.11l-.72-1.29q-.36-.65-.7-1.21a8.51,8.51,0,0,1-.49-.93V86h-3.93V49.81h3.93L261.15,75q.31.47.67,1.11l.72,1.29q.36.65.7,1.21a8.45,8.45,0,0,1,.49.93V49.81h3.93V86Z"/><path d="M300.08,80.45a8.8,8.8,0,0,1-2.35,3.2A11.44,11.44,0,0,1,294,85.77a15.33,15.33,0,0,1-5.06.78A16.35,16.35,0,0,1,282,85.12a17.81,17.81,0,0,1-5.29-3.59l2.69-3a18.34,18.34,0,0,0,4.44,3.15A11.38,11.38,0,0,0,289,82.88a9,9,0,0,0,5.71-1.65,5.47,5.47,0,0,0,2.09-4.55,6.07,6.07,0,0,0-.41-2.27A5.05,5.05,0,0,0,295,72.49a13.42,13.42,0,0,0-2.66-1.73A33.84,33.84,0,0,0,288.22,69a36,36,0,0,1-4.93-2.09,13.4,13.4,0,0,1-3.2-2.27A7.35,7.35,0,0,1,278.33,62a10.15,10.15,0,0,1-.54-3.46,8.77,8.77,0,0,1,.83-3.87,8.61,8.61,0,0,1,2.3-2.92,10,10,0,0,1,3.57-1.83,16.22,16.22,0,0,1,4.62-.62,16.48,16.48,0,0,1,6.17,1,19.49,19.49,0,0,1,4.83,2.84l-2.58,3.15a16,16,0,0,0-4-2.51,12,12,0,0,0-4.73-.85,10.36,10.36,0,0,0-3.2.44,6.45,6.45,0,0,0-2.2,1.16,4.31,4.31,0,0,0-1.24,1.68,5.37,5.37,0,0,0-.39,2,6.25,6.25,0,0,0,.31,2A4.34,4.34,0,0,0,283.36,62,11.19,11.19,0,0,0,286,63.71a43.4,43.4,0,0,0,4.42,1.81,38,38,0,0,1,5,2.17,12.55,12.55,0,0,1,3.23,2.38,7.68,7.68,0,0,1,1.73,2.84,11.29,11.29,0,0,1,.52,3.57A9.94,9.94,0,0,1,300.08,80.45Z"/><path d="M332.81,86v-17h-18V86h-4V49.81h4V65.26h18V49.81h4V86Z"/><path d="M348.15,86V49.81h4V86Z"/><path d="M367.52,53.48v12h9.92v3.67h-9.92V86h-4V49.81h21.23v3.67Z"/><path d="M405.8,53.48V86h-4V53.48H391.13V49.81h25.32v3.67Z"/></svg>