<?xml version="1.0" encoding="utf-8"?>
<!-- Generator: Adobe Illustrator 21.1.0, SVG Export Plug-In . SVG Version: 6.00 Build 0)  -->
<svg version="1.1" id="Layer_1" xmlns="http://www.w3.org/2000/svg" xmlns:xlink="http://www.w3.org/1999/xlink" x="0px" y="0px"
	 viewBox="0 0 140.2 191.3" style="enable-background:new 0 0 140.2 191.3;" xml:space="preserve">
<style type="text/css">
	.st0{fill:#87D1CC;}
	.st1{fill:#41908C;}
	.st2{fill:#0A0809;}
	.st3{fill:#AE174E;}
	.st4{fill:#F87FB7;}
	.st5{fill:#FFFFFF;}
	.st6{fill:#D9DFD5;}
	.st7{fill:#D8AC86;}
	.st8{fill:#A17E59;}
	.st9{fill:#342D26;}
	.st10{fill:#1F1A17;}
	.st11{fill:#C2BEB4;}
</style>
<g>
	<path class="st0" d="M121.3,163.2c5.8,0.8,12.2,0.1,16.4-3.3c1.4-1.1,2.1-2.3,1.7-4.2c-0.3-1.6-1.3-3.3-3-3.7
		c-4.9-1.1-9.9,0.4-14.5,1.2"/>
</g>
<g>
	<path class="st1" d="M136.2,157.1c1.3-1.1,2.1-2.3,1.7-4.2c0.8,0.7,1.2,1.8,1.4,2.8c0.4,1.9-0.3,3.1-1.7,4.2
		c-4.2,3.4-10.6,4.1-16.4,3.3l0.1-2.7C126.7,161,132.4,160.2,136.2,157.1z"/>
</g>
<g>
	<path class="st2" d="M121.3,163.2c0,0,0.7,0,1.8,0c0.6,0,1.3,0,2,0c0.8,0,1.7-0.1,2.6-0.2c1.9-0.3,4.1-0.7,6.3-1.7
		c1.1-0.5,2.1-1.1,3.1-1.8c1-0.7,1.6-1.6,1.7-2.7c0-1-0.4-2.3-1-3.1c-0.3-0.4-0.7-0.7-1.2-0.9c-0.1,0-0.2-0.1-0.3-0.1l-0.5-0.1
		c-0.3-0.1-0.6-0.1-0.9-0.2c-2.3-0.3-4.6-0.2-6.5,0c-1.9,0.2-3.5,0.4-4.7,0.6c-1.1,0.1-1.8,0.2-1.8,0.2s0.6-0.2,1.7-0.5
		c1.1-0.3,2.7-0.8,4.6-1.2c1.9-0.4,4.3-0.7,6.8-0.5c0.3,0,0.7,0.1,0.9,0.1l0.5,0.1c0.2,0,0.4,0.1,0.6,0.1c0.7,0.2,1.4,0.7,1.9,1.3
		c0.5,0.6,0.8,1.2,1.1,1.9c0.1,0.2,0.1,0.4,0.2,0.5c0,0.1,0.1,0.3,0.1,0.5c0.1,0.4,0.1,0.7,0.1,1.1c0,0.8-0.3,1.6-0.7,2.2
		c-0.4,0.6-1,1.1-1.5,1.5c-1.1,0.8-2.3,1.5-3.4,1.9c-2.4,0.9-4.7,1.2-6.7,1.3c-1,0-1.9,0-2.7-0.1c-0.8-0.1-1.5-0.1-2.1-0.2
		c-0.6-0.1-1-0.2-1.3-0.2C121.4,163.3,121.3,163.2,121.3,163.2z"/>
</g>
<g>
	<path class="st0" d="M114.7,22.1c-0.8,3.2-3.3,5.8-5.9,7.7c-2.5,1.8-6.4-0.9-7.9-3c-1.3-1.8,0.1-3.5,0.4-5.3
		c0.4-2.3,0.4-4.9,2.4-6.4c2.2-1.6,5.9-0.6,8.1,0.6C114.2,17.1,115.3,19.4,114.7,22.1z"/>
</g>
<g>
	<path class="st1" d="M104.6,17.3c-0.1-0.1-0.1-0.3,0-0.4c0.1-0.1,0.2-0.1,0.3-0.2c0.5-0.1,1-0.1,1.5,0c1.6,0.2,3.3,0.8,4.5,1.9
		c0.3,0.3,0.6,0.7,0.6,1.1c0,0.1,0,0.2-0.1,0.3c-0.1,0.1-0.2,0.1-0.3,0.1c-1.4,0.3-2.5,1.2-3.6,2.2c-0.5,0.5-0.9,1.1-1.2,1.7
		c-0.1,0.3-0.3,0.6-0.3,1c0,0.1-0.1,0.9-0.1,1c-0.3,0.2-0.6,0.4-1,0.4c-0.1-1.3,0.8-3.9,0.8-4.9c0-1-0.1-1.9-0.5-2.8
		c-0.1-0.4-0.3-0.7-0.4-1.1C104.8,17.6,104.6,17.4,104.6,17.3z"/>
</g>
<g>
	<path class="st2" d="M106.9,30.9c-2.5,0-5.2-2.1-6.4-3.8c-1.1-1.5-0.5-2.9-0.1-4.2c0.2-0.5,0.3-1,0.4-1.4c0.1-0.4,0.1-0.9,0.2-1.3
		c0.3-2,0.6-4.1,2.4-5.4c2.6-1.9,6.6-0.5,8.6,0.6c2.6,1.5,3.8,4.1,3.1,6.9l0,0c-0.9,3.8-4.2,6.6-6.1,8
		C108.4,30.7,107.6,30.9,106.9,30.9z M106.7,14.8c-1,0-1.9,0.2-2.6,0.7c-1.5,1.1-1.7,2.9-2,4.8c-0.1,0.5-0.1,0.9-0.2,1.3
		c-0.1,0.5-0.3,1.1-0.5,1.6c-0.4,1.2-0.8,2.2-0.1,3.3c1.3,1.8,5,4.5,7.2,2.9c1.8-1.3,4.9-3.9,5.7-7.4l0,0c0.6-2.5-0.4-4.6-2.6-5.8
		C110.1,15.4,108.3,14.8,106.7,14.8z"/>
</g>
<g>
	<path class="st2" d="M111.7,20c0,0-0.7,0.2-1.5,0.7c-0.4,0.2-0.9,0.6-1.4,0.9c-0.5,0.4-0.9,0.8-1.3,1.3c-0.8,1-1.5,2.1-1.8,3.1
		c-0.2,0.5-0.3,0.9-0.3,1.2c-0.1,0.3-0.1,0.5-0.1,0.5s0-0.2-0.1-0.5c0-0.3-0.1-0.7,0-1.3c0-0.5,0.2-1.2,0.5-1.8
		c0.3-0.6,0.7-1.2,1.1-1.8c0.5-0.5,1-1,1.6-1.4c0.6-0.4,1.2-0.6,1.7-0.7c0.5-0.1,1-0.2,1.3-0.2C111.5,20,111.7,20,111.7,20z"/>
</g>
<g>
	<path class="st2" d="M104.4,17.1c0,0,0.1,0.1,0.4,0.3c0.2,0.2,0.5,0.5,0.8,0.9c0.3,0.4,0.5,1,0.7,1.6c0.1,0.3,0.2,0.6,0.2,1
		c0,0.4,0,0.7,0,1c0,0.7-0.1,1.4-0.3,2c-0.2,0.6-0.5,1.2-0.8,1.6c-0.3,0.4-0.6,0.7-0.8,0.9c-0.2,0.2-0.3,0.3-0.3,0.3
		s0.1-0.2,0.2-0.4c0.1-0.3,0.3-0.6,0.4-1.1c0.3-0.9,0.6-2.1,0.6-3.3c0-0.3,0-0.6,0-0.9c0-0.3,0-0.6-0.1-0.9
		c-0.1-0.6-0.2-1.1-0.4-1.5C104.7,17.6,104.4,17.1,104.4,17.1z"/>
</g>
<g>
	<path class="st0" d="M63.5,5.5c0.2,3-1.3,6-3.1,8.4c-1.7,2.2-5.8,1-7.7-0.5c-1.6-1.2-0.9-3.1-1-4.7c-0.2-2.1-1-4.4,0.4-6.3
		c1.5-2,5-2.2,7.2-1.7C61.7,1.2,63.4,3,63.5,5.5z"/>
</g>
<g>
	<path class="st1" d="M53.4,4.1c-0.1-0.1-0.2-0.2-0.1-0.3c0-0.1,0.1-0.2,0.2-0.2c0.4-0.2,0.9-0.3,1.3-0.4c1.5-0.3,3.1-0.2,4.5,0.4
		c0.4,0.2,0.7,0.4,0.9,0.8c0,0.1,0,0.2,0,0.3c0,0.1-0.1,0.1-0.2,0.2c-1.2,0.7-1.9,1.7-2.5,2.9c-0.3,0.6-0.5,1.2-0.6,1.8
		c0,0.3-0.1,0.6,0,0.9c0,0.1,0.2,0.8,0.1,0.9c-0.2,0.3-0.5,0.5-0.7,0.6c-0.5-1.1-0.4-3.7-0.6-4.5c-0.2-0.9-0.6-1.6-1.2-2.3
		c-0.2-0.3-0.4-0.6-0.7-0.8C53.6,4.3,53.5,4.2,53.4,4.1z"/>
</g>
<g>
	<path class="st2" d="M57.6,15.6c-1.9,0-4-0.9-5.2-1.8c-1.3-1-1.3-2.4-1.2-3.7c0-0.5,0-0.9,0-1.4C51.1,8.4,51,8,51,7.6
		c-0.3-1.8-0.6-3.8,0.6-5.5c1.8-2.4,5.7-2.3,7.8-1.9c2.7,0.6,4.5,2.5,4.7,5.3l0,0c0.2,3.6-1.9,7-3.2,8.7
		C60.1,15.2,58.9,15.6,57.6,15.6z M57,1c-1.8,0-3.7,0.5-4.6,1.7c-1,1.3-0.7,3-0.5,4.7c0.1,0.4,0.1,0.8,0.2,1.2c0.1,0.5,0,1,0,1.5
		c0,1.2-0.1,2.2,0.8,2.9c1.7,1.2,5.5,2.5,7,0.6c1.2-1.6,3.2-4.7,3-8l0,0c-0.2-2.3-1.6-3.9-3.9-4.4C58.5,1.1,57.7,1,57,1z"/>
</g>
<g>
	<path class="st2" d="M60.4,4.5c0,0-0.5,0.4-1.1,1.1c-0.3,0.3-0.6,0.7-0.9,1.2c-0.3,0.5-0.6,1-0.8,1.5c-0.5,1.1-0.7,2.2-0.7,3.1
		c0,0.5,0,0.8,0,1.1c0,0.3,0,0.4,0,0.4s-0.1-0.1-0.2-0.4c-0.1-0.3-0.3-0.6-0.4-1.1c-0.1-0.5-0.2-1.1-0.1-1.7
		c0.1-0.6,0.2-1.3,0.5-1.9c0.3-0.6,0.6-1.2,1-1.7c0.4-0.5,0.9-0.8,1.3-1.1c0.4-0.3,0.8-0.4,1.1-0.5C60.2,4.5,60.4,4.5,60.4,4.5z"/>
</g>
<g>
	<path class="st2" d="M53.1,3.9c0,0,0.1,0,0.4,0.1c0.2,0.1,0.6,0.3,1,0.6c0.4,0.3,0.8,0.7,1.1,1.2c0.2,0.3,0.3,0.5,0.4,0.8
		c0.1,0.3,0.2,0.6,0.3,0.9c0.2,0.6,0.3,1.2,0.2,1.8c0,0.6-0.1,1.1-0.2,1.6c-0.1,0.4-0.3,0.8-0.4,1c-0.1,0.2-0.2,0.4-0.2,0.4
		s0-0.2,0-0.4c0-0.3,0.1-0.6,0.1-1.1c0-0.9-0.1-2-0.4-3.1c-0.1-0.3-0.2-0.6-0.2-0.8c-0.1-0.3-0.2-0.5-0.3-0.7
		c-0.2-0.5-0.5-0.9-0.7-1.2C53.6,4.3,53.1,3.9,53.1,3.9z"/>
</g>
<g>
	<path class="st0" d="M124.5,164.3c4.2-3.8,5.8-7.9,7.6-13.2c4.3-12.3,1.5-26.1,1-38.8c-0.2-4.4,0-8.7-0.1-13.1
		c-0.1-6.6-0.7-13.2-1.9-19.8c-2.2-11.5-5.8-24-11.5-34.3c-2.3-4.1-5.1-8.3-7.9-12.1c-2.7-3.7-5.7-7.3-9.1-10.5
		c-5.9-5.5-14.5-10.1-22.3-12c-13.2-3.3-28.4-3.9-41.5,0.1c-17.3,5.3-27,22.7-27.9,40C10.3,61.5,10.2,71,14,81.4
		c3.5,9.7,9.6,19.2,8.4,29.4c-1.2,9.9-2.6,20-0.9,29.9c1.6,9.3,4.2,16.4,10.2,23.8c15.4,18.8,40.3,20.9,62.4,15.4
		c0.9-0.2,1.8-0.5,2.7-0.7c2.1-0.6,4.3-1.2,6.3-1.9c6.4-2.2,12.3-5.5,17.6-9.7C121.9,166.6,123.2,165.5,124.5,164.3z"/>
</g>
<g>
	<path class="st1" d="M117.7,170.1c-4,2.8-8.5,5-12.9,6.9c-11,4.6-23.2,6.3-35.1,5.9c-2.5-0.1-5.1-0.4-7.5-0.9
		c-12.3-2.3-22.6-7.8-30.5-17.5c-2.7-3.3-4.7-6.6-6.3-10c0.4,0.5,0.7,1,1.1,1.5c7.9,9.7,18.2,15.1,30.5,17.5
		c5.4,1,10.8,1.6,16.3,1.5c7.1-0.1,13.9,0.7,21.1-0.7c10.8-2.2,19.4-8.7,25.9-17.5c3.1-4.2,5.1-9.2,6.8-14.1
		c4.3-12.3,1.5-26.1,1-38.8c-0.2-4.4,0-8.7-0.1-13.1c-0.1-6.6-0.7-13.2-1.9-19.8c-2.1-10.9-5.4-22.5-10.6-32.4
		c1.5,2.2,2.9,4.5,4.2,6.7c5.8,10.3,9.3,22.7,11.5,34.3c1.3,6.5,1.8,13.1,1.9,19.8c0.1,4.4-0.1,8.7,0.1,13.1
		c0.6,13.6,4.3,28.8-2.5,41.4c-1,1.9-2,3.8-3.1,5.7C125.2,163.8,121.7,167.3,117.7,170.1z"/>
</g>
<g>
	<path class="st2" d="M76.1,183c-0.8,0-1.5,0-2.2-0.1c-0.8,0-1.5-0.1-2.3-0.1c-2.5,0-4.8-0.1-6.9-0.3c-5.1-0.4-9.6-1.4-13.5-3
		c-7.8-3.1-14.7-8.1-20-14.6c-6.5-8-8.9-15.4-10.4-24.2c-1.6-9.4-0.4-19.1,0.7-28.4l0.2-1.8c0.9-7.4-2.2-14.6-5.3-21.6
		c-1.1-2.4-2.2-5-3.1-7.5c-3.8-10.5-3.7-20.2-3.1-30.9c0.9-16.2,10-35,28.4-40.7c12.3-3.8,27.2-3.8,41.9-0.2
		c8.1,2,16.8,6.7,22.6,12.2c3.2,3,6.2,6.4,9.2,10.6c3.1,4.3,5.8,8.4,7.9,12.2c5,8.9,8.9,20.5,11.6,34.5c1.2,6.1,1.8,12.8,1.9,19.9
		c0,1.7,0,3.5,0,5.2c0,2.6,0,5.3,0.1,7.9c0.1,3,0.4,6.2,0.6,9.2c0.8,10,1.7,20.3-1.6,29.8c-0.3,1-0.7,1.9-1.1,2.9l-1.4-0.5
		c0.4-1,0.7-1.9,1-2.9c3.2-9.2,2.4-19.4,1.6-29.2c-0.3-3.1-0.5-6.2-0.6-9.3c-0.1-2.7-0.1-5.3-0.1-7.9c0-1.7,0-3.4,0-5.2
		c-0.1-7-0.7-13.6-1.9-19.6c-2.7-13.8-6.5-25.3-11.5-34c-2.1-3.7-4.7-7.8-7.8-12c-3-4.1-5.9-7.5-9-10.4c-5.7-5.3-14.1-9.9-22-11.8
		C65.6,7.8,51,7.8,39,11.5C21.2,17,12.5,35.2,11.6,50.8c-0.6,10.5-0.7,20.1,3,30.3c0.9,2.5,2,5,3,7.4c3.1,7.2,6.3,14.6,5.4,22.4
		l-0.2,1.8c-1.1,9.2-2.3,18.7-0.7,27.9c1.5,8.5,3.8,15.8,10.1,23.5c5.1,6.3,11.9,11.2,19.4,14.2c3.8,1.5,8.1,2.5,13.1,2.9
		c2.1,0.2,4.4,0.3,6.8,0.3c0.8,0,1.6,0,2.4,0.1c1.2,0.1,2.3,0.1,3.4,0l0.1,1.5C77,183,76.5,183,76.1,183z"/>
</g>
<g>
	<path class="st2" d="M74.5,183.1c-3.3,0-6.8-0.2-10.6-0.6l-0.2,0c-3.7-0.4-7.6-0.8-11.2-2.3l0.6-1.4c3.4,1.4,7.1,1.8,10.8,2.2
		l0.2,0c5.3,0.6,10,0.7,14.4,0.5c0.8,0,1.6-0.1,2.5-0.1c3.2-0.1,6.6-0.3,9.7-1c22.9-5.4,36.2-15.1,40.7-29.7l1.4,0.4
		c-4.7,15.2-18.3,25.3-41.8,30.8c-3.3,0.8-6.7,0.9-10,1.1c-0.8,0-1.6,0.1-2.4,0.1C77.2,183,75.9,183.1,74.5,183.1z"/>
</g>
<g>
	<g>
		<path class="st1" d="M36.9,71.5c0.1-0.3,0.2-0.6,0.3-0.8c0.1-0.3,0.3-0.5,0.5-0.7c0.1-0.1,0.2-0.2,0.3-0.3l0.2-0.2l0.2-0.1
			c0.9-0.7,2-1,2.9-1.3c0.4-0.1,0.7-0.1,1.1-0.2c0,0,0-0.1,0-0.1c0-0.3,0.2-0.7,0.4-0.9c0.2-0.3,0.5-0.5,0.8-0.6
			c0.3-0.1,0.6-0.1,0.9-0.1c0.3,0,0.5,0.1,0.8,0.1l0.8,0.1c0.3,0.1,0.7,0.1,1,0.2c0.4,0,0.7,0,1.1,0l0.8,0c0.3,0,0.5,0,0.8,0
			c0.3,0,0.6,0.1,0.8,0.3c0.3,0.2,0.5,0.4,0.7,0.7c0.1,0.3,0.2,0.6,0.2,0.9c0.6,0.2,1.2,0.4,1.8,0.7c0.9,0.4,1.9,0.9,2.6,1.8
			l0.1,0.2l0.1,0.2c0.1,0.1,0.1,0.2,0.2,0.4c0.1,0.3,0.2,0.5,0.3,0.8c0.1,0.3,0.1,0.6,0.1,0.9c0,0.3,0,0.6-0.1,0.8
			c0,0.5-0.1,1-0.3,1.5c-0.1,0.3-0.2,0.5-0.4,0.8c-0.1,0.1-0.2,0.2-0.3,0.4c-0.1,0.1-0.1,0.1-0.2,0.2l-0.1,0.1
			c-0.1,0.1-0.2,0.2-0.4,0.3c-0.1,0.1-0.3,0.1-0.4,0.2c-0.3,0.1-0.6,0.2-0.9,0.2c-0.6,0.1-1.1,0-1.6-0.1c-0.4-0.1-0.7-0.2-1.1-0.3
			c0,0.4,0,1,0,1.6c0,0.5-0.1,1-0.4,1.6c-0.3,0.5-0.7,1-1.2,1.4c-0.5,0.4-1.2,0.6-1.9,0.7c-0.2,0-0.3,0-0.5,0l-0.5,0l-0.9-0.1
			l-0.9-0.1c-0.3,0-0.7-0.1-1-0.2c-0.7-0.2-1.2-0.7-1.6-1.2c-0.4-0.5-0.7-1.1-0.8-1.7c-0.1-0.3-0.1-0.6-0.1-0.9c0-0.1,0-0.2,0-0.4
			c0-0.1,0-0.2,0.1-0.4c0.1-0.5,0.2-0.9,0.3-1.3c-0.3,0-0.7,0-1.1,0c-0.5,0-1.1-0.1-1.6-0.3c-0.3-0.1-0.5-0.2-0.8-0.4
			c-0.1-0.1-0.2-0.2-0.3-0.3c-0.1-0.1-0.2-0.2-0.3-0.3l-0.1-0.1c-0.1-0.1-0.1-0.1-0.1-0.2C37.1,75,37,74.9,37,74.8
			c-0.1-0.3-0.2-0.6-0.2-0.9c-0.1-0.5,0-1.1,0.1-1.6C36.8,72.1,36.8,71.8,36.9,71.5z"/>
	</g>
	<g>
		<path class="st3" d="M42.4,74.5c0.9,1.7,1.2,3.7,0.8,5.6c-0.2,1-1.8,3.3-1.4,4.1c0.5,1.1,1.8,1.4,3,1.6c6.6,0.8,9.5-5.3,8.3-11"/>
	</g>
	<g>
		<path class="st4" d="M46.8,83c0.8-0.7,1.8-1,2.9-1c0.6,0,2.8,0.3,1.8,1.2c-1.3,1.1-2.8,2-4.5,2.4c-0.5,0.1-1.1,0.1-1.6,0.2
			c-1.1,0.1-2-0.4-1.8-1.6c0.2-0.9,0.9-1.4,1.8-1.5C45.9,82.6,46.5,82.6,46.8,83z"/>
	</g>
	<g>
		<path class="st2" d="M42.4,74.5c0,0,0.1,0.1,0.2,0.3c0.1,0.2,0.3,0.5,0.5,0.9c0.3,0.8,0.7,1.9,0.8,3.4c0,0.4,0,0.7-0.1,1.2
			c0,0.2-0.1,0.5-0.2,0.6c-0.1,0.2-0.2,0.4-0.2,0.6c-0.3,0.7-0.7,1.6-0.8,2.2c0,0.1,0,0.3,0,0.2c0.1,0.1,0.1,0.2,0.1,0.2
			c0,0,0.1,0.1,0.1,0.2c0.2,0.2,0.6,0.4,0.9,0.5c0.7,0.3,1.6,0.3,2.5,0.3c0.8,0,1.7-0.2,2.4-0.5c0.7-0.3,1.5-0.7,2-1.3
			c0.6-0.6,1-1.2,1.4-1.9c0.2-0.3,0.3-0.7,0.4-1c0.1-0.3,0.2-0.7,0.3-1c0.1-0.3,0.2-0.6,0.2-1c0.1-0.3,0.1-0.6,0.1-0.9
			c0.1-0.6,0.1-1.1,0.1-1.5c0-0.8,0-1.3,0-1.3s0,0.1,0.1,0.3c0.1,0.2,0.2,0.5,0.2,0.9c0.1,0.4,0.2,0.9,0.2,1.5c0,0.3,0,0.6,0,0.9
			c0,0.3,0,0.7-0.1,1c0,0.4-0.1,0.7-0.2,1.1c-0.1,0.4-0.2,0.8-0.4,1.2c-0.1,0.4-0.4,0.8-0.6,1.2c-0.3,0.4-0.5,0.8-0.8,1.1
			c-0.6,0.7-1.5,1.3-2.4,1.8c-0.9,0.4-2,0.6-3,0.6c-0.9,0-2-0.1-3-0.5c-0.5-0.2-1-0.5-1.4-0.9c-0.1-0.1-0.2-0.2-0.3-0.4
			c-0.1-0.2-0.2-0.3-0.2-0.4c-0.2-0.5-0.1-0.8-0.1-1.1c0.3-1,0.8-1.7,1.1-2.5c0.2-0.4,0.4-0.7,0.5-1c0.1-0.3,0.2-0.7,0.2-1
			c0.2-1.3,0-2.5-0.2-3.3C42.6,74.9,42.4,74.5,42.4,74.5z"/>
	</g>
	<g>
		<path class="st2" d="M43.8,85.3c-0.1,0-0.2-0.1-0.3-0.2c0-0.1-0.1-0.2-0.1-0.3c-0.1-0.2-0.1-0.5,0-0.7c0.1-0.5,0.3-1,0.7-1.3
			c0.2-0.2,0.4-0.3,0.7-0.4c0.2-0.1,0.5-0.1,0.7-0.2c0.3,0,0.5,0,0.8,0.1c0.3,0.1,0.6,0.2,0.8,0.5l-0.7-0.1c0.4-0.3,0.8-0.6,1.3-0.8
			c0.5-0.2,1-0.3,1.5-0.2c0.5,0,1,0.1,1.4,0.3c0.2,0.1,0.4,0.2,0.6,0.3c0.2,0.1,0.4,0.3,0.5,0.4c-0.9-0.3-1.7-0.4-2.6-0.2
			c-0.4,0.1-0.8,0.2-1.2,0.3c-0.2,0.1-0.4,0.2-0.5,0.3c-0.2,0.1-0.3,0.2-0.5,0.4l-0.4,0.4l-0.3-0.4c-0.1-0.2-0.4-0.3-0.8-0.2
			c-0.2,0-0.4,0-0.5,0.1c-0.2,0-0.3,0.1-0.5,0.2c-0.3,0.2-0.6,0.4-0.7,0.8c-0.1,0.2-0.1,0.4-0.2,0.6c0,0.1,0,0.2,0,0.3
			C43.7,85.2,43.7,85.3,43.8,85.3z"/>
	</g>
	<g>
		<path class="st1" d="M43.8,91.2c-0.5-0.2-1-0.7-1.3-1.2c-0.3-0.5-0.5-1.2-0.5-1.7c0.2,0.1,0.4,0.3,0.6,0.4
			c0.5,0.4,1.1,0.5,1.7,0.6c1,0.1,1.9-0.1,2.9-0.2c2.5-0.5,5.1-1.2,6.8-3.1c-1.4,3.3-4.8,5.5-8.4,5.5C45,91.5,44.4,91.4,43.8,91.2z"
			/>
	</g>
	<g id="tith_54_">
		<path class="st5" d="M44.1,80l1.4,0.2c2,0.2,3.8-1.3,4.1-3.3l0.2-1.4c0.2-2-1.3-3.8-3.3-4.1l-1.4-0.2c-2-0.2-3.8,1.3-4.1,3.3
			L40.9,76C40.7,78,42.1,79.8,44.1,80z"/>
	</g>
	<g>
		<path class="st6" d="M40.9,76.2c0-0.1,0-0.1,0-0.2l0.2-1.4c0.2-2,2-3.5,4.1-3.3l1.4,0.2c2,0.2,3.5,2,3.3,4.1l-0.2,1.4
			c0,0.1-0.1,0.3-0.1,0.4C47.3,76,43.5,75.2,40.9,76.2z"/>
	</g>
	<g id="tith_53_">
		<path class="st2" d="M41.3,73.2c0,0,0,0.1-0.1,0.2c-0.1,0.1-0.2,0.3-0.2,0.6c-0.1,0.5-0.3,1.2-0.5,2.1c0,0.1,0,0.2-0.1,0.4
			c0,0.1,0,0.2,0,0.4c0,0.3,0,0.6,0.1,0.9c0.1,0.6,0.3,1.2,0.8,1.7c0.4,0.5,1,0.9,1.6,1.2c0.3,0.1,0.7,0.2,1,0.2l0.9,0.1l0.9,0.1
			l0.5,0c0.1,0,0.3,0,0.5,0c0.7,0,1.4-0.3,1.9-0.7c0.5-0.4,0.9-0.9,1.2-1.4c0.3-0.5,0.4-1.1,0.4-1.6c0-0.9,0-1.6,0-2.1
			c0-0.3-0.1-0.5-0.1-0.6c0-0.1,0-0.2,0-0.2s0,0.3-0.1,0.8c-0.1,0.5-0.3,1.2-0.5,2.1c-0.1,0.4-0.2,0.8-0.5,1.2
			c-0.2,0.4-0.6,0.7-1,0.9c-0.4,0.2-0.9,0.4-1.3,0.4c-0.1,0-0.2,0-0.4,0l-0.4,0l-0.9-0.1l-0.9-0.1c-0.3,0-0.5-0.1-0.7-0.1
			c-0.4-0.1-0.9-0.4-1.2-0.7c-0.3-0.3-0.6-0.7-0.7-1.1c-0.1-0.2-0.1-0.4-0.1-0.6c0-0.1,0-0.2,0-0.3c0-0.1,0-0.2,0-0.3
			c0-0.9,0-1.6,0-2.1C41.2,73.5,41.3,73.2,41.3,73.2z"/>
	</g>
	<g>
		<path class="st7" d="M36.7,70.1c0-0.9,0.5-1.8,1.2-2.4c0.7-0.6,1.5-0.9,2.2-1.1c1.1-0.3,2.1-0.5,3.2-0.6c1.1-0.1,2,0,3,0.2
			c1,0,1.9,0.1,3,0.5c1,0.3,2.1,0.7,3,1.2c0.7,0.4,1.4,0.8,2,1.5c0.5,0.7,0.8,1.7,0.7,2.6c0,0.1,0,0.1,0,0.2c0,0.9-0.2,1.9-0.9,2.5
			c-1.3,1.2-2.8,0.7-4.3,0.4c-1.4-0.3-2.8-0.8-4.3-1.2c-1.5,0-2.9,0.2-4.4,0.2c-1.4,0-3.1,0.2-4.1-1.3c-0.5-0.7-0.6-1.7-0.3-2.6
			C36.7,70.2,36.7,70.2,36.7,70.1z"/>
	</g>
	<g>
		<path class="st8" d="M49.3,73.5c0.4,0.1,0.8,0,1.1-0.2c0.4-0.1,0.8-0.3,1.1-0.7c0.6-0.6,0.9-1.5,0.9-2.5c0-0.1,0-0.1,0-0.2
			c0.2-0.8-0.1-1.6-0.4-2.2c0.1,0,0.2,0.1,0.2,0.1c0.7,0.4,1.4,0.8,2,1.5s0.8,1.7,0.7,2.6c0,0.1,0,0.1,0,0.2c0,0.9-0.2,1.9-0.9,2.5
			c-1.3,1.2-2.8,0.7-4.3,0.4c-1.4-0.3-2.8-0.8-4.3-1.2c-1.5,0-2.9,0.2-4.4,0.2c-1.4,0-2.9,0.1-3.9-1.2
			C41.2,72.6,45.3,72.7,49.3,73.5z"/>
	</g>
	<g>
		<path class="st2" d="M36.7,70.3L36.7,70.3c-0.2,0.9-0.1,2,0.5,2.7c0.3,0.4,0.7,0.7,1.1,0.8c0.4,0.2,0.9,0.2,1.4,0.2
			c0.5,0,1,0,1.4,0c0.5,0,1-0.1,1.4-0.1c1-0.1,1.9-0.2,2.9-0.3l0,0l0.1,0c1,0.2,1.9,0.4,2.8,0.7c0.5,0.1,0.9,0.2,1.4,0.3l1.4,0.2
			c0.4,0.1,0.9,0.1,1.3,0c0.2,0,0.4-0.1,0.5-0.2c0.1,0,0.2-0.1,0.2-0.1c0.1-0.1,0.1-0.1,0.2-0.2l0.1-0.1l0.1-0.1
			c0.1-0.1,0.1-0.1,0.2-0.2c0.1-0.2,0.2-0.3,0.2-0.5c0.1-0.4,0.2-0.8,0.2-1.2l0-0.1l0-0.1c0.1-0.2,0.1-0.4,0.1-0.6
			c0-0.2,0-0.4-0.1-0.6c0-0.2-0.1-0.4-0.2-0.6c0-0.1-0.1-0.2-0.1-0.3L53.9,70l-0.1-0.1c-0.5-0.7-1.2-1.2-2.1-1.6
			c-0.8-0.4-1.7-0.8-2.6-1.1c-0.9-0.3-1.8-0.5-2.8-0.5l0,0l0,0c-0.9-0.2-1.9-0.3-2.8-0.3c-0.9,0-1.9,0.1-2.8,0.3
			c-0.9,0.2-1.9,0.5-2.6,1.1c-0.7,0.6-1.3,1.5-1.3,2.5L36.7,70.3z M38,67.6c0.8-0.6,1.7-0.9,2.6-1.2c0.9-0.3,1.9-0.5,2.9-0.6
			c1-0.1,2-0.1,2.9,0.1l0,0c1,0,2,0.1,3,0.3c1,0.2,1.9,0.6,2.9,1c0.9,0.4,1.9,0.9,2.6,1.8l0.1,0.2l0.1,0.2c0.1,0.1,0.1,0.2,0.2,0.4
			c0.1,0.3,0.2,0.5,0.3,0.8c0.1,0.3,0.1,0.6,0.1,0.9c0,0.3,0,0.6-0.1,0.9l0-0.2c0,0.6-0.1,1.1-0.3,1.7c-0.1,0.3-0.2,0.5-0.4,0.8
			c-0.1,0.1-0.2,0.2-0.3,0.4c-0.1,0.1-0.1,0.1-0.2,0.2l-0.1,0.1c-0.1,0.1-0.2,0.2-0.4,0.3c-0.1,0.1-0.3,0.1-0.4,0.2
			C53.2,75.9,53,76,52.7,76c-0.6,0.1-1.1,0-1.6-0.1c-0.5-0.1-1-0.2-1.4-0.3c-0.5-0.1-1-0.3-1.4-0.4c-0.9-0.3-1.8-0.6-2.7-0.9l0.1,0
			c-0.9,0-1.9,0-2.9,0.1c-1,0-1.9,0-2.9-0.1c-0.5,0-1-0.1-1.4-0.3c-0.5-0.2-0.9-0.5-1.1-0.9c-0.6-0.8-0.7-1.9-0.4-2.8l0,0l0-0.2
			C36.7,69.2,37.2,68.2,38,67.6z"/>
	</g>
	<g>
		<path class="st2" d="M54.9,72.2L54.9,72.2c0,1-0.2,2-1,2.6c-0.4,0.3-0.8,0.5-1.3,0.6c-0.5,0.1-1,0.1-1.5,0c-1-0.2-1.9-0.3-2.9-0.5
			c-0.9-0.2-1.9-0.5-2.8-0.7l0.1,0c-0.9,0.1-1.9,0.2-2.9,0.3c-0.5,0.1-1,0.1-1.5,0.1c-0.5,0-1,0.1-1.5,0c-0.5,0-1.1-0.1-1.6-0.3
			c-0.3-0.1-0.5-0.2-0.8-0.4c-0.1-0.1-0.2-0.2-0.3-0.3c-0.1-0.1-0.2-0.2-0.3-0.3l-0.1-0.1c-0.1-0.1-0.1-0.1-0.1-0.2
			c-0.1-0.1-0.1-0.3-0.2-0.4c-0.1-0.3-0.2-0.6-0.2-0.9c-0.1-0.6,0-1.1,0.1-1.7l0,0.2c0-0.3,0-0.6,0.1-0.9c0.1-0.3,0.2-0.6,0.3-0.8
			c0.1-0.3,0.3-0.5,0.5-0.7c0.1-0.1,0.2-0.2,0.3-0.3l0.2-0.2l0.2-0.1c0.9-0.7,2-1,2.9-1.3c1-0.2,2-0.3,3-0.4c1,0,2,0.1,3,0.3l0,0
			c1,0.1,2,0.2,2.9,0.6c0.9,0.3,1.8,0.7,2.7,1.2c0.9,0.4,1.7,1,2.3,1.7c0.6,0.8,0.9,1.8,0.7,2.7L54.9,72.2z M54.2,69.4
			c-0.6-0.7-1.5-1.2-2.4-1.6c-0.9-0.4-1.8-0.7-2.7-0.9c-0.9-0.2-1.9-0.3-2.8-0.3l0,0l0,0c-0.9-0.1-1.9-0.2-2.8-0.1
			c-0.9,0.1-1.9,0.3-2.8,0.6c-0.9,0.3-1.8,0.6-2.4,1.1l-0.1,0.1l-0.1,0.1c-0.1,0.1-0.1,0.1-0.2,0.2c-0.1,0.2-0.2,0.3-0.3,0.5
			c-0.1,0.2-0.1,0.4-0.2,0.5c0,0.2-0.1,0.4,0,0.6l0,0.1l0,0.1c-0.1,0.4-0.1,0.8-0.1,1.2c0,0.2,0.1,0.4,0.1,0.5
			c0,0.1,0.1,0.2,0.1,0.2l0.1,0.1l0.1,0.1c0.1,0.1,0.1,0.1,0.2,0.2c0.1,0.1,0.1,0.1,0.2,0.2c0.1,0.1,0.3,0.2,0.5,0.3
			c0.4,0.2,0.8,0.2,1.2,0.3l1.4,0.1c0.5,0,0.9,0,1.4,0c1,0,1.9-0.1,2.9-0.1l0.1,0l0,0c1,0.3,1.9,0.6,2.8,0.9
			c0.5,0.2,0.9,0.3,1.4,0.4c0.5,0.1,0.9,0.3,1.4,0.3c0.5,0.1,0.9,0.1,1.4,0.1c0.5-0.1,0.9-0.2,1.3-0.6c0.8-0.6,1.1-1.6,1.1-2.6l0,0
			l0-0.2C55.1,71.1,54.8,70.1,54.2,69.4z"/>
	</g>
	<g>
		<path class="st9" d="M44.1,64.4c0.1,0,0.1,0,0.2,0c0.5,0.1,3,0.3,3.6,0.4c0.1,0,0.2,0,0.2,0c2.7,0.2,2.1,2.8,0.4,3.7
			c-0.8,0.4-1.7,0.4-2.7,0.3c-0.1,0-0.1,0-0.2,0c-0.1,0-0.1,0-0.2,0c-0.9-0.1-1.9-0.3-2.5-0.8C41.5,66.7,41.4,64.1,44.1,64.4z"/>
	</g>
	<g>
		<path class="st10" d="M43.1,66.2c0.7,0.6,1.6,0.7,2.5,0.8c0.1,0,0.1,0,0.2,0c0.1,0,0.1,0,0.2,0c0.9,0.1,1.9,0.1,2.7-0.3
			c0.5-0.3,0.9-0.6,1.1-1.1c0.5,0.9-0.2,2.2-1.3,2.8c-0.8,0.4-1.7,0.4-2.7,0.3c-0.1,0-0.1,0-0.2,0c-0.1,0-0.1,0-0.2,0
			c-0.9-0.1-1.9-0.3-2.5-0.8c-1-0.8-1.3-2.2-0.7-3C42.4,65.4,42.7,65.9,43.1,66.2z"/>
	</g>
	<g>
		<path class="st2" d="M43.1,64.5c-0.2,0-0.3,0.1-0.5,0.2c-0.1,0.1-0.3,0.2-0.3,0.4c-0.1,0.1-0.2,0.3-0.2,0.5c0,0.2,0,0.3,0,0.5
			c0,0.3,0.2,0.6,0.3,0.9c0.1,0.1,0.2,0.3,0.3,0.4c0.1,0.1,0.2,0.2,0.3,0.3c0.1,0.1,0.2,0.2,0.4,0.2c0.1,0.1,0.3,0.1,0.4,0.2
			c0.3,0.1,0.6,0.1,0.9,0.2c0.3,0,0.7,0.1,1,0.1l0,0l0,0c0.2,0,0.5,0,0.7,0c0.2,0,0.5,0,0.7,0c0.2,0,0.4-0.1,0.6-0.1
			c0.1,0,0.2-0.1,0.3-0.1c0,0,0.1-0.1,0.2-0.1l0.1-0.1c0.7-0.4,1.3-1.2,1.1-1.9c0-0.2-0.1-0.3-0.3-0.5c-0.1-0.1-0.3-0.2-0.5-0.3
			c-0.1-0.1-0.2-0.1-0.4-0.1c-0.1,0-0.2-0.1-0.4-0.1l-0.8-0.1c-1-0.2-2-0.3-3-0.5C43.8,64.4,43.4,64.4,43.1,64.5z M47.2,64.6l0.8,0
			c0.3,0,0.5,0,0.8,0c0.3,0,0.6,0.1,0.8,0.3c0.3,0.2,0.5,0.4,0.7,0.7c0.1,0.3,0.2,0.7,0.2,1c0,0.3-0.1,0.6-0.2,0.9
			c-0.3,0.6-0.7,1.1-1.2,1.4l-0.2,0.1l-0.2,0.1c-0.2,0.1-0.3,0.1-0.5,0.2c-0.3,0.1-0.6,0.1-0.9,0.1c-0.3,0-0.6,0-0.8,0
			c-0.3,0-0.5-0.1-0.8-0.1l0,0c-0.4-0.1-0.7-0.1-1.1-0.2c-0.4-0.1-0.7-0.2-1.1-0.4c-0.2-0.1-0.3-0.2-0.5-0.3
			c-0.1-0.1-0.3-0.3-0.4-0.4c-0.1-0.1-0.2-0.3-0.3-0.5c-0.1-0.2-0.2-0.3-0.2-0.5c-0.1-0.3-0.2-0.7-0.2-1.1c0-0.2,0-0.4,0.1-0.5
			c0-0.2,0.1-0.3,0.3-0.5c0.1-0.1,0.3-0.2,0.4-0.3c0.2-0.1,0.3-0.1,0.5-0.2c0.3-0.1,0.7-0.1,1,0C45.1,64.5,46.2,64.6,47.2,64.6z"/>
	</g>
	<g>
		<path class="st2" d="M49.1,65.1c0.2,0.1,0.3,0.2,0.4,0.3c0.1,0.1,0.2,0.3,0.3,0.4c0.1,0.2,0.1,0.3,0.1,0.5c0,0.2,0,0.4,0,0.5
			c-0.1,0.4-0.2,0.7-0.4,1c-0.1,0.2-0.2,0.3-0.3,0.5c-0.1,0.1-0.3,0.3-0.4,0.4c-0.1,0.1-0.3,0.2-0.5,0.3c-0.2,0.1-0.4,0.2-0.6,0.2
			c-0.4,0.1-0.8,0.1-1.1,0.2c-0.4,0-0.7,0-1.1,0l0,0c-0.3,0-0.5,0-0.8-0.1c-0.3,0-0.5-0.1-0.8-0.2c-0.3-0.1-0.6-0.2-0.8-0.3
			c-0.1-0.1-0.3-0.2-0.4-0.3l-0.2-0.1l-0.2-0.2c-0.4-0.4-0.7-1-0.9-1.6c-0.1-0.3-0.1-0.6,0-1c0-0.3,0.2-0.7,0.4-0.9
			c0.2-0.3,0.5-0.5,0.8-0.6c0.3-0.1,0.6-0.1,0.9-0.1c0.3,0,0.5,0.1,0.8,0.1l0.8,0.1c1,0.2,2,0.3,3,0.5C48.5,64.9,48.8,65,49.1,65.1z
			 M45.1,64.7l-0.8,0c-0.1,0-0.2,0-0.4,0c-0.1,0-0.3,0-0.4,0c-0.2,0-0.4,0.1-0.6,0.2c-0.2,0.1-0.3,0.2-0.4,0.4
			c-0.3,0.6,0.1,1.6,0.7,2.1l0.1,0.1c0,0,0.1,0.1,0.1,0.1c0.1,0,0.1,0.1,0.2,0.1c0.2,0.1,0.4,0.2,0.6,0.2c0.2,0.1,0.4,0.1,0.7,0.2
			c0.2,0,0.5,0.1,0.7,0.1l0,0l0,0c0.3,0.1,0.6,0.1,1,0.1c0.3,0,0.6,0.1,0.9,0c0.2,0,0.3,0,0.4-0.1c0.2,0,0.3-0.1,0.4-0.2
			c0.2-0.1,0.3-0.2,0.4-0.2c0.1-0.1,0.3-0.2,0.4-0.3c0.2-0.2,0.4-0.5,0.5-0.8c0.1-0.2,0.1-0.3,0.1-0.5c0-0.2,0-0.3-0.1-0.5
			c-0.1-0.2-0.2-0.3-0.3-0.4c-0.1-0.1-0.3-0.2-0.4-0.3c-0.3-0.2-0.7-0.2-1-0.3C47.1,64.8,46.1,64.7,45.1,64.7z"/>
	</g>
	<g>
		
			<rect x="41.7" y="76.7" transform="matrix(0.1055 -0.9944 0.9944 0.1055 -36.5544 113.6897)" class="st2" width="6.5" height="1"/>
	</g>
</g>
<g>
	
		<ellipse transform="matrix(0.1058 -0.9944 0.9944 0.1058 14.0986 133.3497)" class="st5" cx="81.2" cy="58.8" rx="23.3" ry="23.3"/>
</g>
<g>
	<path class="st11" d="M99.4,60.8c1.3-11.9-6.7-22.7-18.2-25.2c0.8,0,1.7,0,2.5,0.1c12.8,1.4,22,12.8,20.7,25.6
		C103,74.1,91.5,83.3,78.7,82c-0.8-0.1-1.7-0.2-2.5-0.4C88,81.6,98.1,72.7,99.4,60.8z"/>
</g>
<g>
	<path class="st2" d="M81.2,82.9c-0.8,0-1.7,0-2.6-0.1c-6.4-0.7-12.1-3.8-16.1-8.8s-5.9-11.3-5.2-17.6C58.7,43.1,70.6,33.6,83.7,35
		c13.2,1.4,22.7,13.3,21.3,26.4C103.8,73.7,93.3,82.9,81.2,82.9z M81.2,36.3c-11.4,0-21.1,8.6-22.4,20.1c-0.6,6,1.1,11.8,4.9,16.5
		c3.8,4.7,9.2,7.6,15.1,8.2c12.3,1.3,23.5-7.7,24.8-20c1.3-12.3-7.7-23.5-20-24.8C82.8,36.4,82,36.3,81.2,36.3z"/>
</g>
<g>
	<ellipse transform="matrix(0.1058 -0.9944 0.9944 0.1058 19.2185 140.8168)" class="st2" cx="87.9" cy="59.7" rx="4.5" ry="4.5"/>
</g>
<g>
	<ellipse transform="matrix(0.1058 -0.9944 0.9944 0.1058 20.5684 137.7681)" class="st5" cx="86.9" cy="57.4" rx="1" ry="1.3"/>
</g>
<g>
	
		<ellipse transform="matrix(0.1058 -0.9944 0.9944 0.1058 -32.5285 66.3084)" class="st5" cx="20.6" cy="51.2" rx="19.9" ry="19.9"/>
</g>
<g>
	<path class="st11" d="M36.2,53c1.1-10-5.6-19-15.3-21.1c0.7,0,1.4,0,2.1,0.1c10.7,1.1,18.5,10.7,17.3,21.5
		c-1.1,10.7-10.7,18.5-21.5,17.3c-0.7-0.1-1.4-0.2-2.1-0.3C26.6,70.4,35.1,63,36.2,53z"/>
</g>
<g>
	<path class="st2" d="M20.6,71.8c-0.7,0-1.5,0-2.2-0.1C13,71.1,8,68.5,4.6,64.2c-3.5-4.3-5-9.7-4.5-15.1c0.6-5.5,3.3-10.4,7.5-13.8
		c4.3-3.5,9.7-5,15.1-4.5C34.1,32,42.3,42.1,41.1,53.4C40,64,31,71.8,20.6,71.8z M20.6,32.1c-4.3,0-8.5,1.5-12,4.2
		c-4,3.2-6.5,7.8-7,12.8v0c-0.5,5.1,0.9,10.1,4.1,14c3.2,4,7.8,6.5,12.8,7c10.5,1.1,19.9-6.5,21-17c1.1-10.5-6.5-19.9-17-21
		C21.9,32.2,21.2,32.1,20.6,32.1z"/>
</g>
<g>
	<ellipse transform="matrix(0.1058 -0.9944 0.9944 0.1058 -28.1596 72.6802)" class="st2" cx="26.3" cy="52" rx="3.9" ry="3.9"/>
</g>
<g>
	<ellipse transform="matrix(0.1058 -0.9944 0.9944 0.1058 -27.0077 70.0787)" class="st5" cx="25.5" cy="50.1" rx="0.8" ry="1.1"/>
</g>
<g>
	<path class="st0" d="M97.8,111.9c-4.5,7-11.5,13.7-19.9,15.7c-2.7,0.7-5,0.5-7.1-1.4c-1.7-1.6-3-4-1.8-6.2
		c3.3-6.4,10-10.7,15.4-15.2"/>
</g>
<g>
	<path class="st1" d="M75.6,123.7c-2.7,0.6-5,0.5-7-1.3c0.2,1.4,1.1,2.8,2.2,3.8c2.1,1.9,4.4,2.1,7.1,1.4c1.2-0.3,2.4-0.7,3.5-1.1
		c3.8-1.6,7.3-4,10.2-6.9c1.5-1.4,2.8-3,4.1-4.7c0.7-0.9,1.8-2,1.9-3.2c0.1-1.7-1.7-1.9-3-1.5c-0.9,0.3-1.2,0.8-1.7,1.4
		c-0.6,0.8-1.3,1.6-2,2.4c-1.4,1.5-2.9,2.9-4.5,4.2C83.3,120.8,79.6,122.8,75.6,123.7z"/>
</g>
<g>
	<path class="st2" d="M97.8,111.9c0,0-0.1,0.2-0.4,0.6c-0.2,0.4-0.6,1-1,1.7c-0.5,0.7-1.1,1.6-1.8,2.5c-0.7,1-1.6,2-2.6,3.1
		c-2,2.1-4.7,4.4-8,6.2c-1.6,0.9-3.4,1.6-5.3,2.2c-1.8,0.5-4.1,0.9-6.2,0c-1-0.4-1.9-1.1-2.6-1.9c-0.7-0.8-1.3-1.6-1.7-2.7
		c-0.4-1-0.5-2.2-0.1-3.3c0.1-0.3,0.2-0.5,0.3-0.8l0.3-0.6c0.2-0.4,0.5-0.8,0.7-1.2c1.1-1.6,2.3-2.9,3.5-4.1
		c1.2-1.2,2.4-2.2,3.6-3.1c2.3-1.8,4.3-3.2,5.7-4.2c1.4-1,2.2-1.6,2.2-1.6s-0.7,0.7-2,1.8c-1.3,1.1-3.2,2.7-5.3,4.6
		c-1.1,1-2.2,2.1-3.3,3.3c-1.1,1.2-2.2,2.6-3.1,4c-0.2,0.4-0.5,0.7-0.7,1.2l-0.3,0.6c-0.1,0.1-0.2,0.3-0.2,0.5
		c-0.2,0.7-0.2,1.5,0.1,2.3c0.3,0.8,0.8,1.5,1.4,2.1c0.6,0.7,1.3,1.2,2.1,1.5c1.6,0.7,3.4,0.5,5.2,0c1.8-0.5,3.5-1.1,5.1-1.9
		c1.6-0.8,3.1-1.7,4.4-2.7c1.3-1,2.5-2,3.6-2.9c1-1,2-1.9,2.8-2.8c0.8-0.9,1.5-1.7,2-2.3c0.5-0.7,0.9-1.2,1.2-1.6
		C97.7,112.1,97.8,111.9,97.8,111.9z"/>
</g>
<g>
	<path class="st0" d="M44,166.3c-1.7,0.2-3.2,1.1-4.2,2.4c-1.1,1.4-1.2,3-1.6,4.8c-0.5,2.2-1.3,4.3-2.2,6.4
		c-1.2,2.8-4.8,3.8-7.6,3.8c-0.6,0-1.2,0-1.8-0.2c-1.6-0.5-2.8-1.9-3.5-3.4c-1.2-2.8-0.9-5.6-0.7-8.5c0.2-2.2,0.3-4.6,1-6.8
		c0.8-2.5,2.5-4.8,4.8-6.1c4.1-2.2,8.9-3,13.5-2.2"/>
</g>
<g>
	<path class="st1" d="M40,169.1c0.9-0.3,2.1,0.1,2.9,0.5c1.1,0.5,2.1,1.2,3.2,1.6c0.4,0.2,0.9,0.3,1.3,0.1c0.1-0.1,0.2-0.1,0.3-0.3
		c0-0.1,0-0.2,0-0.3c-0.6-1.9-1.6-3.6-3.3-4.6c-1-0.6-2.1-1-3.3-0.9c0,0-0.1,0-0.1,0c-0.8,0.1-1.6,0.3-2.3,0.6
		c-0.6,0.2-1.5,0.5-1.9,1.2c-0.3,0.6-0.4,1.5-0.5,2.1c-0.5,2.2-1.3,4.3-2.2,6.4c-0.7,1.5-1.8,2.9-2.9,4.1c-0.7,0.9-1.7,1.5-2.8,1.9
		c-0.5,0.2-1.1,0.3-1.7,0.4c-0.5,0.1-1.2-0.1-1.7,0.1c0,0.9,0.7,1.6,1.6,1.9c1.8,0.6,4.5-0.3,6-1.3c1.4-0.9,3-2,3.7-3.5
		c0.9-1.8,1.5-3.8,1.9-5.7c0.3-1.2,0.2-2.6,0.8-3.6C39.2,169.4,39.6,169.2,40,169.1z"/>
</g>
<g>
	<path class="st2" d="M45.6,167.8c0,0-0.3,0-0.8,0.1c-0.5,0-1.3,0.2-2.2,0.4c-0.5,0.1-1,0.2-1.5,0.4c-0.5,0.2-1.1,0.4-1.5,0.8
		c-0.3,0.4-0.5,1.1-0.6,1.8c-0.1,0.7-0.2,1.5-0.4,2.4c-0.4,1.7-1,3.4-1.8,5.1c-0.8,1.8-2,3.7-4.1,4.8c-0.2,0.1-0.5,0.3-0.8,0.4
		c-0.3,0.1-0.6,0.2-0.8,0.3c-0.6,0.2-1.1,0.3-1.7,0.3c-1.2,0.1-2.5,0-3.6-0.6c-0.6-0.3-1.1-0.7-1.6-1.2c-0.2-0.2-0.4-0.5-0.6-0.7
		c-0.1-0.1-0.2-0.2-0.3-0.4l-0.2-0.4c-0.6-1.1-1-2.2-1.3-3.3c-0.3-1.1-0.4-2.3-0.5-3.4c0-0.6-0.1-1.1-0.1-1.7c0-0.6,0-1.2,0.1-1.7
		c0.1-1.1,0.3-2.1,0.4-3.2c0.2-1.1,0.4-2.2,0.7-3.2c0.7-2.1,1.8-4,3.4-5.3c0.8-0.7,1.6-1.2,2.5-1.6c0.8-0.4,1.7-0.7,2.5-1
		c3.2-1.1,6.1-1.1,8-0.9c1,0.1,1.7,0.2,2.2,0.3c0.5,0.1,0.8,0.2,0.8,0.2s-0.3,0-0.8-0.1c-0.5,0-1.3-0.1-2.2,0
		c-1.9,0-4.6,0.4-7.6,1.6c-0.8,0.3-1.5,0.6-2.2,1.1c-0.7,0.4-1.4,0.9-2,1.5c-1.2,1.2-2.2,2.9-2.7,4.7c-0.3,0.9-0.4,1.9-0.6,2.9
		c-0.1,1-0.2,2.1-0.3,3.2c-0.1,1.1-0.1,2,0,3.1c0.1,1.1,0.2,2.1,0.4,3.1c0.2,1,0.6,2,1,2.8c0.5,0.9,1,1.6,1.8,2
		c1.5,0.8,3.7,0.6,5.3-0.2c1.6-0.9,2.8-2.4,3.6-4c0.8-1.6,1.5-3.3,2-4.8c0.5-1.5,0.5-3.1,1.6-4.4c0.6-0.5,1.3-0.7,1.8-0.9
		c0.6-0.1,1.1-0.2,1.6-0.3c1-0.1,1.7-0.1,2.2-0.1C45.3,167.8,45.6,167.8,45.6,167.8z"/>
</g>
<g>
	<path class="st0" d="M84,172c-1.7,0.2-3.4,1.1-4.5,2.5c-1.2,1.5-1.3,3.2-1.7,5c-0.5,2.3-1.4,4.6-2.3,6.7c-1.3,3-5,4-8,4
		c-0.6,0-1.3-0.1-1.9-0.2c-1.7-0.5-3-2-3.7-3.6c-1.2-2.9-1-5.9-0.7-8.9c0.2-2.3,0.3-4.9,1.1-7.1c0.9-2.6,2.6-5.1,5.1-6.4
		c4.3-2.3,9.4-3.1,14.3-2.3"/>
</g>
<g>
	<path class="st1" d="M79.5,176.3c0.2,0,0.4,0.1,0.7,0.3c0.3,0.2,0.5,0.5,0.8,0.7c0.3,0.2,0.6,0.2,0.9,0.3c1.1,0.1,2.3,0.3,3.4-0.1
		c0.5-0.2,1-0.4,1.3-0.7c2-1.7-0.9-4.1-2.4-5c-1-0.7-2.3-1.1-3.5-1c0,0-0.1,0-0.1,0c-0.8,0.1-1.7,0.3-2.5,0.6
		c-0.7,0.3-1.6,0.6-2,1.2c-0.3,0.6-0.4,1.6-0.6,2.3c-0.5,2.3-1.4,4.6-2.3,6.7c-0.7,1.6-1.9,3-3,4.4c-0.8,0.9-1.8,1.6-2.9,2
		c-0.6,0.2-1.2,0.4-1.8,0.4c-0.5,0.1-1.3-0.1-1.8,0.1c0,0.9,0.8,1.7,1.7,2c1.9,0.6,4.7-0.3,6.3-1.3c1.4-0.9,3.2-2.1,3.9-3.7
		c0.9-1.9,1.6-4,2.1-6C78,178.6,78.2,176.2,79.5,176.3z"/>
</g>
<g>
	<path class="st2" d="M85.7,173.6c0,0-0.3,0-0.8,0.1c-0.5,0-1.3,0.2-2.3,0.4c-0.5,0.1-1,0.3-1.6,0.4c-0.6,0.2-1.2,0.4-1.5,0.9
		c-0.4,0.4-0.5,1.2-0.7,1.9c-0.1,0.7-0.2,1.6-0.4,2.5c-0.4,1.8-1,3.6-1.9,5.4c-0.8,1.9-2.2,3.9-4.3,5.1c-0.2,0.1-0.6,0.3-0.8,0.4
		c-0.3,0.1-0.6,0.2-0.9,0.3c-0.6,0.2-1.2,0.3-1.8,0.4c-1.2,0.1-2.6,0-3.8-0.6c-0.6-0.3-1.2-0.7-1.6-1.2c-0.2-0.3-0.4-0.5-0.6-0.8
		c-0.1-0.1-0.2-0.2-0.3-0.4l-0.2-0.4c-0.6-1.1-1.1-2.3-1.4-3.5c-0.3-1.2-0.4-2.4-0.5-3.6c0-0.6-0.1-1.1-0.1-1.8c0-0.6,0-1.2,0.1-1.8
		c0.1-1.2,0.3-2.2,0.4-3.4c0.2-1.1,0.4-2.3,0.8-3.4c0.7-2.2,1.9-4.2,3.5-5.6c0.8-0.7,1.7-1.3,2.6-1.7c0.8-0.4,1.8-0.8,2.6-1
		c3.4-1.1,6.4-1.1,8.4-1c1,0.1,1.8,0.2,2.3,0.3c0.5,0.1,0.8,0.2,0.8,0.2s-0.3,0-0.8-0.1c-0.5,0-1.3-0.1-2.3,0c-2,0-4.9,0.4-8,1.7
		c-0.8,0.3-1.6,0.7-2.4,1.1c-0.8,0.4-1.5,0.9-2.2,1.6c-1.3,1.3-2.3,3.1-2.9,5c-0.3,1-0.5,2-0.6,3.1c-0.1,1.1-0.2,2.2-0.4,3.3
		c-0.1,1.1-0.1,2.1,0,3.3c0.1,1.1,0.2,2.2,0.5,3.3c0.2,1.1,0.6,2.1,1.1,3c0.6,1,1.1,1.7,1.9,2.1c1.7,0.8,3.9,0.6,5.6-0.2
		c1.7-0.9,2.9-2.5,3.8-4.2c0.9-1.7,1.6-3.4,2.1-5c0.5-1.6,0.5-3.3,1.7-4.6c0.6-0.6,1.3-0.8,1.9-0.9c0.6-0.1,1.2-0.2,1.7-0.3
		c1-0.1,1.8-0.1,2.4-0.1C85.4,173.5,85.7,173.6,85.7,173.6z"/>
</g>
<g>
	<path class="st0" d="M36.8,113.7c-5.8,5.5-14,10-22.3,9.9c-2.7,0-4.8-0.7-6.3-3c-1.2-1.9-1.9-4.4-0.2-6.2c4.6-5.2,11.9-7.7,18-10.5
		"/>
</g>
<g>
	<path class="st1" d="M13.2,119.5c-2.7,0-4.8-0.7-6.2-2.9c-0.1,1.4,0.4,2.8,1.2,4c1.5,2.3,3.6,3,6.3,3c0.3,0,0.7,0,1,0
		c4.4-0.2,8.6-1.5,12.5-3.6c1.9-1,3.8-2.2,5.5-3.6c1.1-0.9,4.3-2.6,3.1-4.3c0-0.1-0.1-0.1-0.1-0.2c-0.5-0.6-1.6-1.1-2.4-0.9
		c-0.8,0.2-1.7,1.2-2.4,1.7c-1.8,1.3-3.7,2.5-5.7,3.5C22,118.3,17.7,119.5,13.2,119.5z"/>
</g>
<g>
	<path class="st2" d="M36.8,113.7c0,0-0.2,0.2-0.5,0.5c-0.3,0.3-0.8,0.8-1.4,1.3c-0.6,0.6-1.4,1.2-2.3,1.9c-0.9,0.7-2,1.5-3.2,2.2
		c-2.4,1.5-5.4,3-8.9,3.9c-1.7,0.4-3.6,0.7-5.5,0.8c-1.9,0.1-4-0.1-5.8-1.4c-0.9-0.6-1.5-1.5-2-2.4c-0.5-0.9-0.9-1.9-1-2.9
		c-0.1-1,0.1-2.2,0.7-3.1c0.1-0.2,0.3-0.4,0.5-0.7l0.5-0.5c0.3-0.3,0.6-0.6,1-0.9c1.4-1.2,2.8-2.2,4.2-3c1.4-0.8,2.8-1.5,4.1-2.1
		c2.6-1.2,4.8-1.9,6.3-2.6c1.5-0.6,2.4-0.9,2.4-0.9s-0.8,0.5-2.3,1.2c-1.5,0.7-3.6,1.8-6.1,3.1c-1.2,0.7-2.5,1.4-3.9,2.3
		c-1.3,0.9-2.7,1.9-3.9,3c-0.3,0.3-0.6,0.6-0.9,0.9l-0.5,0.5c-0.1,0.1-0.2,0.3-0.3,0.4c-0.4,0.6-0.5,1.4-0.4,2.2
		c0.1,0.8,0.4,1.6,0.8,2.3c0.4,0.8,1,1.4,1.6,1.9c1.3,1,3.1,1.2,4.9,1.2c1.8,0,3.6-0.2,5.2-0.6c1.7-0.4,3.3-0.9,4.7-1.5
		c1.5-0.6,2.8-1.2,4.1-1.9c1.2-0.7,2.3-1.3,3.3-2c1-0.6,1.8-1.2,2.4-1.7c0.6-0.5,1.2-0.9,1.5-1.2C36.6,113.8,36.8,113.7,36.8,113.7z
		"/>
</g>
</svg>
