<?xml version="1.0" encoding="utf-8"?>
<!-- Generator: Adobe Illustrator 21.1.0, SVG Export Plug-In . SVG Version: 6.00 Build 0)  -->
<svg version="1.1" id="Layer_1" xmlns="http://www.w3.org/2000/svg" xmlns:xlink="http://www.w3.org/1999/xlink" x="0px" y="0px"
	 viewBox="0 0 163.6 219.2" style="enable-background:new 0 0 163.6 219.2;" xml:space="preserve">
<style type="text/css">
	.st0{fill:#D7EDE4;}
	.st1{fill:#A0BBAF;}
	.st2{fill:#0B0B0B;}
	.st3{fill:#FFFFFF;}
	.st4{fill:#D6DDDC;}
	.st5{fill:#D8B59B;}
	.st6{fill:#A78F76;}
	.st7{fill:#474840;}
	.st8{fill:#30302B;}
	.st9{fill:#C2C2C1;}
	.st10{fill:#292929;}
	.st11{fill:#323232;}
	.st12{opacity:0.5;}
	.st13{fill:#C0B399;}
	.st14{fill:#FFCA07;}
	.st15{fill:#E2A026;}
	.st16{fill:#505080;}
	.st17{fill:#8282B7;}
	.st18{fill:#575757;}
	.st19{fill:#0E1D3E;}
	.st20{fill:#582F83;}
	.st21{fill:#482C75;}
	.st22{fill:#F6EC7B;}
	.st23{fill:#162D54;}
	.st24{fill:#1F4491;}
	.st25{fill:#22386F;}
	.st26{fill:#E5F4F7;}
	.st27{fill:#E41E30;}
	.st28{fill:#931C3E;}
	.st29{fill:#010101;}
</style>
<g>
	<path class="st0" d="M86.3,189.1c0.1,8.3-2.1,17.7-8,24c-1.9,2-3.9,3.2-6.7,2.7c-2.3-0.4-4.7-1.7-4.9-4.2
		c-0.8-7.1,2.5-14.5,4.5-21.1"/>
</g>
<g>
	<path class="st1" d="M74.3,211.2c-1.9,2-3.9,3.2-6.6,2.7c1,1.1,2.5,1.7,3.9,1.9c2.8,0.5,4.8-0.7,6.7-2.7c3.1-3.3,5.1-7.4,6.4-11.7
		c0.5-1.7,3.4-11.3-0.4-11c-2.1,0.1-2.3,2.6-2.6,4.1c-0.3,2-0.8,4-1.4,6C79.1,204.4,77.1,208.2,74.3,211.2z"/>
</g>
<g>
	<path class="st2" d="M86.3,189.1c0,0,0,0.2,0,0.7c0,0.5,0.1,1.1,0.1,2c0,0.9,0,1.9-0.1,3.1c-0.1,1.2-0.2,2.5-0.5,4
		c-0.5,2.9-1.5,6.3-3.3,9.6c-0.9,1.6-2,3.3-3.3,4.7c-1.3,1.5-2.9,3-5.1,3.4c-1.1,0.2-2.2,0.1-3.2-0.1c-1-0.2-2-0.6-2.9-1.3
		c-0.9-0.6-1.6-1.6-1.9-2.7c-0.1-0.3-0.1-0.5-0.2-0.8l0-0.7c0-0.5,0-0.9,0-1.4c0-1.9,0.3-3.7,0.6-5.3c0.3-1.7,0.8-3.2,1.3-4.6
		c0.9-2.8,1.9-5,2.5-6.6c0.6-1.6,1-2.5,1-2.5s-0.2,1-0.7,2.6c-0.5,1.6-1.2,4-1.9,6.8c-0.4,1.4-0.7,2.9-1,4.6
		c-0.3,1.6-0.4,3.4-0.4,5.1c0,0.4,0,0.9,0.1,1.3l0.1,0.7c0,0.1,0.1,0.4,0.1,0.5c0.2,0.7,0.7,1.4,1.4,1.9c0.7,0.5,1.5,0.8,2.4,1
		c0.9,0.2,1.8,0.3,2.6,0.1c1.7-0.3,3.1-1.5,4.3-2.9c1.2-1.4,2.3-2.9,3.2-4.4c0.9-1.6,1.6-3.1,2.2-4.7c0.6-1.5,1-3,1.4-4.4
		c0.3-1.4,0.6-2.7,0.8-3.9c0.2-1.2,0.3-2.2,0.4-3c0.1-0.8,0.1-1.5,0.1-2C86.3,189.4,86.3,189.1,86.3,189.1z"/>
</g>
<g>
	<path class="st0" d="M49.1,144.6c-7.9,2.6-17.6,3.2-25.3-0.6c-2.5-1.2-4.2-2.8-4.6-5.6c-0.3-2.3,0.2-5,2.5-6
		c6.6-2.8,14.5-1.9,21.5-1.9"/>
</g>
<g>
	<path class="st1" d="M24.5,139.6c-2.5-1.2-4.2-2.8-4.6-5.5c-0.7,1.2-0.9,2.8-0.7,4.3c0.4,2.8,2.1,4.4,4.6,5.6
		c7.7,3.8,17.4,3.1,25.3,0.6l-1.6-3.8C40.1,142.8,31.5,143,24.5,139.6z"/>
</g>
<g>
	<path class="st2" d="M49.1,144.6c0,0-0.2,0.1-0.7,0.2c-0.4,0.1-1.1,0.3-1.9,0.4c-0.8,0.2-1.8,0.4-3,0.5c-1.2,0.2-2.5,0.3-3.9,0.4
		c-1.4,0.1-3,0.1-4.7,0c-1.6-0.1-3.4-0.3-5.1-0.7c-1.7-0.4-3.5-1-5.2-1.8c-1.7-0.7-3.3-1.8-4.1-3.3c-0.4-0.8-0.6-1.6-0.7-2.5
		c-0.1-0.9,0-1.8,0.3-2.6c0.3-0.8,0.7-1.5,1.4-1.9c0.1-0.1,0.4-0.2,0.5-0.3l0.6-0.3c0.4-0.2,0.9-0.3,1.3-0.5c1.7-0.5,3.4-0.9,5-1.1
		c1.6-0.2,3.2-0.3,4.6-0.4c2.9-0.1,5.3-0.1,7-0.2c1.7,0,2.7-0.1,2.7-0.1s-1-0.1-2.7-0.2c-1.7-0.1-4.1-0.3-7.1-0.4
		c-1.5,0-3.1,0-4.8,0.2c-1.7,0.2-3.5,0.4-5.3,1c-0.5,0.1-0.9,0.3-1.3,0.5l-0.7,0.2c-0.3,0.1-0.5,0.2-0.7,0.4c-1,0.6-1.6,1.6-2,2.6
		c-0.3,1-0.4,2.1-0.4,3.2c0.1,1,0.3,2.1,0.8,3.1c1.1,2,3,3.1,4.8,3.9c1.8,0.8,3.7,1.4,5.5,1.7c3.7,0.7,7.2,0.7,10.1,0.3
		c1.5-0.2,2.8-0.4,4-0.7c1.2-0.3,2.2-0.5,3-0.8c0.8-0.2,1.4-0.5,1.9-0.6C48.9,144.6,49.1,144.6,49.1,144.6z"/>
</g>
<g>
	<path class="st0" d="M45.3,32.6c1.5,2.6,1.5,6,1,8.9c-0.5,2.8-4.8,3.5-7.1,3.1c-2-0.4-2.2-2.4-3.1-3.7c-1.2-1.8-2.9-3.5-2.5-5.8
		c0.4-2.5,3.5-4.2,5.7-4.8C41.8,29.6,44,30.4,45.3,32.6z"/>
</g>
<g>
	<path class="st1" d="M35.6,35.9c-0.1,0-0.2-0.1-0.2-0.2c0-0.1,0-0.2,0.1-0.3c0.3-0.4,0.6-0.7,1-1c1.2-0.9,2.7-1.6,4.2-1.6
		c0.4,0,0.9,0.1,1.1,0.4c0.1,0.1,0.1,0.2,0.1,0.3c0,0.1-0.1,0.2-0.1,0.3c-0.7,1.1-0.9,2.4-1,3.7c0,0.6,0.1,1.3,0.3,1.9
		c0.1,0.3,0.2,0.6,0.4,0.8c0.1,0.1,0.5,0.6,0.5,0.7c-0.1,0.3-0.2,0.6-0.4,0.9c-0.9-0.8-2-3.1-2.6-3.7c-0.6-0.7-1.3-1.2-2.1-1.5
		c-0.3-0.1-0.6-0.3-1-0.4C35.9,36,35.7,36,35.6,35.9z"/>
</g>
<g>
	<path class="st2" d="M39.1,45.1c-1.7-0.3-2.2-1.6-2.8-2.7c-0.2-0.4-0.4-0.9-0.6-1.2c-0.2-0.3-0.5-0.7-0.7-1c-1-1.5-2.2-3.1-1.9-5.2
		c0.5-2.9,4-4.6,6.1-5.2c2.7-0.7,5.1,0.2,6.5,2.6l0,0c1.8,3.1,1.5,7.1,1.1,9.2c-0.5,2.6-3.8,3.6-6.3,3.6
		C40,45.2,39.5,45.1,39.1,45.1z M44.9,32.9c-1.2-2-3.1-2.8-5.4-2.1c-2.3,0.6-5,2.3-5.3,4.4c-0.3,1.7,0.7,3,1.7,4.4
		c0.2,0.3,0.5,0.7,0.7,1c0.3,0.4,0.5,0.9,0.7,1.3c0.5,1.1,0.9,2,2,2.2c2,0.4,6.1-0.2,6.5-2.7C46.2,39.4,46.5,35.7,44.9,32.9
		L44.9,32.9z"/>
</g>
<g>
	<path class="st2" d="M42,33.2c0,0-0.1,0.1-0.3,0.3c-0.2,0.2-0.5,0.5-0.7,0.9c-0.3,0.4-0.5,1-0.6,1.6c-0.2,0.6-0.2,1.3-0.2,1.9
		c0.1,0.7,0.2,1.3,0.4,1.9c0.2,0.6,0.5,1.1,0.9,1.5c0.3,0.4,0.6,0.6,0.9,0.8c0.2,0.2,0.4,0.2,0.4,0.2s-0.1-0.1-0.2-0.4
		c-0.1-0.2-0.3-0.6-0.5-1c-0.4-0.8-0.7-2-0.8-3.1c-0.1-0.6,0-1.2,0-1.7c0.1-0.5,0.2-1.1,0.3-1.5C41.7,33.7,42,33.2,42,33.2z"/>
</g>
<g>
	<path class="st2" d="M35.3,35.9c0,0,0.6,0.2,1.4,0.6c0.4,0.2,0.8,0.5,1.2,0.8c0.2,0.2,0.4,0.3,0.6,0.5c0.2,0.2,0.4,0.4,0.6,0.6
		c0.8,0.8,1.4,1.8,1.7,2.6c0.2,0.4,0.3,0.7,0.4,1c0.1,0.2,0.2,0.4,0.2,0.4s0-0.2,0-0.4c0-0.3,0-0.7-0.1-1.1c-0.1-0.5-0.2-1-0.5-1.5
		c-0.3-0.5-0.6-1.1-1-1.5c-0.2-0.2-0.4-0.4-0.7-0.7c-0.2-0.2-0.5-0.4-0.8-0.5c-0.5-0.3-1-0.5-1.5-0.6c-0.5-0.1-0.9-0.1-1.1-0.1
		C35.4,35.9,35.3,35.9,35.3,35.9z"/>
</g>
<g>
	<path class="st0" d="M152.1,181.9c2.6-4.5,4.1-9.7,5.3-14.8c3-12.7-1.3-26.1-3.1-38.6c-0.6-4.3-0.9-8.7-1.4-13
		c-0.8-6.6-2.1-13.1-4-19.4c-3.4-11.2-8.3-23.2-15.1-32.8c-2.7-3.9-5.9-7.7-9.1-11.2c-3.1-3.4-6.5-6.7-10.2-9.5
		c-6.5-4.9-15.4-8.5-23.5-9.6c-13.5-1.9-28.6-0.9-41.3,4.5c-16.6,7.1-24.4,25.5-23.5,42.7c0.6,10.7,1.4,20.2,6.3,30.1
		c4.5,9.3,11.6,18,11.5,28.4c-0.2,9.9-0.5,20.2,2.3,29.8c2.6,9.1,5.9,15.9,12.7,22.6c8.9,8.8,19.7,13.1,32.1,14.1
		c5.5,0.4,10.9,0.4,16.3-0.2c7.1-0.9,13.9-0.8,20.9-3C138.7,198.6,146.6,191.3,152.1,181.9z"/>
</g>
<g>
	<path class="st1" d="M32.2,52.5c-0.5,0.8-0.8,1.6-0.6,2.3c0.8,3.1,8.8,4,11.3,4.7c11.8,3.3,24.5,4.2,36.5,4.2
		c12.5,0,25.3-0.9,37.3-4.4c2.6-0.8,5.8-1.2,8-3c4.8-3.9-6.4-10.3-8.9-11.8c-7.4-4.5-16.1-4.9-24.5-5.4C81.2,38.7,71,39,61,40.3
		C55.5,41,49.9,42,44.8,44.1C42.4,45,34.5,49,32.2,52.5z"/>
</g>
<g>
	<path class="st1" d="M52.9,183.1c8.9,8.8,19.7,13.1,32.1,14.1c5.5,0.4,10.9,0.4,16.3-0.2c7.1-0.9,13.9-0.8,20.9-3
		c10.5-3.4,18.4-10.7,23.9-20.1c2.6-4.5,4.1-9.7,5.3-14.8c3-12.7-1.3-26.1-3.1-38.6c-0.3-2.1,0.1-9.2-1.8-10.3
		c-1.8-1.1-4.6,0.4-6.4,1c-3.7,1.2-5.1,4-5,7.8c0.1,3.8,2.1,7.4,5,9.9c3,2.6,7.1,4.9,10.9,2.4c0.1-0.1,0.2-0.1,0.3-0.1
		c0.1,0,0.1,0.1,0.1,0.2c0.1,0.4,0.1,0.7,0.2,1.1c0,0.2,0.1,0.5,0,0.7c-0.1,0.2-0.3,0.3-0.5,0.5c-2.8,1.8-6.4,1.4-9.4,0.3
		c-6.1-2.3-11.8-6.8-13.5-13.1c-0.6-2.1-0.6-4.3,0.2-6.3c0.8-1.8,2.3-3.2,3.8-4.5c1.8-1.6,3.7-3,5.7-4.4c0.9-0.6,1.8-1.3,2.9-1.6
		c1.1-0.3,2.4-0.3,3.5-0.7c2.7-1.1,1.4-3.9,0.9-5.9c-0.6-3.2-1.4-6.3-2.4-9.4c-3.2-10.6-7.7-21.8-14-31.1c1.7,2.1,3.3,4.2,4.8,6.3
		c6.9,9.6,11.7,21.6,15.1,32.8c1.9,6.3,3.2,12.9,4,19.4c0.5,4.3,0.8,8.7,1.4,13c1.9,12.5,6.1,25.9,3.1,38.6
		c-1.2,5.1-2.7,10.2-5.3,14.8c-5.5,9.4-13.4,16.8-23.9,20.1c-6.9,2.2-13.8,2.1-20.9,3c-5.4,0.7-10.8,0.7-16.3,0.2
		c-12.5-1-23.2-5.3-32.1-14.1c-3.1-3-5.4-6.1-7.3-9.3C52,182.2,52.4,182.6,52.9,183.1z"/>
</g>
<g>
	<path class="st2" d="M90.9,206c-13.3-1.1-23.9-5.8-32.6-14.4c-7.3-7.2-10.4-14.4-12.9-22.9c-2.6-9.2-2.5-18.9-2.3-28.3l0-1.8
		c0.1-7.5-3.8-14.3-7.5-20.9c-1.3-2.3-2.7-4.7-3.8-7.1c-4.9-10-5.8-19.7-6.4-30.4C24.6,64,31.7,44.3,49.4,36.8
		C61.2,31.7,76,30.1,91,32.2c8.3,1.2,17.4,4.9,23.8,9.7c3.5,2.6,6.8,5.8,10.3,9.6c3.6,3.9,6.7,7.7,9.2,11.3
		c5.9,8.3,11,19.5,15.2,33.1c1.9,6.1,3.2,12.5,4,19.6c0.2,1.7,0.4,3.4,0.5,5.2c0.3,2.6,0.5,5.2,0.9,7.8c0.4,3,1,6.1,1.6,9.1
		c1.9,9.8,3.8,20,1.5,29.8c-1.2,5-2.7,10.3-5.4,15l0,0c-5.9,10.2-14.3,17.3-24.3,20.5c-4.9,1.6-9.9,2-14.7,2.4
		c-2.1,0.2-4.2,0.3-6.3,0.6c-2.9,0.4-5.9,0.6-9.1,0.6C96,206.3,93.5,206.2,90.9,206z M156.6,166.9c2.2-9.5,0.3-19.5-1.5-29.2
		c-0.6-3-1.2-6.1-1.6-9.1c-0.4-2.6-0.7-5.3-0.9-7.9c-0.2-1.7-0.3-3.4-0.5-5.1c-0.8-7-2.1-13.3-4-19.3c-4.1-13.4-9.2-24.4-15-32.6
		c-2.5-3.5-5.5-7.2-9-11.1c-3.4-3.7-6.7-6.8-10.1-9.4c-6.2-4.7-15.1-8.3-23.1-9.4c-14.7-2.1-29.3-0.5-40.9,4.5
		c-17.1,7.3-23.9,26.3-23,42c0.6,10.5,1.4,20,6.2,29.8c1.2,2.4,2.5,4.7,3.8,7c3.9,6.8,7.8,13.8,7.7,21.7l0,1.8
		c-0.2,9.3-0.3,18.9,2.3,27.8c2.4,8.3,5.4,15.3,12.5,22.3c8.4,8.3,18.8,12.9,31.7,13.9c5.9,0.5,11.1,0.4,16.2-0.2
		c2.1-0.3,4.3-0.4,6.4-0.6c4.9-0.4,9.6-0.8,14.4-2.3c9.6-3.1,17.7-9.9,23.5-19.8C154.1,177,155.5,171.8,156.6,166.9z"/>
</g>
<g>
	<g>
		<path class="st1" d="M54.3,98c0-0.3,0.1-0.6,0.2-0.9c0.1-0.3,0.2-0.5,0.4-0.8c0.1-0.1,0.2-0.2,0.2-0.4l0.1-0.2l0.1-0.1
			c0.8-0.8,1.8-1.2,2.8-1.6c0.3-0.1,0.7-0.2,1-0.3c0,0,0-0.1,0-0.1c0-0.3,0.1-0.7,0.3-1c0.2-0.3,0.5-0.5,0.7-0.6
			c0.3-0.1,0.6-0.2,0.9-0.2c0.3,0,0.5,0,0.8,0l0.8,0.1c0.4,0,0.7,0,1.1,0.1c0.4,0,0.7,0,1.1-0.1l0.8-0.1c0.3,0,0.5-0.1,0.8,0
			c0.3,0,0.6,0.1,0.9,0.2c0.3,0.1,0.6,0.4,0.7,0.6c0.2,0.3,0.2,0.6,0.3,0.9c0.6,0.1,1.2,0.3,1.8,0.5c0.9,0.3,2,0.7,2.8,1.6l0.1,0.1
			l0.1,0.2c0.1,0.1,0.2,0.2,0.2,0.4c0.2,0.2,0.3,0.5,0.4,0.8c0.1,0.3,0.2,0.6,0.2,0.9c0,0.3,0,0.6,0,0.8c0.1,0.5,0,1-0.1,1.6
			c-0.1,0.3-0.2,0.6-0.3,0.8c-0.1,0.1-0.2,0.3-0.2,0.4c-0.1,0.1-0.1,0.1-0.2,0.2l-0.1,0.1c-0.1,0.1-0.2,0.2-0.3,0.3
			c-0.1,0.1-0.2,0.2-0.4,0.3c-0.3,0.1-0.5,0.3-0.8,0.3c-0.6,0.1-1.1,0.1-1.6,0.1c-0.4,0-0.7-0.1-1.1-0.1c0.1,0.4,0.1,1,0.2,1.5
			c0,0.5,0,1-0.2,1.6c-0.2,0.5-0.5,1.1-1,1.5c-0.5,0.4-1.1,0.8-1.8,0.9c-0.2,0-0.3,0-0.5,0l-0.5,0l-0.9,0l-0.9,0c-0.3,0-0.7,0-1-0.1
			c-0.7-0.2-1.3-0.5-1.7-1c-0.5-0.4-0.8-1-0.9-1.6c-0.1-0.3-0.1-0.6-0.1-0.9c0-0.1,0-0.2,0-0.4c0-0.1,0-0.2,0-0.4
			c0-0.5,0.1-0.9,0.1-1.3c-0.3,0.1-0.7,0.1-1.1,0.1c-0.5,0-1.1,0-1.6-0.1c-0.3-0.1-0.6-0.2-0.8-0.3c-0.1-0.1-0.3-0.2-0.4-0.3
			c-0.1-0.1-0.3-0.2-0.3-0.3l-0.1-0.1c-0.1-0.1-0.1-0.1-0.2-0.2c-0.1-0.1-0.2-0.2-0.2-0.4c-0.1-0.3-0.3-0.5-0.3-0.8
			c-0.1-0.5-0.1-1.1-0.1-1.6C54.2,98.6,54.2,98.3,54.3,98z"/>
	</g>
</g>
<g id="tith_36_">
	<path class="st3" d="M62.4,105.7h1.4c2,0,3.7-1.7,3.7-3.7v-1.4c0-2-1.7-3.7-3.7-3.7h-1.4c-2,0-3.7,1.7-3.7,3.7v1.4
		C58.7,104.1,60.3,105.7,62.4,105.7z"/>
</g>
<g>
	<path class="st4" d="M58.7,102.2c0-0.1,0-0.1,0-0.2v-1.4c0-2,1.7-3.7,3.7-3.7h1.4c2,0,3.7,1.7,3.7,3.7v1.4c0,0.1,0,0.3,0,0.4
		C65.1,101.4,61.2,101,58.7,102.2z"/>
</g>
<g id="tith_35_">
	<path class="st2" d="M58.8,99.2c0,0,0,0.1-0.1,0.2c-0.1,0.1-0.1,0.3-0.2,0.6c-0.1,0.5-0.2,1.3-0.3,2.1c0,0.1,0,0.2,0,0.4
		c0,0.1,0,0.2,0,0.4c0,0.3,0.1,0.6,0.1,0.9c0.2,0.6,0.5,1.1,0.9,1.6c0.5,0.5,1.1,0.8,1.7,1c0.3,0.1,0.7,0.1,1,0.1l0.9,0l0.9,0l0.5,0
		c0.1,0,0.3,0,0.5,0c0.7-0.1,1.3-0.4,1.8-0.9c0.5-0.4,0.8-1,1-1.5c0.2-0.5,0.2-1.1,0.2-1.6c-0.1-0.9-0.2-1.6-0.2-2.1
		c-0.1-0.3-0.1-0.5-0.2-0.6c0-0.1-0.1-0.2-0.1-0.2s0,0.3,0,0.8c-0.1,0.5-0.2,1.3-0.2,2.1c0,0.4-0.1,0.8-0.3,1.2
		c-0.2,0.4-0.5,0.7-0.9,1c-0.4,0.3-0.8,0.4-1.3,0.5c-0.1,0-0.2,0-0.4,0l-0.4,0l-0.9,0l-0.9,0c-0.3,0-0.5,0-0.7-0.1
		c-0.5-0.1-0.9-0.3-1.2-0.6c-0.3-0.3-0.6-0.7-0.8-1c-0.1-0.2-0.1-0.4-0.2-0.6c0-0.1,0-0.2-0.1-0.3c0-0.1,0-0.2,0-0.3
		c-0.1-0.9-0.2-1.6-0.2-2.1C58.8,99.5,58.8,99.2,58.8,99.2z"/>
</g>
<g>
	<path class="st5" d="M53.9,96.7c-0.1-0.9,0.3-1.9,0.9-2.5c0.6-0.6,1.4-1,2.1-1.3c1-0.4,2.1-0.7,3.1-0.9c1.1-0.2,2-0.2,3-0.1
		c1-0.1,1.9-0.1,3,0.1c1.1,0.2,2.1,0.5,3.1,0.9c0.8,0.3,1.5,0.7,2.1,1.3s1,1.6,0.9,2.5c0,0.1,0,0.1,0,0.2c0.1,0.9,0,1.9-0.6,2.5
		c-1.2,1.4-2.7,1-4.2,0.9c-1.5-0.1-2.9-0.5-4.4-0.7c-1.5,0.2-2.9,0.6-4.4,0.7c-1.4,0.1-3,0.5-4.2-0.9c-0.6-0.7-0.7-1.6-0.6-2.5
		C53.9,96.8,53.9,96.7,53.9,96.7z"/>
</g>
<g>
	<path class="st6" d="M66.8,98.7c0.5,0,0.8-0.1,1.1-0.3c0.4-0.2,0.7-0.4,1.1-0.8c0.6-0.7,0.7-1.6,0.6-2.5c0-0.1,0-0.1,0-0.2
		c0.1-0.8-0.2-1.5-0.7-2.1c0.1,0,0.2,0.1,0.2,0.1c0.8,0.3,1.5,0.7,2.1,1.3c0.6,0.6,1,1.6,0.9,2.5c0,0.1,0,0.1,0,0.2
		c0.1,0.9,0,1.9-0.6,2.5c-1.2,1.4-2.7,1-4.2,0.9c-1.5-0.1-2.9-0.5-4.4-0.7c-1.5,0.2-2.9,0.6-4.4,0.7c-1.4,0.1-2.9,0.4-4-0.7
		C58.7,98.6,62.7,98.3,66.8,98.7z"/>
</g>
<g>
	<path class="st2" d="M53.9,96.8L53.9,96.8c-0.1,0.9,0.1,2,0.8,2.7c0.3,0.3,0.8,0.6,1.2,0.7c0.5,0.1,0.9,0.1,1.4,0.1
		c0.5,0,1-0.1,1.4-0.2c0.5-0.1,0.9-0.2,1.4-0.3c0.9-0.2,1.9-0.4,2.9-0.6l0,0l0.1,0c1,0.1,1.9,0.2,2.9,0.4c0.5,0.1,0.9,0.1,1.4,0.1
		l1.4,0.1c0.4,0,0.9,0,1.2-0.1c0.2-0.1,0.4-0.1,0.5-0.2c0.1-0.1,0.2-0.1,0.2-0.2c0.1-0.1,0.1-0.1,0.2-0.2l0.1-0.1l0.1-0.1
		c0.1-0.1,0.1-0.1,0.1-0.2c0.1-0.2,0.1-0.3,0.2-0.5c0.1-0.4,0.1-0.8,0-1.2l0-0.1l0-0.1c0.1-0.2,0-0.4,0-0.6c0-0.2-0.1-0.4-0.1-0.6
		c-0.1-0.2-0.2-0.4-0.3-0.5c-0.1-0.1-0.1-0.2-0.2-0.2L71,94.7l-0.1-0.1c-0.5-0.6-1.4-1-2.2-1.4c-0.9-0.4-1.8-0.7-2.7-0.9
		c-0.9-0.2-1.9-0.3-2.8-0.2l0,0l0,0c-0.9-0.1-1.9-0.1-2.8,0c-0.9,0.1-1.9,0.3-2.8,0.6c-0.9,0.3-1.8,0.7-2.5,1.3
		c-0.7,0.7-1.1,1.6-1,2.6L53.9,96.8z M54.9,94c0.7-0.7,1.6-1.1,2.5-1.5c0.9-0.4,1.8-0.7,2.8-0.9c1-0.2,2-0.3,2.9-0.2h0
		c1-0.1,2-0.1,3,0c1,0.1,2,0.4,2.9,0.7c0.9,0.3,2,0.7,2.8,1.6l0.1,0.1l0.1,0.2c0.1,0.1,0.2,0.2,0.2,0.4c0.2,0.2,0.3,0.5,0.4,0.8
		c0.1,0.3,0.2,0.6,0.2,0.9c0,0.3,0,0.6,0,0.9l0-0.2c0.1,0.5,0.1,1.1-0.1,1.7c-0.1,0.3-0.2,0.6-0.3,0.8c-0.1,0.1-0.2,0.3-0.2,0.4
		c-0.1,0.1-0.1,0.1-0.2,0.2l-0.1,0.1c-0.1,0.1-0.2,0.2-0.3,0.3c-0.1,0.1-0.2,0.2-0.4,0.3c-0.3,0.1-0.5,0.3-0.8,0.3
		c-0.6,0.1-1.1,0.1-1.6,0.1c-0.5,0-1-0.1-1.5-0.2c-0.5-0.1-1-0.2-1.5-0.3c-1-0.2-1.9-0.4-2.8-0.6l0.1,0c-0.9,0.1-1.9,0.2-2.9,0.4
		c-1,0.1-1.9,0.2-2.9,0.2c-0.5,0-1,0-1.5-0.2c-0.5-0.1-0.9-0.4-1.2-0.8c-0.7-0.7-0.9-1.8-0.7-2.7v0l0-0.2
		C53.8,95.7,54.2,94.7,54.9,94z"/>
</g>
<g>
	<path class="st2" d="M72.2,96.8L72.2,96.8c0.1,0.9,0,2-0.7,2.7c-0.3,0.4-0.8,0.6-1.2,0.8c-0.5,0.1-1,0.2-1.5,0.2
		c-1,0-1.9-0.1-2.9-0.2c-1-0.1-1.9-0.3-2.9-0.4l0.1,0c-0.9,0.2-1.9,0.4-2.8,0.6c-0.5,0.1-1,0.2-1.5,0.3c-0.5,0.1-1,0.2-1.5,0.2
		c-0.5,0-1.1,0-1.6-0.1c-0.3-0.1-0.6-0.2-0.8-0.3c-0.1-0.1-0.3-0.2-0.4-0.3c-0.1-0.1-0.3-0.2-0.3-0.3l-0.1-0.1
		c-0.1-0.1-0.1-0.1-0.2-0.2c-0.1-0.1-0.2-0.2-0.2-0.4c-0.1-0.3-0.3-0.5-0.3-0.8c-0.1-0.6-0.2-1.1-0.1-1.7l0,0.2
		c-0.1-0.3,0-0.6,0-0.9c0-0.3,0.1-0.6,0.2-0.9c0.1-0.3,0.2-0.5,0.4-0.8c0.1-0.1,0.2-0.2,0.2-0.4l0.1-0.2l0.1-0.1
		c0.8-0.8,1.8-1.2,2.8-1.6c1-0.3,1.9-0.5,2.9-0.7c1-0.1,2-0.1,3,0h0c1,0,2,0,2.9,0.2c1,0.2,1.9,0.5,2.8,0.9c0.9,0.4,1.8,0.8,2.5,1.5
		c0.7,0.7,1.1,1.7,1,2.6L72.2,96.8z M71.2,94.1c-0.7-0.7-1.6-1-2.5-1.3c-0.9-0.3-1.8-0.5-2.8-0.6C65,92,64,92,63.1,92.1l0,0l0,0
		c-1,0-1.9,0-2.8,0.2c-0.9,0.2-1.8,0.5-2.7,0.9c-0.9,0.4-1.7,0.8-2.2,1.4l-0.1,0.1l-0.1,0.1C55,94.9,55,95,54.9,95.1
		c-0.1,0.2-0.2,0.4-0.3,0.5c-0.1,0.2-0.1,0.4-0.1,0.6c0,0.2,0,0.4,0,0.6l0,0.1l0,0.1c-0.1,0.4,0,0.8,0,1.2c0,0.2,0.1,0.4,0.2,0.5
		c0,0.1,0.1,0.2,0.1,0.2l0.1,0.1l0.1,0.1c0.1,0.1,0.1,0.1,0.2,0.2c0.1,0.1,0.1,0.1,0.2,0.2c0.2,0.1,0.3,0.2,0.5,0.2
		c0.4,0.1,0.8,0.1,1.2,0.1l1.4-0.1c0.5,0,0.9-0.1,1.4-0.1c0.9-0.1,1.9-0.3,2.9-0.4l0.1,0l0,0c1,0.2,1.9,0.4,2.9,0.6
		c0.5,0.1,0.9,0.2,1.4,0.3c0.5,0.1,1,0.2,1.4,0.2c0.5,0,1,0,1.4-0.1c0.5-0.1,0.9-0.3,1.2-0.7c0.7-0.7,0.9-1.7,0.8-2.7l0,0l0-0.2
		C72.3,95.7,71.9,94.7,71.2,94.1z"/>
</g>
<g>
	<path class="st7" d="M60.7,90.2c0.1,0,0.1,0,0.2,0c0.5,0,3,0,3.6,0c0.1,0,0.2,0,0.2,0c2.7-0.1,2.4,2.5,0.8,3.6
		c-0.7,0.5-1.7,0.6-2.6,0.6c-0.1,0-0.1,0-0.2,0c-0.1,0-0.1,0-0.2,0c-0.9,0-1.9-0.1-2.6-0.6C58.3,92.7,58,90.1,60.7,90.2z"/>
</g>
<g>
	<path class="st8" d="M59.9,92.1c0.7,0.5,1.7,0.6,2.6,0.6c0.1,0,0.1,0,0.2,0c0.1,0,0.1,0,0.2,0c0.9,0,1.9-0.1,2.6-0.6
		c0.4-0.3,0.8-0.7,1-1.2c0.6,0.8,0.1,2.2-1,2.9c-0.7,0.5-1.7,0.6-2.6,0.6c-0.1,0-0.1,0-0.2,0c-0.1,0-0.1,0-0.2,0
		c-0.9,0-1.9-0.1-2.6-0.6c-1.1-0.7-1.6-2.1-1-2.9C59.1,91.4,59.5,91.8,59.9,92.1z"/>
</g>
<g>
	<path class="st2" d="M59.7,90.4c-0.2,0.1-0.3,0.1-0.4,0.2c-0.1,0.1-0.2,0.2-0.3,0.4c-0.1,0.1-0.1,0.3-0.1,0.5c0,0.2,0,0.3,0,0.5
		c0.1,0.3,0.2,0.6,0.4,0.9c0.1,0.1,0.2,0.2,0.3,0.3c0.1,0.1,0.2,0.2,0.4,0.3c0.2,0.1,0.2,0.1,0.4,0.2c0.1,0,0.3,0.1,0.4,0.1
		c0.3,0.1,0.6,0.1,0.9,0.1c0.3,0,0.7,0,1,0l0,0l0,0c0.2,0,0.5,0,0.7,0c0.2,0,0.5-0.1,0.7-0.1c0.2,0,0.4-0.1,0.6-0.2
		c0.1,0,0.2-0.1,0.3-0.1c0,0,0.1-0.1,0.2-0.1l0.1-0.1c0.6-0.5,1.2-1.3,0.9-2c-0.1-0.2-0.2-0.3-0.3-0.4c-0.2-0.1-0.4-0.2-0.6-0.3
		c-0.1,0-0.2,0-0.4-0.1c-0.1,0-0.2,0-0.4,0l-0.8-0.1c-1-0.1-2.1-0.1-3.1-0.1C60.3,90.2,60,90.2,59.7,90.4z M63.8,90.1l0.8-0.1
		c0.3,0,0.5-0.1,0.8,0c0.3,0,0.6,0.1,0.9,0.2c0.3,0.1,0.6,0.4,0.7,0.6c0.2,0.3,0.3,0.6,0.3,1c0,0.3,0,0.6-0.1,0.9
		c-0.2,0.6-0.6,1.1-1.1,1.5l-0.2,0.2l-0.2,0.1c-0.2,0.1-0.3,0.2-0.4,0.2c-0.3,0.1-0.6,0.2-0.9,0.2c-0.3,0-0.6,0.1-0.8,0.1
		c-0.3,0-0.5,0-0.8,0l0,0c-0.4,0-0.7,0-1.1-0.1c-0.4-0.1-0.7-0.1-1.1-0.3c-0.2-0.1-0.4-0.2-0.5-0.3c-0.2-0.1-0.3-0.3-0.5-0.4
		c-0.1-0.1-0.3-0.3-0.4-0.4c-0.1-0.2-0.2-0.3-0.3-0.5c-0.2-0.3-0.3-0.7-0.3-1.1c0-0.2,0-0.4,0-0.5c0-0.2,0.1-0.4,0.2-0.5
		c0.1-0.2,0.2-0.3,0.4-0.4c0.2-0.1,0.3-0.2,0.5-0.2c0.3-0.1,0.7-0.1,1-0.1C61.7,90.2,62.7,90.2,63.8,90.1z"/>
</g>
<g>
	<path class="st2" d="M65.7,90.3c0.2,0,0.3,0.1,0.5,0.2c0.1,0.1,0.3,0.2,0.4,0.4c0.1,0.2,0.2,0.3,0.2,0.5c0,0.2,0,0.4,0,0.5
		c0,0.4-0.1,0.7-0.3,1.1c-0.1,0.2-0.2,0.3-0.3,0.5c-0.1,0.1-0.3,0.3-0.4,0.4c-0.1,0.1-0.3,0.3-0.5,0.4c-0.2,0.1-0.3,0.2-0.5,0.3
		c-0.4,0.1-0.7,0.2-1.1,0.3C63.4,95,63.1,95,62.7,95l0,0c-0.3,0-0.5,0-0.8,0c-0.3,0-0.6,0-0.8-0.1c-0.3,0-0.6-0.1-0.9-0.2
		c-0.1-0.1-0.3-0.1-0.4-0.2l-0.2-0.1l-0.2-0.2c-0.5-0.4-0.8-0.9-1.1-1.5c-0.1-0.3-0.2-0.6-0.1-0.9c0-0.3,0.1-0.7,0.3-1
		c0.2-0.3,0.5-0.5,0.7-0.6c0.3-0.1,0.6-0.2,0.9-0.2c0.3,0,0.5,0,0.8,0l0.8,0.1c1,0.1,2.1,0.1,3.1,0.1C65.1,90.2,65.4,90.2,65.7,90.3
		z M61.6,90.3l-0.8,0.1c-0.1,0-0.2,0-0.4,0c-0.1,0-0.3,0-0.4,0.1c-0.2,0.1-0.4,0.1-0.6,0.3c-0.2,0.1-0.3,0.3-0.3,0.4
		c-0.2,0.7,0.3,1.5,0.9,2l0.1,0.1c0.1,0,0.1,0.1,0.2,0.1c0.1,0,0.2,0.1,0.3,0.1c0.2,0.1,0.4,0.1,0.6,0.2c0.2,0,0.5,0.1,0.7,0.1
		c0.2,0,0.5,0,0.7,0l0,0l0,0c0.3,0,0.7,0,1,0c0.3,0,0.6,0,0.9-0.1c0.1,0,0.3-0.1,0.4-0.1c0.2-0.1,0.2-0.1,0.4-0.2
		c0.2-0.1,0.2-0.2,0.4-0.3c0.1-0.1,0.2-0.2,0.3-0.3c0.2-0.3,0.4-0.5,0.4-0.9c0-0.2,0.1-0.3,0-0.5c0-0.2-0.1-0.3-0.1-0.5
		c-0.1-0.2-0.2-0.3-0.3-0.4c-0.1-0.1-0.3-0.2-0.4-0.2c-0.3-0.1-0.7-0.1-1-0.2C63.7,90.2,62.7,90.3,61.6,90.3z"/>
</g>
<g>
	<rect x="62.3" y="99.5" class="st2" width="1" height="6.5"/>
</g>
<g>
	<circle class="st3" cx="97" cy="80.7" r="23.3"/>
</g>
<g>
	<path class="st9" d="M115.2,80.7c0-12-9.1-21.9-20.8-23.1c0.8-0.1,1.7-0.1,2.5-0.1c12.8,0,23.3,10.4,23.3,23.3S109.8,104,97,104
		c-0.8,0-1.7,0-2.5-0.1C106.1,102.6,115.2,92.7,115.2,80.7z"/>
</g>
<g>
	<path class="st2" d="M72.9,80.7c0-13.2,10.8-24,24-24s24,10.8,24,24c0,13.2-10.8,24-24,24S72.9,94,72.9,80.7z M74.4,80.7
		c0,12.4,10.1,22.5,22.5,22.5s22.5-10.1,22.5-22.5c0-12.4-10.1-22.5-22.5-22.5S74.4,68.3,74.4,80.7z"/>
</g>
<g>
	<circle class="st2" cx="103.7" cy="80.9" r="4.5"/>
</g>
<g>
	<ellipse class="st3" cx="102.5" cy="78.7" rx="1.3" ry="1"/>
</g>
<g>
	<circle class="st3" cx="35.9" cy="79.6" r="19.9"/>
</g>
<g>
	<path class="st9" d="M51.6,79.6c0-10.1-7.6-18.3-17.4-19.4c0.7-0.1,1.4-0.1,2.1-0.1c10.8,0,19.5,8.7,19.5,19.5S47,99.1,36.2,99.1
		c-0.7,0-1.4,0-2.1-0.1C43.9,98,51.6,89.7,51.6,79.6z"/>
</g>
<g>
	<path class="st2" d="M15.3,79.6c0-11.4,9.2-20.6,20.6-20.6s20.6,9.2,20.6,20.6s-9.2,20.6-20.6,20.6S15.3,90.9,15.3,79.6z
		 M16.8,79.6c0,10.5,8.6,19.1,19.1,19.1S55,90.1,55,79.6s-8.6-19.1-19.1-19.1S16.8,69,16.8,79.6z"/>
</g>
<g>
	<circle class="st2" cx="41.7" cy="79.7" r="3.9"/>
</g>
<g>
	<ellipse class="st3" cx="40.6" cy="77.9" rx="1.1" ry="0.8"/>
</g>
<g>
	<path class="st0" d="M148.6,130.4c6.7-5,12.7-12.6,14.1-21.1c0.4-2.8,0.1-5.1-2-7c-1.7-1.6-4.2-2.7-6.3-1.3
		c-6.1,3.8-9.9,10.8-13.9,16.6"/>
</g>
<g>
	<path class="st1" d="M158.7,107.3c0.4-2.7,0.1-5-1.9-6.9c1.4,0.1,2.8,0.9,3.9,1.9c2.1,1.9,2.4,4.2,2,7c-1.4,8.5-7.4,16.1-14.1,21.1
		l-2.2-3.4C152.3,122,157.5,115,158.7,107.3z"/>
</g>
<g>
	<path class="st2" d="M148.6,130.4c0,0,0.2-0.1,0.6-0.4c0.4-0.3,0.9-0.6,1.6-1.2c0.7-0.5,1.5-1.2,2.4-2c0.9-0.8,1.9-1.7,2.8-2.8
		c2-2.2,4-5,5.5-8.5c0.8-1.7,1.4-3.6,1.7-5.5c0.4-1.9,0.6-4.2-0.4-6.2c-0.5-1-1.3-1.8-2-2.4c-0.8-0.7-1.7-1.2-2.8-1.5
		c-1-0.3-2.2-0.3-3.3,0.1c-0.3,0.1-0.5,0.2-0.7,0.4l-0.6,0.4c-0.4,0.2-0.8,0.5-1.1,0.8c-1.5,1.2-2.7,2.5-3.8,3.8
		c-1.1,1.3-2,2.6-2.9,3.8c-1.6,2.4-2.8,4.6-3.7,6c-0.9,1.5-1.4,2.3-1.4,2.3s0.6-0.8,1.6-2.1c1-1.4,2.4-3.4,4.2-5.7
		c0.9-1.2,1.9-2.4,3-3.6c1.1-1.2,2.4-2.4,3.8-3.5c0.3-0.3,0.7-0.5,1.1-0.8l0.6-0.4c0.1-0.1,0.3-0.2,0.5-0.2c0.7-0.3,1.5-0.3,2.3,0
		c0.8,0.2,1.6,0.7,2.2,1.2c0.7,0.6,1.3,1.2,1.7,2c0.8,1.5,0.7,3.4,0.4,5.2c-0.3,1.8-0.8,3.6-1.5,5.2c-0.7,1.6-1.5,3.2-2.3,4.6
		c-0.9,1.4-1.8,2.7-2.7,3.8c-0.9,1.1-1.8,2.1-2.6,3c-0.8,0.9-1.5,1.6-2.2,2.2c-0.6,0.6-1.1,1-1.5,1.3
		C148.8,130.2,148.6,130.4,148.6,130.4z"/>
</g>
<g>
	<path class="st0" d="M112,189.1c-0.1,8.3,2.1,17.7,8,24c1.9,2,3.9,3.2,6.7,2.7c2.3-0.4,4.7-1.7,4.9-4.2c0.8-7.1-2.5-14.5-4.5-21.1"
		/>
</g>
<g>
	<path class="st1" d="M124,211.2c1.9,2,3.9,3.2,6.6,2.7c-1,1.1-2.5,1.7-3.9,1.9c-2.8,0.5-4.8-0.7-6.7-2.7c-3.1-3.3-5.1-7.4-6.4-11.7
		c-0.5-1.7-3.4-11.3,0.4-11c2.1,0.1,2.3,2.6,2.6,4.1c0.3,2,0.8,4,1.4,6C119.2,204.4,121.2,208.2,124,211.2z"/>
</g>
<g>
	<path class="st2" d="M112,189.1c0,0,0,0.2,0,0.7c0,0.5-0.1,1.1-0.1,2c0,0.9,0,1.9,0.1,3.1c0.1,1.2,0.2,2.5,0.5,4
		c0.5,2.9,1.5,6.3,3.3,9.6c0.9,1.6,2,3.3,3.3,4.7c1.3,1.5,2.9,3,5.1,3.4c1.1,0.2,2.2,0.1,3.2-0.1c1-0.2,2-0.6,2.9-1.3
		c0.9-0.6,1.6-1.6,1.9-2.7c0.1-0.3,0.1-0.5,0.2-0.8l0-0.7c0-0.5,0-0.9,0-1.4c0-1.9-0.3-3.7-0.6-5.3c-0.3-1.7-0.8-3.2-1.3-4.6
		c-0.9-2.8-1.9-5-2.5-6.6c-0.6-1.6-1-2.5-1-2.5s0.2,1,0.7,2.6c0.5,1.6,1.2,4,1.9,6.8c0.4,1.4,0.7,2.9,1,4.6c0.3,1.6,0.4,3.4,0.4,5.1
		c0,0.4,0,0.9-0.1,1.3l-0.1,0.7c0,0.1-0.1,0.4-0.1,0.5c-0.2,0.7-0.7,1.4-1.4,1.9c-0.7,0.5-1.5,0.8-2.4,1c-0.9,0.2-1.8,0.3-2.6,0.1
		c-1.7-0.3-3.1-1.5-4.3-2.9c-1.2-1.4-2.3-2.9-3.2-4.4c-0.9-1.6-1.6-3.1-2.2-4.7c-0.6-1.5-1-3-1.4-4.4c-0.3-1.4-0.6-2.7-0.8-3.9
		c-0.2-1.2-0.3-2.2-0.4-3c-0.1-0.8-0.1-1.5-0.1-2C112,189.4,112,189.1,112,189.1z"/>
</g>
<g>
	<g>
		<g>
			<path class="st10" d="M29.6,40.3c0.5,0,6.4,0.3,13.3,1.5l-0.2,3.3C35.9,43.6,30.5,40.8,29.6,40.3C29.6,40.3,29.6,40.3,29.6,40.3z
				"/>
		</g>
		<g>
			<path class="st2" d="M42.6,45.8C35.1,44.1,29.3,41,29.2,41l-0.5-0.3l0.3-1.1l0.6,0c0.6,0,6.5,0.3,13.4,1.5l0.7,0.1L43.5,46
				L42.6,45.8z M33.6,41.4c2.1,0.9,5.1,2,8.5,2.8l0.1-1.7C38.9,41.9,35.8,41.6,33.6,41.4z"/>
		</g>
		<g>
			<path class="st11" d="M44.3,23.6C48.1,0.5,77.4,0.8,77.4,0.8s29.2-2.1,34.5,20.7c1.2,6.4,2.9,21.4,2.9,21.4s-10.4,4.3-35.8,6
				c-25.4-0.1-36.1-3.7-36.1-3.7S43.5,30.1,44.3,23.6z"/>
		</g>
		<g class="st12">
			<path class="st11" d="M44.3,23.6c2.1-12.8,12-18.4,20.5-20.8c-1,2.1-1.8,4.4-2.3,7.1c0,0.1,0,0.2,0,0.3
				C61,22.7,70.9,33.9,84,34.7c3.8,0.2,8.2,0.4,13.1,0.4c6.4-0.4,11.9-1,16.5-1.7c0.6,5,1.1,9.4,1.1,9.4s-10.4,4.3-35.8,6
				c-25.4-0.1-36.1-3.7-36.1-3.7S43.5,30.1,44.3,23.6z"/>
		</g>
		<g>
			<path class="st13" d="M78.6,40.3c21.6-1.5,32.3-4.8,35.1-5.7c0.6,4.5,1,8.3,1,8.3s-10.4,4.3-35.8,6c-25.4-0.1-36.1-3.7-36.1-3.7
				s0.2-3.8,0.5-8.3C46,37.6,57,40.2,78.6,40.3z"/>
		</g>
		<g>
			<path class="st2" d="M42.5,45.8c-0.3-0.1-0.5-0.4-0.5-0.7c0,0,0.2-3.8,0.5-8.3c0-0.2,0.1-0.4,0.3-0.6c0.2-0.1,0.4-0.2,0.6-0.1
				c2.8,0.8,13.7,3.4,35.2,3.5c21.4-1.5,32.1-4.7,34.9-5.7c0.2-0.1,0.5,0,0.6,0.1c0.2,0.1,0.3,0.3,0.3,0.5c0.6,4.5,1,8.3,1,8.3
				c0,0.3-0.1,0.7-0.5,0.8c-0.4,0.2-10.8,4.3-36.1,6.1C53.6,49.5,43,46,42.5,45.8z M113.1,35.6c-3.8,1.2-14.6,4.1-34.4,5.5
				c0,0,0,0-0.1,0c-19.8-0.1-30.8-2.3-34.7-3.3c-0.2,3.1-0.3,5.7-0.4,6.8C46,45.3,57,48,78.8,48.1c21.8-1.5,32.6-4.9,35.1-5.8
				C113.8,41.2,113.5,38.6,113.1,35.6z"/>
		</g>
		<g class="st12">
			<path class="st13" d="M78.8,45.4c20.4-1.3,31.5-4.2,35.6-5.4c0.2,1.8,0.3,2.9,0.3,2.9s-10.4,4.3-35.8,6
				c-25.4-0.1-36.1-3.7-36.1-3.7s0.1-1.1,0.2-2.9C47.1,43.2,58.4,45.3,78.8,45.4z"/>
		</g>
		<g>
			<path class="st11" d="M29.6,40.3C29.6,40.3,29.6,40.3,29.6,40.3c0.8,0.4,6.3,3.2,13.2,4.8c0,0,10.7,3.6,36.1,3.7
				c25.4-1.7,35.8-6,35.8-6c6.8-2,12.1-5.1,12.8-5.6c0,0,0,0,0,0c1.5,2.3,1.5,4.2,1.1,5.7c-0.5,1.5-1.5,2.8-2.9,3.7
				c-15.2,9.1-46.6,10-46.6,10s-31.4,1.1-47.1-7c-1.5-0.8-2.6-2-3.2-3.5C28.3,44.6,28.2,42.7,29.6,40.3z"/>
		</g>
		<g>
			<path class="st2" d="M31.7,50.3c-1.7-0.9-2.9-2.2-3.5-3.9c-0.7-2-0.5-4.2,0.8-6.4c0,0,0,0,0,0c0.2-0.4,0.7-0.5,1-0.3
				c0.1,0,5.7,3,13.1,4.7c0.1,0,10.9,3.6,35.8,3.7c24.9-1.7,35.5-5.9,35.7-6c7.2-2.1,12.6-5.5,12.7-5.5c0.3-0.2,0.8-0.1,1,0.2
				c1.4,2.1,1.8,4.3,1.2,6.3c-0.5,1.7-1.7,3.1-3.3,4.1c-15.2,9-45.6,10-46.9,10.1c-0.3,0-1.7,0.1-4,0.1
				C66.2,57.4,44.2,56.7,31.7,50.3z M115,43.5c-0.4,0.2-10.8,4.3-36.1,6.1C53.6,49.5,43,46,42.6,45.8c-5.7-1.3-10.6-3.5-12.7-4.5
				c-0.7,1.6-0.8,3.1-0.3,4.5c0.5,1.3,1.5,2.4,2.8,3.1c15.4,7.9,46.4,6.9,46.7,6.9c0.3,0,31.4-1,46.2-9.9c1.3-0.8,2.2-1.9,2.6-3.2
				c0.4-1.5,0.2-2.9-0.6-4.5C125.3,39.5,120.5,41.9,115,43.5z"/>
		</g>
		<g class="st12">
			<path class="st11" d="M29.6,40.3C29.6,40.3,29.6,40.3,29.6,40.3c0.4,0.2,1.6,0.9,3.6,1.7c0,0.1,0.1,0.2,0.1,0.2
				c0.5,1.5,1.7,2.7,3.2,3.5c15.7,8.1,47.1,7,47.1,7s29.1-0.8,44.9-9c-0.5,1.2-1.5,2.2-2.7,2.9c-15.2,9.1-46.6,10-46.6,10
				s-31.4,1.1-47.1-7c-1.5-0.8-2.6-2-3.2-3.5C28.3,44.6,28.2,42.7,29.6,40.3z"/>
		</g>
		<g>
			<path class="st10" d="M127.5,37.3c-0.5,0.1-6.4,0.7-13.2,2.3l0.4,3.3C121.4,40.9,126.7,37.8,127.5,37.3
				C127.5,37.3,127.5,37.3,127.5,37.3z"/>
		</g>
		<g>
			<path class="st2" d="M113.5,39l0.7-0.2c6.8-1.6,12.6-2.3,13.3-2.3l0.6-0.1l0.4,1.1l-0.5,0.3c-0.1,0-5.6,3.5-13,5.7l-0.9,0.2
				L113.5,39z M115.2,40.1l0.2,1.7c3.3-1,6.2-2.3,8.3-3.3C121.4,38.9,118.4,39.4,115.2,40.1z"/>
		</g>
		<g>
			<path class="st2" d="M42.5,45.8L42,45.6l0-0.6c0-0.2,0.8-15.1,1.5-21.6l0,0C47.4,0,77.1,0,77.3,0c0.3,0,29.9-1.9,35.3,21.3
				c1.2,6.4,2.9,21.3,2.9,21.4l0.1,0.6l-0.5,0.2c-0.4,0.2-10.8,4.3-36.1,6.1C53.6,49.5,43,46,42.5,45.8z M111.1,21.6
				c-5-21.9-33.4-20.1-33.7-20.1c-0.3,0-28.7,0-32.4,22.1c-0.7,5.7-1.3,18-1.5,20.9C46,45.3,57,48,78.8,48.1
				c21.8-1.5,32.6-4.9,35.1-5.8C113.6,39.5,112.1,27.2,111.1,21.6z"/>
		</g>
	</g>
</g>
<g>
	<path class="st0" d="M123.1,39.8c-3.3,1.5-6.8,2.4-10.2,3.4c-0.6-0.4-1.1-0.9-1.5-1.3c-1.4-1.6-0.3-3.5-0.1-5.3
		c0.2-2.3-0.1-4.9,1.7-6.7c2-1.8,5.8-1.2,8.1-0.3c2.5,1.1,3.9,3.3,3.5,6.1C124.5,37.1,123.9,38.5,123.1,39.8z"/>
</g>
<g>
	<path class="st1" d="M114.1,31.9c-0.1-0.1-0.1-0.3,0-0.4c0.1-0.1,0.2-0.2,0.3-0.2c0.5-0.1,1-0.2,1.5-0.2c1.7,0,3.4,0.4,4.7,1.4
		c0.4,0.3,0.7,0.6,0.7,1.1c0,0.1,0,0.2-0.1,0.3c-0.1,0.1-0.2,0.1-0.3,0.2c-1.4,0.5-2.4,1.4-3.3,2.5c-0.4,0.5-0.8,1.1-1,1.8
		c-0.1,0.3-0.2,0.6-0.2,1c0,0.1,0,0.9,0,1c-0.3,0.2-0.6,0.4-0.9,0.5c-0.3-1.3,0.4-4,0.3-4.9c-0.1-1-0.3-1.9-0.8-2.7
		c-0.2-0.3-0.3-0.7-0.5-1C114.3,32.2,114.2,32.1,114.1,31.9z"/>
</g>
<g>
	<path class="st2" d="M112.6,43.5c-0.6-0.4-1.2-0.9-1.6-1.4c-1.2-1.4-0.8-2.9-0.5-4.2c0.1-0.5,0.2-1,0.3-1.5c0-0.4,0.1-0.9,0.1-1.3
		c0.1-2,0.2-4.1,1.8-5.7c2.4-2.2,6.5-1.2,8.6-0.3c2.8,1.2,4.2,3.6,3.8,6.6c-0.2,1.4-0.7,2.8-1.6,4.3l-0.1,0.1l-0.1,0.1
		c-2.7,1.3-5.7,2.1-8.5,2.9c-0.6,0.2-1.2,0.3-1.8,0.5l-0.2,0.1L112.6,43.5z M124.2,35.6c0.3-2.5-0.9-4.5-3.2-5.5
		c-2.4-1-5.8-1.4-7.6,0.2c-1.4,1.2-1.4,3.1-1.5,5c0,0.5,0,0.9-0.1,1.4c0,0.6-0.2,1.1-0.3,1.6c-0.3,1.2-0.6,2.3,0.3,3.3
		c0.3,0.4,0.8,0.7,1.2,1.1c0.5-0.1,1-0.3,1.6-0.4c2.8-0.8,5.6-1.5,8.2-2.8C123.5,38.1,124,36.8,124.2,35.6z"/>
</g>
<g>
	<path class="st2" d="M121.5,33.9c0,0-0.2,0-0.5,0c-0.3,0-0.7,0.1-1.2,0.3c-0.5,0.2-1,0.5-1.5,0.8c-0.2,0.2-0.5,0.4-0.7,0.6
		c-0.2,0.2-0.5,0.5-0.7,0.8c-0.2,0.3-0.4,0.6-0.5,0.9c-0.2,0.3-0.3,0.6-0.4,0.9c-0.2,0.6-0.3,1.2-0.3,1.7c0,0.5,0,0.9,0.1,1.2
		c0.1,0.3,0.1,0.4,0.1,0.4s0-0.2,0.1-0.4c0.1-0.3,0.1-0.7,0.3-1.1c0.1-0.2,0.2-0.5,0.3-0.7c0.1-0.3,0.2-0.5,0.3-0.8
		c0.3-0.5,0.6-1,0.9-1.5c0.4-0.5,0.8-0.9,1.2-1.3c0.2-0.2,0.4-0.4,0.6-0.5c0.2-0.2,0.4-0.3,0.6-0.5c0.4-0.3,0.7-0.5,1-0.6
		C121.4,34,121.5,33.9,121.5,33.9z"/>
</g>
<g>
	<path class="st2" d="M113.9,31.7c0,0,0.4,0.5,0.8,1.4c0.2,0.4,0.4,0.9,0.5,1.5c0.1,0.3,0.1,0.6,0.2,0.9c0,0.3,0.1,0.6,0.1,0.9
		c0.1,1.2,0,2.5-0.3,3.4c-0.1,0.5-0.2,0.8-0.3,1.1c-0.1,0.3-0.1,0.4-0.1,0.4s0.1-0.1,0.3-0.3c0.2-0.2,0.4-0.6,0.7-1
		c0.2-0.4,0.5-1,0.6-1.6c0.1-0.6,0.2-1.3,0.1-2c0-0.4-0.1-0.7-0.1-1c-0.1-0.3-0.2-0.7-0.3-1c-0.2-0.6-0.6-1.1-0.9-1.5
		c-0.3-0.4-0.7-0.7-0.9-0.8C114,31.8,113.9,31.7,113.9,31.7z"/>
</g>
<g id="XMLID_67_">
	<g>
		<path class="st14" d="M13.7,137.9l0.4,9l0.5,11.1l-1.9,0L11.8,147l-0.6-8.5C12.1,138.3,12.9,138.1,13.7,137.9z"/>
	</g>
	<g id="XMLID_90_">
		<path class="st15" d="M11.8,147c0.8,0.1,1.5,0.1,2.2,0l0.5,11.1l-1.9,0L11.8,147z"/>
	</g>
	<g>
		<path class="st2" d="M12.1,158.5l-1.4-20.5l0.4-0.1c0.8-0.2,1.6-0.3,2.4-0.5l0.6-0.1l0.9,21.3L12.1,158.5z M11.8,138.9l1.3,18.7
			l0.9,0l-0.8-19C12.7,138.7,12.3,138.8,11.8,138.9z"/>
	</g>
	<g id="XMLID_89_">
		<path class="st11" d="M10.9,142.5c0-1.3,0-2.6,0-3.9c0.1-2,0.3-3.3,1.3-5.1c1.4-2.6,3.8-4.7,6.8-5.4c5.8-1.5,11.8,2.2,12.6,8
			c0.1,1.2-0.1,2.4-0.9,3.3c-0.1,0.1-0.3,0.3-0.4,0.4c-0.5,0.4-1.1,0.5-1.8,0.5c-1.4-0.2-2-1.4-2.3-2.5c-0.2-0.9-0.3-1.9-0.7-2.8
			c-0.7-1.6-2.5-2.6-4.2-2.6c-1.8,0-3.5,0.9-4.6,2.2c-1.7,2-2.1,5-2.1,8c0,0,0,0.1-0.1,0.1L10.9,142.5
			C10.9,142.5,10.9,142.5,10.9,142.5z"/>
	</g>
	<g id="XMLID_88_">
		<path class="st16" d="M1.7,154.5c1.6,0.5,2.8,0.7,3.9,0.4c1.1-0.2,2-0.8,3.3-1.9c1.2,1.7,5.7,1.9,8.6-0.6c1.2,1.5,3.2,2,4.8,2.1
			c1.9,0.1,3.5-0.3,3.5-0.3c-0.1,4.8-6.3,56.2-8.5,59.8c0,0.1-0.1,0.1-0.1,0.2C15.7,213.2,3.9,165.2,1.7,154.5z"/>
	</g>
	<g id="XMLID_87_">
		<path class="st17" d="M8.9,153c0.6,0.9,2.1,1.3,3.8,1.3c1.6-0.1,3.4-0.7,4.7-1.9c2.3,25.3-0.3,61.8-0.3,61.8
			C14.9,208.9,8.9,153,8.9,153z"/>
	</g>
	<g id="XMLID_86_">
		<path class="st18" d="M10.9,142.5c0-1.3,0-2.6,0-3.9c0.1-2,0.3-3.3,1.3-5.1c1.4-2.6,3.8-4.7,6.8-5.4c5.8-1.5,11.8,2.2,12.6,8
			c0.1,0.5,0.1,1,0,1.5c-0.2,1.4-2,2-3.1,1c0,0,0,0,0,0c-1.5-1.4-0.6-4.3-2.1-6.7c-1.5-2.4-4.5-3-8.1-1.7c-3.6,1.2-4.7,3.8-5.4,6.4
			c-0.4,1.5-0.5,4.1-0.4,6L10.9,142.5C10.9,142.5,10.9,142.5,10.9,142.5z"/>
	</g>
	<g id="XMLID_85_">
		<path class="st19" d="M10.3,143.3l4.6-0.2c0.4,0,0.7-0.4,0.7-0.8l0,0c0-0.4-0.4-0.7-0.8-0.7l-4.6,0.2c-0.4,0-0.7,0.4-0.7,0.8l0,0
			C9.5,143,9.9,143.3,10.3,143.3z"/>
	</g>
	<g id="XMLID_84_">
		<path class="st17" d="M12.7,154.2c1.6-0.1,3.4-0.7,4.7-1.9c2.3,25.3-0.3,61.8-0.3,61.8s-1.3-28-3.1-44.7
			C13.1,160.6,13.1,156.1,12.7,154.2z"/>
	</g>
	<g id="XMLID_83_">
		<path class="st17" d="M17.2,214.1c1.4-4.4,4.3-38.5,4.7-47c0.2-5.2,0.4-9.9,0.4-12.7c1.9,0.1,3.5-0.3,3.5-0.3
			C25.6,159.1,19.2,212.6,17.2,214.1z"/>
	</g>
	<g id="XMLID_82_">
		<path class="st17" d="M1.7,154.5c1.6,0.5,2.8,0.7,3.9,0.4c0.4,3.6,1.1,7.6,2.2,12.7c4.5,21.2,7.6,39.8,9.6,46.3
			c0,0.1-0.1,0.1-0.1,0.2C15.7,213.2,3.9,165.2,1.7,154.5z"/>
	</g>
	<g id="XMLID_81_">
		<path class="st20" d="M23.7,168.6c0,0,0.5-3.6,1-7.1c0.5-3.6,1-7.1,1-7.1c0.1-0.4,0.3-0.4,0.3,0c0,0-0.4,3.6-0.7,7.2
			c-0.4,3.6-0.7,7.2-0.7,7.2c-1,9.7-2.4,19.4-4,29c0,0-0.6,3.6-1.2,7.1c-0.6,3.6-1.2,7.1-1.2,7.1c-0.1,0.4-0.4,0.4-0.3,0
			c0,0,0.4-3.6,0.9-7.2c0.4-3.6,0.9-7.2,0.9-7.2C20.9,188,22.2,178.3,23.7,168.6z"/>
	</g>
	<g id="XMLID_80_">
		<path class="st16" d="M13.4,166.8c0,0-0.2-3.1-0.4-6.2c-0.2-3.1-0.4-6.2-0.4-6.2c0-0.4,0.3-0.4,0.3,0c0,0,0.4,3.1,0.7,6.1
			c0.3,3.1,0.7,6.1,0.7,6.1c0.9,8.3,1.5,16.7,2,25l0.6,12.3c0,0.4-0.3,0.4-0.3,0l-1.2-12.3C14.5,183.5,13.9,175.2,13.4,166.8z"/>
	</g>
	<g id="XMLID_79_">
		<path class="st21" d="M17.2,167.7c0,0,0.1-3.7,0.1-7.3c0.1-3.7,0.1-7.3,0.1-7.3c0-0.4,0.3-0.4,0.3,0c0,0,0.1,3.7,0.2,7.3
			c0.1,3.7,0.2,7.3,0.2,7.3c0.2,9.9,0.2,19.8-0.1,29.7c0,0-0.1,3.7-0.3,7.3c-0.1,1.8-0.2,3.7-0.2,5c-0.1,1.4-0.1,2.3-0.1,2.3
			c0,0.4-0.3,0.4-0.3,0c0,0,0-0.9,0-2.3c0-1.4,0-3.2,0-5c0-3.7,0-7.3,0-7.3C17,187.6,17,177.6,17.2,167.7z"/>
	</g>
	<g id="XMLID_78_">
		<path class="st22" d="M13,148.8c0.1,1.3,0.1,2.7,0.3,4c0,0.2,0.3,0.1,0.3,0c0-1.3-0.1-2.7-0.2-4c-0.1-1.3-0.1-2.7-0.4-4
			c0-0.1-0.2-0.1-0.2,0C12.8,146.2,12.9,147.6,13,148.8z"/>
	</g>
	<g id="XMLID_77_">
		<path class="st2" d="M16.7,214.7c-2-1.3-14.5-53.7-15.8-60.1c-0.1-0.3,0-0.5,0.2-0.7c0.2-0.2,0.5-0.2,0.7-0.2
			c1.6,0.5,2.6,0.6,3.5,0.4c0.8-0.2,1.7-0.7,3-1.8c0.2-0.1,0.4-0.2,0.6-0.2c0.2,0,0.4,0.1,0.5,0.3c0.3,0.5,1.1,0.8,2.1,0.9
			c1.5,0.2,3.7-0.2,5.4-1.7c0.2-0.1,0.4-0.2,0.6-0.2c0.2,0,0.4,0.1,0.5,0.3c0.9,1.1,2.3,1.7,4.3,1.8c1.8,0.1,3.3-0.3,3.3-0.3
			c0.2-0.1,0.5,0,0.7,0.1c0.2,0.1,0.3,0.4,0.3,0.6c-0.1,4.8-6.4,56.4-8.6,60.2c-0.1,0.2-0.2,0.3-0.3,0.4c-0.1,0.1-0.3,0.2-0.5,0.2
			C17,214.8,16.9,214.8,16.7,214.7z M22.2,155.2c-2-0.1-3.7-0.7-4.9-1.8c-2,1.4-4.3,1.8-6,1.6c-1.1-0.1-1.9-0.5-2.6-1
			c-1.2,0.9-2.1,1.4-3.1,1.6c-0.9,0.2-1.8,0.2-3-0.1c2.5,11.7,11.7,48.9,14.4,56.7c2.3-8.4,7.3-49.2,7.9-57.2
			C24.3,155.1,23.3,155.2,22.2,155.2z"/>
	</g>
	<g id="XMLID_76_">
		<path class="st2" d="M10.6,143.3l-0.5-0.5v-0.3c0-1.4,0-2.7,0-3.9c0.1-1.9,0.3-3.4,1.4-5.4c1.6-2.9,4.2-5,7.3-5.8
			c3.2-0.8,6.5-0.2,9.2,1.6c2.4,1.7,4,4.2,4.4,7c0.2,1.5-0.2,2.9-1.1,3.9c-0.2,0.2-0.3,0.3-0.5,0.5c-0.7,0.5-1.5,0.7-2.3,0.6
			c-1.5-0.2-2.5-1.3-2.9-3.1c-0.1-0.3-0.1-0.6-0.2-1c-0.1-0.6-0.2-1.2-0.4-1.7c-0.6-1.3-2-2.1-3.6-2.2c-1.5,0-3,0.7-4.1,1.9
			c-1.7,2-1.9,5-2,7.5l-0.1,0.8l-4.2,0.2L10.6,143.3z M16.1,133.8c1.3-1.5,3.3-2.5,5.2-2.4c2.1,0,4.1,1.3,4.9,3.1
			c0.3,0.7,0.4,1.4,0.5,2c0.1,0.3,0.1,0.6,0.2,0.9c0.3,1.2,0.8,1.9,1.6,2c0.4,0.1,0.9-0.1,1.2-0.3c0.1-0.1,0.2-0.2,0.3-0.3
			c0.6-0.6,0.8-1.6,0.7-2.6c-0.3-2.4-1.6-4.5-3.7-5.9c-2.3-1.6-5.2-2.1-7.9-1.4c-2.7,0.7-5,2.5-6.4,5.1c-0.9,1.8-1.1,3-1.2,4.8
			c0,1,0,2,0,3.2l2.2-0.1C13.9,139.1,14.2,136,16.1,133.8z"/>
	</g>
	<g id="XMLID_75_">
		<path class="st23" d="M25.7,153.7c0.2,0.2,0.5,0.2,0.7,0.2c0.3,0,0.5-0.2,0.7-0.3c0.2-0.2,0.3-0.5,0.2-0.7c0-0.3-0.1-0.5-0.4-0.7
			c-0.2-0.2-0.5-0.2-0.7-0.2c-0.3,0-0.5,0.2-0.7,0.3c-0.2,0.2-0.3,0.5-0.2,0.7C25.4,153.3,25.5,153.6,25.7,153.7z"/>
		<path d="M25.5,153.9L25.5,153.9c-0.3-0.2-0.4-0.5-0.5-0.9c0-0.3,0.1-0.6,0.3-0.9c0.2-0.2,0.6-0.4,0.9-0.4c0.3,0,0.6,0.1,0.9,0.3
			c0.2,0.2,0.4,0.5,0.5,0.9c0,0.3-0.1,0.7-0.3,0.9c-0.2,0.2-0.6,0.4-0.9,0.4c0,0,0,0-0.1,0C26.1,154.2,25.8,154.1,25.5,153.9z
			 M26.3,152.2c-0.2,0-0.4,0.1-0.5,0.3c-0.1,0.1-0.2,0.4-0.2,0.5c0,0.1,0.1,0.4,0.3,0.5c0.2,0.1,0.4,0.2,0.6,0.2
			c0.2,0,0.4-0.1,0.5-0.3c0.1-0.1,0.2-0.4,0.2-0.5c0-0.1-0.1-0.4-0.3-0.5C26.7,152.3,26.5,152.2,26.3,152.2
			C26.3,152.2,26.3,152.2,26.3,152.2z"/>
	</g>
	<g id="XMLID_74_">
		<path class="st23" d="M16.5,151.6c0,0.3,0.2,0.6,0.4,0.7c0.2,0.2,0.5,0.2,0.8,0.2c0.2,0,0.3-0.1,0.4-0.1c0.1-0.1,0.3-0.1,0.3-0.3
			c0.1-0.1,0.2-0.2,0.2-0.4c0.1-0.1,0.1-0.3,0.1-0.4c0-0.3-0.2-0.6-0.4-0.7c-0.2-0.2-0.5-0.2-0.8-0.2c-0.2,0-0.3,0.1-0.4,0.1
			c-0.1,0.1-0.3,0.1-0.3,0.3c-0.1,0.1-0.2,0.2-0.2,0.4C16.5,151.3,16.5,151.4,16.5,151.6z"/>
		<path d="M16.8,152.5c-0.3-0.2-0.5-0.5-0.5-0.9v0c0-0.2,0-0.4,0.1-0.5c0-0.2,0.1-0.3,0.2-0.5c0.1-0.2,0.3-0.3,0.4-0.3
			c0.2-0.1,0.3-0.2,0.5-0.2c0.4,0,0.7,0.1,1,0.3c0.3,0.2,0.5,0.5,0.5,0.9c0,0.2,0,0.4-0.1,0.5c0,0.2-0.1,0.3-0.2,0.5
			c-0.1,0.2-0.3,0.3-0.4,0.3c-0.2,0.1-0.3,0.2-0.5,0.2c0,0-0.1,0-0.1,0C17.4,152.8,17.1,152.7,16.8,152.5z M17.6,150.6
			c-0.1,0-0.2,0-0.3,0.1c-0.1,0-0.2,0.1-0.3,0.2c-0.1,0.1-0.1,0.2-0.1,0.3c0,0.1,0,0.2,0,0.3c0,0.1,0.1,0.4,0.3,0.6
			c0.2,0.1,0.4,0.2,0.6,0.2c0.1,0,0.2,0,0.3-0.1c0.1,0,0.2-0.1,0.3-0.2c0.1-0.1,0.1-0.2,0.1-0.3c0-0.1,0-0.2,0-0.3
			c0-0.1-0.1-0.4-0.3-0.6C18,150.7,17.8,150.6,17.6,150.6C17.6,150.6,17.6,150.6,17.6,150.6z"/>
	</g>
	<g id="XMLID_73_">
		<path class="st23" d="M7.8,152.1c0,0.3,0.2,0.6,0.4,0.7c0.2,0.2,0.5,0.2,0.8,0.2c0.2,0,0.3-0.1,0.4-0.1c0.1-0.1,0.2-0.1,0.3-0.3
			c0.1-0.1,0.2-0.2,0.2-0.4c0.1-0.1,0.1-0.3,0.1-0.4c0-0.3-0.2-0.6-0.4-0.7c-0.2-0.2-0.5-0.2-0.8-0.2c-0.2,0-0.3,0.1-0.4,0.1
			c-0.1,0.1-0.2,0.1-0.3,0.3c-0.1,0.1-0.2,0.2-0.2,0.4C7.8,151.8,7.7,152,7.8,152.1z"/>
		<path d="M8,153c-0.3-0.2-0.4-0.5-0.5-0.9l0,0c0-0.2,0-0.4,0.1-0.5c0-0.2,0.1-0.3,0.2-0.5c0.1-0.1,0.3-0.3,0.4-0.3
			c0.2-0.1,0.3-0.2,0.5-0.2c0.3,0,0.7,0.1,1,0.3c0.3,0.2,0.4,0.5,0.5,0.9c0,0.2,0,0.4-0.1,0.5c0,0.2-0.1,0.3-0.2,0.5
			c-0.1,0.1-0.3,0.3-0.4,0.3c-0.2,0.1-0.3,0.2-0.5,0.2c0,0-0.1,0-0.1,0C8.6,153.3,8.3,153.2,8,153z M8.8,151.2c-0.1,0-0.2,0-0.3,0.1
			c-0.1,0-0.2,0.1-0.2,0.2c-0.1,0.1-0.1,0.2-0.1,0.3c0,0.1,0,0.2,0,0.3c0,0.1,0.1,0.4,0.3,0.6c0.2,0.1,0.4,0.2,0.6,0.2
			c0.1,0,0.2,0,0.3-0.1c0.1,0,0.2-0.1,0.2-0.2c0.1-0.1,0.1-0.2,0.1-0.3c0-0.1,0-0.2,0-0.3c0-0.1-0.1-0.4-0.3-0.6
			C9.2,151.3,9,151.2,8.8,151.2C8.8,151.2,8.8,151.2,8.8,151.2z"/>
	</g>
	<g id="XMLID_72_">
		<path class="st23" d="M0.3,153.6c0,0.3,0.1,0.5,0.4,0.7c0.2,0.2,0.5,0.2,0.8,0.2c0.3,0,0.6-0.2,0.7-0.4c0.2-0.2,0.3-0.5,0.2-0.7
			c0-0.3-0.1-0.5-0.4-0.7c-0.2-0.2-0.5-0.2-0.8-0.2c-0.3,0-0.6,0.2-0.7,0.4C0.3,153.1,0.2,153.4,0.3,153.6z"/>
		<path d="M0.5,154.5c-0.3-0.2-0.4-0.5-0.5-0.9l0,0c0-0.3,0.1-0.7,0.3-0.9c0.2-0.3,0.6-0.4,0.9-0.4c0.3,0,0.6,0.1,0.9,0.3
			c0.3,0.2,0.4,0.5,0.5,0.9c0,0.3-0.1,0.7-0.3,0.9c-0.2,0.3-0.6,0.4-0.9,0.4c0,0,0,0-0.1,0C1,154.8,0.7,154.7,0.5,154.5z M1.2,152.8
			c-0.2,0-0.4,0.1-0.6,0.3c-0.1,0.1-0.2,0.4-0.2,0.5v0c0,0.1,0.1,0.4,0.3,0.5c0.2,0.1,0.4,0.2,0.6,0.2c0.2,0,0.4-0.1,0.6-0.3
			c0.1-0.1,0.2-0.4,0.2-0.5c0-0.1-0.1-0.4-0.3-0.5C1.7,152.8,1.5,152.8,1.2,152.8C1.3,152.8,1.3,152.8,1.2,152.8z"/>
	</g>
	<g>
		<g id="XMLID_71_">
			<path class="st11" d="M15.3,211.8c0-0.1,1.1-0.3,2-0.3c0.7,0,1.4,0,1.6,0.2c0.1,0.1,0.1,0.1,0,0.2c-0.6,0.3-0.9,0.8-0.9,1.4
				c0.2,2.6,0.6,5.1,0,5.4c-0.1,0-0.1,0-0.2,0c-0.6-0.1-1.1-3.5-1.2-5.3c-0.1-0.5-0.5-1-1.1-1.3C15.4,212,15.3,211.9,15.3,211.8z"/>
		</g>
		<g id="XMLID_70_">
			<path class="st18" d="M17.4,211.5c0.7,0,1.4,0,1.6,0.2c0.1,0.1,0.1,0.1,0,0.2c-0.6,0.3-0.9,0.8-0.9,1.4c0.2,2.6,0.6,5.1,0,5.4
				c-0.2-0.8-0.4-1.8-0.5-2.8c-0.3-2.4-0.4-3.1,0-3.6C17.7,212,17.6,211.7,17.4,211.5z"/>
		</g>
		<g id="XMLID_69_">
			<path class="st2" d="M17.8,219.1c-0.4-0.1-1.1-0.2-1.6-5.7c0-0.4-0.3-0.7-0.8-0.9c-0.5-0.2-0.5-0.6-0.5-0.7
				c0-0.3,0.1-0.6,2.5-0.7c1.5,0,1.8,0.2,1.9,0.3c0.1,0.1,0.3,0.3,0.2,0.5c0,0.1-0.1,0.3-0.3,0.5c-0.2,0.1-0.7,0.5-0.6,0.9l0.1,1.1
				c0.3,3,0.4,4.4-0.3,4.8c-0.1,0.1-0.3,0.1-0.4,0.1C17.9,219.2,17.8,219.1,17.8,219.1z M17.4,212c-0.3,0-0.6,0-0.9,0.1
				c0.4,0.3,0.6,0.8,0.6,1.2c0.2,2.3,0.5,3.7,0.7,4.3c0-0.8-0.1-2.2-0.2-3.3l-0.1-1.1c0-0.5,0.1-0.9,0.4-1.3
				C17.8,212,17.6,212,17.4,212z"/>
		</g>
		<g id="XMLID_68_">
			<path class="st2" d="M9,142.6c0-0.3,0.1-0.6,0.3-0.9c0.2-0.2,0.5-0.4,0.9-0.4l4.6-0.2c0.7,0,1.3,0.5,1.3,1.2
				c0,0.3-0.1,0.6-0.3,0.9c-0.2,0.2-0.5,0.4-0.9,0.4l-4.6,0.2c0,0,0,0-0.1,0C9.6,143.8,9,143.3,9,142.6z M14.8,142.1l-4.6,0.2
				c-0.1,0-0.1,0-0.2,0.1c0,0-0.1,0.1-0.1,0.1c0,0.1,0.1,0.2,0.3,0.2l4.6-0.2c0.1,0,0.2-0.1,0.2-0.1c0,0,0.1-0.1,0.1-0.1
				C15.1,142.2,14.9,142.1,14.8,142.1C14.8,142.1,14.8,142.1,14.8,142.1z"/>
		</g>
	</g>
</g>
<g>
	<polygon class="st2" points="16.6,211.6 18.1,211.5 18.5,152.5 17,152.5 16.7,201.5 9.7,152.9 8.2,153.2 	"/>
</g>
<g>
	<polygon class="st3" points="80.6,120.9 87.3,142.5 78.7,148.9 60.3,126.7 69.6,120.9 	"/>
</g>
<g>
	<path class="st24" d="M143.6,107.5c1-0.1,2.1,0,3.2-0.3c0.9-0.3,2.7-2.9,3.1-3.5c1.1-1.3-0.2-3.6-0.7-4.9c0.1,0.4-6.7,2.1-7.6,2.4
		c-4.9,1.3-9.6,3-14.1,4.9c-9.1,3.8-36.9,16.9-41.3,19.8c-5.8,3.9-9.4,9-12.9,14c-0.6,0.8-1.2,1.7-1.4,2.6c-0.3,1-0.2,2.1-0.1,3.2
		c0.8,7.8,1.5,15.6,3.6,23.2c0.8,3.1,1.9,6.3,4.2,9.1c2.2,2.8,5.8,5.3,10.3,6.3c4.5,1,9.4,0.5,14,0c11.3-1.2,22.7-2.5,34-3.7
		c5.3-0.6,11.1-1.3,14.7-4c5.3-3.8,7.3-8.8,8.1-13.9c1.8-10.2,1.2-20.6-2.6-30.6c-0.4-1.1-0.8-2.3-1.1-3.4c-0.4-1.5-1-2.9-1.9-4.2
		c0,1.2-0.1,2.4-0.2,3.5c0,0.2-0.1,0.5-0.2,0.7c-0.2,0.3-0.5,0.6-0.7,0.8c-1.3,1.1-2.5,2.2-3.5,3.5c-0.3,0.3-0.6,0.7-1,0.9
		c-1.8,1.2-4.5,0-6.3-0.8c-2.3-1.1-5.2-2.5-6.9-4.3c-0.9-1-1.8-2-2.5-3.1c-1-1.4-1.5-2.8-1.6-4.4c-0.4-1.4-0.3-2.8,0.1-4.2
		c0-1.5,0.4-3,1.2-4.3c0.4-1.1,0.8-2.7,2.1-3.2c0.4-0.2,0.9-0.3,1-0.7c0.3-0.7,1.5-0.6,2.3-0.8C140.5,107.9,142.1,107.7,143.6,107.5
		z"/>
</g>
<g>
	<g>
		<path class="st25" d="M85.9,180.4c4.5,1,9.4,0.5,14,0c11.3-1.2,22.7-2.5,34-3.7c5.3-0.6,11.1-1.3,14.7-4c5.3-3.8,7.3-8.8,8.1-13.9
			c1.7-9.9,1.2-20-2.3-29.7c0.1-0.1,0.2-0.2,0.2-0.3c0.1-0.2,0.1-0.5,0.2-0.7c0.1-1.2,0.2-2.4,0.2-3.5c0.9,1.4,1.5,2.7,1.9,4.2
			c0.3,1.2,0.7,2.3,1.1,3.4c3.8,10,4.4,20.4,2.6,30.6c-0.9,5.1-2.8,10-8.1,13.9c-3.7,2.7-9.4,3.4-14.7,4c-11.3,1.2-22.7,2.5-34,3.7
			c-4.7,0.5-9.6,1-14,0c-4.5-1-8-3.5-10.3-6.3c-0.2-0.3-0.4-0.5-0.6-0.8C80.9,178.7,83.3,179.8,85.9,180.4z"/>
	</g>
</g>
<g>
	<g>
		<path class="st2" d="M71.2,142.5c0.3-1,0.9-1.9,1.5-2.8c3.3-4.8,7.1-10.2,13-14.2c4.4-3,32.5-16.2,41.4-19.9
			c5.1-2.1,9.8-3.8,14.3-4.9c5.5-1.4,6.9-2,7.2-2.1c0.1-0.1,0.2-0.2,0.4-0.2c0.4-0.1,0.8,0.1,0.9,0.4c0.3,1,0.8,2.5,1.4,4.6
			c-0.5,0.2-0.9,0.5-1.3,0.9c-0.5-1.9-0.9-3.3-1.2-4.3c-1,0.4-3,1-7,2c-4.4,1.1-8.9,2.7-14,4.8c-8.9,3.7-36.8,16.8-41.1,19.8
			c-5.8,3.9-9.3,9-12.7,13.9c-0.5,0.8-1.1,1.6-1.4,2.4c-0.3,0.9-0.2,2-0.1,2.9c0.7,7.6,1.5,15.5,3.6,23.2c0.8,3,1.9,6.1,4.1,8.9
			c2.4,3,5.9,5.1,9.9,6c4.5,1,9.4,0.5,13.8,0l34-3.7c4.5-0.5,10.7-1.2,14.3-3.8c4.4-3.2,6.8-7.3,7.9-13.5c1.9-10.7,1-20.9-2.6-30.3
			c-0.1-0.2-0.2-0.7-0.5-1.3c-0.3-0.8-0.8-2.2-1.3-3.5c-0.5,1.6-3.5,5.6-4.6,6.6l-0.1,0.1c-0.3,0.3-0.7,0.6-1.1,0.8
			c-0.7,0.3-1.4,0.2-2.1,0.1c-3.2-0.5-7.7-1.4-10.4-4.5c-1.8-2-3.8-4.3-4.6-6.7c-1.7-5-1.2-11.9,3.1-15.4c1-1,7.9-2,12.3-2.5
			c-0.5,0.4-0.8,0.9-1,1.4c-4,0.5-9.6,1.4-10.3,2c-3.9,3.2-4.3,9.5-2.8,14.1c0.7,2.2,2.6,4.4,4.3,6.2c1.9,2,4.9,3.3,9.5,4
			c0.5,0.1,0.9,0.1,1.3,0c0.2-0.1,0.4-0.3,0.7-0.5l0.1-0.1c1.3-1.1,4.2-5.4,4.3-6c0.1-0.9-0.4-2.2,0.4-2.8c0.2-0.2,0.5-0.4,0.7-0.5
			c0,0,0.1-0.1,0.1-0.1c0.1,0,0.1,0,0.2,0.1c0.7,0.6,1,2.1,1.3,2.9c0.5,1.3,1,2.6,1.5,3.9c0.2,0.7,0.4,1.1,0.5,1.3
			c3.6,9.6,4.5,20,2.6,30.9c-1.1,6.5-3.7,10.9-8.4,14.3c-3.7,2.7-9.2,3.5-15.1,4.1l-34,3.7c-2.6,0.3-5.4,0.6-8.3,0.6
			c-2,0-4.1-0.2-6.1-0.6c-4.3-1-8.1-3.3-10.7-6.5c-2.4-3-3.5-6.2-4.3-9.3c-2.1-7.7-2.9-15.7-3.6-23.3
			C71,144.8,70.9,143.6,71.2,142.5z"/>
	</g>
	<g>
		<path class="st2" d="M148.5,99.1C148.5,99.1,148.5,99.1,148.5,99.1C148.5,99.1,148.5,99.1,148.5,99.1z"/>
	</g>
	<g>
		<path class="st2" d="M148.5,99.1L148.5,99.1L148.5,99.1z"/>
	</g>
	<g>
		<path class="st2" d="M148.5,99.1L148.5,99.1L148.5,99.1z"/>
	</g>
	<g>
		<path class="st2" d="M148.5,99.1C148.5,99.1,148.5,99.1,148.5,99.1C148.5,99.1,148.5,99.1,148.5,99.1z"/>
	</g>
	<g>
		<path class="st2" d="M148.5,99.1L148.5,99.1L148.5,99.1z"/>
	</g>
</g>
<g>
	<g>
		<path class="st24" d="M44.7,120c2.7,0.9,15.2,5.3,18.4,6.9c6.8,3.5,11.5,8.5,15.7,12.9c0.8,0.8,1.5,1.6,2,2.6
			c0.5,1.1,0.6,2.3,0.7,3.4c0.5,7.7,1,15.7,0.1,23.6c-0.4,3.2-1,6.5-2.9,9.7c-2.1,3.5-5.7,6.2-9.9,7.5c-2,0.6-4,1-6.1,1.2
			c-1.7,0.2-4,0.5-6,0.4c-8.1-0.4-12.8-12.1-15.2-17.5c-4.5-10-2.9-19.9-2.4-30.2c0.2-4.1-0.3-8.6-0.7-12.8
			c-0.3-3.5-1.9-7.2-2.7-10.6C35.5,117,44.1,119.8,44.7,120z"/>
	</g>
	<g>
		<path class="st25" d="M38.3,127.9c-0.3-3.5-1.9-7.2-2.7-10.6c0-0.1,2.3,0.6,4.6,1.3c0.5,1.8,1,3.6,1.2,5.3
			c0.4,4.2,0.9,8.7,0.7,12.8c-0.5,10.3-2.1,20.2,2.4,30.2c2.4,5.4,7.1,17.1,15.2,17.5c2,0.1,4.3-0.3,6-0.4c2.1-0.2,4.2-0.5,6.1-1.2
			c2.9-0.9,5.4-2.5,7.4-4.4c-0.2,0.3-0.3,0.6-0.5,0.9c-2.1,3.5-5.7,6.2-9.9,7.5c-2,0.6-4,1-6.1,1.2c-1.7,0.2-4,0.5-6,0.4
			c-8.1-0.4-12.8-12.1-15.2-17.5c-4.5-10-2.9-19.9-2.4-30.2C39.1,136.5,38.6,132,38.3,127.9z"/>
	</g>
	<g>
		<path class="st2" d="M56.6,189c-8.1-0.4-12.9-11.1-15.4-16.8l-0.5-1.1c-3.9-8.6-3.3-16.9-2.8-25.7c0.1-1.6,0.2-3.2,0.3-4.8
			c0.2-3.5-0.2-7.4-0.5-11.1l-0.1-1.6c-0.2-2.2-0.9-4.6-1.7-6.9c-0.4-1.2-0.7-2.4-1-3.5c-0.1-0.3,0-0.6,0.2-0.7
			c0.4-0.4,0.4-0.4,5.1,1.1c2.1,0.6,4.4,1.4,4.8,1.5l0,0l0.2,0.1c10,3.5,16.2,5.8,18.3,6.9c6.9,3.5,11.7,8.6,15.9,13.1
			c0.8,0.8,1.6,1.7,2.1,2.8c0.6,1.3,0.7,2.5,0.8,3.7c0.5,7.8,1,15.8,0.1,23.7c-0.4,3.3-1,6.7-3,10c-2.2,3.6-5.9,6.4-10.3,7.8
			c-1.8,0.6-3.9,1-6.3,1.2c-0.4,0-0.9,0.1-1.4,0.1c-1.3,0.1-2.6,0.3-4,0.3C57,189,56.8,189,56.6,189z M44.5,120.7
			c-0.7-0.2-5.6-1.8-7.9-2.4c0.2,0.7,0.5,1.5,0.7,2.3c0.7,2.4,1.5,4.8,1.7,7.2l0.1,1.6c0.3,3.8,0.7,7.6,0.5,11.3
			c-0.1,1.6-0.2,3.2-0.3,4.8c-0.6,8.6-1.1,16.8,2.6,25l0.5,1.1c2.4,5.5,6.9,15.6,14.1,15.9c1.5,0.1,3.1-0.1,4.5-0.3
			c0.5-0.1,1-0.1,1.4-0.2c2.3-0.2,4.2-0.6,6-1.1c4.1-1.3,7.5-3.9,9.5-7.2c1.9-3,2.4-6.3,2.8-9.4c0.9-7.8,0.4-15.8-0.1-23.5
			c-0.1-1.1-0.1-2.1-0.6-3.1c-0.4-0.9-1.2-1.7-1.9-2.4c-4.1-4.4-8.8-9.4-15.4-12.8c-1.4-0.7-5.7-2.5-18.1-6.8L44.5,120.7L44.5,120.7
			z"/>
	</g>
</g>
<g>
	<circle class="st2" cx="75.4" cy="145.7" r="2.4"/>
</g>
<g>
	<circle class="st2" cx="75.4" cy="155.7" r="2.4"/>
</g>
<g>
	<circle class="st2" cx="75.4" cy="164.7" r="2.4"/>
</g>
<g>
	<circle class="st2" cx="75.4" cy="174.7" r="2.4"/>
</g>
<g>
	<polyline class="st25" points="127.2,163.6 125.7,157.2 104.7,163.1 106.1,168.7 	"/>
</g>
<g>
	<path class="st2" d="M106.1,169.5c0.1,0,0.1,0,0.2,0c0.4-0.1,0.6-0.5,0.6-0.9l-1.2-4.9l19.5-5.5l1.4,5.6c0.1,0.4,0.5,0.6,0.9,0.6
		c0.4-0.1,0.6-0.5,0.6-0.9l-1.6-6.4c0-0.2-0.2-0.4-0.4-0.5c-0.2-0.1-0.4-0.1-0.6-0.1l-20.9,6c-0.4,0.1-0.6,0.5-0.5,0.9l1.4,5.6
		C105.4,169.2,105.7,169.5,106.1,169.5z"/>
</g>
<g>
	<polyline class="st25" points="45.1,165.6 46.5,159.7 65.8,165.1 64.6,170.2 	"/>
</g>
<g>
	<path class="st2" d="M64.6,171c0.3,0,0.6-0.2,0.7-0.6l1.2-5.2c0.1-0.4-0.1-0.8-0.5-0.9L46.7,159c-0.2-0.1-0.4,0-0.6,0.1
		c-0.2,0.1-0.3,0.3-0.3,0.5l-1.4,5.9c-0.1,0.4,0.2,0.8,0.6,0.9c0.4,0.1,0.8-0.2,0.9-0.6l1.2-5.1l17.8,4.9l-1,4.5
		c-0.1,0.4,0.2,0.8,0.6,0.9C64.5,171,64.5,171,64.6,171z"/>
</g>
<g>
	<path class="st3" d="M147.8,92.9c0.4,0.7,2.1,6.8,1.2,7.1c-5.5,1.9-25,10.2-29.4,12.4c-13.1,6.4-23.5,17.7-36.9,23.6
		c-0.6-1.6-9.3-14.6-10.3-13.4c-4.1,4.4-7.6,9.3-10.7,14.5c0.8-1.4-11.2-10.9-12.5-11.9c-4.3-3.2-8.8-6.4-14-7.8
		c-1.7-0.5-2.7-2.7-1.9-4.3c5.2,0.7,36.6,8,39.9,7.2c3.9-0.9,18.1-6.1,21.8-6.9C101.2,111.9,146.5,90.4,147.8,92.9z"/>
</g>
<g>
	<path class="st26" d="M40.3,114.4c3.1,1.6,6.1,3.7,8.9,5.8c1.4,1,13.4,10.5,12.5,11.9c2.5-4.2,5.3-8.2,8.4-11.9
		c1.5,0.2,2.5,0.2,3,0.1c0.5-0.1,1.2-0.3,1.9-0.5c2.9,3.6,7.2,10.1,7.7,11.2c13.4-5.9,23.8-17.1,36.9-23.6
		c4.3-2.1,22.8-10,28.9-12.2c0.5,2,1.1,4.6,0.5,4.8c-5.5,1.9-25,10.2-29.4,12.4c-13.1,6.4-23.5,17.7-36.9,23.6
		c-0.6-1.6-9.3-14.6-10.3-13.4c-4.1,4.4-7.6,9.3-10.7,14.5c0.8-1.4-11.2-10.9-12.5-11.9c-4.3-3.2-8.8-6.4-14-7.8
		c-1.7-0.5-2.7-2.7-1.9-4.3C34.4,113.2,37,113.7,40.3,114.4z"/>
</g>
<g>
	<path class="st2" d="M61.3,137.7c-0.3-0.2-0.4-0.5-0.3-0.8c-0.5-1.5-8.8-8.5-12.3-11.1c-4.2-3.2-8.8-6.3-13.7-7.7
		c-1-0.3-1.9-1.1-2.4-2.1s-0.5-2.2-0.1-3.2c0.1-0.3,0.5-0.5,0.8-0.4c1.8,0.2,6.8,1.3,12.6,2.5c10,2.1,25,5.2,27,4.7
		c2-0.4,6.6-2,11.1-3.5c4.6-1.5,8.9-3,10.8-3.4c2.4-0.5,11.2-4.3,20.4-8.3c26.5-11.4,32.4-13.5,33.3-11.7l0,0c0.3,0.6,2,6,1.4,7.5
		c-0.1,0.3-0.3,0.5-0.6,0.6c-5.4,1.8-24.8,10.1-29.3,12.3c-6.2,3-11.9,7.2-17.4,11.3c-6.1,4.5-12.5,9.2-19.6,12.3
		c-0.2,0.1-0.4,0.1-0.6,0c-0.2-0.1-0.3-0.2-0.4-0.4c-0.6-1.5-7.4-11.6-9.3-12.9c-3.9,4.3-7.4,9.1-10.3,14.1c0,0,0,0,0,0
		c-0.1,0.2-0.4,0.4-0.6,0.4C61.6,137.8,61.4,137.7,61.3,137.7z M72.7,121.7c2.1,0.4,8.6,10.4,10.3,13.3c6.7-3.1,12.8-7.5,18.7-11.9
		c5.6-4.1,11.3-8.3,17.6-11.4c4.5-2.2,23.5-10.3,29.2-12.3c0.1-1-0.9-4.8-1.3-5.9c-2.6-0.2-19.9,7.2-31.4,12.2
		c-9.7,4.2-18.2,7.8-20.7,8.4c-1.8,0.4-6.3,1.9-10.6,3.4c-4.5,1.5-9.2,3.1-11.2,3.6c-2.1,0.5-13.3-1.8-27.6-4.7
		c-5.2-1.1-9.7-2-11.9-2.4c-0.1,0.4,0,0.9,0.2,1.4c0.3,0.7,0.8,1.1,1.4,1.3c5.2,1.5,9.9,4.7,14.2,8c0.7,0.5,4,3.1,7.1,5.8
		c2.8,2.4,4.3,4,5.1,5c2.9-4.8,6.3-9.3,10-13.4c0.2-0.2,0.4-0.3,0.7-0.3C72.6,121.7,72.7,121.7,72.7,121.7z M148.5,99.5L148.5,99.5
		L148.5,99.5z M147.8,92.9L147.8,92.9L147.8,92.9z"/>
</g>
<g>
	
		<rect x="73.6" y="122.2" transform="matrix(0.9669 -0.2552 0.2552 0.9669 -30.6833 23.2699)" class="st2" width="1.5" height="15.2"/>
</g>
<g>
	<path class="st27" d="M86.3,114.8c1.5,4.2,1.7,8.8,0.8,13.1c-0.1,0.5-0.2,1-0.6,1.3c-0.2,0.2-0.6,0.3-0.9,0.4
		c-3.1,0.7-6-1.4-8.5-3.3c-0.8-0.6-1.5-1.2-2.3-1.8c-0.7,0.9-1.9,1.4-3.1,1.2c-0.3,0-0.6-0.1-0.9,0c-0.3,0.1-0.5,0.4-0.7,0.7
		c-1.5,2.4-3.4,4.7-6,5.7c-1.4,0.5-3,0.5-4.2-0.3c-0.9-0.7-1.4-1.8-1.7-2.9c-1-3.2-1.5-6.6-1.5-9.9c0-0.7,0-1.4,0.4-2
		c2.2-4,7.7-0.2,9.8,1.5c0.8,0.6,1.7,1.9,2.6,2.3c1.1,0.5,2-0.6,3.2-0.5c0.9,0.1,1.8,0.7,1.9,1.6c1.7-3.5,3.7-7.2,7.1-9.1
		C83.7,111.5,85.5,112.9,86.3,114.8"/>
</g>
<g>
	<path class="st28" d="M58.3,126.7c0.3,1.1,0.8,2.2,1.7,2.9c1.2,0.9,2.8,0.8,4.2,0.3c2.6-1,4.5-3.3,6-5.7c0.2-0.3,0.4-0.6,0.7-0.7
		c0.3-0.1,0.6,0,0.9,0c1.1,0.2,2.3-0.3,3.1-1.2c0.8,0.6,1.5,1.2,2.3,1.8c2.5,2,5.4,4.1,8.5,3.3c0.3-0.1,0.6-0.2,0.9-0.4
		c0.4-0.3,0.5-0.8,0.6-1.3c0.3-1.4,0.5-2.8,0.5-4.2c0.1,2.1-0.1,4.2-0.5,6.2c-0.1,0.5-0.2,1-0.6,1.3c-0.2,0.2-0.6,0.3-0.9,0.4
		c-3.1,0.7-6-1.4-8.5-3.3c-0.8-0.6-1.5-1.2-2.3-1.8c-0.7,0.9-1.9,1.4-3.1,1.2c-0.3,0-0.6-0.1-0.9,0c-0.3,0.1-0.5,0.4-0.7,0.7
		c-1.5,2.4-3.4,4.7-6,5.7c-1.4,0.5-3,0.5-4.2-0.3c-0.9-0.7-1.4-1.8-1.7-2.9c-1-3.2-1.5-6.6-1.5-9.9c0-0.2,0-0.5,0-0.7
		C56.9,121,57.4,123.9,58.3,126.7z"/>
</g>
<g>
	<path class="st29" d="M56,119.3c0,1.3,0.1,2.6,0.3,3.9c0.3,2.4,0.9,4.7,1.8,6.9c0.7,1.8,1.7,2.8,3,3.2c0.5,0.1,0.9,0.2,1.4,0.2
		c1.3,0,2.5-0.5,3.3-1.1c0.8-0.5,1.5-1.1,2.2-1.8c1.3-1.3,2.4-2.9,3.1-4.6c0.4,0.3,0.9,0.5,1.4,0.5c0.8,0.1,1.5-0.2,2.1-0.9
		c0.8,1,1.9,1.9,3.3,2.9c1.5,1.1,3.1,1.9,4.6,2.3c0.5,0.1,1,0.2,1.4,0.2c1.3,0.1,2.4-0.4,3.2-1.2c0.4-0.5,0.8-1,1-1.6
		c0.4-1,0.5-2,0.6-3c0.4-4.1-0.1-7.5-1.4-10.4c-0.1-0.1-0.1-0.3-0.2-0.4c-0.5-1-1.3-2.3-2.8-2.8c-1.4-0.4-3,0-4.4,1.1
		c-1.3,1-2.2,2.3-3.2,3.7c-0.5,0.7-1,1.5-1.4,2.2c-0.3,0.5-0.6,1-0.9,1.5c-0.4-0.4-0.9-0.6-1.5-0.7c-0.7-0.2-1.6,0.1-2.3,0.7
		c-0.1,0.1-0.1,0.1-0.2,0.2c-1.1-1.3-2.2-2.4-3.6-3.5l-0.3-0.2c-1.3-1-2.9-2-4.6-2.5c-1.7-0.4-3.3-0.1-4.4,0.9
		C56.2,116.3,56,118.1,56,119.3z M83,129.5c-0.4-0.1-0.8-0.2-1.2-0.4c-0.2-0.1-0.3-0.1-0.5-0.2c-1.1-0.5-2.2-1.2-3.4-2.2v0
		c-0.6-0.5-1.1-1-1.6-1.5c-0.3-0.3-0.7-0.7-1-1c0-0.1,0.1-0.2,0.1-0.3c0.4-0.1,0.7,0.1,1.1,0.3l0.1,0.1c0.2,0.1,0.5,0.1,0.7-0.1
		c0.2-0.2,0.3-0.5,0.2-0.8l-0.1-0.1c-0.4-0.6-1.1-0.8-1.8-0.8c0.4-0.4,0.9-0.7,1.4-0.9c0.3-0.1,0.5-0.4,0.4-0.7
		c-0.1-0.3-0.4-0.5-0.7-0.5c-0.3,0.1-0.6,0.2-0.9,0.3c0.4-0.6,0.7-1.2,1.1-1.8c0.4-0.6,0.8-1.3,1.3-1.9c0.8-1.2,1.7-2.5,3-3.4
		c0.6-0.4,1.4-0.8,2.2-0.8c0.5,0,1,0.2,1.4,0.5c0.3,0.2,0.5,0.5,0.7,0.8c0.5,0.8,0.9,1.8,1.2,2.7c0.1,0.2,0.1,0.4,0.2,0.6
		c0.6,2.5,0.8,5.4,0.3,8.4c-0.3,1.7-0.8,2.8-1.8,3.3C84.7,129.7,83.9,129.7,83,129.5z M70,124.6c-0.5,1.4-1.1,2.7-2,3.8
		c-0.8,1-1.6,1.8-2.6,2.5c-0.3,0.2-0.6,0.4-0.9,0.6c-0.5,0.3-2.3,1.1-3.7,0.1c-1-0.7-1.4-2.1-1.8-3.2l-0.1-0.4
		c-0.6-1.8-1-3.6-1.2-5.3c-0.2-1.3-0.2-2.6-0.1-3.8c0.1-1.5,0.7-2.5,1.7-2.9c1.1-0.4,2.4-0.2,3.9,0.5c0.6,0.3,1.2,0.7,1.8,1.1
		c1.3,0.9,2.6,2,3.9,3.4c0.3,0.3,0.7,0.7,1,1c0,0,0,0,0,0c-0.5-0.3-1.1-0.3-1.7-0.2c-0.4,0.1-0.6,0.4-0.5,0.7c0,0.4,0.3,0.6,0.7,0.6
		c0.5,0,1,0.1,1.4,0.4c-0.9,0.1-1.8,0.6-2.2,1.4c-0.1,0.3-0.1,0.6,0.2,0.8c0.3,0.2,0.6,0.1,0.9-0.1C69,124.9,69.4,124.6,70,124.6
		C70,124.6,70,124.6,70,124.6z M71.2,122.7l0-0.1c0-0.6,0.2-1,0.5-1.3c0.2-0.2,0.5-0.3,1-0.4c0.6,0.2,1.1,0.7,1.3,1.4
		c0.1,0.2,0.1,0.4,0.1,0.6c0,0.1,0,0.3,0,0.4c-0.1,0.1-0.1,0.3-0.1,0.4c-0.1,0.4-0.5,1.4-1.3,1.3h0c-0.4,0-0.7-0.2-0.9-0.6
		C71.3,124,71.1,123.3,71.2,122.7z"/>
</g>
</svg>
