<?xml version="1.0" encoding="utf-8"?>
<!-- Generator: Adobe Illustrator 21.1.0, SVG Export Plug-In . SVG Version: 6.00 Build 0)  -->
<svg version="1.1" id="Layer_1" xmlns="http://www.w3.org/2000/svg" xmlns:xlink="http://www.w3.org/1999/xlink" x="0px" y="0px"
	 viewBox="0 0 140.2 191.3" style="enable-background:new 0 0 140.2 191.3;" xml:space="preserve">
<style type="text/css">
	.st0{fill:#87D1CC;}
	.st1{fill:#41908C;}
	.st2{fill:#0A0809;}
	.st3{fill:#AE174E;}
	.st4{fill:#F87FB7;}
	.st5{fill:#FFFFFF;}
	.st6{fill:#D9DFD5;}
	.st7{fill:#D8AC86;}
	.st8{fill:#A17E59;}
	.st9{fill:#342D26;}
	.st10{fill:#1F1A17;}
	.st11{fill:#C2BEB4;}
</style>
<g>
	<path class="st0" d="M18.9,163.2c-5.8,0.8-12.2,0.1-16.4-3.3c-1.4-1.1-2.1-2.3-1.7-4.2c0.3-1.6,1.3-3.3,3-3.7
		c4.9-1.1,9.9,0.4,14.5,1.2"/>
</g>
<g>
	<path class="st1" d="M4,157.1c-1.3-1.1-2.1-2.3-1.7-4.2c-0.8,0.7-1.2,1.8-1.4,2.8c-0.4,1.9,0.3,3.1,1.7,4.2
		c4.2,3.4,10.6,4.1,16.4,3.3l-0.1-2.7C13.5,161,7.8,160.2,4,157.1z"/>
</g>
<g>
	<path class="st2" d="M18.9,163.2c0,0-0.7,0-1.8,0c-0.6,0-1.3,0-2,0c-0.8,0-1.7-0.1-2.6-0.2c-1.9-0.3-4.1-0.7-6.3-1.7
		c-1.1-0.5-2.1-1.1-3.1-1.8c-1-0.7-1.6-1.6-1.7-2.7c0-1,0.4-2.3,1-3.1c0.3-0.4,0.7-0.7,1.2-0.9c0.1,0,0.2-0.1,0.3-0.1l0.5-0.1
		c0.3-0.1,0.6-0.1,0.9-0.2c2.3-0.3,4.6-0.2,6.5,0c1.9,0.2,3.5,0.4,4.7,0.6c1.1,0.1,1.8,0.2,1.8,0.2s-0.6-0.2-1.7-0.5
		c-1.1-0.3-2.7-0.8-4.6-1.2c-1.9-0.4-4.3-0.7-6.8-0.5c-0.3,0-0.7,0.1-0.9,0.1l-0.5,0.1c-0.2,0-0.4,0.1-0.6,0.1
		c-0.7,0.2-1.4,0.7-1.9,1.3c-0.5,0.6-0.8,1.2-1.1,1.9c-0.1,0.2-0.1,0.4-0.2,0.5c0,0.1-0.1,0.3-0.1,0.5C0,156.1,0,156.5,0,156.9
		c0,0.8,0.3,1.6,0.7,2.2c0.4,0.6,1,1.1,1.5,1.5c1.1,0.8,2.3,1.5,3.4,1.9c2.4,0.9,4.7,1.2,6.7,1.3c1,0,1.9,0,2.7-0.1
		c0.8-0.1,1.5-0.1,2.1-0.2c0.6-0.1,1-0.2,1.3-0.2C18.8,163.3,18.9,163.2,18.9,163.2z"/>
</g>
<g>
	<path class="st0" d="M25.5,22.1c0.8,3.2,3.3,5.8,5.9,7.7c2.5,1.8,6.4-0.9,7.9-3c1.3-1.8-0.1-3.5-0.4-5.3c-0.4-2.3-0.4-4.9-2.4-6.4
		c-2.2-1.6-5.9-0.6-8.1,0.6C26,17.1,24.9,19.4,25.5,22.1z"/>
</g>
<g>
	<path class="st1" d="M35.6,17.3c0.1-0.1,0.1-0.3,0-0.4c-0.1-0.1-0.2-0.1-0.3-0.2c-0.5-0.1-1-0.1-1.5,0c-1.6,0.2-3.3,0.8-4.5,1.9
		c-0.3,0.3-0.6,0.7-0.6,1.1c0,0.1,0,0.2,0.1,0.3c0.1,0.1,0.2,0.1,0.3,0.1c1.4,0.3,2.5,1.2,3.6,2.2c0.5,0.5,0.9,1.1,1.2,1.7
		c0.1,0.3,0.3,0.6,0.3,1c0,0.1,0.1,0.9,0.1,1c0.3,0.2,0.6,0.4,1,0.4c0.1-1.3-0.8-3.9-0.8-4.9c0-1,0.1-1.9,0.5-2.8
		c0.1-0.4,0.3-0.7,0.4-1.1C35.4,17.6,35.6,17.4,35.6,17.3z"/>
</g>
<g>
	<path class="st2" d="M31.2,30.2c-1.9-1.3-5.2-4.2-6.1-8l0,0c-0.7-2.9,0.5-5.5,3.1-6.9c2-1.1,6.1-2.5,8.6-0.6
		c1.8,1.3,2.1,3.4,2.4,5.4c0.1,0.4,0.1,0.9,0.2,1.3c0.1,0.5,0.3,0.9,0.4,1.4c0.5,1.3,1,2.7-0.1,4.2c-1.2,1.7-4,3.8-6.4,3.8
		C32.6,30.9,31.8,30.7,31.2,30.2z M28.7,16.2c-2.3,1.3-3.2,3.4-2.6,5.8l0,0c0.8,3.5,4,6.1,5.7,7.4c2.2,1.6,5.9-1,7.2-2.9
		c0.8-1,0.4-2.1-0.1-3.3c-0.2-0.5-0.4-1-0.5-1.6c-0.1-0.4-0.1-0.9-0.2-1.3c-0.3-1.9-0.5-3.7-2-4.8c-0.7-0.5-1.6-0.7-2.6-0.7
		C31.9,14.8,30.1,15.4,28.7,16.2z"/>
</g>
<g>
	<path class="st2" d="M28.5,20c0,0,0.7,0.2,1.5,0.7c0.4,0.2,0.9,0.6,1.4,0.9c0.5,0.4,0.9,0.8,1.3,1.3c0.8,1,1.5,2.1,1.8,3.1
		c0.2,0.5,0.3,0.9,0.3,1.2c0.1,0.3,0.1,0.5,0.1,0.5s0-0.2,0.1-0.5c0-0.3,0.1-0.7,0-1.3c0-0.5-0.2-1.2-0.5-1.8
		c-0.3-0.6-0.7-1.2-1.1-1.8c-0.5-0.5-1-1-1.6-1.4c-0.6-0.4-1.2-0.6-1.7-0.7c-0.5-0.1-1-0.2-1.3-0.2C28.7,20,28.5,20,28.5,20z"/>
</g>
<g>
	<path class="st2" d="M35.8,17.1c0,0-0.1,0.1-0.4,0.3c-0.2,0.2-0.5,0.5-0.8,0.9c-0.3,0.4-0.5,1-0.7,1.6c-0.1,0.3-0.2,0.6-0.2,1
		c0,0.4,0,0.7,0,1c0,0.7,0.1,1.4,0.3,2c0.2,0.6,0.5,1.2,0.8,1.6c0.3,0.4,0.6,0.7,0.8,0.9c0.2,0.2,0.3,0.3,0.3,0.3s-0.1-0.2-0.2-0.4
		c-0.1-0.3-0.3-0.6-0.4-1.1c-0.3-0.9-0.6-2.1-0.6-3.3c0-0.3,0-0.6,0-0.9c0-0.3,0-0.6,0.1-0.9c0.1-0.6,0.2-1.1,0.4-1.5
		C35.5,17.6,35.8,17.1,35.8,17.1z"/>
</g>
<g>
	<path class="st0" d="M76.7,5.5c-0.2,3,1.3,6,3.1,8.4c1.7,2.2,5.8,1,7.7-0.5c1.6-1.2,0.9-3.1,1-4.7c0.2-2.1,1-4.4-0.4-6.3
		c-1.5-2-5-2.2-7.2-1.7C78.5,1.2,76.8,3,76.7,5.5z"/>
</g>
<g>
	<path class="st1" d="M86.8,4.1C86.9,4,87,3.9,86.9,3.7c0-0.1-0.1-0.2-0.2-0.2c-0.4-0.2-0.9-0.3-1.3-0.4c-1.5-0.3-3.1-0.2-4.5,0.4
		C80.5,3.7,80.2,4,80,4.4c0,0.1,0,0.2,0,0.3c0,0.1,0.1,0.1,0.2,0.2c1.2,0.7,1.9,1.7,2.5,2.9c0.3,0.6,0.5,1.2,0.6,1.8
		c0,0.3,0.1,0.6,0,0.9c0,0.1-0.2,0.8-0.1,0.9c0.2,0.3,0.5,0.5,0.7,0.6c0.5-1.1,0.4-3.7,0.6-4.5c0.2-0.9,0.6-1.6,1.2-2.3
		c0.2-0.3,0.4-0.6,0.7-0.8C86.6,4.3,86.7,4.2,86.8,4.1z"/>
</g>
<g>
	<path class="st2" d="M79.4,14.2c-1.3-1.7-3.5-5.1-3.2-8.7l0,0c0.2-2.7,1.9-4.7,4.7-5.3c2.1-0.4,6-0.5,7.8,1.9
		c1.2,1.7,0.9,3.7,0.6,5.5c-0.1,0.4-0.1,0.8-0.2,1.2c-0.1,0.4,0,0.9,0,1.4c0.1,1.3,0.1,2.7-1.2,3.7c-1.2,0.9-3.3,1.8-5.2,1.8
		C81.3,15.6,80.2,15.2,79.4,14.2z M81,1.2c-2.3,0.5-3.7,2.1-3.9,4.4l0,0c-0.2,3.3,1.8,6.4,3,8c1.5,2,5.4,0.7,7-0.6
		c0.9-0.7,0.9-1.7,0.8-2.9c0-0.5,0-1,0-1.5c0-0.4,0.1-0.8,0.2-1.2c0.3-1.7,0.5-3.4-0.5-4.7C86.9,1.5,85,1,83.2,1
		C82.5,1,81.7,1.1,81,1.2z"/>
</g>
<g>
	<path class="st2" d="M79.8,4.5c0,0,0.5,0.4,1.1,1.1c0.3,0.3,0.6,0.7,0.9,1.2c0.3,0.5,0.6,1,0.8,1.5c0.5,1.1,0.7,2.2,0.7,3.1
		c0,0.5,0,0.8,0,1.1c0,0.3,0,0.4,0,0.4s0.1-0.1,0.2-0.4c0.1-0.3,0.3-0.6,0.4-1.1c0.1-0.5,0.2-1.1,0.1-1.7c-0.1-0.6-0.2-1.3-0.5-1.9
		c-0.3-0.6-0.6-1.2-1-1.7c-0.4-0.5-0.9-0.8-1.3-1.1c-0.4-0.3-0.8-0.4-1.1-0.5C80,4.5,79.8,4.5,79.8,4.5z"/>
</g>
<g>
	<path class="st2" d="M87.1,3.9c0,0-0.1,0-0.4,0.1c-0.2,0.1-0.6,0.3-1,0.6c-0.4,0.3-0.8,0.7-1.1,1.2c-0.2,0.3-0.3,0.5-0.4,0.8
		C84.1,7,84,7.2,83.9,7.6c-0.2,0.6-0.3,1.2-0.2,1.8c0,0.6,0.1,1.1,0.2,1.6c0.1,0.4,0.3,0.8,0.4,1c0.1,0.2,0.2,0.4,0.2,0.4
		s0-0.2,0-0.4c0-0.3-0.1-0.6-0.1-1.1c0-0.9,0.1-2,0.4-3.1C84.9,7.6,85,7.3,85.1,7c0.1-0.3,0.2-0.5,0.3-0.7c0.2-0.5,0.5-0.9,0.7-1.2
		C86.6,4.3,87.1,3.9,87.1,3.9z"/>
</g>
<g>
	<path class="st0" d="M15.7,164.3c-4.2-3.8-5.8-7.9-7.6-13.2c-4.3-12.3-1.5-26.1-1-38.8c0.2-4.4,0-8.7,0.1-13.1
		C7.3,92.6,7.8,86,9.1,79.5c2.2-11.5,5.8-24,11.5-34.3c2.3-4.1,5.1-8.3,7.9-12.1c2.7-3.7,5.7-7.3,9.1-10.5
		c5.9-5.5,14.5-10.1,22.3-12c13.2-3.3,28.4-3.9,41.5,0.1c17.3,5.3,27,22.7,27.9,40c0.6,10.7,0.7,20.2-3.1,30.6
		c-3.5,9.7-9.6,19.2-8.4,29.4c1.2,9.9,2.6,20,0.9,29.9c-1.6,9.3-4.2,16.4-10.2,23.8c-15.4,18.8-40.3,20.9-62.4,15.4
		c-0.9-0.2-1.8-0.5-2.7-0.7c-2.1-0.6-4.3-1.2-6.3-1.9c-6.4-2.2-12.3-5.5-17.6-9.7C18.3,166.6,17,165.5,15.7,164.3z"/>
</g>
<g>
	<path class="st1" d="M22.5,170.1c4,2.8,8.5,5,12.9,6.9c11,4.6,23.2,6.3,35.1,5.9c2.5-0.1,5.1-0.4,7.5-0.9
		c12.3-2.3,22.6-7.8,30.5-17.5c2.7-3.3,4.7-6.6,6.3-10c-0.4,0.5-0.7,1-1.1,1.5c-7.9,9.7-18.2,15.1-30.5,17.5
		c-5.4,1-10.8,1.6-16.3,1.5c-7.1-0.1-13.9,0.7-21.1-0.7c-10.8-2.2-19.4-8.7-25.9-17.5c-3.1-4.2-5.1-9.2-6.8-14.1
		c-4.3-12.3-1.5-26.1-1-38.8c0.2-4.4,0-8.7,0.1-13.1c0.1-6.6,0.7-13.2,1.9-19.8c2.1-10.9,5.4-22.5,10.6-32.4
		c-1.5,2.2-2.9,4.5-4.2,6.7C14.8,55.6,11.3,68,9.1,79.5C7.8,86,7.3,92.6,7.2,99.3c-0.1,4.4,0.1,8.7-0.1,13.1
		c-0.6,13.6-4.3,28.8,2.5,41.4c1,1.9,2,3.8,3.1,5.7C15,163.8,18.5,167.3,22.5,170.1z"/>
</g>
<g>
	<path class="st2" d="M64.1,183c0.8,0,1.5,0,2.2-0.1c0.8,0,1.5-0.1,2.3-0.1c2.5,0,4.8-0.1,6.9-0.3c5.1-0.4,9.6-1.4,13.5-3
		c7.8-3.1,14.7-8.1,20-14.6c6.5-8,8.9-15.4,10.4-24.2c1.6-9.4,0.4-19.1-0.7-28.4l-0.2-1.8c-0.9-7.4,2.2-14.6,5.3-21.6
		c1.1-2.4,2.2-5,3.1-7.5c3.8-10.5,3.7-20.2,3.1-30.9c-0.9-16.2-10-35-28.4-40.7C89.3,6.3,74.5,6.3,59.8,9.9
		c-8.1,2-16.8,6.7-22.6,12.2c-3.2,3-6.2,6.4-9.2,10.6c-3.1,4.3-5.8,8.4-7.9,12.2c-5,8.9-8.9,20.5-11.6,34.5
		c-1.2,6.1-1.8,12.8-1.9,19.9c0,1.7,0,3.5,0,5.2c0,2.6,0,5.3-0.1,7.9c-0.1,3-0.4,6.2-0.6,9.2c-0.8,10-1.7,20.3,1.6,29.8
		c0.3,1,0.7,1.9,1.1,2.9l1.4-0.5c-0.4-1-0.7-1.9-1-2.9c-3.2-9.2-2.4-19.4-1.6-29.2c0.3-3.1,0.5-6.2,0.6-9.3c0.1-2.7,0.1-5.3,0.1-7.9
		c0-1.7,0-3.4,0-5.2c0.1-7,0.7-13.6,1.9-19.6c2.7-13.8,6.5-25.3,11.5-34c2.1-3.7,4.7-7.8,7.8-12c3-4.1,5.9-7.5,9-10.4
		c5.7-5.3,14.1-9.9,22-11.8c14.4-3.6,29-3.6,41.1,0.1c17.7,5.4,26.5,23.7,27.3,39.3c0.6,10.5,0.7,20.1-3,30.3c-0.9,2.5-2,5-3,7.4
		c-3.1,7.2-6.3,14.6-5.4,22.4l0.2,1.8c1.1,9.2,2.3,18.7,0.7,27.9c-1.5,8.5-3.8,15.8-10.1,23.5c-5.1,6.3-11.9,11.2-19.4,14.2
		c-3.8,1.5-8.1,2.5-13.1,2.9c-2.1,0.2-4.4,0.3-6.8,0.3c-0.8,0-1.6,0-2.4,0.1c-1.2,0.1-2.3,0.1-3.4,0l-0.1,1.5
		C63.2,183,63.7,183,64.1,183z"/>
</g>
<g>
	<path class="st2" d="M65.7,183.1c3.3,0,6.8-0.2,10.6-0.6l0.2,0c3.7-0.4,7.6-0.8,11.2-2.3l-0.6-1.4c-3.4,1.4-7.1,1.8-10.8,2.2
		l-0.2,0c-5.3,0.6-10,0.7-14.4,0.5c-0.8,0-1.6-0.1-2.5-0.1c-3.2-0.1-6.6-0.3-9.7-1c-22.9-5.4-36.2-15.1-40.7-29.7L7.5,151
		c4.7,15.2,18.3,25.3,41.8,30.8c3.3,0.8,6.7,0.9,10,1.1c0.8,0,1.6,0.1,2.4,0.1C63,183,64.3,183.1,65.7,183.1z"/>
</g>
<g>
	<g>
		<path class="st1" d="M103.3,71.5c-0.1-0.3-0.2-0.6-0.3-0.8c-0.1-0.3-0.3-0.5-0.5-0.7c-0.1-0.1-0.2-0.2-0.3-0.3l-0.2-0.2l-0.2-0.1
			c-0.9-0.7-2-1-2.9-1.3C98.7,68,98.3,68,98,67.9c0,0,0-0.1,0-0.1c0-0.3-0.2-0.7-0.4-0.9c-0.2-0.3-0.5-0.5-0.8-0.6
			c-0.3-0.1-0.6-0.1-0.9-0.1c-0.3,0-0.5,0.1-0.8,0.1l-0.8,0.1c-0.3,0.1-0.7,0.1-1,0.2c-0.4,0-0.7,0-1.1,0l-0.8,0c-0.3,0-0.5,0-0.8,0
			c-0.3,0-0.6,0.1-0.8,0.3c-0.3,0.2-0.5,0.4-0.7,0.7C89,68.1,89,68.4,89,68.7c-0.6,0.2-1.2,0.4-1.8,0.7c-0.9,0.4-1.9,0.9-2.6,1.8
			l-0.1,0.2l-0.1,0.2c-0.1,0.1-0.1,0.2-0.2,0.4c-0.1,0.3-0.2,0.5-0.3,0.8c-0.1,0.3-0.1,0.6-0.1,0.9c0,0.3,0,0.6,0.1,0.8
			c0,0.5,0.1,1,0.3,1.5c0.1,0.3,0.2,0.5,0.4,0.8c0.1,0.1,0.2,0.2,0.3,0.4c0.1,0.1,0.1,0.1,0.2,0.2l0.1,0.1c0.1,0.1,0.2,0.2,0.4,0.3
			c0.1,0.1,0.3,0.1,0.4,0.2c0.3,0.1,0.6,0.2,0.9,0.2c0.6,0.1,1.1,0,1.6-0.1c0.4-0.1,0.7-0.2,1.1-0.3c0,0.4,0,1,0,1.6
			c0,0.5,0.1,1,0.4,1.6c0.3,0.5,0.7,1,1.2,1.4c0.5,0.4,1.2,0.6,1.9,0.7c0.2,0,0.3,0,0.5,0l0.5,0l0.9-0.1l0.9-0.1
			c0.3,0,0.7-0.1,1-0.2c0.7-0.2,1.2-0.7,1.6-1.2c0.4-0.5,0.7-1.1,0.8-1.7c0.1-0.3,0.1-0.6,0.1-0.9c0-0.1,0-0.2,0-0.4
			c0-0.1,0-0.2-0.1-0.4c-0.1-0.5-0.2-0.9-0.3-1.3c0.3,0,0.7,0,1.1,0c0.5,0,1.1-0.1,1.6-0.3c0.3-0.1,0.5-0.2,0.8-0.4
			c0.1-0.1,0.2-0.2,0.3-0.3c0.1-0.1,0.2-0.2,0.3-0.3l0.1-0.1c0.1-0.1,0.1-0.1,0.1-0.2c0.1-0.1,0.1-0.3,0.2-0.4
			c0.1-0.3,0.2-0.6,0.2-0.9c0.1-0.5,0-1.1-0.1-1.6C103.4,72.1,103.4,71.8,103.3,71.5z"/>
	</g>
	<g>
		<path class="st3" d="M97.8,74.5c-0.9,1.7-1.2,3.7-0.8,5.6c0.2,1,1.8,3.3,1.4,4.1c-0.5,1.1-1.8,1.4-3,1.6c-6.6,0.8-9.5-5.3-8.3-11"
			/>
	</g>
	<g>
		<path class="st4" d="M93.4,83c-0.8-0.7-1.8-1-2.9-1c-0.6,0-2.8,0.3-1.8,1.2c1.3,1.1,2.8,2,4.5,2.4c0.5,0.1,1.1,0.1,1.6,0.2
			c1.1,0.1,2-0.4,1.8-1.6c-0.2-0.9-0.9-1.4-1.8-1.5C94.3,82.6,93.8,82.6,93.4,83z"/>
	</g>
	<g>
		<path class="st2" d="M97.8,74.5c0,0-0.1,0.1-0.2,0.3c-0.1,0.2-0.3,0.5-0.5,0.9c-0.3,0.8-0.7,1.9-0.8,3.4c0,0.4,0,0.7,0.1,1.2
			c0,0.2,0.1,0.5,0.2,0.6c0.1,0.2,0.2,0.4,0.2,0.6c0.3,0.7,0.7,1.6,0.8,2.2c0,0.1,0,0.3,0,0.2c-0.1,0.1-0.1,0.2-0.1,0.2
			c0,0-0.1,0.1-0.1,0.2c-0.2,0.2-0.6,0.4-0.9,0.5c-0.7,0.3-1.6,0.3-2.5,0.3c-0.8,0-1.7-0.2-2.4-0.5c-0.7-0.3-1.5-0.7-2-1.3
			c-0.6-0.6-1-1.2-1.4-1.9c-0.2-0.3-0.3-0.7-0.4-1c-0.1-0.3-0.2-0.7-0.3-1c-0.1-0.3-0.2-0.6-0.2-1c-0.1-0.3-0.1-0.6-0.1-0.9
			c-0.1-0.6-0.1-1.1-0.1-1.5c0-0.8,0-1.3,0-1.3s0,0.1-0.1,0.3c-0.1,0.2-0.2,0.5-0.2,0.9c-0.1,0.4-0.2,0.9-0.2,1.5c0,0.3,0,0.6,0,0.9
			c0,0.3,0,0.7,0.1,1c0,0.4,0.1,0.7,0.2,1.1c0.1,0.4,0.2,0.8,0.4,1.2c0.1,0.4,0.4,0.8,0.6,1.2c0.3,0.4,0.5,0.8,0.8,1.1
			c0.6,0.7,1.5,1.3,2.4,1.8c0.9,0.4,2,0.6,3,0.6c0.9,0,2-0.1,3-0.5c0.5-0.2,1-0.5,1.4-0.9c0.1-0.1,0.2-0.2,0.3-0.4
			c0.1-0.2,0.2-0.3,0.2-0.4c0.2-0.5,0.1-0.8,0.1-1.1c-0.3-1-0.8-1.7-1.1-2.5c-0.2-0.4-0.4-0.7-0.5-1c-0.1-0.3-0.2-0.7-0.2-1
			c-0.2-1.3,0-2.5,0.2-3.3C97.7,74.9,97.8,74.5,97.8,74.5z"/>
	</g>
	<g>
		<path class="st2" d="M96.4,85.3c0.1,0,0.2-0.1,0.3-0.2c0-0.1,0.1-0.2,0.1-0.3c0.1-0.2,0.1-0.5,0-0.7c-0.1-0.5-0.3-1-0.7-1.3
			c-0.2-0.2-0.4-0.3-0.7-0.4c-0.2-0.1-0.5-0.1-0.7-0.2c-0.3,0-0.5,0-0.8,0.1c-0.3,0.1-0.6,0.2-0.8,0.5l0.7-0.1
			c-0.4-0.3-0.8-0.6-1.3-0.8c-0.5-0.2-1-0.3-1.5-0.2c-0.5,0-1,0.1-1.4,0.3c-0.2,0.1-0.4,0.2-0.6,0.3c-0.2,0.1-0.4,0.3-0.5,0.4
			c0.9-0.3,1.7-0.4,2.6-0.2c0.4,0.1,0.8,0.2,1.2,0.3c0.2,0.1,0.4,0.2,0.5,0.3c0.2,0.1,0.3,0.2,0.5,0.4l0.4,0.4l0.3-0.4
			c0.1-0.2,0.4-0.3,0.8-0.2c0.2,0,0.4,0,0.5,0.1c0.2,0,0.3,0.1,0.5,0.2c0.3,0.2,0.6,0.4,0.7,0.8c0.1,0.2,0.1,0.4,0.2,0.6
			c0,0.1,0,0.2,0,0.3C96.5,85.2,96.5,85.3,96.4,85.3z"/>
	</g>
	<g>
		<path class="st1" d="M96.4,91.2c0.5-0.2,1-0.7,1.3-1.2c0.3-0.5,0.5-1.2,0.5-1.7c-0.2,0.1-0.4,0.3-0.6,0.4
			c-0.5,0.4-1.1,0.5-1.7,0.6c-1,0.1-1.9-0.1-2.9-0.2c-2.5-0.5-5.1-1.2-6.8-3.1c1.4,3.3,4.8,5.5,8.4,5.5
			C95.2,91.5,95.8,91.4,96.4,91.2z"/>
	</g>
	<g id="tith_54_">
		<path class="st5" d="M96.1,80l-1.4,0.2c-2,0.2-3.8-1.3-4.1-3.3l-0.2-1.4c-0.2-2,1.3-3.8,3.3-4.1l1.4-0.2c2-0.2,3.8,1.3,4.1,3.3
			l0.2,1.4C99.6,78,98.1,79.8,96.1,80z"/>
	</g>
	<g>
		<path class="st6" d="M99.3,76.2c0-0.1,0-0.1,0-0.2l-0.2-1.4c-0.2-2-2-3.5-4.1-3.3l-1.4,0.2c-2,0.2-3.5,2-3.3,4.1l0.2,1.4
			c0,0.1,0.1,0.3,0.1,0.4C92.9,76,96.7,75.2,99.3,76.2z"/>
	</g>
	<g id="tith_53_">
		<path class="st2" d="M98.9,73.2c0,0,0,0.1,0.1,0.2c0.1,0.1,0.2,0.3,0.2,0.6c0.1,0.5,0.3,1.2,0.5,2.1c0,0.1,0,0.2,0.1,0.4
			c0,0.1,0,0.2,0,0.4c0,0.3,0,0.6-0.1,0.9c-0.1,0.6-0.3,1.2-0.8,1.7c-0.4,0.5-1,0.9-1.6,1.2c-0.3,0.1-0.7,0.2-1,0.2l-0.9,0.1
			l-0.9,0.1l-0.5,0c-0.1,0-0.3,0-0.5,0c-0.7,0-1.4-0.3-1.9-0.7c-0.5-0.4-0.9-0.9-1.2-1.4c-0.3-0.5-0.4-1.1-0.4-1.6
			c0-0.9,0-1.6,0-2.1c0-0.3,0.1-0.5,0.1-0.6c0-0.1,0-0.2,0-0.2s0,0.3,0.1,0.8c0.1,0.5,0.3,1.2,0.5,2.1c0.1,0.4,0.2,0.8,0.5,1.2
			c0.2,0.4,0.6,0.7,1,0.9c0.4,0.2,0.9,0.4,1.3,0.4c0.1,0,0.2,0,0.4,0l0.4,0l0.9-0.1l0.9-0.1c0.3,0,0.5-0.1,0.7-0.1
			c0.4-0.1,0.9-0.4,1.2-0.7c0.3-0.3,0.6-0.7,0.7-1.1c0.1-0.2,0.1-0.4,0.1-0.6c0-0.1,0-0.2,0-0.3c0-0.1,0-0.2,0-0.3
			c0-0.9,0-1.6,0-2.1C99,73.5,98.9,73.2,98.9,73.2z"/>
	</g>
	<g>
		<path class="st7" d="M103.5,70.1c0-0.9-0.5-1.8-1.2-2.4c-0.7-0.6-1.5-0.9-2.2-1.1c-1.1-0.3-2.1-0.5-3.2-0.6c-1.1-0.1-2,0-3,0.2
			c-1,0-1.9,0.1-3,0.5c-1,0.3-2.1,0.7-3,1.2c-0.7,0.4-1.4,0.8-2,1.5c-0.5,0.7-0.8,1.7-0.7,2.6c0,0.1,0,0.1,0,0.2
			c0,0.9,0.2,1.9,0.9,2.5c1.3,1.2,2.8,0.7,4.3,0.4c1.4-0.3,2.8-0.8,4.3-1.2c1.5,0,2.9,0.2,4.4,0.2c1.4,0,3.1,0.2,4.1-1.3
			c0.5-0.7,0.6-1.7,0.3-2.6C103.5,70.2,103.5,70.2,103.5,70.1z"/>
	</g>
	<g>
		<path class="st8" d="M90.9,73.5c-0.4,0.1-0.8,0-1.1-0.2c-0.4-0.1-0.8-0.3-1.1-0.7c-0.6-0.6-0.9-1.5-0.9-2.5c0-0.1,0-0.1,0-0.2
			c-0.2-0.8,0.1-1.6,0.4-2.2c-0.1,0-0.2,0.1-0.2,0.1c-0.7,0.4-1.4,0.8-2,1.5c-0.5,0.7-0.8,1.7-0.7,2.6c0,0.1,0,0.1,0,0.2
			c0,0.9,0.2,1.9,0.9,2.5c1.3,1.2,2.8,0.7,4.3,0.4c1.4-0.3,2.8-0.8,4.3-1.2c1.5,0,2.9,0.2,4.4,0.2c1.4,0,2.9,0.1,3.9-1.2
			C99,72.6,94.9,72.7,90.9,73.5z"/>
	</g>
	<g>
		<path class="st2" d="M103.5,70.1c0-1-0.6-1.9-1.3-2.5c-0.8-0.6-1.7-0.8-2.6-1.1c-0.9-0.2-1.9-0.3-2.8-0.3c-0.9,0-1.9,0.1-2.8,0.3
			l0,0l0,0c-1,0.1-1.9,0.2-2.8,0.5c-0.9,0.3-1.8,0.7-2.6,1.1c-0.8,0.4-1.6,0.9-2.1,1.6L86.3,70l-0.1,0.1c-0.1,0.1-0.1,0.2-0.1,0.3
			c-0.1,0.2-0.2,0.4-0.2,0.6c0,0.2-0.1,0.4-0.1,0.6c0,0.2,0,0.4,0.1,0.6l0,0.1l0,0.1c0,0.4,0,0.8,0.2,1.2c0.1,0.2,0.1,0.4,0.2,0.5
			c0.1,0.1,0.1,0.1,0.2,0.2l0.1,0.1l0.1,0.1c0.1,0.1,0.2,0.1,0.2,0.2c0.1,0,0.2,0.1,0.2,0.1c0.2,0.1,0.3,0.1,0.5,0.2
			c0.4,0.1,0.8,0.1,1.3,0l1.4-0.2c0.5-0.1,0.9-0.2,1.4-0.3c0.9-0.2,1.9-0.5,2.8-0.7l0.1,0l0,0c1,0.1,1.9,0.2,2.9,0.3
			c0.5,0.1,1,0.1,1.4,0.1c0.5,0,1,0.1,1.4,0c0.5,0,1-0.1,1.4-0.2c0.4-0.2,0.9-0.4,1.1-0.8c0.6-0.7,0.7-1.8,0.5-2.7l0,0L103.5,70.1z
			 M103.5,70.1l0,0.2l0,0c0.2,0.9,0.2,2-0.4,2.8c-0.3,0.4-0.7,0.7-1.1,0.9c-0.5,0.2-0.9,0.3-1.4,0.3c-1,0.1-1.9,0.1-2.9,0.1
			c-1,0-1.9-0.1-2.9-0.1l0.1,0c-0.9,0.3-1.8,0.6-2.7,0.9c-0.5,0.2-0.9,0.3-1.4,0.4c-0.5,0.1-0.9,0.3-1.4,0.3
			c-0.5,0.1-1.1,0.2-1.6,0.1c-0.3,0-0.6-0.1-0.9-0.2c-0.1-0.1-0.3-0.1-0.4-0.2c-0.1-0.1-0.3-0.2-0.4-0.3l-0.1-0.1
			c-0.1-0.1-0.1-0.1-0.2-0.2c-0.1-0.1-0.2-0.2-0.3-0.4c-0.2-0.2-0.3-0.5-0.4-0.8c-0.2-0.5-0.3-1.1-0.3-1.7l0,0.2
			c-0.1-0.3-0.1-0.6-0.1-0.9c0-0.3,0-0.6,0.1-0.9c0.1-0.3,0.2-0.6,0.3-0.8c0.1-0.1,0.1-0.3,0.2-0.4l0.1-0.2l0.1-0.2
			c0.7-0.9,1.7-1.4,2.6-1.8c0.9-0.4,1.9-0.8,2.9-1c1-0.2,2-0.3,3-0.3l0,0c1-0.1,2-0.2,2.9-0.1c1,0.1,1.9,0.3,2.9,0.6
			c0.9,0.3,1.9,0.6,2.6,1.2C103,68.2,103.5,69.2,103.5,70.1z"/>
	</g>
	<g>
		<path class="st2" d="M85.3,72.1c-0.2-1,0.1-2,0.7-2.7c0.6-0.8,1.5-1.3,2.3-1.7c0.9-0.4,1.7-0.9,2.7-1.2c0.9-0.3,1.9-0.5,2.9-0.6
			l0,0c1-0.2,2-0.3,3-0.3c1,0,2,0.1,3,0.4c1,0.2,2,0.5,2.9,1.3l0.2,0.1l0.2,0.2c0.1,0.1,0.2,0.2,0.3,0.3c0.2,0.2,0.3,0.5,0.5,0.7
			c0.1,0.3,0.2,0.5,0.3,0.8c0.1,0.3,0.1,0.6,0.1,0.9l0-0.2c0.1,0.5,0.2,1.1,0.1,1.7c0,0.3-0.1,0.6-0.2,0.9c-0.1,0.1-0.1,0.3-0.2,0.4
			c0,0.1-0.1,0.1-0.1,0.2l-0.1,0.1c-0.1,0.1-0.2,0.2-0.3,0.3c-0.1,0.1-0.2,0.2-0.3,0.3c-0.2,0.2-0.5,0.3-0.8,0.4
			c-0.5,0.2-1.1,0.3-1.6,0.3c-0.5,0-1,0-1.5,0c-0.5,0-1-0.1-1.5-0.1c-1-0.1-1.9-0.2-2.9-0.3l0.1,0c-0.9,0.2-1.9,0.4-2.8,0.7
			c-1,0.2-1.9,0.4-2.9,0.5c-0.5,0.1-1,0.1-1.5,0c-0.5-0.1-0.9-0.3-1.3-0.6c-0.8-0.6-1.1-1.7-1-2.6l0,0L85.3,72.1z M85.3,72.1l0,0.2
			l0,0c0,1,0.3,2,1.1,2.6c0.4,0.3,0.8,0.5,1.3,0.6c0.5,0.1,0.9,0,1.4-0.1c0.5-0.1,0.9-0.2,1.4-0.3c0.5-0.1,0.9-0.3,1.4-0.4
			c0.9-0.3,1.8-0.6,2.8-0.9l0,0l0.1,0c1,0,2,0,2.9,0.1c0.5,0,0.9,0,1.4,0l1.4-0.1c0.4,0,0.9-0.1,1.2-0.3c0.2-0.1,0.3-0.2,0.5-0.3
			c0.1-0.1,0.1-0.1,0.2-0.2c0.1-0.1,0.1-0.1,0.2-0.2l0.1-0.1l0.1-0.1c0-0.1,0.1-0.2,0.1-0.2c0.1-0.2,0.1-0.4,0.1-0.5
			c0-0.4,0-0.8-0.1-1.2l0-0.1l0-0.1c0-0.2,0-0.4,0-0.6c0-0.2-0.1-0.4-0.2-0.5c-0.1-0.2-0.2-0.3-0.3-0.5c-0.1-0.1-0.1-0.2-0.2-0.2
			l-0.1-0.1l-0.1-0.1c-0.6-0.5-1.5-0.9-2.4-1.1c-0.9-0.3-1.8-0.5-2.8-0.6c-0.9-0.1-1.9-0.1-2.8,0.1l0,0l0,0c-0.9,0-1.9,0.1-2.8,0.3
			c-0.9,0.2-1.8,0.5-2.7,0.9c-0.9,0.4-1.7,0.9-2.4,1.6C85.4,70.1,85.1,71.1,85.3,72.1z"/>
	</g>
	<g>
		<path class="st9" d="M96.1,64.4c-0.1,0-0.1,0-0.2,0c-0.5,0.1-3,0.3-3.6,0.4c-0.1,0-0.2,0-0.2,0c-2.7,0.2-2.1,2.8-0.4,3.7
			c0.8,0.4,1.7,0.4,2.7,0.3c0.1,0,0.1,0,0.2,0c0.1,0,0.1,0,0.2,0c0.9-0.1,1.9-0.3,2.5-0.8C98.7,66.7,98.8,64.1,96.1,64.4z"/>
	</g>
	<g>
		<path class="st10" d="M97.1,66.2c-0.7,0.6-1.6,0.7-2.5,0.8c-0.1,0-0.1,0-0.2,0c-0.1,0-0.1,0-0.2,0c-0.9,0.1-1.9,0.1-2.7-0.3
			c-0.5-0.3-0.9-0.6-1.1-1.1c-0.5,0.9,0.2,2.2,1.3,2.8c0.8,0.4,1.7,0.4,2.7,0.3c0.1,0,0.1,0,0.2,0c0.1,0,0.1,0,0.2,0
			c0.9-0.1,1.9-0.3,2.5-0.8c1-0.8,1.3-2.2,0.7-3C97.8,65.4,97.5,65.9,97.1,66.2z"/>
	</g>
	<g>
		<path class="st2" d="M96.1,64.4c-1,0.1-2,0.3-3,0.5L92.3,65c-0.1,0-0.2,0-0.4,0.1c-0.1,0-0.3,0.1-0.4,0.1
			c-0.2,0.1-0.4,0.2-0.5,0.3c-0.2,0.1-0.2,0.3-0.3,0.5c-0.1,0.7,0.5,1.5,1.1,1.9L92,68c0.1,0,0.1,0.1,0.2,0.1c0.1,0,0.2,0.1,0.3,0.1
			c0.2,0,0.4,0.1,0.6,0.1c0.2,0,0.5,0,0.7,0c0.2,0,0.5,0,0.7,0l0,0l0,0c0.3,0,0.7,0,1-0.1c0.3,0,0.6-0.1,0.9-0.2
			c0.1,0,0.3-0.1,0.4-0.2c0.1-0.1,0.2-0.1,0.4-0.2c0.2-0.1,0.2-0.2,0.3-0.3c0.1-0.1,0.2-0.2,0.3-0.4c0.2-0.3,0.3-0.6,0.3-0.9
			c0-0.2,0-0.3,0-0.5c0-0.2-0.1-0.3-0.2-0.5c-0.1-0.1-0.2-0.3-0.3-0.4c-0.1-0.1-0.3-0.2-0.5-0.2C96.8,64.4,96.4,64.4,96.1,64.4z
			 M96.1,64.4c0.3,0,0.7-0.1,1,0c0.2,0,0.3,0.1,0.5,0.2c0.1,0.1,0.3,0.2,0.4,0.3c0.1,0.1,0.2,0.3,0.3,0.5c0.1,0.2,0.1,0.4,0.1,0.5
			c0,0.4-0.1,0.7-0.2,1.1c-0.1,0.2-0.1,0.3-0.2,0.5c-0.1,0.2-0.2,0.4-0.3,0.5c-0.1,0.1-0.3,0.3-0.4,0.4c-0.2,0.1-0.3,0.2-0.5,0.3
			c-0.3,0.2-0.7,0.3-1.1,0.4c-0.4,0.1-0.7,0.2-1.1,0.2l0,0c-0.3,0.1-0.5,0.1-0.8,0.1c-0.3,0-0.6,0-0.8,0c-0.3,0-0.6-0.1-0.9-0.1
			c-0.2,0-0.3-0.1-0.5-0.2l-0.2-0.1L91.2,69c-0.5-0.3-0.9-0.8-1.2-1.4c-0.1-0.3-0.2-0.6-0.2-0.9c0-0.3,0-0.7,0.2-1
			c0.2-0.3,0.4-0.6,0.7-0.7c0.3-0.2,0.6-0.2,0.8-0.3c0.3,0,0.5,0,0.8,0l0.8,0C94.1,64.6,95.1,64.5,96.1,64.4z"/>
	</g>
	<g>
		<path class="st2" d="M92.1,64.9c1-0.1,2-0.3,3-0.5l0.8-0.1c0.3,0,0.5-0.1,0.8-0.1c0.3,0,0.6,0,0.9,0.1c0.3,0.1,0.6,0.3,0.8,0.6
			c0.2,0.3,0.3,0.6,0.4,0.9c0.1,0.3,0,0.6,0,1c-0.1,0.6-0.4,1.2-0.9,1.6l-0.2,0.2l-0.2,0.1c-0.2,0.1-0.3,0.2-0.4,0.3
			c-0.3,0.2-0.6,0.3-0.8,0.3c-0.3,0.1-0.6,0.1-0.8,0.2c-0.3,0-0.5,0.1-0.8,0.1l0,0c-0.4,0-0.7,0-1.1,0c-0.4,0-0.7-0.1-1.1-0.2
			c-0.2-0.1-0.4-0.1-0.6-0.2c-0.2-0.1-0.4-0.2-0.5-0.3c-0.1-0.1-0.3-0.3-0.4-0.4c-0.1-0.1-0.2-0.3-0.3-0.5c-0.2-0.3-0.4-0.7-0.4-1
			c0-0.2,0-0.4,0-0.5c0-0.2,0.1-0.4,0.1-0.5c0.1-0.2,0.2-0.3,0.3-0.4c0.1-0.1,0.3-0.2,0.4-0.3C91.4,65,91.7,64.9,92.1,64.9z
			 M92.1,64.9c-0.3,0-0.7,0.1-1,0.3c-0.2,0.1-0.3,0.2-0.4,0.3c-0.1,0.1-0.2,0.3-0.3,0.4c-0.1,0.2-0.1,0.3-0.1,0.5
			c0,0.2,0,0.3,0.1,0.5c0.1,0.3,0.3,0.6,0.5,0.8c0.1,0.1,0.2,0.2,0.4,0.3c0.1,0.1,0.2,0.2,0.4,0.2c0.2,0.1,0.3,0.1,0.4,0.2
			c0.1,0,0.3,0.1,0.4,0.1c0.3,0,0.6,0,0.9,0c0.3,0,0.7-0.1,1-0.1l0,0l0,0c0.2,0,0.5-0.1,0.7-0.1c0.2,0,0.5-0.1,0.7-0.2
			c0.2-0.1,0.4-0.1,0.6-0.2c0.1,0,0.2-0.1,0.2-0.1c0,0,0.1-0.1,0.1-0.1l0.1-0.1c0.6-0.5,1-1.4,0.7-2.1c-0.1-0.1-0.2-0.3-0.4-0.4
			c-0.2-0.1-0.4-0.2-0.6-0.2c-0.1,0-0.2,0-0.4,0c-0.1,0-0.2,0-0.4,0l-0.8,0C94.1,64.7,93.1,64.8,92.1,64.9z"/>
	</g>
	<g>
		<rect x="94.8" y="73.9" transform="matrix(0.9944 -0.1055 0.1055 0.9944 -7.6089 10.4838)" class="st2" width="1" height="6.5"/>
	</g>
</g>
<g>
	<ellipse transform="matrix(0.9944 -0.1058 0.1058 0.9944 -5.892 6.5722)" class="st5" cx="59" cy="58.8" rx="23.3" ry="23.3"/>
</g>
<g>
	<path class="st11" d="M40.9,60.8C39.6,48.8,47.6,38,59.1,35.6c-0.8,0-1.7,0-2.5,0.1c-12.8,1.4-22,12.8-20.7,25.6
		c1.4,12.8,12.8,22,25.6,20.7c0.8-0.1,1.7-0.2,2.5-0.4C52.2,81.6,42.1,72.7,40.9,60.8z"/>
</g>
<g>
	<path class="st2" d="M35.1,61.4c-1.4-13.2,8.2-25,21.3-26.4c13.1-1.4,25,8.2,26.4,21.3c0.7,6.4-1.2,12.6-5.2,17.6
		s-9.8,8.1-16.1,8.8c-0.9,0.1-1.7,0.1-2.6,0.1C46.9,82.9,36.4,73.7,35.1,61.4z M56.6,36.4c-12.3,1.3-21.3,12.4-20,24.8
		c1.3,12.3,12.4,21.3,24.8,20c6-0.6,11.4-3.6,15.1-8.2c3.8-4.7,5.5-10.5,4.9-16.5c-1.2-11.5-11-20.1-22.4-20.1
		C58.2,36.3,57.4,36.4,56.6,36.4z"/>
</g>
<g>
	<ellipse transform="matrix(0.9944 -0.1058 0.1058 0.9944 -6.0234 5.8673)" class="st2" cx="52.3" cy="59.7" rx="4.5" ry="4.5"/>
</g>
<g>
	<ellipse transform="matrix(0.9944 -0.1058 0.1058 0.9944 -5.7771 5.9624)" class="st5" cx="53.3" cy="57.4" rx="1.3" ry="1"/>
</g>
<g>
	<ellipse transform="matrix(0.9944 -0.1058 0.1058 0.9944 -4.7487 12.938)" class="st5" cx="119.6" cy="51.2" rx="19.9" ry="19.9"/>
</g>
<g>
	<path class="st11" d="M104.1,53c-1.1-10,5.6-19,15.3-21.1c-0.7,0-1.4,0-2.1,0.1c-10.7,1.1-18.5,10.7-17.3,21.5
		c1.1,10.7,10.7,18.5,21.5,17.3c0.7-0.1,1.4-0.2,2.1-0.3C113.6,70.4,105.1,63,104.1,53z"/>
</g>
<g>
	<path class="st2" d="M99.1,53.4c-1.2-11.3,7-21.5,18.3-22.7c5.5-0.6,10.8,1,15.1,4.5c4.3,3.5,7,8.4,7.5,13.8
		c0.6,5.5-1,10.8-4.5,15.1c-3.5,4.3-8.4,7-13.8,7.5c-0.7,0.1-1.5,0.1-2.2,0.1C109.2,71.8,100.2,64,99.1,53.4z M117.6,32.2
		c-10.5,1.1-18.1,10.5-17,21c1.1,10.5,10.5,18.1,21,17c5.1-0.5,9.6-3,12.8-7c3.2-4,4.7-8.9,4.1-14v0c-0.5-5.1-3-9.6-7-12.8
		c-3.4-2.8-7.6-4.2-12-4.2C119,32.1,118.3,32.2,117.6,32.2z"/>
</g>
<g>
	<ellipse transform="matrix(0.9944 -0.1058 0.1058 0.9944 -4.8609 12.3365)" class="st2" cx="113.9" cy="52" rx="3.9" ry="3.9"/>
</g>
<g>
	<ellipse transform="matrix(0.9944 -0.1058 0.1058 0.9944 -4.6507 12.4177)" class="st5" cx="114.7" cy="50.1" rx="1.1" ry="0.8"/>
</g>
<g>
	<path class="st0" d="M42.4,111.9c4.5,7,11.5,13.7,19.9,15.7c2.7,0.7,5,0.5,7.1-1.4c1.7-1.6,3-4,1.8-6.2c-3.3-6.4-10-10.7-15.4-15.2
		"/>
</g>
<g>
	<path class="st1" d="M64.6,123.7c2.7,0.6,5,0.5,7-1.3c-0.2,1.4-1.1,2.8-2.2,3.8c-2.1,1.9-4.4,2.1-7.1,1.4c-1.2-0.3-2.4-0.7-3.5-1.1
		c-3.8-1.6-7.3-4-10.2-6.9c-1.5-1.4-2.8-3-4.1-4.7c-0.7-0.9-1.8-2-1.9-3.2c-0.1-1.7,1.7-1.9,3-1.5c0.9,0.3,1.2,0.8,1.7,1.4
		c0.6,0.8,1.3,1.6,2,2.4c1.4,1.5,2.9,2.9,4.5,4.2C56.9,120.8,60.6,122.8,64.6,123.7z"/>
</g>
<g>
	<path class="st2" d="M42.4,111.9c0,0,0.1,0.2,0.4,0.6c0.2,0.4,0.6,1,1,1.7c0.5,0.7,1.1,1.6,1.8,2.5c0.7,1,1.6,2,2.6,3.1
		c2,2.1,4.7,4.4,8,6.2c1.6,0.9,3.4,1.6,5.3,2.2c1.8,0.5,4.1,0.9,6.2,0c1-0.4,1.9-1.1,2.6-1.9c0.7-0.8,1.3-1.6,1.7-2.7
		c0.4-1,0.5-2.2,0.1-3.3c-0.1-0.3-0.2-0.5-0.3-0.8l-0.3-0.6c-0.2-0.4-0.5-0.8-0.7-1.2c-1.1-1.6-2.3-2.9-3.5-4.1
		c-1.2-1.2-2.4-2.2-3.6-3.1c-2.3-1.8-4.3-3.2-5.7-4.2c-1.4-1-2.2-1.6-2.2-1.6s0.7,0.7,2,1.8c1.3,1.1,3.2,2.7,5.3,4.6
		c1.1,1,2.2,2.1,3.3,3.3c1.1,1.2,2.2,2.6,3.1,4c0.2,0.4,0.5,0.7,0.7,1.2l0.3,0.6c0.1,0.1,0.2,0.3,0.2,0.5c0.2,0.7,0.2,1.5-0.1,2.3
		c-0.3,0.8-0.8,1.5-1.4,2.1c-0.6,0.7-1.3,1.2-2.1,1.5c-1.6,0.7-3.4,0.5-5.2,0c-1.8-0.5-3.5-1.1-5.1-1.9c-1.6-0.8-3.1-1.7-4.4-2.7
		c-1.3-1-2.5-2-3.6-2.9c-1-1-2-1.9-2.8-2.8c-0.8-0.9-1.5-1.7-2-2.3c-0.5-0.7-0.9-1.2-1.2-1.6C42.5,112.1,42.4,111.9,42.4,111.9z"/>
</g>
<g>
	<path class="st0" d="M96.3,166.3c1.7,0.2,3.2,1.1,4.2,2.4c1.1,1.4,1.2,3,1.6,4.8c0.5,2.2,1.3,4.3,2.2,6.4c1.2,2.8,4.8,3.8,7.6,3.8
		c0.6,0,1.2,0,1.8-0.2c1.6-0.5,2.8-1.9,3.5-3.4c1.2-2.8,0.9-5.6,0.7-8.5c-0.2-2.2-0.3-4.6-1-6.8c-0.8-2.5-2.5-4.8-4.8-6.1
		c-4.1-2.2-8.9-3-13.5-2.2"/>
</g>
<g>
	<path class="st1" d="M100.3,169.1c-0.9-0.3-2.1,0.1-2.9,0.5c-1.1,0.5-2.1,1.2-3.2,1.6c-0.4,0.2-0.9,0.3-1.3,0.1
		c-0.1-0.1-0.2-0.1-0.3-0.3c0-0.1,0-0.2,0-0.3c0.6-1.9,1.6-3.6,3.3-4.6c1-0.6,2.1-1,3.3-0.9c0,0,0.1,0,0.1,0
		c0.8,0.1,1.6,0.3,2.3,0.6c0.6,0.2,1.5,0.5,1.9,1.2c0.3,0.6,0.4,1.5,0.5,2.1c0.5,2.2,1.3,4.3,2.2,6.4c0.7,1.5,1.8,2.9,2.9,4.1
		c0.7,0.9,1.7,1.5,2.8,1.9c0.5,0.2,1.1,0.3,1.7,0.4c0.5,0.1,1.2-0.1,1.7,0.1c0,0.9-0.7,1.6-1.6,1.9c-1.8,0.6-4.5-0.3-6-1.3
		c-1.4-0.9-3-2-3.7-3.5c-0.9-1.8-1.5-3.8-1.9-5.7c-0.3-1.2-0.2-2.6-0.8-3.6C101,169.4,100.6,169.2,100.3,169.1z"/>
</g>
<g>
	<path class="st2" d="M94.6,167.8c0,0,0.3,0,0.8,0.1c0.5,0,1.3,0.2,2.2,0.4c0.5,0.1,1,0.2,1.5,0.4c0.5,0.2,1.1,0.4,1.5,0.8
		c0.3,0.4,0.5,1.1,0.6,1.8c0.1,0.7,0.2,1.5,0.4,2.4c0.4,1.7,1,3.4,1.8,5.1c0.8,1.8,2,3.7,4.1,4.8c0.2,0.1,0.5,0.3,0.8,0.4
		c0.3,0.1,0.6,0.2,0.8,0.3c0.6,0.2,1.1,0.3,1.7,0.3c1.2,0.1,2.5,0,3.6-0.6c0.6-0.3,1.1-0.7,1.6-1.2c0.2-0.2,0.4-0.5,0.6-0.7
		c0.1-0.1,0.2-0.2,0.3-0.4l0.2-0.4c0.6-1.1,1-2.2,1.3-3.3c0.3-1.1,0.4-2.3,0.5-3.4c0-0.6,0.1-1.1,0.1-1.7c0-0.6,0-1.2-0.1-1.7
		c-0.1-1.1-0.3-2.1-0.4-3.2c-0.2-1.1-0.4-2.2-0.7-3.2c-0.7-2.1-1.8-4-3.4-5.3c-0.8-0.7-1.6-1.2-2.5-1.6c-0.8-0.4-1.7-0.7-2.5-1
		c-3.2-1.1-6.1-1.1-8-0.9c-1,0.1-1.7,0.2-2.2,0.3c-0.5,0.1-0.8,0.2-0.8,0.2s0.3,0,0.8-0.1c0.5,0,1.3-0.1,2.2,0
		c1.9,0,4.6,0.4,7.6,1.6c0.8,0.3,1.5,0.6,2.2,1.1c0.7,0.4,1.4,0.9,2,1.5c1.2,1.2,2.2,2.9,2.7,4.7c0.3,0.9,0.4,1.9,0.6,2.9
		c0.1,1,0.2,2.1,0.3,3.2c0.1,1.1,0.1,2,0,3.1c-0.1,1.1-0.2,2.1-0.4,3.1c-0.2,1-0.6,2-1,2.8c-0.5,0.9-1,1.6-1.8,2
		c-1.5,0.8-3.7,0.6-5.3-0.2c-1.6-0.9-2.8-2.4-3.6-4c-0.8-1.6-1.5-3.3-2-4.8c-0.5-1.5-0.5-3.1-1.6-4.4c-0.6-0.5-1.3-0.7-1.8-0.9
		c-0.6-0.1-1.1-0.2-1.6-0.3c-1-0.1-1.7-0.1-2.2-0.1C94.9,167.8,94.6,167.8,94.6,167.8z"/>
</g>
<g>
	<path class="st0" d="M56.2,172c1.7,0.2,3.4,1.1,4.5,2.5c1.2,1.5,1.3,3.2,1.7,5c0.5,2.3,1.4,4.6,2.3,6.7c1.3,3,5,4,8,4
		c0.6,0,1.3-0.1,1.9-0.2c1.7-0.5,3-2,3.7-3.6c1.2-2.9,1-5.9,0.7-8.9c-0.2-2.3-0.3-4.9-1.1-7.1c-0.9-2.6-2.6-5.1-5.1-6.4
		c-4.3-2.3-9.4-3.1-14.3-2.3"/>
</g>
<g>
	<path class="st1" d="M60.7,176.3c-0.2,0-0.4,0.1-0.7,0.3c-0.3,0.2-0.5,0.5-0.8,0.7c-0.3,0.2-0.6,0.2-0.9,0.3
		c-1.1,0.1-2.3,0.3-3.4-0.1c-0.5-0.2-1-0.4-1.3-0.7c-2-1.7,0.9-4.1,2.4-5c1-0.7,2.3-1.1,3.5-1c0,0,0.1,0,0.1,0
		c0.8,0.1,1.7,0.3,2.5,0.6c0.7,0.3,1.6,0.6,2,1.2c0.3,0.6,0.4,1.6,0.6,2.3c0.5,2.3,1.4,4.6,2.3,6.7c0.7,1.6,1.9,3,3,4.4
		c0.8,0.9,1.8,1.6,2.9,2c0.6,0.2,1.2,0.4,1.8,0.4c0.5,0.1,1.3-0.1,1.8,0.1c0,0.9-0.8,1.7-1.7,2c-1.9,0.6-4.7-0.3-6.3-1.3
		c-1.4-0.9-3.2-2.1-3.9-3.7c-0.9-1.9-1.6-4-2.1-6C62.2,178.6,62,176.2,60.7,176.3z"/>
</g>
<g>
	<path class="st2" d="M54.5,173.6c0,0,0.3,0,0.8,0.1c0.5,0,1.3,0.2,2.3,0.4c0.5,0.1,1,0.3,1.6,0.4c0.6,0.2,1.2,0.4,1.5,0.9
		c0.4,0.4,0.5,1.2,0.7,1.9c0.1,0.7,0.2,1.6,0.4,2.5c0.4,1.8,1,3.6,1.9,5.4c0.8,1.9,2.2,3.9,4.3,5.1c0.2,0.1,0.6,0.3,0.8,0.4
		c0.3,0.1,0.6,0.2,0.9,0.3c0.6,0.2,1.2,0.3,1.8,0.4c1.2,0.1,2.6,0,3.8-0.6c0.6-0.3,1.2-0.7,1.6-1.2c0.2-0.3,0.4-0.5,0.6-0.8
		c0.1-0.1,0.2-0.2,0.3-0.4l0.2-0.4c0.6-1.1,1.1-2.3,1.4-3.5c0.3-1.2,0.4-2.4,0.5-3.6c0-0.6,0.1-1.1,0.1-1.8c0-0.6,0-1.2-0.1-1.8
		c-0.1-1.2-0.3-2.2-0.4-3.4c-0.2-1.1-0.4-2.3-0.8-3.4c-0.7-2.2-1.9-4.2-3.5-5.6c-0.8-0.7-1.7-1.3-2.6-1.7c-0.8-0.4-1.8-0.8-2.6-1
		c-3.4-1.1-6.4-1.1-8.4-1c-1,0.1-1.8,0.2-2.3,0.3c-0.5,0.1-0.8,0.2-0.8,0.2s0.3,0,0.8-0.1c0.5,0,1.3-0.1,2.3,0c2,0,4.9,0.4,8,1.7
		c0.8,0.3,1.6,0.7,2.4,1.1c0.8,0.4,1.5,0.9,2.2,1.6c1.3,1.3,2.3,3.1,2.9,5c0.3,1,0.5,2,0.6,3.1c0.1,1.1,0.2,2.2,0.4,3.3
		c0.1,1.1,0.1,2.1,0,3.3c-0.1,1.1-0.2,2.2-0.5,3.3c-0.2,1.1-0.6,2.1-1.1,3c-0.6,1-1.1,1.7-1.9,2.1c-1.7,0.8-3.9,0.6-5.6-0.2
		c-1.7-0.9-2.9-2.5-3.8-4.2c-0.9-1.7-1.6-3.4-2.1-5c-0.5-1.6-0.5-3.3-1.7-4.6c-0.6-0.6-1.3-0.8-1.9-0.9c-0.6-0.1-1.2-0.2-1.7-0.3
		c-1-0.1-1.8-0.1-2.4-0.1C54.8,173.5,54.5,173.6,54.5,173.6z"/>
</g>
<g>
	<path class="st0" d="M103.4,113.7c5.8,5.5,14,10,22.3,9.9c2.7,0,4.8-0.7,6.3-3c1.2-1.9,1.9-4.4,0.2-6.2c-4.6-5.2-11.9-7.7-18-10.5"
		/>
</g>
<g>
	<path class="st1" d="M127,119.5c2.7,0,4.8-0.7,6.2-2.9c0.1,1.4-0.4,2.8-1.2,4c-1.5,2.3-3.6,3-6.3,3c-0.3,0-0.7,0-1,0
		c-4.4-0.2-8.6-1.5-12.5-3.6c-1.9-1-3.8-2.2-5.5-3.6c-1.1-0.9-4.3-2.6-3.1-4.3c0-0.1,0.1-0.1,0.1-0.2c0.5-0.6,1.6-1.1,2.4-0.9
		c0.8,0.2,1.7,1.2,2.4,1.7c1.8,1.3,3.7,2.5,5.7,3.5C118.2,118.3,122.6,119.5,127,119.5z"/>
</g>
<g>
	<path class="st2" d="M103.4,113.7c0,0,0.2,0.2,0.5,0.5c0.3,0.3,0.8,0.8,1.4,1.3c0.6,0.6,1.4,1.2,2.3,1.9c0.9,0.7,2,1.5,3.2,2.2
		c2.4,1.5,5.4,3,8.9,3.9c1.7,0.4,3.6,0.7,5.5,0.8c1.9,0.1,4-0.1,5.8-1.4c0.9-0.6,1.5-1.5,2-2.4c0.5-0.9,0.9-1.9,1-2.9
		c0.1-1-0.1-2.2-0.7-3.1c-0.1-0.2-0.3-0.4-0.5-0.7l-0.5-0.5c-0.3-0.3-0.6-0.6-1-0.9c-1.4-1.2-2.8-2.2-4.2-3
		c-1.4-0.8-2.8-1.5-4.1-2.1c-2.6-1.2-4.8-1.9-6.3-2.6c-1.5-0.6-2.4-0.9-2.4-0.9s0.8,0.5,2.3,1.2c1.5,0.7,3.6,1.8,6.1,3.1
		c1.2,0.7,2.5,1.4,3.9,2.3c1.3,0.9,2.7,1.9,3.9,3c0.3,0.3,0.6,0.6,0.9,0.9l0.5,0.5c0.1,0.1,0.2,0.3,0.3,0.4c0.4,0.6,0.5,1.4,0.4,2.2
		c-0.1,0.8-0.4,1.6-0.8,2.3c-0.4,0.8-1,1.4-1.6,1.9c-1.3,1-3.1,1.2-4.9,1.2c-1.8,0-3.6-0.2-5.2-0.6c-1.7-0.4-3.3-0.9-4.7-1.5
		c-1.5-0.6-2.8-1.2-4.1-1.9c-1.2-0.7-2.3-1.3-3.3-2c-1-0.6-1.8-1.2-2.4-1.7c-0.6-0.5-1.2-0.9-1.5-1.2
		C103.6,113.8,103.4,113.7,103.4,113.7z"/>
</g>
</svg>
