<?xml version="1.0" encoding="utf-8"?>
<!-- Generator: Adobe Illustrator 21.1.0, SVG Export Plug-In . SVG Version: 6.00 Build 0)  -->
<svg version="1.1" id="Layer_1" xmlns="http://www.w3.org/2000/svg" xmlns:xlink="http://www.w3.org/1999/xlink" x="0px" y="0px"
	 viewBox="0 0 167.3 196.5" style="enable-background:new 0 0 167.3 196.5;" xml:space="preserve">
<style type="text/css">
	.st0{fill:#747EBC;}
	.st1{fill:#556199;}
	.st2{fill:#0B0B0B;}
	.st3{fill:#FFFFFF;}
	.st4{fill:#CAD7D8;}
	.st5{clip-path:url(#SVGID_2_);}
	.st6{fill:none;}
	.st7{fill:#EB2027;}
	.st8{opacity:0.2;}
	.st9{opacity:0.2;fill:#FFFFFF;}
	.st10{fill:#C2C2C1;}
	.st11{clip-path:url(#SVGID_4_);}
	.st12{fill-rule:evenodd;clip-rule:evenodd;fill:#F8C763;}
	.st13{fill-rule:evenodd;clip-rule:evenodd;fill:#DA9528;}
	.st14{fill-rule:evenodd;clip-rule:evenodd;fill:#FFE5C1;}
	.st15{fill:#CEC2AA;}
	.st16{fill:#98887A;}
	.st17{fill-rule:evenodd;clip-rule:evenodd;fill:#AD8761;}
	.st18{fill-rule:evenodd;clip-rule:evenodd;fill:#1E8343;}
	.st19{clip-path:url(#SVGID_6_);}
	.st20{fill-rule:evenodd;clip-rule:evenodd;fill:#329557;}
	.st21{fill-rule:evenodd;clip-rule:evenodd;fill:#22783E;}
	.st22{fill-rule:evenodd;clip-rule:evenodd;fill:#AB8051;}
	.st23{fill-rule:evenodd;clip-rule:evenodd;fill:#BE9467;}
	.st24{fill-rule:evenodd;clip-rule:evenodd;fill:#C09E7E;}
	.st25{fill:#D6DDDC;}
	.st26{fill:#D8B59B;}
	.st27{fill:#A78F76;}
	.st28{fill:#474840;}
	.st29{fill:#30302B;}
	.st30{opacity:0.66;}
</style>
<g>
	<path class="st0" d="M52.5,168.9c0.1,8.3-2.1,17.7-8,24c-1.9,2-3.9,3.2-6.7,2.7c-2.3-0.4-4.7-1.7-4.9-4.2
		c-0.8-7.1,2.5-14.5,4.5-21.1"/>
</g>
<g>
	<path class="st1" d="M40.5,191c-1.9,2-3.9,3.2-6.6,2.7c1,1.1,2.5,1.7,3.9,1.9c2.8,0.5,4.8-0.7,6.7-2.7c3.1-3.3,5.1-7.4,6.4-11.7
		c0.5-1.7,3.4-11.3-0.4-11c-2.1,0.1-2.3,2.6-2.6,4.1c-0.3,2-0.8,4-1.4,6C45.3,184.2,43.3,187.9,40.5,191z"/>
</g>
<g>
	<path class="st2" d="M52.5,168.9c0,0,0,0.2,0,0.7c0,0.5,0.1,1.1,0.1,2c0,0.9,0,1.9-0.1,3.1c-0.1,1.2-0.2,2.5-0.5,4
		c-0.5,2.9-1.5,6.3-3.3,9.6c-0.9,1.6-2,3.3-3.3,4.7c-1.3,1.5-2.9,3-5.1,3.4c-1.1,0.2-2.2,0.1-3.2-0.1c-1-0.2-2-0.6-2.9-1.3
		c-0.9-0.6-1.6-1.6-1.9-2.7c-0.1-0.3-0.1-0.5-0.2-0.8l0-0.7c0-0.5,0-0.9,0-1.4c0-1.9,0.3-3.7,0.6-5.3c0.3-1.7,0.8-3.2,1.3-4.6
		c0.9-2.8,1.9-5,2.5-6.6c0.6-1.6,1-2.5,1-2.5s-0.2,1-0.7,2.6c-0.5,1.6-1.2,4-1.9,6.8c-0.4,1.4-0.7,2.9-1,4.6
		c-0.3,1.6-0.4,3.4-0.4,5.1c0,0.4,0,0.9,0.1,1.3l0.1,0.7c0,0.1,0.1,0.4,0.1,0.5c0.2,0.7,0.7,1.4,1.4,1.9c0.7,0.5,1.5,0.8,2.4,1
		c0.9,0.2,1.8,0.3,2.6,0.1c1.7-0.3,3.1-1.5,4.3-2.9c1.2-1.4,2.3-2.9,3.2-4.4c0.9-1.6,1.6-3.1,2.2-4.7c0.6-1.5,1-3,1.4-4.4
		c0.3-1.4,0.6-2.7,0.8-3.9c0.2-1.2,0.3-2.2,0.4-3c0.1-0.8,0.1-1.5,0.1-2C52.5,169.1,52.5,168.9,52.5,168.9z"/>
</g>
<g>
	<path class="st0" d="M80.2,168.9c-0.1,8.3,2.1,17.7,8,24c1.9,2,3.9,3.2,6.7,2.7c2.3-0.4,4.7-1.7,4.9-4.2c0.8-7.1-2.5-14.5-4.5-21.1
		"/>
</g>
<g>
	<path class="st1" d="M92.3,191c1.9,2,3.9,3.2,6.6,2.7c-1,1.1-2.5,1.7-3.9,1.9c-2.8,0.5-4.8-0.7-6.7-2.7c-3.1-3.3-5.1-7.4-6.4-11.7
		c-0.5-1.7-3.4-11.3,0.4-11c2.1,0.1,2.3,2.6,2.6,4.1c0.3,2,0.8,4,1.4,6C87.5,184.2,89.4,187.9,92.3,191z"/>
</g>
<g>
	<path class="st2" d="M80.2,168.9c0,0,0,0.2,0,0.7c0,0.5-0.1,1.1-0.1,2c0,0.9,0,1.9,0.1,3.1c0.1,1.2,0.2,2.5,0.5,4
		c0.5,2.9,1.5,6.3,3.3,9.6c0.9,1.6,2,3.3,3.3,4.7c1.3,1.5,2.9,3,5.1,3.4c1.1,0.2,2.2,0.1,3.2-0.1c1-0.2,2-0.6,2.9-1.3
		c0.9-0.6,1.6-1.6,1.9-2.7c0.1-0.3,0.1-0.5,0.2-0.8l0-0.7c0-0.5,0-0.9,0-1.4c0-1.9-0.3-3.7-0.6-5.3c-0.3-1.7-0.8-3.2-1.3-4.6
		c-0.9-2.8-1.9-5-2.5-6.6c-0.6-1.6-1-2.5-1-2.5s0.2,1,0.7,2.6c0.5,1.6,1.2,4,1.9,6.8c0.4,1.4,0.7,2.9,1,4.6c0.3,1.6,0.4,3.4,0.4,5.1
		c0,0.4,0,0.9-0.1,1.3l-0.1,0.7c0,0.1-0.1,0.4-0.1,0.5c-0.2,0.7-0.7,1.4-1.4,1.9c-0.7,0.5-1.5,0.8-2.4,1c-0.9,0.2-1.8,0.3-2.6,0.1
		c-1.7-0.3-3.1-1.5-4.3-2.9c-1.2-1.4-2.3-2.9-3.2-4.4c-0.9-1.6-1.6-3.1-2.2-4.7c-0.6-1.5-1-3-1.4-4.4c-0.3-1.4-0.6-2.7-0.8-3.9
		c-0.2-1.2-0.3-2.2-0.4-3c-0.1-0.8-0.1-1.5-0.1-2C80.2,169.1,80.2,168.9,80.2,168.9z"/>
</g>
<g>
	<path class="st0" d="M39.5,16c0.4,3.2,2.7,6.2,5.1,8.3c2.3,2,6.5-0.2,8.2-2.1c1.4-1.6,0.3-3.5,0.1-5.3c-0.2-2.3,0.1-4.9-1.7-6.7
		c-2-1.8-5.8-1.2-8.1-0.3C40.5,11,39.1,13.2,39.5,16z"/>
</g>
<g>
	<path class="st1" d="M50.1,12.2c0.1-0.1,0.1-0.3,0-0.4c-0.1-0.1-0.2-0.2-0.3-0.2c-0.5-0.1-1-0.2-1.5-0.2c-1.7,0-3.4,0.4-4.7,1.4
		c-0.4,0.3-0.7,0.6-0.7,1.1c0,0.1,0,0.2,0.1,0.3c0.1,0.1,0.2,0.1,0.3,0.2c1.4,0.5,2.4,1.4,3.3,2.5c0.4,0.5,0.8,1.1,1,1.8
		c0.1,0.3,0.2,0.6,0.2,1c0,0.1,0,0.9,0,1c0.3,0.2,0.6,0.4,0.9,0.5c0.3-1.3-0.4-4-0.3-4.9c0.1-1,0.3-1.9,0.8-2.7
		c0.2-0.3,0.3-0.7,0.5-1C49.8,12.5,50,12.4,50.1,12.2z"/>
</g>
<g>
	<path class="st2" d="M46.8,25.5c-0.9,0-1.8-0.3-2.6-0.9c-1.8-1.5-4.8-4.7-5.3-8.6l0,0c-0.4-2.9,1.1-5.4,3.8-6.6
		c2.1-0.9,6.3-1.8,8.6,0.3c1.7,1.5,1.8,3.6,1.8,5.7c0,0.4,0,0.9,0.1,1.3c0,0.5,0.2,1,0.3,1.5c0.3,1.3,0.7,2.8-0.5,4.2
		C51.9,23.9,49.2,25.5,46.8,25.5z M40,15.9c0.5,3.6,3.3,6.5,4.9,8c2.1,1.8,6-0.4,7.5-2.1c0.9-1,0.6-2,0.3-3.3
		c-0.1-0.5-0.3-1.1-0.3-1.6c0-0.4-0.1-0.9-0.1-1.4c-0.1-1.9-0.1-3.7-1.5-5c-1.7-1.6-5.1-1.2-7.6-0.2C40.9,11.4,39.7,13.4,40,15.9
		L40,15.9z"/>
</g>
<g>
	<path class="st2" d="M42.7,14.2c0,0,0.2,0,0.5,0c0.3,0,0.7,0.1,1.2,0.3c0.5,0.2,1.1,0.5,1.6,0.9c0.5,0.4,1,1,1.4,1.6
		c0.4,0.6,0.7,1.3,0.9,1.9c0.2,0.6,0.3,1.3,0.3,1.8c0,0.5-0.1,1-0.2,1.3c-0.1,0.3-0.1,0.5-0.1,0.5s0-0.2-0.1-0.5
		c0-0.3-0.1-0.7-0.2-1.2c-0.2-1-0.7-2.2-1.4-3.2c-0.4-0.6-0.8-1-1.2-1.5c-0.4-0.4-0.9-0.8-1.3-1.1C43.3,14.5,42.7,14.2,42.7,14.2z"
		/>
</g>
<g>
	<path class="st2" d="M50.3,12c0,0-0.4,0.5-0.8,1.4c-0.2,0.4-0.4,0.9-0.5,1.5c-0.1,0.3-0.1,0.6-0.2,0.9c0,0.3-0.1,0.6-0.1,0.9
		c-0.1,1.2,0,2.5,0.3,3.4c0.1,0.5,0.2,0.8,0.3,1.1c0.1,0.3,0.1,0.4,0.1,0.4s-0.1-0.1-0.3-0.3c-0.2-0.2-0.4-0.6-0.7-1
		c-0.2-0.4-0.5-1-0.6-1.6c-0.1-0.6-0.2-1.3-0.1-2c0-0.4,0.1-0.7,0.1-1c0.1-0.3,0.2-0.7,0.3-1c0.2-0.6,0.6-1.1,0.9-1.5
		c0.3-0.4,0.7-0.7,0.9-0.8C50.2,12.1,50.3,12,50.3,12z"/>
</g>
<g>
	<path class="st0" d="M92.1,4.9c-0.5,3,0.7,6.1,2.2,8.6c1.5,2.4,5.7,1.6,7.7,0.4c1.7-1,1.2-3,1.5-4.6c0.5-2.1,1.5-4.3,0.3-6.3
		c-1.3-2.2-4.7-2.7-7-2.4C94.4,0.8,92.6,2.4,92.1,4.9z"/>
</g>
<g>
	<path class="st1" d="M102.4,4.5c0.1-0.1,0.2-0.2,0.1-0.3c0-0.1-0.1-0.2-0.2-0.2c-0.4-0.3-0.8-0.4-1.3-0.6c-1.5-0.4-3.1-0.6-4.5,0
		c-0.4,0.1-0.8,0.4-0.9,0.7c0,0.1-0.1,0.2,0,0.3c0,0.1,0.1,0.2,0.2,0.2c1.1,0.8,1.7,1.9,2.2,3.1c0.2,0.6,0.4,1.2,0.4,1.9
		c0,0.3,0,0.6-0.1,0.9c0,0.1-0.3,0.8-0.2,0.9c0.2,0.3,0.4,0.5,0.7,0.7c0.6-1.1,0.8-3.6,1.1-4.4c0.3-0.8,0.8-1.5,1.4-2.2
		c0.2-0.2,0.5-0.5,0.7-0.7C102.1,4.7,102.3,4.6,102.4,4.5z"/>
</g>
<g>
	<path class="st2" d="M97.7,15.5c-1.5,0-3-0.5-3.8-1.8c-1.1-1.8-2.9-5.4-2.3-9l0,0C92.1,2.1,94,0.3,96.8,0c2.1-0.2,6,0.1,7.5,2.7
		c1.1,1.8,0.5,3.8,0.1,5.5c-0.1,0.4-0.2,0.8-0.3,1.2c-0.1,0.4-0.1,0.9-0.2,1.4c-0.1,1.3-0.2,2.7-1.6,3.5
		C101.2,15,99.4,15.5,97.7,15.5z M92.6,5c-0.6,3.2,1.1,6.6,2.1,8.3c1.3,2.1,5.3,1.3,7.1,0.2c1-0.6,1.1-1.6,1.1-2.8
		c0-0.5,0.1-1,0.2-1.5c0.1-0.4,0.2-0.8,0.3-1.2c0.5-1.7,0.9-3.3,0-4.7c-1.1-1.8-4.1-2.4-6.5-2.2C94.6,1.3,93,2.7,92.6,5L92.6,5z"/>
</g>
<g>
	<path class="st2" d="M95.4,4.2c0,0,0.2,0,0.4,0.2c0.3,0.1,0.6,0.3,1,0.6c0.4,0.3,0.8,0.7,1.2,1.2c0.4,0.5,0.7,1.1,0.8,1.8
		c0.2,0.6,0.3,1.3,0.3,1.9c0,0.6-0.1,1.2-0.3,1.7c-0.2,0.5-0.4,0.8-0.5,1.1C98.1,12.9,98,13,98,13s0-0.2,0.1-0.4
		c0-0.3,0.1-0.7,0.1-1.1c0.1-0.9,0-2.1-0.4-3.2c-0.2-0.6-0.4-1.1-0.6-1.6c-0.3-0.5-0.5-0.9-0.8-1.3C95.8,4.6,95.4,4.2,95.4,4.2z"/>
</g>
<g>
	<path class="st2" d="M102.6,4.4c0,0-0.5,0.4-1.1,1c-0.3,0.3-0.6,0.7-0.9,1.2c-0.1,0.2-0.3,0.5-0.4,0.7c-0.1,0.2-0.2,0.5-0.3,0.8
		c-0.4,1-0.6,2.1-0.7,3c0,0.4,0,0.8,0,1.1c0,0.3,0,0.4,0,0.4s-0.1-0.1-0.2-0.4c-0.1-0.2-0.2-0.6-0.3-1.1c-0.1-0.5-0.1-1-0.1-1.6
		c0-0.6,0.2-1.2,0.4-1.8c0.1-0.3,0.2-0.6,0.4-0.9c0.1-0.3,0.3-0.5,0.5-0.8c0.4-0.5,0.8-0.8,1.2-1.1c0.4-0.3,0.8-0.4,1-0.5
		C102.5,4.4,102.6,4.4,102.6,4.4z"/>
</g>
<g>
	<path class="st0" d="M13.8,157.2c-2.6-4.5-4.1-9.7-5.3-14.8c-3-12.7,1.3-26.1,3.1-38.6c0.6-4.3,0.9-8.7,1.4-13
		c0.8-6.6,2.1-13.1,4-19.4c3.4-11.2,8.3-23.2,15.1-32.8c2.7-3.9,5.9-7.7,9.1-11.2c3.1-3.4,6.5-6.7,10.2-9.5
		c6.5-4.9,15.4-8.5,23.5-9.6c13.5-1.9,28.6-0.9,41.3,4.5c16.6,7.1,24.4,25.5,23.5,42.7c-0.6,10.7-1.4,20.2-6.3,30.1
		c-4.5,9.3-11.6,18-11.5,28.4c0.2,9.9,0.5,20.2-2.3,29.8c-2.6,9.1-5.9,15.9-12.7,22.6c-8.9,8.8-19.7,13.1-32.1,14.1
		c-5.5,0.4-10.9,0.4-16.3-0.2c-7.1-0.9-13.9-0.8-20.9-3C27.2,173.9,19.3,166.6,13.8,157.2z"/>
</g>
<g>
	<path class="st1" d="M113,158.4c-8.9,8.8-19.7,13.1-32.1,14.1c-5.5,0.4-10.9,0.4-16.3-0.2c-7.1-0.9-13.9-0.8-20.9-3
		c-10.5-3.4-18.4-10.7-23.9-20.1c-2.6-4.5-4.1-9.7-5.3-14.8c-3-12.7,1.3-26.1,3.1-38.6c0.6-4.3,0.9-8.7,1.4-13
		c0.8-6.6,2.1-13.1,4-19.4c3.2-10.6,7.7-21.8,14-31.1c-1.7,2.1-3.3,4.2-4.8,6.3c-6.9,9.6-11.7,21.6-15.1,32.8
		c-1.9,6.3-3.2,12.9-4,19.4c-0.5,4.3-0.8,8.7-1.4,13c-1.9,12.5-6.1,25.9-3.1,38.6c1.2,5.1,2.7,10.2,5.3,14.8
		c5.5,9.4,13.4,16.8,23.9,20.1c6.9,2.2,13.8,2.1,20.9,3c5.4,0.7,10.8,0.7,16.3,0.2c12.5-1,23.2-5.3,32.1-14.1c3.1-3,5.4-6.1,7.3-9.3
		C113.9,157.5,113.5,157.9,113,158.4z"/>
</g>
<g>
	<path class="st3" d="M123.3,105.4c-1.2,3.8-13.8,1.8-16.4,1.5c-4.3-0.4-9.1-1.9-13,0.4c-1.3,0.8-10.5,4.7-10.4,6.1
		c-0.2-2.3-1.4-4.5-2.9-6.2s-3.5-3.1-5.5-4.3c-5.3-3.4-12-4.5-17.6-7.3c-14.6-7.3-28.8-13.6-38.2-27.8c-0.1-0.2-0.3-0.4-0.5-0.5
		c-0.7-0.4-1.3,0.6-1.5,1.4c-1.8,7.2-3.3,14.6-4.2,22c-0.5,4.3-0.8,8.7-1.4,13c-1.9,12.5-6.1,25.9-3.1,38.6
		c1.2,5.1,2.7,10.2,5.3,14.8c5.5,9.4,13.4,16.8,23.9,20.1c6.9,2.2,13.8,2.1,20.9,3c5.4,0.7,10.8,0.7,16.3,0.2
		c12.5-1,23.2-5.3,32.1-14.1c6.8-6.7,10.1-13.5,12.7-22.6c2.8-9.7,2.4-19.9,2.3-29.8C121.9,111,122.4,108.2,123.3,105.4z"/>
</g>
<g>
	<g>
		<g>
			<path class="st4" d="M122.7,107.6c0.2-0.7,0.4-1.5,0.6-2.2c-0.5,1.4-2.6,2-5.2,2.2C119.7,107.8,121.3,107.8,122.7,107.6z"/>
		</g>
	</g>
	<g>
		<g>
			<path class="st4" d="M87.5,113.5c-0.1-1.5,9.1-5.4,10.4-6.1c1-0.6,2.2-0.9,3.3-1.1c-2.5-0.3-5.1-0.2-7.3,1.1
				c-0.8,0.5-4.3,2-7.1,3.5C87.2,111.7,87.4,112.6,87.5,113.5z"/>
		</g>
	</g>
	<g>
		<g>
			<path class="st4" d="M62.5,180.3c-7.1-0.9-13.9-0.8-20.9-3c-10.5-3.4-18.4-10.7-23.9-20.1c-2.6-4.5-4.1-9.7-5.3-14.8
				c-3-12.7,1.3-26.1,3.1-38.6c0.6-4.3,0.9-8.7,1.4-13c0.8-6.9,2.2-13.8,3.9-20.5c-0.6-0.8-1.1-1.6-1.7-2.4
				c-0.1-0.2-0.3-0.4-0.5-0.5c-0.7-0.4-1.3,0.6-1.5,1.4c-1.8,7.2-3.3,14.6-4.2,22c-0.5,4.3-0.8,8.7-1.4,13
				c-1.9,12.5-6.1,25.9-3.1,38.6c1.2,5.1,2.7,10.2,5.3,14.8c5.5,9.4,13.4,16.8,23.9,20.1c6.9,2.2,13.8,2.1,20.9,3
				c3.7,0.5,7.4,0.6,11.1,0.5C67.2,180.7,64.9,180.6,62.5,180.3z"/>
		</g>
	</g>
</g>
<g>
	<path class="st4" d="M35,139.1c6.5,0.3,13,0.5,19.5,0.8c2.3,0.1,5.3-0.3,5.7-2.6c0.2-0.9-0.1-1.8-0.4-2.6c-0.2-0.7-3.9-8.8-4.2-8.7
		c-3.8,1.5-7.3,3.6-11.1,5.1c-1.1,0.5-2.5,0.7-3.6,1.3c-0.6,0.3-3.1,3-3.4,1.5c-0.4-2.2-1.2-4.1-1.7-6.2c-1-4.7-3.1-10.1-3.3-14.9
		c-2.1,2-3.1,4.8-3.4,7.7C28.7,124.8,28.4,138.8,35,139.1z"/>
</g>
<g>
	<path class="st2" d="M67.6,181.6c-3.2,0-6.2-0.2-9.1-0.6c-2.1-0.3-4.2-0.4-6.3-0.6c-4.8-0.4-9.8-0.8-14.7-2.4
		c-9.9-3.2-18.3-10.3-24.3-20.5c-2.7-4.7-4.2-10-5.4-15c-2.3-9.8-0.4-20,1.5-29.8c0.6-3,1.2-6.1,1.6-9.1c0.4-2.6,0.6-5.3,0.9-7.8
		c0.2-1.7,0.3-3.4,0.5-5.1c0.8-6.4,2.1-13.2,4.3-22.1c0.2-0.7,0.6-1.6,1.3-1.9c0.4-0.2,0.8-0.2,1.2,0c0.4,0.2,0.6,0.5,0.8,0.8
		C28.6,80.6,41.4,86.9,55,93.6l2.8,1.4c2.4,1.2,5,2.1,7.5,2.9c3.5,1.2,7.1,2.4,10.2,4.4c1.8,1.2,3.9,2.6,5.6,4.4
		c1,1.1,2.3,2.8,2.8,5c1.3-1,3.6-2.2,7.7-4.1c0.9-0.4,1.6-0.8,1.9-0.9c3.3-1.9,6.9-1.3,10.5-0.8c1,0.1,2,0.3,2.9,0.4
		c0.3,0,0.8,0.1,1.5,0.2c3.3,0.4,13.3,1.6,14.2-1.2c0,0,0,0,0,0l1.4,0.5c0,0,0,0,0,0c-1,2.9-1.4,5.6-1.4,8.2l0,1.8
		c0.2,9.4,0.3,19.1-2.3,28.3c-2.4,8.5-5.6,15.7-12.9,22.9c-8.7,8.6-19.4,13.3-32.6,14.4C72.4,181.5,69.9,181.6,67.6,181.6z M18.5,68
		c0,0-0.3,0.4-0.4,0.9c-2.2,8.8-3.5,15.5-4.2,21.9c-0.2,1.7-0.4,3.4-0.5,5.1c-0.3,2.6-0.5,5.3-0.9,7.9c-0.4,3-1,6.1-1.6,9.1
		c-1.9,9.7-3.8,19.7-1.5,29.2c1.2,4.9,2.6,10.1,5.2,14.6c5.8,9.9,13.9,16.7,23.5,19.8c4.8,1.5,9.4,1.9,14.4,2.3
		c2.1,0.2,4.2,0.3,6.4,0.6c5,0.6,10.3,0.7,16.2,0.2c12.9-1,23.3-5.6,31.7-13.9c7.1-7,10.1-14,12.5-22.3c2.6-9,2.4-18.6,2.3-27.8
		l0-1.8c0-2,0.2-4.1,0.7-6.2c-2.9,1.2-8.2,0.8-13.7,0.2c-0.6-0.1-1.1-0.1-1.4-0.2c-1-0.1-2-0.2-3-0.4c-3.3-0.5-6.7-1-9.5,0.6
		c-0.3,0.2-1,0.5-2,1c-1.9,0.9-7.6,3.6-8.1,4.6c0,0,0,0,0-0.1l-1.5,0.1v0c-0.2-2.5-1.6-4.5-2.7-5.8c-1.6-1.7-3.6-3.1-5.3-4.2
		c-3-1.9-6.5-3.1-9.9-4.3c-2.6-0.9-5.2-1.8-7.7-3l-2.8-1.4c-13.8-6.8-26.8-13.2-35.7-26.7C18.6,68.2,18.5,68,18.5,68z"/>
</g>
<g>
	<path class="st4" d="M73,118.2c5.3,2.6,11.1,4.5,16.1,7.9c3.3,2.3,6.5,5.2,7.7,9c1.2,3.8-0.1,8.7-3.8,10.3c-2.1,1-4.6,0.7-6.9,0.4
		c-2.3-0.3-4.6-0.8-6.4-2.2c-1.4-1.1-2.2-2.7-3.3-4.1c-1.7-2.3-4.1-4.2-6.3-6c-8.3-6.6-15.7-13.5-24.4-19.5
		c-10.3-7.2-21.4-13.7-33.2-18c0.2-0.5,0.4-1,0.5-1.6c0.1-0.3,0.2-0.6,0.4-0.8c0.2-0.1,0.4-0.2,0.6-0.3c5.7-2.5,9.7-2.3,15.6-0.2
		c4.5,1.5,8.7,3.7,13,5.7c8.3,3.8,16.2,8.7,23.1,14.8C68,115.4,70.4,116.9,73,118.2z"/>
</g>
<g>
	<path class="st2" d="M67.6,181.6c-3.2,0-6.2-0.2-9.1-0.6c-2.1-0.3-4.2-0.4-6.3-0.6c-4.8-0.4-9.8-0.8-14.7-2.4
		c-9.9-3.2-18.3-10.3-24.3-20.5l0,0c-2.7-4.7-4.2-10-5.4-15c-2.3-9.8-0.4-20,1.5-29.8c0.6-3,1.2-6.1,1.6-9.1
		c0.4-2.6,0.6-5.3,0.9-7.8c0.2-1.7,0.3-3.4,0.5-5.1c0.8-7.1,2.2-13.5,4-19.6c4.2-13.6,9.3-24.7,15.2-33.1c2.5-3.5,5.6-7.3,9.2-11.3
		c3.5-3.8,6.8-6.9,10.3-9.6c6.4-4.9,15.5-8.6,23.8-9.7c15-2.1,29.8-0.5,41.7,4.6c17.7,7.6,24.8,27.3,23.9,43.5
		c-0.6,10.7-1.4,20.4-6.4,30.4c-1.2,2.4-2.5,4.8-3.8,7.1c-3.8,6.6-7.6,13.5-7.5,20.9l0,1.8c0.2,9.4,0.3,19.1-2.3,28.3
		c-2.4,8.5-5.6,15.7-12.9,22.9c-8.7,8.6-19.4,13.3-32.6,14.4C72.4,181.5,69.9,181.6,67.6,181.6z M14.5,156.8
		c5.8,9.9,13.9,16.7,23.5,19.8c4.8,1.5,9.4,1.9,14.4,2.3c2.1,0.2,4.2,0.3,6.4,0.6c5,0.6,10.3,0.7,16.2,0.2
		c12.9-1,23.3-5.6,31.7-13.9c7.1-7,10.1-14,12.5-22.3c2.6-9,2.4-18.6,2.3-27.8l0-1.8c-0.1-7.9,3.9-14.9,7.7-21.7
		c1.3-2.3,2.7-4.7,3.8-7c4.8-9.8,5.6-19.3,6.2-29.8c0.8-15.7-6-34.7-23-42C104.3,8.5,89.8,6.9,75,8.9c-8,1.1-16.9,4.7-23.1,9.4
		c-3.4,2.6-6.7,5.6-10.1,9.4c-3.5,3.9-6.6,7.6-9,11.1c-5.8,8.2-10.9,19.2-15,32.6c-1.8,6-3.1,12.3-4,19.3c-0.2,1.7-0.4,3.4-0.5,5.1
		c-0.3,2.6-0.5,5.3-0.9,7.9c-0.4,3-1,6.1-1.6,9.1c-1.9,9.7-3.8,19.7-1.5,29.2C10.4,147.1,11.8,152.3,14.5,156.8L14.5,156.8z"/>
</g>
<g id="XMLID_118_">
	<g id="XMLID_119_">
		<g>
			<defs>
				<path id="SVGID_1_" d="M9.7,126.7c-1.2-0.6-2.5-0.9-3.3-0.3c-1.1,0.8-1,4.8-1.1,6.1c-0.4,4.8,0.1,9.6,0.4,14.4
					c0.5,8.1-0.2,15.5-4.4,22.7c-0.3,0.5-0.6,1-0.6,1.6c0,0.9,0.7,1.6,1.3,2.2c8,6.9,19.8,8.1,29.9,8.7c11.5,0.7,23,1,34.5,0.9
					c8-0.1,16.6,0.8,24.6-0.4c8.4-1.3,16.7-3.9,23.6-8.8c0.4-0.3,0.9-0.7,1-1.2c0.1-0.6-0.2-1.1-0.6-1.6c-2.6-4.1-3.8-8.6-4-13.4
					c-0.1-2.7,1.7-11.2-0.8-13.1c-1.3-1-6.3-0.4-8-0.5c-2.9-0.1-5.7-0.3-8.6-0.5c-5.5-0.3-11-0.6-16.5-1c-22.1-1.5-45-3.6-64.4-14.2
					C12,128,10.9,127.3,9.7,126.7z"/>
			</defs>
			<clipPath id="SVGID_2_">
				<use xlink:href="#SVGID_1_"  style="overflow:visible;"/>
			</clipPath>
			<g class="st5">
				<rect x="107.7" y="101.6" class="st6" width="25.4" height="25.4"/>
				<rect x="107.7" y="101.6" class="st7" width="25.4" height="25.4"/>
				<rect x="111.1" y="101.6" class="st8" width="18.5" height="25.4"/>
				<rect x="114.9" y="101.6" class="st9" width="10.9" height="25.4"/>
				<rect x="118.4" y="101.6" class="st8" width="4.1" height="25.4"/>
				<rect x="107.7" y="105" class="st8" width="25.4" height="18.5"/>
				<rect x="107.7" y="108.8" class="st9" width="25.4" height="10.9"/>
				<rect x="107.7" y="112.3" class="st8" width="25.4" height="4.1"/>
			</g>
			<g class="st5">
				<rect x="107.7" y="127" class="st6" width="25.4" height="25.4"/>
				<rect x="107.7" y="127" class="st7" width="25.4" height="25.4"/>
				<rect x="111.1" y="127" class="st8" width="18.5" height="25.4"/>
				<rect x="114.9" y="127" class="st9" width="10.9" height="25.4"/>
				<rect x="118.4" y="127" class="st8" width="4.1" height="25.4"/>
				<rect x="107.7" y="130.4" class="st8" width="25.4" height="18.5"/>
				<rect x="107.7" y="134.2" class="st9" width="25.4" height="10.9"/>
				<rect x="107.7" y="137.7" class="st8" width="25.4" height="4.1"/>
			</g>
			<g class="st5">
				<rect x="107.7" y="152.4" class="st6" width="25.4" height="25.4"/>
				<rect x="107.7" y="152.4" class="st7" width="25.4" height="25.4"/>
				<rect x="111.1" y="152.4" class="st8" width="18.5" height="25.4"/>
				<rect x="114.9" y="152.4" class="st9" width="10.9" height="25.4"/>
				<rect x="118.4" y="152.4" class="st8" width="4.1" height="25.4"/>
				<rect x="107.7" y="155.8" class="st8" width="25.4" height="18.5"/>
				<rect x="107.7" y="159.6" class="st9" width="25.4" height="10.9"/>
				<rect x="107.7" y="163.1" class="st8" width="25.4" height="4.1"/>
			</g>
			<g class="st5">
				<rect x="107.7" y="177.8" class="st6" width="25.4" height="25.4"/>
				<rect x="107.7" y="177.8" class="st7" width="25.4" height="25.4"/>
				<rect x="111.1" y="177.8" class="st8" width="18.5" height="25.4"/>
				<rect x="114.9" y="177.8" class="st9" width="10.9" height="25.4"/>
				<rect x="118.4" y="177.8" class="st8" width="4.1" height="25.4"/>
				<rect x="107.7" y="181.2" class="st8" width="25.4" height="18.5"/>
				<rect x="107.7" y="185" class="st9" width="25.4" height="10.9"/>
				<rect x="107.7" y="188.5" class="st8" width="25.4" height="4.1"/>
			</g>
			<g class="st5">
				<rect x="82.3" y="101.6" class="st6" width="25.4" height="25.4"/>
				<rect x="82.3" y="101.6" class="st7" width="25.4" height="25.4"/>
				<rect x="85.8" y="101.6" class="st8" width="18.5" height="25.4"/>
				<rect x="89.5" y="101.6" class="st9" width="10.9" height="25.4"/>
				<rect x="93" y="101.6" class="st8" width="4.1" height="25.4"/>
				<rect x="82.3" y="105" class="st8" width="25.4" height="18.5"/>
				<rect x="82.3" y="108.8" class="st9" width="25.4" height="10.9"/>
				<rect x="82.3" y="112.3" class="st8" width="25.4" height="4.1"/>
			</g>
			<g class="st5">
				<rect x="82.3" y="127" class="st6" width="25.4" height="25.4"/>
				<rect x="82.3" y="127" class="st7" width="25.4" height="25.4"/>
				<rect x="85.8" y="127" class="st8" width="18.5" height="25.4"/>
				<rect x="89.5" y="127" class="st9" width="10.9" height="25.4"/>
				<rect x="93" y="127" class="st8" width="4.1" height="25.4"/>
				<rect x="82.3" y="130.4" class="st8" width="25.4" height="18.5"/>
				<rect x="82.3" y="134.2" class="st9" width="25.4" height="10.9"/>
				<rect x="82.3" y="137.7" class="st8" width="25.4" height="4.1"/>
			</g>
			<g class="st5">
				<rect x="82.3" y="152.4" class="st6" width="25.4" height="25.4"/>
				<rect x="82.3" y="152.4" class="st7" width="25.4" height="25.4"/>
				<rect x="85.8" y="152.4" class="st8" width="18.5" height="25.4"/>
				<rect x="89.5" y="152.4" class="st9" width="10.9" height="25.4"/>
				<rect x="93" y="152.4" class="st8" width="4.1" height="25.4"/>
				<rect x="82.3" y="155.8" class="st8" width="25.4" height="18.5"/>
				<rect x="82.3" y="159.6" class="st9" width="25.4" height="10.9"/>
				<rect x="82.3" y="163.1" class="st8" width="25.4" height="4.1"/>
			</g>
			<g class="st5">
				<rect x="82.3" y="177.8" class="st6" width="25.4" height="25.4"/>
				<rect x="82.3" y="177.8" class="st7" width="25.4" height="25.4"/>
				<rect x="85.8" y="177.8" class="st8" width="18.5" height="25.4"/>
				<rect x="89.5" y="177.8" class="st9" width="10.9" height="25.4"/>
				<rect x="93" y="177.8" class="st8" width="4.1" height="25.4"/>
				<rect x="82.3" y="181.2" class="st8" width="25.4" height="18.5"/>
				<rect x="82.3" y="185" class="st9" width="25.4" height="10.9"/>
				<rect x="82.3" y="188.5" class="st8" width="25.4" height="4.1"/>
			</g>
			<g class="st5">
				<rect x="56.9" y="101.6" class="st6" width="25.4" height="25.4"/>
				<rect x="56.9" y="101.6" class="st7" width="25.4" height="25.4"/>
				<rect x="60.4" y="101.6" class="st8" width="18.5" height="25.4"/>
				<rect x="64.2" y="101.6" class="st9" width="10.9" height="25.4"/>
				<rect x="67.6" y="101.6" class="st8" width="4.1" height="25.4"/>
				<rect x="56.9" y="105" class="st8" width="25.4" height="18.5"/>
				<rect x="56.9" y="108.8" class="st9" width="25.4" height="10.9"/>
				<rect x="56.9" y="112.3" class="st8" width="25.4" height="4.1"/>
			</g>
			<g class="st5">
				<rect x="56.9" y="127" class="st6" width="25.4" height="25.4"/>
				<rect x="56.9" y="127" class="st7" width="25.4" height="25.4"/>
				<rect x="60.4" y="127" class="st8" width="18.5" height="25.4"/>
				<rect x="64.2" y="127" class="st9" width="10.9" height="25.4"/>
				<rect x="67.6" y="127" class="st8" width="4.1" height="25.4"/>
				<rect x="56.9" y="130.4" class="st8" width="25.4" height="18.5"/>
				<rect x="56.9" y="134.2" class="st9" width="25.4" height="10.9"/>
				<rect x="56.9" y="137.7" class="st8" width="25.4" height="4.1"/>
			</g>
			<g class="st5">
				<rect x="56.9" y="152.4" class="st6" width="25.4" height="25.4"/>
				<rect x="56.9" y="152.4" class="st7" width="25.4" height="25.4"/>
				<rect x="60.4" y="152.4" class="st8" width="18.5" height="25.4"/>
				<rect x="64.2" y="152.4" class="st9" width="10.9" height="25.4"/>
				<rect x="67.6" y="152.4" class="st8" width="4.1" height="25.4"/>
				<rect x="56.9" y="155.8" class="st8" width="25.4" height="18.5"/>
				<rect x="56.9" y="159.6" class="st9" width="25.4" height="10.9"/>
				<rect x="56.9" y="163.1" class="st8" width="25.4" height="4.1"/>
			</g>
			<g class="st5">
				<rect x="56.9" y="177.8" class="st6" width="25.4" height="25.4"/>
				<rect x="56.9" y="177.8" class="st7" width="25.4" height="25.4"/>
				<rect x="60.4" y="177.8" class="st8" width="18.5" height="25.4"/>
				<rect x="64.2" y="177.8" class="st9" width="10.9" height="25.4"/>
				<rect x="67.6" y="177.8" class="st8" width="4.1" height="25.4"/>
				<rect x="56.9" y="181.2" class="st8" width="25.4" height="18.5"/>
				<rect x="56.9" y="185" class="st9" width="25.4" height="10.9"/>
				<rect x="56.9" y="188.5" class="st8" width="25.4" height="4.1"/>
			</g>
			<g class="st5">
				<rect x="31.5" y="101.6" class="st6" width="25.4" height="25.4"/>
				<rect x="31.5" y="101.6" class="st7" width="25.4" height="25.4"/>
				<rect x="35" y="101.6" class="st8" width="18.5" height="25.4"/>
				<rect x="38.8" y="101.6" class="st9" width="10.9" height="25.4"/>
				<rect x="42.2" y="101.6" class="st8" width="4.1" height="25.4"/>
				<rect x="31.5" y="105" class="st8" width="25.4" height="18.5"/>
				<rect x="31.5" y="108.8" class="st9" width="25.4" height="10.9"/>
				<rect x="31.5" y="112.3" class="st8" width="25.4" height="4.1"/>
			</g>
			<g class="st5">
				<rect x="31.5" y="127" class="st6" width="25.4" height="25.4"/>
				<rect x="31.5" y="127" class="st7" width="25.4" height="25.4"/>
				<rect x="35" y="127" class="st8" width="18.5" height="25.4"/>
				<rect x="38.8" y="127" class="st9" width="10.9" height="25.4"/>
				<rect x="42.2" y="127" class="st8" width="4.1" height="25.4"/>
				<rect x="31.5" y="130.4" class="st8" width="25.4" height="18.5"/>
				<rect x="31.5" y="134.2" class="st9" width="25.4" height="10.9"/>
				<rect x="31.5" y="137.7" class="st8" width="25.4" height="4.1"/>
			</g>
			<g class="st5">
				<rect x="31.5" y="152.4" class="st6" width="25.4" height="25.4"/>
				<rect x="31.5" y="152.4" class="st7" width="25.4" height="25.4"/>
				<rect x="35" y="152.4" class="st8" width="18.5" height="25.4"/>
				<rect x="38.8" y="152.4" class="st9" width="10.9" height="25.4"/>
				<rect x="42.2" y="152.4" class="st8" width="4.1" height="25.4"/>
				<rect x="31.5" y="155.8" class="st8" width="25.4" height="18.5"/>
				<rect x="31.5" y="159.6" class="st9" width="25.4" height="10.9"/>
				<rect x="31.5" y="163.1" class="st8" width="25.4" height="4.1"/>
			</g>
			<g class="st5">
				<rect x="31.5" y="177.8" class="st6" width="25.4" height="25.4"/>
				<rect x="31.5" y="177.8" class="st7" width="25.4" height="25.4"/>
				<rect x="35" y="177.8" class="st8" width="18.5" height="25.4"/>
				<rect x="38.8" y="177.8" class="st9" width="10.9" height="25.4"/>
				<rect x="42.2" y="177.8" class="st8" width="4.1" height="25.4"/>
				<rect x="31.5" y="181.2" class="st8" width="25.4" height="18.5"/>
				<rect x="31.5" y="185" class="st9" width="25.4" height="10.9"/>
				<rect x="31.5" y="188.5" class="st8" width="25.4" height="4.1"/>
			</g>
			<g class="st5">
				<rect x="6.1" y="101.6" class="st6" width="25.4" height="25.4"/>
				<rect x="6.1" y="101.6" class="st7" width="25.4" height="25.4"/>
				<rect x="9.6" y="101.6" class="st8" width="18.5" height="25.4"/>
				<rect x="13.4" y="101.6" class="st9" width="10.9" height="25.4"/>
				<rect x="16.8" y="101.6" class="st8" width="4.1" height="25.4"/>
				<rect x="6.1" y="105" class="st8" width="25.4" height="18.5"/>
				<rect x="6.1" y="108.8" class="st9" width="25.4" height="10.9"/>
				<rect x="6.1" y="112.3" class="st8" width="25.4" height="4.1"/>
			</g>
			<g class="st5">
				<rect x="6.1" y="127" class="st6" width="25.4" height="25.4"/>
				<rect x="6.1" y="127" class="st7" width="25.4" height="25.4"/>
				<rect x="9.6" y="127" class="st8" width="18.5" height="25.4"/>
				<rect x="13.4" y="127" class="st9" width="10.9" height="25.4"/>
				<rect x="16.8" y="127" class="st8" width="4.1" height="25.4"/>
				<rect x="6.1" y="130.4" class="st8" width="25.4" height="18.5"/>
				<rect x="6.1" y="134.2" class="st9" width="25.4" height="10.9"/>
				<rect x="6.1" y="137.7" class="st8" width="25.4" height="4.1"/>
			</g>
			<g class="st5">
				<rect x="6.1" y="152.4" class="st6" width="25.4" height="25.4"/>
				<rect x="6.1" y="152.4" class="st7" width="25.4" height="25.4"/>
				<rect x="9.6" y="152.4" class="st8" width="18.5" height="25.4"/>
				<rect x="13.4" y="152.4" class="st9" width="10.9" height="25.4"/>
				<rect x="16.8" y="152.4" class="st8" width="4.1" height="25.4"/>
				<rect x="6.1" y="155.8" class="st8" width="25.4" height="18.5"/>
				<rect x="6.1" y="159.6" class="st9" width="25.4" height="10.9"/>
				<rect x="6.1" y="163.1" class="st8" width="25.4" height="4.1"/>
			</g>
			<g class="st5">
				<rect x="6.1" y="177.8" class="st6" width="25.4" height="25.4"/>
				<rect x="6.1" y="177.8" class="st7" width="25.4" height="25.4"/>
				<rect x="9.6" y="177.8" class="st8" width="18.5" height="25.4"/>
				<rect x="13.4" y="177.8" class="st9" width="10.9" height="25.4"/>
				<rect x="16.8" y="177.8" class="st8" width="4.1" height="25.4"/>
				<rect x="6.1" y="181.2" class="st8" width="25.4" height="18.5"/>
				<rect x="6.1" y="185" class="st9" width="25.4" height="10.9"/>
				<rect x="6.1" y="188.5" class="st8" width="25.4" height="4.1"/>
			</g>
			<g class="st5">
				<rect x="-19.3" y="101.6" class="st6" width="25.4" height="25.4"/>
				<rect x="-19.3" y="101.6" class="st7" width="25.4" height="25.4"/>
				<rect x="-15.8" y="101.6" class="st8" width="18.5" height="25.4"/>
				<rect x="-12" y="101.6" class="st9" width="10.9" height="25.4"/>
				<rect x="-8.6" y="101.6" class="st8" width="4.1" height="25.4"/>
				<rect x="-19.3" y="105" class="st8" width="25.4" height="18.5"/>
				<rect x="-19.3" y="108.8" class="st9" width="25.4" height="10.9"/>
				<rect x="-19.3" y="112.3" class="st8" width="25.4" height="4.1"/>
			</g>
			<g class="st5">
				<rect x="-19.3" y="127" class="st6" width="25.4" height="25.4"/>
				<rect x="-19.3" y="127" class="st7" width="25.4" height="25.4"/>
				<rect x="-15.8" y="127" class="st8" width="18.5" height="25.4"/>
				<rect x="-12" y="127" class="st9" width="10.9" height="25.4"/>
				<rect x="-8.6" y="127" class="st8" width="4.1" height="25.4"/>
				<rect x="-19.3" y="130.4" class="st8" width="25.4" height="18.5"/>
				<rect x="-19.3" y="134.2" class="st9" width="25.4" height="10.9"/>
				<rect x="-19.3" y="137.7" class="st8" width="25.4" height="4.1"/>
			</g>
			<g class="st5">
				<rect x="-19.3" y="152.4" class="st6" width="25.4" height="25.4"/>
				<rect x="-19.3" y="152.4" class="st7" width="25.4" height="25.4"/>
				<rect x="-15.8" y="152.4" class="st8" width="18.5" height="25.4"/>
				<rect x="-12" y="152.4" class="st9" width="10.9" height="25.4"/>
				<rect x="-8.6" y="152.4" class="st8" width="4.1" height="25.4"/>
				<rect x="-19.3" y="155.8" class="st8" width="25.4" height="18.5"/>
				<rect x="-19.3" y="159.6" class="st9" width="25.4" height="10.9"/>
				<rect x="-19.3" y="163.1" class="st8" width="25.4" height="4.1"/>
			</g>
			<g class="st5">
				<rect x="-19.3" y="177.8" class="st6" width="25.4" height="25.4"/>
				<rect x="-19.3" y="177.8" class="st7" width="25.4" height="25.4"/>
				<rect x="-15.8" y="177.8" class="st8" width="18.5" height="25.4"/>
				<rect x="-12" y="177.8" class="st9" width="10.9" height="25.4"/>
				<rect x="-8.6" y="177.8" class="st8" width="4.1" height="25.4"/>
				<rect x="-19.3" y="181.2" class="st8" width="25.4" height="18.5"/>
				<rect x="-19.3" y="185" class="st9" width="25.4" height="10.9"/>
				<rect x="-19.3" y="188.5" class="st8" width="25.4" height="4.1"/>
			</g>
		</g>
	</g>
	<g>
		<path class="st2" d="M81.2,184.1c-2.3,0-4.6-0.1-6.9-0.1c-2.6-0.1-5.2-0.1-7.7-0.1c-11.5,0.1-23.1-0.2-34.6-0.9
			C21.5,182.2,9.8,181,1.6,174c-0.8-0.6-1.6-1.5-1.6-2.7c0-0.8,0.4-1.4,0.7-1.9c3.6-6.2,4.9-12.9,4.4-22.3c-0.1-0.8-0.1-1.7-0.2-2.6
			c-0.4-6.3-0.9-13.4,1.1-19.3c0.1-0.2,0.2-0.4,0.4-0.4c0.2-0.1,0.4-0.1,0.6,0c2.1,0.9,4.1,2,6,3.2c2.2,1.3,4.4,2.6,6.8,3.5
			c5.3,2.1,11,3.5,15.7,4.6c10.5,2.5,21.5,4.3,32.7,5.4c13.1,1.3,24,1.6,34.3,0.8c1.2-0.1,2.4-0.2,3.7-0.2c1.7-0.1,3.4-0.2,5.2-0.3
			c0.2,0,0.4,0.1,0.6,0.2c0.2,0.1,0.2,0.3,0.2,0.6c0,2.2-0.1,4.4-0.2,6.6c-0.4,7.8-0.7,15.1,3.8,21.7c0.4,0.5,0.9,1.3,0.7,2.2
			c-0.2,0.9-0.9,1.4-1.3,1.7c-6.3,4.5-14.4,7.5-23.9,8.9C88,183.9,84.6,184.1,81.2,184.1z M67.5,182.3c2.2,0,4.6,0.1,6.8,0.1
			c5.6,0.2,11.3,0.3,16.7-0.5c9.3-1.4,17.1-4.3,23.3-8.7c0.3-0.2,0.7-0.5,0.7-0.7c0.1-0.3-0.2-0.7-0.5-1c-4.7-7-4.4-15-4-22.6
			c0.1-1.9,0.2-3.8,0.2-5.7c-1.5,0.1-3,0.2-4.4,0.3c-1.3,0.1-2.5,0.1-3.7,0.2c-10.3,0.8-21.3,0.5-34.6-0.8
			c-11.2-1.1-22.3-3-32.9-5.4c-4.8-1.1-10.5-2.6-15.9-4.7c-2.5-1-4.8-2.3-7-3.6c-1.7-1-3.4-1.9-5.1-2.8c-1.6,5.5-1.2,12.1-0.8,17.9
			c0.1,0.9,0.1,1.7,0.2,2.6c0.6,9.7-0.8,16.6-4.5,23.1c-0.3,0.5-0.5,0.9-0.5,1.2c0,0.5,0.3,0.9,1.1,1.6c7.8,6.7,19.3,7.9,29.5,8.5
			c11.4,0.7,23,1,34.5,0.9C66.8,182.3,67.2,182.3,67.5,182.3z"/>
	</g>
</g>
<g>
	<path class="st1" d="M111.6,73.3c0-0.3-0.1-0.6-0.2-0.9c-0.1-0.3-0.2-0.5-0.4-0.8c-0.1-0.1-0.2-0.2-0.2-0.4l-0.1-0.2l-0.1-0.1
		c-0.8-0.8-1.8-1.2-2.8-1.6c-0.3-0.1-0.7-0.2-1-0.3c0,0,0-0.1,0-0.1c0-0.3-0.1-0.7-0.3-1c-0.2-0.3-0.5-0.5-0.7-0.6
		c-0.3-0.1-0.6-0.2-0.9-0.2c-0.3,0-0.5,0-0.8,0l-0.8,0.1c-0.4,0-0.7,0-1.1,0.1c-0.4,0-0.7,0-1.1-0.1l-0.8-0.1c-0.3,0-0.5-0.1-0.8,0
		c-0.3,0-0.6,0.1-0.9,0.2c-0.3,0.1-0.6,0.4-0.7,0.6c-0.2,0.3-0.2,0.6-0.3,0.9c-0.6,0.1-1.2,0.3-1.8,0.5c-0.9,0.3-2,0.7-2.8,1.6
		L93,71.2l-0.1,0.2c-0.1,0.1-0.2,0.2-0.2,0.4c-0.2,0.2-0.3,0.5-0.4,0.8C92.1,72.7,92,73,92,73.3c0,0.3,0,0.6,0,0.8
		c-0.1,0.5,0,1,0.1,1.6c0.1,0.3,0.2,0.6,0.3,0.8c0.1,0.1,0.2,0.3,0.2,0.4c0.1,0.1,0.1,0.1,0.2,0.2l0.1,0.1c0.1,0.1,0.2,0.2,0.3,0.3
		c0.1,0.1,0.2,0.2,0.4,0.3c0.3,0.1,0.5,0.3,0.8,0.3c0.6,0.1,1.1,0.1,1.6,0.1c0.4,0,0.7-0.1,1.1-0.1c-0.1,0.4-0.1,1-0.2,1.5
		c0,0.5,0,1,0.2,1.6c0.2,0.5,0.5,1.1,1,1.5c0.5,0.4,1.1,0.8,1.8,0.9c0.2,0,0.3,0,0.5,0l0.5,0l0.9,0l0.9,0c0.3,0,0.7,0,1-0.1
		c0.7-0.2,1.3-0.5,1.7-1c0.5-0.4,0.8-1,0.9-1.6c0.1-0.3,0.1-0.6,0.1-0.9c0-0.1,0-0.2,0-0.4c0-0.1,0-0.2,0-0.4c0-0.5-0.1-0.9-0.1-1.3
		c0.3,0.1,0.7,0.1,1.1,0.1c0.5,0,1.1,0,1.6-0.1c0.3-0.1,0.6-0.2,0.8-0.3c0.1-0.1,0.3-0.2,0.4-0.3c0.1-0.1,0.3-0.2,0.3-0.3l0.1-0.1
		c0.1-0.1,0.1-0.1,0.2-0.2c0.1-0.1,0.2-0.2,0.2-0.4c0.1-0.3,0.3-0.5,0.3-0.8c0.1-0.5,0.1-1.1,0.1-1.6
		C111.7,73.9,111.7,73.6,111.6,73.3z"/>
</g>
<g>
	<circle class="st3" cx="68.9" cy="56" r="23.3"/>
</g>
<g>
	<path class="st10" d="M50.7,56c0-12,9.1-21.9,20.8-23.1c-0.8-0.1-1.7-0.1-2.5-0.1c-12.8,0-23.3,10.4-23.3,23.3s10.4,23.3,23.3,23.3
		c0.8,0,1.7,0,2.5-0.1C59.7,77.9,50.7,68,50.7,56z"/>
</g>
<g>
	<path class="st2" d="M68.9,80c-13.2,0-24-10.8-24-24s10.8-24,24-24c13.2,0,24,10.8,24,24S82.2,80,68.9,80z M68.9,33.5
		c-12.4,0-22.5,10.1-22.5,22.5s10.1,22.5,22.5,22.5c12.4,0,22.5-10.1,22.5-22.5S81.3,33.5,68.9,33.5z"/>
</g>
<g>
	<circle class="st2" cx="62.2" cy="56.2" r="4.5"/>
</g>
<g>
	<ellipse class="st3" cx="63.4" cy="54" rx="1.3" ry="1"/>
</g>
<g>
	<circle class="st3" cx="130" cy="54.9" r="19.9"/>
</g>
<g>
	<path class="st10" d="M114.3,54.9c0-10.1,7.6-18.3,17.4-19.4c-0.7-0.1-1.4-0.1-2.1-0.1c-10.8,0-19.5,8.7-19.5,19.5
		s8.7,19.5,19.5,19.5c0.7,0,1.4,0,2.1-0.1C122,73.3,114.3,65,114.3,54.9z"/>
</g>
<g>
	<path class="st2" d="M130,75.5c-11.4,0-20.6-9.2-20.6-20.6s9.2-20.6,20.6-20.6s20.6,9.2,20.6,20.6S141.3,75.5,130,75.5z M130,35.8
		c-10.5,0-19.1,8.6-19.1,19.1S119.4,74,130,74s19.1-8.6,19.1-19.1S140.5,35.8,130,35.8z"/>
</g>
<g>
	<circle class="st2" cx="124.2" cy="55" r="3.9"/>
</g>
<g>
	<ellipse class="st3" cx="125.3" cy="53.2" rx="1.1" ry="0.8"/>
</g>
<g>
	<g>
		<defs>
			<path id="SVGID_3_" d="M31.8,86.5c-5.1-2.8-19-11.6-21.9-3.5c-0.7,2-1,4.2-0.1,6.1c1.5,3.5,7.2,3.6,10.2,5.3
				c18.3,10.5,34.4,23.3,51.3,35.9c10.8,8.1,23.4,15,36.8,14.3c1.4-0.1,2.9-0.2,4.1-0.9c1.6-0.8,2.8-2.3,3.6-4
				c1.2-2.4,3.6-8.1,1.2-10.4c-1.7-1.7-8-0.9-10.4-1.2c-9.7-1.5-19.5-3.8-27.8-9.3c-3.1-2.1-6-4.6-8.9-6.9
				c-6.6-5.3-31.8-22.2-37.6-25.3C32.2,86.7,32,86.6,31.8,86.5z"/>
		</defs>
		<clipPath id="SVGID_4_">
			<use xlink:href="#SVGID_3_"  style="overflow:visible;"/>
		</clipPath>
		<g class="st11">
			<rect x="107.7" y="76.2" class="st6" width="25.4" height="25.4"/>
			<rect x="107.7" y="76.2" class="st7" width="25.4" height="25.4"/>
			<rect x="111.1" y="76.2" class="st8" width="18.5" height="25.4"/>
			<rect x="114.9" y="76.2" class="st9" width="10.9" height="25.4"/>
			<rect x="118.4" y="76.2" class="st8" width="4.1" height="25.4"/>
			<rect x="107.7" y="79.6" class="st8" width="25.4" height="18.5"/>
			<rect x="107.7" y="83.4" class="st9" width="25.4" height="10.9"/>
			<rect x="107.7" y="86.9" class="st8" width="25.4" height="4.1"/>
		</g>
		<g class="st11">
			<rect x="107.7" y="101.6" class="st6" width="25.4" height="25.4"/>
			<rect x="107.7" y="101.6" class="st7" width="25.4" height="25.4"/>
			<rect x="111.1" y="101.6" class="st8" width="18.5" height="25.4"/>
			<rect x="114.9" y="101.6" class="st9" width="10.9" height="25.4"/>
			<rect x="118.4" y="101.6" class="st8" width="4.1" height="25.4"/>
			<rect x="107.7" y="105" class="st8" width="25.4" height="18.5"/>
			<rect x="107.7" y="108.8" class="st9" width="25.4" height="10.9"/>
			<rect x="107.7" y="112.3" class="st8" width="25.4" height="4.1"/>
		</g>
		<g class="st11">
			<rect x="107.7" y="127" class="st6" width="25.4" height="25.4"/>
			<rect x="107.7" y="127" class="st7" width="25.4" height="25.4"/>
			<rect x="111.1" y="127" class="st8" width="18.5" height="25.4"/>
			<rect x="114.9" y="127" class="st9" width="10.9" height="25.4"/>
			<rect x="118.4" y="127" class="st8" width="4.1" height="25.4"/>
			<rect x="107.7" y="130.4" class="st8" width="25.4" height="18.5"/>
			<rect x="107.7" y="134.2" class="st9" width="25.4" height="10.9"/>
			<rect x="107.7" y="137.7" class="st8" width="25.4" height="4.1"/>
		</g>
		<g class="st11">
			<rect x="82.3" y="76.2" class="st6" width="25.4" height="25.4"/>
			<rect x="82.3" y="76.2" class="st7" width="25.4" height="25.4"/>
			<rect x="85.8" y="76.2" class="st8" width="18.5" height="25.4"/>
			<rect x="89.5" y="76.2" class="st9" width="10.9" height="25.4"/>
			<rect x="93" y="76.2" class="st8" width="4.1" height="25.4"/>
			<rect x="82.3" y="79.6" class="st8" width="25.4" height="18.5"/>
			<rect x="82.3" y="83.4" class="st9" width="25.4" height="10.9"/>
			<rect x="82.3" y="86.9" class="st8" width="25.4" height="4.1"/>
		</g>
		<g class="st11">
			<rect x="82.3" y="101.6" class="st6" width="25.4" height="25.4"/>
			<rect x="82.3" y="101.6" class="st7" width="25.4" height="25.4"/>
			<rect x="85.8" y="101.6" class="st8" width="18.5" height="25.4"/>
			<rect x="89.5" y="101.6" class="st9" width="10.9" height="25.4"/>
			<rect x="93" y="101.6" class="st8" width="4.1" height="25.4"/>
			<rect x="82.3" y="105" class="st8" width="25.4" height="18.5"/>
			<rect x="82.3" y="108.8" class="st9" width="25.4" height="10.9"/>
			<rect x="82.3" y="112.3" class="st8" width="25.4" height="4.1"/>
		</g>
		<g class="st11">
			<rect x="82.3" y="127" class="st6" width="25.4" height="25.4"/>
			<rect x="82.3" y="127" class="st7" width="25.4" height="25.4"/>
			<rect x="85.8" y="127" class="st8" width="18.5" height="25.4"/>
			<rect x="89.5" y="127" class="st9" width="10.9" height="25.4"/>
			<rect x="93" y="127" class="st8" width="4.1" height="25.4"/>
			<rect x="82.3" y="130.4" class="st8" width="25.4" height="18.5"/>
			<rect x="82.3" y="134.2" class="st9" width="25.4" height="10.9"/>
			<rect x="82.3" y="137.7" class="st8" width="25.4" height="4.1"/>
		</g>
		<g class="st11">
			<rect x="56.9" y="76.2" class="st6" width="25.4" height="25.4"/>
			<rect x="56.9" y="76.2" class="st7" width="25.4" height="25.4"/>
			<rect x="60.4" y="76.2" class="st8" width="18.5" height="25.4"/>
			<rect x="64.2" y="76.2" class="st9" width="10.9" height="25.4"/>
			<rect x="67.6" y="76.2" class="st8" width="4.1" height="25.4"/>
			<rect x="56.9" y="79.6" class="st8" width="25.4" height="18.5"/>
			<rect x="56.9" y="83.4" class="st9" width="25.4" height="10.9"/>
			<rect x="56.9" y="86.9" class="st8" width="25.4" height="4.1"/>
		</g>
		<g class="st11">
			<rect x="56.9" y="101.6" class="st6" width="25.4" height="25.4"/>
			<rect x="56.9" y="101.6" class="st7" width="25.4" height="25.4"/>
			<rect x="60.4" y="101.6" class="st8" width="18.5" height="25.4"/>
			<rect x="64.2" y="101.6" class="st9" width="10.9" height="25.4"/>
			<rect x="67.6" y="101.6" class="st8" width="4.1" height="25.4"/>
			<rect x="56.9" y="105" class="st8" width="25.4" height="18.5"/>
			<rect x="56.9" y="108.8" class="st9" width="25.4" height="10.9"/>
			<rect x="56.9" y="112.3" class="st8" width="25.4" height="4.1"/>
		</g>
		<g class="st11">
			<rect x="56.9" y="127" class="st6" width="25.4" height="25.4"/>
			<rect x="56.9" y="127" class="st7" width="25.4" height="25.4"/>
			<rect x="60.4" y="127" class="st8" width="18.5" height="25.4"/>
			<rect x="64.2" y="127" class="st9" width="10.9" height="25.4"/>
			<rect x="67.6" y="127" class="st8" width="4.1" height="25.4"/>
			<rect x="56.9" y="130.4" class="st8" width="25.4" height="18.5"/>
			<rect x="56.9" y="134.2" class="st9" width="25.4" height="10.9"/>
			<rect x="56.9" y="137.7" class="st8" width="25.4" height="4.1"/>
		</g>
		<g class="st11">
			<rect x="31.5" y="76.2" class="st6" width="25.4" height="25.4"/>
			<rect x="31.5" y="76.2" class="st7" width="25.4" height="25.4"/>
			<rect x="35" y="76.2" class="st8" width="18.5" height="25.4"/>
			<rect x="38.8" y="76.2" class="st9" width="10.9" height="25.4"/>
			<rect x="42.2" y="76.2" class="st8" width="4.1" height="25.4"/>
			<rect x="31.5" y="79.6" class="st8" width="25.4" height="18.5"/>
			<rect x="31.5" y="83.4" class="st9" width="25.4" height="10.9"/>
			<rect x="31.5" y="86.9" class="st8" width="25.4" height="4.1"/>
		</g>
		<g class="st11">
			<rect x="31.5" y="101.6" class="st6" width="25.4" height="25.4"/>
			<rect x="31.5" y="101.6" class="st7" width="25.4" height="25.4"/>
			<rect x="35" y="101.6" class="st8" width="18.5" height="25.4"/>
			<rect x="38.8" y="101.6" class="st9" width="10.9" height="25.4"/>
			<rect x="42.2" y="101.6" class="st8" width="4.1" height="25.4"/>
			<rect x="31.5" y="105" class="st8" width="25.4" height="18.5"/>
			<rect x="31.5" y="108.8" class="st9" width="25.4" height="10.9"/>
			<rect x="31.5" y="112.3" class="st8" width="25.4" height="4.1"/>
		</g>
		<g class="st11">
			<rect x="31.5" y="127" class="st6" width="25.4" height="25.4"/>
			<rect x="31.5" y="127" class="st7" width="25.4" height="25.4"/>
			<rect x="35" y="127" class="st8" width="18.5" height="25.4"/>
			<rect x="38.8" y="127" class="st9" width="10.9" height="25.4"/>
			<rect x="42.2" y="127" class="st8" width="4.1" height="25.4"/>
			<rect x="31.5" y="130.4" class="st8" width="25.4" height="18.5"/>
			<rect x="31.5" y="134.2" class="st9" width="25.4" height="10.9"/>
			<rect x="31.5" y="137.7" class="st8" width="25.4" height="4.1"/>
		</g>
		<g class="st11">
			<rect x="6.1" y="76.2" class="st6" width="25.4" height="25.4"/>
			<rect x="6.1" y="76.2" class="st7" width="25.4" height="25.4"/>
			<rect x="9.6" y="76.2" class="st8" width="18.5" height="25.4"/>
			<rect x="13.4" y="76.2" class="st9" width="10.9" height="25.4"/>
			<rect x="16.8" y="76.2" class="st8" width="4.1" height="25.4"/>
			<rect x="6.1" y="79.6" class="st8" width="25.4" height="18.5"/>
			<rect x="6.1" y="83.4" class="st9" width="25.4" height="10.9"/>
			<rect x="6.1" y="86.9" class="st8" width="25.4" height="4.1"/>
		</g>
		<g class="st11">
			<rect x="6.1" y="101.6" class="st6" width="25.4" height="25.4"/>
			<rect x="6.1" y="101.6" class="st7" width="25.4" height="25.4"/>
			<rect x="9.6" y="101.6" class="st8" width="18.5" height="25.4"/>
			<rect x="13.4" y="101.6" class="st9" width="10.9" height="25.4"/>
			<rect x="16.8" y="101.6" class="st8" width="4.1" height="25.4"/>
			<rect x="6.1" y="105" class="st8" width="25.4" height="18.5"/>
			<rect x="6.1" y="108.8" class="st9" width="25.4" height="10.9"/>
			<rect x="6.1" y="112.3" class="st8" width="25.4" height="4.1"/>
		</g>
		<g class="st11">
			<rect x="6.1" y="127" class="st6" width="25.4" height="25.4"/>
			<rect x="6.1" y="127" class="st7" width="25.4" height="25.4"/>
			<rect x="9.6" y="127" class="st8" width="18.5" height="25.4"/>
			<rect x="13.4" y="127" class="st9" width="10.9" height="25.4"/>
			<rect x="16.8" y="127" class="st8" width="4.1" height="25.4"/>
			<rect x="6.1" y="130.4" class="st8" width="25.4" height="18.5"/>
			<rect x="6.1" y="134.2" class="st9" width="25.4" height="10.9"/>
			<rect x="6.1" y="137.7" class="st8" width="25.4" height="4.1"/>
		</g>
	</g>
</g>
<g>
	<path class="st2" d="M106.5,145.5c-10.9,0-22.6-4.8-35.7-14.5c-2.6-2-5.2-3.9-7.8-5.9c-14.4-10.9-28-21.1-43.4-30
		c-1-0.6-2.3-1-3.7-1.4c-2.7-0.8-5.8-1.7-6.9-4.3c-1-2.4-0.5-4.9,0.1-6.7c0.6-1.7,1.7-2.9,3.2-3.4c5-1.9,13.3,2.9,18.3,5.7
		c0.5,0.3,1,0.6,1.4,0.8l0,0c0.2,0.1,0.4,0.2,0.6,0.3c5.9,3.1,30.9,20,37.7,25.4c0.7,0.6,1.5,1.2,2.2,1.8c2.1,1.7,4.3,3.6,6.6,5.1
		c8.4,5.6,18.6,7.8,27.5,9.1c0.7,0.1,1.9,0.1,3.1,0.1c3,0,6.3,0,7.7,1.3c2.8,2.7,0.2,8.8-1.1,11.3c-1.1,2.1-2.4,3.5-3.9,4.3
		c-1.4,0.7-3,0.9-4.4,0.9C107.6,145.5,107.1,145.5,106.5,145.5z M15,80.4c-0.7,0-1.4,0.1-2,0.3c-1.1,0.4-1.9,1.2-2.3,2.5
		c-0.5,1.5-1,3.7-0.2,5.6c0.8,2,3.4,2.8,5.9,3.5c1.4,0.4,2.9,0.8,4,1.5c15.5,8.9,29.2,19.2,43.6,30.1c2.6,1.9,5.2,3.9,7.8,5.9
		c13.4,10.1,25.3,14.7,36.4,14.2c1.3-0.1,2.7-0.2,3.8-0.8c1.2-0.6,2.3-1.9,3.3-3.6c1.7-3.3,3.1-7.8,1.4-9.5
		c-0.9-0.9-4.2-0.9-6.6-0.9c-1.4,0-2.5,0-3.4-0.1c-9-1.4-19.4-3.6-28.1-9.4c-2.4-1.6-4.6-3.4-6.8-5.2c-0.7-0.6-1.5-1.2-2.2-1.8
		C63,107.5,37.8,90.5,32,87.5c-0.2-0.1-0.4-0.2-0.6-0.3l0,0c-0.4-0.2-0.9-0.5-1.4-0.8C26.2,84.2,19.5,80.4,15,80.4z"/>
</g>
<g>
	<path class="st3" d="M60.1,119c0.1-7.7-1.7-15.4-5.3-22.1c-1-1.9-3-3-4.2-4.9c5.1,2,10,4.6,15.1,6.7c5,2,10.9,3.6,14.2,8.2
		c0.2,0.3,0.5,0.8,0.3,1.2c-0.1,0.3-0.4,0.5-0.7,0.6C72.9,112.1,67.5,116.8,60.1,119z"/>
	<path class="st2" d="M59.3,120.1l0-1c0.1-7.6-1.7-15.1-5.2-21.8c-0.5-0.9-1.3-1.7-2.1-2.5c-0.7-0.7-1.5-1.4-2-2.3l-1.3-2l2.2,0.9
		c2.7,1,5.3,2.3,7.9,3.5c2.4,1.1,4.8,2.2,7.3,3.2c0.8,0.3,1.7,0.6,2.5,1c4.5,1.7,9.2,3.4,12,7.5c0.2,0.3,0.7,1,0.4,1.9
		c-0.2,0.6-0.8,0.9-1.1,1c-2.4,1.2-4.7,2.6-6.9,4c-3.9,2.4-7.9,4.9-12.7,6.4L59.3,120.1z M53.5,94c0.8,0.7,1.5,1.5,2,2.5
		c3.5,6.6,5.3,14,5.4,21.5c4.2-1.4,7.7-3.6,11.4-5.9c2.2-1.4,4.5-2.8,7-4.1c0.1,0,0.3-0.2,0.4-0.2l0,0c0,0,0-0.1-0.2-0.5
		c-2.6-3.7-7-5.3-11.3-6.9c-0.9-0.3-1.7-0.6-2.5-1c-2.5-1-5-2.2-7.3-3.3C56.6,95.4,55.1,94.7,53.5,94z"/>
</g>
<g>
	<ellipse transform="matrix(0.7071 -0.7071 0.7071 0.7071 -55.0365 35.9716)" class="st12" cx="15.9" cy="84.4" rx="10" ry="8.2"/>
</g>
<g>
	<path class="st13" d="M21.7,87.2c-3.9,3.9-9.7,4.5-12.9,1.3c-1-1-1.7-2.4-1.9-3.8c-0.4,2.5,0.2,5,1.9,6.8c3.2,3.2,9,2.6,12.9-1.3
		c2.6-2.6,3.8-6.1,3.2-9.1C24.6,83.3,23.5,85.4,21.7,87.2z"/>
</g>
<g>
	<path class="st2" d="M14.1,94.3c-2.2,0-4.3-0.7-5.8-2.3c-3.5-3.5-2.9-9.7,1.3-13.9c4.2-4.2,10.4-4.8,13.9-1.3s2.9,9.7-1.3,13.9
		C19.9,93.1,16.9,94.3,14.1,94.3z M17.7,76c-2.4,0-5,1.1-7.1,3.1C7,82.8,6.4,88.1,9.4,91c2.9,2.9,8.2,2.3,11.8-1.3s4.2-8.9,1.3-11.8
		C21.2,76.6,19.5,76,17.7,76z"/>
</g>
<g>
	<ellipse class="st14" cx="17.4" cy="79.6" rx="4.6" ry="3"/>
</g>
<g>
	<g>
		<path d="M45.5,140.9c-0.4,0.3-0.9,0.6-1.4,0.7l13.5,10l0.8-1.1L45.5,140.9z"/>
	</g>
</g>
<g>
	<g>
		<polygon points="79.9,152.7 105.7,137.7 104.5,136.9 79.3,151.5 		"/>
	</g>
</g>
<g>
	<path class="st15" d="M82.4,150.3l-13.2-0.7l-13.2-0.7c0,0-11.9,20.5,12.1,21.8S82.4,150.3,82.4,150.3z"/>
</g>
<g>
	<path class="st2" d="M70,171.5c-0.7,0-1.3,0-2-0.1c-7.4-0.4-12.3-2.7-14.5-6.7c-3.7-6.8,1.5-15.9,1.8-16.3l0.2-0.4l27.4,1.5
		l0.2,0.4c0.2,0.4,4.4,10,0,16.3C80.7,169.8,76.3,171.5,70,171.5z M56.4,149.6c-0.9,1.8-4.4,9.1-1.5,14.4c1.9,3.6,6.4,5.6,13.2,5.9
		c6.8,0.4,11.5-1.1,13.8-4.5c3.4-4.9,0.8-12.6,0-14.5L56.4,149.6z"/>
</g>
<g>
	<path class="st16" d="M56.1,148.9l-0.2,3.7c-0.3,5.2,3.7,9.6,8.9,9.9l7.4,0.4c5.2,0.3,9.6-3.7,9.9-8.9l0.2-3.7L56.1,148.9z"/>
</g>
<g>
	<path class="st2" d="M72.7,163.6c-0.2,0-0.4,0-0.6,0l-7.4-0.4c-2.7-0.1-5.2-1.3-7-3.4c-1.8-2-2.7-4.6-2.6-7.3l0.2-4.5l27.7,1.5
		l-0.2,4.5c-0.1,2.7-1.3,5.2-3.4,7C77.6,162.7,75.2,163.6,72.7,163.6z M56.8,149.6l-0.2,3c-0.3,4.8,3.4,8.8,8.2,9.1l7.4,0.4
		c2.3,0.1,4.5-0.7,6.2-2.2c1.7-1.5,2.7-3.7,2.9-6l0.2-3L56.8,149.6z"/>
</g>
<g>
	<path class="st2" d="M5.8,128.5c6.6,3.9,14,6.4,21.2,8.9c11,3.8,22.5,6.3,34.1,7.5c11.1,1.1,22.2,0.1,33.3,0.3c0.3,0,0.5,0,0.7-0.1
		c1.2-0.5,1.3-2.7,0.4-3.5c-0.8-0.8-3.3-0.4-4.4-0.4c-4.7-0.1-9.4-0.1-14.1-0.2c-9.4-0.1-18.9-0.5-28.1-2.4
		c-13.6-2.9-27-7.2-39.3-14c-0.9-0.5-1.8-1-2.8-0.8c-1,0.2-1.7,1.3-1.6,2.3"/>
</g>
<g>
	<path class="st2" d="M23.2,88.4c0,0,0.5,0,1.3,0.2c0.8,0.2,1.9,0.6,3.1,1.3c1.2,0.6,2.7,1.4,4.2,2.2c1.5,0.9,3.1,1.8,4.6,2.8
		l1.1,0.8c0.4,0.3,0.7,0.6,1.1,0.8c0.7,0.5,1.4,1.1,2.1,1.6c1.4,1.1,2.6,2.1,3.7,3c1.1,0.9,1.9,1.6,2.5,2.2c0.6,0.5,0.9,0.9,0.9,0.9
		s-0.4-0.2-1.1-0.6c-0.7-0.4-1.7-1-2.9-1.7c-1.2-0.7-2.5-1.6-3.9-2.6c-0.7-0.5-1.5-1-2.2-1.5c-0.4-0.3-0.7-0.5-1.1-0.8l-1.1-0.8
		c-3.1-2-6.1-4-8.4-5.6c-1.1-0.8-2.1-1.4-2.8-1.7C23.7,88.5,23.2,88.4,23.2,88.4z"/>
</g>
<g>
	<path class="st2" d="M23.7,167.8c0,0,0.3-0.1,0.9-0.2c0.6-0.1,1.5-0.2,2.6-0.2c2.2,0,5.4,0.6,9,1.9c1.8,0.7,3.6,1.4,5.7,1.9
		c2,0.5,4.2,0.9,6.5,1.2c2.3,0.3,4.7,0.5,7.2,0.8c2.5,0.3,4.9,0.5,7.4,0.7c2.5,0.2,5,0.3,7.4,0.3c2.4,0,4.8,0,7.1-0.3
		c2.3-0.2,4.5-0.6,6.5-1.1c1-0.3,2-0.6,2.9-0.9c0.9-0.4,1.8-0.7,2.7-1.1c0.8-0.4,1.6-0.8,2.3-1.2c0.7-0.5,1.4-0.9,2-1.3
		c1.1-1,2.2-1.8,2.9-2.6c0.4-0.4,0.7-0.8,1-1.1c0.3-0.3,0.4-0.6,0.4-0.9c0-0.3-0.1-0.5-0.3-0.5c-0.1,0-0.2,0-0.2,0
		c0,0,0.1-0.1,0.2-0.1c0.2,0,0.3,0.3,0.4,0.6c0,0.3,0,0.7-0.3,1.1c-0.3,0.3-0.6,0.7-0.9,1.2c-0.6,0.9-1.6,1.8-2.7,2.9
		c-0.6,0.5-1.3,1-1.9,1.5c-0.7,0.5-1.5,0.9-2.3,1.5c-0.8,0.5-1.8,0.9-2.7,1.3c-1,0.4-2,0.7-3,1.1c-2.1,0.6-4.4,1.2-6.7,1.4
		c-0.6,0.1-1.2,0.2-1.8,0.2c-0.6,0-1.2,0.1-1.8,0.1c-1.2,0.1-2.5,0.1-3.7,0.2c-2.5,0-5-0.1-7.5-0.3c-2.5-0.2-5-0.5-7.5-0.8
		c-2.4-0.3-4.9-0.6-7.2-1c-2.3-0.4-4.6-0.9-6.7-1.6c-1-0.3-2.1-0.7-3-1.1c-0.9-0.4-1.8-0.8-2.7-1.2c-1.7-0.7-3.3-1.3-4.7-1.8
		c-1.4-0.4-2.7-0.7-3.8-0.8c-1.1-0.1-1.9-0.1-2.5-0.1C24,167.8,23.7,167.8,23.7,167.8z"/>
</g>
<g>
	<path class="st2" d="M24.4,148c0,0,0.2,0.3,0.4,0.9c0.3,0.6,0.7,1.4,1.2,2.3c0.3,0.5,0.6,0.9,0.9,1.5c0.3,0.5,0.7,1,1.1,1.5
		c0.4,0.5,0.9,1,1.3,1.5c0.5,0.5,1,1,1.5,1.5c0.6,0.5,1.1,0.9,1.6,1.4c0.6,0.4,1.1,0.8,1.6,1.2c1.1,0.8,2.2,1.4,3.1,1.9
		c0.9,0.5,1.8,1,2.3,1.2c0.6,0.3,0.9,0.5,0.9,0.5s-0.4,0-1-0.1c-0.7-0.1-1.6-0.2-2.7-0.6c-1.1-0.3-2.3-0.8-3.6-1.5
		c-0.6-0.4-1.3-0.7-1.9-1.2c-0.6-0.4-1.2-1-1.8-1.4c-0.6-0.6-1.1-1.1-1.6-1.7c-0.5-0.6-0.9-1.2-1.3-1.8c-0.8-1.2-1.3-2.4-1.7-3.5
		c-0.4-1.1-0.5-2-0.6-2.7c0-0.3,0-0.6,0-0.8C24.4,148.1,24.4,148,24.4,148z"/>
</g>
<g>
	<path class="st0" d="M109.2,140.8c4.8,6.8,12.1,13.1,20.6,14.8c2.8,0.5,5.1,0.3,7-1.7c1.6-1.7,2.8-4.1,1.6-6.3
		c-3.5-6.2-10.5-10.3-16.1-14.5"/>
</g>
<g>
	<path class="st1" d="M131.9,151.6c2.7,0.5,5,0.3,6.9-1.6c-0.2,1.4-1,2.8-2.1,3.9c-2,2-4.3,2.3-7,1.7c-8.4-1.6-15.8-8-20.6-14.8
		l3.5-2.1C117.5,144.8,124.3,150.1,131.9,151.6z"/>
</g>
<g>
	<path class="st2" d="M109.2,140.8c0,0,0.2,0.2,0.4,0.5c0.3,0.4,0.7,0.9,1.3,1.5c0.6,0.6,1.2,1.4,2.1,2.2c0.8,0.8,1.8,1.7,2.9,2.7
		c1.1,0.9,2.4,1.9,3.7,2.8c1.4,0.9,2.9,1.7,4.5,2.5c1.6,0.8,3.4,1.3,5.2,1.7c1.8,0.4,3.7,0.6,5.2-0.2c0.8-0.4,1.4-0.9,2.1-1.6
		c0.6-0.6,1.1-1.4,1.3-2.2c0.3-0.8,0.3-1.6,0-2.3c0-0.2-0.2-0.4-0.2-0.5l-0.4-0.6c-0.2-0.4-0.5-0.8-0.7-1.1c-1-1.4-2.2-2.7-3.3-3.9
		c-1.2-1.2-2.4-2.2-3.5-3.1c-2.2-1.8-4.2-3.3-5.5-4.4c-1.3-1.1-2.1-1.7-2.1-1.7s0.8,0.5,2.2,1.5c1.4,0.9,3.5,2.2,5.9,3.9
		c1.2,0.9,2.5,1.8,3.7,3c1.3,1.1,2.5,2.4,3.6,4c0.3,0.4,0.6,0.8,0.8,1.2l0.4,0.6c0.1,0.3,0.3,0.5,0.4,0.8c0.4,1,0.4,2.2,0,3.3
		c-0.3,1-0.9,1.9-1.6,2.7c-0.7,0.8-1.5,1.5-2.5,2c-2,0.9-4.3,0.7-6.2,0.2c-1.9-0.4-3.8-1.1-5.4-1.9c-3.4-1.6-6.1-3.8-8.3-5.8
		c-1.1-1-2-2-2.7-2.9c-0.8-0.9-1.4-1.7-1.9-2.4c-0.5-0.7-0.9-1.3-1.1-1.6C109.4,141,109.2,140.8,109.2,140.8z"/>
</g>
<g id="XMLID_26_">
	<g id="XMLID_66_">
		<polygon class="st17" points="165.2,98.8 138,117.4 140.5,122.3 166.5,100.6 		"/>
		<path d="M140.5,123.1c0,0-0.1,0-0.1,0c-0.2,0-0.4-0.2-0.5-0.4l-2.5-4.9c-0.2-0.3-0.1-0.8,0.2-1l27.2-18.7c0.3-0.2,0.8-0.1,1,0.2
			l1.3,1.9c0.2,0.3,0.2,0.8-0.1,1l-26,21.7C140.8,123,140.7,123.1,140.5,123.1z M138.9,117.7l1.8,3.5l24.8-20.7l-0.5-0.7
			L138.9,117.7z"/>
	</g>
	<g id="XMLID_65_">
		<path class="st18" d="M67.8,122.5c11.1-15.1,24.7-23.2,32.9-21.8c10.2,1.7,30.5,9.1,37.1,24.6c7.1,16.4-15.4,35.4-21.6,36.2
			c-17.2,2.1-40.8-19.6-41.8-35.2l-29,33.6l-3.1-2.1L67.8,122.5z"/>
	</g>
	<g id="XMLID_60_">
		<defs>
			<path id="SVGID_5_" d="M67.8,122.5c11.1-15.1,24.7-23.2,32.9-21.8c10.2,1.7,30.5,9.1,37.1,24.6c7.1,16.4-15.4,35.4-21.6,36.2
				c-17.2,2.1-40.8-19.6-41.8-35.2l-29,33.6l-3.1-2.1L67.8,122.5z"/>
		</defs>
		<clipPath id="SVGID_6_">
			<use xlink:href="#SVGID_5_"  style="overflow:visible;"/>
		</clipPath>
		<g id="XMLID_62_" class="st19">
			<g id="XMLID_64_">
				<path class="st20" d="M67.8,122.5c11.1-15.1,24.7-23.2,32.9-21.8c10.2,1.7,30.5,9.1,37.1,24.6c1.6,3.8,1.7,7.8,0.7,11.6
					c-0.2-1.4-0.6-2.8-1.2-4.2c-6.6-15.4-26.9-22.9-37.1-24.6c-8.3-1.4-21.8,6.7-32.9,21.8l-20.1,27.9l-1.7,2l-3.1-2.1L67.8,122.5z"
					/>
			</g>
			<g id="XMLID_63_">
				<path class="st21" d="M138.2,138c-3.7,12.2-17.3,22.8-22,23.4c-17.2,2.1-40.8-19.6-41.8-35.2l3.9-4.5
					c3.4,15.3,25.2,34.3,41.4,32.4C123.4,153.6,132.7,146.8,138.2,138z"/>
			</g>
		</g>
	</g>
	<g id="XMLID_58_">
		<defs>
			<path id="SVGID_7_" d="M113.9,162.3c-7.4,0-16-3.7-24.1-10.5c-8.7-7.3-14.6-16.2-15.8-23.8l-28.3,32.8l-4.3-2.9L67.2,122
				c10.7-14.5,24.5-23.6,33.6-22.1c10,1.6,30.8,9,37.7,25c2.5,5.8,1.7,12.5-2.3,19.5c-5.5,9.5-15.7,17.2-19.8,17.7
				C115.5,162.2,114.7,162.3,113.9,162.3z M75.1,124.3l0.1,1.8c0.5,7.5,6.6,17.1,15.5,24.5c8.6,7.1,18.1,10.9,25.5,10
				c3.3-0.4,13.2-7.3,18.7-16.9c2.6-4.6,5.2-11.4,2.3-18.2c-2.8-6.6-8.7-12.5-16.9-17.1c-9-5-17.3-6.7-19.7-7
				c-9.6-1.6-23.4,9.6-32.2,21.5l-25,34.6l1.9,1.3L75.1,124.3z"/>
		</defs>
		<use xlink:href="#SVGID_7_"  style="overflow:visible;"/>
		<clipPath id="SVGID_8_">
			<use xlink:href="#SVGID_7_"  style="overflow:visible;"/>
		</clipPath>
	</g>
	<g id="XMLID_57_">
		<polygon class="st22" points="68.9,132.6 45.5,159.8 42.4,157.8 63.5,128.5 		"/>
		<path d="M45.6,160.8l-4.3-2.9l22-30.5l6.7,5L45.6,160.8z M43.4,157.6l1.9,1.3l22.5-26.1l-4.2-3.1L43.4,157.6z"/>
	</g>
	<g id="XMLID_56_">
		<polygon class="st17" points="152.4,82.1 126.3,106.6 129.6,110.5 154,83.7 		"/>
		<path d="M129.6,111.3C129.6,111.3,129.6,111.3,129.6,111.3c-0.2,0-0.4-0.1-0.6-0.3l-3.3-3.9c-0.3-0.3-0.2-0.8,0.1-1l26.1-24.4
			c0.3-0.3,0.8-0.3,1,0l1.6,1.6c0.3,0.3,0.3,0.7,0,1L130.2,111C130.1,111.2,129.9,111.3,129.6,111.3z M127.4,106.6l2.3,2.7L153,83.8
			l-0.6-0.6L127.4,106.6z"/>
	</g>
	<g id="XMLID_55_">
		<polygon class="st17" points="142,132.7 165.9,130 166,131.6 142,139 		"/>
		<path d="M142,139.7c-0.2,0-0.3-0.1-0.4-0.1c-0.2-0.1-0.3-0.4-0.3-0.6l0-6.2c0-0.4,0.3-0.7,0.7-0.7l23.9-2.7c0.2,0,0.4,0,0.6,0.2
			c0.2,0.1,0.3,0.3,0.3,0.5l0.1,1.6c0,0.3-0.2,0.6-0.5,0.7l-23.9,7.3C142.2,139.7,142.1,139.7,142,139.7z M142.8,133.4l0,4.5
			l22.4-6.9l0-0.2L142.8,133.4z"/>
	</g>
	<g>
		<g id="XMLID_54_">
			<path class="st17" d="M104.5,79l7.1,24.2l-7.1,0.3l-3.2-24.1C102.2,78.5,103.6,78.5,104.5,79z"/>
			<path d="M104.5,104.2c-0.4,0-0.7-0.3-0.7-0.7l-3.2-24.1c0-0.3,0.1-0.5,0.3-0.7c1.3-1.1,3-1,4.1-0.4c0.2,0.1,0.3,0.3,0.4,0.5
				l7.1,24.2c0.1,0.2,0,0.5-0.1,0.6c-0.1,0.2-0.3,0.3-0.6,0.3L104.5,104.2C104.5,104.2,104.5,104.2,104.5,104.2z M102.1,79.7l3.1,23
				l5.5-0.2l-6.7-22.9C103.4,79.4,102.7,79.4,102.1,79.7z"/>
		</g>
		<g id="XMLID_53_">
			<path class="st23" d="M109.4,101.6l-3.2-11l-0.2-0.8l-1.7-5.6l-0.2-0.8l-0.6-1.9l-0.8-2.8c0.7-0.1,1.3,0,1.9,0.3l0.6,2.2l0.6,1.9
				l0.1,0.4l2.1,7.2l0.1,0.2l3.3,11.1C110.7,101.8,110,101.7,109.4,101.6z"/>
		</g>
		<g id="XMLID_52_">
			<path d="M111.1,102.2c-0.3,0-0.6-0.2-0.7-0.5l-6.5-22.1c-0.5-0.2-1.2-0.2-1.8,0.1l2.8,21.1c0.1,0.4-0.2,0.8-0.6,0.8
				c-0.4,0.1-0.8-0.2-0.8-0.6l-2.9-21.6c0-0.3,0.1-0.5,0.3-0.7c1.3-1.1,3-1,4.1-0.4c0.2,0.1,0.3,0.3,0.4,0.5l6.6,22.5
				c0.1,0.4-0.1,0.8-0.5,0.9C111.3,102.2,111.2,102.2,111.1,102.2z"/>
		</g>
	</g>
	<g id="XMLID_51_">
		<path class="st24" d="M107.1,93.3c-0.8,0-1.6,0-2.4,0.2l-4,5.5l-1.1,1.5l-1,1.4l3,0.8l1.2-1.7l0.1-0.2l4.3-6.2l0.9-1.2
			C107.8,93.4,107.5,93.4,107.1,93.3z"/>
	</g>
	<g id="XMLID_50_">
		<path class="st17" d="M96.5,102l6.2-8.4c3.8-0.8,8.3,1.1,10.5,3.6l-2.1,8.6L96.5,102z"/>
		<path d="M111.8,106.6l-16.5-4.2l7-9.6l0.3-0.1c4.2-0.9,8.9,1.3,11.2,3.8l0.3,0.3L111.8,106.6z M97.8,101.5l12.9,3.3l1.8-7.5
			c-2-2-5.8-3.7-9.3-3.1L97.8,101.5z"/>
	</g>
	<g id="XMLID_49_">
		<polygon class="st17" points="118.6,108.7 126,103.9 133.4,111.5 129.1,119.2 		"/>
		<path d="M129.2,120.5l-11.8-11.9l8.7-5.6l8.2,8.4L129.2,120.5z M119.8,108.8l9.1,9.2l3.6-6.4l-6.6-6.7L119.8,108.8z"/>
	</g>
	<g id="XMLID_28_">
		<polygon class="st17" points="135.7,131.9 143.4,131.5 143.1,139.4 134.4,142 		"/>
		<path d="M133.5,143l1.5-11.9l9.1-0.5l-0.3,9.3L133.5,143z M136.4,132.6l-1.1,8.4l7.1-2.1l0.2-6.6L136.4,132.6z"/>
	</g>
	<g id="XMLID_27_">
		<polygon class="st17" points="131.4,119.2 138.2,115.8 142.3,121.9 135.4,129.3 		"/>
		<path d="M135.1,130.7l-4.7-11.9l8.1-4l4.7,7.1L135.1,130.7z M132.3,119.6l3.3,8.4l5.7-6.1l-3.4-5.1L132.3,119.6z"/>
	</g>
</g>
<g id="tith_6_">
	<path class="st3" d="M103.5,81h-1.4c-2,0-3.7-1.7-3.7-3.7v-1.4c0-2,1.7-3.7,3.7-3.7h1.4c2,0,3.7,1.7,3.7,3.7v1.4
		C107.2,79.4,105.5,81,103.5,81z"/>
</g>
<g>
	<path class="st25" d="M107.2,77.5c0-0.1,0-0.1,0-0.2v-1.4c0-2-1.7-3.7-3.7-3.7h-1.4c-2,0-3.7,1.7-3.7,3.7v1.4c0,0.1,0,0.3,0,0.4
		C100.8,76.7,104.7,76.3,107.2,77.5z"/>
</g>
<g id="tith_5_">
	<path class="st2" d="M107.1,74.5c0,0,0,0.1,0.1,0.2c0.1,0.1,0.1,0.3,0.2,0.6c0.1,0.5,0.2,1.3,0.3,2.1c0,0.1,0,0.2,0,0.4
		c0,0.1,0,0.2,0,0.4c0,0.3-0.1,0.6-0.1,0.9c-0.2,0.6-0.5,1.1-0.9,1.6c-0.5,0.5-1.1,0.8-1.7,1c-0.3,0.1-0.7,0.1-1,0.1l-0.9,0l-0.9,0
		l-0.5,0c-0.1,0-0.3,0-0.5,0c-0.7-0.1-1.3-0.4-1.8-0.9c-0.5-0.4-0.8-1-1-1.5C98,78.7,98,78.1,98,77.6c0.1-0.9,0.2-1.6,0.2-2.1
		c0.1-0.3,0.1-0.5,0.2-0.6c0-0.1,0.1-0.2,0.1-0.2s0,0.3,0,0.8c0.1,0.5,0.2,1.3,0.2,2.1c0,0.4,0.1,0.8,0.3,1.2c0.2,0.4,0.5,0.7,0.9,1
		c0.4,0.3,0.8,0.4,1.3,0.5c0.1,0,0.2,0,0.4,0l0.4,0l0.9,0l0.9,0c0.3,0,0.5,0,0.7-0.1c0.5-0.1,0.9-0.3,1.2-0.6c0.3-0.3,0.6-0.7,0.8-1
		c0.1-0.2,0.1-0.4,0.2-0.6c0-0.1,0-0.2,0.1-0.3c0-0.1,0-0.2,0-0.3c0.1-0.9,0.2-1.6,0.2-2.1C107.1,74.8,107.1,74.5,107.1,74.5z"/>
</g>
<g>
	<path class="st26" d="M112,72c0.1-0.9-0.3-1.9-0.9-2.5c-0.6-0.6-1.4-1-2.1-1.3c-1-0.4-2.1-0.7-3.1-0.9c-1.1-0.2-2-0.2-3-0.1
		c-1-0.1-1.9-0.1-3,0.1c-1.1,0.2-2.1,0.5-3.1,0.9c-0.8,0.3-1.5,0.7-2.1,1.3s-1,1.6-0.9,2.5c0,0.1,0,0.1,0,0.2
		c-0.1,0.9,0,1.9,0.6,2.5c1.2,1.4,2.7,1,4.2,0.9c1.5-0.1,2.9-0.5,4.4-0.7c1.5,0.2,2.9,0.6,4.4,0.7c1.4,0.1,3,0.5,4.2-0.9
		c0.6-0.7,0.7-1.6,0.6-2.5C112,72.1,112,72,112,72z"/>
</g>
<g>
	<path class="st27" d="M99,73.9c-0.5,0-0.8-0.1-1.1-0.3c-0.4-0.2-0.7-0.4-1.1-0.8c-0.6-0.7-0.7-1.6-0.6-2.5c0-0.1,0-0.1,0-0.2
		c-0.1-0.8,0.2-1.5,0.7-2.1c-0.1,0-0.2,0.1-0.2,0.1c-0.8,0.3-1.5,0.7-2.1,1.3c-0.6,0.6-1,1.6-0.9,2.5c0,0.1,0,0.1,0,0.2
		c-0.1,0.9,0,1.9,0.6,2.5c1.2,1.4,2.7,1,4.2,0.9c1.5-0.1,2.9-0.5,4.4-0.7c1.5,0.2,2.9,0.6,4.4,0.7c1.4,0.1,2.9,0.4,4-0.7
		C107.2,73.9,103.2,73.6,99,73.9z"/>
</g>
<g>
	<path class="st2" d="M112,72c0.1-1-0.4-1.9-1-2.6c-0.7-0.7-1.6-1-2.5-1.3c-0.9-0.3-1.8-0.5-2.8-0.6c-0.9-0.1-1.9-0.1-2.8,0l0,0l0,0
		c-1,0-1.9,0-2.8,0.2c-0.9,0.2-1.8,0.5-2.7,0.9c-0.9,0.4-1.7,0.8-2.2,1.4L94.9,70l-0.1,0.1c-0.1,0.1-0.1,0.2-0.2,0.2
		c-0.1,0.2-0.2,0.4-0.3,0.5c-0.1,0.2-0.1,0.4-0.1,0.6c0,0.2,0,0.4,0,0.6l0,0.1l0,0.1c-0.1,0.4,0,0.8,0,1.2c0,0.2,0.1,0.4,0.2,0.5
		c0,0.1,0.1,0.2,0.1,0.2l0.1,0.1l0.1,0.1c0.1,0.1,0.1,0.1,0.2,0.2c0.1,0.1,0.1,0.1,0.2,0.2c0.2,0.1,0.3,0.2,0.5,0.2
		c0.4,0.1,0.8,0.1,1.2,0.1l1.4-0.1c0.5,0,0.9-0.1,1.4-0.1c0.9-0.1,1.9-0.3,2.9-0.4l0.1,0l0,0c1,0.2,1.9,0.4,2.9,0.6
		c0.5,0.1,0.9,0.2,1.4,0.3c0.5,0.1,1,0.2,1.4,0.2c0.5,0,1,0,1.4-0.1c0.5-0.1,0.9-0.3,1.2-0.7c0.7-0.7,0.9-1.7,0.8-2.7l0,0L112,72z
		 M112,72l0,0.2v0c0.1,0.9,0,2-0.7,2.7c-0.3,0.4-0.8,0.6-1.2,0.8c-0.5,0.1-1,0.2-1.5,0.2c-1,0-1.9-0.1-2.9-0.2
		c-1-0.1-1.9-0.3-2.9-0.4l0.1,0c-0.9,0.2-1.9,0.4-2.8,0.6c-0.5,0.1-1,0.2-1.5,0.3c-0.5,0.1-1,0.2-1.5,0.2c-0.5,0-1.1,0-1.6-0.1
		c-0.3-0.1-0.6-0.2-0.8-0.3c-0.1-0.1-0.3-0.2-0.4-0.3c-0.1-0.1-0.3-0.2-0.3-0.3l-0.1-0.1c-0.1-0.1-0.1-0.1-0.2-0.2
		c-0.1-0.1-0.2-0.2-0.2-0.4c-0.1-0.3-0.3-0.5-0.3-0.8c-0.1-0.6-0.2-1.1-0.1-1.7l0,0.2c-0.1-0.3,0-0.6,0-0.9c0-0.3,0.1-0.6,0.2-0.9
		c0.1-0.3,0.2-0.5,0.4-0.8c0.1-0.1,0.2-0.2,0.2-0.4l0.1-0.2l0.1-0.1c0.8-0.8,1.8-1.2,2.8-1.6c1-0.3,1.9-0.5,2.9-0.7c1-0.1,2-0.1,3,0
		h0c1,0,2,0,2.9,0.2c1,0.2,1.9,0.5,2.8,0.9c0.9,0.4,1.8,0.8,2.5,1.5C111.7,70,112.1,71,112,72z"/>
</g>
<g>
	<path class="st2" d="M93.6,72c-0.1-1,0.3-1.9,1-2.6c0.7-0.7,1.6-1.1,2.5-1.5c0.9-0.4,1.8-0.7,2.8-0.9c1-0.2,2-0.3,2.9-0.2h0
		c1-0.1,2-0.1,3,0c1,0.1,2,0.4,2.9,0.7c0.9,0.3,2,0.7,2.8,1.6l0.1,0.1l0.1,0.2c0.1,0.1,0.2,0.2,0.2,0.4c0.2,0.2,0.3,0.5,0.4,0.8
		c0.1,0.3,0.2,0.6,0.2,0.9c0,0.3,0,0.6,0,0.9l0-0.2c0.1,0.5,0.1,1.1-0.1,1.7c-0.1,0.3-0.2,0.6-0.3,0.8c-0.1,0.1-0.2,0.3-0.2,0.4
		c-0.1,0.1-0.1,0.1-0.2,0.2l-0.1,0.1c-0.1,0.1-0.2,0.2-0.3,0.3c-0.1,0.1-0.2,0.2-0.4,0.3c-0.3,0.1-0.5,0.3-0.8,0.3
		c-0.6,0.1-1.1,0.1-1.6,0.1c-0.5,0-1-0.1-1.5-0.2c-0.5-0.1-1-0.2-1.5-0.3c-1-0.2-1.9-0.4-2.8-0.6l0.1,0c-0.9,0.1-1.9,0.2-2.9,0.4
		c-1,0.1-1.9,0.2-2.9,0.2c-0.5,0-1,0-1.5-0.2c-0.5-0.1-0.9-0.4-1.2-0.8c-0.7-0.7-0.9-1.8-0.7-2.7v0L93.6,72z M93.6,72l0,0.2l0,0
		c-0.1,0.9,0.1,2,0.8,2.7c0.3,0.3,0.8,0.6,1.2,0.7c0.5,0.1,0.9,0.1,1.4,0.1c0.5,0,1-0.1,1.4-0.2c0.5-0.1,0.9-0.2,1.4-0.3
		c0.9-0.2,1.9-0.4,2.9-0.6l0,0l0.1,0c1,0.1,1.9,0.2,2.9,0.4c0.5,0.1,0.9,0.1,1.4,0.1l1.4,0.1c0.4,0,0.9,0,1.2-0.1
		c0.2-0.1,0.4-0.1,0.5-0.2c0.1-0.1,0.2-0.1,0.2-0.2c0.1-0.1,0.1-0.1,0.2-0.2l0.1-0.1l0.1-0.1c0.1-0.1,0.1-0.1,0.1-0.2
		c0.1-0.2,0.1-0.3,0.2-0.5c0.1-0.4,0.1-0.8,0-1.2l0-0.1l0-0.1c0.1-0.2,0-0.4,0-0.6c0-0.2-0.1-0.4-0.1-0.6c-0.1-0.2-0.2-0.4-0.3-0.5
		c-0.1-0.1-0.1-0.2-0.2-0.2l-0.1-0.1l-0.1-0.1c-0.5-0.6-1.4-1-2.2-1.4c-0.9-0.4-1.8-0.7-2.7-0.9c-0.9-0.2-1.9-0.3-2.8-0.2l0,0l0,0
		c-0.9-0.1-1.9-0.1-2.8,0c-0.9,0.1-1.9,0.3-2.8,0.6c-0.9,0.3-1.8,0.7-2.5,1.3C94,70,93.5,71,93.6,72z"/>
</g>
<g>
	<path class="st28" d="M105.2,65.5c-0.1,0-0.1,0-0.2,0c-0.5,0-3,0-3.6,0c-0.1,0-0.2,0-0.2,0c-2.7-0.1-2.4,2.5-0.8,3.6
		c0.7,0.5,1.7,0.6,2.6,0.6c0.1,0,0.1,0,0.2,0c0.1,0,0.1,0,0.2,0c0.9,0,1.9-0.1,2.6-0.6C107.6,68,107.9,65.4,105.2,65.5z"/>
</g>
<g>
	<path class="st29" d="M106,67.4c-0.7,0.5-1.7,0.6-2.6,0.6c-0.1,0-0.1,0-0.2,0c-0.1,0-0.1,0-0.2,0c-0.9,0-1.9-0.1-2.6-0.6
		c-0.4-0.3-0.8-0.7-1-1.2c-0.6,0.8-0.1,2.2,1,2.9c0.7,0.5,1.7,0.6,2.6,0.6c0.1,0,0.1,0,0.2,0c0.1,0,0.1,0,0.2,0
		c0.9,0,1.9-0.1,2.6-0.6c1.1-0.7,1.6-2.1,1-2.9C106.8,66.6,106.4,67.1,106,67.4z"/>
</g>
<g>
	<path class="st2" d="M105.2,65.5c-1,0-2.1,0-3.1,0.1l-0.8,0.1c-0.1,0-0.2,0-0.4,0c-0.1,0-0.3,0-0.4,0.1c-0.2,0.1-0.4,0.1-0.6,0.3
		c-0.2,0.1-0.3,0.3-0.3,0.4c-0.2,0.7,0.3,1.5,0.9,2l0.1,0.1c0.1,0,0.1,0.1,0.2,0.1c0.1,0,0.2,0.1,0.3,0.1c0.2,0.1,0.4,0.1,0.6,0.2
		c0.2,0,0.5,0.1,0.7,0.1c0.2,0,0.5,0,0.7,0l0,0l0,0c0.3,0,0.7,0,1,0c0.3,0,0.6,0,0.9-0.1c0.1,0,0.3-0.1,0.4-0.1
		c0.2-0.1,0.2-0.1,0.4-0.2c0.2-0.1,0.2-0.2,0.4-0.3c0.1-0.1,0.2-0.2,0.3-0.3c0.2-0.3,0.4-0.5,0.4-0.9c0-0.2,0.1-0.3,0-0.5
		c0-0.2-0.1-0.3-0.1-0.5c-0.1-0.2-0.2-0.3-0.3-0.4c-0.1-0.1-0.3-0.2-0.4-0.2C105.9,65.5,105.5,65.5,105.2,65.5z M105.2,65.5
		c0.3,0,0.7,0,1,0.1c0.2,0,0.3,0.1,0.5,0.2c0.1,0.1,0.3,0.2,0.4,0.4c0.1,0.2,0.2,0.3,0.2,0.5c0,0.2,0,0.4,0,0.5
		c0,0.4-0.1,0.7-0.3,1.1c-0.1,0.2-0.2,0.3-0.3,0.5c-0.1,0.1-0.3,0.3-0.4,0.4c-0.1,0.1-0.3,0.3-0.5,0.4c-0.2,0.1-0.3,0.2-0.5,0.3
		c-0.4,0.1-0.7,0.2-1.1,0.3c-0.4,0.1-0.7,0.1-1.1,0.1l0,0c-0.3,0-0.5,0-0.8,0c-0.3,0-0.6,0-0.8-0.1c-0.3,0-0.6-0.1-0.9-0.2
		c-0.1-0.1-0.3-0.1-0.4-0.2l-0.2-0.1l-0.2-0.2c-0.5-0.4-0.8-0.9-1.1-1.5c-0.1-0.3-0.2-0.6-0.1-0.9c0-0.3,0.1-0.7,0.3-1
		c0.2-0.3,0.5-0.5,0.7-0.6c0.3-0.1,0.6-0.2,0.9-0.2c0.3,0,0.5,0,0.8,0l0.8,0.1C103.1,65.5,104.2,65.5,105.2,65.5z"/>
</g>
<g>
	<path class="st2" d="M101.2,65.5c1,0,2.1,0,3.1-0.1l0.8-0.1c0.3,0,0.5-0.1,0.8,0c0.3,0,0.6,0.1,0.9,0.2c0.3,0.1,0.6,0.4,0.7,0.6
		c0.2,0.3,0.3,0.6,0.3,1c0,0.3,0,0.6-0.1,0.9c-0.2,0.6-0.6,1.1-1.1,1.5l-0.2,0.2l-0.2,0.1c-0.2,0.1-0.3,0.2-0.4,0.2
		c-0.3,0.1-0.6,0.2-0.9,0.2c-0.3,0-0.6,0.1-0.8,0.1c-0.3,0-0.5,0-0.8,0l0,0c-0.4,0-0.7,0-1.1-0.1c-0.4-0.1-0.7-0.1-1.1-0.3
		c-0.2-0.1-0.4-0.2-0.5-0.3c-0.2-0.1-0.3-0.3-0.5-0.4c-0.1-0.1-0.3-0.3-0.4-0.4c-0.1-0.2-0.2-0.3-0.3-0.5c-0.2-0.3-0.3-0.7-0.3-1.1
		c0-0.2,0-0.4,0-0.5c0-0.2,0.1-0.4,0.2-0.5c0.1-0.2,0.2-0.3,0.4-0.4c0.2-0.1,0.3-0.2,0.5-0.2C100.5,65.5,100.8,65.5,101.2,65.5z
		 M101.2,65.5c-0.3,0-0.7,0-1,0.2c-0.2,0.1-0.3,0.1-0.4,0.2c-0.1,0.1-0.2,0.2-0.3,0.4c-0.1,0.1-0.1,0.3-0.1,0.5c0,0.2,0,0.3,0,0.5
		c0.1,0.3,0.2,0.6,0.4,0.9c0.1,0.1,0.2,0.2,0.3,0.3c0.1,0.1,0.2,0.2,0.4,0.3c0.2,0.1,0.2,0.1,0.4,0.2c0.1,0,0.3,0.1,0.4,0.1
		c0.3,0.1,0.6,0.1,0.9,0.1c0.3,0,0.7,0,1,0l0,0l0,0c0.2,0,0.5,0,0.7,0c0.2,0,0.5-0.1,0.7-0.1c0.2,0,0.4-0.1,0.6-0.2
		c0.1,0,0.2-0.1,0.3-0.1c0,0,0.1-0.1,0.2-0.1l0.1-0.1c0.6-0.5,1.2-1.3,0.9-2c-0.1-0.2-0.2-0.3-0.3-0.4c-0.2-0.1-0.4-0.2-0.6-0.3
		c-0.1,0-0.2,0-0.4-0.1c-0.1,0-0.2,0-0.4,0l-0.8-0.1C103.2,65.6,102.2,65.5,101.2,65.5z"/>
</g>
<g>
	<rect x="102.6" y="74.8" class="st2" width="1" height="6.5"/>
</g>
<g>
	<path class="st0" d="M35.9,122c2,8.1,6.6,16.6,13.9,21.2c2.4,1.5,4.6,2.1,7.2,0.9c2.1-1,4.1-2.8,3.7-5.3
		c-1.1-7.1-6.1-13.4-9.8-19.3"/>
</g>
<g>
	<path class="st1" d="M53.1,140.3c2.3,1.5,4.5,2.1,7.1,1c-0.7,1.3-2,2.2-3.3,2.9c-2.6,1.2-4.8,0.6-7.2-0.9
		c-6.8-4.3-11.2-11.9-13.4-19.5c-0.3-1.1-0.5-2.1-0.3-3.2c0.1-0.6,0.4-1.1,0.8-1.5c0.5-0.4,1.1-0.4,1.6-0.1c0.2,0.1,0.4,0.3,0.5,0.5
		c1.1,1.6,1.5,3.7,2.2,5.5c0.8,1.9,1.7,3.8,2.8,5.6c2.1,3.5,4.8,6.8,8.2,9.2C52.4,139.8,52.8,140.1,53.1,140.3z"/>
</g>
<g>
	<path class="st2" d="M35.9,122c0,0,0.1,0.2,0.2,0.7c0.1,0.4,0.4,1.1,0.6,1.9c0.3,0.8,0.7,1.8,1.1,2.8c0.5,1.1,1.1,2.3,1.7,3.5
		c0.7,1.3,1.5,2.6,2.5,3.9c1,1.3,2.1,2.7,3.3,3.9c1.2,1.3,2.7,2.4,4.2,3.5c1.5,1,3.2,1.8,4.9,1.7c0.9-0.1,1.7-0.3,2.5-0.7
		c0.8-0.4,1.5-0.9,2-1.6c0.5-0.6,0.9-1.4,0.9-2.2c0-0.2,0-0.4,0-0.6l-0.1-0.7c-0.1-0.5-0.2-0.9-0.3-1.3c-0.4-1.7-1-3.3-1.7-4.8
		c-0.7-1.5-1.4-2.9-2.1-4.2c-1.4-2.5-2.7-4.6-3.6-6.1c-0.9-1.5-1.3-2.3-1.3-2.3s0.6,0.8,1.6,2.2c1,1.4,2.5,3.3,4.1,5.8
		c0.8,1.2,1.6,2.6,2.4,4.1c0.8,1.5,1.5,3.2,2,5c0.1,0.5,0.2,0.9,0.3,1.4l0.1,0.7c0,0.3,0.1,0.6,0.1,0.8c0,1.1-0.5,2.2-1.1,3
		c-0.7,0.8-1.5,1.5-2.5,2c-0.9,0.5-2,0.9-3.1,0.9c-2.2,0.1-4.3-0.9-5.8-2c-1.6-1.1-3.1-2.4-4.4-3.8c-2.6-2.7-4.3-5.7-5.6-8.4
		c-0.6-1.3-1.1-2.6-1.5-3.7c-0.4-1.1-0.7-2.1-0.9-3c-0.2-0.8-0.4-1.5-0.4-1.9C35.9,122.2,35.9,122,35.9,122z"/>
</g>
<g>
	<path class="st3" d="M33.6,115.9c1.6,6.3,3,12.7,4.3,19.1c4.8-4.4,11.2-6.5,17.3-8.6c0.3-0.1,0.5-0.2,0.7-0.4
		c0.2-0.3,0-0.8-0.2-1.1c-1.6-2.6-3.1-5.2-4.7-7.8"/>
	<path class="st2" d="M37.4,136.4l-0.3-1.3c-1.2-6.4-2.6-12.8-4.2-19c-0.1-0.4,0.1-0.8,0.5-0.9c0.4-0.1,0.8,0.1,0.9,0.5
		c1.5,5.9,2.9,11.9,4,17.8c4.5-3.7,10.1-5.7,15.6-7.6l1-0.3c0.1,0,0.2-0.1,0.3-0.1c0,0-0.1-0.1-0.2-0.3l-4.7-7.8
		c-0.2-0.4-0.1-0.8,0.3-1c0.4-0.2,0.8-0.1,1,0.3l4.7,7.8c0.2,0.3,0.7,1.1,0.2,1.9c-0.3,0.5-0.8,0.7-1.1,0.8l-1,0.3
		c-5.7,2-11.7,4-16.1,8.1L37.4,136.4z"/>
</g>
<g>
	<ellipse class="st0" cx="128.8" cy="73.2" rx="17.8" ry="12.3"/>
</g>
<g class="st30">
	<g>
		<ellipse class="st1" cx="124.6" cy="73" rx="10.3" ry="6.6"/>
	</g>
</g>
<g>
	<path class="st2" d="M146.6,73.2c0,0,0-0.3-0.1-0.8c0-0.5-0.2-1.2-0.5-2c-0.2-0.4-0.3-0.9-0.6-1.4c-0.3-0.5-0.6-1-1-1.4
		c-0.8-1-1.9-1.9-3.1-2.8c-1.3-0.8-2.8-1.6-4.5-2.1c-1.7-0.6-3.5-0.9-5.4-1.1c-0.5-0.1-1-0.1-1.5-0.1l-0.7,0l-0.3,0l-0.4,0
		c-0.5,0-1,0.1-1.5,0.1c-0.5,0.1-1,0.1-1.5,0.2c-2,0.3-4,0.8-5.8,1.6c-1.9,0.8-3.6,1.9-5,3.3c-1.4,1.4-2.4,3.1-2.8,4.9
		c-0.1,0.4-0.1,0.9-0.2,1.3c0,0.1,0,0.3,0,0.3l0,0.4c0,0.2,0,0.5,0,0.7c0.1,0.8,0.3,1.7,0.7,2.5c0.7,1.6,1.8,2.9,2.9,3.9
		c1.2,1,2.4,1.8,3.5,2.4c1.1,0.6,2.2,1,3,1.3c0.9,0.3,1.6,0.5,2,0.6c0.5,0.1,0.7,0.2,0.7,0.2s-0.3,0-0.8-0.1
		c-0.5-0.1-1.2-0.2-2.1-0.4c-0.9-0.3-2-0.6-3.2-1.1c-1.2-0.5-2.5-1.2-3.8-2.2c-1.3-1-2.5-2.3-3.4-4.1c-0.4-0.8-0.7-1.8-0.9-2.8
		c-0.1-0.9-0.1-2.1,0.1-3.1c0.4-2.1,1.5-4.1,3.1-5.6c1.5-1.5,3.4-2.7,5.4-3.6c2-0.9,4.1-1.4,6.2-1.7c0.5-0.1,1.1-0.1,1.6-0.2
		c0.5,0,1,0,1.5,0l0.4,0l0.4,0l0.8,0c0.5,0,1,0.1,1.5,0.1c4,0.4,7.6,1.9,10.3,3.8c1.3,1,2.3,2.1,3.1,3.1c0.4,0.6,0.7,1.1,0.9,1.6
		c0.3,0.5,0.4,1,0.6,1.4c0.3,0.9,0.3,1.6,0.3,2.1C146.6,73,146.6,73.2,146.6,73.2z"/>
</g>
<g>
	<ellipse class="st0" cx="74.3" cy="75.2" rx="22.2" ry="12.3"/>
</g>
<g>
	<path class="st2" d="M52.1,75.2c0,0,0-0.3,0-0.9c0-0.1,0-0.3,0-0.5c0-0.2,0.1-0.4,0.1-0.6c0-0.2,0.1-0.4,0.2-0.7
		c0.1-0.2,0.2-0.5,0.3-0.7c0.4-1,1.2-2.1,2.2-3.2c1-1.1,2.4-2.1,4.1-3c1.6-0.9,3.5-1.6,5.5-2.2c2-0.6,4.2-1,6.6-1.2
		c0.6-0.1,1.2-0.1,1.7-0.1c0.6,0,1.2-0.1,1.8,0c0.6,0,1.2,0,1.8,0c0.6,0,1.2,0.1,1.8,0.1c2.4,0.2,4.9,0.7,7.3,1.4
		c2.4,0.8,4.7,1.8,6.7,3.2c0.5,0.4,1,0.7,1.5,1.2l0.7,0.6l0.6,0.7c0.4,0.4,0.7,1,1.1,1.5c0.2,0.3,0.3,0.6,0.4,0.8
		c0.1,0.3,0.3,0.6,0.3,0.9l0.2,0.9c0.1,0.3,0.1,0.6,0.1,0.9l0,0.5l0,0.1c0,0,0,0,0,0.1l0,0.1l0,0.2l-0.1,0.8
		c-0.2,1.2-0.7,2.3-1.3,3.2c-1.2,1.8-2.9,3.1-4.5,4.1c-1.6,1-3.2,1.6-4.6,2.1c-1.4,0.5-2.7,0.8-3.7,1c-1,0.2-1.9,0.3-2.4,0.4
		c-0.6,0.1-0.9,0.1-0.9,0.1s0.3-0.1,0.9-0.2c0.6-0.1,1.4-0.3,2.4-0.6c1-0.3,2.2-0.7,3.6-1.2c1.4-0.6,2.8-1.3,4.3-2.3
		c1.5-1,3-2.3,4-4c0.5-0.8,0.9-1.8,1-2.7l0-0.8l0-0.2l0-0.1c0,0.1,0,0,0,0l0-0.1l0-0.4c0-0.3,0-0.5-0.1-0.8l-0.2-0.7
		c-0.7-2-2.3-3.6-4.1-5c-1.9-1.3-4.1-2.3-6.3-3c-2.3-0.7-4.6-1.2-6.9-1.4c-0.6,0-1.2-0.1-1.7-0.1c-0.6,0-1.2,0-1.8-0.1
		c-0.5,0-1.1,0-1.7,0c-0.6,0-1.1,0-1.7,0.1c-2.2,0.1-4.4,0.5-6.4,1c-2,0.5-3.8,1.1-5.4,1.9c-1.6,0.8-3,1.7-4.1,2.6
		c-1.1,1-1.9,2-2.3,2.9c-0.1,0.2-0.2,0.5-0.3,0.7c-0.1,0.2-0.1,0.4-0.2,0.6c-0.1,0.2-0.1,0.4-0.2,0.5c0,0.2,0,0.3-0.1,0.5
		C52.2,74.9,52.1,75.2,52.1,75.2z"/>
</g>
<g class="st30">
	<g>
		<ellipse class="st1" cx="80.1" cy="74.2" rx="11.7" ry="6.6"/>
	</g>
</g>
</svg>
