<?xml version="1.0" encoding="utf-8"?>
<!-- Generator: Adobe Illustrator 21.1.0, SVG Export Plug-In . SVG Version: 6.00 Build 0)  -->
<svg version="1.1" id="Layer_1" xmlns="http://www.w3.org/2000/svg" xmlns:xlink="http://www.w3.org/1999/xlink" x="0px" y="0px"
	 viewBox="0 0 174.5 181.7" style="enable-background:new 0 0 174.5 181.7;" xml:space="preserve">
<style type="text/css">
	.st0{fill:#6C65AD;}
	.st1{fill:#423C85;}
	.st2{fill:#0B090A;}
	.st3{fill:#0A0809;}
	.st4{fill:#FFFFFF;}
	.st5{fill:#C2BEB4;}
	.st6{fill:#AE174E;}
	.st7{fill:#F87FB7;}
	.st8{fill:#D9DFD5;}
	.st9{fill:#D8AC86;}
	.st10{fill:#A17E59;}
	.st11{fill:#342D26;}
	.st12{fill:#1F1A17;}
</style>
<g>
	<g>
		<path class="st0" d="M125.3,152.9c0.9,8.3-0.5,17.9-5.7,24.7c-1.7,2.2-3.6,3.6-6.4,3.3c-2.3-0.2-4.8-1.2-5.3-3.7
			c-1.4-7,1.1-14.6,2.5-21.5"/>
	</g>
</g>
<g>
	<g>
		<path class="st1" d="M115.4,176c-1.7,2.2-3.6,3.5-6.3,3.3c1.1,1,2.6,1.4,4.1,1.5c2.8,0.2,4.7-1.1,6.4-3.3
			c2.8-3.6,4.4-7.9,5.3-12.3c0.3-1.7,2.3-11.5-1.4-10.9c-2.1,0.3-2.1,2.8-2.2,4.4c-0.1,2.1-0.4,4.1-0.9,6.1
			C119.6,168.8,117.9,172.8,115.4,176z"/>
	</g>
</g>
<g>
	<g>
		<path class="st2" d="M125.3,152.9c0,0,0,0.2,0.1,0.7c0.1,0.5,0.2,1.1,0.2,2c0.1,0.9,0.2,1.9,0.2,3.1c0,1.2,0,2.5-0.1,4
			c-0.3,2.9-0.9,6.4-2.4,9.8c-0.7,1.7-1.7,3.4-2.8,5c-1.1,1.6-2.6,3.3-4.8,3.9c-1.1,0.3-2.2,0.3-3.2,0.2c-1.1-0.1-2.1-0.4-3-1
			c-0.9-0.5-1.8-1.4-2.1-2.5c-0.1-0.3-0.2-0.5-0.2-0.8l-0.1-0.7c-0.1-0.4-0.1-0.9-0.2-1.4c-0.2-1.9-0.1-3.7,0.1-5.4
			c0.2-1.7,0.5-3.3,0.8-4.7c0.7-2.9,1.4-5.2,1.8-6.8c0.5-1.6,0.7-2.6,0.7-2.6s-0.1,1-0.4,2.6c-0.3,1.7-0.8,4.1-1.3,6.9
			c-0.2,1.4-0.4,3-0.6,4.6c-0.1,1.6-0.1,3.4,0.1,5.1c0,0.4,0.1,0.9,0.2,1.3l0.1,0.7c0,0.1,0.1,0.4,0.2,0.5c0.3,0.7,0.8,1.3,1.6,1.7
			c0.7,0.4,1.6,0.7,2.4,0.8c0.9,0.1,1.8,0.1,2.6-0.2c1.7-0.5,3-1.8,4-3.3c1.1-1.5,2.1-3.1,2.8-4.7c0.7-1.6,1.3-3.3,1.8-4.8
			c0.4-1.6,0.7-3.1,1-4.5c0.2-1.4,0.4-2.8,0.4-3.9c0.1-1.2,0.1-2.2,0.1-3.1c0-0.8,0-1.5,0-2C125.3,153.2,125.3,152.9,125.3,152.9z"
			/>
	</g>
</g>
<g>
	<path class="st0" d="M68.6,121.4c1.4,8.2,0.7,17.9-4.2,25c-1.6,2.3-3.4,3.8-6.2,3.7c-2.3,0-4.9-0.9-5.5-3.4
		c-1.9-6.9,0.2-14.7,1.2-21.6"/>
</g>
<g>
	<path class="st1" d="M60.1,145.1c-1.6,2.3-3.3,3.7-6.1,3.7c1.1,0.9,2.7,1.3,4.2,1.3c2.8,0,4.6-1.4,6.2-3.7c4.8-7.1,5.6-16.8,4.2-25
		l-4,1C65.6,130.1,64.5,138.6,60.1,145.1z"/>
</g>
<g>
	<path class="st3" d="M68.6,121.4c0,0,0,0.2,0.1,0.7c0.1,0.5,0.1,1.1,0.2,2c0.1,0.8,0.1,1.9,0.1,3.1c0,1.2-0.1,2.5-0.2,3.9
		c-0.1,1.4-0.4,3-0.7,4.6c-0.3,1.6-0.8,3.3-1.5,4.9c-0.6,1.7-1.5,3.3-2.5,4.9c-1,1.6-2.2,3-3.8,3.5c-0.8,0.3-1.7,0.4-2.6,0.3
		c-0.9-0.1-1.8-0.3-2.5-0.6c-0.7-0.4-1.3-0.9-1.7-1.6c-0.1-0.2-0.1-0.4-0.2-0.5l-0.2-0.7c-0.1-0.5-0.2-0.9-0.3-1.3
		c-0.3-1.7-0.4-3.5-0.4-5.1c0-1.6,0.1-3.2,0.3-4.7c0.3-2.9,0.6-5.3,0.8-7c0.2-1.7,0.3-2.7,0.3-2.7s-0.2,1-0.6,2.6
		c-0.3,1.7-0.9,4-1.4,6.9c-0.2,1.4-0.4,3-0.5,4.7c-0.1,1.7-0.1,3.5,0.2,5.4c0.1,0.5,0.1,0.9,0.3,1.4l0.1,0.7
		c0.1,0.3,0.2,0.5,0.3,0.8c0.4,1,1.3,1.8,2.3,2.3c1,0.5,2,0.7,3.1,0.8c1,0.1,2.1,0,3.2-0.4c2.1-0.8,3.5-2.5,4.5-4.2
		c1.1-1.7,1.9-3.4,2.5-5.2c1.2-3.5,1.7-7,1.8-10c0-1.5,0-2.8-0.1-4c-0.1-1.2-0.2-2.2-0.4-3.1c-0.1-0.8-0.3-1.5-0.4-1.9
		C68.7,121.7,68.6,121.4,68.6,121.4z"/>
</g>
<g>
	<path class="st0" d="M75.5,3.8c1.4,3,1.1,6.6,0.2,9.7c-0.8,2.9-5.5,3.3-8,2.6c-2.1-0.6-2.1-2.8-3-4.4c-1.1-2.1-2.8-4.1-2.1-6.5
		c0.7-2.6,4.2-4.2,6.7-4.6C71.9,0.1,74.3,1.2,75.5,3.8z"/>
</g>
<g>
	<path class="st1" d="M64.6,6.4c-0.1-0.1-0.2-0.1-0.2-0.3c0-0.1,0.1-0.2,0.2-0.3c0.3-0.4,0.8-0.7,1.2-1c1.4-0.9,3-1.5,4.7-1.4
		c0.4,0,0.9,0.1,1.2,0.5c0.1,0.1,0.1,0.2,0.1,0.3c0,0.1-0.1,0.2-0.2,0.3c-0.9,1.2-1.2,2.5-1.4,3.9C70,9.1,70,9.8,70.2,10.5
		c0.1,0.3,0.2,0.6,0.3,1c0.1,0.1,0.5,0.8,0.5,0.8c-0.1,0.3-0.3,0.7-0.5,0.9c-0.9-0.9-1.9-3.6-2.4-4.3c-0.6-0.8-1.3-1.4-2.1-1.9
		c-0.3-0.2-0.6-0.4-1-0.6C64.9,6.5,64.7,6.4,64.6,6.4z"/>
</g>
<g>
	<path class="st3" d="M67.5,16.6c-1.8-0.5-2.3-1.9-2.7-3.2c-0.2-0.5-0.3-1-0.6-1.4c-0.2-0.4-0.4-0.8-0.7-1.1c-1-1.8-2.1-3.6-1.5-5.8
		c0.8-3.1,4.8-4.6,7.1-5c3-0.5,5.5,0.8,6.8,3.4l0,0c1.7,3.5,0.9,7.8,0.2,10.1c-0.7,2.4-3.6,3.3-6.2,3.3
		C69.1,16.9,68.2,16.8,67.5,16.6z M69.3,1.1c-2.6,0.5-5.7,2-6.3,4.3c-0.5,1.8,0.5,3.3,1.4,5c0.2,0.4,0.5,0.8,0.7,1.2
		c0.3,0.5,0.4,1,0.6,1.5c0.4,1.2,0.8,2.2,2,2.6c2.2,0.6,6.7,0.3,7.4-2.3c0.6-2.1,1.4-6.1-0.2-9.4l0,0c-0.9-1.9-2.6-3-4.6-3
		C70.1,1,69.7,1,69.3,1.1z"/>
</g>
<g>
	<path class="st3" d="M71.8,4c0,0-0.1,0.1-0.4,0.3c-0.2,0.2-0.6,0.5-0.9,1c-0.3,0.4-0.6,1-0.8,1.6c-0.2,0.6-0.3,1.4-0.4,2.1
		c0,0.7,0.1,1.4,0.3,2.1c0.2,0.7,0.5,1.2,0.8,1.7c0.3,0.4,0.6,0.8,0.8,1c0.2,0.2,0.4,0.3,0.4,0.3s-0.1-0.2-0.2-0.4
		c-0.1-0.3-0.3-0.7-0.5-1.1c-0.3-0.9-0.6-2.2-0.5-3.5c0-0.7,0.1-1.3,0.2-1.9c0.1-0.6,0.3-1.1,0.5-1.6C71.5,4.6,71.8,4,71.8,4z"/>
</g>
<g>
	<path class="st3" d="M64.2,6.3c0,0,0.6,0.2,1.4,0.7c0.4,0.3,0.8,0.6,1.3,1c0.2,0.2,0.4,0.4,0.6,0.6c0.2,0.2,0.4,0.5,0.6,0.7
		c0.8,1,1.3,2.1,1.6,3c0.2,0.4,0.3,0.8,0.3,1.1c0.1,0.3,0.1,0.4,0.1,0.4s0-0.2,0.1-0.5c0-0.3,0.1-0.7,0-1.2c0-0.5-0.2-1.1-0.4-1.7
		c-0.2-0.6-0.6-1.2-1-1.8c-0.2-0.3-0.4-0.5-0.7-0.8c-0.2-0.2-0.5-0.5-0.8-0.7c-0.5-0.4-1.1-0.6-1.6-0.8c-0.5-0.2-0.9-0.2-1.2-0.2
		C64.4,6.3,64.2,6.3,64.2,6.3z"/>
</g>
<g>
	<path class="st0" d="M25.3,23c2,2.2,2.8,5.5,2.8,8.4c0.1,2.8-3.9,4.4-6.3,4.5c-2,0.1-2.6-1.9-3.8-3c-1.5-1.5-3.6-2.8-3.7-5.1
		c-0.1-2.5,2.5-4.8,4.6-5.9C21.2,20.8,23.5,21.1,25.3,23z"/>
</g>
<g>
	<path class="st1" d="M16.4,28.2c-0.1,0-0.2-0.1-0.3-0.2c0-0.1,0-0.2,0-0.3c0.2-0.4,0.5-0.8,0.8-1.2c1-1.2,2.3-2.1,3.7-2.5
		c0.4-0.1,0.9-0.1,1.2,0.1c0.1,0.1,0.1,0.1,0.2,0.2c0,0.1,0,0.2-0.1,0.3c-0.5,1.3-0.4,2.5-0.2,3.8c0.1,0.6,0.3,1.2,0.7,1.8
		c0.2,0.3,0.3,0.5,0.6,0.7c0.1,0.1,0.7,0.5,0.7,0.6c0,0.3-0.1,0.7-0.2,1c-1.1-0.6-2.6-2.6-3.3-3.1c-0.7-0.5-1.5-0.9-2.4-1.1
		c-0.3-0.1-0.7-0.2-1-0.2C16.7,28.2,16.6,28.3,16.4,28.2z"/>
</g>
<g>
	<path class="st3" d="M18.5,34.4c-0.3-0.4-0.6-0.8-0.9-1.1c-0.3-0.3-0.6-0.5-0.9-0.8c-1.3-1.2-2.8-2.6-2.9-4.6c-0.1-3,3-5.4,4.8-6.3
		c2.5-1.3,5.1-0.8,6.9,1.2l0,0c2.5,2.6,2.9,6.6,3,8.8c0.1,3.2-4.3,4.9-6.8,5c0,0-0.1,0-0.1,0C20.1,36.5,19.2,35.3,18.5,34.4z
		 M19.1,22.4c-2.1,1.1-4.4,3.3-4.3,5.4c0.1,1.7,1.3,2.8,2.6,4c0.3,0.3,0.6,0.6,0.9,0.8c0.4,0.4,0.7,0.8,1,1.2
		c0.7,0.9,1.2,1.7,2.4,1.7c2.1-0.1,5.9-1.5,5.8-4c-0.1-2-0.5-5.7-2.7-8.1l0,0c-1-1-2.1-1.6-3.4-1.6C20.7,21.8,19.9,22,19.1,22.4z"/>
</g>
<g>
	<path class="st3" d="M22.1,24.2c0,0-0.1,0.1-0.3,0.4c-0.2,0.2-0.4,0.6-0.5,1.1c-0.2,0.5-0.3,1-0.3,1.7c0,0.6,0.1,1.3,0.3,1.9
		c0.2,0.6,0.5,1.3,0.8,1.8c0.3,0.5,0.8,1,1.1,1.3c0.4,0.3,0.8,0.5,1,0.6c0.3,0.1,0.4,0.2,0.4,0.2s-0.1-0.1-0.3-0.3
		c-0.2-0.2-0.4-0.5-0.7-0.9c-0.5-0.7-1.1-1.8-1.4-2.9c-0.2-0.6-0.3-1.1-0.3-1.7c0-0.5,0-1.1,0-1.5C22,24.8,22.1,24.2,22.1,24.2z"/>
</g>
<g>
	<path class="st3" d="M16.1,28.3c0,0,0.6,0.1,1.5,0.3c0.4,0.1,0.9,0.3,1.3,0.5c0.2,0.1,0.5,0.3,0.7,0.4c0.2,0.1,0.5,0.3,0.7,0.5
		c0.9,0.6,1.7,1.5,2.2,2.1c0.3,0.3,0.5,0.7,0.6,0.9c0.1,0.2,0.2,0.4,0.2,0.4s0-0.2,0-0.4c0-0.3-0.1-0.6-0.3-1.1
		c-0.2-0.4-0.4-0.9-0.8-1.4c-0.4-0.5-0.8-0.9-1.3-1.3c-0.3-0.2-0.5-0.3-0.8-0.5c-0.3-0.2-0.6-0.3-0.9-0.4c-0.6-0.2-1.1-0.3-1.6-0.3
		c-0.5,0-0.9,0.1-1.1,0.1C16.3,28.2,16.1,28.3,16.1,28.3z"/>
</g>
<g>
	<path class="st0" d="M173.7,108.4c-0.2-5.3-1.8-10.3-3.6-15.3c-2.1-5.9-5.7-11-9.7-15.8c-3.3-3.9-7-7-10.5-10.6
		c-1-1-2.2-1.7-3.3-2.4c-3.5-2.3-6.7-5.1-9.9-7.9c-2.3-2-4-4.3-6-6.6c-1.6-1.9-4-3.7-5.1-5.9c-1-2.1-2.2-4.3-3.9-5.8
		c-1.6-1.4-2.8-3.1-4.4-4.6c-1.2-1.2-2.6-2.2-3.9-3.2c-3.1-2.3-6-4.7-9.4-6.7c-3.3-1.9-6.7-3.5-10.2-4.9c-4.4-1.8-9.2-3.2-13.7-4.5
		c-4.5-1.2-9.1-2.1-13.7-2.4c-8.1-0.6-17.6,1.3-24.9,4.7C29.1,22.2,17,31.3,9.3,42.7c-10.1,15-6.7,34.6,3.5,48.6
		c6.3,8.7,12.1,16.2,21.6,21.9c8.8,5.3,19.5,8.9,25,17.6c5.3,8.4,10.5,17.2,18.1,23.8c7.1,6.2,13.6,10.2,22.9,12.1
		c12.2,2.6,23.6,0.4,34.7-5.6c4.9-2.6,9.4-5.6,13.6-9.1c5.5-4.6,11.3-8.2,15.9-13.8C171.6,129.7,174.2,119.3,173.7,108.4z"/>
</g>
<g>
	<path class="st1" d="M91,163.3c12.2,2.6,23.6,0.4,34.7-5.6c4.9-2.6,9.4-5.6,13.6-9.1c5.5-4.6,11.3-8.2,15.9-13.8
		c7-8.5,9.6-19,9.1-29.9c-0.2-5.3-1.8-10.3-3.6-15.3c-4.4-12.3-15.2-21.2-23.6-30.7c-2.9-3.3-5.5-6.8-8.3-10.1
		c-4.2-5.1-8.8-9.9-13.9-14.2c-8.5-7.1-18.3-14.1-28.6-18.6c2.5,0.8,5.1,1.7,7.5,2.6c5.3,2.1,10.3,4.8,15,7.9
		c4.9,3.2,8.6,8,12.6,12.3c0.7,0.8,1.4,1.5,2.1,2.3c2.6,2.8,5.1,5.6,7.5,8.6c0.7,0.9,1.4,1.9,2.2,2.8c3.5,4.4,8.3,7.7,12.5,11.4
		c2.5,2.2,4.9,4.7,7.8,6.4c3.7,2.2,6.8,6.6,9.4,10c3,3.9,5.6,8.1,7.3,12.8c1.8,5,3.3,10,3.6,15.3c0.5,10.9-2.1,21.4-9.1,29.9
		c-4.6,5.6-10.4,9.2-15.9,13.8c-4.2,3.5-8.7,6.5-13.6,9.1c-11,5.9-22.4,8.1-34.7,5.6c-4.2-0.9-7.8-2.2-11.2-3.9
		C89.8,163,90.4,163.1,91,163.3z"/>
</g>
<g>
	<path class="st1" d="M104.8,39.4c-0.9-2.2-1.2-4.4-1.9-6.8c-0.7-2.2-1.6-4.5-2.6-6.5c-1.4-2.6-3.1-5-5.6-6.8c2.8,2,6.5,2.3,9.1,4.4
		c2,1.6,1.8,3.1,2.1,5.5c0.5,4.2,0,8.4,0.2,12.6C105.6,41.1,105.2,40.3,104.8,39.4z"/>
</g>
<g>
	<path class="st3" d="M110.4,168.5c8.4,0,16.6-2.2,25-6.7c5.3-2.8,9.8-5.8,13.7-9.2c1.6-1.4,3.3-2.7,5-3.9c3.8-2.9,7.8-6,11.1-10
		c6.6-8.1,9.8-18.6,9.3-30.4c-0.3-5.4-1.9-10.7-3.6-15.5c-2.7-7.5-7.6-13.6-12.1-18.5l-1.1,1c4.4,4.8,9.2,10.8,11.8,18
		c1.7,4.7,3.3,9.9,3.5,15.1c0.5,11.4-2.6,21.6-8.9,29.4c-3.2,3.9-6.9,6.7-10.8,9.7c-1.6,1.3-3.4,2.6-5,4c-3.9,3.3-8.3,6.2-13.5,9
		c-11.4,6.1-22.6,7.9-34.2,5.5c-9.8-2-16.1-6.2-22.6-11.9c-7-6.2-12.1-14.3-17-22.2l-0.9-1.5c-4.2-6.7-11.3-10.4-18.3-14
		c-2.3-1.2-4.8-2.5-7-3.8c-9.3-5.6-15.2-13.1-21.4-21.7C4.2,78.2-0.5,58.5,9.9,43.1C17,32.6,28.3,23.4,41.8,17.1
		c7.4-3.4,16.8-5.2,24.5-4.6c4.2,0.3,8.7,1.1,13.6,2.4c5.1,1.4,9.7,2.9,13.6,4.4c4,1.6,8.1,3.7,12.4,6.2l0.8-1.3
		c-4.3-2.6-8.5-4.7-12.6-6.3c-4-1.6-8.7-3.1-13.8-4.5c-5-1.3-9.5-2.1-13.8-2.4c-8-0.6-17.7,1.2-25.3,4.7
		C27.4,22.2,15.9,31.6,8.7,42.3c-10.8,16-6,36.4,3.5,49.5c6.3,8.7,12.3,16.3,21.8,22.1c2.3,1.4,4.7,2.6,7.1,3.9
		c6.7,3.5,13.7,7.2,17.7,13.5l0.9,1.5c5,8,10.1,16.2,17.3,22.5c6.7,5.8,13.2,10.2,23.3,12.3C103.7,168.2,107.1,168.5,110.4,168.5z"
		/>
</g>
<g>
	
		<ellipse transform="matrix(0.8398 -0.5429 0.5429 0.8398 -17.3558 47.8983)" class="st4" cx="72.5" cy="53.4" rx="23.3" ry="23.3"/>
</g>
<g>
	<path class="st5" d="M87.8,43.4c-6.5-10.1-19.5-13.4-30-8.2c0.6-0.5,1.3-1,2-1.5c10.8-7,25.2-3.9,32.2,6.9s3.9,25.2-6.9,32.2
		c-0.7,0.5-1.4,0.9-2.2,1.2C92.1,66.8,94.3,53.5,87.8,43.4z"/>
</g>
<g>
	<path class="st3" d="M52.3,66.4c-7.2-11.1-4-26,7.1-33.2s26-4,33.2,7.1c3.5,5.4,4.7,11.8,3.3,18.1c-1.3,6.3-5.1,11.6-10.4,15.1
		c-4,2.6-8.5,3.8-13,3.8C64.6,77.4,56.9,73.5,52.3,66.4z M60.3,34.5c-5.1,3.3-8.5,8.3-9.8,14.2c-1.3,5.9-0.2,11.9,3.1,16.9
		C60.3,76,74.3,79,84.7,72.3c5.1-3.3,8.5-8.3,9.8-14.2c1.3-5.9,0.2-11.9-3.1-16.9c-4.3-6.7-11.6-10.3-18.9-10.3
		C68.3,30.9,64,32,60.3,34.5z"/>
</g>
<g>
	<ellipse transform="matrix(0.8398 -0.5429 0.5429 0.8398 -14.5145 50.4692)" class="st3" cx="78.3" cy="49.8" rx="4.5" ry="4.5"/>
</g>
<g>
	<ellipse transform="matrix(0.8398 -0.5429 0.5429 0.8398 -14.2583 49.0815)" class="st4" cx="76" cy="48.7" rx="1.3" ry="1"/>
</g>
<g>
	
		<ellipse transform="matrix(0.8398 -0.5429 0.5429 0.8398 -43.1375 24.8815)" class="st4" cx="20.6" cy="85.5" rx="19.9" ry="19.9"/>
</g>
<g>
	<path class="st5" d="M33.8,77.1c-5.5-8.5-16.4-11.3-25.1-6.8c0.5-0.4,1.1-0.8,1.7-1.2c9-5.8,21.1-3.3,27,5.8s3.3,21.1-5.8,27
		c-0.6,0.4-1.2,0.7-1.8,1C37.3,96.6,39.2,85.6,33.8,77.1z"/>
</g>
<g>
	<path class="st3" d="M16.3,105.7c-5.4-1.2-10-4.3-13-9c-6.2-9.5-3.4-22.3,6.1-28.5c4.6-3,10.1-4,15.5-2.8c5.4,1.2,10,4.3,13,9
		s4,10.1,2.8,15.5c-1.2,5.4-4.3,10-9,13c-3.4,2.2-7.2,3.3-11.1,3.3C19.2,106.1,17.7,106,16.3,105.7z M10.2,69.5
		C1.4,75.2-1.2,87.1,4.6,95.9c2.8,4.3,7,7.2,12,8.3s10.1,0.1,14.4-2.6c4.3-2.8,7.2-7,8.3-12s0.1-10.1-2.6-14.4
		c-2.8-4.3-7-7.2-12-8.3c-1.3-0.3-2.7-0.4-4-0.4C16.9,66.4,13.4,67.5,10.2,69.5z"/>
</g>
<g>
	<ellipse transform="matrix(0.8398 -0.5429 0.5429 0.8398 -40.713 27.0753)" class="st3" cx="25.5" cy="82.5" rx="3.9" ry="3.9"/>
</g>
<g>
	<ellipse transform="matrix(0.8398 -0.5429 0.5429 0.8398 -40.4944 25.8912)" class="st4" cx="23.6" cy="81.6" rx="1.1" ry="0.8"/>
</g>
<g>
	<path class="st0" d="M106.1,32.1c1,1.1,1.1,2.7,1.6,4.1c0.3,0.9,0.8,1.8,1.1,2.7c0.2,0.7,0.3,1.4,0.5,2.1c0.5,1.7,1.8,3.2,3.5,3.6
		c1,0.3,2.1,0.1,3.1,0c0.9-0.2,1.9-0.4,2.5-1.1c0.4-0.6,0.5-1.3,0.8-2c0.1-0.3,0.3-0.7,0.5-1c0.4-0.9,0.8-1.9,0.9-2.9
		c0.1-0.9,0.3-1.7,0.5-2.5c0.5-1.9,0.8-3.8,1-5.8c0.6-5.8,0-11.9-2.7-17.1c-1.3-2.5-2.9-4.2-5.7-4.5c-2.3-0.3-4.9,0.3-5.9,2.7
		c-2.7,6.6-1.6,14.6-1.5,21.6"/>
</g>
<g>
	<path class="st1" d="M169.8,117.2c5.1-9-1.5-21.2-5.8-29.2c-3-5.7-7.4-10.5-11.2-15.6c-6.2-8.3-14.7-14.5-21.9-22
		c-1.8-1.9-3.7-3.9-5.1-6.2c-1.1-1.9-3.3-3.8-3.5-6.1c-0.4-8.7,1-18-3.1-26.1c-1.3-2.5-2.9-4.2-5.7-4.5c-1.5-0.2-3.1,0-4.3,0.8
		c2.7,0.3,4.3,2,5.6,4.4c2.8,5.5,3.4,12,2.6,18.1c-0.4,3.5-0.8,6.9-1.1,10.4c-0.2,2.2-0.7,4.4-0.7,6.6c0,0.9-0.1,2.2,0.5,3
		c1.3,1.6,19.8,12.9,25.9,18.5c15.6,14.3,26.5,34.2,19.2,55.6C164.8,123.2,167.9,120.6,169.8,117.2z"/>
</g>
<g>
	<path class="st3" d="M122.2,27.4c0,0,0-0.2,0.1-0.6c0-0.4,0.1-0.9,0.1-1.7c0.1-1.4,0.1-3.5-0.2-6c-0.3-2.5-1.1-5.3-2.6-8.1
		c-0.8-1.4-1.9-2.9-3.5-3.6c-0.8-0.4-1.7-0.6-2.6-0.7c-0.9-0.1-1.8,0-2.7,0.1c-0.9,0.2-1.8,0.6-2.5,1.2c-0.4,0.3-0.7,0.7-0.9,1.1
		c-0.3,0.4-0.4,0.9-0.5,1.2c-0.3,0.7-0.5,1.6-0.7,2.4c-0.2,0.8-0.3,1.6-0.4,2.3c-0.4,3.1-0.3,6-0.2,8.4c0.2,2.5,0.4,4.5,0.5,5.9
		c0.1,1.4,0.2,2.2,0.2,2.2s0-0.2,0-0.6c0-0.4,0-0.9,0-1.7c0-1.4,0-3.5,0-5.9c0-2.4,0.1-5.3,0.6-8.2c0.1-0.7,0.3-1.5,0.5-2.2
		c0.2-0.7,0.4-1.4,0.7-2.2c0.1-0.4,0.3-0.7,0.4-1c0.2-0.3,0.4-0.5,0.6-0.8c0.5-0.4,1.2-0.7,1.9-0.9c1.4-0.3,3-0.2,4.3,0.4
		c1.3,0.6,2.3,1.7,3,2.9c1.5,2.6,2.4,5.3,2.9,7.6c0.5,2.4,0.7,4.4,0.8,5.8C122.2,26.6,122.2,27.4,122.2,27.4z"/>
</g>
<g>
	<g>
		<path class="st0" d="M144.6,139.4c-1.9,6.7-5,14.2-4,21.3c0.3,2.5,2.8,3.7,5.1,4.1c2.8,0.4,4.8-0.8,6.6-2.9
			c5.7-6.4,7.7-15.9,7.4-24.2c-0.1-2.2-2.3-4.1-4.2-5.3c-0.4-0.2-0.8-0.4-1.2-0.5c-0.6-0.1-1.2,0.1-1.7,0.2c-1.4,0.4-2.8,0.9-4,1.8
			c-1.8,1.3-2.9,3.2-4,5.1"/>
	</g>
</g>
<g>
	<g>
		<path class="st1" d="M154,149.1c-1.2,4-3.1,7.7-5.8,10.8c-1.8,2.1-3.8,3.3-6.5,2.9c1,1,2.5,1.6,4,1.8c2.8,0.4,4.8-0.8,6.6-2.9
			c3-3.4,5-7.6,6.1-11.9c0.4-1.6,0.8-3.2,1.1-4.8c0.2-1,0.3-2.1,0.3-3.1c-0.5-1.1,0.7-2.8,1.1-3.7c0.1-0.3,0.3-0.6,0.4-0.9
			c0.1-0.5,0.1-1,0.1-1.5c0-1.2-0.3-2.4-0.7-3.6c-0.2-0.6-0.4-1.2-0.7-1.8c-0.2-0.4-0.3-1-0.5-1.3c0-0.1-1.7,1.3-1.8,1.4
			c-0.7,0.5-1.6,0.8-2.4,1.1c-0.7,0.3-1.2,0.9-1.3,1.7c-0.1,0.7,0,1.5,0.1,2.2c0.5,2.2,1.2,4.5,1.2,6.8
			C155.3,144.5,154.7,147,154,149.1z"/>
	</g>
</g>
<g>
	<g>
		<path class="st2" d="M159.7,137.6c0,0,0,0.2,0.1,0.7c0,0.5,0.1,1.1,0.1,2c0,0.9,0,1.9,0,3.1c0,1.2-0.2,2.5-0.4,4
			c-0.5,2.9-1.3,6.3-3,9.6c-0.8,1.7-1.9,3.3-3.2,4.8c-1.2,1.5-2.9,3.1-5,3.6c-1.1,0.2-2.2,0.2-3.2,0c-1-0.2-2-0.6-2.9-1.2
			c-0.9-0.6-1.7-1.5-2-2.6c-0.1-0.3-0.1-0.5-0.2-0.8l-0.1-0.7c0-0.5-0.1-0.9-0.1-1.4c0-1.9,0.2-3.7,0.5-5.4c0.3-1.7,0.7-3.2,1.1-4.6
			c0.8-2.8,1.7-5.1,2.3-6.7c0.6-1.6,0.9-2.5,0.9-2.5s-0.2,1-0.6,2.6c-0.4,1.6-1.1,4-1.7,6.8c-0.3,1.4-0.6,3-0.9,4.6
			c-0.2,1.6-0.3,3.4-0.3,5.1c0,0.4,0,0.9,0.1,1.3l0.1,0.7c0,0.1,0.1,0.4,0.1,0.5c0.2,0.7,0.8,1.4,1.4,1.8c0.7,0.5,1.5,0.8,2.4,0.9
			c0.9,0.2,1.8,0.2,2.6,0c1.7-0.3,3.1-1.6,4.3-3c1.2-1.4,2.3-2.9,3.1-4.5c0.8-1.6,1.5-3.2,2.1-4.7c0.5-1.6,0.9-3.1,1.3-4.5
			c0.3-1.4,0.5-2.7,0.7-3.9c0.2-1.2,0.2-2.2,0.3-3c0.1-0.8,0.1-1.5,0.1-2C159.7,137.8,159.7,137.6,159.7,137.6z"/>
	</g>
</g>
<g>
	<path class="st3" d="M106.2,42.2c0,0,0-0.6,0.1-1.6c0-1,0.1-2.4,0.1-4.1c0-0.9,0-1.8,0-2.8c0-0.5,0-1,0-1.5c0-0.5,0-1,0-1.5
		c0-1.1,0-2.1,0-3.3c0-1.1,0.1-2.3,0.1-3.4c0.1-2.3,0.1-4.5,0.2-6.7c0.1-2.1,0.2-4.1,0.6-5.6c0.5-1.6,1.4-2.7,2.1-3.3
		c0.7-0.6,1.3-0.9,1.3-0.9s-0.1,0-0.4,0.1c-0.3,0.1-0.6,0.2-1.1,0.5c-0.8,0.5-2.1,1.5-2.7,3.2c-0.4,0.8-0.6,1.8-0.8,2.8
		c-0.2,1-0.3,2-0.4,3.1c-0.2,2.1-0.3,4.4-0.4,6.7c0,1.1-0.1,2.3-0.1,3.4c0,1.2,0.1,2.2,0.1,3.3c0,0.3,0,0.5,0,0.8
		c0,0.3,0,0.5,0.1,0.8c0,0.5,0.1,1,0.1,1.5c0.1,1,0.2,1.9,0.3,2.7c0.2,1.7,0.4,3.1,0.5,4.1C106.1,41.6,106.2,42.2,106.2,42.2z"/>
</g>
<g>
	<path class="st3" d="M114.3,8.1c0,0,0.1,0.1,0.4,0.2c0.3,0.1,0.7,0.4,1.1,0.7c0.4,0.3,1,0.8,1.5,1.3c0.5,0.6,1,1.3,1.5,2.1
		c0.9,1.6,1.7,3.8,2.1,6.1c0.4,2.3,0.6,4.9,0.8,7.5c0.1,1.3,0.2,2.6,0.3,3.9c0,1.2,0.1,2.5,0.1,3.7c0,1.2,0,2.4,0,3.5
		c0,1.1,0,2.1-0.1,3.1c-0.2,1.9-0.4,3.5-0.7,4.6c-0.2,1.1-0.4,1.7-0.4,1.7s0.3-0.6,0.7-1.7c0.4-1.1,0.9-2.6,1.3-4.6
		c0.2-1,0.3-2.1,0.4-3.2c0.1-1.1,0.1-2.3,0.2-3.5c0-1.2,0.1-2.5,0-3.8c-0.1-1.3-0.1-2.6-0.2-3.9c-0.2-2.6-0.4-5.2-1-7.7
		c-0.6-2.4-1.5-4.6-2.7-6.3c-1.1-1.7-2.5-2.7-3.5-3.3c-0.5-0.3-0.9-0.4-1.2-0.5C114.5,8.1,114.3,8.1,114.3,8.1z"/>
</g>
<g>
	<g>
		<path class="st3" d="M161,79.1l0.9-1.2c-0.9-0.7-1.7-1.6-2.5-2.6c-0.6-0.7-1.1-1.4-1.8-2c-1.1-1.1-2.2-2.1-3.3-3.1
			c-0.5-0.5-1-0.9-1.5-1.4c-1.9-1.8-4-3.4-6-5c-1-0.8-2.1-1.6-3.1-2.5c-5.1-4.2-9.6-8.9-13-12.6c-1.9-2.1-3.7-4.4-5.3-6.9
			c-0.5-0.7-1-1.5-1.5-2.2c-0.4-0.6-0.9-1.5-1.5-1.9c-0.1,1-0.6,1.7,0,2.5c0.6,0.8,1.2,1.6,1.7,2.4c1.7,2.5,3.5,4.9,5.5,7.1
			c3.4,3.7,8,8.5,13.1,12.8c1,0.8,2.1,1.7,3.1,2.5c2,1.6,4,3.2,5.9,4.9c0.5,0.5,1,0.9,1.5,1.4c1.1,1,2.2,2,3.2,3
			c0.6,0.6,1.1,1.2,1.7,1.9C159.1,77.2,160,78.3,161,79.1z"/>
	</g>
</g>
<g>
	<g>
		<path class="st1" d="M45.9,91.3c-0.1-0.3-0.2-0.5-0.3-0.8c-0.1-0.3-0.1-0.6-0.1-0.9c0-0.1,0-0.3,0-0.4l0-0.2l0-0.2
			c0.2-1.1,0.8-2,1.4-2.8c0.2-0.3,0.5-0.6,0.7-0.8c0,0,0,0,0-0.1c-0.2-0.3-0.3-0.6-0.3-0.9c0-0.3,0.1-0.7,0.3-0.9
			c0.2-0.3,0.4-0.5,0.6-0.7c0.2-0.2,0.5-0.3,0.7-0.4l0.7-0.4c0.3-0.2,0.6-0.4,0.9-0.5c0.3-0.2,0.6-0.4,0.8-0.6l0.6-0.5
			c0.2-0.2,0.4-0.3,0.6-0.5c0.3-0.2,0.5-0.3,0.8-0.3c0.3-0.1,0.7,0,1,0.1c0.3,0.1,0.5,0.3,0.7,0.6c0.6-0.2,1.2-0.5,1.8-0.6
			c1-0.2,2-0.5,3.2-0.3l0.2,0l0.2,0.1c0.1,0,0.3,0.1,0.4,0.2c0.3,0.1,0.5,0.3,0.8,0.4c0.2,0.2,0.5,0.4,0.7,0.6
			c0.2,0.2,0.4,0.5,0.5,0.7c0.3,0.4,0.6,0.8,0.8,1.3c0.1,0.3,0.2,0.6,0.2,0.9c0,0.2,0,0.3,0,0.5c0,0.1,0,0.1,0,0.3l0,0.2
			c0,0.1-0.1,0.3-0.1,0.4c0,0.2-0.1,0.3-0.2,0.4c-0.1,0.3-0.3,0.5-0.5,0.7c-0.4,0.4-0.8,0.7-1.3,1c-0.3,0.2-0.7,0.3-1,0.5
			c0.3,0.3,0.6,0.7,1,1.2c0.3,0.4,0.6,0.9,0.7,1.4c0.1,0.6,0.2,1.2,0,1.8c-0.2,0.6-0.5,1.2-1,1.7c-0.1,0.1-0.3,0.2-0.4,0.3L60.5,94
			l-0.7,0.5L59.1,95c-0.2,0.2-0.6,0.4-0.9,0.5c-0.7,0.2-1.4,0.3-2,0.2c-0.6-0.1-1.2-0.4-1.7-0.8c-0.2-0.2-0.4-0.4-0.6-0.6
			c-0.1-0.1-0.1-0.2-0.2-0.3c-0.1-0.1-0.1-0.2-0.2-0.3c-0.2-0.4-0.5-0.8-0.6-1.2c-0.3,0.2-0.5,0.5-0.8,0.7c-0.4,0.3-0.9,0.6-1.4,0.8
			c-0.3,0.1-0.6,0.2-0.9,0.2c-0.2,0-0.3,0-0.5,0c-0.2,0-0.3,0-0.4-0.1l-0.2,0c-0.1,0-0.2,0-0.2-0.1c-0.1-0.1-0.3-0.1-0.4-0.2
			c-0.3-0.1-0.5-0.3-0.7-0.5c-0.4-0.4-0.7-0.8-0.9-1.2C46.2,91.8,46.1,91.6,45.9,91.3z"/>
	</g>
	<g>
		<path class="st6" d="M64.2,84c1.1,0.1,2.3,0.4,3.1,1.3c1,1.1,1,2.7,0.9,4.1c0,0.5,0,0.9-0.2,1.3c-0.3,0.6-0.9,0.9-1.5,1.2
			c-3.5,1.5-7.6,1.6-11.1,0.3c-1.2-0.4-3.5-1.4-2.5-3c0.3-0.5,0.8-0.9,1.3-1.3c0.5-0.4,0.9-0.9,1.5-1.1c0.4-0.2,0.8-0.2,1.2-0.3
			c0.8-0.2,1.5-0.6,2.1-1.2c0.8-0.7,2.1-1.6,3.2-1.5C62.8,83.8,63.5,83.9,64.2,84z"/>
	</g>
	<g>
		<path class="st7" d="M64.9,88.8c-0.2-1,0.1-2.1,0.6-3c0.2-0.3,0.7-1.1,1.1-1.2c0.5-0.1,1.1,0.7,1.3,1.1c0.3,0.6,0.4,1.3,0.4,1.9
			c0,1.1-0.3,2.2-0.8,3.2c-0.3,0.6-0.8,0.8-1.3,1.2c-0.7,0.4-1.1,0.8-1.9,0.1c-0.7-0.6-0.7-1.5-0.4-2.3
			C64.1,89.3,64.4,88.8,64.9,88.8z"/>
	</g>
	<g>
		<path class="st3" d="M51.3,90.4c0,0,0.1,0.1,0.3,0.2c0.2,0.2,0.5,0.4,0.9,0.6c0.8,0.5,2,1.1,3.6,1.5c1.6,0.4,3.5,0.6,5.5,0.5
			c1,0,2-0.1,3.1-0.2c1.1-0.2,2.3-0.5,3.2-1.4c0.9-0.9,1.4-2.1,1.4-3.3c0-0.3,0-0.6,0-0.9c0-0.2-0.1-0.6-0.2-0.8
			c-0.2-0.6-0.4-1.1-0.8-1.6c-0.7-0.9-1.8-1.4-2.8-1.5c-1-0.1-1.9-0.1-2.6,0c-0.2,0-0.4,0-0.6,0l-0.2,0c-0.1,0-0.2,0-0.3,0
			c-0.2,0-0.4-0.1-0.4-0.3c-0.1-0.5,0-1.2-0.2-1.6c-0.1-0.5-0.4-0.8-0.6-0.9c-0.2-0.2-0.3-0.2-0.3-0.2s0.1,0.1,0.3,0.3
			c0.2,0.2,0.3,0.5,0.4,0.9c0.1,0.4-0.1,0.9-0.1,1.7c0,0.2,0.1,0.4,0.3,0.6c0.2,0.2,0.4,0.3,0.7,0.3c0.1,0,0.2,0,0.3,0l0.3,0
			c0.2,0,0.4,0,0.6,0c0.8,0,1.6,0.1,2.4,0.2c0.8,0.2,1.5,0.6,2,1.2c0.2,0.3,0.4,0.7,0.5,1.1c0,0.2,0.1,0.4,0.1,0.7
			c0,0.2,0,0.4,0,0.6c-0.1,0.9-0.4,1.7-1,2.3c-0.2,0.2-0.3,0.3-0.5,0.4l-0.2,0.1c0,0-0.1,0.1-0.1,0l-0.1,0c-0.1,0.1-0.2,0.1-0.3,0.1
			c-0.4,0.2-0.9,0.3-1.3,0.4c-1,0.1-2,0.2-2.9,0.3c-1.9,0.2-3.7,0.2-5.2-0.1c-1.5-0.2-2.8-0.6-3.6-0.9
			C51.8,90.6,51.3,90.4,51.3,90.4z"/>
	</g>
	<g>
		<path class="st3" d="M65.4,92.5c-0.1,0.1-0.2,0-0.3,0c-0.1,0-0.2-0.1-0.3-0.2c-0.2-0.1-0.3-0.3-0.4-0.4c-0.2-0.3-0.3-0.7-0.3-1
			c0-0.2,0-0.4,0.1-0.5c0.1-0.2,0.1-0.4,0.2-0.5c0.2-0.3,0.4-0.5,0.6-0.6l0.5,0l-0.1-0.6c0-0.2-0.1-0.4-0.1-0.6c0-0.2,0-0.4,0-0.6
			c0-0.4,0.2-0.8,0.3-1.2c0.3-0.8,0.8-1.5,1.5-2.1c-0.2,0.1-0.4,0.1-0.7,0.2c-0.2,0.1-0.4,0.2-0.6,0.4c-0.4,0.3-0.7,0.7-0.9,1.1
			c-0.3,0.4-0.4,0.9-0.5,1.4c-0.1,0.5-0.1,1,0,1.5l0.4-0.6c-0.3,0.1-0.6,0.2-0.8,0.4c-0.2,0.2-0.4,0.4-0.5,0.7
			c-0.1,0.2-0.2,0.5-0.2,0.7c0,0.3-0.1,0.5,0,0.8c0.1,0.5,0.4,1,0.8,1.3c0.2,0.1,0.4,0.3,0.6,0.3c0.1,0,0.2,0.1,0.3,0.1
			C65.2,92.6,65.4,92.6,65.4,92.5z"/>
	</g>
	<g>
		<path class="st1" d="M73.5,93.3c-0.4,0.4-1,0.6-1.5,0.7c-0.7,0.1-1.6,0-2.2-0.3c-0.2-0.1-0.4-0.4-0.3-0.6c0.1-0.2,0.3-0.2,0.5-0.3
			c3-0.6,3.4-4.9,2.4-7.2c-0.5-1.1-1.3-1.6-2-2.5c0.1-0.2,0.2-0.2,0.4-0.2c4.1,0.2,4.8,5.8,3.7,8.8C74.1,92.4,73.9,92.9,73.5,93.3z"
			/>
	</g>
	<g id="tith_68_">
		<path class="st4" d="M57,93.2l1.2-0.8c1.7-1.1,2.1-3.4,1-5.1l-0.8-1.2c-1.1-1.7-3.4-2.1-5.1-1l-1.2,0.8c-1.7,1.1-2.1,3.4-1,5.1
			l0.8,1.2C53,93.9,55.3,94.3,57,93.2z"/>
	</g>
	<g>
		<path class="st8" d="M52,92.3c0-0.1-0.1-0.1-0.1-0.2L51.1,91c-1.1-1.7-0.7-4,1-5.1l1.2-0.8c1.7-1.1,4-0.7,5.1,1l0.8,1.2
			c0.1,0.1,0.1,0.2,0.2,0.4C56.8,88.1,53.3,89.9,52,92.3z"/>
	</g>
	<g id="tith_67_">
		<path class="st3" d="M50.4,89.8c0,0,0,0.1,0,0.2c0,0.1,0.1,0.3,0.2,0.6c0.2,0.5,0.6,1.1,1,1.9c0.1,0.1,0.1,0.2,0.2,0.3
			c0.1,0.1,0.1,0.2,0.2,0.3c0.2,0.2,0.4,0.4,0.6,0.6c0.4,0.4,1,0.7,1.7,0.8c0.6,0.1,1.3,0.1,2-0.2c0.3-0.1,0.7-0.3,0.9-0.5l0.7-0.5
			l0.7-0.5l0.4-0.3c0.1-0.1,0.2-0.2,0.4-0.3c0.5-0.5,0.8-1.1,1-1.7c0.2-0.6,0.2-1.3,0-1.8c-0.1-0.6-0.4-1.1-0.7-1.4
			c-0.6-0.7-1-1.2-1.4-1.6c-0.2-0.2-0.4-0.3-0.5-0.4c-0.1-0.1-0.2-0.1-0.2-0.1s0.2,0.3,0.4,0.7c0.2,0.5,0.6,1.1,1,1.9
			c0.2,0.4,0.3,0.7,0.4,1.2c0,0.4,0,0.9-0.2,1.3c-0.2,0.4-0.4,0.8-0.8,1.1c-0.1,0.1-0.2,0.2-0.3,0.2l-0.3,0.2l-0.7,0.5l-0.7,0.5
			c-0.2,0.2-0.4,0.3-0.6,0.4c-0.4,0.2-0.9,0.3-1.4,0.2c-0.5,0-0.9-0.2-1.2-0.4c-0.2-0.1-0.3-0.3-0.5-0.4c-0.1-0.1-0.2-0.2-0.2-0.3
			c-0.1-0.1-0.1-0.2-0.2-0.2c-0.6-0.7-1.1-1.2-1.4-1.6C50.5,90,50.4,89.8,50.4,89.8z"/>
	</g>
	<g>
		<rect x="55.2" y="87.3" transform="matrix(0.8296 -0.5583 0.5583 0.8296 -41.0307 46.5236)" class="st3" width="1" height="6.5"/>
	</g>
	<g>
		<path class="st9" d="M44.9,90.4c-0.6-0.7-0.8-1.7-0.6-2.6c0.1-0.9,0.6-1.6,1-2.3c0.6-0.9,1.3-1.8,2.1-2.5c0.8-0.8,1.6-1.3,2.4-1.8
			c0.8-0.6,1.6-1.1,2.6-1.6c1-0.4,2-0.8,3.1-1c0.8-0.2,1.6-0.3,2.5-0.1c0.8,0.2,1.7,0.7,2.2,1.6c0,0,0,0.1,0.1,0.2
			c0.6,0.7,1,1.6,0.9,2.4c-0.2,1.8-1.7,2.4-3,3.1c-1.3,0.7-2.7,1.2-4,1.9c-1.1,1-2.1,2.1-3.2,3c-1.1,0.9-2.3,2.1-4,1.6
			c-0.9-0.2-1.5-0.9-1.9-1.8C45,90.5,44.9,90.5,44.9,90.4z"/>
	</g>
	<g>
		<path class="st10" d="M56.7,84.8c0.4-0.2,0.6-0.5,0.7-0.8c0.2-0.3,0.4-0.7,0.5-1.2c0.1-0.9-0.3-1.8-0.9-2.4c0,0,0-0.1-0.1-0.2
			c-0.4-0.7-1-1.2-1.7-1.4c0.1,0,0.2,0,0.3-0.1c0.8-0.2,1.6-0.3,2.5-0.1c0.8,0.2,1.7,0.7,2.2,1.6c0,0,0,0.1,0.1,0.2
			c0.6,0.7,1,1.6,0.9,2.4c-0.2,1.8-1.7,2.4-3,3.1c-1.3,0.7-2.7,1.2-4,1.9c-1.1,1-2.1,2.1-3.2,3c-1.1,0.9-2.2,2-3.8,1.7
			C49.9,89.3,53.1,86.8,56.7,84.8z"/>
	</g>
	<g>
		<path class="st3" d="M45,90.5L45,90.5c0.4,0.9,1.2,1.6,2.1,1.8c0.5,0.1,1,0.1,1.4-0.1c0.4-0.2,0.8-0.4,1.2-0.7
			c0.4-0.3,0.7-0.6,1.1-1c0.4-0.3,0.7-0.7,1-1c0.7-0.7,1.3-1.4,2-2.1l0,0l0,0c0.9-0.5,1.8-0.9,2.6-1.3c0.4-0.2,0.8-0.4,1.2-0.7
			l1.2-0.7c0.4-0.2,0.7-0.5,1-0.8c0.1-0.1,0.2-0.3,0.3-0.5c0-0.1,0.1-0.2,0.1-0.3c0-0.1,0-0.1,0.1-0.3l0-0.2l0-0.1
			c0-0.1,0-0.2,0-0.3c0-0.2-0.1-0.4-0.1-0.5c-0.1-0.4-0.4-0.7-0.6-1l-0.1-0.1l0-0.1c-0.1-0.2-0.2-0.3-0.3-0.5
			c-0.1-0.1-0.3-0.3-0.4-0.4c-0.2-0.1-0.3-0.2-0.5-0.3c-0.1,0-0.2-0.1-0.3-0.1l-0.1,0l-0.2,0c-0.8-0.2-1.7-0.1-2.6,0.1
			c-0.9,0.2-1.8,0.4-2.7,0.8c-0.9,0.3-1.7,0.8-2.5,1.4l0,0l0,0c-0.8,0.4-1.6,0.9-2.3,1.6c-0.7,0.6-1.4,1.3-2,2.1
			c-0.6,0.8-1.1,1.6-1.3,2.5c-0.2,0.9,0,2,0.6,2.7L45,90.5z M44.3,87.7c0.2-1,0.7-1.8,1.2-2.6c0.5-0.8,1.1-1.6,1.8-2.3
			c0.7-0.7,1.5-1.3,2.3-1.8l0,0c0.8-0.7,1.6-1.2,2.5-1.7c0.9-0.4,1.8-0.8,2.8-1.1c1-0.2,2-0.5,3.2-0.3l0.2,0l0.2,0.1
			c0.1,0,0.3,0.1,0.4,0.2c0.3,0.1,0.5,0.3,0.8,0.4c0.2,0.2,0.5,0.4,0.7,0.6c0.2,0.2,0.4,0.5,0.5,0.7l-0.1-0.1
			c0.4,0.4,0.7,0.9,0.9,1.4c0.1,0.3,0.2,0.6,0.2,0.9c0,0.2,0,0.3,0,0.5c0,0.1,0,0.1,0,0.3l0,0.2c0,0.1-0.1,0.3-0.1,0.4
			c0,0.2-0.1,0.3-0.2,0.4c-0.1,0.3-0.3,0.5-0.5,0.7c-0.4,0.4-0.8,0.7-1.3,1c-0.4,0.3-0.9,0.4-1.3,0.7c-0.4,0.2-0.9,0.4-1.4,0.6
			c-0.9,0.4-1.8,0.7-2.7,1.1l0.1,0c-0.7,0.6-1.4,1.3-2.2,1.9c-0.7,0.7-1.5,1.2-2.3,1.8c-0.4,0.3-0.8,0.5-1.3,0.7
			c-0.5,0.1-1,0.2-1.5,0.1c-1-0.2-1.7-1-2.1-1.8l0,0l-0.1-0.1C44.3,89.7,44.1,88.6,44.3,87.7z"/>
	</g>
	<g>
		<path class="st3" d="M60.2,80.3L60.2,80.3c0.6,0.7,1.1,1.7,0.9,2.7c-0.1,0.5-0.3,0.9-0.6,1.3c-0.3,0.4-0.7,0.7-1.1,0.9
			c-0.8,0.5-1.7,1-2.5,1.4c-0.9,0.4-1.8,0.8-2.6,1.3l0.1,0c-0.7,0.7-1.3,1.4-2,2.1c-0.3,0.4-0.7,0.7-1.1,1c-0.4,0.3-0.7,0.7-1.1,1
			c-0.4,0.3-0.9,0.6-1.4,0.8c-0.3,0.1-0.6,0.2-0.9,0.2c-0.2,0-0.3,0-0.5,0c-0.2,0-0.3,0-0.4-0.1l-0.2,0c-0.1,0-0.2,0-0.2-0.1
			c-0.1-0.1-0.3-0.1-0.4-0.2c-0.3-0.1-0.5-0.3-0.7-0.5c-0.4-0.4-0.8-0.9-1-1.3l0.1,0.1c-0.2-0.2-0.4-0.5-0.5-0.7
			c-0.1-0.3-0.2-0.5-0.3-0.8c-0.1-0.3-0.1-0.6-0.1-0.9c0-0.1,0-0.3,0-0.4l0-0.2l0-0.2c0.2-1.1,0.8-2,1.4-2.8
			c0.6-0.8,1.3-1.5,2.1-2.2c0.8-0.7,1.6-1.2,2.5-1.7l0,0c0.8-0.6,1.7-1.1,2.6-1.4c0.9-0.4,1.8-0.6,2.8-0.8c0.9-0.2,1.9-0.4,2.9-0.2
			c0.9,0.2,1.8,0.8,2.3,1.6L60.2,80.3z M57.8,78.6c-1-0.2-1.9,0.1-2.8,0.3c-0.9,0.2-1.8,0.6-2.7,1c-0.8,0.4-1.6,1-2.3,1.6l0,0l0,0
			c-0.8,0.5-1.6,1.1-2.2,1.8c-0.7,0.7-1.2,1.4-1.8,2.2c-0.5,0.8-1,1.6-1.1,2.4l0,0.2l0,0.1c0,0.1,0,0.2,0,0.3c0,0.2,0,0.4,0.1,0.6
			c0,0.2,0.1,0.4,0.2,0.5c0.1,0.2,0.2,0.3,0.3,0.5l0,0l0,0.1c0.2,0.4,0.4,0.7,0.7,1c0.1,0.1,0.3,0.2,0.5,0.3c0.1,0,0.2,0.1,0.2,0.1
			l0.1,0l0.2,0c0.1,0,0.2,0,0.3,0c0.1,0,0.2,0,0.3,0c0.2,0,0.4,0,0.6-0.1c0.4-0.1,0.7-0.3,1.1-0.6l1.1-0.9c0.4-0.3,0.7-0.6,1.1-0.9
			c0.7-0.6,1.4-1.3,2.2-1.9l0,0l0,0c0.9-0.4,1.8-0.7,2.7-1.1c0.4-0.2,0.9-0.4,1.3-0.6c0.4-0.2,0.9-0.4,1.3-0.6
			c0.4-0.2,0.8-0.5,1.1-0.9c0.3-0.4,0.5-0.8,0.6-1.3c0.2-1-0.2-1.9-0.9-2.6l0,0l-0.1-0.2C59.7,79.3,58.8,78.7,57.8,78.6z"/>
	</g>
	<g>
		<path class="st11" d="M46.9,81.3c0.1,0,0.1-0.1,0.2-0.1c0.4-0.3,2.5-1.7,3-2c0.1,0,0.1-0.1,0.2-0.1c2.2-1.6,3.4,0.8,2.7,2.6
			c-0.3,0.8-1.1,1.4-1.9,1.9c-0.1,0-0.1,0.1-0.2,0.1c0,0-0.1,0.1-0.1,0.1c-0.8,0.5-1.6,1-2.5,1C46.4,84.7,44.6,82.7,46.9,81.3z"/>
	</g>
	<g>
		<path class="st12" d="M47.3,83.2c0.9,0,1.7-0.5,2.5-1c0.1,0,0.1-0.1,0.1-0.1c0.1,0,0.1-0.1,0.2-0.1c0.8-0.5,1.5-1.1,1.9-1.9
			c0.2-0.5,0.2-1,0.2-1.5c0.9,0.4,1.3,1.8,0.8,3c-0.3,0.8-1.1,1.4-1.9,1.9c-0.1,0-0.1,0.1-0.2,0.1c0,0-0.1,0.1-0.1,0.1
			c-0.8,0.5-1.6,1-2.5,1c-1.3,0-2.5-0.9-2.5-1.9C46.3,83.1,46.8,83.2,47.3,83.2z"/>
	</g>
	<g>
		<path class="st3" d="M46.2,82c-0.1,0.1-0.2,0.3-0.2,0.5c0,0.2-0.1,0.3,0,0.5c0,0.2,0.1,0.3,0.2,0.5c0.1,0.1,0.2,0.3,0.3,0.4
			c0.2,0.2,0.5,0.4,0.8,0.5c0.1,0.1,0.3,0.1,0.5,0.1c0.2,0,0.3,0,0.5,0c0.2,0,0.3,0,0.4-0.1c0.1,0,0.3-0.1,0.4-0.1
			c0.3-0.1,0.5-0.3,0.8-0.5c0.3-0.2,0.6-0.4,0.8-0.6l0,0l0,0c0.2-0.1,0.4-0.3,0.6-0.4c0.2-0.2,0.4-0.3,0.5-0.5
			c0.2-0.2,0.3-0.3,0.4-0.5c0.1-0.1,0.1-0.2,0.1-0.2c0,0,0.1-0.1,0.1-0.2l0-0.1c0.3-0.7,0.2-1.7-0.3-2.2c-0.1-0.1-0.3-0.2-0.5-0.2
			c-0.2,0-0.4,0-0.6,0.1c-0.1,0-0.2,0.1-0.3,0.1c-0.1,0.1-0.2,0.1-0.3,0.2l-0.7,0.4c-0.9,0.5-1.8,1-2.6,1.6
			C46.6,81.5,46.4,81.7,46.2,82z M49.4,79.4L50,79c0.2-0.2,0.4-0.3,0.6-0.5c0.3-0.2,0.5-0.3,0.8-0.3c0.3-0.1,0.7,0,1,0.1
			c0.3,0.1,0.6,0.4,0.8,0.6c0.2,0.3,0.3,0.6,0.4,0.9c0.1,0.6,0.2,1.2,0,1.8l-0.1,0.2L53.4,82c-0.1,0.2-0.2,0.3-0.2,0.4
			c-0.2,0.3-0.4,0.5-0.6,0.7c-0.2,0.2-0.4,0.4-0.7,0.5c-0.2,0.2-0.4,0.3-0.7,0.4l0,0c-0.3,0.2-0.6,0.4-1,0.5
			c-0.3,0.2-0.7,0.3-1.1,0.4c-0.2,0-0.4,0.1-0.6,0.1c-0.2,0-0.4,0-0.6,0c-0.2,0-0.4-0.1-0.6-0.1c-0.2-0.1-0.3-0.1-0.5-0.2
			c-0.3-0.2-0.6-0.4-0.8-0.7c-0.1-0.1-0.2-0.3-0.3-0.5c-0.1-0.2-0.1-0.4-0.1-0.5c0-0.2,0-0.4,0.1-0.5c0.1-0.2,0.2-0.3,0.3-0.4
			c0.2-0.3,0.5-0.5,0.8-0.7C47.8,80.7,48.6,80.1,49.4,79.4z"/>
	</g>
	<g>
		<path class="st3" d="M51.2,78.5c0.2-0.1,0.3-0.1,0.5-0.1c0.2,0,0.4,0,0.5,0.1c0.2,0.1,0.3,0.2,0.4,0.3c0.1,0.1,0.2,0.3,0.3,0.4
			c0.2,0.3,0.3,0.7,0.3,1c0,0.2,0,0.4,0,0.6c0,0.2,0,0.4-0.1,0.6c0,0.2-0.1,0.4-0.2,0.6c-0.1,0.2-0.2,0.4-0.3,0.5
			c-0.2,0.3-0.5,0.6-0.8,0.9c-0.3,0.3-0.5,0.5-0.9,0.7l0,0c-0.2,0.2-0.4,0.3-0.7,0.5c-0.2,0.1-0.5,0.3-0.7,0.4
			c-0.3,0.1-0.5,0.2-0.9,0.3c-0.2,0-0.3,0.1-0.5,0.1l-0.2,0l-0.3,0c-0.6,0-1.2-0.3-1.7-0.7c-0.2-0.2-0.5-0.4-0.6-0.7
			c-0.2-0.3-0.3-0.6-0.3-0.9c0-0.3,0.1-0.7,0.3-0.9c0.2-0.3,0.4-0.5,0.6-0.7c0.2-0.2,0.5-0.3,0.7-0.4l0.7-0.4c0.9-0.5,1.8-1,2.6-1.6
			C50.6,78.8,50.9,78.6,51.2,78.5z M47.8,80.8l-0.6,0.5c-0.1,0.1-0.2,0.2-0.3,0.2c-0.1,0.1-0.2,0.2-0.3,0.3
			c-0.1,0.2-0.3,0.4-0.3,0.5c-0.1,0.2-0.1,0.4,0,0.5c0.2,0.7,1.1,1.1,1.9,1.1l0.1,0c0.1,0,0.1,0,0.2,0c0.1,0,0.2,0,0.3-0.1
			c0.2-0.1,0.4-0.1,0.6-0.2c0.2-0.1,0.4-0.2,0.6-0.3c0.2-0.1,0.4-0.2,0.6-0.4l0,0l0,0c0.3-0.1,0.6-0.3,0.8-0.5
			c0.3-0.2,0.5-0.4,0.7-0.6c0.1-0.1,0.2-0.2,0.3-0.3c0.1-0.1,0.1-0.2,0.2-0.4c0.1-0.2,0.1-0.3,0.2-0.4c0-0.2,0.1-0.3,0.1-0.5
			c0-0.3,0-0.6-0.1-0.9c-0.1-0.1-0.1-0.3-0.2-0.4c-0.1-0.1-0.2-0.2-0.4-0.3c-0.1-0.1-0.3-0.1-0.5-0.2c-0.2,0-0.3,0-0.5,0
			c-0.3,0.1-0.6,0.3-0.9,0.4C49.4,79.6,48.6,80.2,47.8,80.8z"/>
	</g>
</g>
</svg>
