<?xml version="1.0" encoding="utf-8"?>
<!-- Generator: Adobe Illustrator 21.1.0, SVG Export Plug-In . SVG Version: 6.00 Build 0)  -->
<svg version="1.1" id="Layer_1" xmlns="http://www.w3.org/2000/svg" xmlns:xlink="http://www.w3.org/1999/xlink" x="0px" y="0px"
	 viewBox="0 0 167.3 196.5" style="enable-background:new 0 0 167.3 196.5;" xml:space="preserve">
<style type="text/css">
	.st0{fill:#747EBC;}
	.st1{fill:#556199;}
	.st2{fill:#0B0B0B;}
	.st3{fill:#FFFFFF;}
	.st4{fill:#CAD7D8;}
	.st5{clip-path:url(#SVGID_2_);}
	.st6{fill:none;}
	.st7{fill:#EB2027;}
	.st8{opacity:0.2;}
	.st9{opacity:0.2;fill:#FFFFFF;}
	.st10{fill:#C2C2C1;}
	.st11{clip-path:url(#SVGID_4_);}
	.st12{fill-rule:evenodd;clip-rule:evenodd;fill:#F8C763;}
	.st13{fill-rule:evenodd;clip-rule:evenodd;fill:#DA9528;}
	.st14{fill-rule:evenodd;clip-rule:evenodd;fill:#FFE5C1;}
	.st15{fill:#CEC2AA;}
	.st16{fill:#98887A;}
	.st17{fill-rule:evenodd;clip-rule:evenodd;fill:#AD8761;}
	.st18{fill-rule:evenodd;clip-rule:evenodd;fill:#1E8343;}
	.st19{clip-path:url(#SVGID_6_);}
	.st20{fill-rule:evenodd;clip-rule:evenodd;fill:#329557;}
	.st21{fill-rule:evenodd;clip-rule:evenodd;fill:#22783E;}
	.st22{fill-rule:evenodd;clip-rule:evenodd;fill:#AB8051;}
	.st23{fill-rule:evenodd;clip-rule:evenodd;fill:#BE9467;}
	.st24{fill-rule:evenodd;clip-rule:evenodd;fill:#C09E7E;}
	.st25{fill:#D6DDDC;}
	.st26{fill:#D8B59B;}
	.st27{fill:#A78F76;}
	.st28{fill:#474840;}
	.st29{fill:#30302B;}
	.st30{opacity:0.66;}
</style>
<g>
	<path class="st0" d="M114.7,168.9c-0.1,8.3,2.1,17.7,8,24c1.9,2,3.9,3.2,6.7,2.7c2.3-0.4,4.7-1.7,4.9-4.2
		c0.8-7.1-2.5-14.5-4.5-21.1"/>
</g>
<g>
	<path class="st1" d="M126.7,191c1.9,2,3.9,3.2,6.6,2.7c-1,1.1-2.5,1.7-3.9,1.9c-2.8,0.5-4.8-0.7-6.7-2.7c-3.1-3.3-5.1-7.4-6.4-11.7
		c-0.5-1.7-3.4-11.3,0.4-11c2.1,0.1,2.3,2.6,2.6,4.1c0.3,2,0.8,4,1.4,6C121.9,184.2,123.9,187.9,126.7,191z"/>
</g>
<g>
	<path class="st2" d="M114.7,168.9c0,0,0,0.2,0,0.7c0,0.5-0.1,1.1-0.1,2c0,0.9,0,1.9,0.1,3.1c0.1,1.2,0.2,2.5,0.5,4
		c0.5,2.9,1.5,6.3,3.3,9.6c0.9,1.6,2,3.3,3.3,4.7c1.3,1.5,2.9,3,5.1,3.4c1.1,0.2,2.2,0.1,3.2-0.1c1-0.2,2-0.6,2.9-1.3
		c0.9-0.6,1.6-1.6,1.9-2.7c0.1-0.3,0.1-0.5,0.2-0.8l0-0.7c0-0.5,0-0.9,0-1.4c0-1.9-0.3-3.7-0.6-5.3c-0.3-1.7-0.8-3.2-1.3-4.6
		c-0.9-2.8-1.9-5-2.5-6.6c-0.6-1.6-1-2.5-1-2.5s0.2,1,0.7,2.6c0.5,1.6,1.2,4,1.9,6.8c0.4,1.4,0.7,2.9,1,4.6c0.3,1.6,0.4,3.4,0.4,5.1
		c0,0.4,0,0.9-0.1,1.3l-0.1,0.7c0,0.1-0.1,0.4-0.1,0.5c-0.2,0.7-0.7,1.4-1.4,1.9c-0.7,0.5-1.5,0.8-2.4,1c-0.9,0.2-1.8,0.3-2.6,0.1
		c-1.7-0.3-3.1-1.5-4.3-2.9c-1.2-1.4-2.3-2.9-3.2-4.4c-0.9-1.6-1.6-3.1-2.2-4.7c-0.6-1.5-1-3-1.4-4.4c-0.3-1.4-0.6-2.7-0.8-3.9
		c-0.2-1.2-0.3-2.2-0.4-3c-0.1-0.8-0.1-1.5-0.1-2C114.7,169.1,114.7,168.9,114.7,168.9z"/>
</g>
<g>
	<path class="st0" d="M87,168.9c0.1,8.3-2.1,17.7-8,24c-1.9,2-3.9,3.2-6.7,2.7c-2.3-0.4-4.7-1.7-4.9-4.2c-0.8-7.1,2.5-14.5,4.5-21.1
		"/>
</g>
<g>
	<path class="st1" d="M75,191c-1.9,2-3.9,3.2-6.6,2.7c1,1.1,2.5,1.7,3.9,1.9c2.8,0.5,4.8-0.7,6.7-2.7c3.1-3.3,5.1-7.4,6.4-11.7
		c0.5-1.7,3.4-11.3-0.4-11c-2.1,0.1-2.3,2.6-2.6,4.1c-0.3,2-0.8,4-1.4,6C79.8,184.2,77.8,187.9,75,191z"/>
</g>
<g>
	<path class="st2" d="M87,168.9c0,0,0,0.2,0,0.7c0,0.5,0.1,1.1,0.1,2c0,0.9,0,1.9-0.1,3.1c-0.1,1.2-0.2,2.5-0.5,4
		c-0.5,2.9-1.5,6.3-3.3,9.6c-0.9,1.6-2,3.3-3.3,4.7c-1.3,1.5-2.9,3-5.1,3.4c-1.1,0.2-2.2,0.1-3.2-0.1c-1-0.2-2-0.6-2.9-1.3
		c-0.9-0.6-1.6-1.6-1.9-2.7c-0.1-0.3-0.1-0.5-0.2-0.8l0-0.7c0-0.5,0-0.9,0-1.4c0-1.9,0.3-3.7,0.6-5.3c0.3-1.7,0.8-3.2,1.3-4.6
		c0.9-2.8,1.9-5,2.5-6.6c0.6-1.6,1-2.5,1-2.5s-0.2,1-0.7,2.6c-0.5,1.6-1.2,4-1.9,6.8c-0.4,1.4-0.7,2.9-1,4.6
		c-0.3,1.6-0.4,3.4-0.4,5.1c0,0.4,0,0.9,0.1,1.3l0.1,0.7c0,0.1,0.1,0.4,0.1,0.5c0.2,0.7,0.7,1.4,1.4,1.9c0.7,0.5,1.5,0.8,2.4,1
		c0.9,0.2,1.8,0.3,2.6,0.1c1.7-0.3,3.1-1.5,4.3-2.9c1.2-1.4,2.3-2.9,3.2-4.4c0.9-1.6,1.6-3.1,2.2-4.7c0.6-1.5,1-3,1.4-4.4
		c0.3-1.4,0.6-2.7,0.8-3.9c0.2-1.2,0.3-2.2,0.4-3c0.1-0.8,0.1-1.5,0.1-2C87,169.1,87,168.9,87,168.9z"/>
</g>
<g>
	<path class="st0" d="M127.8,16c-0.4,3.2-2.7,6.2-5.1,8.3c-2.3,2-6.5-0.2-8.2-2.1c-1.4-1.6-0.3-3.5-0.1-5.3c0.2-2.3-0.1-4.9,1.7-6.7
		c2-1.8,5.8-1.2,8.1-0.3C126.8,11,128.1,13.2,127.8,16z"/>
</g>
<g>
	<path class="st1" d="M117.2,12.2c-0.1-0.1-0.1-0.3,0-0.4c0.1-0.1,0.2-0.2,0.3-0.2c0.5-0.1,1-0.2,1.5-0.2c1.7,0,3.4,0.4,4.7,1.4
		c0.4,0.3,0.7,0.6,0.7,1.1c0,0.1,0,0.2-0.1,0.3c-0.1,0.1-0.2,0.1-0.3,0.2c-1.4,0.5-2.4,1.4-3.3,2.5c-0.4,0.5-0.8,1.1-1,1.8
		c-0.1,0.3-0.2,0.6-0.2,1c0,0.1,0,0.9,0,1c-0.3,0.2-0.6,0.4-0.9,0.5c-0.3-1.3,0.4-4,0.3-4.9c-0.1-1-0.3-1.9-0.8-2.7
		c-0.2-0.3-0.3-0.7-0.5-1C117.4,12.5,117.3,12.4,117.2,12.2z"/>
</g>
<g>
	<path class="st2" d="M114.1,22.4c-1.2-1.4-0.8-2.9-0.5-4.2c0.1-0.5,0.2-1,0.3-1.5c0-0.4,0.1-0.9,0.1-1.3c0.1-2,0.2-4.1,1.8-5.7
		c2.4-2.2,6.5-1.2,8.6-0.3c2.8,1.2,4.2,3.6,3.8,6.6l0,0c-0.5,3.9-3.5,7-5.3,8.6c-0.7,0.6-1.6,0.9-2.6,0.9
		C118,25.5,115.4,23.9,114.1,22.4z M127.3,15.9c0.3-2.5-0.9-4.5-3.2-5.5c-2.4-1-5.8-1.4-7.6,0.2c-1.4,1.2-1.4,3.1-1.5,5
		c0,0.5,0,0.9-0.1,1.4c0,0.6-0.2,1.1-0.3,1.6c-0.3,1.2-0.6,2.3,0.3,3.3c1.5,1.7,5.4,3.9,7.5,2.1C124,22.4,126.8,19.5,127.3,15.9
		L127.3,15.9z"/>
</g>
<g>
	<path class="st2" d="M124.6,14.2c0,0-0.2,0-0.5,0c-0.3,0-0.7,0.1-1.2,0.3c-0.5,0.2-1.1,0.5-1.6,0.9c-0.5,0.4-1,1-1.4,1.6
		c-0.4,0.6-0.7,1.3-0.9,1.9c-0.2,0.6-0.3,1.3-0.3,1.8c0,0.5,0.1,1,0.2,1.3c0.1,0.3,0.1,0.5,0.1,0.5s0-0.2,0.1-0.5
		c0-0.3,0.1-0.7,0.2-1.2c0.2-1,0.7-2.2,1.4-3.2c0.4-0.6,0.8-1,1.2-1.5c0.4-0.4,0.9-0.8,1.3-1.1C123.9,14.5,124.6,14.2,124.6,14.2z"
		/>
</g>
<g>
	<path class="st2" d="M117,12c0,0,0.4,0.5,0.8,1.4c0.2,0.4,0.4,0.9,0.5,1.5c0.1,0.3,0.1,0.6,0.2,0.9c0,0.3,0.1,0.6,0.1,0.9
		c0.1,1.2,0,2.5-0.3,3.4c-0.1,0.5-0.2,0.8-0.3,1.1c-0.1,0.3-0.1,0.4-0.1,0.4s0.1-0.1,0.3-0.3c0.2-0.2,0.4-0.6,0.7-1
		c0.2-0.4,0.5-1,0.6-1.6c0.1-0.6,0.2-1.3,0.1-2c0-0.4-0.1-0.7-0.1-1c-0.1-0.3-0.2-0.7-0.3-1c-0.2-0.6-0.6-1.1-0.9-1.5
		c-0.3-0.4-0.7-0.7-0.9-0.8C117.1,12.1,117,12,117,12z"/>
</g>
<g>
	<path class="st0" d="M75.1,4.9c0.5,3-0.7,6.1-2.2,8.6c-1.5,2.4-5.7,1.6-7.7,0.4c-1.7-1-1.2-3-1.5-4.6C63.2,7.2,62.2,5,63.4,3
		c1.3-2.2,4.7-2.7,7-2.4C72.9,0.8,74.7,2.4,75.1,4.9z"/>
</g>
<g>
	<path class="st1" d="M64.9,4.5c-0.1-0.1-0.2-0.2-0.1-0.3c0-0.1,0.1-0.2,0.2-0.2c0.4-0.3,0.8-0.4,1.3-0.6c1.5-0.4,3.1-0.6,4.5,0
		c0.4,0.1,0.8,0.4,0.9,0.7c0,0.1,0.1,0.2,0,0.3c0,0.1-0.1,0.2-0.2,0.2c-1.1,0.8-1.7,1.9-2.2,3.1c-0.2,0.6-0.4,1.2-0.4,1.9
		c0,0.3,0,0.6,0.1,0.9c0,0.1,0.3,0.8,0.2,0.9c-0.2,0.3-0.4,0.5-0.7,0.7c-0.6-1.1-0.8-3.6-1.1-4.4C67,6.8,66.6,6.1,66,5.5
		c-0.2-0.2-0.5-0.5-0.7-0.7C65.1,4.7,65,4.6,64.9,4.5z"/>
</g>
<g>
	<path class="st2" d="M64.9,14.3c-1.4-0.9-1.5-2.3-1.6-3.5c0-0.5-0.1-0.9-0.2-1.4C63.1,9,63,8.6,62.9,8.2c-0.5-1.7-1-3.7,0.1-5.5
		c1.5-2.6,5.4-2.9,7.5-2.7c2.8,0.3,4.7,2,5.2,4.7l0,0c0.6,3.6-1.2,7.2-2.3,9c-0.8,1.3-2.3,1.8-3.8,1.8C67.9,15.5,66.1,15,64.9,14.3z
		 M74.7,5c-0.4-2.3-2-3.7-4.3-3.9c-2.4-0.2-5.5,0.4-6.5,2.2c-0.8,1.4-0.4,3,0,4.7c0.1,0.4,0.2,0.8,0.3,1.2c0.1,0.5,0.1,1,0.2,1.5
		c0.1,1.2,0.1,2.2,1.1,2.8c1.8,1.1,5.8,1.9,7.1-0.2C73.6,11.5,75.2,8.2,74.7,5L74.7,5z"/>
</g>
<g>
	<path class="st2" d="M71.9,4.2c0,0-0.2,0-0.4,0.2c-0.3,0.1-0.6,0.3-1,0.6c-0.4,0.3-0.8,0.7-1.2,1.2c-0.4,0.5-0.7,1.1-0.8,1.8
		c-0.2,0.6-0.3,1.3-0.3,1.9c0,0.6,0.1,1.2,0.3,1.7c0.2,0.5,0.4,0.8,0.5,1.1c0.2,0.2,0.3,0.4,0.3,0.4s0-0.2-0.1-0.4
		c0-0.3-0.1-0.7-0.1-1.1c-0.1-0.9,0-2.1,0.4-3.2c0.2-0.6,0.4-1.1,0.6-1.6c0.3-0.5,0.5-0.9,0.8-1.3C71.4,4.6,71.9,4.2,71.9,4.2z"/>
</g>
<g>
	<path class="st2" d="M64.6,4.4c0,0,0.5,0.4,1.1,1c0.3,0.3,0.6,0.7,0.9,1.2c0.1,0.2,0.3,0.5,0.4,0.7C67,7.5,67.1,7.8,67.2,8
		c0.4,1,0.6,2.1,0.7,3c0,0.4,0,0.8,0,1.1c0,0.3,0,0.4,0,0.4s0.1-0.1,0.2-0.4c0.1-0.2,0.2-0.6,0.3-1.1c0.1-0.5,0.1-1,0.1-1.6
		c0-0.6-0.2-1.2-0.4-1.8c-0.1-0.3-0.2-0.6-0.4-0.9c-0.1-0.3-0.3-0.5-0.5-0.8c-0.4-0.5-0.8-0.8-1.2-1.1c-0.4-0.3-0.8-0.4-1-0.5
		C64.8,4.4,64.6,4.4,64.6,4.4z"/>
</g>
<g>
	<path class="st0" d="M153.5,157.2c2.6-4.5,4.1-9.7,5.3-14.8c3-12.7-1.3-26.1-3.1-38.6c-0.6-4.3-0.9-8.7-1.4-13
		c-0.8-6.6-2.1-13.1-4-19.4c-3.4-11.2-8.3-23.2-15.1-32.8c-2.7-3.9-5.9-7.7-9.1-11.2c-3.1-3.4-6.5-6.7-10.2-9.5
		c-6.5-4.9-15.4-8.5-23.5-9.6c-13.5-1.9-28.6-0.9-41.3,4.5c-16.6,7.1-24.4,25.5-23.5,42.7c0.6,10.7,1.4,20.2,6.3,30.1
		c4.5,9.3,11.6,18,11.5,28.4c-0.2,9.9-0.5,20.2,2.3,29.8c2.6,9.1,5.9,15.9,12.7,22.6c8.9,8.8,19.7,13.1,32.1,14.1
		c5.5,0.4,10.9,0.4,16.3-0.2c7.1-0.9,13.9-0.8,20.9-3C140.1,173.9,148,166.6,153.5,157.2z"/>
</g>
<g>
	<path class="st1" d="M54.2,158.4c8.9,8.8,19.7,13.1,32.1,14.1c5.5,0.4,10.9,0.4,16.3-0.2c7.1-0.9,13.9-0.8,20.9-3
		c10.5-3.4,18.4-10.7,23.9-20.1c2.6-4.5,4.1-9.7,5.3-14.8c3-12.7-1.3-26.1-3.1-38.6c-0.6-4.3-0.9-8.7-1.4-13
		c-0.8-6.6-2.1-13.1-4-19.4c-3.2-10.6-7.7-21.8-14-31.1c1.7,2.1,3.3,4.2,4.8,6.3c6.9,9.6,11.7,21.6,15.1,32.8
		c1.9,6.3,3.2,12.9,4,19.4c0.5,4.3,0.8,8.7,1.4,13c1.9,12.5,6.1,25.9,3.1,38.6c-1.2,5.1-2.7,10.2-5.3,14.8
		c-5.5,9.4-13.4,16.8-23.9,20.1c-6.9,2.2-13.8,2.1-20.9,3c-5.4,0.7-10.8,0.7-16.3,0.2c-12.5-1-23.2-5.3-32.1-14.1
		c-3.1-3-5.4-6.1-7.3-9.3C53.4,157.5,53.8,157.9,54.2,158.4z"/>
</g>
<g>
	<path class="st3" d="M43.9,105.4c1.2,3.8,13.8,1.8,16.4,1.5c4.3-0.4,9.1-1.9,13,0.4c1.3,0.8,10.5,4.7,10.4,6.1
		c0.2-2.3,1.4-4.5,2.9-6.2s3.5-3.1,5.5-4.3c5.3-3.4,12-4.5,17.6-7.3c14.6-7.3,28.8-13.6,38.2-27.8c0.1-0.2,0.3-0.4,0.5-0.5
		c0.7-0.4,1.3,0.6,1.5,1.4c1.8,7.2,3.3,14.6,4.2,22c0.5,4.3,0.8,8.7,1.4,13c1.9,12.5,6.1,25.9,3.1,38.6c-1.2,5.1-2.7,10.2-5.3,14.8
		c-5.5,9.4-13.4,16.8-23.9,20.1c-6.9,2.2-13.8,2.1-20.9,3c-5.4,0.7-10.8,0.7-16.3,0.2c-12.5-1-23.2-5.3-32.1-14.1
		c-6.8-6.7-10.1-13.5-12.7-22.6c-2.8-9.7-2.4-19.9-2.3-29.8C45.4,111,44.8,108.2,43.9,105.4z"/>
</g>
<g>
	<g>
		<g>
			<path class="st4" d="M44.5,107.6c-0.2-0.7-0.4-1.5-0.6-2.2c0.5,1.4,2.6,2,5.2,2.2C47.5,107.8,46,107.8,44.5,107.6z"/>
		</g>
	</g>
	<g>
		<g>
			<path class="st4" d="M79.8,113.5c0.1-1.5-9.1-5.4-10.4-6.1c-1-0.6-2.2-0.9-3.3-1.1c2.5-0.3,5.1-0.2,7.3,1.1
				c0.8,0.5,4.3,2,7.1,3.5C80.1,111.7,79.8,112.6,79.8,113.5z"/>
		</g>
	</g>
	<g>
		<g>
			<path class="st4" d="M104.7,180.3c7.1-0.9,13.9-0.8,20.9-3c10.5-3.4,18.4-10.7,23.9-20.1c2.6-4.5,4.1-9.7,5.3-14.8
				c3-12.7-1.3-26.1-3.1-38.6c-0.6-4.3-0.9-8.7-1.4-13c-0.8-6.9-2.2-13.8-3.9-20.5c0.6-0.8,1.1-1.6,1.7-2.4c0.1-0.2,0.3-0.4,0.5-0.5
				c0.7-0.4,1.3,0.6,1.5,1.4c1.8,7.2,3.3,14.6,4.2,22c0.5,4.3,0.8,8.7,1.4,13c1.9,12.5,6.1,25.9,3.1,38.6
				c-1.2,5.1-2.7,10.2-5.3,14.8c-5.5,9.4-13.4,16.8-23.9,20.1c-6.9,2.2-13.8,2.1-20.9,3c-3.7,0.5-7.4,0.6-11.1,0.5
				C100,180.7,102.4,180.6,104.7,180.3z"/>
		</g>
	</g>
</g>
<g>
	<path class="st4" d="M132.3,139.1c-6.5,0.3-13,0.5-19.5,0.8c-2.3,0.1-5.3-0.3-5.7-2.6c-0.2-0.9,0.1-1.8,0.4-2.6
		c0.2-0.7,3.9-8.8,4.2-8.7c3.8,1.5,7.3,3.6,11.1,5.1c1.1,0.5,2.5,0.7,3.6,1.3c0.6,0.3,3.1,3,3.4,1.5c0.4-2.2,1.2-4.1,1.7-6.2
		c1-4.7,3.1-10.1,3.3-14.9c2.1,2,3.1,4.8,3.4,7.7C138.6,124.8,138.9,138.8,132.3,139.1z"/>
</g>
<g>
	<path class="st2" d="M92.3,181.3c-13.3-1.1-23.9-5.8-32.6-14.4c-7.3-7.2-10.4-14.4-12.9-22.9c-2.6-9.2-2.5-18.9-2.3-28.3l0-1.8
		c0-2.6-0.4-5.3-1.4-8.2c0,0,0,0,0,0l1.4-0.5c0,0,0,0,0,0c0.9,2.7,10.9,1.6,14.2,1.2c0.6-0.1,1.1-0.1,1.5-0.2
		c0.9-0.1,1.9-0.2,2.9-0.4c3.6-0.5,7.2-1,10.5,0.8c0.3,0.2,1,0.5,1.9,0.9c4.1,1.9,6.4,3.2,7.7,4.1c0.6-2.1,1.8-3.8,2.8-5
		c1.7-1.9,3.8-3.3,5.6-4.4c3.1-2,6.7-3.2,10.2-4.4c2.5-0.9,5.1-1.8,7.5-2.9l2.8-1.4c13.6-6.7,26.4-13,35.1-26.2
		c0.1-0.2,0.4-0.6,0.8-0.8c0.4-0.2,0.8-0.2,1.2,0c0.7,0.3,1.2,1.2,1.3,1.9c2.2,8.9,3.5,15.7,4.3,22.1c0.2,1.7,0.4,3.4,0.5,5.1
		c0.3,2.6,0.5,5.2,0.9,7.8c0.4,3,1,6.1,1.6,9.1c1.9,9.8,3.8,20,1.5,29.8c-1.2,5-2.6,10.3-5.4,15c-5.9,10.2-14.3,17.3-24.3,20.5
		c-4.9,1.6-9.9,2-14.7,2.4c-2.1,0.2-4.2,0.3-6.3,0.6c-2.9,0.4-5.9,0.6-9.1,0.6C97.3,181.6,94.9,181.5,92.3,181.3z M148.6,68.2
		c-8.9,13.5-21.9,19.9-35.7,26.7l-2.8,1.4c-2.4,1.2-5.1,2.1-7.7,3c-3.4,1.2-6.9,2.4-9.9,4.3c-1.7,1.1-3.7,2.5-5.3,4.2
		c-1.1,1.3-2.5,3.3-2.7,5.8v0l-1.5-0.1c0,0.1,0,0.1,0,0.1c-0.4-1-6.2-3.7-8.1-4.6c-1-0.5-1.7-0.8-2-1c-2.8-1.6-6.2-1.1-9.5-0.6
		c-1,0.1-2,0.3-3,0.4c-0.3,0-0.8,0.1-1.4,0.2c-5.5,0.6-10.8,1-13.7-0.2c0.5,2.1,0.8,4.2,0.7,6.2l0,1.8c-0.2,9.3-0.3,18.9,2.3,27.8
		c2.4,8.3,5.4,15.3,12.5,22.3c8.4,8.3,18.8,12.9,31.7,13.9c5.9,0.5,11.1,0.4,16.2-0.2c2.1-0.3,4.3-0.4,6.4-0.6
		c4.9-0.4,9.6-0.8,14.4-2.3c9.6-3.1,17.7-9.9,23.5-19.8c2.6-4.5,4.1-9.7,5.2-14.6c2.2-9.5,0.3-19.5-1.5-29.2c-0.6-3-1.2-6.1-1.6-9.1
		c-0.4-2.6-0.7-5.3-0.9-7.9c-0.2-1.7-0.3-3.4-0.5-5.1c-0.8-6.4-2.1-13.1-4.2-21.9c-0.1-0.5-0.4-0.9-0.4-0.9
		C148.7,68,148.6,68.2,148.6,68.2z"/>
</g>
<g>
	<path class="st4" d="M94.2,118.2c-5.3,2.6-11.1,4.5-16.1,7.9c-3.3,2.3-6.5,5.2-7.7,9c-1.2,3.8,0.1,8.7,3.8,10.3
		c2.1,1,4.6,0.7,6.9,0.4c2.3-0.3,4.6-0.8,6.4-2.2c1.4-1.1,2.2-2.7,3.3-4.1c1.7-2.3,4.1-4.2,6.3-6c8.3-6.6,15.7-13.5,24.4-19.5
		c10.3-7.2,21.4-13.7,33.2-18c-0.2-0.5-0.4-1-0.5-1.6c-0.1-0.3-0.2-0.6-0.4-0.8c-0.2-0.1-0.4-0.2-0.6-0.3c-5.7-2.5-9.7-2.3-15.6-0.2
		c-4.5,1.5-8.7,3.7-13,5.7c-8.3,3.8-16.2,8.7-23.1,14.8C99.3,115.4,96.8,116.9,94.2,118.2z"/>
</g>
<g>
	<path class="st2" d="M92.3,181.3c-13.3-1.1-23.9-5.8-32.6-14.4c-7.3-7.2-10.4-14.4-12.9-22.9c-2.6-9.2-2.5-18.9-2.3-28.3l0-1.8
		c0.1-7.5-3.8-14.3-7.5-20.9c-1.3-2.3-2.7-4.7-3.8-7.1c-4.9-10-5.8-19.7-6.4-30.4C26,39.3,33,19.6,50.8,12C62.6,7,77.4,5.4,92.4,7.5
		c8.3,1.2,17.4,4.9,23.8,9.7c3.5,2.6,6.8,5.8,10.3,9.6c3.6,3.9,6.6,7.7,9.2,11.3c5.9,8.3,11,19.5,15.2,33.1c1.9,6.1,3.2,12.5,4,19.6
		c0.2,1.7,0.4,3.4,0.5,5.1c0.3,2.6,0.5,5.2,0.9,7.8c0.4,3,1,6.1,1.6,9.1c1.9,9.8,3.8,20,1.5,29.8c-1.2,5-2.6,10.3-5.4,15l0,0
		c-5.9,10.2-14.3,17.3-24.3,20.5c-4.9,1.6-9.9,2-14.7,2.4c-2.1,0.2-4.2,0.3-6.3,0.6c-2.9,0.4-5.9,0.6-9.1,0.6
		C97.3,181.6,94.9,181.5,92.3,181.3z M152.8,156.8c2.6-4.5,4.1-9.7,5.2-14.6c2.2-9.5,0.3-19.5-1.5-29.2c-0.6-3-1.2-6.1-1.6-9.1
		c-0.4-2.6-0.7-5.3-0.9-7.9c-0.2-1.7-0.3-3.4-0.5-5.1c-0.8-7-2.1-13.3-4-19.3c-4.1-13.4-9.2-24.4-15-32.6c-2.5-3.5-5.5-7.2-9-11.1
		c-3.4-3.7-6.7-6.8-10.1-9.4c-6.2-4.7-15.1-8.3-23.1-9.4C77.5,6.9,63,8.5,51.4,13.4c-17.1,7.3-23.9,26.3-23,42
		c0.6,10.5,1.4,20,6.2,29.8c1.2,2.4,2.5,4.7,3.8,7c3.9,6.8,7.8,13.8,7.7,21.7l0,1.8c-0.2,9.3-0.3,18.9,2.3,27.8
		c2.4,8.3,5.4,15.3,12.5,22.3c8.4,8.3,18.8,12.9,31.7,13.9c5.9,0.5,11.1,0.4,16.2-0.2c2.1-0.3,4.3-0.4,6.4-0.6
		c4.9-0.4,9.6-0.8,14.4-2.3C138.9,173.5,147,166.7,152.8,156.8L152.8,156.8z"/>
</g>
<g id="XMLID_118_">
	<g id="XMLID_119_">
		<g>
			<defs>
				<path id="SVGID_1_" d="M157.5,126.7c1.2-0.6,2.5-0.9,3.3-0.3c1.1,0.8,1,4.8,1.1,6.1c0.4,4.8-0.1,9.6-0.4,14.4
					c-0.5,8.1,0.2,15.5,4.4,22.7c0.3,0.5,0.6,1,0.6,1.6c0,0.9-0.7,1.6-1.3,2.2c-8,6.9-19.8,8.1-29.9,8.7c-11.5,0.7-23,1-34.5,0.9
					c-8-0.1-16.6,0.8-24.6-0.4c-8.4-1.3-16.7-3.9-23.6-8.8c-0.4-0.3-0.9-0.7-1-1.2c-0.1-0.6,0.2-1.1,0.6-1.6c2.6-4.1,3.8-8.6,4-13.4
					c0.1-2.7-1.7-11.2,0.8-13.1c1.3-1,6.3-0.4,8-0.5c2.9-0.1,5.7-0.3,8.6-0.5c5.5-0.3,11-0.6,16.5-1c22.1-1.5,45-3.6,64.4-14.2
					C155.2,128,156.4,127.3,157.5,126.7z"/>
			</defs>
			<clipPath id="SVGID_2_">
				<use xlink:href="#SVGID_1_"  style="overflow:visible;"/>
			</clipPath>
			<g class="st5">
				<rect x="34.2" y="101.6" class="st6" width="25.4" height="25.4"/>
				<rect x="34.2" y="101.6" class="st7" width="25.4" height="25.4"/>
				<rect x="37.6" y="101.6" class="st8" width="18.5" height="25.4"/>
				<rect x="41.4" y="101.6" class="st9" width="10.9" height="25.4"/>
				<rect x="44.8" y="101.6" class="st8" width="4.1" height="25.4"/>
				<rect x="34.2" y="105" class="st8" width="25.4" height="18.5"/>
				<rect x="34.2" y="108.8" class="st9" width="25.4" height="10.9"/>
				<rect x="34.2" y="112.3" class="st8" width="25.4" height="4.1"/>
			</g>
			<g class="st5">
				<rect x="34.2" y="127" class="st6" width="25.4" height="25.4"/>
				<rect x="34.2" y="127" class="st7" width="25.4" height="25.4"/>
				<rect x="37.6" y="127" class="st8" width="18.5" height="25.4"/>
				<rect x="41.4" y="127" class="st9" width="10.9" height="25.4"/>
				<rect x="44.8" y="127" class="st8" width="4.1" height="25.4"/>
				<rect x="34.2" y="130.4" class="st8" width="25.4" height="18.5"/>
				<rect x="34.2" y="134.2" class="st9" width="25.4" height="10.9"/>
				<rect x="34.2" y="137.7" class="st8" width="25.4" height="4.1"/>
			</g>
			<g class="st5">
				<rect x="34.2" y="152.4" class="st6" width="25.4" height="25.4"/>
				<rect x="34.2" y="152.4" class="st7" width="25.4" height="25.4"/>
				<rect x="37.6" y="152.4" class="st8" width="18.5" height="25.4"/>
				<rect x="41.4" y="152.4" class="st9" width="10.9" height="25.4"/>
				<rect x="44.8" y="152.4" class="st8" width="4.1" height="25.4"/>
				<rect x="34.2" y="155.8" class="st8" width="25.4" height="18.5"/>
				<rect x="34.2" y="159.6" class="st9" width="25.4" height="10.9"/>
				<rect x="34.2" y="163.1" class="st8" width="25.4" height="4.1"/>
			</g>
			<g class="st5">
				<rect x="34.2" y="177.8" class="st6" width="25.4" height="25.4"/>
				<rect x="34.2" y="177.8" class="st7" width="25.4" height="25.4"/>
				<rect x="37.6" y="177.8" class="st8" width="18.5" height="25.4"/>
				<rect x="41.4" y="177.8" class="st9" width="10.9" height="25.4"/>
				<rect x="44.8" y="177.8" class="st8" width="4.1" height="25.4"/>
				<rect x="34.2" y="181.2" class="st8" width="25.4" height="18.5"/>
				<rect x="34.2" y="185" class="st9" width="25.4" height="10.9"/>
				<rect x="34.2" y="188.5" class="st8" width="25.4" height="4.1"/>
			</g>
			<g class="st5">
				<rect x="59.6" y="101.6" class="st6" width="25.4" height="25.4"/>
				<rect x="59.6" y="101.6" class="st7" width="25.4" height="25.4"/>
				<rect x="63" y="101.6" class="st8" width="18.5" height="25.4"/>
				<rect x="66.8" y="101.6" class="st9" width="10.9" height="25.4"/>
				<rect x="70.2" y="101.6" class="st8" width="4.1" height="25.4"/>
				<rect x="59.6" y="105" class="st8" width="25.4" height="18.5"/>
				<rect x="59.6" y="108.8" class="st9" width="25.4" height="10.9"/>
				<rect x="59.6" y="112.3" class="st8" width="25.4" height="4.1"/>
			</g>
			<g class="st5">
				<rect x="59.6" y="127" class="st6" width="25.4" height="25.4"/>
				<rect x="59.6" y="127" class="st7" width="25.4" height="25.4"/>
				<rect x="63" y="127" class="st8" width="18.5" height="25.4"/>
				<rect x="66.8" y="127" class="st9" width="10.9" height="25.4"/>
				<rect x="70.2" y="127" class="st8" width="4.1" height="25.4"/>
				<rect x="59.6" y="130.4" class="st8" width="25.4" height="18.5"/>
				<rect x="59.6" y="134.2" class="st9" width="25.4" height="10.9"/>
				<rect x="59.6" y="137.7" class="st8" width="25.4" height="4.1"/>
			</g>
			<g class="st5">
				<rect x="59.6" y="152.4" class="st6" width="25.4" height="25.4"/>
				<rect x="59.6" y="152.4" class="st7" width="25.4" height="25.4"/>
				<rect x="63" y="152.4" class="st8" width="18.5" height="25.4"/>
				<rect x="66.8" y="152.4" class="st9" width="10.9" height="25.4"/>
				<rect x="70.2" y="152.4" class="st8" width="4.1" height="25.4"/>
				<rect x="59.6" y="155.8" class="st8" width="25.4" height="18.5"/>
				<rect x="59.6" y="159.6" class="st9" width="25.4" height="10.9"/>
				<rect x="59.6" y="163.1" class="st8" width="25.4" height="4.1"/>
			</g>
			<g class="st5">
				<rect x="59.6" y="177.8" class="st6" width="25.4" height="25.4"/>
				<rect x="59.6" y="177.8" class="st7" width="25.4" height="25.4"/>
				<rect x="63" y="177.8" class="st8" width="18.5" height="25.4"/>
				<rect x="66.8" y="177.8" class="st9" width="10.9" height="25.4"/>
				<rect x="70.2" y="177.8" class="st8" width="4.1" height="25.4"/>
				<rect x="59.6" y="181.2" class="st8" width="25.4" height="18.5"/>
				<rect x="59.6" y="185" class="st9" width="25.4" height="10.9"/>
				<rect x="59.6" y="188.5" class="st8" width="25.4" height="4.1"/>
			</g>
			<g class="st5">
				<rect x="84.9" y="101.6" class="st6" width="25.4" height="25.4"/>
				<rect x="84.9" y="101.6" class="st7" width="25.4" height="25.4"/>
				<rect x="88.4" y="101.6" class="st8" width="18.5" height="25.4"/>
				<rect x="92.2" y="101.6" class="st9" width="10.9" height="25.4"/>
				<rect x="95.6" y="101.6" class="st8" width="4.1" height="25.4"/>
				<rect x="84.9" y="105" class="st8" width="25.4" height="18.5"/>
				<rect x="84.9" y="108.8" class="st9" width="25.4" height="10.9"/>
				<rect x="84.9" y="112.3" class="st8" width="25.4" height="4.1"/>
			</g>
			<g class="st5">
				<rect x="84.9" y="127" class="st6" width="25.4" height="25.4"/>
				<rect x="84.9" y="127" class="st7" width="25.4" height="25.4"/>
				<rect x="88.4" y="127" class="st8" width="18.5" height="25.4"/>
				<rect x="92.2" y="127" class="st9" width="10.9" height="25.4"/>
				<rect x="95.6" y="127" class="st8" width="4.1" height="25.4"/>
				<rect x="84.9" y="130.4" class="st8" width="25.4" height="18.5"/>
				<rect x="84.9" y="134.2" class="st9" width="25.4" height="10.9"/>
				<rect x="84.9" y="137.7" class="st8" width="25.4" height="4.1"/>
			</g>
			<g class="st5">
				<rect x="84.9" y="152.4" class="st6" width="25.4" height="25.4"/>
				<rect x="84.9" y="152.4" class="st7" width="25.4" height="25.4"/>
				<rect x="88.4" y="152.4" class="st8" width="18.5" height="25.4"/>
				<rect x="92.2" y="152.4" class="st9" width="10.9" height="25.4"/>
				<rect x="95.6" y="152.4" class="st8" width="4.1" height="25.4"/>
				<rect x="84.9" y="155.8" class="st8" width="25.4" height="18.5"/>
				<rect x="84.9" y="159.6" class="st9" width="25.4" height="10.9"/>
				<rect x="84.9" y="163.1" class="st8" width="25.4" height="4.1"/>
			</g>
			<g class="st5">
				<rect x="84.9" y="177.8" class="st6" width="25.4" height="25.4"/>
				<rect x="84.9" y="177.8" class="st7" width="25.4" height="25.4"/>
				<rect x="88.4" y="177.8" class="st8" width="18.5" height="25.4"/>
				<rect x="92.2" y="177.8" class="st9" width="10.9" height="25.4"/>
				<rect x="95.6" y="177.8" class="st8" width="4.1" height="25.4"/>
				<rect x="84.9" y="181.2" class="st8" width="25.4" height="18.5"/>
				<rect x="84.9" y="185" class="st9" width="25.4" height="10.9"/>
				<rect x="84.9" y="188.5" class="st8" width="25.4" height="4.1"/>
			</g>
			<g class="st5">
				<rect x="110.3" y="101.6" class="st6" width="25.4" height="25.4"/>
				<rect x="110.3" y="101.6" class="st7" width="25.4" height="25.4"/>
				<rect x="113.8" y="101.6" class="st8" width="18.5" height="25.4"/>
				<rect x="117.6" y="101.6" class="st9" width="10.9" height="25.4"/>
				<rect x="121" y="101.6" class="st8" width="4.1" height="25.4"/>
				<rect x="110.3" y="105" class="st8" width="25.4" height="18.5"/>
				<rect x="110.3" y="108.8" class="st9" width="25.4" height="10.9"/>
				<rect x="110.3" y="112.3" class="st8" width="25.4" height="4.1"/>
			</g>
			<g class="st5">
				<rect x="110.3" y="127" class="st6" width="25.4" height="25.4"/>
				<rect x="110.3" y="127" class="st7" width="25.4" height="25.4"/>
				<rect x="113.8" y="127" class="st8" width="18.5" height="25.4"/>
				<rect x="117.6" y="127" class="st9" width="10.9" height="25.4"/>
				<rect x="121" y="127" class="st8" width="4.1" height="25.4"/>
				<rect x="110.3" y="130.4" class="st8" width="25.4" height="18.5"/>
				<rect x="110.3" y="134.2" class="st9" width="25.4" height="10.9"/>
				<rect x="110.3" y="137.7" class="st8" width="25.4" height="4.1"/>
			</g>
			<g class="st5">
				<rect x="110.3" y="152.4" class="st6" width="25.4" height="25.4"/>
				<rect x="110.3" y="152.4" class="st7" width="25.4" height="25.4"/>
				<rect x="113.8" y="152.4" class="st8" width="18.5" height="25.4"/>
				<rect x="117.6" y="152.4" class="st9" width="10.9" height="25.4"/>
				<rect x="121" y="152.4" class="st8" width="4.1" height="25.4"/>
				<rect x="110.3" y="155.8" class="st8" width="25.4" height="18.5"/>
				<rect x="110.3" y="159.6" class="st9" width="25.4" height="10.9"/>
				<rect x="110.3" y="163.1" class="st8" width="25.4" height="4.1"/>
			</g>
			<g class="st5">
				<rect x="110.3" y="177.8" class="st6" width="25.4" height="25.4"/>
				<rect x="110.3" y="177.8" class="st7" width="25.4" height="25.4"/>
				<rect x="113.8" y="177.8" class="st8" width="18.5" height="25.4"/>
				<rect x="117.6" y="177.8" class="st9" width="10.9" height="25.4"/>
				<rect x="121" y="177.8" class="st8" width="4.1" height="25.4"/>
				<rect x="110.3" y="181.2" class="st8" width="25.4" height="18.5"/>
				<rect x="110.3" y="185" class="st9" width="25.4" height="10.9"/>
				<rect x="110.3" y="188.5" class="st8" width="25.4" height="4.1"/>
			</g>
			<g class="st5">
				<rect x="135.7" y="101.6" class="st6" width="25.4" height="25.4"/>
				<rect x="135.7" y="101.6" class="st7" width="25.4" height="25.4"/>
				<rect x="139.2" y="101.6" class="st8" width="18.5" height="25.4"/>
				<rect x="143" y="101.6" class="st9" width="10.9" height="25.4"/>
				<rect x="146.4" y="101.6" class="st8" width="4.1" height="25.4"/>
				<rect x="135.7" y="105" class="st8" width="25.4" height="18.5"/>
				<rect x="135.7" y="108.8" class="st9" width="25.4" height="10.9"/>
				<rect x="135.7" y="112.3" class="st8" width="25.4" height="4.1"/>
			</g>
			<g class="st5">
				<rect x="135.7" y="127" class="st6" width="25.4" height="25.4"/>
				<rect x="135.7" y="127" class="st7" width="25.4" height="25.4"/>
				<rect x="139.2" y="127" class="st8" width="18.5" height="25.4"/>
				<rect x="143" y="127" class="st9" width="10.9" height="25.4"/>
				<rect x="146.4" y="127" class="st8" width="4.1" height="25.4"/>
				<rect x="135.7" y="130.4" class="st8" width="25.4" height="18.5"/>
				<rect x="135.7" y="134.2" class="st9" width="25.4" height="10.9"/>
				<rect x="135.7" y="137.7" class="st8" width="25.4" height="4.1"/>
			</g>
			<g class="st5">
				<rect x="135.7" y="152.4" class="st6" width="25.4" height="25.4"/>
				<rect x="135.7" y="152.4" class="st7" width="25.4" height="25.4"/>
				<rect x="139.2" y="152.4" class="st8" width="18.5" height="25.4"/>
				<rect x="143" y="152.4" class="st9" width="10.9" height="25.4"/>
				<rect x="146.4" y="152.4" class="st8" width="4.1" height="25.4"/>
				<rect x="135.7" y="155.8" class="st8" width="25.4" height="18.5"/>
				<rect x="135.7" y="159.6" class="st9" width="25.4" height="10.9"/>
				<rect x="135.7" y="163.1" class="st8" width="25.4" height="4.1"/>
			</g>
			<g class="st5">
				<rect x="135.7" y="177.8" class="st6" width="25.4" height="25.4"/>
				<rect x="135.7" y="177.8" class="st7" width="25.4" height="25.4"/>
				<rect x="139.2" y="177.8" class="st8" width="18.5" height="25.4"/>
				<rect x="143" y="177.8" class="st9" width="10.9" height="25.4"/>
				<rect x="146.4" y="177.8" class="st8" width="4.1" height="25.4"/>
				<rect x="135.7" y="181.2" class="st8" width="25.4" height="18.5"/>
				<rect x="135.7" y="185" class="st9" width="25.4" height="10.9"/>
				<rect x="135.7" y="188.5" class="st8" width="25.4" height="4.1"/>
			</g>
			<g class="st5">
				<rect x="161.1" y="101.6" class="st6" width="25.4" height="25.4"/>
				<rect x="161.1" y="101.6" class="st7" width="25.4" height="25.4"/>
				<rect x="164.6" y="101.6" class="st8" width="18.5" height="25.4"/>
				<rect x="168.4" y="101.6" class="st9" width="10.9" height="25.4"/>
				<rect x="171.8" y="101.6" class="st8" width="4.1" height="25.4"/>
				<rect x="161.1" y="105" class="st8" width="25.4" height="18.5"/>
				<rect x="161.1" y="108.8" class="st9" width="25.4" height="10.9"/>
				<rect x="161.1" y="112.3" class="st8" width="25.4" height="4.1"/>
			</g>
			<g class="st5">
				<rect x="161.1" y="127" class="st6" width="25.4" height="25.4"/>
				<rect x="161.1" y="127" class="st7" width="25.4" height="25.4"/>
				<rect x="164.6" y="127" class="st8" width="18.5" height="25.4"/>
				<rect x="168.4" y="127" class="st9" width="10.9" height="25.4"/>
				<rect x="171.8" y="127" class="st8" width="4.1" height="25.4"/>
				<rect x="161.1" y="130.4" class="st8" width="25.4" height="18.5"/>
				<rect x="161.1" y="134.2" class="st9" width="25.4" height="10.9"/>
				<rect x="161.1" y="137.7" class="st8" width="25.4" height="4.1"/>
			</g>
			<g class="st5">
				<rect x="161.1" y="152.4" class="st6" width="25.4" height="25.4"/>
				<rect x="161.1" y="152.4" class="st7" width="25.4" height="25.4"/>
				<rect x="164.6" y="152.4" class="st8" width="18.5" height="25.4"/>
				<rect x="168.4" y="152.4" class="st9" width="10.9" height="25.4"/>
				<rect x="171.8" y="152.4" class="st8" width="4.1" height="25.4"/>
				<rect x="161.1" y="155.8" class="st8" width="25.4" height="18.5"/>
				<rect x="161.1" y="159.6" class="st9" width="25.4" height="10.9"/>
				<rect x="161.1" y="163.1" class="st8" width="25.4" height="4.1"/>
			</g>
			<g class="st5">
				<rect x="161.1" y="177.8" class="st6" width="25.4" height="25.4"/>
				<rect x="161.1" y="177.8" class="st7" width="25.4" height="25.4"/>
				<rect x="164.6" y="177.8" class="st8" width="18.5" height="25.4"/>
				<rect x="168.4" y="177.8" class="st9" width="10.9" height="25.4"/>
				<rect x="171.8" y="177.8" class="st8" width="4.1" height="25.4"/>
				<rect x="161.1" y="181.2" class="st8" width="25.4" height="18.5"/>
				<rect x="161.1" y="185" class="st9" width="25.4" height="10.9"/>
				<rect x="161.1" y="188.5" class="st8" width="25.4" height="4.1"/>
			</g>
		</g>
	</g>
	<g>
		<path class="st2" d="M76,183.4c-9.5-1.5-17.6-4.4-23.9-8.9c-0.4-0.3-1.2-0.8-1.3-1.7c-0.2-0.9,0.3-1.6,0.7-2.2
			c4.5-6.6,4.1-13.9,3.8-21.7c-0.1-2.2-0.2-4.4-0.2-6.6c0-0.2,0.1-0.4,0.2-0.6c0.2-0.1,0.4-0.2,0.6-0.2c1.8,0.2,3.5,0.2,5.2,0.3
			c1.3,0.1,2.5,0.1,3.7,0.2c10.3,0.8,21.1,0.5,34.3-0.8c11.1-1.1,22.1-2.9,32.7-5.4c4.8-1.1,10.4-2.6,15.7-4.6
			c2.4-0.9,4.6-2.2,6.8-3.5c1.9-1.1,3.9-2.3,6-3.2c0.2-0.1,0.4-0.1,0.6,0c0.2,0.1,0.3,0.2,0.4,0.4c2,5.9,1.5,13,1.1,19.3
			c-0.1,0.9-0.1,1.7-0.2,2.6c-0.6,9.4,0.7,16.1,4.4,22.3c0.3,0.5,0.7,1.2,0.7,1.9c0,1.2-0.8,2.1-1.6,2.7c-8.2,7-19.9,8.3-30.4,8.9
			c-11.5,0.7-23.1,1-34.6,0.9c-2.5,0-5.2,0.1-7.7,0.1c-2.3,0.1-4.6,0.1-6.9,0.1C82.7,184.1,79.3,183.9,76,183.4z M100.7,182.3
			c11.4,0.1,23-0.2,34.5-0.9c10.2-0.6,21.7-1.9,29.5-8.5c0.7-0.6,1.1-1.1,1.1-1.6c0-0.4-0.2-0.8-0.5-1.2c-3.8-6.5-5.1-13.4-4.5-23.1
			c0.1-0.8,0.1-1.7,0.2-2.6c0.4-5.8,0.9-12.4-0.8-17.9c-1.7,0.8-3.5,1.8-5.1,2.8c-2.2,1.3-4.5,2.6-7,3.6c-5.4,2.1-11.1,3.6-15.9,4.7
			c-10.6,2.5-21.7,4.3-32.9,5.4c-13.2,1.3-24.2,1.6-34.6,0.8c-1.2-0.1-2.4-0.2-3.7-0.2c-1.4-0.1-2.9-0.1-4.4-0.3
			c0,1.9,0.1,3.8,0.2,5.7c0.4,7.7,0.7,15.6-4,22.6c-0.2,0.3-0.5,0.8-0.5,1c0,0.2,0.4,0.5,0.7,0.7c6.1,4.3,14,7.2,23.3,8.7
			c5.4,0.8,11.1,0.6,16.7,0.5c2.2-0.1,4.6-0.1,6.8-0.1C100.1,182.3,100.4,182.3,100.7,182.3z"/>
	</g>
</g>
<g>
	<path class="st1" d="M55.6,73.3c0-0.3,0.1-0.6,0.2-0.9c0.1-0.3,0.2-0.5,0.4-0.8c0.1-0.1,0.2-0.2,0.2-0.4l0.1-0.2l0.1-0.1
		c0.8-0.8,1.8-1.2,2.8-1.6c0.3-0.1,0.7-0.2,1-0.3c0,0,0-0.1,0-0.1c0-0.3,0.1-0.7,0.3-1c0.2-0.3,0.5-0.5,0.7-0.6
		c0.3-0.1,0.6-0.2,0.9-0.2c0.3,0,0.5,0,0.8,0l0.8,0.1c0.4,0,0.7,0,1.1,0.1c0.4,0,0.7,0,1.1-0.1l0.8-0.1c0.3,0,0.5-0.1,0.8,0
		c0.3,0,0.6,0.1,0.9,0.2c0.3,0.1,0.6,0.4,0.7,0.6c0.2,0.3,0.2,0.6,0.3,0.9c0.6,0.1,1.2,0.3,1.8,0.5c0.9,0.3,2,0.7,2.8,1.6l0.1,0.1
		l0.1,0.2c0.1,0.1,0.2,0.2,0.2,0.4c0.2,0.2,0.3,0.5,0.4,0.8c0.1,0.3,0.2,0.6,0.2,0.9c0,0.3,0,0.6,0,0.8c0.1,0.5,0,1-0.1,1.6
		c-0.1,0.3-0.2,0.6-0.3,0.8c-0.1,0.1-0.2,0.3-0.2,0.4c-0.1,0.1-0.1,0.1-0.2,0.2l-0.1,0.1c-0.1,0.1-0.2,0.2-0.3,0.3
		c-0.1,0.1-0.2,0.2-0.4,0.3c-0.3,0.1-0.5,0.3-0.8,0.3c-0.6,0.1-1.1,0.1-1.6,0.1c-0.4,0-0.7-0.1-1.1-0.1c0.1,0.4,0.1,1,0.2,1.5
		c0,0.5,0,1-0.2,1.6c-0.2,0.5-0.5,1.1-1,1.5c-0.5,0.4-1.1,0.8-1.8,0.9c-0.2,0-0.3,0-0.5,0l-0.5,0l-0.9,0l-0.9,0c-0.3,0-0.7,0-1-0.1
		c-0.7-0.2-1.3-0.5-1.7-1c-0.5-0.4-0.8-1-0.9-1.6c-0.1-0.3-0.1-0.6-0.1-0.9c0-0.1,0-0.2,0-0.4c0-0.1,0-0.2,0-0.4
		c0-0.5,0.1-0.9,0.1-1.3c-0.3,0.1-0.7,0.1-1.1,0.1c-0.5,0-1.1,0-1.6-0.1c-0.3-0.1-0.6-0.2-0.8-0.3c-0.1-0.1-0.3-0.2-0.4-0.3
		c-0.1-0.1-0.3-0.2-0.3-0.3l-0.1-0.1c-0.1-0.1-0.1-0.1-0.2-0.2c-0.1-0.1-0.2-0.2-0.2-0.4c-0.1-0.3-0.3-0.5-0.3-0.8
		c-0.1-0.5-0.1-1.1-0.1-1.6C55.6,73.9,55.6,73.6,55.6,73.3z"/>
</g>
<g>
	<circle class="st3" cx="98.3" cy="56" r="23.3"/>
</g>
<g>
	<path class="st10" d="M116.6,56c0-12-9.1-21.9-20.8-23.1c0.8-0.1,1.7-0.1,2.5-0.1c12.8,0,23.3,10.4,23.3,23.3s-10.4,23.3-23.3,23.3
		c-0.8,0-1.7,0-2.5-0.1C107.5,77.9,116.6,68,116.6,56z"/>
</g>
<g>
	<path class="st2" d="M74.3,56c0-13.2,10.8-24,24-24c13.2,0,24,10.8,24,24s-10.8,24-24,24C85.1,80,74.3,69.3,74.3,56z M75.8,56
		c0,12.4,10.1,22.5,22.5,22.5c12.4,0,22.5-10.1,22.5-22.5s-10.1-22.5-22.5-22.5C85.9,33.5,75.8,43.6,75.8,56z"/>
</g>
<g>
	<circle class="st2" cx="105.1" cy="56.2" r="4.5"/>
</g>
<g>
	<ellipse class="st3" cx="103.9" cy="54" rx="1.3" ry="1"/>
</g>
<g>
	<circle class="st3" cx="37.3" cy="54.9" r="19.9"/>
</g>
<g>
	<path class="st10" d="M52.9,54.9c0-10.1-7.6-18.3-17.4-19.4c0.7-0.1,1.4-0.1,2.1-0.1c10.8,0,19.5,8.7,19.5,19.5
		s-8.7,19.5-19.5,19.5c-0.7,0-1.4,0-2.1-0.1C45.3,73.3,52.9,65,52.9,54.9z"/>
</g>
<g>
	<path class="st2" d="M16.7,54.9c0-11.4,9.2-20.6,20.6-20.6s20.6,9.2,20.6,20.6s-9.2,20.6-20.6,20.6S16.7,66.2,16.7,54.9z
		 M18.2,54.9c0,10.5,8.6,19.1,19.1,19.1s19.1-8.6,19.1-19.1s-8.6-19.1-19.1-19.1S18.2,44.3,18.2,54.9z"/>
</g>
<g>
	<circle class="st2" cx="43.1" cy="55" r="3.9"/>
</g>
<g>
	<ellipse class="st3" cx="42" cy="53.2" rx="1.1" ry="0.8"/>
</g>
<g>
	<g>
		<defs>
			<path id="SVGID_3_" d="M135.5,86.5c5.1-2.8,19-11.6,21.9-3.5c0.7,2,1,4.2,0.1,6.1c-1.5,3.5-7.2,3.6-10.2,5.3
				c-18.3,10.5-34.4,23.3-51.3,35.9c-10.8,8.1-23.4,15-36.8,14.3c-1.4-0.1-2.9-0.2-4.1-0.9c-1.6-0.8-2.8-2.3-3.6-4
				c-1.2-2.4-3.6-8.1-1.2-10.4c1.7-1.7,8-0.9,10.4-1.2c9.7-1.5,19.5-3.8,27.8-9.3c3.1-2.1,6-4.6,8.9-6.9
				c6.6-5.3,31.8-22.2,37.6-25.3C135.1,86.7,135.3,86.6,135.5,86.5z"/>
		</defs>
		<clipPath id="SVGID_4_">
			<use xlink:href="#SVGID_3_"  style="overflow:visible;"/>
		</clipPath>
		<g class="st11">
			<rect x="34.2" y="76.2" class="st6" width="25.4" height="25.4"/>
			<rect x="34.2" y="76.2" class="st7" width="25.4" height="25.4"/>
			<rect x="37.6" y="76.2" class="st8" width="18.5" height="25.4"/>
			<rect x="41.4" y="76.2" class="st9" width="10.9" height="25.4"/>
			<rect x="44.8" y="76.2" class="st8" width="4.1" height="25.4"/>
			<rect x="34.2" y="79.6" class="st8" width="25.4" height="18.5"/>
			<rect x="34.2" y="83.4" class="st9" width="25.4" height="10.9"/>
			<rect x="34.2" y="86.9" class="st8" width="25.4" height="4.1"/>
		</g>
		<g class="st11">
			<rect x="34.2" y="101.6" class="st6" width="25.4" height="25.4"/>
			<rect x="34.2" y="101.6" class="st7" width="25.4" height="25.4"/>
			<rect x="37.6" y="101.6" class="st8" width="18.5" height="25.4"/>
			<rect x="41.4" y="101.6" class="st9" width="10.9" height="25.4"/>
			<rect x="44.8" y="101.6" class="st8" width="4.1" height="25.4"/>
			<rect x="34.2" y="105" class="st8" width="25.4" height="18.5"/>
			<rect x="34.2" y="108.8" class="st9" width="25.4" height="10.9"/>
			<rect x="34.2" y="112.3" class="st8" width="25.4" height="4.1"/>
		</g>
		<g class="st11">
			<rect x="34.2" y="127" class="st6" width="25.4" height="25.4"/>
			<rect x="34.2" y="127" class="st7" width="25.4" height="25.4"/>
			<rect x="37.6" y="127" class="st8" width="18.5" height="25.4"/>
			<rect x="41.4" y="127" class="st9" width="10.9" height="25.4"/>
			<rect x="44.8" y="127" class="st8" width="4.1" height="25.4"/>
			<rect x="34.2" y="130.4" class="st8" width="25.4" height="18.5"/>
			<rect x="34.2" y="134.2" class="st9" width="25.4" height="10.9"/>
			<rect x="34.2" y="137.7" class="st8" width="25.4" height="4.1"/>
		</g>
		<g class="st11">
			<rect x="59.6" y="76.2" class="st6" width="25.4" height="25.4"/>
			<rect x="59.6" y="76.2" class="st7" width="25.4" height="25.4"/>
			<rect x="63" y="76.2" class="st8" width="18.5" height="25.4"/>
			<rect x="66.8" y="76.2" class="st9" width="10.9" height="25.4"/>
			<rect x="70.2" y="76.2" class="st8" width="4.1" height="25.4"/>
			<rect x="59.6" y="79.6" class="st8" width="25.4" height="18.5"/>
			<rect x="59.6" y="83.4" class="st9" width="25.4" height="10.9"/>
			<rect x="59.6" y="86.9" class="st8" width="25.4" height="4.1"/>
		</g>
		<g class="st11">
			<rect x="59.6" y="101.6" class="st6" width="25.4" height="25.4"/>
			<rect x="59.6" y="101.6" class="st7" width="25.4" height="25.4"/>
			<rect x="63" y="101.6" class="st8" width="18.5" height="25.4"/>
			<rect x="66.8" y="101.6" class="st9" width="10.9" height="25.4"/>
			<rect x="70.2" y="101.6" class="st8" width="4.1" height="25.4"/>
			<rect x="59.6" y="105" class="st8" width="25.4" height="18.5"/>
			<rect x="59.6" y="108.8" class="st9" width="25.4" height="10.9"/>
			<rect x="59.6" y="112.3" class="st8" width="25.4" height="4.1"/>
		</g>
		<g class="st11">
			<rect x="59.6" y="127" class="st6" width="25.4" height="25.4"/>
			<rect x="59.6" y="127" class="st7" width="25.4" height="25.4"/>
			<rect x="63" y="127" class="st8" width="18.5" height="25.4"/>
			<rect x="66.8" y="127" class="st9" width="10.9" height="25.4"/>
			<rect x="70.2" y="127" class="st8" width="4.1" height="25.4"/>
			<rect x="59.6" y="130.4" class="st8" width="25.4" height="18.5"/>
			<rect x="59.6" y="134.2" class="st9" width="25.4" height="10.9"/>
			<rect x="59.6" y="137.7" class="st8" width="25.4" height="4.1"/>
		</g>
		<g class="st11">
			<rect x="84.9" y="76.2" class="st6" width="25.4" height="25.4"/>
			<rect x="84.9" y="76.2" class="st7" width="25.4" height="25.4"/>
			<rect x="88.4" y="76.2" class="st8" width="18.5" height="25.4"/>
			<rect x="92.2" y="76.2" class="st9" width="10.9" height="25.4"/>
			<rect x="95.6" y="76.2" class="st8" width="4.1" height="25.4"/>
			<rect x="84.9" y="79.6" class="st8" width="25.4" height="18.5"/>
			<rect x="84.9" y="83.4" class="st9" width="25.4" height="10.9"/>
			<rect x="84.9" y="86.9" class="st8" width="25.4" height="4.1"/>
		</g>
		<g class="st11">
			<rect x="84.9" y="101.6" class="st6" width="25.4" height="25.4"/>
			<rect x="84.9" y="101.6" class="st7" width="25.4" height="25.4"/>
			<rect x="88.4" y="101.6" class="st8" width="18.5" height="25.4"/>
			<rect x="92.2" y="101.6" class="st9" width="10.9" height="25.4"/>
			<rect x="95.6" y="101.6" class="st8" width="4.1" height="25.4"/>
			<rect x="84.9" y="105" class="st8" width="25.4" height="18.5"/>
			<rect x="84.9" y="108.8" class="st9" width="25.4" height="10.9"/>
			<rect x="84.9" y="112.3" class="st8" width="25.4" height="4.1"/>
		</g>
		<g class="st11">
			<rect x="84.9" y="127" class="st6" width="25.4" height="25.4"/>
			<rect x="84.9" y="127" class="st7" width="25.4" height="25.4"/>
			<rect x="88.4" y="127" class="st8" width="18.5" height="25.4"/>
			<rect x="92.2" y="127" class="st9" width="10.9" height="25.4"/>
			<rect x="95.6" y="127" class="st8" width="4.1" height="25.4"/>
			<rect x="84.9" y="130.4" class="st8" width="25.4" height="18.5"/>
			<rect x="84.9" y="134.2" class="st9" width="25.4" height="10.9"/>
			<rect x="84.9" y="137.7" class="st8" width="25.4" height="4.1"/>
		</g>
		<g class="st11">
			<rect x="110.3" y="76.2" class="st6" width="25.4" height="25.4"/>
			<rect x="110.3" y="76.2" class="st7" width="25.4" height="25.4"/>
			<rect x="113.8" y="76.2" class="st8" width="18.5" height="25.4"/>
			<rect x="117.6" y="76.2" class="st9" width="10.9" height="25.4"/>
			<rect x="121" y="76.2" class="st8" width="4.1" height="25.4"/>
			<rect x="110.3" y="79.6" class="st8" width="25.4" height="18.5"/>
			<rect x="110.3" y="83.4" class="st9" width="25.4" height="10.9"/>
			<rect x="110.3" y="86.9" class="st8" width="25.4" height="4.1"/>
		</g>
		<g class="st11">
			<rect x="110.3" y="101.6" class="st6" width="25.4" height="25.4"/>
			<rect x="110.3" y="101.6" class="st7" width="25.4" height="25.4"/>
			<rect x="113.8" y="101.6" class="st8" width="18.5" height="25.4"/>
			<rect x="117.6" y="101.6" class="st9" width="10.9" height="25.4"/>
			<rect x="121" y="101.6" class="st8" width="4.1" height="25.4"/>
			<rect x="110.3" y="105" class="st8" width="25.4" height="18.5"/>
			<rect x="110.3" y="108.8" class="st9" width="25.4" height="10.9"/>
			<rect x="110.3" y="112.3" class="st8" width="25.4" height="4.1"/>
		</g>
		<g class="st11">
			<rect x="110.3" y="127" class="st6" width="25.4" height="25.4"/>
			<rect x="110.3" y="127" class="st7" width="25.4" height="25.4"/>
			<rect x="113.8" y="127" class="st8" width="18.5" height="25.4"/>
			<rect x="117.6" y="127" class="st9" width="10.9" height="25.4"/>
			<rect x="121" y="127" class="st8" width="4.1" height="25.4"/>
			<rect x="110.3" y="130.4" class="st8" width="25.4" height="18.5"/>
			<rect x="110.3" y="134.2" class="st9" width="25.4" height="10.9"/>
			<rect x="110.3" y="137.7" class="st8" width="25.4" height="4.1"/>
		</g>
		<g class="st11">
			<rect x="135.7" y="76.2" class="st6" width="25.4" height="25.4"/>
			<rect x="135.7" y="76.2" class="st7" width="25.4" height="25.4"/>
			<rect x="139.2" y="76.2" class="st8" width="18.5" height="25.4"/>
			<rect x="143" y="76.2" class="st9" width="10.9" height="25.4"/>
			<rect x="146.4" y="76.2" class="st8" width="4.1" height="25.4"/>
			<rect x="135.7" y="79.6" class="st8" width="25.4" height="18.5"/>
			<rect x="135.7" y="83.4" class="st9" width="25.4" height="10.9"/>
			<rect x="135.7" y="86.9" class="st8" width="25.4" height="4.1"/>
		</g>
		<g class="st11">
			<rect x="135.7" y="101.6" class="st6" width="25.4" height="25.4"/>
			<rect x="135.7" y="101.6" class="st7" width="25.4" height="25.4"/>
			<rect x="139.2" y="101.6" class="st8" width="18.5" height="25.4"/>
			<rect x="143" y="101.6" class="st9" width="10.9" height="25.4"/>
			<rect x="146.4" y="101.6" class="st8" width="4.1" height="25.4"/>
			<rect x="135.7" y="105" class="st8" width="25.4" height="18.5"/>
			<rect x="135.7" y="108.8" class="st9" width="25.4" height="10.9"/>
			<rect x="135.7" y="112.3" class="st8" width="25.4" height="4.1"/>
		</g>
		<g class="st11">
			<rect x="135.7" y="127" class="st6" width="25.4" height="25.4"/>
			<rect x="135.7" y="127" class="st7" width="25.4" height="25.4"/>
			<rect x="139.2" y="127" class="st8" width="18.5" height="25.4"/>
			<rect x="143" y="127" class="st9" width="10.9" height="25.4"/>
			<rect x="146.4" y="127" class="st8" width="4.1" height="25.4"/>
			<rect x="135.7" y="130.4" class="st8" width="25.4" height="18.5"/>
			<rect x="135.7" y="134.2" class="st9" width="25.4" height="10.9"/>
			<rect x="135.7" y="137.7" class="st8" width="25.4" height="4.1"/>
		</g>
	</g>
</g>
<g>
	<path class="st2" d="M59.1,145.5c-1.5-0.1-3-0.2-4.4-0.9c-1.5-0.8-2.8-2.2-3.9-4.3c-1.3-2.5-3.9-8.5-1.1-11.3
		c1.4-1.3,4.7-1.3,7.7-1.3c1.2,0,2.4,0,3.1-0.1c8.9-1.4,19.1-3.6,27.5-9.1c2.3-1.5,4.5-3.3,6.6-5.1c0.7-0.6,1.5-1.2,2.2-1.8
		c6.7-5.4,31.7-22.2,37.7-25.4c0.2-0.1,0.4-0.2,0.6-0.3l0,0c0.4-0.2,0.9-0.5,1.4-0.8c5-2.8,13.4-7.6,18.3-5.7
		c1.5,0.6,2.6,1.7,3.2,3.4c0.6,1.7,1.1,4.3,0.1,6.7c-1.1,2.6-4.2,3.5-6.9,4.3c-1.4,0.4-2.7,0.8-3.7,1.4c-15.5,8.9-29,19.1-43.4,30
		c-2.6,1.9-5.2,3.9-7.8,5.9c-13.1,9.8-24.7,14.5-35.7,14.5C60.2,145.5,59.6,145.5,59.1,145.5z M137.3,86.4c-0.5,0.3-1,0.6-1.4,0.8
		l0,0c-0.2,0.1-0.4,0.2-0.6,0.3c-5.7,3-30.9,20-37.4,25.2c-0.7,0.6-1.5,1.2-2.2,1.8c-2.2,1.8-4.4,3.6-6.8,5.2
		c-8.7,5.7-19.1,8-28.1,9.4c-0.8,0.1-2,0.1-3.4,0.1c-2.4,0-5.7,0-6.6,0.9c-1.7,1.7-0.3,6.2,1.4,9.5c0.9,1.8,2,3,3.3,3.6
		c1.2,0.6,2.5,0.7,3.8,0.8c11,0.5,22.9-4.1,36.4-14.2c2.6-2,5.2-3.9,7.8-5.9c14.4-10.9,28.1-21.2,43.6-30.1c1.1-0.7,2.6-1.1,4-1.5
		c2.5-0.7,5.1-1.5,5.9-3.5c0.8-1.9,0.4-4.1-0.2-5.6c-0.5-1.3-1.2-2.1-2.3-2.5c-0.6-0.2-1.3-0.3-2-0.3
		C147.8,80.4,141.1,84.2,137.3,86.4z"/>
</g>
<g>
	<path class="st3" d="M107.2,119c-0.1-7.7,1.7-15.4,5.3-22.1c1-1.9,3-3,4.2-4.9c-5.1,2-10,4.6-15.1,6.7c-5,2-10.9,3.6-14.2,8.2
		c-0.2,0.3-0.5,0.8-0.3,1.2c0.1,0.3,0.4,0.5,0.7,0.6C94.4,112.1,99.8,116.8,107.2,119z"/>
	<path class="st2" d="M106.9,119.8c-4.8-1.5-8.8-4-12.7-6.4c-2.2-1.4-4.5-2.8-6.9-4c-0.3-0.2-0.9-0.4-1.1-1
		c-0.3-0.8,0.2-1.6,0.4-1.9c2.9-4,7.5-5.8,12-7.5c0.9-0.3,1.7-0.6,2.5-1c2.5-1,4.9-2.1,7.3-3.2c2.6-1.2,5.2-2.4,7.9-3.5l2.2-0.9
		l-1.3,2c-0.6,0.9-1.3,1.6-2,2.3c-0.8,0.8-1.6,1.5-2.1,2.5c-3.5,6.7-5.3,14.2-5.2,21.8l0,1L106.9,119.8z M109.1,96.2
		c-2.4,1.1-4.8,2.3-7.3,3.3c-0.8,0.3-1.7,0.7-2.5,1c-4.3,1.6-8.7,3.3-11.3,6.9c-0.2,0.3-0.2,0.5-0.2,0.5l0,0c0,0.1,0.3,0.2,0.4,0.2
		c2.5,1.3,4.8,2.7,7,4.1c3.7,2.3,7.2,4.5,11.4,5.9c0.1-7.5,1.9-14.9,5.4-21.5c0.5-1,1.3-1.8,2-2.5C112.2,94.7,110.6,95.4,109.1,96.2
		z"/>
</g>
<g>
	
		<ellipse transform="matrix(0.7071 -0.7071 0.7071 0.7071 -15.3634 131.7508)" class="st12" cx="151.4" cy="84.4" rx="8.2" ry="10"/>
</g>
<g>
	<path class="st13" d="M145.6,87.2c3.9,3.9,9.7,4.5,12.9,1.3c1-1,1.7-2.4,1.9-3.8c0.4,2.5-0.2,5-1.9,6.8c-3.2,3.2-9,2.6-12.9-1.3
		c-2.6-2.6-3.8-6.1-3.2-9.1C142.7,83.3,143.8,85.4,145.6,87.2z"/>
</g>
<g>
	<path class="st2" d="M145,90.7c-4.2-4.2-4.8-10.4-1.3-13.9s9.7-2.9,13.9,1.3c4.2,4.2,4.8,10.4,1.3,13.9c-1.5,1.5-3.6,2.3-5.8,2.3
		C150.4,94.3,147.4,93.1,145,90.7z M144.8,77.9c-2.9,2.9-2.3,8.2,1.3,11.8s8.9,4.2,11.8,1.3c2.9-2.9,2.3-8.2-1.3-11.8
		c-2.1-2.1-4.7-3.1-7.1-3.1C147.7,76,146,76.6,144.8,77.9z"/>
</g>
<g>
	<ellipse class="st14" cx="149.9" cy="79.6" rx="4.6" ry="3"/>
</g>
<g>
	<g>
		<path d="M121.7,140.9c0.4,0.3,0.9,0.6,1.4,0.7l-13.5,10l-0.8-1.1L121.7,140.9z"/>
	</g>
</g>
<g>
	<g>
		<polygon points="87.3,152.7 61.6,137.7 62.8,136.9 88,151.5 		"/>
	</g>
</g>
<g>
	<path class="st15" d="M84.9,150.3l13.2-0.7l13.2-0.7c0,0,11.9,20.5-12.1,21.8S84.9,150.3,84.9,150.3z"/>
</g>
<g>
	<path class="st2" d="M84.2,166.3c-4.4-6.3-0.2-15.9,0-16.3l0.2-0.4l27.4-1.5l0.2,0.4c0.2,0.4,5.4,9.5,1.8,16.3
		c-2.2,4.1-7.1,6.3-14.5,6.7c-0.7,0-1.4,0.1-2,0.1C90.9,171.5,86.5,169.8,84.2,166.3z M85.4,151c-0.7,1.9-3.4,9.5,0,14.5
		c2.3,3.3,6.9,4.8,13.8,4.5c6.8-0.4,11.3-2.4,13.2-5.9c2.9-5.3-0.6-12.6-1.5-14.4L85.4,151z"/>
</g>
<g>
	<path class="st16" d="M111.2,148.9l0.2,3.7c0.3,5.2-3.7,9.6-8.9,9.9l-7.4,0.4c-5.2,0.3-9.6-3.7-9.9-8.9l-0.2-3.7L111.2,148.9z"/>
</g>
<g>
	<path class="st2" d="M87.8,161c-2-1.8-3.2-4.3-3.4-7l-0.2-4.5l27.7-1.5l0.2,4.5c0.1,2.7-0.8,5.3-2.6,7.3c-1.8,2-4.3,3.2-7,3.4
		l-7.4,0.4c-0.2,0-0.4,0-0.6,0C92.1,163.6,89.7,162.7,87.8,161z M85.8,151l0.2,3c0.1,2.3,1.1,4.4,2.9,6c1.7,1.5,3.9,2.3,6.2,2.2
		l7.4-0.4c4.8-0.3,8.4-4.3,8.2-9.1l-0.2-3L85.8,151z"/>
</g>
<g>
	<path class="st2" d="M161.4,128.5c-6.6,3.9-14,6.4-21.2,8.9c-11,3.8-22.5,6.3-34.1,7.5c-11.1,1.1-22.2,0.1-33.3,0.3
		c-0.3,0-0.5,0-0.7-0.1c-1.2-0.5-1.3-2.7-0.4-3.5c0.8-0.8,3.3-0.4,4.4-0.4c4.7-0.1,9.4-0.1,14.1-0.2c9.4-0.1,18.9-0.5,28.1-2.4
		c13.6-2.9,27-7.2,39.3-14c0.9-0.5,1.8-1,2.8-0.8c1,0.2,1.7,1.3,1.6,2.3"/>
</g>
<g>
	<path class="st2" d="M144,88.4c0,0-0.5,0-1.3,0.2c-0.8,0.2-1.9,0.6-3.1,1.3c-1.2,0.6-2.7,1.4-4.2,2.2c-1.5,0.9-3.1,1.8-4.6,2.8
		l-1.1,0.8c-0.4,0.3-0.7,0.6-1.1,0.8c-0.7,0.5-1.4,1.1-2.1,1.6c-1.4,1.1-2.6,2.1-3.7,3c-1.1,0.9-1.9,1.6-2.5,2.2
		c-0.6,0.5-0.9,0.9-0.9,0.9s0.4-0.2,1.1-0.6c0.7-0.4,1.7-1,2.9-1.7c1.2-0.7,2.5-1.6,3.9-2.6c0.7-0.5,1.5-1,2.2-1.5
		c0.4-0.3,0.7-0.5,1.1-0.8l1.1-0.8c3.1-2,6.1-4,8.4-5.6c1.1-0.8,2.1-1.4,2.8-1.7C143.6,88.5,144,88.4,144,88.4z"/>
</g>
<g>
	<path class="st2" d="M143.5,167.8c0,0-0.3-0.1-0.9-0.2c-0.6-0.1-1.5-0.2-2.6-0.2c-2.2,0-5.4,0.6-9,1.9c-1.8,0.7-3.6,1.4-5.7,1.9
		c-2,0.5-4.2,0.9-6.5,1.2c-2.3,0.3-4.7,0.5-7.2,0.8c-2.5,0.3-4.9,0.5-7.4,0.7c-2.5,0.2-5,0.3-7.4,0.3c-2.4,0-4.8,0-7.1-0.3
		c-2.3-0.2-4.5-0.6-6.5-1.1c-1-0.3-2-0.6-2.9-0.9c-0.9-0.4-1.8-0.7-2.7-1.1c-0.8-0.4-1.6-0.8-2.3-1.2c-0.7-0.5-1.4-0.9-2-1.3
		c-1.1-1-2.2-1.8-2.9-2.6c-0.4-0.4-0.7-0.8-1-1.1c-0.3-0.3-0.4-0.6-0.4-0.9c0-0.3,0.1-0.5,0.3-0.5c0.1,0,0.2,0,0.2,0
		c0,0-0.1-0.1-0.2-0.1c-0.2,0-0.3,0.3-0.4,0.6c0,0.3,0,0.7,0.3,1.1c0.3,0.3,0.6,0.7,0.9,1.2c0.6,0.9,1.6,1.8,2.7,2.9
		c0.6,0.5,1.3,1,1.9,1.5c0.7,0.5,1.5,0.9,2.3,1.5c0.8,0.5,1.8,0.9,2.7,1.3c1,0.4,2,0.7,3,1.1c2.1,0.6,4.4,1.2,6.7,1.4
		c0.6,0.1,1.2,0.2,1.8,0.2c0.6,0,1.2,0.1,1.8,0.1c1.2,0.1,2.5,0.1,3.7,0.2c2.5,0,5-0.1,7.5-0.3c2.5-0.2,5-0.5,7.5-0.8
		c2.4-0.3,4.9-0.6,7.2-1c2.3-0.4,4.6-0.9,6.7-1.6c1-0.3,2.1-0.7,3-1.1c0.9-0.4,1.8-0.8,2.7-1.2c1.7-0.7,3.3-1.3,4.7-1.8
		c1.4-0.4,2.7-0.7,3.8-0.8c1.1-0.1,1.9-0.1,2.5-0.1C143.2,167.8,143.5,167.8,143.5,167.8z"/>
</g>
<g>
	<path class="st2" d="M142.9,148c0,0-0.2,0.3-0.4,0.9c-0.3,0.6-0.7,1.4-1.2,2.3c-0.3,0.5-0.6,0.9-0.9,1.5c-0.3,0.5-0.7,1-1.1,1.5
		c-0.4,0.5-0.9,1-1.3,1.5c-0.5,0.5-1,1-1.5,1.5c-0.6,0.5-1.1,0.9-1.6,1.4c-0.6,0.4-1.1,0.8-1.6,1.2c-1.1,0.8-2.2,1.4-3.1,1.9
		c-0.9,0.5-1.8,1-2.3,1.2c-0.6,0.3-0.9,0.5-0.9,0.5s0.4,0,1-0.1c0.7-0.1,1.6-0.2,2.7-0.6c1.1-0.3,2.3-0.8,3.6-1.5
		c0.6-0.4,1.3-0.7,1.9-1.2c0.6-0.4,1.2-1,1.8-1.4c0.6-0.6,1.1-1.1,1.6-1.7c0.5-0.6,0.9-1.2,1.3-1.8c0.8-1.2,1.3-2.4,1.7-3.5
		c0.4-1.1,0.5-2,0.6-2.7c0-0.3,0-0.6,0-0.8C142.9,148.1,142.9,148,142.9,148z"/>
</g>
<g>
	<path class="st0" d="M58,140.8c-4.8,6.8-12.1,13.1-20.6,14.8c-2.8,0.5-5.1,0.3-7-1.7c-1.6-1.7-2.8-4.1-1.6-6.3
		c3.5-6.2,10.5-10.3,16.1-14.5"/>
</g>
<g>
	<path class="st1" d="M35.3,151.6c-2.7,0.5-5,0.3-6.9-1.6c0.2,1.4,1,2.8,2.1,3.9c2,2,4.3,2.3,7,1.7c8.4-1.6,15.8-8,20.6-14.8
		l-3.5-2.1C49.8,144.8,43,150.1,35.3,151.6z"/>
</g>
<g>
	<path class="st2" d="M58,140.8c0,0-0.2,0.2-0.4,0.5c-0.3,0.4-0.7,0.9-1.3,1.5c-0.6,0.6-1.2,1.4-2.1,2.2c-0.8,0.8-1.8,1.7-2.9,2.7
		c-1.1,0.9-2.4,1.9-3.7,2.8c-1.4,0.9-2.9,1.7-4.5,2.5c-1.6,0.8-3.4,1.3-5.2,1.7c-1.8,0.4-3.7,0.6-5.2-0.2c-0.8-0.4-1.4-0.9-2.1-1.6
		c-0.6-0.6-1.1-1.4-1.3-2.2c-0.3-0.8-0.3-1.6,0-2.3c0-0.2,0.2-0.4,0.2-0.5l0.4-0.6c0.2-0.4,0.5-0.8,0.7-1.1c1-1.4,2.2-2.7,3.3-3.9
		c1.2-1.2,2.4-2.2,3.5-3.1c2.2-1.8,4.2-3.3,5.5-4.4c1.3-1.1,2.1-1.7,2.1-1.7s-0.8,0.5-2.2,1.5c-1.4,0.9-3.5,2.2-5.9,3.9
		c-1.2,0.9-2.5,1.8-3.7,3c-1.3,1.1-2.5,2.4-3.6,4c-0.3,0.4-0.6,0.8-0.8,1.2l-0.4,0.6c-0.1,0.3-0.3,0.5-0.4,0.8c-0.4,1-0.4,2.2,0,3.3
		c0.3,1,0.9,1.9,1.6,2.7c0.7,0.8,1.5,1.5,2.5,2c2,0.9,4.3,0.7,6.2,0.2c1.9-0.4,3.8-1.1,5.4-1.9c3.4-1.6,6.1-3.8,8.3-5.8
		c1.1-1,2-2,2.7-2.9c0.8-0.9,1.4-1.7,1.9-2.4c0.5-0.7,0.9-1.3,1.1-1.6C57.9,141,58,140.8,58,140.8z"/>
</g>
<g id="XMLID_26_">
	<g id="XMLID_66_">
		<polygon class="st17" points="2.1,98.8 29.3,117.4 26.8,122.3 0.8,100.6 		"/>
		<path d="M26.3,122.9l-26-21.7c-0.3-0.3-0.4-0.7-0.1-1l1.3-1.9c0.2-0.3,0.7-0.4,1-0.2l27.2,18.7c0.3,0.2,0.4,0.6,0.2,1l-2.5,4.9
			c-0.1,0.2-0.3,0.3-0.5,0.4c0,0-0.1,0-0.1,0C26.6,123.1,26.4,123,26.3,122.9z M2.3,99.8l-0.5,0.7l24.8,20.7l1.8-3.5L2.3,99.8z"/>
	</g>
	<g id="XMLID_65_">
		<path class="st18" d="M99.4,122.5c-11.1-15.1-24.7-23.2-32.9-21.8c-10.2,1.7-30.5,9.1-37.1,24.6c-7.1,16.4,15.4,35.4,21.6,36.2
			c17.2,2.1,40.8-19.6,41.8-35.2l29,33.6l3.1-2.1L99.4,122.5z"/>
	</g>
	<g id="XMLID_60_">
		<defs>
			<path id="SVGID_5_" d="M99.4,122.5c-11.1-15.1-24.7-23.2-32.9-21.8c-10.2,1.7-30.5,9.1-37.1,24.6c-7.1,16.4,15.4,35.4,21.6,36.2
				c17.2,2.1,40.8-19.6,41.8-35.2l29,33.6l3.1-2.1L99.4,122.5z"/>
		</defs>
		<clipPath id="SVGID_6_">
			<use xlink:href="#SVGID_5_"  style="overflow:visible;"/>
		</clipPath>
		<g id="XMLID_62_" class="st19">
			<g id="XMLID_64_">
				<path class="st20" d="M99.4,122.5c-11.1-15.1-24.7-23.2-32.9-21.8c-10.2,1.7-30.5,9.1-37.1,24.6c-1.6,3.8-1.7,7.8-0.7,11.6
					c0.2-1.4,0.6-2.8,1.2-4.2c6.6-15.4,26.9-22.9,37.1-24.6c8.3-1.4,21.8,6.7,32.9,21.8l20.1,27.9l1.7,2l3.1-2.1L99.4,122.5z"/>
			</g>
			<g id="XMLID_63_">
				<path class="st21" d="M29,138c3.7,12.2,17.3,22.8,22,23.4c17.2,2.1,40.8-19.6,41.8-35.2l-3.9-4.5C85.6,137,63.7,156,47.5,154
					C43.9,153.6,34.6,146.8,29,138z"/>
			</g>
		</g>
	</g>
	<g id="XMLID_58_">
		<defs>
			<path id="SVGID_7_" d="M50.9,162.1c-4.2-0.5-14.4-8.2-19.8-17.7c-4-7-4.8-13.7-2.3-19.5c6.9-16,27.6-23.4,37.7-25
				c9.1-1.5,23,7.6,33.6,22.1l25.9,35.9l-4.3,2.9L93.4,128c-1.2,7.6-7.1,16.6-15.8,23.8c-8.1,6.7-16.8,10.5-24.1,10.5
				C52.5,162.3,51.7,162.2,50.9,162.1z M121.9,158.8l1.9-1.3l-25-34.6c-8.8-11.9-22.6-23.1-32.2-21.5c-2.3,0.4-10.7,2-19.7,7
				c-8.2,4.6-14,10.5-16.9,17.1c-2.9,6.7-0.4,13.6,2.3,18.2c5.6,9.6,15.4,16.5,18.7,16.9c7.4,0.9,16.9-2.8,25.5-10
				c8.9-7.4,15-17.1,15.5-24.5l0.1-1.8L121.9,158.8z"/>
		</defs>
		<use xlink:href="#SVGID_7_"  style="overflow:visible;"/>
		<clipPath id="SVGID_8_">
			<use xlink:href="#SVGID_7_"  style="overflow:visible;"/>
		</clipPath>
	</g>
	<g id="XMLID_57_">
		<polygon class="st22" points="98.3,132.6 121.8,159.8 124.9,157.8 103.8,128.5 		"/>
		<path d="M97.2,132.4l6.7-5l22,30.5l-4.3,2.9L97.2,132.4z M103.6,129.6l-4.2,3.1l22.5,26.1l1.9-1.3L103.6,129.6z"/>
	</g>
	<g id="XMLID_56_">
		<polygon class="st17" points="14.9,82.1 40.9,106.6 37.6,110.5 13.3,83.7 		"/>
		<path d="M37.1,111L12.7,84.2c-0.3-0.3-0.3-0.8,0-1l1.6-1.6c0.3-0.3,0.7-0.3,1,0L41.4,106c0.3,0.3,0.3,0.7,0.1,1l-3.3,3.9
			c-0.1,0.2-0.3,0.3-0.6,0.3c0,0,0,0,0,0C37.4,111.3,37.2,111.2,37.1,111z M14.9,83.2l-0.6,0.6l23.3,25.6l2.3-2.7L14.9,83.2z"/>
	</g>
	<g id="XMLID_55_">
		<polygon class="st17" points="25.2,132.7 1.4,130 1.3,131.6 25.2,139 		"/>
		<path d="M25,139.7l-23.9-7.3c-0.3-0.1-0.5-0.4-0.5-0.7l0.1-1.6c0-0.2,0.1-0.4,0.3-0.5c0.2-0.1,0.4-0.2,0.6-0.2l23.9,2.7
			c0.4,0,0.7,0.4,0.7,0.7l0,6.2c0,0.2-0.1,0.5-0.3,0.6c-0.1,0.1-0.3,0.1-0.4,0.1C25.2,139.7,25.1,139.7,25,139.7z M2.1,130.9l0,0.2
			l22.4,6.9l0-4.5L2.1,130.9z"/>
	</g>
	<g>
		<g id="XMLID_54_">
			<path class="st17" d="M62.7,79l-7.1,24.2l7.1,0.3L66,79.4C65,78.5,63.7,78.5,62.7,79z"/>
			<path d="M62.7,104.2l-7.1-0.3c-0.2,0-0.4-0.1-0.6-0.3c-0.1-0.2-0.2-0.4-0.1-0.6L62,78.8c0.1-0.2,0.2-0.4,0.4-0.5
				c1.1-0.6,2.8-0.7,4.1,0.4c0.2,0.2,0.3,0.4,0.3,0.7l-3.2,24.1C63.4,104,63.1,104.2,62.7,104.2C62.7,104.2,62.7,104.2,62.7,104.2z
				 M63.4,79.6l-6.7,22.9l5.5,0.2l3.1-23C64.6,79.4,63.9,79.4,63.4,79.6z"/>
		</g>
		<g id="XMLID_53_">
			<path class="st23" d="M57.8,101.6l3.2-11l0.2-0.8l1.7-5.6l0.2-0.8l0.6-1.9l0.8-2.8c-0.7-0.1-1.3,0-1.9,0.3l-0.6,2.2l-0.6,1.9
				l-0.1,0.4l-2.1,7.2l-0.1,0.2L56,102C56.6,101.8,57.2,101.7,57.8,101.6z"/>
		</g>
		<g id="XMLID_52_">
			<path d="M56.1,102.2c0.3,0,0.6-0.2,0.7-0.5l6.5-22.1c0.5-0.2,1.2-0.2,1.8,0.1l-2.8,21.1c-0.1,0.4,0.2,0.8,0.6,0.8
				c0.4,0.1,0.8-0.2,0.8-0.6l2.9-21.6c0-0.3-0.1-0.5-0.3-0.7c-1.3-1.1-3-1-4.1-0.4c-0.2,0.1-0.3,0.3-0.4,0.5l-6.6,22.5
				c-0.1,0.4,0.1,0.8,0.5,0.9C56,102.2,56.1,102.2,56.1,102.2z"/>
		</g>
	</g>
	<g id="XMLID_51_">
		<path class="st24" d="M60.1,93.3c0.8,0,1.6,0,2.4,0.2l4,5.5l1.1,1.5l1,1.4l-3,0.8l-1.2-1.7l-0.1-0.2L60,94.7l-0.9-1.2
			C59.5,93.4,59.8,93.4,60.1,93.3z"/>
	</g>
	<g id="XMLID_50_">
		<path class="st17" d="M70.7,102l-6.2-8.4c-3.8-0.8-8.3,1.1-10.5,3.6l2.1,8.6L70.7,102z"/>
		<path d="M53.1,96.9l0.3-0.3c2.3-2.5,7-4.7,11.2-3.8l0.3,0.1l7,9.6l-16.5,4.2L53.1,96.9z M64.1,94.2c-3.4-0.6-7.2,1.1-9.3,3.1
			l1.8,7.5l12.9-3.3L64.1,94.2z"/>
	</g>
	<g id="XMLID_49_">
		<polygon class="st17" points="48.7,108.7 41.3,103.9 33.9,111.5 38.2,119.2 		"/>
		<path d="M33,111.4l8.2-8.4l8.7,5.6L38,120.5L33,111.4z M41.4,104.9l-6.6,6.7l3.6,6.4l9.1-9.2L41.4,104.9z"/>
	</g>
	<g id="XMLID_28_">
		<polygon class="st17" points="31.5,131.9 23.9,131.5 24.1,139.4 32.8,142 		"/>
		<path d="M23.4,140l-0.3-9.3l9.1,0.5l1.5,11.9L23.4,140z M24.7,132.3l0.2,6.6l7.1,2.1l-1.1-8.4L24.7,132.3z"/>
	</g>
	<g id="XMLID_27_">
		<polygon class="st17" points="35.9,119.2 29,115.8 25,121.9 31.9,129.3 		"/>
		<path d="M24,122l4.7-7.1l8.1,4l-4.7,11.9L24,122z M29.3,116.8l-3.4,5.1l5.7,6.1l3.3-8.4L29.3,116.8z"/>
	</g>
</g>
<g id="tith_6_">
	<path class="st3" d="M63.7,81h1.4c2,0,3.7-1.7,3.7-3.7v-1.4c0-2-1.7-3.7-3.7-3.7h-1.4c-2,0-3.7,1.7-3.7,3.7v1.4
		C60.1,79.4,61.7,81,63.7,81z"/>
</g>
<g>
	<path class="st25" d="M60.1,77.5c0-0.1,0-0.1,0-0.2v-1.4c0-2,1.7-3.7,3.7-3.7h1.4c2,0,3.7,1.7,3.7,3.7v1.4c0,0.1,0,0.3,0,0.4
		C66.5,76.7,62.5,76.3,60.1,77.5z"/>
</g>
<g id="tith_5_">
	<path class="st2" d="M60.2,74.5c0,0,0,0.1-0.1,0.2c-0.1,0.1-0.1,0.3-0.2,0.6c-0.1,0.5-0.2,1.3-0.3,2.1c0,0.1,0,0.2,0,0.4
		c0,0.1,0,0.2,0,0.4c0,0.3,0.1,0.6,0.1,0.9c0.2,0.6,0.5,1.1,0.9,1.6c0.5,0.5,1.1,0.8,1.7,1c0.3,0.1,0.7,0.1,1,0.1l0.9,0l0.9,0l0.5,0
		c0.1,0,0.3,0,0.5,0c0.7-0.1,1.3-0.4,1.8-0.9c0.5-0.4,0.8-1,1-1.5c0.2-0.5,0.2-1.1,0.2-1.6c-0.1-0.9-0.2-1.6-0.2-2.1
		c-0.1-0.3-0.1-0.5-0.2-0.6c0-0.1-0.1-0.2-0.1-0.2s0,0.3,0,0.8c-0.1,0.5-0.2,1.3-0.2,2.1c0,0.4-0.1,0.8-0.3,1.2
		c-0.2,0.4-0.5,0.7-0.9,1c-0.4,0.3-0.8,0.4-1.3,0.5c-0.1,0-0.2,0-0.4,0l-0.4,0l-0.9,0l-0.9,0c-0.3,0-0.5,0-0.7-0.1
		c-0.5-0.1-0.9-0.3-1.2-0.6c-0.3-0.3-0.6-0.7-0.8-1c-0.1-0.2-0.1-0.4-0.2-0.6c0-0.1,0-0.2-0.1-0.3c0-0.1,0-0.2,0-0.3
		c-0.1-0.9-0.2-1.6-0.2-2.1C60.1,74.8,60.2,74.5,60.2,74.5z"/>
</g>
<g>
	<path class="st26" d="M55.3,72c-0.1-0.9,0.3-1.9,0.9-2.5c0.6-0.6,1.4-1,2.1-1.3c1-0.4,2.1-0.7,3.1-0.9c1.1-0.2,2-0.2,3-0.1
		c1-0.1,1.9-0.1,3,0.1c1.1,0.2,2.1,0.5,3.1,0.9c0.8,0.3,1.5,0.7,2.1,1.3c0.6,0.6,1,1.6,0.9,2.5c0,0.1,0,0.1,0,0.2
		c0.1,0.9,0,1.9-0.6,2.5c-1.2,1.4-2.7,1-4.2,0.9c-1.5-0.1-2.9-0.5-4.4-0.7c-1.5,0.2-2.9,0.6-4.4,0.7c-1.4,0.1-3,0.5-4.2-0.9
		c-0.6-0.7-0.7-1.6-0.6-2.5C55.3,72.1,55.3,72,55.3,72z"/>
</g>
<g>
	<path class="st27" d="M68.2,73.9c0.5,0,0.8-0.1,1.1-0.3c0.4-0.2,0.7-0.4,1.1-0.8c0.6-0.7,0.7-1.6,0.6-2.5c0-0.1,0-0.1,0-0.2
		c0.1-0.8-0.2-1.5-0.7-2.1c0.1,0,0.2,0.1,0.2,0.1c0.8,0.3,1.5,0.7,2.1,1.3c0.6,0.6,1,1.6,0.9,2.5c0,0.1,0,0.1,0,0.2
		c0.1,0.9,0,1.9-0.6,2.5c-1.2,1.4-2.7,1-4.2,0.9c-1.5-0.1-2.9-0.5-4.4-0.7c-1.5,0.2-2.9,0.6-4.4,0.7c-1.4,0.1-2.9,0.4-4-0.7
		C60.1,73.9,64.1,73.6,68.2,73.9z"/>
</g>
<g>
	<path class="st2" d="M55.3,72.1L55.3,72.1c-0.1,0.9,0.1,2,0.8,2.7c0.3,0.3,0.8,0.6,1.2,0.7c0.5,0.1,0.9,0.1,1.4,0.1
		c0.5,0,1-0.1,1.4-0.2c0.5-0.1,0.9-0.2,1.4-0.3c0.9-0.2,1.9-0.4,2.9-0.6l0,0l0.1,0c1,0.1,1.9,0.2,2.9,0.4c0.5,0.1,0.9,0.1,1.4,0.1
		l1.4,0.1c0.4,0,0.9,0,1.2-0.1c0.2-0.1,0.4-0.1,0.5-0.2c0.1-0.1,0.2-0.1,0.2-0.2c0.1-0.1,0.1-0.1,0.2-0.2l0.1-0.1l0.1-0.1
		c0.1-0.1,0.1-0.1,0.1-0.2c0.1-0.2,0.1-0.3,0.2-0.5c0.1-0.4,0.1-0.8,0-1.2l0-0.1l0-0.1c0.1-0.2,0-0.4,0-0.6c0-0.2-0.1-0.4-0.1-0.6
		c-0.1-0.2-0.2-0.4-0.3-0.5c-0.1-0.1-0.1-0.2-0.2-0.2L72.4,70l-0.1-0.1c-0.5-0.6-1.4-1-2.2-1.4c-0.9-0.4-1.8-0.7-2.7-0.9
		c-0.9-0.2-1.9-0.3-2.8-0.2l0,0l0,0c-0.9-0.1-1.9-0.1-2.8,0c-0.9,0.1-1.9,0.3-2.8,0.6c-0.9,0.3-1.8,0.7-2.5,1.3
		c-0.7,0.7-1.1,1.6-1,2.6L55.3,72.1z M56.3,69.3c0.7-0.7,1.6-1.1,2.5-1.5c0.9-0.4,1.8-0.7,2.8-0.9c1-0.2,2-0.3,2.9-0.2h0
		c1-0.1,2-0.1,3,0c1,0.1,2,0.4,2.9,0.7c0.9,0.3,2,0.7,2.8,1.6l0.1,0.1l0.1,0.2c0.1,0.1,0.2,0.2,0.2,0.4c0.2,0.2,0.3,0.5,0.4,0.8
		c0.1,0.3,0.2,0.6,0.2,0.9c0,0.3,0,0.6,0,0.9l0-0.2c0.1,0.5,0.1,1.1-0.1,1.7c-0.1,0.3-0.2,0.6-0.3,0.8c-0.1,0.1-0.2,0.3-0.2,0.4
		c-0.1,0.1-0.1,0.1-0.2,0.2l-0.1,0.1c-0.1,0.1-0.2,0.2-0.3,0.3c-0.1,0.1-0.2,0.2-0.4,0.3c-0.3,0.1-0.5,0.3-0.8,0.3
		c-0.6,0.1-1.1,0.1-1.6,0.1c-0.5,0-1-0.1-1.5-0.2c-0.5-0.1-1-0.2-1.5-0.3c-1-0.2-1.9-0.4-2.8-0.6l0.1,0c-0.9,0.1-1.9,0.2-2.9,0.4
		c-1,0.1-1.9,0.2-2.9,0.2c-0.5,0-1,0-1.5-0.2c-0.5-0.1-0.9-0.4-1.2-0.8c-0.7-0.7-0.9-1.8-0.7-2.7v0l0-0.2C55.2,71,55.6,70,56.3,69.3
		z"/>
</g>
<g>
	<path class="st2" d="M73.6,72.1L73.6,72.1c0.1,0.9,0,2-0.7,2.7c-0.3,0.4-0.8,0.6-1.2,0.8c-0.5,0.1-1,0.2-1.5,0.2
		c-1,0-1.9-0.1-2.9-0.2c-1-0.1-1.9-0.3-2.9-0.4l0.1,0c-0.9,0.2-1.9,0.4-2.8,0.6c-0.5,0.1-1,0.2-1.5,0.3c-0.5,0.1-1,0.2-1.5,0.2
		c-0.5,0-1.1,0-1.6-0.1c-0.3-0.1-0.6-0.2-0.8-0.3c-0.1-0.1-0.3-0.2-0.4-0.3c-0.1-0.1-0.3-0.2-0.3-0.3l-0.1-0.1
		c-0.1-0.1-0.1-0.1-0.2-0.2c-0.1-0.1-0.2-0.2-0.2-0.4c-0.1-0.3-0.3-0.5-0.3-0.8c-0.1-0.6-0.2-1.1-0.1-1.7l0,0.2
		c-0.1-0.3,0-0.6,0-0.9c0-0.3,0.1-0.6,0.2-0.9c0.1-0.3,0.2-0.5,0.4-0.8c0.1-0.1,0.2-0.2,0.2-0.4l0.1-0.2l0.1-0.1
		c0.8-0.8,1.8-1.2,2.8-1.6c1-0.3,1.9-0.5,2.9-0.7c1-0.1,2-0.1,3,0h0c1,0,2,0,2.9,0.2c1,0.2,1.9,0.5,2.8,0.9c0.9,0.4,1.8,0.8,2.5,1.5
		c0.7,0.7,1.1,1.7,1,2.6L73.6,72.1z M72.6,69.4c-0.7-0.7-1.6-1-2.5-1.3c-0.9-0.3-1.8-0.5-2.8-0.6c-0.9-0.1-1.9-0.1-2.8,0l0,0l0,0
		c-1,0-1.9,0-2.8,0.2c-0.9,0.2-1.8,0.5-2.7,0.9c-0.9,0.4-1.7,0.8-2.2,1.4L56.6,70l-0.1,0.1c-0.1,0.1-0.1,0.2-0.2,0.2
		c-0.1,0.2-0.2,0.4-0.3,0.5c-0.1,0.2-0.1,0.4-0.1,0.6c0,0.2,0,0.4,0,0.6l0,0.1l0,0.1c-0.1,0.4,0,0.8,0,1.2c0,0.2,0.1,0.4,0.2,0.5
		c0,0.1,0.1,0.2,0.1,0.2l0.1,0.1l0.1,0.1c0.1,0.1,0.1,0.1,0.2,0.2c0.1,0.1,0.1,0.1,0.2,0.2c0.2,0.1,0.3,0.2,0.5,0.2
		c0.4,0.1,0.8,0.1,1.2,0.1l1.4-0.1c0.5,0,0.9-0.1,1.4-0.1c0.9-0.1,1.9-0.3,2.9-0.4l0.1,0l0,0c1,0.2,1.9,0.4,2.9,0.6
		c0.5,0.1,0.9,0.2,1.4,0.3c0.5,0.1,1,0.2,1.4,0.2c0.5,0,1,0,1.4-0.1c0.5-0.1,0.9-0.3,1.2-0.7c0.7-0.7,0.9-1.7,0.8-2.7l0,0l0-0.2
		C73.7,71,73.3,70,72.6,69.4z"/>
</g>
<g>
	<path class="st28" d="M62.1,65.5c0.1,0,0.1,0,0.2,0c0.5,0,3,0,3.6,0c0.1,0,0.2,0,0.2,0c2.7-0.1,2.4,2.5,0.8,3.6
		c-0.7,0.5-1.7,0.6-2.6,0.6c-0.1,0-0.1,0-0.2,0c-0.1,0-0.1,0-0.2,0c-0.9,0-1.9-0.1-2.6-0.6C59.7,68,59.4,65.4,62.1,65.5z"/>
</g>
<g>
	<path class="st29" d="M61.3,67.4c0.7,0.5,1.7,0.6,2.6,0.6c0.1,0,0.1,0,0.2,0c0.1,0,0.1,0,0.2,0c0.9,0,1.9-0.1,2.6-0.6
		c0.4-0.3,0.8-0.7,1-1.2c0.6,0.8,0.1,2.2-1,2.9c-0.7,0.5-1.7,0.6-2.6,0.6c-0.1,0-0.1,0-0.2,0c-0.1,0-0.1,0-0.2,0
		c-0.9,0-1.9-0.1-2.6-0.6c-1.1-0.7-1.6-2.1-1-2.9C60.5,66.6,60.8,67.1,61.3,67.4z"/>
</g>
<g>
	<path class="st2" d="M61,65.7c-0.2,0.1-0.3,0.1-0.4,0.2c-0.1,0.1-0.2,0.2-0.3,0.4c-0.1,0.1-0.1,0.3-0.1,0.5c0,0.2,0,0.3,0,0.5
		c0.1,0.3,0.2,0.6,0.4,0.9c0.1,0.1,0.2,0.2,0.3,0.3c0.1,0.1,0.2,0.2,0.4,0.3c0.2,0.1,0.2,0.1,0.4,0.2c0.1,0,0.3,0.1,0.4,0.1
		c0.3,0.1,0.6,0.1,0.9,0.1c0.3,0,0.7,0,1,0l0,0l0,0c0.2,0,0.5,0,0.7,0c0.2,0,0.5-0.1,0.7-0.1c0.2,0,0.4-0.1,0.6-0.2
		c0.1,0,0.2-0.1,0.3-0.1c0,0,0.1-0.1,0.2-0.1l0.1-0.1c0.6-0.5,1.2-1.3,0.9-2c-0.1-0.2-0.2-0.3-0.3-0.4c-0.2-0.1-0.4-0.2-0.6-0.3
		c-0.1,0-0.2,0-0.4-0.1c-0.1,0-0.2,0-0.4,0l-0.8-0.1c-1-0.1-2.1-0.1-3.1-0.1C61.7,65.5,61.4,65.5,61,65.7z M65.1,65.4l0.8-0.1
		c0.3,0,0.5-0.1,0.8,0c0.3,0,0.6,0.1,0.9,0.2c0.3,0.1,0.6,0.4,0.7,0.6c0.2,0.3,0.3,0.6,0.3,1c0,0.3,0,0.6-0.1,0.9
		c-0.2,0.6-0.6,1.1-1.1,1.5l-0.2,0.2L67,69.8c-0.2,0.1-0.3,0.2-0.4,0.2c-0.3,0.1-0.6,0.2-0.9,0.2c-0.3,0-0.6,0.1-0.8,0.1
		c-0.3,0-0.5,0-0.8,0l0,0c-0.4,0-0.7,0-1.1-0.1c-0.4-0.1-0.7-0.1-1.1-0.3c-0.2-0.1-0.4-0.2-0.5-0.3c-0.2-0.1-0.3-0.3-0.5-0.4
		c-0.1-0.1-0.3-0.3-0.4-0.4c-0.1-0.2-0.2-0.3-0.3-0.5c-0.2-0.3-0.3-0.7-0.3-1.1c0-0.2,0-0.4,0-0.5c0-0.2,0.1-0.4,0.2-0.5
		c0.1-0.2,0.2-0.3,0.4-0.4c0.2-0.1,0.3-0.2,0.5-0.2c0.3-0.1,0.7-0.1,1-0.1C63.1,65.5,64.1,65.5,65.1,65.4z"/>
</g>
<g>
	<path class="st2" d="M67.1,65.6c0.2,0,0.3,0.1,0.5,0.2c0.1,0.1,0.3,0.2,0.4,0.4c0.1,0.2,0.2,0.3,0.2,0.5c0,0.2,0,0.4,0,0.5
		c0,0.4-0.1,0.7-0.3,1.1c-0.1,0.2-0.2,0.3-0.3,0.5c-0.1,0.1-0.3,0.3-0.4,0.4c-0.1,0.1-0.3,0.3-0.5,0.4c-0.2,0.1-0.3,0.2-0.5,0.3
		c-0.4,0.1-0.7,0.2-1.1,0.3c-0.4,0.1-0.7,0.1-1.1,0.1l0,0c-0.3,0-0.5,0-0.8,0c-0.3,0-0.6,0-0.8-0.1c-0.3,0-0.6-0.1-0.9-0.2
		c-0.1-0.1-0.3-0.1-0.4-0.2l-0.2-0.1l-0.2-0.2c-0.5-0.4-0.8-0.9-1.1-1.5c-0.1-0.3-0.2-0.6-0.1-0.9c0-0.3,0.1-0.7,0.3-1
		c0.2-0.3,0.5-0.5,0.7-0.6c0.3-0.1,0.6-0.2,0.9-0.2c0.3,0,0.5,0,0.8,0l0.8,0.1c1,0.1,2.1,0.1,3.1,0.1C66.4,65.5,66.8,65.5,67.1,65.6
		z M63,65.6l-0.8,0.1c-0.1,0-0.2,0-0.4,0c-0.1,0-0.3,0-0.4,0.1c-0.2,0.1-0.4,0.1-0.6,0.3c-0.2,0.1-0.3,0.3-0.3,0.4
		c-0.2,0.7,0.3,1.5,0.9,2l0.1,0.1c0.1,0,0.1,0.1,0.2,0.1c0.1,0,0.2,0.1,0.3,0.1c0.2,0.1,0.4,0.1,0.6,0.2c0.2,0,0.5,0.1,0.7,0.1
		c0.2,0,0.5,0,0.7,0l0,0l0,0c0.3,0,0.7,0,1,0c0.3,0,0.6,0,0.9-0.1c0.1,0,0.3-0.1,0.4-0.1c0.2-0.1,0.2-0.1,0.4-0.2
		c0.2-0.1,0.2-0.2,0.4-0.3c0.1-0.1,0.2-0.2,0.3-0.3c0.2-0.3,0.4-0.5,0.4-0.9c0-0.2,0.1-0.3,0-0.5c0-0.2-0.1-0.3-0.1-0.5
		c-0.1-0.2-0.2-0.3-0.3-0.4c-0.1-0.1-0.3-0.2-0.4-0.2c-0.3-0.1-0.7-0.1-1-0.2C65.1,65.5,64,65.6,63,65.6z"/>
</g>
<g>
	<rect x="63.7" y="74.8" class="st2" width="1" height="6.5"/>
</g>
<g>
	<path class="st0" d="M131.4,122c-2,8.1-6.6,16.6-13.9,21.2c-2.4,1.5-4.6,2.1-7.2,0.9c-2.1-1-4.1-2.8-3.7-5.3
		c1.1-7.1,6.1-13.4,9.8-19.3"/>
</g>
<g>
	<path class="st1" d="M114.1,140.3c-2.3,1.5-4.5,2.1-7.1,1c0.7,1.3,2,2.2,3.3,2.9c2.6,1.2,4.8,0.6,7.2-0.9
		c6.8-4.3,11.2-11.9,13.4-19.5c0.3-1.1,0.5-2.1,0.3-3.2c-0.1-0.6-0.4-1.1-0.8-1.5c-0.5-0.4-1.1-0.4-1.6-0.1
		c-0.2,0.1-0.4,0.3-0.5,0.5c-1.1,1.6-1.5,3.7-2.2,5.5c-0.8,1.9-1.7,3.8-2.8,5.6c-2.1,3.5-4.8,6.8-8.2,9.2
		C114.8,139.8,114.5,140.1,114.1,140.3z"/>
</g>
<g>
	<path class="st2" d="M131.4,122c0,0-0.1,0.2-0.2,0.7c-0.1,0.4-0.4,1.1-0.6,1.9c-0.3,0.8-0.7,1.8-1.1,2.8c-0.5,1.1-1.1,2.3-1.7,3.5
		c-0.7,1.3-1.5,2.6-2.5,3.9c-1,1.3-2.1,2.7-3.3,3.9c-1.2,1.3-2.7,2.4-4.2,3.5c-1.5,1-3.2,1.8-4.9,1.7c-0.9-0.1-1.7-0.3-2.5-0.7
		c-0.8-0.4-1.5-0.9-2-1.6c-0.5-0.6-0.9-1.4-0.9-2.2c0-0.2,0-0.4,0-0.6l0.1-0.7c0.1-0.5,0.2-0.9,0.3-1.3c0.4-1.7,1-3.3,1.7-4.8
		c0.7-1.5,1.4-2.9,2.1-4.2c1.4-2.5,2.7-4.6,3.6-6.1c0.9-1.5,1.3-2.3,1.3-2.3s-0.6,0.8-1.6,2.2c-1,1.4-2.5,3.3-4.1,5.8
		c-0.8,1.2-1.6,2.6-2.4,4.1c-0.8,1.5-1.5,3.2-2,5c-0.1,0.5-0.2,0.9-0.3,1.4l-0.1,0.7c0,0.3-0.1,0.6-0.1,0.8c0,1.1,0.5,2.2,1.1,3
		c0.7,0.8,1.5,1.5,2.5,2c0.9,0.5,2,0.9,3.1,0.9c2.2,0.1,4.3-0.9,5.8-2c1.6-1.1,3.1-2.4,4.4-3.8c2.6-2.7,4.3-5.7,5.6-8.4
		c0.6-1.3,1.1-2.6,1.5-3.7c0.4-1.1,0.7-2.1,0.9-3c0.2-0.8,0.4-1.5,0.4-1.9C131.3,122.2,131.4,122,131.4,122z"/>
</g>
<g>
	<path class="st3" d="M133.7,115.9c-1.6,6.3-3,12.7-4.3,19.1c-4.8-4.4-11.2-6.5-17.3-8.6c-0.3-0.1-0.5-0.2-0.7-0.4
		c-0.2-0.3,0-0.8,0.2-1.1c1.6-2.6,3.1-5.2,4.7-7.8"/>
	<path class="st2" d="M129.9,136.4l0.3-1.3c1.2-6.4,2.6-12.8,4.2-19c0.1-0.4-0.1-0.8-0.5-0.9c-0.4-0.1-0.8,0.1-0.9,0.5
		c-1.5,5.9-2.9,11.9-4,17.8c-4.5-3.7-10.1-5.7-15.6-7.6l-1-0.3c-0.1,0-0.2-0.1-0.3-0.1c0,0,0.1-0.1,0.2-0.3l4.7-7.8
		c0.2-0.4,0.1-0.8-0.3-1c-0.4-0.2-0.8-0.1-1,0.3l-4.7,7.8c-0.2,0.3-0.7,1.1-0.2,1.9c0.3,0.5,0.8,0.7,1.1,0.8l1,0.3
		c5.7,2,11.7,4,16.1,8.1L129.9,136.4z"/>
</g>
<g>
	<ellipse class="st0" cx="38.5" cy="73.2" rx="17.8" ry="12.3"/>
</g>
<g class="st30">
	<g>
		<ellipse class="st1" cx="42.7" cy="73" rx="10.3" ry="6.6"/>
	</g>
</g>
<g>
	<path class="st2" d="M20.7,73.2c0,0,0-0.3,0.1-0.8c0-0.5,0.2-1.2,0.5-2c0.2-0.4,0.3-0.9,0.6-1.4c0.3-0.5,0.6-1,1-1.4
		c0.8-1,1.9-1.9,3.1-2.8c1.3-0.8,2.8-1.6,4.5-2.1c1.7-0.6,3.5-0.9,5.4-1.1c0.5-0.1,1-0.1,1.5-0.1l0.7,0l0.3,0l0.4,0
		c0.5,0,1,0.1,1.5,0.1c0.5,0.1,1,0.1,1.5,0.2c2,0.3,4,0.8,5.8,1.6c1.9,0.8,3.6,1.9,5,3.3c1.4,1.4,2.4,3.1,2.8,4.9
		c0.1,0.4,0.1,0.9,0.2,1.3c0,0.1,0,0.3,0,0.3l0,0.4c0,0.2,0,0.5,0,0.7c-0.1,0.8-0.3,1.7-0.7,2.5c-0.7,1.6-1.8,2.9-2.9,3.9
		c-1.2,1-2.4,1.8-3.5,2.4c-1.1,0.6-2.2,1-3,1.3c-0.9,0.3-1.6,0.5-2,0.6c-0.5,0.1-0.7,0.2-0.7,0.2s0.3,0,0.8-0.1
		c0.5-0.1,1.2-0.2,2.1-0.4c0.9-0.3,2-0.6,3.2-1.1c1.2-0.5,2.5-1.2,3.8-2.2c1.3-1,2.5-2.3,3.4-4.1c0.4-0.8,0.7-1.8,0.9-2.8
		c0.1-0.9,0.1-2.1-0.1-3.1c-0.4-2.1-1.5-4.1-3.1-5.6c-1.5-1.5-3.4-2.7-5.4-3.6c-2-0.9-4.1-1.4-6.2-1.7c-0.5-0.1-1.1-0.1-1.6-0.2
		c-0.5,0-1,0-1.5,0l-0.4,0l-0.4,0l-0.8,0c-0.5,0-1,0.1-1.5,0.1c-4,0.4-7.6,1.9-10.3,3.8c-1.3,1-2.3,2.1-3.1,3.1
		c-0.4,0.6-0.7,1.1-0.9,1.6c-0.3,0.5-0.4,1-0.6,1.4c-0.3,0.9-0.3,1.6-0.3,2.1C20.7,73,20.7,73.2,20.7,73.2z"/>
</g>
<g>
	<ellipse class="st0" cx="92.9" cy="75.2" rx="22.2" ry="12.3"/>
</g>
<g>
	<path class="st2" d="M115.1,75.2c0,0,0-0.3,0-0.9c0-0.1,0-0.3,0-0.5c0-0.2-0.1-0.4-0.1-0.6c0-0.2-0.1-0.4-0.2-0.7
		c-0.1-0.2-0.2-0.5-0.3-0.7c-0.4-1-1.2-2.1-2.2-3.2c-1-1.1-2.4-2.1-4.1-3c-1.6-0.9-3.5-1.6-5.5-2.2c-2-0.6-4.2-1-6.6-1.2
		c-0.6-0.1-1.2-0.1-1.7-0.1c-0.6,0-1.2-0.1-1.8,0c-0.6,0-1.2,0-1.8,0c-0.6,0-1.2,0.1-1.8,0.1c-2.4,0.2-4.9,0.7-7.3,1.4
		c-2.4,0.8-4.7,1.8-6.7,3.2c-0.5,0.4-1,0.7-1.5,1.2l-0.7,0.6l-0.6,0.7c-0.4,0.4-0.7,1-1.1,1.5c-0.2,0.3-0.3,0.6-0.4,0.8
		c-0.1,0.3-0.3,0.6-0.3,0.9l-0.2,0.9c-0.1,0.3-0.1,0.6-0.1,0.9l0,0.5l0,0.1c0,0,0,0,0,0.1l0,0.1l0,0.2l0.1,0.8
		c0.2,1.2,0.7,2.3,1.3,3.2c1.2,1.8,2.9,3.1,4.5,4.1c1.6,1,3.2,1.6,4.6,2.1c1.4,0.5,2.7,0.8,3.7,1c1,0.2,1.9,0.3,2.4,0.4
		c0.6,0.1,0.9,0.1,0.9,0.1s-0.3-0.1-0.9-0.2c-0.6-0.1-1.4-0.3-2.4-0.6c-1-0.3-2.2-0.7-3.6-1.2c-1.4-0.6-2.8-1.3-4.3-2.3
		c-1.5-1-3-2.3-4-4c-0.5-0.8-0.9-1.8-1-2.7l0-0.8l0-0.2l0-0.1c0,0.1,0,0,0,0l0-0.1l0-0.4c0-0.3,0-0.5,0.1-0.8l0.2-0.7
		c0.7-2,2.3-3.6,4.1-5c1.9-1.3,4.1-2.3,6.3-3c2.3-0.7,4.6-1.2,6.9-1.4c0.6,0,1.2-0.1,1.7-0.1c0.6,0,1.2,0,1.8-0.1c0.5,0,1.1,0,1.7,0
		c0.6,0,1.1,0,1.7,0.1c2.2,0.1,4.4,0.5,6.4,1c2,0.5,3.8,1.1,5.4,1.9c1.6,0.8,3,1.7,4.1,2.6c1.1,1,1.9,2,2.3,2.9
		c0.1,0.2,0.2,0.5,0.3,0.7c0.1,0.2,0.1,0.4,0.2,0.6c0.1,0.2,0.1,0.4,0.2,0.5c0,0.2,0,0.3,0.1,0.5C115.1,74.9,115.1,75.2,115.1,75.2z
		"/>
</g>
<g class="st30">
	<g>
		<ellipse class="st1" cx="87.1" cy="74.2" rx="11.7" ry="6.6"/>
	</g>
</g>
</svg>
