<?xml version="1.0" encoding="UTF-8"?>
<svg width="1065px" height="324px" viewBox="0 0 1065 324" version="1.1" xmlns="http://www.w3.org/2000/svg" xmlns:xlink="http://www.w3.org/1999/xlink">
    <!-- Generator: Sketch 49.2 (51160) - http://www.bohemiancoding.com/sketch -->
    <title>Group</title>
    <desc>Created with Sketch.</desc>
    <defs></defs>
    <g id="Page-1" stroke="none" stroke-width="1" fill="none" fill-rule="evenodd">
        <g id="Group" fill="#FFFFFF">
            <path d="M162,324 C72.5298705,324 0,251.470129 0,162 C0,72.5298705 72.5298705,1.42108547e-14 162,1.42108547e-14 C251.470129,1.42108547e-14 324,72.5298705 324,162 C324,251.470129 251.470129,324 162,324 Z M161.561585,101.396705 L205.127362,234.470352 L205.127362,234.272326 C205.787453,236.252598 206.876586,237.869797 208.394795,239.123969 C209.913004,240.378142 211.596211,241.005219 213.444465,241.005219 C214.50061,241.005219 215.457728,240.906207 216.315846,240.708179 C217.173964,240.510152 218.131081,240.279124 219.187227,240.015087 C226.580244,237.63876 229.352584,233.414242 227.50433,227.341407 C220.111312,204.634282 212.619394,181.762478 205.028349,158.725307 C197.437304,135.688137 189.945386,112.816333 182.552368,90.109208 C181.628241,88.3929718 180.275075,86.6767614 178.49283,84.9605252 C176.710585,83.244289 174.895362,82.2541676 173.047108,81.9901313 C170.802799,81.726095 168.624532,81.4950666 166.512241,81.2970394 C164.399951,81.0990121 162.749748,81 161.561585,81 C160.373421,81 158.723219,81.0990121 156.610928,81.2970394 C154.498637,81.4950666 152.32037,81.7921031 150.076062,82.1881576 C147.831753,82.4521939 145.884514,83.3102991 144.234287,84.762499 C142.58406,86.2146988 141.428918,87.9969173 140.768827,90.109208 L95.6188398,227.341407 C93.6385673,233.414242 96.4109072,237.63876 103.935943,240.015087 L103.737917,240.015087 C104.794062,240.279124 105.817187,240.510152 106.807324,240.708179 C107.79746,240.906207 108.820585,241.005219 109.876731,241.005219 C111.857003,241.005219 113.540209,240.378142 114.9264,239.123969 C116.312591,237.869797 117.401725,236.252598 118.193834,234.272326 L118.193834,234.470352 L161.561585,101.396705 Z M177.298018,191.248022 C177.298018,187.023441 175.812836,183.426 172.842427,180.455591 C169.872018,177.485182 166.274577,176 162.049996,176 C157.825414,176 154.260977,177.485182 151.356578,180.455591 C148.452178,183.426 147,187.023441 147,191.248022 C147,195.472603 148.452178,199.070045 151.356578,202.040453 C154.260977,205.010862 157.825414,206.496044 162.049996,206.496044 C166.274577,206.496044 169.872018,205.010862 172.842427,202.040453 C175.812836,199.070045 177.298018,195.472603 177.298018,191.248022 Z" id="Combined-Shape"></path>
            <path d="M426.392,120.776 L394.856,217.544 L394.856,217.4 C394.279997,218.840007 393.488005,220.015995 392.48,220.928 C391.471995,221.840005 390.248007,222.296 388.808,222.296 C388.039996,222.296 387.296004,222.224001 386.576,222.08 C385.855996,221.935999 385.112004,221.768001 384.344,221.576 L384.488,221.576 C379.015973,219.847991 376.999993,216.776022 378.44,212.36 L411.272,112.568 C411.752002,111.031992 412.591994,109.736005 413.792,108.68 C414.992006,107.623995 416.407992,107.000001 418.04,106.808 C419.672008,106.519999 421.255992,106.304001 422.792,106.16 C424.328008,106.015999 425.527996,105.944 426.392,105.944 C427.256004,105.944 428.455992,106.015999 429.992,106.16 C431.528008,106.304001 433.111992,106.471999 434.744,106.664 C436.088007,106.856001 437.407994,107.575994 438.704,108.824 C440.000006,110.072006 440.983997,111.319994 441.656,112.568 C447.032027,129.080083 452.479972,145.711916 458,162.464 C463.520028,179.216084 468.967973,195.847917 474.344,212.36 C475.688007,216.776022 473.672027,219.847991 468.296,221.576 C467.527996,221.768001 466.832003,221.935999 466.208,222.08 C465.583997,222.224001 464.888004,222.296 464.12,222.296 C462.775993,222.296 461.552006,221.840005 460.448,220.928 C459.343994,220.015995 458.552002,218.840007 458.072,217.4 L458.072,217.544 L426.392,120.776 Z M437.192,186.44 C437.192,189.512015 436.112011,192.127989 433.952,194.288 C431.791989,196.448011 429.176015,197.528 426.104,197.528 C423.031985,197.528 420.440011,196.448011 418.328,194.288 C416.215989,192.127989 415.16,189.512015 415.16,186.44 C415.16,183.367985 416.215989,180.752011 418.328,178.592 C420.440011,176.431989 423.031985,175.352 426.104,175.352 C429.176015,175.352 431.791989,176.431989 433.952,178.592 C436.112011,180.752011 437.192,183.367985 437.192,186.44 Z M515.096,221 C511.639983,221 509.816001,218.744023 509.624,214.232 C509.624,209.719977 511.447982,207.464 515.096,207.464 L529.64,207.464 C533.192018,207.464 535.711993,206.45601 537.2,204.44 C538.688007,202.42399 539.432,200.264012 539.432,197.96 L539.432,157.352 C539.432,154.951988 538.688007,152.72001 537.2,150.656 C535.711993,148.59199 533.144018,147.655999 529.496,147.848 L501.848,147.848 L501.848,234.392 C501.848,238.904023 499.208026,241.16 493.928,241.16 C488.647974,241.16 486.008,238.856023 486.008,234.248 L486.008,142.808 C486.008,139.447983 486.871991,137.192006 488.6,136.04 C490.328009,134.887994 492.439988,134.312 494.936,134.312 L532.232,134.312 C534.728012,134.312 537.247987,134.743996 539.792,135.608 C542.336013,136.472004 544.951987,137.671992 547.64,139.208 C549.944012,140.840008 551.791993,143.119985 553.184,146.048 C554.576007,148.976015 555.272,152.40798 555.272,156.344 L555.272,198.968 C555.272,206.840039 552.728025,212.455983 547.64,215.816 C542.263973,219.272017 537.128024,221 532.232,221 L515.096,221 Z M602.36,221 C598.903983,221 597.080001,218.744023 596.888,214.232 C596.888,209.719977 598.711982,207.464 602.36,207.464 L616.904,207.464 C620.456018,207.464 622.975993,206.45601 624.464,204.44 C625.952007,202.42399 626.696,200.264012 626.696,197.96 L626.696,157.352 C626.696,154.951988 625.952007,152.72001 624.464,150.656 C622.975993,148.59199 620.408018,147.655999 616.76,147.848 L589.112,147.848 L589.112,234.392 C589.112,238.904023 586.472026,241.16 581.192,241.16 C575.911974,241.16 573.272,238.856023 573.272,234.248 L573.272,142.808 C573.272,139.447983 574.135991,137.192006 575.864,136.04 C577.592009,134.887994 579.703988,134.312 582.2,134.312 L619.496,134.312 C621.992012,134.312 624.511987,134.743996 627.056,135.608 C629.600013,136.472004 632.215987,137.671992 634.904,139.208 C637.208012,140.840008 639.055993,143.119985 640.448,146.048 C641.840007,148.976015 642.536,152.40798 642.536,156.344 L642.536,198.968 C642.536,206.840039 639.992025,212.455983 634.904,215.816 C629.527973,219.272017 624.392024,221 619.496,221 L602.36,221 Z M676.952,215.384 C676.952,219.896023 674.312026,222.152 669.032,222.152 C663.655973,222.152 660.968,219.896023 660.968,215.384 L660.968,112.136 C660.968,107.623977 663.655973,105.368 669.032,105.368 C674.312026,105.368 676.952,107.623977 676.952,112.136 L676.952,215.384 Z M713.096,214.952 C713.096,219.560023 710.456026,221.864 705.176,221.864 C699.799973,221.864 697.112,219.560023 697.112,214.952 L697.112,140.648 C697.112,136.039977 699.799973,133.736 705.176,133.736 C710.456026,133.736 713.096,136.039977 713.096,140.648 L713.096,214.952 Z M716.12,115.592 C716.12,118.664015 715.064011,121.255989 712.952,123.368 C710.839989,125.480011 708.248015,126.536 705.176,126.536 C702.103985,126.536 699.488011,125.480011 697.328,123.368 C695.167989,121.255989 694.088,118.664015 694.088,115.592 C694.088,112.423984 695.167989,109.784011 697.328,107.672 C699.488011,105.559989 702.103985,104.504 705.176,104.504 C708.248015,104.504 710.839989,105.559989 712.952,107.672 C715.064011,109.784011 716.12,112.423984 716.12,115.592 Z M748.952,197.96 C748.952,200.264012 749.695993,202.42399 751.184,204.44 C752.672007,206.45601 755.191982,207.464 758.744,207.464 L776.744,207.464 C780.296018,207.464 782.815993,206.576009 784.304,204.8 C785.792007,203.023991 786.536,200.984012 786.536,198.68 L786.536,197.096 C786.536,192.583977 789.175974,190.328 794.456,190.328 C799.736026,190.328 802.376,192.583977 802.376,197.096 L802.376,198.824 C802.376,202.85602 801.728006,206.167987 800.432,208.76 C799.135994,211.352013 797.192013,213.60799 794.6,215.528 C789.511975,219.176018 784.424025,221 779.336,221 L755.144,221 C750.055975,221 745.112024,219.176018 740.312,215.528 C738.007988,213.60799 736.232006,211.184015 734.984,208.256 C733.735994,205.327985 733.112,201.944019 733.112,198.104 L733.112,157.064 C733.112,149.287961 735.511976,143.528019 740.312,139.784 C742.712012,138.055991 745.183987,136.688005 747.728,135.68 C750.272013,134.671995 752.743988,134.168 755.144,134.168 L779.336,134.168 C781.640012,134.168 784.183986,134.623995 786.968,135.536 C789.752014,136.448005 792.343988,137.671992 794.744,139.208 C797.048012,140.840008 798.895993,143.095986 800.288,145.976 C801.680007,148.856014 802.376,152.26398 802.376,156.2 L802.376,175.64 C802.376,177.848011 801.728006,179.815991 800.432,181.544 C799.135994,183.272009 796.760017,184.136 793.304,184.136 L762.2,184.136 C758.743983,184.136 756.920001,181.880023 756.728,177.368 C756.728,172.855977 758.551982,170.6 762.2,170.6 L786.68,170.6 L786.536,157.208 C786.536,154.807988 785.792007,152.62401 784.304,150.656 C782.815993,148.68799 780.296018,147.704 776.744,147.704 L758.744,147.704 C755.191982,147.704 752.672007,148.68799 751.184,150.656 C749.695993,152.62401 748.952,154.807988 748.952,157.208 L748.952,197.96 Z M874.088,147.848 L846.296,147.848 C842.35998,147.848 839.768006,148.999988 838.52,151.304 C837.175993,153.32001 836.504,155.671987 836.504,158.36 L836.504,199.832 C836.504,202.328012 837.271992,204.223994 838.808,205.52 C840.344008,206.816006 842.887982,207.464 846.44,207.464 L861.272,207.464 C864.728017,207.464 866.456,209.719977 866.456,214.232 C866.456,216.15201 866.048004,217.759994 865.232,219.056 C864.415996,220.352006 863.096009,221 861.272,221 L843.848,221 C837.79997,221 832.424024,219.464015 827.72,216.392 C823.015976,213.511986 820.664,208.04004 820.664,199.976 L820.664,157.064 C820.664,153.12798 821.287994,149.720014 822.536,146.84 C823.784006,143.959986 825.751987,141.608009 828.44,139.784 C833.528025,136.135982 838.615975,134.312 843.704,134.312 L874.088,134.312 L874.088,112.712 C874.088,108.103977 876.727974,105.8 882.008,105.8 C887.288026,105.8 889.928,108.103977 889.928,112.712 L889.928,214.952 C889.928,219.560023 887.288026,221.864 882.008,221.864 C879.99199,221.864 878.168008,221.504004 876.536,220.784 C874.903992,220.063996 874.088,218.456012 874.088,215.96 L874.088,147.848 Z M986.104,120.776 L954.568,217.544 L954.568,217.4 C953.991997,218.840007 953.200005,220.015995 952.192,220.928 C951.183995,221.840005 949.960007,222.296 948.52,222.296 C947.751996,222.296 947.008004,222.224001 946.288,222.08 C945.567996,221.935999 944.824004,221.768001 944.056,221.576 L944.2,221.576 C938.727973,219.847991 936.711993,216.776022 938.152,212.36 L970.984,112.568 C971.464002,111.031992 972.303994,109.736005 973.504,108.68 C974.704006,107.623995 976.119992,107.000001 977.752,106.808 C979.384008,106.519999 980.967992,106.304001 982.504,106.16 C984.040008,106.015999 985.239996,105.944 986.104,105.944 C986.968004,105.944 988.167992,106.015999 989.704,106.16 C991.240008,106.304001 992.823992,106.471999 994.456,106.664 C995.800007,106.856001 997.119994,107.575994 998.416,108.824 C999.712006,110.072006 1000.696,111.319994 1001.368,112.568 C1006.74403,129.080083 1012.19197,145.711916 1017.712,162.464 C1023.23203,179.216084 1028.67997,195.847917 1034.056,212.36 C1035.40001,216.776022 1033.38403,219.847991 1028.008,221.576 C1027.24,221.768001 1026.544,221.935999 1025.92,222.08 C1025.296,222.224001 1024.6,222.296 1023.832,222.296 C1022.48799,222.296 1021.26401,221.840005 1020.16,220.928 C1019.05599,220.015995 1018.264,218.840007 1017.784,217.4 L1017.784,217.544 L986.104,120.776 Z M996.904,186.44 C996.904,189.512015 995.824011,192.127989 993.664,194.288 C991.503989,196.448011 988.888015,197.528 985.816,197.528 C982.743985,197.528 980.152011,196.448011 978.04,194.288 C975.927989,192.127989 974.872,189.512015 974.872,186.44 C974.872,183.367985 975.927989,180.752011 978.04,178.592 C980.152011,176.431989 982.743985,175.352 985.816,175.352 C988.888015,175.352 991.503989,176.431989 993.664,178.592 C995.824011,180.752011 996.904,183.367985 996.904,186.44 Z M1064.728,214.952 C1064.728,219.560023 1061.84803,221.864 1056.088,221.864 C1050.42397,221.864 1047.592,219.560023 1047.592,214.952 L1047.592,112.856 C1047.592,108.247977 1050.42397,105.944 1056.088,105.944 C1061.84803,105.944 1064.728,108.247977 1064.728,112.856 L1064.728,214.952 Z" id="AppliedAI"></path>
        </g>
    </g>
</svg>