<?xml version="1.0" encoding="utf-8"?>
<!-- Generator: Adobe Illustrator 21.0.2, SVG Export Plug-In . SVG Version: 6.00 Build 0)  -->
<svg version="1.1" id="Layer_1" xmlns="http://www.w3.org/2000/svg" xmlns:xlink="http://www.w3.org/1999/xlink" x="0px" y="0px"
	 viewBox="0 0 1027.155 223.514" enable-background="new 0 0 1027.155 223.514" xml:space="preserve">
<g>
	<polygon fill="#5DB45E" points="301.394,5.097 301.394,218.391 432.652,218.391 432.652,191.537 328.247,191.537 328.247,5.097 	
		"/>
	<rect x="508.72" y="5.096" fill="#5DB45E" width="26.854" height="213.296"/>
	<polygon fill="#5DB45E" points="796.444,223.514 796.444,5.096 769.594,5.096 769.594,158.723 618.918,0 616.708,0 
		616.708,218.393 643.559,218.393 643.559,62.475 794.016,223.514 	"/>
	<polygon fill="#5DB45E" points="1027.155,5.096 873.526,5.096 873.526,28.22 936.915,28.22 936.915,218.393 963.765,218.393 
		963.765,28.22 1027.155,28.22 	"/>
	<g>
		<path fill="#5DB45E" d="M199.644,113.291h-60.64v23.331h57.058c-10.733,36.436-44.406,63.042-84.318,63.042
			c-48.557,0-87.919-39.363-87.919-87.919c0-48.556,39.363-87.919,87.919-87.919c15.358,0,29.794,3.942,42.358,10.863l11.792-20.706
			C149.852,5.078,131.393,0,111.745,0C50.03,0,0,50.03,0,111.744c0,61.715,50.03,111.745,111.745,111.745
			c61.198,0,110.896-49.197,111.725-110.198h-5.468H199.644z"/>
		<rect x="139.004" y="72.765" fill="#5DB45E" width="84.465" height="23.331"/>
	</g>
</g>
</svg>
