<?xml version="1.0" encoding="utf-8"?>
<!-- Generator: Adobe Illustrator 21.0.2, SVG Export Plug-In . SVG Version: 6.00 Build 0)  -->
<svg version="1.1" id="Layer_1" xmlns="http://www.w3.org/2000/svg" xmlns:xlink="http://www.w3.org/1999/xlink" x="0px" y="0px"
	 viewBox="0 0 965.582 147.449" enable-background="new 0 0 965.582 147.449" xml:space="preserve">
<linearGradient id="XMLID_2_" gradientUnits="userSpaceOnUse" x1="653.6003" y1="19.859" x2="766.0947" y2="126.3537">
	<stop  offset="0.0026" style="stop-color:#FF00BE"/>
	<stop  offset="0.0887" style="stop-color:#F40BC1"/>
	<stop  offset="0.2407" style="stop-color:#D629C8"/>
	<stop  offset="0.4406" style="stop-color:#A659D5"/>
	<stop  offset="0.681" style="stop-color:#639CE6"/>
	<stop  offset="0.9529" style="stop-color:#0FF0FB"/>
	<stop  offset="1" style="stop-color:#00FFFF"/>
</linearGradient>
<path id="XMLID_19_" fill="url(#XMLID_2_)" d="M710.501,0c-40.653,0-73.725,33.072-73.725,73.724s33.072,73.725,73.725,73.725
	c40.651,0,73.723-33.073,73.723-73.725S751.152,0,710.501,0z M710.501,117.815c-24.312,0-44.093-19.779-44.093-44.091
	c0-24.313,19.781-44.092,44.093-44.092c24.312,0,44.091,19.779,44.091,44.092C754.592,98.036,734.813,117.815,710.501,117.815z"/>
<linearGradient id="XMLID_3_" gradientUnits="userSpaceOnUse" x1="3522.7617" y1="13.6039" x2="3416.2671" y2="132.098" gradientTransform="matrix(-1 0 0 -1 4360.5879 147.4489)">
	<stop  offset="0" style="stop-color:#FF00BE"/>
	<stop  offset="0.0877" style="stop-color:#F30CC1"/>
	<stop  offset="0.2459" style="stop-color:#D32CC9"/>
	<stop  offset="0.4567" style="stop-color:#A05FD6"/>
	<stop  offset="0.712" style="stop-color:#59A6E8"/>
	<stop  offset="1" style="stop-color:#00FFFF"/>
</linearGradient>
<path id="XMLID_16_" fill="url(#XMLID_3_)" d="M891.857,147.449c40.653,0,73.725-33.072,73.725-73.724S932.51,0,891.857,0
	c-40.651,0-73.723,33.073-73.723,73.725S851.206,147.449,891.857,147.449z M891.857,29.634c24.312,0,44.093,19.779,44.093,44.091
	c0,24.313-19.781,44.092-44.093,44.092c-24.312,0-44.091-19.779-44.091-44.092C847.766,49.413,867.545,29.634,891.857,29.634z"/>
<linearGradient id="XMLID_22_" gradientUnits="userSpaceOnUse" x1="210.4692" y1="305.4975" x2="384.78" y2="-158.8684">
	<stop  offset="0" style="stop-color:#FF0001"/>
	<stop  offset="0.8824" style="stop-color:#F100C8"/>
</linearGradient>
<path id="XMLID_8_" fill="url(#XMLID_22_)" d="M76.942,84.139c27.611,27.611,35.542,59.457,35.542,59.457H81.763
	c-12.566-36.625-40.53-54.582-40.53-54.582l0.001-0.001c-8.102,4.483-13.787,6.815-13.787,6.815v47.804H0V3.944h27.447v61.493
	c0,0,15.358-7.627,31.849-24.118c16.491-16.491,24.62-37.375,24.62-37.375h28.348c-4.812,16.476-17.584,40.473-37.8,60.689
	c-3.058,3.058-6.267,5.9-9.51,8.529C68.185,75.767,72.117,79.314,76.942,84.139z M226.274,3.944l50.129,139.687h-29.28
	l-10.243-28.536h-28.056h-28.056l-10.243,28.536h-29.28L191.375,3.944H226.274z M227.108,87.906l-18.284-50.943l-18.284,50.943
	h18.284H227.108z M319.098,3.944h72.672c22.173,0,40.212,18.038,40.212,40.211c0,15.665-9.01,29.258-22.116,35.893
	c-2.946,1.491-6.101,2.618-9.404,3.353l33.853,60.231H402.51l-34.214-59.264h-21.848v59.264h-27.351V3.944 M319.098,3.944
	 M391.403,57.261c7.185,0,13.03-5.845,13.03-13.029c0-7.184-5.845-13.029-13.03-13.029h-44.955v10.044v16.013H391.403z
	 M594.894,3.944h-27.421v55.152h-59.575V3.944h-27.393v139.687h27.393V86.065h59.575v57.566h27.421V3.944z"/>
</svg>
