<?xml version="1.0" encoding="utf-8"?>
<!-- Generator: Adobe Illustrator 21.0.2, SVG Export Plug-In . SVG Version: 6.00 Build 0)  -->
<svg version="1.1" xmlns="http://www.w3.org/2000/svg" xmlns:xlink="http://www.w3.org/1999/xlink" x="0px" y="0px"
	 viewBox="0 0 535.466 120" enable-background="new 0 0 535.466 120" xml:space="preserve">
<g id="Layer_1">
</g>
<g id="Layer_2">
</g>
<g id="Layer_3">
	<g>
		<g>
			<path fill="#E34B5F" d="M132.985,87.344c0,1.633-0.649,3.199-1.803,4.354l-27.576,27.576c-1.552,1.552-4.205,0.453-4.205-1.741
				V55.742l33.201-33.015h0.383V87.344z"/>
			<path fill="#E7CE9C" d="M110.979,0.721c-0.962-0.962-2.521-0.962-3.483,0L66.492,41.725h-0.569v46.279l0.569,1.216l32.909-32.909
				l33.584-33.584L110.979,0.721z"/>
			<path fill="#1E7889" d="M0,87.344c0,1.633,0.649,3.199,1.803,4.354l27.576,27.576c1.552,1.552,4.205,0.453,4.205-1.741V55.742
				L0.383,22.727H0V87.344z"/>
			<path fill="#97BAA6" d="M25.489,0.721c-0.962-0.962-2.521-0.962-3.483,0L0,22.727l33.584,33.584l32.909,32.909V41.725
				L25.489,0.721z"/>
		</g>
		<g>
			<g>
				<path fill="#14233C" d="M174.256,88.199V26.547h16.417v8.266c3.789-6.314,9.299-9.414,16.762-9.414s13.088,3.215,17.106,9.873
					c6.429-6.774,11.366-9.873,19.058-9.873c13.892,0,21.699,7.807,21.699,22.158v40.642h-17.68V54.79
					c0-8.611-1.837-12.514-8.611-12.514c-6.888,0-10.562,4.248-10.562,12.514v33.409H210.65V54.79
					c0-8.611-1.837-12.514-8.611-12.514c-6.889,0-10.562,4.248-10.562,12.514v33.409H174.256z"/>
				<path fill="#14233C" d="M284.914,34.584c6.2-6.199,14.351-9.644,22.732-9.644c8.955,0,16.647,3.1,22.847,8.955
					c6.544,6.2,10.103,14.695,10.103,23.076c0,9.299-3.1,16.991-9.299,23.191c-6.314,6.314-14.121,9.644-23.421,9.644
					c-9.414,0-16.991-3.215-23.306-9.873c-5.97-6.2-9.07-14.121-9.07-22.732S278.83,40.669,284.914,34.584z M307.99,72.585
					c8.037,0,14.581-6.774,14.581-15.155c0-8.496-6.544-15.269-14.581-15.269c-8.036,0-14.58,6.774-14.58,15.269
					C293.41,65.812,300.069,72.585,307.99,72.585z"/>
				<path fill="#14233C" d="M350.798,88.199V26.547h17.221l-0.23,8.266c3.789-6.199,9.529-9.414,17.68-9.414
					c12.744,0,21.01,8.036,21.01,22.158v40.642h-18.14V54.79c0-8.611-1.837-12.514-8.84-12.514c-7.118,0-10.907,4.248-10.907,12.514
					v33.409H350.798z"/>
				<path fill="#14233C" d="M479.784,34.584c6.199-6.199,14.351-9.644,22.732-9.644c8.955,0,16.647,3.1,22.846,8.955
					c6.544,6.2,10.103,14.695,10.103,23.076c0,9.299-3.1,16.991-9.299,23.191c-6.315,6.314-14.121,9.644-23.421,9.644
					c-9.414,0-16.992-3.215-23.306-9.873c-5.97-6.2-9.07-14.121-9.07-22.732S473.7,40.669,479.784,34.584z M502.861,72.585
					c8.036,0,14.581-6.774,14.581-15.155c0-8.496-6.544-15.269-14.581-15.269c-8.037,0-14.581,6.774-14.581,15.269
					C488.28,65.812,494.939,72.585,502.861,72.585z"/>
			</g>
			<g>
				<path fill="#14233C" d="M417.911,88.199V75.34l25.372-32.835h-25.372V26.548h45.808v14.58l-22.387,31.113h22.847v15.958H417.911
					z"/>
			</g>
		</g>
	</g>
</g>
</svg>
