<?xml version="1.0" encoding="utf-8"?>
<!-- Generator: Adobe Illustrator 19.2.1, SVG Export Plug-In . SVG Version: 6.00 Build 0)  -->
<svg version="1.1" id="Layer_1" xmlns="http://www.w3.org/2000/svg" xmlns:xlink="http://www.w3.org/1999/xlink" x="0px" y="0px"
	 viewBox="0 0 442.3 107.5" style="enable-background:new 0 0 442.3 107.5;" xml:space="preserve">
<style type="text/css">
	.st0{fill:#606263;}
	.st1{fill:url(#SVGID_1_);}
	.st2{fill:url(#SVGID_2_);}
	.st3{fill:url(#SVGID_3_);}
</style>
<g>
	<g>
		<path class="st0" d="M215.7,45.1c-9.4,0-16.5,7.5-16.5,17.3c0,9.6,7.4,17.3,16.5,17.3c5.1,0,9.7-2.7,12.7-6.5v4.6
			c0,7.5-5.6,13.5-12.7,13.5v3.8c9.1,0,16.5-7.8,16.5-17.3V62.4C232.3,52.5,225.2,45.1,215.7,45.1z M215.7,75.9
			c-7.1,0-12.7-6-12.7-13.5c0-7.9,5.6-13.5,12.7-13.5c7.1,0,12.7,5.6,12.7,13.5C228.5,69.9,222.8,75.9,215.7,75.9z"/>
		<path class="st0" d="M139.2,45.1c-5.4,0-10,2.7-13,6.6V35.6h-3.8v19.8c0,6.8,0.4,9.1,0.6,10l0,0c1.3,8.2,8.1,14.4,16.3,14.4
			c9.1,0,16.5-7.8,16.5-17.3C155.7,52.5,148.6,45.1,139.2,45.1z M139.2,75.9c-7.1,0-12.7-6-12.7-13.5c0-7.9,5.6-13.5,12.7-13.5
			c7.1,0,12.7,5.6,12.7,13.5C151.9,69.9,146.2,75.9,139.2,75.9z"/>
		<rect x="187.8" y="45.9" class="st0" width="3.9" height="33"/>
		<path class="st0" d="M324.7,70.4l-0.3,0.3c-3.1,3.5-6.6,5.2-10.5,5.2c-7.2,0-12.8-5.9-12.8-13.5c0-7.6,5.5-13.5,12.6-13.5
			c4.7,0,7.8,2.5,10.4,5.2l0.3,0.3l2.8-2.9l-0.3-0.3c-2.7-2.8-6.6-6.1-13.2-6.1c-9.3,0-16.8,7.7-16.8,17.2c0,9.6,7.5,17.2,16.8,17.2
			c5.3,0,9.5-2,13.4-6.5l0.3-0.3L324.7,70.4z"/>
		<path class="st0" d="M348.8,45.1c-9.5,0-17,7.6-17,17.2c0,9.7,7.4,17.2,16.9,17.2c9.5,0,17-7.6,17-17.2
			C365.7,52.7,358.2,45.1,348.8,45.1 M348.8,75.9c-7.2,0-12.8-5.9-12.8-13.5c0-7.8,5.5-13.5,12.7-13.5c7.2,0,12.8,5.9,12.8,13.5v0.1
			C361.5,70,355.9,75.9,348.8,75.9"/>
		<path class="st0" d="M395.7,45.9c0,0-11.3,26.4-12,28.1c-0.7-1.7-11.9-28.1-11.9-28.1h-4.5L382,79.1h3.2L400,45.9H395.7z"/>
		<path class="st0" d="M432.3,62.5c0-10.3-6.2-17.4-15.2-17.4c-8.8,0-15.7,7.5-15.7,17.2c0,9.9,7,17.3,16.2,17.3
			c5.5,0,9.6-1.8,13.6-6.2l0.3-0.3l-2.8-2.4l-0.3,0.3c-3.1,3.4-6.5,4.9-10.7,4.9c-6.5,0-11.4-4.9-12.1-11.8h26.5L432.3,62.5z
			 M417,48.8c7.4,0,10.5,6.2,11,11.7h-22.4C406.4,53.7,411,48.8,417,48.8"/>
		<path class="st0" d="M255.9,45.1c-4.9,0-8.6,2-11.2,5.9V35.6h-3.9v43.3h3.9v-19c0-6.4,4.5-11.1,10.8-11.1c6.1,0,9.8,3.9,9.8,10.6
			v19.5h3.9V58.8C269.2,50.5,264,45.1,255.9,45.1"/>
		<path class="st0" d="M179.6,45.9c-5.6,0-10.6,2.6-13.8,7.2c-2.1,3-3.2,6.4-3.2,10.1v15.7h3.9V63.1c0-7.5,5.7-13.4,13-13.4h0.7
			v-3.7L179.6,45.9z"/>
		<path class="st0" d="M293.1,79.4v-3.7c-3.3,0-6.4-0.6-8.7-2.9c-1.5-1.5-2.6-4-2.6-6.5c0-2.5,0-16.8,0-16.8h11h0.3v-3.7h-11.3V35.6
			h-3.9c0,0,0,27.6,0,30.7c0,3.1,1.1,6.2,3.2,8.5C283.8,78,287.7,79.4,293.1,79.4z"/>
	</g>
	<g>
		<linearGradient id="SVGID_1_" gradientUnits="userSpaceOnUse" x1="55.1467" y1="78.814" x2="55.1467" y2="24.4898">
			<stop  offset="0" style="stop-color:#9BB93E"/>
			<stop  offset="1" style="stop-color:#C1D33F"/>
		</linearGradient>
		<path class="st1" d="M75.7,55.5c0,0.4-0.1,0.8-0.3,1.2l-5,8.7l-5.8,10.1c-1.2,2-3.3,3.3-5.8,3.3H36.9c-1.3,0-2.4-1.1-2.4-2.4
			c0-0.4,0.1-0.8,0.3-1.2l5.7-9.9l5.1-8.9c1.2-2,3.3-3.3,5.8-3.3h21.8C74.6,53.1,75.7,54.2,75.7,55.5z M75.7,47.8
			c0-0.4-0.1-0.8-0.3-1.2l-5-8.7l-5.8-10.1c-1.2-2-3.3-3.3-5.8-3.3H36.9c-1.3,0-2.4,1.1-2.4,2.4c0,0.4,0.1,0.8,0.3,1.2l5.7,9.9
			l5.1,8.9c1.2,2,3.3,3.3,5.8,3.3h21.8C74.6,50.2,75.7,49.1,75.7,47.8z"/>
		<linearGradient id="SVGID_2_" gradientUnits="userSpaceOnUse" x1="88.2895" y1="107.4605" x2="88.2895" y2="53.1333">
			<stop  offset="0" style="stop-color:#931B5C"/>
			<stop  offset="1" style="stop-color:#E5388C"/>
		</linearGradient>
		<path class="st2" d="M108.9,55.5c0,0.4-0.1,0.8-0.3,1.2l-5,8.7l-5.8,10.1c-1.2,2-3.3,3.3-5.8,3.3H70.1c-1.3,0-2.4-1.1-2.4-2.4
			c0-0.4,0.1-0.8,0.3-1.2l5.7-9.9l5.1-8.9c1.2-2,3.3-3.3,5.8-3.3h21.8C107.8,53.1,108.9,54.2,108.9,55.5z M67.7,84.1
			c0,0.4,0.1,0.8,0.3,1.2l5,8.7l5.8,10.1c1.2,2,3.3,3.3,5.8,3.3h21.8c1.3,0,2.4-1.1,2.4-2.4c0-0.4-0.1-0.8-0.3-1.2l-5.7-9.9
			l-5.1-8.9c-1.2-2-3.3-3.3-5.8-3.3H70.1C68.8,81.8,67.7,82.8,67.7,84.1z"/>
		<linearGradient id="SVGID_3_" gradientUnits="userSpaceOnUse" x1="21.9986" y1="75.238" x2="21.9986" y2="3.647074e-10">
			<stop  offset="0" style="stop-color:#399099"/>
			<stop  offset="1" style="stop-color:#79B3BB"/>
		</linearGradient>
		<path class="st3" d="M32.3,29.7l10.9,18.9c1.2,2.1,1.1,4.7,0,6.7l-5.2,8.9l-5.8,9.9c-0.2,0.3-0.5,0.6-0.8,0.9
			c-1.1,0.7-2.6,0.3-3.2-0.9L17.2,55.1c-1.2-2.1-1.1-4.7,0-6.7l5.9-10.1l5.1-8.7c0.2-0.3,0.5-0.6,0.9-0.9
			C30.2,28.2,31.6,28.6,32.3,29.7z M12.7,0.3c-0.4,0.2-0.6,0.5-0.9,0.9L6.8,9.8L0.9,19.9c-1.1,2-1.2,4.5,0,6.7l10.9,18.9
			c0.7,1.1,2.1,1.5,3.2,0.9c0.4-0.2,0.7-0.5,0.9-0.9l5.8-9.9l5.2-8.9c1.1-2,1.2-4.5,0-6.7L15.9,1.2C15.3,0.1,13.8-0.3,12.7,0.3z"/>
	</g>
	<g>
		<path class="st0" d="M437.3,47.6L437.3,47.6c0-1.4,1.1-2.5,2.5-2.5c1.4,0,2.5,1.1,2.5,2.5v0c0,1.4-1.1,2.5-2.5,2.5
			C438.4,50.2,437.3,49,437.3,47.6z M442.1,47.6L442.1,47.6c0-1.3-1-2.3-2.3-2.3c-1.3,0-2.3,1-2.3,2.3v0c0,1.3,1,2.3,2.3,2.3
			C441.1,49.9,442.1,48.9,442.1,47.6z M438.8,46.2h1.2c0.4,0,0.6,0.1,0.8,0.3c0.1,0.1,0.2,0.3,0.2,0.6v0c0,0.4-0.3,0.7-0.6,0.8
			l0.7,1h-0.6l-0.6-0.9h0h-0.5v0.9h-0.5V46.2z M440,47.5c0.3,0,0.5-0.2,0.5-0.4v0c0-0.3-0.2-0.4-0.5-0.4h-0.7v0.8H440z"/>
	</g>
</g>
</svg>
