<?xml version="1.0" encoding="utf-8"?>
<!-- Generator: Adobe Illustrator 19.2.1, SVG Export Plug-In . SVG Version: 6.00 Build 0)  -->
<svg version="1.1" id="Layer_1" xmlns="http://www.w3.org/2000/svg" xmlns:xlink="http://www.w3.org/1999/xlink" x="0px" y="0px"
	 viewBox="0 0 522.5 51.3" style="enable-background:new 0 0 522.5 51.3;" xml:space="preserve">
<style type="text/css">
	.Arched_x0020_Green{fill:url(#SVGID_1_);stroke:#FFFFFF;stroke-width:0.25;stroke-miterlimit:1;}
	.st0{fill:#0064A3;}
</style>
<linearGradient id="SVGID_1_" gradientUnits="userSpaceOnUse" x1="-44.6421" y1="97.6836" x2="-43.935" y2="96.9765">
	<stop  offset="0" style="stop-color:#1DA238"/>
	<stop  offset="0.9831" style="stop-color:#24391D"/>
</linearGradient>
<polygon class="st0" points="0,51.3 9.5,0 38.8,0 39,31.5 44.3,0.1 73.5,0.1 73.5,51.3 46,51.3 45.5,8.1 38.7,51.3 11.2,51.3 
	11.2,6 2.3,51.3 "/>
<g>
	<path d="M94.1,13.3c0.1-0.5,0.3-0.8,0.5-0.8c0.2,0,0.4,0.2,0.8,0.9l8.2,16.9l8.2-17.1c0.2-0.5,0.4-0.7,0.7-0.7
		c0.3,0,0.5,0.3,0.5,0.9l2.7,18.5c0.3,1.9,0.6,2.8,1.5,3c0.9,0.3,1.5,0.3,1.9,0.3c0.3,0,0.5,0,0.5,0.2c0,0.2-0.4,0.3-0.8,0.3
		c-0.8,0-4.9-0.1-6.1-0.2c-0.7-0.1-0.9-0.2-0.9-0.3c0-0.2,0.1-0.2,0.3-0.3c0.2-0.1,0.3-0.5,0.2-1.3l-1.8-13.2h-0.1l-6.5,13.6
		c-0.7,1.4-0.8,1.7-1.1,1.7c-0.3,0-0.6-0.6-1-1.5c-0.7-1.4-3.1-6-3.5-6.8c-0.3-0.6-2.1-4.4-3.1-6.7h-0.1l-1.6,11.9
		c-0.1,0.5-0.1,0.9-0.1,1.4c0,0.6,0.4,0.8,0.9,1c0.5,0.1,1,0.1,1.3,0.1c0.2,0,0.4,0.1,0.4,0.2c0,0.3-0.3,0.3-0.7,0.3
		c-1.3,0-2.6-0.1-3.1-0.1c-0.6,0-2,0.1-3,0.1c-0.3,0-0.5-0.1-0.5-0.3c0-0.1,0.2-0.2,0.5-0.2c0.2,0,0.4,0,0.9-0.1
		c0.8-0.2,1.1-1.3,1.2-2.4L94.1,13.3z"/>
	<path d="M125.8,28c-0.1,0-0.2,0.1-0.3,0.2l-1.6,4.3c-0.3,0.8-0.5,1.5-0.5,1.8c0,0.5,0.3,0.9,1.2,0.9h0.4c0.4,0,0.5,0.1,0.5,0.2
		c0,0.2-0.2,0.3-0.5,0.3c-1,0-2.2-0.1-3.2-0.1c-0.3,0-2,0.1-3.5,0.1c-0.4,0-0.6-0.1-0.6-0.3c0-0.2,0.1-0.2,0.4-0.2
		c0.3,0,0.7,0,0.9-0.1c1.4-0.2,1.9-1.2,2.5-2.7l7.5-18.8c0.4-0.9,0.5-1.2,0.8-1.2c0.3,0,0.5,0.3,0.8,1c0.7,1.6,5.5,13.9,7.4,18.4
		c1.1,2.7,2,3.1,2.6,3.3c0.5,0.1,0.9,0.1,1.3,0.1c0.2,0,0.4,0,0.4,0.2c0,0.2-0.3,0.3-1.4,0.3c-1.1,0-3.3,0-5.7-0.1
		c-0.5,0-0.9,0-0.9-0.2c0-0.2,0.1-0.2,0.4-0.3c0.2-0.1,0.4-0.3,0.3-0.7l-2.4-6.4c-0.1-0.2-0.1-0.2-0.3-0.2H125.8z M131.9,26.5
		c0.1,0,0.2-0.1,0.1-0.2l-2.7-7.4c0-0.1-0.1-0.3-0.1-0.3c-0.1,0-0.1,0.2-0.2,0.3l-2.8,7.4c0,0.1,0,0.2,0.1,0.2H131.9z"/>
	<path d="M147.2,31.7c0.1,2.3,0.5,3.1,1.1,3.3c0.5,0.2,1.1,0.2,1.6,0.2c0.3,0,0.5,0.1,0.5,0.2c0,0.2-0.3,0.3-0.7,0.3
		c-2,0-3.1-0.1-3.7-0.1c-0.3,0-1.7,0.1-3.2,0.1c-0.4,0-0.7,0-0.7-0.3c0-0.2,0.2-0.2,0.5-0.2c0.4,0,0.9,0,1.3-0.1
		c0.8-0.2,0.9-1.1,0.9-3.7l0.3-17.8c0-0.6,0.1-1,0.4-1c0.3,0,0.6,0.4,1.1,0.9c0.4,0.4,4.9,5.3,9.3,9.6c2,2,6.1,6.4,6.6,6.8h0.1
		l-0.3-13.5c0-1.8-0.3-2.4-1-2.7c-0.4-0.2-1.2-0.2-1.6-0.2c-0.4,0-0.5-0.1-0.5-0.3c0-0.2,0.3-0.3,0.8-0.3c1.6,0,3,0.1,3.6,0.1
		c0.3,0,1.5-0.1,2.9-0.1c0.4,0,0.7,0,0.7,0.3c0,0.2-0.2,0.3-0.5,0.3c-0.3,0-0.5,0-0.9,0.1c-0.8,0.2-1.1,0.9-1.1,2.5l-0.3,18.9
		c0,0.7-0.1,0.9-0.4,0.9c-0.3,0-0.7-0.3-1-0.7c-1.9-1.8-5.7-5.7-8.8-8.8c-3.3-3.2-6.6-7-7.1-7.6h-0.1L147.2,31.7z"/>
	<path d="M175.6,31.7c0.1,2.3,0.5,3.1,1.1,3.3c0.5,0.2,1.1,0.2,1.6,0.2c0.3,0,0.5,0.1,0.5,0.2c0,0.2-0.3,0.3-0.7,0.3
		c-2,0-3.1-0.1-3.7-0.1c-0.3,0-1.7,0.1-3.2,0.1c-0.4,0-0.7,0-0.7-0.3c0-0.2,0.2-0.2,0.5-0.2c0.4,0,0.9,0,1.3-0.1
		c0.8-0.2,0.9-1.1,0.9-3.7l0.3-17.8c0-0.6,0.1-1,0.4-1c0.3,0,0.6,0.4,1.1,0.9c0.4,0.4,4.9,5.3,9.3,9.6c2,2,6.1,6.4,6.6,6.8h0.2
		l-0.3-13.5c0-1.8-0.3-2.4-1-2.7c-0.4-0.2-1.2-0.2-1.6-0.2c-0.4,0-0.5-0.1-0.5-0.3c0-0.2,0.3-0.3,0.8-0.3c1.6,0,3,0.1,3.6,0.1
		c0.3,0,1.5-0.1,2.9-0.1c0.4,0,0.7,0,0.7,0.3c0,0.2-0.2,0.3-0.5,0.3c-0.3,0-0.5,0-0.9,0.1c-0.8,0.2-1.1,0.9-1.1,2.5l-0.3,18.9
		c0,0.7-0.1,0.9-0.4,0.9c-0.3,0-0.7-0.3-1-0.7c-1.9-1.8-5.7-5.7-8.8-8.8c-3.3-3.2-6.6-7-7.1-7.6h-0.1L175.6,31.7z"/>
	<path d="M202.4,21.8c0-4.6,0-5.4-0.1-6.4c-0.1-1-0.4-1.5-1-1.7c-0.3-0.1-0.7-0.1-1.1-0.1c-0.3,0-0.5-0.1-0.5-0.3
		c0-0.2,0.2-0.2,0.7-0.2c1.1,0,3,0.1,3.9,0.1c0.8,0,2.5-0.1,3.7-0.1c0.4,0,0.6,0.1,0.6,0.2c0,0.2-0.2,0.3-0.5,0.3
		c-0.3,0-0.5,0-0.9,0.1c-0.8,0.1-1,0.7-1.1,1.7c-0.1,1-0.1,1.8-0.1,6.4v5.3c0,2.9,0,5.3,0.1,6.6c0.1,0.8,0.3,1.3,1.2,1.5
		c0.4,0.1,1.1,0.1,1.5,0.1c0.3,0,0.5,0.1,0.5,0.2c0,0.2-0.2,0.3-0.6,0.3c-2,0-3.9-0.1-4.7-0.1c-0.7,0-2.6,0.1-3.8,0.1
		c-0.4,0-0.6-0.1-0.6-0.3c0-0.2,0.1-0.2,0.5-0.2c0.5,0,0.8-0.1,1.1-0.1c0.6-0.1,0.8-0.6,0.9-1.5c0.1-1.3,0.1-3.6,0.1-6.5V21.8z"/>
	<path d="M217.6,31.7c0.1,2.3,0.5,3.1,1.1,3.3c0.5,0.2,1.1,0.2,1.6,0.2c0.3,0,0.5,0.1,0.5,0.2c0,0.2-0.3,0.3-0.7,0.3
		c-2,0-3.1-0.1-3.7-0.1c-0.3,0-1.7,0.1-3.2,0.1c-0.4,0-0.7,0-0.7-0.3c0-0.2,0.2-0.2,0.5-0.2c0.4,0,0.9,0,1.3-0.1
		c0.8-0.2,0.9-1.1,0.9-3.7l0.3-17.8c0-0.6,0.1-1,0.4-1c0.3,0,0.6,0.4,1.1,0.9c0.4,0.4,4.9,5.3,9.3,9.6c2,2,6.1,6.4,6.6,6.8h0.2
		l-0.3-13.5c0-1.8-0.3-2.4-1-2.7c-0.4-0.2-1.2-0.2-1.6-0.2c-0.4,0-0.5-0.1-0.5-0.3c0-0.2,0.3-0.3,0.8-0.3c1.6,0,3,0.1,3.6,0.1
		c0.3,0,1.5-0.1,2.9-0.1c0.4,0,0.7,0,0.7,0.3c0,0.2-0.2,0.3-0.5,0.3c-0.3,0-0.5,0-0.9,0.1c-0.8,0.2-1.1,0.9-1.1,2.5l-0.3,18.9
		c0,0.7-0.1,0.9-0.4,0.9c-0.3,0-0.7-0.3-1-0.7c-1.9-1.8-5.7-5.7-8.8-8.8c-3.3-3.2-6.6-7-7.1-7.6h-0.1L217.6,31.7z"/>
	<path d="M262.4,33.8c0,0.8,0,0.9-0.4,1.1c-1.9,1-4.9,1.3-7.2,1.3c-7.3,0-13.9-3.5-13.9-11.8c0-4.8,2.5-8.2,5.2-9.8
		c2.9-1.7,5.5-1.9,8.1-1.9c2.1,0,4.7,0.4,5.3,0.5c0.6,0.1,1.7,0.3,2.4,0.3c0.4,0,0.4,0.2,0.4,0.4c0,0.3-0.2,1.2-0.2,4.9
		c0,0.5-0.1,0.6-0.3,0.6c-0.2,0-0.3-0.2-0.3-0.4c-0.1-0.7-0.2-1.6-1-2.5c-0.9-1-3.3-2.3-6.7-2.3c-1.6,0-3.8,0.1-5.9,1.9
		c-1.7,1.4-2.8,3.7-2.8,7.3c0,6.5,4.1,11.3,10.4,11.3c0.8,0,1.8,0,2.6-0.3c0.4-0.2,0.6-0.6,0.6-1.1v-2.8c0-1.5,0-2.6,0-3.5
		c0-1-0.3-1.5-1.3-1.7c-0.2-0.1-0.8-0.1-1.2-0.1c-0.3,0-0.5-0.1-0.5-0.2c0-0.2,0.2-0.3,0.6-0.3c1.6,0,3.4,0.1,4.3,0.1
		c0.9,0,2.5-0.1,3.5-0.1c0.4,0,0.6,0.1,0.6,0.3c0,0.2-0.2,0.2-0.4,0.2c-0.2,0-0.5,0-0.8,0.1c-0.8,0.1-1.1,0.7-1.1,1.7
		c0,0.9,0,2.1,0,3.6V33.8z"/>
	<path d="M279.8,21.8c0-4.6,0-5.4-0.1-6.4c-0.1-1-0.3-1.5-1.3-1.7c-0.2-0.1-0.8-0.1-1.2-0.1c-0.3,0-0.5-0.1-0.5-0.3s0.2-0.3,0.7-0.3
		c1.6,0,3.5,0.1,4.3,0.1c1.2,0,3-0.1,4.4-0.1c3.7,0,5.1,1.3,5.6,1.7c0.7,0.6,1.5,2,1.5,3.6c0,4.3-3.1,7.3-7.4,7.3
		c-0.2,0-0.5,0-0.6,0c-0.1,0-0.4-0.1-0.4-0.3c0-0.2,0.2-0.3,0.8-0.3c1.7,0,4-1.9,4-4.9c0-1-0.1-3-1.8-4.5c-1.1-1-2.3-1.2-3-1.2
		c-0.4,0-0.9,0-1.2,0.1c-0.1,0.1-0.2,0.2-0.2,0.6v12c0,2.8,0,5.1,0.1,6.4c0.1,0.8,0.3,1.5,1.2,1.6c0.4,0.1,1.1,0.1,1.5,0.1
		c0.3,0,0.5,0.1,0.5,0.2c0,0.2-0.2,0.3-0.6,0.3c-2,0-3.9-0.1-4.6-0.1c-0.7,0-2.6,0.1-3.8,0.1c-0.4,0-0.6-0.1-0.6-0.3
		c0-0.2,0.1-0.2,0.5-0.2c0.5,0,0.8-0.1,1.1-0.1c0.6-0.1,0.8-0.8,0.9-1.6c0.1-1.3,0.1-3.6,0.1-6.4V21.8z"/>
	<path d="M298.1,21.8c0-4.6,0-5.4-0.1-6.4c-0.1-1-0.3-1.5-1.3-1.7c-0.2-0.1-0.8-0.1-1.2-0.1c-0.3,0-0.5-0.1-0.5-0.3s0.2-0.3,0.7-0.3
		c1.6,0,3.5,0.1,4.4,0.1c0.7,0,2.6-0.1,3.7-0.1c0.4,0,0.7,0.1,0.7,0.3s-0.2,0.3-0.5,0.3c-0.3,0-0.5,0-0.9,0.1
		c-0.8,0.1-1,0.7-1.1,1.7c-0.1,1-0.1,1.8-0.1,6.4V26c0,4.3,0.9,6.2,2.3,7.4c1.4,1.1,2.7,1.2,3.8,1.2c1.3,0,2.9-0.4,4.1-1.6
		c1.7-1.6,1.7-4.3,1.7-7.4v-3.8c0-4.6,0-5.4-0.1-6.4c-0.1-1-0.3-1.5-1.3-1.7c-0.2-0.1-0.8-0.1-1.1-0.1c-0.3,0-0.5-0.1-0.5-0.3
		s0.2-0.3,0.6-0.3c1.5,0,3.4,0.1,3.5,0.1c0.4,0,2.2-0.1,3.4-0.1c0.4,0,0.6,0.1,0.6,0.3s-0.2,0.3-0.5,0.3c-0.3,0-0.5,0-0.9,0.1
		c-0.8,0.1-1,0.7-1.1,1.7c-0.1,1-0.1,1.8-0.1,6.4v3.2c0,3.3-0.3,6.9-2.8,9c-2.1,1.8-4.3,2.2-6.2,2.2c-1.6,0-4.5-0.1-6.7-2.1
		c-1.5-1.4-2.7-3.6-2.7-8V21.8z"/>
	<path d="M325,21.8c0-4.6,0-5.4-0.1-6.4c-0.1-1-0.3-1.5-1.3-1.7c-0.2-0.1-0.8-0.1-1.2-0.1c-0.3,0-0.5-0.1-0.5-0.3s0.2-0.3,0.7-0.3
		c1.6,0,3.5,0.1,4.1,0.1c1.5,0,2.6-0.1,3.7-0.1c5.4,0,6.4,2.9,6.4,4.5c0,2.5-1.4,3.9-3.1,5.2c2.5,0.8,5.5,3,5.5,6.5
		c0,3.2-2.5,6.5-8,6.5c-0.7,0-3.4-0.2-4.3-0.2c-0.7,0-2.6,0.1-3.8,0.1c-0.4,0-0.6-0.1-0.6-0.3c0-0.2,0.1-0.2,0.5-0.2
		c0.5,0,0.8-0.1,1.1-0.1c0.6-0.1,0.8-0.8,0.9-1.6c0.1-1.3,0.1-3.6,0.1-6.4V21.8z M328.6,22.4c0,0.2,0.1,0.3,0.2,0.3
		c0.3,0.1,0.7,0.1,1.4,0.1c1,0,1.7-0.1,2.2-0.6c0.8-0.6,1.2-1.7,1.2-3.2c0-2-1.2-4.7-3.7-4.7c-0.4,0-0.7,0-1,0.1
		c-0.2,0.1-0.3,0.2-0.3,0.5V22.4z M332.5,24.8c-0.6-0.5-1.3-0.7-2.5-0.7c-0.5,0-0.8,0-1.3,0c-0.1,0-0.2,0.1-0.2,0.2v7.1
		c0,2,0.1,2.5,1,2.9c0.8,0.3,1.5,0.4,2.2,0.4c1.3,0,3.6-0.7,3.6-3.8C335.5,28.9,334.8,26.3,332.5,24.8z"/>
	<path d="M349.9,27.1c0,3.8,0,5.9,0.6,6.4c0.5,0.5,1.3,0.7,3.6,0.7c1.6,0,2.8,0,3.5-0.8c0.4-0.4,0.7-1.2,0.8-1.8
		c0-0.3,0.1-0.5,0.3-0.5c0.2,0,0.2,0.2,0.2,0.5c0,0.3-0.2,2.6-0.4,3.5c-0.2,0.7-0.3,0.8-1.9,0.8c-4.3,0-6.3-0.2-8.7-0.2
		c-0.7,0-2.6,0.1-3.8,0.1c-0.4,0-0.6-0.1-0.6-0.3c0-0.2,0.1-0.2,0.5-0.2c0.4,0,0.8-0.1,1.1-0.1c0.6-0.1,0.8-0.8,0.9-1.6
		c0.2-1.3,0.2-3.6,0.2-6.4v-5.3c0-4.6,0-5.4-0.1-6.4c-0.1-1-0.3-1.5-1.3-1.7c-0.2-0.1-0.6-0.1-1-0.1c-0.3,0-0.5-0.1-0.5-0.3
		s0.2-0.3,0.7-0.3c1.4,0,3.3,0.1,4.1,0.1c0.7,0,2.9-0.1,4.1-0.1c0.4,0,0.6,0.1,0.6,0.3s-0.2,0.3-0.5,0.3c-0.3,0-0.8,0-1.2,0.1
		c-0.8,0.1-1.1,0.7-1.1,1.7c-0.1,1-0.1,1.8-0.1,6.4V27.1z"/>
	<path d="M364.3,21.8c0-4.6,0-5.4-0.1-6.4c-0.1-1-0.4-1.5-1-1.7c-0.3-0.1-0.7-0.1-1.1-0.1c-0.3,0-0.5-0.1-0.5-0.3
		c0-0.2,0.2-0.2,0.7-0.2c1.1,0,3,0.1,3.9,0.1c0.8,0,2.5-0.1,3.7-0.1c0.4,0,0.6,0.1,0.6,0.2c0,0.2-0.2,0.3-0.5,0.3
		c-0.3,0-0.5,0-0.9,0.1c-0.8,0.1-1,0.7-1.1,1.7c-0.1,1-0.1,1.8-0.1,6.4v5.3c0,2.9,0,5.3,0.1,6.6c0.1,0.8,0.3,1.3,1.2,1.5
		c0.4,0.1,1.1,0.1,1.5,0.1c0.3,0,0.5,0.1,0.5,0.2c0,0.2-0.2,0.3-0.6,0.3c-2,0-3.9-0.1-4.7-0.1c-0.7,0-2.6,0.1-3.8,0.1
		c-0.4,0-0.6-0.1-0.6-0.3c0-0.2,0.1-0.2,0.5-0.2c0.5,0,0.8-0.1,1.1-0.1c0.6-0.1,0.8-0.6,0.9-1.5c0.1-1.3,0.1-3.6,0.1-6.5V21.8z"/>
	<path d="M378.1,33c-2.9-2.6-3.7-5.9-3.7-8.8c0-2,0.6-5.6,3.5-8.2c2.2-2,5-3.2,9.5-3.2c1.9,0,3,0.1,4.3,0.3c1.1,0.1,2.1,0.4,3,0.5
		c0.3,0,0.5,0.2,0.5,0.4c0,0.2-0.1,0.6-0.2,1.6c-0.1,1,0,2.6-0.1,3.2c0,0.5-0.1,0.7-0.4,0.7c-0.2,0-0.3-0.2-0.3-0.7
		c0-0.9-0.4-2-1.2-2.8c-1-1.1-3.3-1.9-6.1-1.9c-2.6,0-4.3,0.7-5.6,1.9c-2.2,2-2.8,4.9-2.8,7.8c0,7.1,5.4,10.7,9.4,10.7
		c2.7,0,4.3-0.3,5.5-1.7c0.5-0.6,0.9-1.4,1-2c0.1-0.5,0.2-0.6,0.4-0.6c0.2,0,0.3,0.2,0.3,0.5c0,0.4-0.4,3-0.7,4
		c-0.1,0.5-0.3,0.7-0.8,0.9c-1.2,0.5-3.5,0.7-5.4,0.7C384.2,36.2,380.8,35.3,378.1,33z"/>
	<path d="M403.7,28c-0.2,0-0.2,0.1-0.3,0.2l-1.6,4.3c-0.3,0.8-0.4,1.5-0.4,1.8c0,0.5,0.3,0.9,1.2,0.9h0.5c0.4,0,0.5,0.1,0.5,0.2
		c0,0.2-0.2,0.3-0.5,0.3c-1,0-2.2-0.1-3.2-0.1c-0.3,0-2,0.1-3.5,0.1c-0.4,0-0.6-0.1-0.6-0.3c0-0.2,0.1-0.2,0.4-0.2
		c0.3,0,0.7,0,0.9-0.1c1.4-0.2,2-1.2,2.5-2.7l7.5-18.8c0.4-0.9,0.5-1.2,0.8-1.2c0.3,0,0.4,0.3,0.8,1c0.7,1.6,5.5,13.9,7.4,18.4
		c1.1,2.7,2,3.1,2.6,3.3c0.5,0.1,0.9,0.1,1.3,0.1c0.2,0,0.4,0,0.4,0.2c0,0.2-0.3,0.3-1.4,0.3c-1.1,0-3.3,0-5.7-0.1
		c-0.5,0-0.9,0-0.9-0.2c0-0.2,0.1-0.2,0.4-0.3c0.2-0.1,0.4-0.3,0.3-0.7l-2.4-6.4c-0.1-0.2-0.1-0.2-0.3-0.2H403.7z M409.8,26.5
		c0.2,0,0.2-0.1,0.2-0.2l-2.7-7.4c0-0.1-0.1-0.3-0.1-0.3c-0.1,0-0.2,0.2-0.2,0.3l-2.8,7.4c0,0.1,0,0.2,0.1,0.2H409.8z"/>
	<path d="M425.6,14.8l-4.5,0.1c-1.7,0.1-2.5,0.2-2.9,0.9c-0.3,0.5-0.5,0.8-0.5,1c-0.1,0.2-0.1,0.4-0.3,0.4c-0.2,0-0.3-0.2-0.3-0.5
		c0-0.5,0.6-3.2,0.6-3.5c0.1-0.4,0.2-0.6,0.4-0.6c0.2,0,0.5,0.3,1.3,0.4c0.9,0.1,2,0.2,3,0.2h11.9c1.9,0,2.6-0.3,2.9-0.3
		c0.2,0,0.2,0.2,0.2,0.6c0,0.6-0.1,2.7-0.1,3.5c0,0.3-0.1,0.5-0.3,0.5c-0.2,0-0.3-0.2-0.3-0.6l0-0.3c-0.1-0.8-0.9-1.6-3.5-1.7
		l-3.8-0.1v12.3c0,2.8,0,5.1,0.2,6.4c0.1,0.8,0.3,1.5,1.2,1.6c0.4,0.1,1.1,0.1,1.5,0.1c0.3,0,0.5,0.1,0.5,0.2c0,0.2-0.2,0.3-0.6,0.3
		c-2,0-3.9-0.1-4.7-0.1c-0.7,0-2.6,0.1-3.8,0.1c-0.4,0-0.6-0.1-0.6-0.3c0-0.2,0.1-0.2,0.5-0.2c0.5,0,0.8-0.1,1.1-0.1
		c0.6-0.1,0.8-0.8,0.9-1.6c0.1-1.3,0.1-3.6,0.1-6.4V14.8z"/>
	<path d="M442.9,21.8c0-4.6,0-5.4-0.1-6.4c-0.1-1-0.4-1.5-1-1.7c-0.3-0.1-0.7-0.1-1.1-0.1c-0.3,0-0.5-0.1-0.5-0.3
		c0-0.2,0.2-0.2,0.7-0.2c1.1,0,3,0.1,3.9,0.1c0.8,0,2.5-0.1,3.7-0.1c0.4,0,0.6,0.1,0.6,0.2c0,0.2-0.2,0.3-0.5,0.3
		c-0.3,0-0.5,0-0.9,0.1c-0.8,0.1-1,0.7-1.1,1.7c-0.1,1-0.1,1.8-0.1,6.4v5.3c0,2.9,0,5.3,0.1,6.6c0.1,0.8,0.3,1.3,1.2,1.5
		c0.4,0.1,1.1,0.1,1.5,0.1c0.3,0,0.5,0.1,0.5,0.2c0,0.2-0.2,0.3-0.6,0.3c-2,0-3.9-0.1-4.7-0.1c-0.7,0-2.6,0.1-3.8,0.1
		c-0.4,0-0.6-0.1-0.6-0.3c0-0.2,0.1-0.2,0.5-0.2c0.4,0,0.8-0.1,1.1-0.1c0.6-0.1,0.8-0.6,0.9-1.5c0.2-1.3,0.2-3.6,0.2-6.5V21.8z"/>
	<path d="M452.9,24.5c0-5.1,3.4-11.8,12.4-11.8c7.5,0,12.1,4.3,12.1,11.2c0,6.9-4.8,12.3-12.4,12.3
		C456.3,36.2,452.9,29.8,452.9,24.5z M473.2,25.1c0-6.7-3.9-10.9-8.8-10.9c-3.5,0-7.4,1.9-7.4,9.4c0,6.2,3.4,11.2,9.2,11.2
		C468.3,34.7,473.2,33.7,473.2,25.1z"/>
	<path d="M485.5,31.7c0.1,2.3,0.5,3.1,1,3.3c0.5,0.2,1.1,0.2,1.6,0.2c0.3,0,0.5,0.1,0.5,0.2c0,0.2-0.3,0.3-0.7,0.3
		c-1.9,0-3.1-0.1-3.7-0.1c-0.3,0-1.7,0.1-3.2,0.1c-0.4,0-0.7,0-0.7-0.3c0-0.2,0.2-0.2,0.5-0.2c0.4,0,0.9,0,1.4-0.1
		c0.8-0.2,0.9-1.1,0.9-3.7l0.3-17.8c0-0.6,0.1-1,0.4-1c0.3,0,0.6,0.4,1.1,0.9c0.4,0.4,4.9,5.3,9.3,9.6c2,2,6.1,6.4,6.6,6.8h0.2
		l-0.3-13.5c0-1.8-0.3-2.4-1-2.7c-0.5-0.2-1.2-0.2-1.6-0.2c-0.4,0-0.5-0.1-0.5-0.3c0-0.2,0.3-0.3,0.8-0.3c1.6,0,3,0.1,3.6,0.1
		c0.3,0,1.5-0.1,2.9-0.1c0.4,0,0.7,0,0.7,0.3c0,0.2-0.2,0.3-0.5,0.3c-0.3,0-0.5,0-0.9,0.1c-0.8,0.2-1.1,0.9-1.1,2.5l-0.3,18.9
		c0,0.7-0.1,0.9-0.4,0.9c-0.3,0-0.7-0.3-1-0.7c-1.9-1.8-5.7-5.7-8.8-8.8c-3.3-3.2-6.6-7-7.1-7.6h-0.1L485.5,31.7z"/>
	<path d="M510.6,35.5c-0.5-0.2-0.6-0.4-0.6-1c0-1.6,0.1-3.5,0.1-3.9c0-0.5,0.1-0.8,0.4-0.8c0.3,0,0.3,0.3,0.3,0.5
		c0,0.4,0.1,1,0.3,1.5c0.7,2.2,2.4,3,4.3,3c2.7,0,4-1.8,4-3.4c0-1.5-0.5-2.9-2.9-4.8l-1.4-1.1c-3.3-2.6-4.4-4.7-4.4-7.1
		c0-3.3,2.8-5.7,6.9-5.7c2,0,3.2,0.3,4,0.5c0.3,0.1,0.4,0.2,0.4,0.4c0,0.4-0.1,1.3-0.1,3.6c0,0.7-0.1,0.9-0.3,0.9
		c-0.2,0-0.3-0.2-0.3-0.5c0-0.3-0.1-1.2-0.8-2c-0.5-0.6-1.3-1.5-3.3-1.5c-2.2,0-3.6,1.3-3.6,3.1c0,1.4,0.7,2.4,3.2,4.3l0.8,0.6
		c3.6,2.8,4.9,4.8,4.9,7.7c0,1.7-0.7,3.8-2.8,5.2c-1.5,1-3.2,1.2-4.8,1.2C513.2,36.2,511.8,36,510.6,35.5z"/>
</g>
</svg>
